<svg xmlns="http://www.w3.org/2000/svg" xmlns:xlink="http://www.w3.org/1999/xlink" viewBox="0 0 572.87 866.7"><defs><style>.cls-1{fill:none;}.cls-2{fill:#fff;}.cls-3{clip-path:url(#clip-path);}.cls-4{fill:#b7ded6;}.cls-5{clip-path:url(#clip-path-2);}.cls-6{fill:#fbfbe1;}.cls-7{clip-path:url(#clip-path-3);}.cls-8{clip-path:url(#clip-path-4);}</style><clipPath id="clip-path" transform="translate(115.47)"><rect class="cls-1" y="719.02" width="342.62" height="122.87"/></clipPath><clipPath id="clip-path-2" transform="translate(115.47)"><circle class="cls-1" cx="88.16" cy="200.22" r="76.35"/></clipPath><clipPath id="clip-path-3" transform="translate(115.47)"><circle class="cls-1" cx="283.92" cy="327.64" r="52.72"/></clipPath><clipPath id="clip-path-4" transform="translate(115.47)"><circle class="cls-1" cx="118.72" cy="542.51" r="112.49"/></clipPath></defs><g id="レイヤー_2" data-name="レイヤー 2"><g id="レイヤー_1-2" data-name="レイヤー 1"><rect class="cls-2" x="115.47" width="342.62" height="841.89"/><g id="波"><g class="cls-3"><path class="cls-4" d="M19.72,770.53c8-13.2,19.82-18.88,33.79-23.93-23.94-10.35-43.65-10.35-67.59,0C-.11,751.65,11.69,757.33,19.72,770.53Z" transform="translate(115.47)"/><path class="cls-4" d="M-14.08,794.56c8-13.21,19.82-18.89,33.8-23.94-23.95-10.35-43.66-10.35-67.6,0C-33.9,775.67-22.1,781.35-14.08,794.56Z" transform="translate(115.47)"/><path class="cls-4" d="M87.31,770.53c8-13.2,19.82-18.88,33.79-23.93-23.94-10.35-43.65-10.35-67.59,0C67.48,751.65,79.28,757.33,87.31,770.53Z" transform="translate(115.47)"/><path class="cls-4" d="M53.51,794.56c8-13.21,19.82-18.89,33.8-23.94-23.94-10.35-43.65-10.35-67.59,0C33.69,775.67,45.49,781.35,53.51,794.56Z" transform="translate(115.47)"/><path class="cls-4" d="M154.9,770.53c8-13.2,19.82-18.88,33.8-23.93-23.95-10.35-43.66-10.35-67.6,0C135.08,751.65,146.88,757.33,154.9,770.53Z" transform="translate(115.47)"/><path class="cls-4" d="M121.1,794.56c8-13.21,19.83-18.89,33.8-23.94-23.94-10.35-43.65-10.35-67.59,0C101.28,775.67,113.08,781.35,121.1,794.56Z" transform="translate(115.47)"/><path class="cls-4" d="M220.83,770.53c8-13.2,19.83-18.88,33.8-23.93-23.94-10.35-43.65-10.35-67.59,0C201,751.65,212.81,757.33,220.83,770.53Z" transform="translate(115.47)"/><path class="cls-4" d="M187,794.56c8-13.21,19.82-18.89,33.79-23.94-23.94-10.35-43.65-10.35-67.59,0C167.21,775.67,179,781.35,187,794.56Z" transform="translate(115.47)"/><path class="cls-4" d="M288.42,770.53c8-13.2,19.83-18.88,33.8-23.93-23.94-10.35-43.65-10.35-67.59,0C268.6,751.65,280.4,757.33,288.42,770.53Z" transform="translate(115.47)"/><path class="cls-4" d="M254.63,794.56c8-13.21,19.82-18.89,33.79-23.94-23.94-10.35-43.65-10.35-67.59,0C234.81,775.67,246.61,781.35,254.63,794.56Z" transform="translate(115.47)"/><path class="cls-4" d="M356,770.53c8-13.2,19.82-18.88,33.79-23.93-23.94-10.35-43.65-10.35-67.59,0C336.19,751.65,348,757.33,356,770.53Z" transform="translate(115.47)"/><path class="cls-4" d="M322.22,794.56c8-13.21,19.82-18.89,33.8-23.94-23.94-10.35-43.66-10.35-67.6,0C302.4,775.67,314.2,781.35,322.22,794.56Z" transform="translate(115.47)"/><path class="cls-4" d="M-47.88,818.62c8-13.21,19.83-18.89,33.8-23.94-23.94-10.35-43.65-10.35-67.59,0C-67.7,799.73-55.9,805.41-47.88,818.62Z" transform="translate(115.47)"/><path class="cls-4" d="M-81.67,842.64c8-13.21,19.82-18.89,33.79-23.94-23.94-10.35-43.65-10.35-67.59,0C-101.49,823.75-89.69,829.43-81.67,842.64Z" transform="translate(115.47)"/><path class="cls-4" d="M19.72,818.62c8-13.21,19.82-18.89,33.79-23.94-23.94-10.35-43.65-10.35-67.59,0C-.11,799.73,11.69,805.41,19.72,818.62Z" transform="translate(115.47)"/><path class="cls-4" d="M-14.08,842.64c8-13.21,19.82-18.89,33.8-23.94-23.95-10.35-43.66-10.35-67.6,0C-33.9,823.75-22.1,829.43-14.08,842.64Z" transform="translate(115.47)"/><path class="cls-4" d="M87.31,818.62c8-13.21,19.82-18.89,33.79-23.94-23.94-10.35-43.65-10.35-67.59,0C67.48,799.73,79.28,805.41,87.31,818.62Z" transform="translate(115.47)"/><path class="cls-4" d="M53.51,842.64c8-13.21,19.82-18.89,33.8-23.94-23.94-10.35-43.65-10.35-67.59,0C33.69,823.75,45.49,829.43,53.51,842.64Z" transform="translate(115.47)"/><path class="cls-4" d="M153.24,818.62c8-13.21,19.82-18.89,33.8-23.94-23.94-10.35-43.65-10.35-67.6,0C133.42,799.73,145.22,805.41,153.24,818.62Z" transform="translate(115.47)"/><path class="cls-4" d="M119.44,842.64c8-13.21,19.83-18.89,33.8-23.94-23.94-10.35-43.65-10.35-67.59,0C99.62,823.75,111.42,829.43,119.44,842.64Z" transform="translate(115.47)"/><path class="cls-4" d="M220.83,818.62c8-13.21,19.83-18.89,33.8-23.94-23.94-10.35-43.65-10.35-67.59,0C201,799.73,212.81,805.41,220.83,818.62Z" transform="translate(115.47)"/><path class="cls-4" d="M187,842.64c8-13.21,19.82-18.89,33.79-23.94-23.94-10.35-43.65-10.35-67.59,0C167.21,823.75,179,829.43,187,842.64Z" transform="translate(115.47)"/><path class="cls-4" d="M288.42,818.62c8-13.21,19.83-18.89,33.8-23.94-23.94-10.35-43.65-10.35-67.59,0C268.6,799.73,280.4,805.41,288.42,818.62Z" transform="translate(115.47)"/><path class="cls-4" d="M254.63,842.64c8-13.21,19.82-18.89,33.79-23.94-23.94-10.35-43.65-10.35-67.59,0C234.81,823.75,246.61,829.43,254.63,842.64Z" transform="translate(115.47)"/><path class="cls-4" d="M423.61,770.53c8-13.2,19.82-18.88,33.79-23.93-23.94-10.35-43.65-10.35-67.59,0C403.78,751.65,415.58,757.33,423.61,770.53Z" transform="translate(115.47)"/><path class="cls-4" d="M389.81,794.56c8-13.21,19.82-18.89,33.8-23.94-23.94-10.35-43.65-10.35-67.59,0C370,775.67,381.79,781.35,389.81,794.56Z" transform="translate(115.47)"/><path class="cls-4" d="M356,818.62c8-13.21,19.82-18.89,33.79-23.94-23.94-10.35-43.65-10.35-67.59,0C336.19,799.73,348,805.41,356,818.62Z" transform="translate(115.47)"/><path class="cls-4" d="M322.22,842.64c8-13.21,19.82-18.89,33.8-23.94-23.94-10.35-43.66-10.35-67.6,0C302.4,823.75,314.2,829.43,322.22,842.64Z" transform="translate(115.47)"/><path class="cls-4" d="M-48,866.7c8-13.21,19.83-18.88,33.8-23.93-23.94-10.35-43.65-10.35-67.59,0C-67.87,847.82-56.07,853.49-48,866.7Z" transform="translate(115.47)"/><path class="cls-4" d="M19.55,866.7c8-13.21,19.82-18.88,33.79-23.93-23.94-10.35-43.65-10.35-67.59,0C-.28,847.82,11.52,853.49,19.55,866.7Z" transform="translate(115.47)"/><path class="cls-4" d="M87.14,866.7c8-13.21,19.82-18.88,33.79-23.93-23.94-10.35-43.65-10.35-67.59,0C67.31,847.82,79.11,853.49,87.14,866.7Z" transform="translate(115.47)"/><path class="cls-4" d="M153.07,866.7c8-13.21,19.82-18.88,33.8-23.93-23.94-10.35-43.66-10.35-67.6,0C133.25,847.82,145.05,853.49,153.07,866.7Z" transform="translate(115.47)"/><path class="cls-4" d="M220.66,866.7c8-13.21,19.82-18.88,33.8-23.93-23.94-10.35-43.65-10.35-67.59,0C200.84,847.82,212.64,853.49,220.66,866.7Z" transform="translate(115.47)"/><path class="cls-4" d="M288.25,866.7c8-13.21,19.83-18.88,33.8-23.93-23.94-10.35-43.65-10.35-67.59,0C268.43,847.82,280.23,853.49,288.25,866.7Z" transform="translate(115.47)"/><path class="cls-4" d="M355.85,866.7c8-13.21,19.82-18.88,33.79-23.93-23.94-10.35-43.65-10.35-67.59,0C336,847.82,347.82,853.49,355.85,866.7Z" transform="translate(115.47)"/></g></g><g id="丸3"><g class="cls-5"><rect class="cls-6" x="120.06" y="105.82" width="21.02" height="21.02"/><rect class="cls-6" x="140.56" y="126.84" width="21.02" height="21.02"/><rect class="cls-6" x="120.06" y="147.86" width="21.02" height="21.02"/><rect class="cls-6" x="161.58" y="105.82" width="21.02" height="21.02"/><rect class="cls-6" x="182.08" y="126.84" width="21.02" height="21.02"/><rect class="cls-6" x="161.58" y="147.86" width="21.02" height="21.02"/><rect class="cls-6" x="141.08" y="168.69" width="21.02" height="21.02"/><rect class="cls-6" x="161.58" y="189.71" width="21.02" height="21.02"/><rect class="cls-6" x="141.08" y="210.73" width="21.02" height="21.02"/><rect class="cls-6" x="182.6" y="168.69" width="21.02" height="21.02"/><rect class="cls-6" x="203.11" y="189.71" width="21.02" height="21.02"/><rect class="cls-6" x="182.6" y="210.73" width="21.02" height="21.02"/><rect class="cls-6" x="203.11" y="105.82" width="21.02" height="21.02"/><rect class="cls-6" x="223.61" y="126.84" width="21.02" height="21.02"/><rect class="cls-6" x="203.11" y="147.86" width="21.02" height="21.02"/><rect class="cls-6" x="244.63" y="105.82" width="21.02" height="21.02"/><rect class="cls-6" x="265.13" y="126.84" width="21.02" height="21.02"/><rect class="cls-6" x="244.63" y="147.86" width="21.02" height="21.02"/><rect class="cls-6" x="223.61" y="168.69" width="21.02" height="21.02"/><rect class="cls-6" x="244.11" y="189.71" width="21.02" height="21.02"/><rect class="cls-6" x="223.61" y="210.73" width="21.02" height="21.02"/><rect class="cls-6" x="265.13" y="168.69" width="21.02" height="21.02"/><rect class="cls-6" x="265.13" y="210.73" width="21.02" height="21.02"/><rect class="cls-6" x="120.31" y="231.76" width="21.02" height="21.02"/><rect class="cls-6" x="140.82" y="252.78" width="21.02" height="21.02"/><rect class="cls-6" x="120.31" y="273.8" width="21.02" height="21.02"/><rect class="cls-6" x="161.84" y="231.76" width="21.02" height="21.02"/><rect class="cls-6" x="182.34" y="252.78" width="21.02" height="21.02"/><rect class="cls-6" x="161.84" y="273.8" width="21.02" height="21.02"/><rect class="cls-6" x="202.85" y="231.76" width="21.02" height="21.02"/><rect class="cls-6" x="223.35" y="252.78" width="21.02" height="21.02"/><rect class="cls-6" x="202.85" y="273.8" width="21.02" height="21.02"/><rect class="cls-6" x="244.37" y="231.76" width="21.02" height="21.02"/><rect class="cls-6" x="264.87" y="252.78" width="21.02" height="21.02"/><rect class="cls-6" x="244.37" y="273.8" width="21.02" height="21.02"/><rect class="cls-6" x="120.06" y="190.48" width="21.02" height="21.02"/></g></g><g id="丸2"><g class="cls-7"><rect class="cls-6" x="341.69" y="262.45" width="14.51" height="14.51"/><rect class="cls-6" x="355.85" y="276.97" width="14.51" height="14.51"/><rect class="cls-6" x="341.69" y="291.48" width="14.51" height="14.51"/><rect class="cls-6" x="370.36" y="262.45" width="14.51" height="14.51"/><rect class="cls-6" x="384.52" y="276.97" width="14.51" height="14.51"/><rect class="cls-6" x="370.36" y="291.48" width="14.51" height="14.51"/><rect class="cls-6" x="356.21" y="305.86" width="14.51" height="14.51"/><rect class="cls-6" x="370.36" y="320.38" width="14.51" height="14.51"/><rect class="cls-6" x="356.21" y="334.89" width="14.51" height="14.51"/><rect class="cls-6" x="384.88" y="305.86" width="14.51" height="14.51"/><rect class="cls-6" x="399.03" y="320.38" width="14.51" height="14.51"/><rect class="cls-6" x="384.88" y="334.89" width="14.51" height="14.51"/><rect class="cls-6" x="399.03" y="262.45" width="14.51" height="14.51"/><rect class="cls-6" x="413.19" y="276.97" width="14.51" height="14.51"/><rect class="cls-6" x="399.03" y="291.48" width="14.51" height="14.51"/><rect class="cls-6" x="427.7" y="262.45" width="14.51" height="14.51"/><rect class="cls-6" x="441.86" y="276.97" width="14.51" height="14.51"/><rect class="cls-6" x="427.7" y="291.48" width="14.51" height="14.51"/><rect class="cls-6" x="413.19" y="305.86" width="14.51" height="14.51"/><rect class="cls-6" x="427.34" y="320.38" width="14.51" height="14.51"/><rect class="cls-6" x="413.19" y="334.89" width="14.51" height="14.51"/><rect class="cls-6" x="441.86" y="305.86" width="14.51" height="14.51"/><rect class="cls-6" x="441.86" y="334.89" width="14.51" height="14.51"/><rect class="cls-6" x="341.87" y="349.41" width="14.51" height="14.51"/><rect class="cls-6" x="356.03" y="363.92" width="14.51" height="14.51"/><rect class="cls-6" x="341.87" y="378.44" width="14.51" height="14.51"/><rect class="cls-6" x="370.54" y="349.41" width="14.51" height="14.51"/><rect class="cls-6" x="384.7" y="363.92" width="14.51" height="14.51"/><rect class="cls-6" x="370.54" y="378.44" width="14.51" height="14.51"/><rect class="cls-6" x="398.85" y="349.41" width="14.51" height="14.51"/><rect class="cls-6" x="413.01" y="363.92" width="14.51" height="14.51"/><rect class="cls-6" x="398.85" y="378.44" width="14.51" height="14.51"/><rect class="cls-6" x="427.52" y="349.41" width="14.51" height="14.51"/><rect class="cls-6" x="441.68" y="363.92" width="14.51" height="14.51"/><rect class="cls-6" x="427.52" y="378.44" width="14.51" height="14.51"/><rect class="cls-6" x="341.69" y="320.91" width="14.51" height="14.51"/></g></g><g id="丸"><g class="cls-8"><rect class="cls-6" x="111.07" y="403.42" width="30.97" height="30.97"/><rect class="cls-6" x="141.27" y="434.39" width="30.97" height="30.97"/><rect class="cls-6" x="111.07" y="465.36" width="30.97" height="30.97"/><rect class="cls-6" x="172.24" y="403.42" width="30.97" height="30.97"/><rect class="cls-6" x="202.45" y="434.39" width="30.97" height="30.97"/><rect class="cls-6" x="172.24" y="465.36" width="30.97" height="30.97"/><rect class="cls-6" x="142.04" y="496.05" width="30.97" height="30.97"/><rect class="cls-6" x="172.24" y="527.03" width="30.97" height="30.97"/><rect class="cls-6" x="142.04" y="558" width="30.97" height="30.97"/><rect class="cls-6" x="203.22" y="496.05" width="30.97" height="30.97"/><rect class="cls-6" x="233.42" y="527.03" width="30.97" height="30.97"/><rect class="cls-6" x="203.22" y="558" width="30.97" height="30.97"/><rect class="cls-6" x="233.42" y="403.42" width="30.97" height="30.97"/><rect class="cls-6" x="263.63" y="434.39" width="30.97" height="30.97"/><rect class="cls-6" x="233.42" y="465.36" width="30.97" height="30.97"/><rect class="cls-6" x="294.6" y="403.42" width="30.97" height="30.97"/><rect class="cls-6" x="324.81" y="434.39" width="30.97" height="30.97"/><rect class="cls-6" x="294.6" y="465.36" width="30.97" height="30.97"/><rect class="cls-6" x="263.63" y="496.05" width="30.97" height="30.97"/><rect class="cls-6" x="293.84" y="527.03" width="30.97" height="30.97"/><rect class="cls-6" x="263.63" y="558" width="30.97" height="30.97"/><rect class="cls-6" x="324.81" y="496.05" width="30.97" height="30.97"/><rect class="cls-6" x="324.81" y="558" width="30.97" height="30.97"/><rect class="cls-6" x="111.45" y="588.97" width="30.97" height="30.97"/><rect class="cls-6" x="141.66" y="619.94" width="30.97" height="30.97"/><rect class="cls-6" x="111.45" y="650.91" width="30.97" height="30.97"/><rect class="cls-6" x="172.63" y="588.97" width="30.97" height="30.97"/><rect class="cls-6" x="202.83" y="619.94" width="30.97" height="30.97"/><rect class="cls-6" x="172.63" y="650.91" width="30.97" height="30.97"/><rect class="cls-6" x="233.04" y="588.97" width="30.97" height="30.97"/><rect class="cls-6" x="263.25" y="619.94" width="30.97" height="30.97"/><rect class="cls-6" x="233.04" y="650.91" width="30.97" height="30.97"/><rect class="cls-6" x="294.22" y="588.97" width="30.97" height="30.97"/><rect class="cls-6" x="324.43" y="619.94" width="30.97" height="30.97"/><rect class="cls-6" x="294.22" y="650.91" width="30.97" height="30.97"/><rect class="cls-6" x="111.07" y="528.15" width="30.97" height="30.97"/></g></g></g></g></svg>