<svg xmlns="http://www.w3.org/2000/svg" viewBox="0 0 151.61 39.77"><defs><style>.cls-1{fill:#a5a399;}.cls-1,.cls-5{stroke:#fff;stroke-miterlimit:10;}.cls-2{font-size:18.13px;font-family:Klee-Demibold-83pv-RKSJ-H, Klee;letter-spacing:0.72em;}.cls-2,.cls-4{fill:#fff;}.cls-3{letter-spacing:0.04em;}.cls-5{fill:none;}</style></defs><g id="レイヤー_2" data-name="レイヤー 2"><g id="レイヤー_1-2" data-name="レイヤー 1"><rect class="cls-1" x="0.5" y="0.5" width="146.5" height="35.3"/><text class="cls-2" transform="translate(47.85 26.62)">学<tspan class="cls-3" x="31.18" y="0">科</tspan></text><text/><text/><text/><rect class="cls-4" x="4.06" y="3.97" width="4.11" height="4.11"/><rect class="cls-4" x="8.16" y="16.29" width="4.11" height="4.11"/><rect class="cls-4" x="16.36" y="8.07" width="4.11" height="4.11"/><rect class="cls-4" x="12.26" y="12.18" width="4.11" height="4.11"/><rect class="cls-4" x="8.16" y="8.07" width="4.11" height="4.11"/><rect class="cls-4" x="12.26" y="3.97" width="4.11" height="4.11"/><rect class="cls-4" x="4.06" y="12.18" width="4.11" height="4.11"/><rect class="cls-4" x="4.06" y="20.39" width="4.11" height="4.11"/><rect class="cls-4" x="20.47" y="3.97" width="4.11" height="4.11"/><text/><rect class="cls-4" x="147" y="35.65" width="4.11" height="4.11" transform="translate(298.11 75.4) rotate(180)"/><rect class="cls-4" x="142.9" y="23.33" width="4.11" height="4.11" transform="translate(289.9 50.77) rotate(180)"/><rect class="cls-4" x="134.7" y="31.54" width="4.11" height="4.11" transform="translate(273.51 67.19) rotate(180)"/><rect class="cls-4" x="138.81" y="27.44" width="4.11" height="4.11" transform="translate(281.72 58.98) rotate(180)"/><rect class="cls-4" x="142.9" y="31.54" width="4.11" height="4.11" transform="translate(289.9 67.19) rotate(180)"/><rect class="cls-4" x="138.81" y="35.65" width="4.11" height="4.11" transform="translate(281.72 75.4) rotate(180)"/><rect class="cls-4" x="147" y="27.44" width="4.11" height="4.11" transform="translate(298.11 58.98) rotate(180)"/><rect class="cls-4" x="147" y="19.23" width="4.11" height="4.11" transform="translate(298.11 42.56) rotate(180)"/><rect class="cls-4" x="130.59" y="35.65" width="4.11" height="4.11" transform="translate(265.29 75.4) rotate(180)"/><rect class="cls-5" x="4.06" y="3.97" width="147.05" height="35.3"/></g></g></svg>