<?xml version="1.0" encoding="UTF-8"?><svg id="_レイヤー_2" xmlns="http://www.w3.org/2000/svg" viewBox="0 0 45.91 49.34"><defs><style>.cls-1{fill:#767c77;}.cls-2{fill:#eab6a3;}</style></defs><g id="_レイヤー_1-2"><g><path class="cls-2" d="m22.97,0s-8.98,9.33-4.42,21.62c0,0-11.56,6.98-11.02,21.6,0,0,8.87-1.98,15.44-12.1,0,0,5.27,9.02,15.45,12.1,0,0,.44-14.15-11.17-21.61,0,0,4.99-11.19-4.28-21.61Z"/><path class="cls-1" d="m22.97,2.19l-.3,1.13.05,21.07s-7.51,3.83-13.81,15.66l-.55,1.74s6.98-12.43,14.61-16.83c0,0,6.9,3.8,14.63,16.83,0,0-.63-2.6-1.6-3.66,0,0-4.45-8.62-12.7-13.72V3.3l-.33-1.11Z"/><path class="cls-2" d="m18.65,37.66s.75,1.84.71,6.64c-.04,4.8,0,5.04,0,5.04h1.28v-6.54s-.23-5.33-.99-6.26l-.99,1.13Z"/><polygon class="cls-2" points="23.69 33.73 23.69 48.61 22.2 48.61 22.2 33.74 22.93 32.36 23.69 33.73"/><path class="cls-2" d="m27.06,37.66s-.75,1.84-.71,6.64c.04,4.8,0,5.04,0,5.04h-1.28v-6.54s.23-5.33.99-6.26l.99,1.13Z"/><path class="cls-2" d="m11.34,22.99s-1.42.27-2.02-.42-.33-1.53-.14-1.79c.3-.41.75-.65,1.38-.75,0,0-.56-.56-.31-1.37.19-.63.77-1.12,1.52-1.12.91,0,1.6.83,1.65.87,0,0,0,0,0,0,0-.05.07-.93.91-1.22s1.79.23,2.05.73c.34.66.15,1.42-.41,1.96,0,0,1.07.09,1.16,1.21s-1,1.56-1.5,1.6-.97-.23-.97-.23c0,0,.1,1.17-.85,1.64-1.04.51-1.84-.22-2.06-.43-.15-.14-.41-.68-.41-.68Z"/><path class="cls-1" d="m15.67,20.87s-1.21-.1-2.02.37c-.97.57-1.19,1.84-1.19,1.84,0,0-.26-.72-.09-1.43l-1.52.05s-.05-.42.6-.56,1.31.07,1.31.07l.13-.15s-1.26-1.32-1.18-1.99c0,0,.99.63,1.75,1.71l.34-.1s-.36-.58-.1-1.06.79-.55.79-.55c0,0-.51.76-.17,1.45,0,0,1.05-.21,1.36.34Z"/><path class="cls-2" d="m8.68,20.6s.25-.38.7-.63c0,0-.47-.78-.16-1.65s1.56-1.28,1.56-1.28c0,0,1.3-.46,1.7-.86s.75-1.35.64-1.72-.19-.42-.33-.4-.21.16-.17.45-.05,1.23-.74,1.13.48-1.32.48-1.47.23-.57-.24-.53-.9,1.42-1.21,1.32-.43-.05-.35-.46.68-.72,1.07-.78.11-.68-.33-.45-1.45.51-1.49,1.54-.01,1.98-.01,1.98l-1.29,1.46h-.25s-1.56-3.35-1.56-3.35l1.15-1.63c.11-.15.26-.26.44-.3.43-.1,1.27-.36,1.81-.95.49-.54.6-1.14.58-1.6-.02-.79-.46-.7-.44-.39,0,.18,0,.5,0,.62,0,.39-.49.96-.79.77s.11-.97.22-1.17c.23-.4.4-.64.18-.75-.24-.12-.4.24-.66.56-.16.19-.63.92-.92.79s-.25-.81.24-1.11c.41-.26.53-.2.65-.35s-.19-.45-.78-.09c-.53.33-.79.55-1.01,1.38s.38,1.51-.09,2.35c-.24.43-.54.77-.54.77h-.46s-1.37-3.85-1.37-3.85c-.05-.15-.06-.32,0-.47.13-.38.36-1.19.28-1.93-.1-.94-.8-1.36-.92-1.44-.39-.29-.92.03-.42.32.31.18.55.38.62.57.08.21.13.71-.2.74-.27.02-.76-.98-.8-1.1s-.23-.51-.48-.4-.13.48-.04.61.57.94.23,1.3c-.24.26-.56-.12-.66-.5s-.06-.69-.04-.88c.04-.36-.4-.44-.46.29-.04.54.18,1.42.46,1.71.54.55,1.07.88,1.38,1.04.19.1.33.26.4.46l1.31,3.79-.13.26h-.99s-.98-1.72-1.9-1.95-1.65-.03-1.78.05-.39.48.33.34,1.21.07,1.38.47-1.23.08-1.52-.05-.63-.03-.65.09.11.34.53.42,1.19.42,1.12.79-1.02.09-1.23-.24-.47-.49-.56-.45-.35.18.03.64,1.45,1.04,2.48.8,1.57-.43,1.57-.43l1.84.26,1.45,3.44v.27s-1.43,0-1.43,0c-.21,0-.4-.09-.53-.26-.35-.44-1.15-1.33-1.98-1.53-1.12-.27-1.65.05-1.79.17s-.25.59.34.35,1.11-.24,1.39.19c.33.51-.84.37-1.24.27-.51-.13-.79-.12-.85.02s.03.28.75.4c.73.12,1.08.44,1.07.67s-.93.36-1.23-.02-.35-.56-.6-.47c-.15.05-.21.49.37.84s1.33.78,2.62.26,1.24-.45,1.24-.45c0,0,2.14-.26,3.02,1.37Z"/><g><path class="cls-2" d="m13.41,24.79s-.02.37-.58.96c-.8.84-2.2.37-2.2.37.02.26-.02.75-.38,1.25-.27.38-1.12.87-2.16.56-1.04-.31-1.25-1.42-1.25-1.42,0,0-.81.42-1.71.07-.9-.36-1.21-1.4-.86-2.27.35-.88,1.54-1.12,1.54-1.12-.25-.26-.37-1.08-.16-1.7.16-.48.55-.99,1.54-1.1s1.35.4,1.35.4c0,0-.22.3-.19.93.03.64.59,1.25.59,1.25.68.76,2.11.5,2.11.5v.23c-1.26-.15-1.76.3-1.76.3-.95-1.32-1.83-1.46-1.83-1.46-.07.37,1.36,1.81,1.36,1.81l-.29.32s-1.14-.44-1.67-.27c-.53.17-.55.44-.55.44l1.93.25v1.59h.13c.18-.85.41-1.62,1.19-2.19.76-.56,1.9-.3,1.97-.28,0,0,0,0,0,0,.54.85,1.88.59,1.88.59Z"/><path class="cls-1" d="m11.05,23.7s.2.38.47.5c-.07-.02-1.21-.28-1.97.28-.78.58-1.01,1.34-1.19,2.19h-.13v-1.59l-1.93-.25s.02-.27.55-.44c.53-.16,1.67.27,1.67.27l.29-.32s-1.43-1.44-1.36-1.81c0,0,.88.14,1.83,1.46,0,0,.5-.45,1.76-.3Z"/></g><path class="cls-2" d="m34.57,23.09s1.42.27,2.02-.42.33-1.53.14-1.79c-.3-.41-.75-.65-1.38-.75,0,0,.56-.56.31-1.37-.19-.63-.77-1.12-1.52-1.12-.91,0-1.6.83-1.65.87,0,0,0,0,0,0,0-.05-.07-.93-.91-1.22-.87-.3-1.79.23-2.05.73-.34.66-.15,1.42.41,1.96,0,0-1.07.09-1.16,1.21s1,1.56,1.5,1.6.97-.23.97-.23c0,0-.1,1.17.85,1.64,1.04.51,1.84-.22,2.06-.43.15-.14.41-.68.41-.68Z"/><path class="cls-1" d="m30.24,20.96s1.21-.1,2.02.37c.97.57,1.19,1.84,1.19,1.84,0,0,.26-.72.09-1.43l1.52.05s.05-.42-.6-.56-1.31.07-1.31.07l-.13-.15s1.26-1.32,1.18-1.99c0,0-.99.63-1.75,1.71l-.34-.1s.36-.58.1-1.06-.79-.55-.79-.55c0,0,.51.76.17,1.45,0,0-1.05-.21-1.36.34Z"/><path class="cls-2" d="m37.24,20.69s-.25-.38-.7-.63c0,0,.47-.78.16-1.65s-1.56-1.28-1.56-1.28c0,0-1.3-.46-1.7-.86s-.75-1.35-.64-1.72.19-.42.33-.4.21.16.17.45.05,1.23.74,1.13c.69-.1-.48-1.32-.48-1.47s-.23-.57.24-.53.9,1.42,1.21,1.32.43-.05.35-.46-.68-.72-1.07-.78-.11-.68.33-.45,1.45.51,1.49,1.54.01,1.98.01,1.98l1.29,1.46h.25s1.56-3.35,1.56-3.35l-1.15-1.63c-.11-.15-.26-.26-.44-.3-.43-.1-1.27-.36-1.81-.95-.49-.54-.6-1.14-.58-1.6.02-.79.46-.7.44-.39,0,.18,0,.5,0,.62,0,.39.49.96.79.77s-.11-.97-.22-1.17c-.23-.4-.4-.64-.18-.75.24-.12.4.24.66.56.16.19.63.92.92.79s.25-.81-.24-1.11c-.41-.26-.53-.2-.65-.35s.19-.45.78-.09c.53.33.79.55,1.01,1.38s-.38,1.51.09,2.35c.24.43.54.77.54.77h.46s1.37-3.85,1.37-3.85c.05-.15.06-.32,0-.47-.13-.38-.36-1.19-.28-1.93.1-.94.8-1.36.92-1.44.39-.29.92.03.42.32-.31.18-.55.38-.62.57-.08.21-.13.71.2.74.27.02.76-.98.8-1.1s.23-.51.48-.4.13.48.04.61-.57.94-.23,1.3c.24.26.56-.12.66-.5s.06-.69.04-.88c-.04-.36.4-.44.46.29.04.54-.18,1.42-.46,1.71-.54.55-1.07.88-1.38,1.04-.19.1-.33.26-.4.46l-1.31,3.79.13.26h.99s.98-1.72,1.9-1.95,1.65-.03,1.78.05.39.48-.33.34-1.21.07-1.38.47,1.23.08,1.52-.05.63-.03.65.09-.11.34-.53.42-1.19.42-1.12.79,1.02.09,1.23-.24.47-.49.56-.45.35.18-.03.64-1.45,1.04-2.48.8-1.57-.43-1.57-.43l-1.84.26-1.45,3.44v.27s1.43,0,1.43,0c.21,0,.4-.09.53-.26.35-.44,1.15-1.33,1.98-1.53,1.12-.27,1.65.05,1.79.17s.25.59-.34.35-1.11-.24-1.39.19c-.33.51.84.37,1.24.27.51-.13.79-.12.85.02s-.03.28-.75.4c-.73.12-1.08.44-1.07.67s.93.36,1.23-.02.35-.56.6-.47c.15.05.21.49-.37.84s-1.33.78-2.62.26c-1.29-.52-1.24-.45-1.24-.45,0,0-2.14-.26-3.02,1.37Z"/><g><path class="cls-2" d="m32.5,24.88s.03.37.58.96c.8.84,2.2.37,2.2.37-.02.26.02.75.38,1.25.27.38,1.12.87,2.16.56,1.04-.31,1.25-1.42,1.25-1.42,0,0,.81.42,1.71.07.9-.36,1.21-1.4.86-2.27s-1.54-1.12-1.54-1.12c.25-.26.37-1.08.16-1.7-.17-.48-.55-.99-1.54-1.1s-1.35.4-1.35.4c0,0,.22.3.19.93-.03.64-.59,1.25-.59,1.25-.68.76-2.11.5-2.11.5v.23c1.26-.15,1.76.3,1.76.3.95-1.32,1.83-1.46,1.83-1.46.07.37-1.36,1.81-1.36,1.81l.29.32s1.14-.44,1.67-.27c.53.17.55.44.55.44l-1.93.25v1.59h-.13c-.18-.85-.41-1.62-1.19-2.19-.77-.56-1.9-.3-1.97-.28,0,0,0,0,0,0-.54.85-1.89.59-1.89.59Z"/><path class="cls-1" d="m34.86,23.79s-.2.38-.47.5c.07-.02,1.2-.28,1.97.28.78.58,1.01,1.34,1.19,2.19h.13v-1.59l1.93-.25s-.02-.27-.55-.44c-.53-.16-1.67.27-1.67.27l-.29-.32s1.43-1.44,1.36-1.81c0,0-.88.14-1.83,1.46,0,0-.5-.45-1.76-.3Z"/></g></g></g></svg>