<?xml version="1.0" encoding="UTF-8"?><svg id="_レイヤー_2" xmlns="http://www.w3.org/2000/svg" viewBox="0 0 43.27 43.22"><defs><style>.cls-1{fill:#efb9a6;}.cls-2{fill:#eab6a3;stroke:#757c76;stroke-miterlimit:10;}</style></defs><g id="_レイヤー_1-2"><g><g><path class="cls-1" d="m19.69,19.16L11.64,7.09c-.22-.32-.47-.63-.76-.88-2.5-2.18-4.55.18-4.55.18-1.41,1.36-1.11,2.77-.59,3.74.35.65.87,1.19,1.49,1.61l11.88,8.01.59-.59Z"/><path class="cls-1" d="m24.12,23.58l12.07,8.05c.32.22.63.47.88.76,2.18,2.5-.18,4.55-.18,4.55-1.36,1.41-2.77,1.11-3.74.59-.65-.35-1.19-.87-1.61-1.49l-8.01-11.88.59-.59Z"/><path class="cls-1" d="m19.15,23.58l-12.07,8.05c-.32.22-.63.47-.88.76-2.18,2.5.18,4.55.18,4.55,1.36,1.41,2.77,1.11,3.74.59.65-.35,1.19-.87,1.61-1.49l8.01-11.88-.59-.59Z"/><path class="cls-1" d="m24.12,19.64l12.07-8.05c.32-.22.63-.47.88-.76,2.18-2.5-.18-4.55-.18-4.55-1.36-1.41-2.77-1.11-3.74-.59-.65.35-1.19.87-1.61,1.49l-8.01,11.88.59.59Z"/></g><g><path class="cls-1" d="m18.9,20.09L6.84,12.02c-.32-.22-.67-.4-1.04-.52-3.14-1.06-4.14,1.9-4.14,1.9-.78,1.79.03,2.98.89,3.68.57.47,1.26.77,1.99.92l14.04,2.86.32-.76Z"/><path class="cls-1" d="m24.68,22.48l14.23,2.82c.38.08.76.19,1.11.36,2.97,1.47,1.58,4.27,1.58,4.27-.72,1.82-2.13,2.09-3.23,1.97-.74-.08-1.44-.35-2.05-.76l-11.95-7.91.32-.76Z"/><path class="cls-1" d="m20.09,24.38l-8.07,12.06c-.22.32-.4.67-.52,1.04-1.06,3.14,1.9,4.14,1.9,4.14,1.79.78,2.98-.03,3.68-.89.47-.57.77-1.26.92-1.99l2.86-14.04-.76-.32Z"/><path class="cls-1" d="m23.17,18.84l8.07-12.06c.22-.32.4-.67.52-1.04,1.06-3.14-1.9-4.14-1.9-4.14-1.79-.78-2.98.03-3.68.89-.47.57-.77,1.26-.92,1.99l-2.86,14.04.76.32Z"/></g><g><path class="cls-1" d="m18.59,22.47l-14.23,2.82c-.38.08-.76.19-1.11.36-2.97,1.47-1.58,4.27-1.58,4.27.72,1.82,2.13,2.09,3.23,1.97.74-.08,1.44-.35,2.05-.76l11.95-7.91-.32-.76Z"/><path class="cls-1" d="m24.37,20.07l12.06-8.07c.32-.22.67-.4,1.04-.52,3.14-1.06,4.14,1.9,4.14,1.9.78,1.79-.03,2.98-.89,3.68-.57.47-1.26.77-1.99.92l-14.04,2.86-.32-.76Z"/><path class="cls-1" d="m22.47,24.66l2.82,14.23c.08.38.19.76.36,1.11,1.47,2.97,4.27,1.58,4.27,1.58,1.82-.72,2.09-2.13,1.97-3.23-.08-.74-.35-1.44-.76-2.05l-7.91-11.95-.76.32Z"/><path class="cls-1" d="m20.73,18.56l-2.82-14.23c-.08-.38-.19-.76-.36-1.11-1.47-2.97-4.27-1.58-4.27-1.58-1.82.72-2.09,2.13-1.97,3.23.08.74.35,1.44.76,2.05l7.91,11.95.76-.32Z"/></g><g><path class="cls-1" d="m21.99,18.48l2.84-14.23c.08-.38.11-.77.09-1.16C24.7-.22,21.58,0,21.58,0c-1.96-.04-2.75,1.17-3.06,2.23-.21.71-.23,1.46-.08,2.19l2.73,14.06h.83Z"/><path class="cls-1" d="m21.99,24.74l2.84,14.23c.08.38.11.77.09,1.16-.22,3.31-3.34,3.09-3.34,3.09-1.96.04-2.75-1.17-3.06-2.23-.21-.71-.23-1.46-.08-2.19l2.73-14.06h.83Z"/><path class="cls-1" d="m18.48,21.23l-14.23-2.84c-.38-.08-.77-.11-1.16-.09C-.22,18.53,0,21.64,0,21.64c-.04,1.96,1.17,2.75,2.23,3.06.71.21,1.46.23,2.19.08l14.06-2.73v-.83Z"/><path class="cls-1" d="m24.78,21.95l14.23,2.84c.38.08.77.11,1.16.09,3.31-.22,3.09-3.34,3.09-3.34.04-1.96-1.17-2.75-2.23-3.06-.71-.21-1.46-.23-2.19-.08l-14.06,2.73v.83Z"/><circle class="cls-2" cx="21.63" cy="21.59" r="3.15"/></g></g></g></svg>