<svg xmlns="http://www.w3.org/2000/svg" viewBox="0 0 438.75 126.8"><defs><style>.cls-1,.cls-5{fill:#231815;}.cls-2,.cls-3,.cls-4{fill:none;}.cls-2,.cls-3,.cls-4,.cls-5{stroke:#231815;stroke-miterlimit:10;}.cls-2{stroke-width:3px;}.cls-3{stroke-width:5px;}.cls-4{stroke-width:4px;}.cls-5{stroke-width:0.5px;}</style></defs><g id="レイヤー_2" data-name="レイヤー 2"><g id="レイヤー_1-2" data-name="レイヤー 1"><path class="cls-1" d="M83.67,75.86l0-33.27a83,83,0,0,1-8.69,10.79,3.53,3.53,0,0,1-2.39,1.14,2.3,2.3,0,0,1-1.63-4c9.65-10.22,15.76-20.24,21-33.9A2.37,2.37,0,0,1,94.23,15a2.92,2.92,0,0,1,3,2.67c0,1.62-4.3,9.84-8.5,16.9l.14,41.3a2.48,2.48,0,0,1-2.67,2.39A2.31,2.31,0,0,1,83.67,76ZM97.09,32.08a2.3,2.3,0,0,1,4.59,0V82.89a2.3,2.3,0,0,1-4.59,0Zm46.23-3.44a41.52,41.52,0,0,1-9.46,14.81c5.26,3.24,11.84,5.53,20.06,6.49a2.27,2.27,0,0,1,2.1,2.29,2.64,2.64,0,0,1-2.77,2.68,48.15,48.15,0,0,1-22.63-8.5c-10.32,8.4-22.73,10.69-23.69,10.69a2.51,2.51,0,0,1-2.48-2.48,2,2,0,0,1,1.72-2,48,48,0,0,0,21-8.88,43.8,43.8,0,0,1-10-12.51c-6.5,9.55-8.21,9.84-9,9.84a2.49,2.49,0,0,1-2.48-2.2,2,2,0,0,1,.76-1.53c5.83-5.25,11.37-14.32,13.66-21a1.72,1.72,0,0,1,1.81-1.05c1.34,0,2.77.77,2.77,2s-3.24,7-3.43,7.35l32.09-.19a2.1,2.1,0,0,1,0,4.2ZM149,72a2.08,2.08,0,0,1,1.72-.76,2.71,2.71,0,0,1,2.68,2.58,3.12,3.12,0,0,1-.86,2c-16.43,18.82-41.07,20.82-42.79,20.82a2.26,2.26,0,0,1-2.48-2.29,2.48,2.48,0,0,1,2.29-2.48C125.84,90.05,138.92,83.94,149,72Zm-38.58-.48a2.13,2.13,0,0,1-2.1-2.19,1.88,1.88,0,0,1,1.43-1.91c7.83-2.29,16-6.69,21.77-13.76a1.75,1.75,0,0,1,1.44-.66,2.52,2.52,0,0,1,2.58,2.29,2.88,2.88,0,0,1-.86,1.81C125.36,67.32,112.09,71.52,110.37,71.52Zm1.53,12.23a2.18,2.18,0,0,1-2.2-2.29,2,2,0,0,1,1.62-2.1c9.65-2.49,20.73-7.84,28.56-16.81a2,2,0,0,1,1.62-.77,2.53,2.53,0,0,1,2.58,2.39,2.81,2.81,0,0,1-.76,1.72C131.67,78.69,114.19,83.75,111.9,83.75ZM120,28.64A37.78,37.78,0,0,0,130.33,41a32.75,32.75,0,0,0,8-12.32Z"/><path class="cls-1" d="M203.49,91a28.21,28.21,0,0,1,.76,6.3c0,9-4.52,19.19-18.56,19.19-9.15,0-9.65.68-9.61-2.85,0-1.34,1-1.24,2.52-1.24.2,0,.4,1.71.77.1,2.29.67,4.73-.11,7.21-.11,12.23,0,12.8-13.08,12.8-15.75a18.91,18.91,0,0,0-.86-5.64l-42.88.1a2.34,2.34,0,0,1-.1-4.68l40.88.19a16.77,16.77,0,0,0-8.12-6c-1.15-.38-1.62-1-1.62-1.72,0-1.14,1.33-2.29,2.86-2.29a3.63,3.63,0,0,1,1,.19,21.58,21.58,0,0,1,5.15,2.58c2.58-1.62,11.66-7.83,11.66-9.93,0-1.34-1.82-1.34-6-1.34-6.59,0-19.29.1-26.84.29h-.09a2.12,2.12,0,0,1-2.3-2.1,2.29,2.29,0,0,1,2.39-2.3c3.92-.09,8.5-.19,13.18-.19,7.26,0,14.52.1,19.2.19,4.49.1,6.3,2.3,6.3,4.68,0,2-.67,5.26-14.13,13.66a18.73,18.73,0,0,1,2.86,4.3L232,86.39a2.17,2.17,0,0,1,2.19,2.29A2.21,2.21,0,0,1,232,91.07Zm21-30.08c-.1-3.63-1.72-5.54-6.4-5.54-7.07-.1-16-.1-24.93-.1s-17.48,0-24.16.1c-4.68,0-6.4,1.72-6.5,5.44v7.93A2.41,2.41,0,0,1,159.84,71c-2.67,0-2.67-1.43-2.67-7,0-1.72.09-3.63.09-5.06.1-3.82,3-7.74,10-7.83,9.26-.1,18.05-.1,26.93-.1H205.3a78.77,78.77,0,0,0,8.79-14.8,2.66,2.66,0,0,1,2.48-1.72,2.92,2.92,0,0,1,3,2.67c0,1.34-5.06,9-9,13.85,3.06,0,6.21.1,9.36.1,6.11.09,9.84,3.24,9.94,7.83.09,1.14.09,3.05.09,4.87s0,3.53-.09,4.58a2.64,2.64,0,0,1-2.77,2.48,2.33,2.33,0,0,1-2.58-2.29ZM175.79,47.42c-2.48-4.11-5.06-5.82-8.31-8.5a1.64,1.64,0,0,1-.57-1.15,2.7,2.7,0,0,1,2.67-2.38c2.48,0,10.6,7.83,10.6,10.22a3,3,0,0,1-2.67,2.86A1.94,1.94,0,0,1,175.79,47.42Zm19.58,0a1.64,1.64,0,0,1-1.72-1.15c-1.72-4.29-3.92-6.59-7-9.93a1.21,1.21,0,0,1-.39-1c0-1,1.34-2.2,2.77-2.2,2.77,0,9.36,9.55,9.36,11.46A3.17,3.17,0,0,1,195.37,47.42Z"/><path class="cls-1" d="M255.14,36c-.09,3.92-.28,8-.57,12.23H262c4.87.09,7.83,2.39,7.83,7.54C269.85,87.52,265.08,95,256,95c-.09,0-7.83,0-7.83-3.63a2.12,2.12,0,0,1,2-2.39,2.54,2.54,0,0,1,1.14.29A11.89,11.89,0,0,0,256,90.48c3.54,0,9.27-1.81,9.27-31.51,0-5.73-.77-6.69-7.55-6.69-1.05,0-2.29,0-3.44.1-1.43,16.14-5.06,32.66-13.94,43.16a2.81,2.81,0,0,1-2.2,1,2.62,2.62,0,0,1-2.67-2.29A2.25,2.25,0,0,1,236,93c12.13-15.19,14-37.92,14.33-56.83l-10.22.1a2.16,2.16,0,0,1-2.39-2.2,2.28,2.28,0,0,1,2.39-2.29H253l-.09-13a2.32,2.32,0,0,1,2.48-2.39A2.35,2.35,0,0,1,258,18.76l-.1,13h12.8a2.16,2.16,0,0,1,2.2,2.19,2.19,2.19,0,0,1-2.2,2.3Zm28.66-2.48a72.56,72.56,0,0,1-8.5,12.32,3.17,3.17,0,0,1-2.58,1.24,2.17,2.17,0,0,1-2.3-2.1,3.19,3.19,0,0,1,1-2.1,61.63,61.63,0,0,0,13.75-24.64,2.37,2.37,0,0,1,2.39-1.81,2.54,2.54,0,0,1,2.67,2.38c0,1.25-2.48,7.17-4.1,10.41l98.49-.19c1.44,0,54.17,2.72,54.17,2.72s-52.83,1.87-54.26,1.87Zm-1.44,20.06q-3.72,1-7.16,1.72c-.19,0-.29.09-.48.09a2.25,2.25,0,0,1-2.1-2.39,1.87,1.87,0,0,1,1.53-2c10.89-2.29,24.35-6.11,34.48-11a2.41,2.41,0,0,1,1.14-.29,2.35,2.35,0,0,1,2.2,2.48c0,1.72-.67,2.49-13,6.59a84.93,84.93,0,0,0,1.82,15.38,87.25,87.25,0,0,0,13.46-8.12,2.26,2.26,0,0,1,1.34-.48A2.59,2.59,0,0,1,318,58.11a2.54,2.54,0,0,1-1.25,2.1,87.91,87.91,0,0,1-15,7.73c2.87,10.22,8.12,18.63,16.24,23.69a2.15,2.15,0,0,1,1.14,2,3.13,3.13,0,0,1-3,3.06c-2.67,0-20.15-13-21.3-46.61-2.57.77-5.25,1.63-7.83,2.3l.19,44.12A2.4,2.4,0,0,1,284.75,99a2.43,2.43,0,0,1-2.58-2.48Z"/><polyline class="cls-2" points="5.86 81.31 35.6 72.58 35.6 10.17"/><path class="cls-2" d="M12.21,92.93s0-2.77,2.44-3.55,14.41-3,15.85-3.1,3.78.37,3,2.44c-2,5.21-14.63,11.86-17.51,12.53-3.14.72-3.77.44-3.77-2Z"/><line class="cls-3" x1="97.19" y1="113.78" x2="242.22" y2="114.94"/><path class="cls-3" d="M375.12,7.57S56.44-6.39,27.17,12a10.15,10.15,0,0,0-8.64,8.42S5.89,42.72,4.89,84.29c0,0-4,18.46-1.66,23.61,3.1,6.85,32.92,5.58,32.92,5.58l24.05.12"/><path class="cls-4" d="M59.32,113.59s-.45-18.53,5.1-23.14,25.71-4.46,28.82,0c0,0,6.87,11.43,4.87,23"/><circle class="cls-4" cx="78.89" cy="108.97" r="15.83"/><polygon class="cls-5" points="375.12 5.27 398.25 6.31 375.12 9.67 375.12 5.27"/><polygon class="cls-5" points="242.22 112.73 265.35 113.78 242.22 117.14 242.22 112.73"/><path class="cls-1" d="M337.53,115.53l.93-38C334.74,80.71,327.85,86,326.08,86a2.48,2.48,0,0,1-2.42-2.51,2.65,2.65,0,0,1,1.4-2.24,75.15,75.15,0,0,0,23.55-21.5,2,2,0,0,1,1.76-1,2.93,2.93,0,0,1,2.8,2.79c0,.47-.1,2.14-10,11.73l-.47,42.16a2.51,2.51,0,0,1-2.7,2.33,2.26,2.26,0,0,1-2.51-2.14ZM327.1,63.31A2.39,2.39,0,0,1,324.68,61a2.85,2.85,0,0,1,1.59-2.42,62.57,62.57,0,0,0,20.1-17.68,2.35,2.35,0,0,1,2.05-1.12A2.74,2.74,0,0,1,351,42.37C351,46.09,330.36,63.31,327.1,63.31Zm58.55,42.26v.28c0,5.67-2.51,10.61-13.12,10.61-9.59,0-9.59-1.59-9.59-3.17a2.26,2.26,0,0,1,2.14-2.51h.28a50.59,50.59,0,0,0,7.63.74c4.75,0,7.54-1.49,7.54-6.42,0-9.12.1-23.27.1-34.62l-23.27.09a2.13,2.13,0,0,1-2.24-2.14,2.18,2.18,0,0,1,2.24-2.33h32.78c1.58,0,13.72,2.11,13.72,2.11l-13.72,2.36-4.67-.09c0,8,0,19.26.09,25.31ZM361.26,49.35a2.15,2.15,0,0,1-2.32-2.14,2.25,2.25,0,0,1,2.32-2.33h31.93c1.58,0,26.82,2.23,26.82,2.23s-25.24,2.24-26.82,2.24Z"/></g></g></svg>