<svg xmlns="http://www.w3.org/2000/svg" xmlns:xlink="http://www.w3.org/1999/xlink" viewBox="0 0 572.87 127.87"><defs><style>.cls-1{fill:none;}.cls-2{clip-path:url(#clip-path);}.cls-3{fill:#b7ded6;}</style><clipPath id="clip-path" transform="translate(115.47 -19.81)"><rect class="cls-1" width="342.62" height="122.87"/></clipPath></defs><g id="レイヤー_2" data-name="レイヤー 2"><g id="レイヤー_1-2" data-name="レイヤー 1"><g id="波"><g class="cls-2"><path class="cls-3" d="M19.72,51.51c8-13.21,19.82-18.89,33.79-23.94-23.94-10.35-43.65-10.35-67.59,0C-.11,32.62,11.69,38.3,19.72,51.51Z" transform="translate(115.47 -19.81)"/><path class="cls-3" d="M-14.08,75.53c8-13.21,19.82-18.89,33.8-23.94-23.95-10.35-43.66-10.35-67.6,0C-33.9,56.64-22.1,62.32-14.08,75.53Z" transform="translate(115.47 -19.81)"/><path class="cls-3" d="M87.31,51.51c8-13.21,19.82-18.89,33.79-23.94-23.94-10.35-43.65-10.35-67.59,0C67.48,32.62,79.28,38.3,87.31,51.51Z" transform="translate(115.47 -19.81)"/><path class="cls-3" d="M53.51,75.53c8-13.21,19.82-18.89,33.8-23.94-23.94-10.35-43.65-10.35-67.59,0C33.69,56.64,45.49,62.32,53.51,75.53Z" transform="translate(115.47 -19.81)"/><path class="cls-3" d="M154.9,51.51c8-13.21,19.82-18.89,33.8-23.94-23.95-10.35-43.66-10.35-67.6,0C135.08,32.62,146.88,38.3,154.9,51.51Z" transform="translate(115.47 -19.81)"/><path class="cls-3" d="M121.1,75.53c8-13.21,19.83-18.89,33.8-23.94-23.94-10.35-43.65-10.35-67.59,0C101.28,56.64,113.08,62.32,121.1,75.53Z" transform="translate(115.47 -19.81)"/><path class="cls-3" d="M220.83,51.51c8-13.21,19.83-18.89,33.8-23.94C230.69,17.22,211,17.22,187,27.57,201,32.62,212.81,38.3,220.83,51.51Z" transform="translate(115.47 -19.81)"/><path class="cls-3" d="M187,75.53c8-13.21,19.82-18.89,33.79-23.94-23.94-10.35-43.65-10.35-67.59,0C167.21,56.64,179,62.32,187,75.53Z" transform="translate(115.47 -19.81)"/><path class="cls-3" d="M288.42,51.51c8-13.21,19.83-18.89,33.8-23.94-23.94-10.35-43.65-10.35-67.59,0C268.6,32.62,280.4,38.3,288.42,51.51Z" transform="translate(115.47 -19.81)"/><path class="cls-3" d="M254.63,75.53c8-13.21,19.82-18.89,33.79-23.94-23.94-10.35-43.65-10.35-67.59,0C234.81,56.64,246.61,62.32,254.63,75.53Z" transform="translate(115.47 -19.81)"/><path class="cls-3" d="M356,51.51c8-13.21,19.82-18.89,33.79-23.94-23.94-10.35-43.65-10.35-67.59,0C336.19,32.62,348,38.3,356,51.51Z" transform="translate(115.47 -19.81)"/><path class="cls-3" d="M322.22,75.53c8-13.21,19.82-18.89,33.8-23.94-23.94-10.35-43.66-10.35-67.6,0C302.4,56.64,314.2,62.32,322.22,75.53Z" transform="translate(115.47 -19.81)"/><path class="cls-3" d="M-47.88,99.59c8-13.2,19.83-18.88,33.8-23.93-23.94-10.35-43.65-10.35-67.59,0C-67.7,80.71-55.9,86.39-47.88,99.59Z" transform="translate(115.47 -19.81)"/><path class="cls-3" d="M-81.67,123.62c8-13.21,19.82-18.89,33.79-23.94-23.94-10.35-43.65-10.35-67.59,0C-101.49,104.73-89.69,110.41-81.67,123.62Z" transform="translate(115.47 -19.81)"/><path class="cls-3" d="M19.72,99.59c8-13.2,19.82-18.88,33.79-23.93-23.94-10.35-43.65-10.35-67.59,0C-.11,80.71,11.69,86.39,19.72,99.59Z" transform="translate(115.47 -19.81)"/><path class="cls-3" d="M-14.08,123.62c8-13.21,19.82-18.89,33.8-23.94-23.95-10.35-43.66-10.35-67.6,0C-33.9,104.73-22.1,110.41-14.08,123.62Z" transform="translate(115.47 -19.81)"/><path class="cls-3" d="M87.31,99.59c8-13.2,19.82-18.88,33.79-23.93-23.94-10.35-43.65-10.35-67.59,0C67.48,80.71,79.28,86.39,87.31,99.59Z" transform="translate(115.47 -19.81)"/><path class="cls-3" d="M53.51,123.62c8-13.21,19.82-18.89,33.8-23.94-23.94-10.35-43.65-10.35-67.59,0C33.69,104.73,45.49,110.41,53.51,123.62Z" transform="translate(115.47 -19.81)"/><path class="cls-3" d="M153.24,99.59c8-13.2,19.82-18.88,33.8-23.93-23.94-10.35-43.65-10.35-67.6,0C133.42,80.71,145.22,86.39,153.24,99.59Z" transform="translate(115.47 -19.81)"/><path class="cls-3" d="M119.44,123.62c8-13.21,19.83-18.89,33.8-23.94-23.94-10.35-43.65-10.35-67.59,0C99.62,104.73,111.42,110.41,119.44,123.62Z" transform="translate(115.47 -19.81)"/><path class="cls-3" d="M220.83,99.59c8-13.2,19.83-18.88,33.8-23.93C230.69,65.31,211,65.31,187,75.66,201,80.71,212.81,86.39,220.83,99.59Z" transform="translate(115.47 -19.81)"/><path class="cls-3" d="M187,123.62c8-13.21,19.82-18.89,33.79-23.94-23.94-10.35-43.65-10.35-67.59,0C167.21,104.73,179,110.41,187,123.62Z" transform="translate(115.47 -19.81)"/><path class="cls-3" d="M288.42,99.59c8-13.2,19.83-18.88,33.8-23.93-23.94-10.35-43.65-10.35-67.59,0C268.6,80.71,280.4,86.39,288.42,99.59Z" transform="translate(115.47 -19.81)"/><path class="cls-3" d="M254.63,123.62c8-13.21,19.82-18.89,33.79-23.94-23.94-10.35-43.65-10.35-67.59,0C234.81,104.73,246.61,110.41,254.63,123.62Z" transform="translate(115.47 -19.81)"/><path class="cls-3" d="M423.61,51.51c8-13.21,19.82-18.89,33.79-23.94-23.94-10.35-43.65-10.35-67.59,0C403.78,32.62,415.58,38.3,423.61,51.51Z" transform="translate(115.47 -19.81)"/><path class="cls-3" d="M389.81,75.53c8-13.21,19.82-18.89,33.8-23.94C399.67,41.24,380,41.24,356,51.59,370,56.64,381.79,62.32,389.81,75.53Z" transform="translate(115.47 -19.81)"/><path class="cls-3" d="M356,99.59c8-13.2,19.82-18.88,33.79-23.93-23.94-10.35-43.65-10.35-67.59,0C336.19,80.71,348,86.39,356,99.59Z" transform="translate(115.47 -19.81)"/><path class="cls-3" d="M322.22,123.62c8-13.21,19.82-18.89,33.8-23.94-23.94-10.35-43.66-10.35-67.6,0C302.4,104.73,314.2,110.41,322.22,123.62Z" transform="translate(115.47 -19.81)"/><path class="cls-3" d="M-48,147.68c8-13.21,19.83-18.89,33.8-23.94-23.94-10.35-43.65-10.35-67.59,0C-67.87,128.79-56.07,134.47-48,147.68Z" transform="translate(115.47 -19.81)"/><path class="cls-3" d="M19.55,147.68c8-13.21,19.82-18.89,33.79-23.94-23.94-10.35-43.65-10.35-67.59,0C-.28,128.79,11.52,134.47,19.55,147.68Z" transform="translate(115.47 -19.81)"/><path class="cls-3" d="M87.14,147.68c8-13.21,19.82-18.89,33.79-23.94-23.94-10.35-43.65-10.35-67.59,0C67.31,128.79,79.11,134.47,87.14,147.68Z" transform="translate(115.47 -19.81)"/><path class="cls-3" d="M153.07,147.68c8-13.21,19.82-18.89,33.8-23.94-23.94-10.35-43.66-10.35-67.6,0C133.25,128.79,145.05,134.47,153.07,147.68Z" transform="translate(115.47 -19.81)"/><path class="cls-3" d="M220.66,147.68c8-13.21,19.82-18.89,33.8-23.94-23.94-10.35-43.65-10.35-67.59,0C200.84,128.79,212.64,134.47,220.66,147.68Z" transform="translate(115.47 -19.81)"/><path class="cls-3" d="M288.25,147.68c8-13.21,19.83-18.89,33.8-23.94-23.94-10.35-43.65-10.35-67.59,0C268.43,128.79,280.23,134.47,288.25,147.68Z" transform="translate(115.47 -19.81)"/><path class="cls-3" d="M355.85,147.68c8-13.21,19.82-18.89,33.79-23.94-23.94-10.35-43.65-10.35-67.59,0C336,128.79,347.82,134.47,355.85,147.68Z" transform="translate(115.47 -19.81)"/></g></g></g></g></svg>