<?xml version="1.0" encoding="UTF-8"?><svg id="_レイヤー_2" xmlns="http://www.w3.org/2000/svg" xmlns:xlink="http://www.w3.org/1999/xlink" viewBox="0 0 275.37 309.06"><defs><style>.cls-1,.cls-2,.cls-3,.cls-4,.cls-5,.cls-6,.cls-7,.cls-8,.cls-9,.cls-10,.cls-11,.cls-12,.cls-13,.cls-14,.cls-15,.cls-16{fill:none;}.cls-17{letter-spacing:-.01em;}.cls-18{opacity:.62;}.cls-18,.cls-2,.cls-19,.cls-3,.cls-4,.cls-20,.cls-21,.cls-22,.cls-23,.cls-24,.cls-25,.cls-26,.cls-27,.cls-28,.cls-29,.cls-30,.cls-31,.cls-32,.cls-33,.cls-34,.cls-35,.cls-36,.cls-37,.cls-5,.cls-7,.cls-8,.cls-9,.cls-10,.cls-11,.cls-12,.cls-13,.cls-14,.cls-15,.cls-16{stroke-miterlimit:10;}.cls-18,.cls-3,.cls-20,.cls-21,.cls-22,.cls-23,.cls-25,.cls-26,.cls-27,.cls-32,.cls-33,.cls-34,.cls-35,.cls-36,.cls-37,.cls-9,.cls-11,.cls-14{stroke:#633319;}.cls-18,.cls-20,.cls-21,.cls-22,.cls-26,.cls-27,.cls-28,.cls-29,.cls-37,.cls-11,.cls-12,.cls-13{stroke-width:.25px;}.cls-18,.cls-37{fill:#593016;}.cls-2{stroke-width:3px;}.cls-2,.cls-4,.cls-5,.cls-8{stroke:#c7321d;}.cls-38{letter-spacing:-.02em;}.cls-19{fill:#bf1a20;stroke:#620f13;stroke-width:.27px;}.cls-39{clip-path:url(#clippath);}.cls-40{letter-spacing:0em;}.cls-41{fill:#f2eabb;}.cls-42{fill:#67a284;}.cls-43,.cls-25,.cls-34{fill:#fff;}.cls-44{fill:#fef9fb;}.cls-45{fill:#e794a4;}.cls-46{fill:#7f8080;}.cls-47{fill:#99a9a1;}.cls-48{fill:#a02d24;}.cls-49{fill:#b7d67a;}.cls-50{fill:#a8ce93;}.cls-51{fill:#b1dbef;}.cls-52,.cls-32{fill:#7fcded;}.cls-53{fill:#25b391;}.cls-54,.cls-55{fill:#4c3225;}.cls-3{stroke-width:.1px;}.cls-56{letter-spacing:-.02em;}.cls-4{stroke-width:5px;}.cls-57{letter-spacing:0em;}.cls-58{letter-spacing:0em;}.cls-20{fill:#fcf9eb;}.cls-21,.cls-23,.cls-33{fill:#faf9d5;}.cls-22{fill:#e9500e;}.cls-59{letter-spacing:-.04em;}.cls-23,.cls-24,.cls-25,.cls-30,.cls-31,.cls-32,.cls-6,.cls-14,.cls-15,.cls-16{stroke-width:.5px;}.cls-24{fill:#004152;}.cls-24,.cls-12,.cls-15{stroke:#613318;}.cls-60{letter-spacing:-.02em;}.cls-26{fill:#5f4d22;}.cls-27{fill:#5f3318;}.cls-28{stroke:#4c3326;}.cls-28,.cls-29,.cls-30,.cls-31{fill:#172244;}.cls-29,.cls-30{stroke:#4b3225;}.cls-31{stroke:#4a3225;}.cls-35{fill:#8d6226;}.cls-36{fill:#633319;}.cls-61{font-size:7px;}.cls-61,.cls-62,.cls-63,.cls-64{fill:#4a3226;}.cls-61,.cls-62,.cls-65,.cls-64{font-family:HiraMaruPro-W4-83pv-RKSJ-H, 'Hiragino Maru Gothic Pro';}.cls-55{font-family:HiraMaruProN-W4-83pv-RKSJ-H, 'Hiragino Maru Gothic ProN';font-size:6.54px;}.cls-37{opacity:.23;}.cls-62{font-size:6.62px;}.cls-5{stroke-width:2px;}.cls-6{stroke:#b7d67a;stroke-linecap:round;stroke-linejoin:round;}.cls-66{letter-spacing:0em;}.cls-7{stroke:#f5e931;}.cls-10,.cls-16{stroke:#4d3326;}.cls-67{letter-spacing:-.01em;}.cls-63{font-family:KozGoPr6N-Regular-83pv-RKSJ-H, 'Kozuka Gothic Pr6N';font-size:2.91px;}.cls-68{letter-spacing:0em;}.cls-65{fill:#613318;font-size:2.7px;}.cls-64{font-size:7.33px;}.cls-13{stroke:#fff;}</style><clipPath id="clippath"><rect class="cls-1" x="0" width="275.37" height="309.06"/></clipPath></defs><g id="_たてもの"><g class="cls-39"><g><g><g><path class="cls-42" d="M355.91,290.96v23.97h-46.7v-.29c-7.15-2.4-33.53-4.42-33.53-4.42l-9.04-19.64s43.05-12.59,49.03-12.5c5.99,.08,31.21,7.31,39.97,12.88h.27Z"/><path class="cls-51" d="M355.91,288.22v2.74h-.27c-8.76-5.57-33.98-12.8-39.97-12.88-5.98-.09-49.03,12.5-49.03,12.5l-4.29-9.33s16.71-9.48,18.9-11.74c2.19-2.25-28.1-2.85-29.68-3.29-1.58-.45-17.21,.05-22.36,1.38s-40.53,11.22-47.58,11.31c3.22-19.34,5.04-40.11,5.84-50.66h2.45c.65,0,1.27-.28,1.69-.76l1.52-1.72c.4-.47,.99-.73,1.61-.73,18.27,.04,35.65-1.74,57-3,21.73-1.27,28.91-6.23,28.91-6.23l2.79-.35v3.61c0,1.03,.84,1.86,1.87,1.86h10.76c.77,0,1.48,.39,1.9,1.03l.82,1.26c.26,.4,.64,.69,1.1,.83,5.19,1.6,22.68,4.58,25.85,5.12,.31,.05,.62,.06,.93,.04,6.17-.52,28.97-.52,28.97-.52h.27v16.38h-.27c-1.61-1-16.44-1.74-22.43-1.41-5.98,.33-24.36,7.56-24.36,7.56-7.4,13.72-41.04,37.05-41.04,37.05,44.9-13.44,47.45-12.02,47.45-12.02,13.46-.25,40.38,11.97,40.38,11.97h.27Zm-29.6-48.3c2.91-.34-2.41-1.91-8.15,.83-5.73,2.74-23.11,4.16-24.19,4.07-.93-.07-17.64-.94-21.57,3.97-1.22,1.51-.36,3.73,1.53,4.16,3.45,.79,11.99,.56,32.93-6.3,0,0,16.54-6.4,19.45-6.73Zm-15.96-3.99c.75,.33,2.58-1.75-9.31-.5,0,0-5.82,2.66-12.22,1.08,0,0-1.25-1.74-3.58,1.04,0,0-3.35-1.28-5.26-.42-.34,.15-.35,.64-.04,.86,.76,.52,2.1,1.32,3.06,1.26,1.41-.08,4.9,.22,6.98-.85,2.08-1.06,13.89,0,13.89,0,0,0,1.08,.28,.99-.85-.08-1.12,1.5-.09,2.08-.61,.58-.51,2.66-1.35,3.41-1.01Zm-25.61,34.58c15.38-11.22,16.55-17.79,16.55-17.79-24.86,3.74-27.19,10.56-27.19,10.56-.16-.33-2.24,1.66-3.65,1.58-1.42-.09-7.49-.5-7.32,.66,0,0,5.74,.98,9.06,.7,0,0,6.12,1.63,8.46,.8,0,0,2.27,.66,2.79,.24,.53-.43,3.63-5.06,4.26-2.98,.62,2.07-2.21,3.57-3.54,5.4s.58,.83,.58,.83Zm-7.15-32.75c1.67-.92-4.73-1.25-4.73,0,0,0,3.07,.91,4.73,0Z"/><path class="cls-42" d="M355.91,245.07v43.15h-.27s-26.92-12.22-40.38-11.97c0,0-2.55-1.42-47.45,12.02,0,0,33.64-23.33,41.04-37.05,0,0,18.38-7.23,24.36-7.56,5.99-.33,20.82,.41,22.43,1.41h.27Z"/><path class="cls-41" d="M-61.74-59.62l6.99-3.32-1.09-2.41-7,3.18,1.1,2.55Zm3.02,208.61c2.29-.91,9.84-1.99,13.5-.88s7.87,11.42,7.87,11.42l5.32-2.66-10.64-22.73c-8.95-.22-15.84,14.4-16.05,14.85ZM191.84-9.86s-3.62-3.2-4.86-6.86c-1.25-3.66-8.32-8.48-8.32-8.48-4.82-3.33-5.81-9.27-5.81-9.27-15.86,3.35-45.54,9.5-49.22,9.44l1,16.26L127.62,0s56.12-13.14,54.62-6.98c-.81,3.31,1.5,3.15,1.5,3.15,9.22-.24,8.1-6.02,8.1-6.02Zm-2.97-8.62l-6.23-18.08s-2.74,.59-7.04,1.51c0,0,.32,4.75,6.81,9.52,5.06,3.71,6.32,6.7,6.46,7.05ZM-108.01-49.04c0-1.16,.77-1.29,1.94-1.32l2.59-.11,.18-2.66-5.19,.09c-1.2-.02-2.18,.94-2.18,2.15v1.85h2.66ZM187.47,228.25c-.8,10.55-2.62,31.32-5.84,50.66-1.3,7.85-2.84,15.47-4.63,22.07-.49,1.81-1.01,3.54-1.54,5.18-1.04,3.23-2.16,6.09-3.36,8.48v.29h-4.49v-.29s-3.97-3.39-12.31-8.23c-.59-.34-1.2-.69-1.83-1.04-11.57-6.49-30.47-15.15-57.59-21.78-.7-.17-1.4-.34-2.12-.51-7.01-1.66-14.57-3.19-22.67-4.5,0,0-36.83-6.16-62.27-7.49,0,0-35.42,.83-53.21-22.44l1.72-1.5c15.52,15.8,31.2,20.95,51.49,21.45,20.28,.5,62.68,7.48,62.68,7.48,69.84,10.48,97.72,36.15,97.72,36.15,.96-2.02,1.88-4.45,2.74-7.21h0c.48-1.54,.95-3.17,1.4-4.9,1.63-6.16,3.07-13.39,4.32-20.9,3.28-19.73,5.28-41.43,6.07-50.97,.26-3.14,.39-4.96,.39-4.96l-45.75,5.68-32.81,4.07-.33-2.68,33.35-4.31-.21-1.79-2.52-24.83-33.92,3.02,3.28,27.78-2.48,.29-3.7-31.09,12.76-.8-.75-20.15h-2.32v-2.25h2.23l-.99-26.43-29.75-.17-.87,11.23-9.86,7.64-.82,7.73-2.87-.33,.74-6.36-4.16,2.25-.21,24.02h-2.33v-25.64l4.14-2.05h-8.35l-2.38-1.06v-1.6h15.02l8.2-6.05,2.38-29.4h-5.46l.09-2.57h65.23l20.45-2.28s-9.31-37.57-10.2-44.56l-5.54-20.39-29.82,7.87h-13.19l-2.99,1.11,5.99,20.78-2.33,.94-6.21-21.39-14.25,4.02c-2.06,.58-4.24-.29-5.33-2.13-1.25-2.1-2.75-5.73-4.09-11.95l-5.93,.63-.23-2.16,5.69-.74c-3.28-14.58-17.62-61.52-17.62-61.52l-15.88,3.07L-15.62,15.2c4.24,11.81,5.23,17.46,5.23,17.46l-2.7-.46c-1.87-10.14-5.86-16.32-5.86-16.32l-22.51,9.88c-.49,3.41,5.05,11.64,5.05,11.64,7.49,7.73,8.48,19.7,8.48,19.7l-31.09,10.84h-5.6s-1.01,.94-2.38,2.33c-2.8,2.85-7.13,7.56-7.43,9.86-.34,2.62,5.28,15.81,8.25,22.24,0,0,4.79-.87,6-1.33l29.63-12.39,6.36,1.54-.39,1.97-5.13-1.01-28.56,12.26-6.15,2.49c.66,.75,12.01,16.55,19.24,19.58,0,0,35.96-5.44,42.53-2.04,6.56,3.41,20.53,43.48,20.7,45.23,0,0-8.62,5.65-3.41,55.23l1.84-.12,2.97-.19,.12,1.89c-1.2,.15-2.37,.27-3.51,.36,0,.73-.65,3.83-.65,3.83-1.15,.71-2.24,1.55-2.93,2.52,0,0-17.3-.95-19.84-2.05l-12.14-5.55c-10.53-3.35-35.53-22.25-37.19-23.75-1.66-1.49-17.88-13.3-22.61-18.09-1.48-1.5-2.84-3.31-4.05-5.19-2.66-4.14-4.6-8.63-5.5-10.97-1.32-3.41-3.92-10.22-6.86-16.91-.92-2.09-2.99-5.2-5.39-8.49-5.3-7.25-12.25-15.36-12.25-15.36-3.95-7.26-30.3-30.65-37.12-27.49-2.87,1.33-5.27,1.63-7.22,1.33-2.68-.4-4.5-1.93-5.54-3.44-.64-.93-4.61-3.46-9.59-6.41-8.87-5.26-20.97-11.88-23.21-13.26-3.49-2.16-27.15-9.31-27.15-9.31V-131.03H355.91V-50.64h-.27c-2.44-4.07-2.97-15.35-2.97-15.35-3.28-.02-6.9,.11-10.81,.35l2.66,42.1h8.81l2.31-1.45h.27v2.95l-.78,.66c-.05,.13-.04,11.06,.78,17V6.81h-.27s-5.47,.08-8.13,0c-2.66-.09-4.74-2.17-4.74-2.17l-.41-9.56s-3.99-.25-7.32-.91c-3.32-.67-3.49-2.99-3.49-2.99l-1.16-10.15-7.36,1.12,1.79,15.84s4.49,.25,7.39,.09c2.91-.17,2.83,1.99,2.83,1.99v7.98s-18.04-.41-18.87-1.24c-.83-.84-2.33-4.24-3.08-4.53-.74-.3-8.48,1.7-10.89-.88-2.41-2.57,0-6.23,0-6.23-2.08-1.17-5.23,1.16-5.82,1.49-.58,.34-10.64,2.33-12.83,1.5s-1.47-6.57-1.47-6.57c1.42-.91,13.39-3.57,13.39-3.57l1.38-3.27-12.08,.94s-12.91,3.91-14.66,5.07c0,0-31.21,9.15-31.73,9.15l4.46,16.96s6.49,.41,10.65,9.89l23.11,1.33,21.03,2.74,.08-9.64s0-1.91,6.57-1.91,6.82,1.66,6.82,1.66c0,0,2.09,5.15-1.53,7.07l-9.61,.08,.16,3.41,13.56,.91s.49-3.74,5.07-3.66c4.57,.09,6.05,4.66,6.05,4.66,0,0,12.77-4.32,30.84-3.74h.27v2.91h-10.39l.99,14.96h9.4v2.41h-8.73l.75,16.55h7.98v2.66h-13.68l13.41,19.53h.27v5.21h-.27l-10.96-16.58-24.47,10.88-22.91,5.7v2.72l15.1-3.61,.36,2.56-16.11,4.5,7.3,16.39,18.23-8.42,.95,2.16-17.65,8.82,20.08,11.08,28.33-9.76h2.02v12.36h-.27l-1.03-9.81-26.66,9.2,5.82,4.55s12.3,16.96,15.4,18.06h6.74v2.22h-3.8l2.83,4.38h.97v3.66h-.27l-1.09-1.55s-6.43,4.93-24.22,6.98v10.53l-2.2,.2c-.18-2.03-.29-5.05-.2-9.54l-10.68,1.75c.75,1.49,4.62,30.14,4.62,30.14l12.45-2.59-.93-14.33c-.02-.29-.02-.52-.04-.7l2.3-.17,1.08,14.7,18.91-3.94h.27v10.14h-.27l-5.72-3.11-65.92,11.92-.56,.07-2.79,.35-30.07,3.74-62.63,1.67s-.15,2.62-.48,7.03ZM193.49-5.08h-.01c-15.44,9.64-14.23-.42-14.23-.42-8.73-.91-50.69,8.25-50.69,8.25l14.19,41.61,62.01-16.73-11.27-32.71Zm7.03,6.74c2.7,7.81,5.61,16.18,8.55,24.58l1.08-.21,9.64-2.41-11.86-9.25c-1.91-6.65-7.41-12.71-7.41-12.71ZM-93.31,40.33c-1.73-5.55-2.78-12.58-2.95-16.48-.28-6.37,19.78-8.7,19.78-8.7-.05-3.72-7.37-36.36-7.37-36.36h-16.35l-5.99,5.76v4.22l1,.99-2.33,1.67-1.33-1.61v-4.38h-4.87c0,32.25,19.79,54.22,20.41,54.89ZM196.57-9.83l8.2-4.48-5.24-9.98c0-5.73-2.97-16-2.97-16-5.81,1.32-9.17,2.12-9.17,2.12,.09,1.43,3.86,12.83,9.18,28.34Zm20.47,58.76l13.86-4.57s-.46-2.34-1.37-5.14c-.9-2.74-2.07-4.29-2.07-4.29l-12.72,3.95-1.11,.34c1.16,3.29,2.3,6.54,3.41,9.71ZM-112.84-21.32v4.04h4.22l6.87-6.59h17.18l-1.55-5.4-24.55-12.72h-6.05c6.54,8.31,3.88,20.67,3.88,20.67ZM228.29,80.75c1.37,3.85,2.45,6.92,3.18,8.94l9.35-2.21,1.28-7.94c-10.7,2.55-13.81,1.21-13.81,1.21Zm-.89-2.52c3.31,1.39,13.81-1.45,13.81-1.45-.55-1.08-3.44-7.62-5.13-15.86-1.52-7.43-4.29-14.24-4.29-14.24l-13.94,4.52c3.65,10.38,6.99,19.81,9.55,27.03Zm4.78,13.46c.18,.51,.27,.77,.27,.77l.8,18.19,23.56-5.49v-3.22l-12.56-20.17-1.65,7.42-10.42,2.5ZM355.64,4.64v-1.78c-2.86-2.7-2.68-23.82-2.68-23.82l-8.15,.25,.58,24.07c1.66,1.83,10.25,1.28,10.25,1.28Zm-3.53,156.96s-.94-3.57-4.6-5.07c-3.66-1.49-16.46-18.62-16.46-18.62-4.16,2.41-2.74,3.82-2.74,3.82,2.41,2.31,11.22,24.11,11.22,24.11,8.15-.33,12.58-4.24,12.58-4.24Zm-6.59-95.1l-.71-15.72h-13.93l9.43,15.72h5.21Zm-1.56-17.93l-1.18-15.99s-11.01,.14-22.2,5.35l8.64,10.64h14.74Zm-.19,27.38l-4.9-7.43-40.46,.28-1.11,22.89,21.39-5.27,25.08-10.47Zm-1.54-83.22v-2.8l-.37-10.25-9.04,1.13,.76,8.33c.13,1.16,.86,2.06,2.17,2.74l6.48,.85Zm-.41-15.78l-2.21-37.15c-19.45,4.16-31.84,2.4-31.84,2.4l1.55,39.31c19.7-3.64,32.5-4.56,32.5-4.56Zm-2.71-39.4v-3.01c-9.45,.69-19.88,1.94-31.43,3.64l.09,2.11c14.47,1.01,31.34-2.74,31.34-2.74Zm-35.72,128.42h33.63s-6.07-10.83-17.4-25.12c0,0-15.67,23.46-16.23,25.12Zm33.65,100.71s-7.32-18.38-11.73-25.11c0,0,.09-3.24,3.58-5.49,0,0-13.22-9.81-22.78-13.63,0,0,10.39,47.89,10.48,48.3,.08,.41,20.45-4.07,20.45-4.07ZM332.63,1.65s.67-1.58-3.16-1.16l-5.49,.08s-1.66,1.08-2.24-6.53l-1.08-11.37-6.46,1.14s-.94,9.45,2.14,9.61l.08,9.31s.66,2,2.83,1.91l5.15-.41,.91,1.25,7.32,.25V1.65Zm-13.43,34.06s3.59-1.22,3.26-1.66c-.33-.45-1.44-2.66-4.32-2.66s-2.11,2.02-2.11,2.02l3.17,2.3Zm.05,168.31c.17-4.8-5.66-35.35-5.66-35.35l-13.13,2.58c.5,4.57-1.5,5.15-1.5,5.15l-17.71,4.16,1.63,4.27,.31,25.99,8.62-1.08,27.44-5.72Zm-1.87-164.33v-2.87l-2.46-1.87-15.39-1.13-.28,32.15h1.54l16.59-26.28Zm-3.31-40.34c.43-2.34,.02-3.91-.41-4.81-.29-.61-.89-1.02-1.57-1.1-7.17-.87-7.51,4.68-7.09,5.69,.45,1.05,9.07,.22,9.07,.22Zm-1.14,166.83l-9.4-43.73-36.58,10.56c3.08,13.38,10.23,32.58,10.23,32.58l20.37-4.73s1.16-.09,1.49,3.15c.34,3.25,1.25,4.66,1.25,4.66l12.64-2.49Zm-1.35-181.93l-2.01,.32-4.36,.04-5.6-.03-1.39,4.8,.35,2.99,5.99,.36c3.71-2.11,7.43-1.55,7.43-1.55-.61-1.31-.41-6.93-.41-6.93Zm-3.64,41.26c1.22,0,.66-2.22,.66-2.77s-.44-.89-4.87-1c-4.44-.11-3.55,1.22-3.55,1.22v2.55h7.76Zm-2.94-43.73l-.99-20.7-5.79,.26,1.02,20.44h5.76Zm-1.1-23.11l-.95-19.8c-5.83,.88-11.79,1.86-17.78,2.89l-1.62,4.55v13.4l20.35-1.04Zm-1.45,161.37l-8.49-19.52-30.06,7.13c-.58,9.81,2.48,22.76,2.48,22.76l36.07-10.37Zm-.25-188.84l-.36-10.52-13.92,.6-.73-5.92-3.15,.33,1.13,18c5.91-.92,11.6-1.75,17.03-2.49Zm-5.23,243.21s1.82-.42,.74-5.24-.41-5.82-2.74-5.24-16.79,3.16-16.96,4.74l2.33,8.23s.17,1.25,2.79,.67c2.61-.59,13.84-3.16,13.84-3.16Zm-.1-192.3l-.79-20.5-6.32,.25-.11,6.23,1.83,1.89,.28,4.99-1.28,1.38h-8.04l1.89,2.55,.72,4.21,11.82-1Zm-1.15,79.9l.8-28.19-16.03-1.91,.1,5.74-5.07,2.19,2.49,7.08h8.73l4.82,15.09h4.16Zm.41-68.09c.39-.55-.49-3.71-.49-3.71l-11.17,2.75s-.86,2.84,1.69,3.01,9.59-1.5,9.97-2.05Zm-1.08,79.2l.36-8.15h-12.28l-6.7,2.02,7.34,19.38,9.04-13.25h2.24Zm-1.08,24.05l.92-20.5s-.02-.02-.04-.01l-10.13,13.48c-7.26,1.33-16.91,9.36-16.91,9.36l.12,3.33,26.04-5.66Zm-5.07-123.62v-2.58l-.55-.66h-6.96l-.75,.64v3.02l.97,.55h6.32l.97-.97Zm-.37,88.46l-3.49-12.31h-8.28l-3.36-9.22-20.65,6.55,2.68,9.58,15.97-5.16,4.41,13.05,7.36-2.28,5.36-.21Zm-1.1-94.08v-5.8l-14.24,.64-.11-2.82,7.75-.24-.27-13.4,2.06-4.11c-6.6,1.15-13.22,2.36-19.72,3.6l1.06,21.43,2.09,10.15,2.76,10.97c2.08-1.11,13.47-4.43,13.47-4.43l-.61-4.24-3.16-4.05v-5.93l1.61-1.55,7.31-.22Zm-5.6-50.91l-.29-3.44-14.84,1.78,.59,3.32,14.54-1.66Zm-.4,295.2l-.49-25.65-13.55-42.82c-5.9-17.62-5.49-34.58-5.49-34.58l-27.87,6.35,.35,8.48c-.09,1.72,12.34,31.12,22.9,55.74l9.57-2.11c.41-.09,.74-.11,.99-.09,.5,.04,.89,.42,.98,.91,.2,1.06,.6,4.12,.73,11.49,.17,9.81-1.7,14.33-1.7,14.33,2.45,5.64,3.98,9.16,3.98,9.16l9.6-1.21Zm-.08-124.02l-7.36-20.48-15.93,4.79,9.02,23.56c.12,.34,.55,.42,.8,.16,2.91-2.95,13.47-8.03,13.47-8.03Zm-3.92-52.49v-3.92l-26.44-1.71c-1.74-7.89-6.97-9.02-6.97-9.02l7.8,23.3,25.61-8.65Zm-4.12,29.56l-3.51-10.27-13.65,4.43,1.74,10.7,15.42-4.86Zm-7.66,134.19s1.77-6.22,.27-19.68c-.02-.23-.24-.39-.46-.34l-7.73,1.64c3.05,7.11,5.63,13.08,7.92,18.38Zm.4-210.03l-4.58-21.12-1.23-22c-12.93,2.48-25.33,5.03-36.11,7.33l5.83,20.88,7.31,22.89,28.78-7.98Zm-13.98,225.3l13.98-1.76c-2.09-3.61-16.1-37.45-26.2-62.06l-28.06,1.01c1.96,2.91,4.53,21.4,.6,22.13l-4.24,.28,.47,10.14-14.53,1.44s.36,1.4,.43,1.67c.45,1.67,.8,3.65,.8,3.65l-13.41,3.96,5.64,21.22,64.52-1.68Zm13.3-111.38l-.11-4.07-9.36-24.11-8.43,2.77,14.47,22.95,.18,3.16,3.25-.7Zm-11.08-30.29c.85-2.37-.02-8.1-1.65-14.92l-11.43,2.29c.55,7.76,5.1,15.07,5.1,15.07l7.98-2.44Zm-13.8-15.68l11.49-1.92c-3.91-15.3-10.77-34.4-10.77-34.4l-12.58,3.51c5.16,3.93,11.86,32.81,11.86,32.81Zm-14.83-35.57l14.52-3.95c-1.91-11.55-10.39-35.5-10.39-35.5-19.78,.34-30.4,8.9-30.4,8.9,8.81,4.8,14.58,21.28,14.58,21.28l11.69,9.27Zm-15.24,127.2l28.31-.83c-5.32-12.97-9.44-23.07-9.44-23.07l-.33-9.92-25.69,5.73c-1.55,.95-1.6,4.1-1.13,6.56,.5,2.67,1,4.23,1.96,6.8l6.32,14.73Zm18.21-37.37l-.83-17.13-.82-2.38-.84-2.44-3.34-9.69s-2.49-1.67-29.92,2.49c0,0-2.49,.45-2.83-3.88,0,0-5.93,.79-10.17-2.29l-27.05,5.22,1.84,8.37,10.89-2.43,.88,3.43-11.08,2.38,7.43,32.48,31.42-6.87-1.66-11.92,2.33-.27,2.21,11.91,8.26-1.94c-.89-1.49-2.38-11.8-2.72-12.02-.33-.23-4.1,.55-4.1,.55-1.5,.35-2.47,.28-3.1,.06-.95-.34-1.11-1-1.11-1l-3.82-16.79,2.55-.61,2.49,10.75c.33,2.44,1.5,5.08,1.5,5.08,3.77-.72,7.59-.37,7.59-.37l1.77,9.09c1.22,5.98,2.39,4.71,2.39,4.71l19.84-4.49Zm-.08-131.6l-6.93-25.87c-8.81,1.89-16.43,3.59-22.23,4.9,0,0,2.38,9.41,2.64,15.65l4.57,9.47s13.88-4.4,21.95-4.15Zm-14.92,56.16l12.84-3.82c-2.28-6.07-4.66-6.7-4.66-6.7l-11.12,2.76-.78,.17c.88,2.54,1.85,5.3,2.73,7.81l.99-.22Zm6.74,36.75l-6.11-17.72-15.01,5.7c-.08,4.63,2.39,9.45,2.39,9.45,5.46,2.99,18.73,2.57,18.73,2.57Zm-6.92-20.08l-7.97-23.14-.94,.28-11.66,3.4,5.71,24.73,13.67-4.87,1.19-.4Zm-1.56,118.21c.17-2.72,.52-12.6-2.76-18.83,0,0-12.38-23.61-9.81-30.59l-35.5,7.77,14,52.76,11.52-2.3-1.36-6.77s-.38-2,8.31-3.87c8.69-1.87,10.52-4.28,11.51,2.75l3.32-.18c.41-.02,.74-.33,.77-.74Zm6.3-94.76s-14.56-1.6-17.5-3.37l-8.69,1.21,.27,4.45s-.44,1.53,4.77,.93,21.15-3.22,21.15-3.22Zm-12.38,105.9c.08-6.03-.32-9.64-.7-11.07-.1-.36-.62-1.16-.98-1.06l-12.68,3.45c-.46,.12-.73,.59-.62,1.05,.54,2.13,1.03,4.23,1.45,5.87,.1,.38,1.2,3.03,1.2,3.03l12.33-1.27Zm-6.56-111.48s-2.71-5.74-2.66-9.29l-46.59,9.4,2.18,7.99s38.1-7.7,47.07-8.1Zm-2.87-11.97l-5.88-24.55-10.81,2.93,4.94,23.99,11.75-2.37Zm-15.8,133.59l11.49-2.73s-.85-5.5-2.18-7.41l-11.42,2.37,2.11,7.77Zm9.18-116.01l-.07-1.79-6.51,1.15c1.46,.87,6.58,.64,6.58,.64Zm-5.28,143.77l-7.08-26.66-38.34,5.69,2.6,26.5,42.82-5.53Zm-2.16-158.51l-4.88-23.85-10.41,2.82,4.57,23.19,10.72-2.16Zm-5.55,129.47l-2.75-10.35-35.62,6.56,.33,8.96,38.04-5.17Zm-3.52-13.28l-10.18-38.33-27.08,9.41-23.36,.84,1.11,35.02,23.72-.61,35.79-6.33Zm-3.75-113.61l-4.73-23-21.27,5.77,5.8,21.3,20.2-4.07Zm-7.04,73l-2.58-9.75-22.12,2.57h-27.35l-.89,9.73,2.72,7.32,22.56-.73,27.66-9.14Zm-48.64-72.02l28.93-7.57c-.1-.82-2.16-7.49-4.94-16.31l-14.43,4.47-3.2,.04-5.78-17.25,17.51-5.74c-5.15-16.05-10.19-31.58-10.19-31.58l-.95-11.53-35.47,9.07-29.43,6.15c6.07,18.12,18.11,65.36,19.96,71.41,1.75,5.74,4.65,4.66,4.65,4.66l19.37-5.49,13.97-.33Zm9.89-22.16l13.36-4.04c-1.34-4.24-2.82-8.88-4.32-13.55l-15.11,4.75,4.28,12.84h1.79Zm11.92,153.51l-.23-8.92-21.38,.52c0,.17,.27,10.31,.27,10.31l21.34-1.91ZM120.77-22.87v-5.08c-9.24,3.11-16.68,4.25-22.75,2.89l-13.61,4.24,.51,7.31,35.85-9.36Zm-.88-9.31l-11.29-31.27-21.76,5.63c3.84,11.16,7.05,20.87,7.44,27.24,0,0,3.05,6.88,25.61-1.6Zm-10.58,179.23l-2.23-5.98h-26.18l-.45,5.81,28.86,.17Zm-2.08-8.6l.67-8.44h-9.46l-.02,8.44h8.81Zm.46-204.44l-8.92-24.69s-22.77,6.51-28.93,7.78l-19.96,1.68,3.33,17.77-10.17,2.38-.26,8.52-14.3,2.2-3.95-7.36s-15.63,7.65-17.87,9.73c0,0,14.35,35.8,28.35,42.9,0,0-6.32-24.69-6.49-28.6,0,0,.53-2.38,5.73-3.93l-2.49-8.37,12.75-4.33,.09-2.16,.08-1.77,12.05-3.88,7.35,5.76,12.41-4.49-3.55-10.67-9.81,3.02-2.93,4.22-2.11-1.33,3.6-4.94,13.64-3.93,4.1,12.58,4.32-1.44-5.76-18.01,2.49-.67,5.52,17.78,21.69-5.75Zm-11.7,204.44l.02-8.44h-14.25l-.66,8.44h14.89ZM87.13-24.31l6.9-2.09c-7.76-3.6-12.98-12.45-16.93-28.06l-12.03,4.15,.09,4.37,1.96,1.78s-.77,4.38,3.16,4.77c3.94,.39,3.38,5.54,3.55,5.99,.17,.44,3.27,1.77,3.27,1.77l10.03,7.32Zm4.24-7.72c.08,.05,.19-.02,.18-.11-.13-1.22-1.05-7.49-7.08-24.71l-3.99,1.44s4.03,18.72,10.89,23.38ZM36.98-8.77l46.94-14.06s-6.93-5.2-7.71-6.75c0,0-2.93-.94-4.65-2.88,0,0,.61-4.77-2.99-4.93,0,0-1.98-.35-3-2.87-.8-1.95-2.61-3.29-4.72-3.29h-2.15l-8.76,4.44-2.6-.11-.78,1.05-1.72-.17-2.88,2.28-4.49,.22-4.96,1.58c-.74,.23-1.17,.99-1,1.74l5.47,23.75Zm45.39-4.13l-.43-7.24L37.25-6.47l1.22,2.61,43.9-9.04Zm-19.68-33.27l.28-4.36-7.04-5.21-8.81,2.94-.34,3.99-12.41,4.46,1.83,6.18,5.15-.55,2.88-2h2.05l.67-.72h2.62l9.5-4.71,3.62-.02Zm-13.12-19.45l-3.01-15.31-4.71,.79,1.19,15.96,6.53-1.44Zm-9.12,10.86l.19-6.11-13.53,2.5,2.53,5.15,10.81-1.54Zm-.58-8.76l-1.33-16.47s-22.65,4.53-22.86,4.53l.54,8.82-2.91,3.74-1.83-1.39,2.24-2.94-.37-7.85-20.12,2.58s-6.55,3-14.97,6.87l11.33,5.68,21.22-3.45,.25,1.99-19.37,3.7,4.12,11.23,17.71-8.65-.54-1.39,2.32-.91c.24,.61,.41,1.01,.46,1.01,.12,0,6.86-3.74,9.39-4.32,2.83-.65,2.83-.67,2.83-.67l11.89-2.11ZM-17.29,13.04L34.37-2.53s-5.38-1.17-11.64-10.98L-23.5-1.78l.84,7.17,5.37,7.65ZM-26.87-3.59L21.01-15.67S6.32-39.04,4.22-46.84l-6.76,3.35s-16.46,9.98-35.42,13.8L-31.64-.88l-2.35,.51c-2.36-10.77-6.8-28.57-6.8-28.57l-9.58,2.07c.92,7.41,.74,11.81,.74,11.81L-43.39-1.67l2.49,12.97,8.34-3.83c.02-.23-.03-.71-.14-1.39l2.62,.16,4.52-.59-1.31-9.24ZM11.42,180.97c1.06-9.31,3.99-13.13,3.99-13.13-.66-4.43-14.77-38.54-18.84-42.45-2.88-2.77-39.24,1.66-39.24,1.66l1.11,5.32,13.76,29.15-3.73,12.64s16.57,8.09,18.18,8.09,7.92-3.55,7.92-3.55H6.99l4.43,2.27Zm1.06,42.74c-.55-1.84-.98-7.04-1.25-13.3l-5.4-.5c-2.72-1.23-3.94-2.4-4.99-3.27-1.98-1.66-2.18-4.27-2.15-5.49l1.7,.05c-.16,4.11,5.6,6.77,5.6,6.77l5.16,.44c-.33-9.03-.34-19.67,.11-25.66l-3.61-1.78H-1.49l.04,14.07c-1.88,5.13-19.16,17.86-19.16,17.86,11.91,13.36,33.09,10.81,33.09,10.81Zm-15.91-29.49v-13.52l-1.66-.06-6.71,3.44-2.55,4.6,2.05,7.87,1.27,5.66c6.95-5.91,7.6-7.99,7.6-7.99ZM-7.02-44.61l-4.11-11.98-13.55-7.69c-14.84,6.82-33.3,15.31-33.43,15.39l6.12,19.49C-19.42-34.93-7.02-44.61-7.02-44.61Zm-5.81,248.33l-1.52-6.67-2.13-8.7,2.13-4.27-4.27-1.33-6.87,3.6s3.11,9.76-1.55,14.58l-3.38,1.51c3.45,5.64,7.87,8.68,7.87,8.68,4.02-2.89,7.2-5.34,9.72-7.4ZM-20.36,13.87l-3.83-5.71c-9.96,.67-21.28,8.46-21.28,8.46l-2.08,.79-.08-.22c-6.42,.61-12.05,1.88-12.05,1.88-2.75-1.37-13.39,.37-13.39,.37,0,0,1.17,3.1,2.85,10.59l3.5,.39s3.49-3.8,4.21-7.29l2.22,.47s-1.81,6.93-5.54,9.21l-3.85-.31c1.54,7.33,3.41,18.1,5.17,33.17h5.28l3.08-1.08s-4.41-11.85-5.61-19.42c-1.21-7.56-.21-11.18-.21-11.18l18.41-6.11-1.83-4.82,2.08-.79,1.5,1.33L-20.36,13.87Zm-7.84,171.48l7.2-3.6-8.2-4.27-4.55,1.67s-1.94,7.87,0,14.9c.61,2.19,1.47,4.22,2.44,6.07,0,0,7.28-.58,3.11-14.77Zm-1.72-23.11l-1.61-3.35c-12.86,7.09-28.04,8.95-34.75,4.57-.82-.53-1.66,.19-1.66,.19-1.44,3.91,3.46,8.9,3.46,8.9l29.6,4.24,4.96-14.55ZM-53.24,63.43l22.32-7.74s-1.5-9.48-7.04-16.21c0,0-4.22-6.4-4.93-9.06l-16.35,5.42s-1.73,7.22,6,27.59Zm13.56,97.01s-2.82-9.48-6.87-10.89-13.3,1.86-13.3,1.86c0,0-.94,7.4-3.96,11.16,0,0,6.34,4.35,24.13-2.13ZM-48.13,15.24l4.57-2.49c-1.56-10.9-2.24-13.51-2.24-13.51l-6.51-13.42c.64-5.22-.78-12.06-.78-12.06l-4.94,.99c.46,8.36,4.29,22.08,4.29,22.08l-1.37,1.37c-8.02-.41-5.49,17.5-5.49,17.5l.83,.96c5.9-1.36,11.64-1.42,11.64-1.42Zm4.3,116.46l-1.11-4.26c-6.26-.56-20.4-19.35-20.4-19.35-.83-.99-3.1-5.54-3.1-5.54l-7.71-6.82h-7.81c-1.83-8.42-3.27-5.76-4.38-6.43-1.11-.66-4.71-5.43-4.71-5.43l1.55-1.72c.78,2.06,4.05,5.27,4.05,5.27,3.43-.55,5.01,6.79,5.01,6.79l7.24-.08,4.65,4.07s-6.65-14.24-6.29-17.96c.26-2.66,5.2-8.43,7.97-11.49,1.11-1.21,1.87-2,1.87-2l-1.5-.78h-25.49l-26.04,17.42c-.48,.31-.58,.97-.22,1.41,1.99,2.41,7.65,9.61,7.97,13.54l1.33-.45-2.33-5.32-.22-7.42h2.22l.22,7.29,7.31,13.55,6.11-.21,3.12,5.32h3.37s6.41,3.74,6.8,3.57c.39-.16,3.42-.62,4.21-6.27,0,0-4.21-11.64-16.33-10.56-3.48,.31-6.78-9.73-6.78-9.73l2.12-1.24s2.51,8.9,5.42,8.77c3.06-.14,11.5-1,18.15,12.18,0,0-1.37,7.23-6.03,9.39,0,0-1.91,.33-8.06-4.32l-4.32,.12-2.87-4.9-2.62,3.99-3.39-.54-2.85-.37s2.74,4.22,11.8,4.05l8.89,18.07,4.16,2c6.37,.16,12.59,3.81,12.59,3.81,.44-.39,4.31-3.76,6.97-4.26s8.59,3.6,8.59,3.6c4.1-5.04,10.87-6.76,10.87-6.76Zm-12.09,8.62s-4.13-3.35-6.59-3.38c-2.47-.03-5.88,3.3-5.88,3.3,0,0,.54,10.75,6.99,9.31,0,0,4.82-8.23,5.48-9.23ZM-56.86-3.96c-2.45-6.32-3.74-20.87-3.74-20.87l-20.28,3.62,7.2,38.05c.05,.26,.31,.41,.56,.33,2.3-.84,10.94-.84,10.94-.84-3.32-19.29,5.32-20.29,5.32-20.29Zm-5.29,155.77s-3.52,.3-5.41-1.95c-2.07-2.45-3.37-5.07-3.6-8.77,0,0-7.71-3.66-10.6-3.5l3.51,5.31,1.99,8.1s5.32,8.64,9.98,10.74c0,0,3.52-4.69,4.13-9.93Zm-10.17-87.89h5.32s-3.37-32.48-9.08-46.1c0,0-17.63,1.6-17.63,6.8,0,5.83,3.1,16.81,3.1,16.81,1.72,6.99,8.53,7.91,8.53,7.91,3.61,3.27,9.76,14.58,9.76,14.58Zm-31.22,45.98l.99-1.47-3.41-.56s-3.55-7.06-3.69-7.4c-.03,0-1.74,.62-1.74,.64,.83,5.93,2.28,8.07,2.28,8.07l5.57,.72Z"/><path class="cls-49" d="M355.91,6.81V29.67h-.27c-18.07-.58-30.84,3.74-30.84,3.74,0,0-1.48-4.57-6.05-4.66-4.58-.08-5.07,3.66-5.07,3.66l-13.56-.91-.16-3.41,9.61-.08c3.62-1.92,1.53-7.07,1.53-7.07,0,0-.25-1.66-6.82-1.66s-6.57,1.91-6.57,1.91l-.08,9.64-21.03-2.74-23.11-1.33c-4.16-9.48-10.65-9.89-10.65-9.89L238.38-.09c.52,0,31.73-9.15,31.73-9.15,1.75-1.16,14.66-5.07,14.66-5.07l12.08-.94-1.38,3.27s-11.97,2.66-13.39,3.57c0,0-.72,5.74,1.47,6.57s12.25-1.16,12.83-1.5c.59-.33,3.74-2.66,5.82-1.49,0,0-2.41,3.66,0,6.23,2.41,2.58,10.15,.58,10.89,.88,.75,.29,2.25,3.69,3.08,4.53,.83,.83,18.87,1.24,18.87,1.24V.07s.08-2.16-2.83-1.99c-2.9,.16-7.39-.09-7.39-.09l-1.79-15.84,7.36-1.12,1.16,10.15s.17,2.32,3.49,2.99c3.33,.66,7.32,.91,7.32,.91l.41,9.56s2.08,2.08,4.74,2.17c2.66,.08,8.13,0,8.13,0h.27Z"/><path class="cls-42" d="M318.16,240.75c5.74-2.74,11.06-1.17,8.15-.83-2.91,.33-19.45,6.73-19.45,6.73-20.94,6.86-29.48,7.09-32.93,6.3-1.89-.43-2.75-2.65-1.53-4.16,3.93-4.91,20.64-4.04,21.57-3.97,1.08,.09,18.46-1.33,24.19-4.07Z"/><path class="cls-49" d="M303.53,122.45l9.4,43.73-12.64,2.49s-.91-1.41-1.25-4.66c-.33-3.24-1.49-3.15-1.49-3.15l-20.37,4.73s-7.15-19.2-10.23-32.58l36.58-10.56Z"/><path class="cls-42" d="M309.21,314.64v.29h-12.63c-3.16-1.11-17.68-1.88-17.68-1.88l1.05,1.59v.29h-2.83v-.29l-1.22-2.09s-29.37-1.92-46.27,2.09v.29h-7.99v-.29c17.13-7.08,50.72-4.81,50.72-4.81l-8.31-18.37-4-8.84-1.11-2.44,2.33-1.27,1.08,2.34,4.29,9.33,9.04,19.64s26.38,2.02,33.53,4.42Z"/><path class="cls-49" d="M293.96,100.52l8.49,19.52-36.07,10.37s-3.06-12.95-2.48-22.76l30.06-7.13Z"/><path class="cls-42" d="M301.29,252.72s-1.17,6.57-16.55,17.79c0,0-1.91,1-.58-.83s4.16-3.33,3.54-5.4c-.63-2.08-3.73,2.55-4.26,2.98-.52,.42-2.79-.24-2.79-.24,0,0-6.38-3.41-6.55-3.74,0,0,2.33-6.82,27.19-10.56Z"/><path class="cls-49" d="M294.89,76.67l-.92,20.5-26.04,5.66-.12-3.33s9.65-8.03,16.91-9.36l10.13-13.48s.04-.01,.04,.01Z"/><polygon class="cls-49" points="285.04 49.7 288.53 62.01 283.17 62.22 275.81 64.5 271.4 51.45 255.43 56.61 252.75 47.03 273.4 40.48 276.76 49.7 285.04 49.7"/><path class="cls-49" d="M280.94,186.57l.49,25.65-9.6,1.21s-1.53-3.52-3.98-9.16c0,0,1.87-4.52,1.7-14.33-.13-7.37-.53-10.43-.73-11.49-.09-.49-.48-.87-.98-.91-.25-.02-.58,0-.99,.09l-9.57,2.11c-10.56-24.62-22.99-54.02-22.9-55.74l-.35-8.48,27.87-6.35s-.41,16.96,5.49,34.58l13.55,42.82Z"/><path class="cls-49" d="M273.99,67.72l7.36,20.48s-10.56,5.08-13.47,8.03c-.25,.26-.68,.18-.8-.16l-9.02-23.56,15.93-4.79Z"/><path class="cls-42" d="M251.57,266.22c1.58,.44,31.87,1.04,29.68,3.29-2.19,2.26-18.9,11.74-18.9,11.74l-1.08-2.34-2.33,1.27s-22.58,9.96-34.47,13.86c-11.89,3.91-34.93,12.38-47.47,6.94,1.79-6.6,3.33-14.22,4.63-22.07,7.05-.09,42.43-9.98,47.58-11.31s20.78-1.83,22.36-1.38Z"/><path class="cls-42" d="M250.58,219.55l30.07-3.74s-7.18,4.96-28.91,6.23c-21.35,1.26-38.73,3.04-57,3-.62,0-1.21,.26-1.61,.73l-1.52,1.72c-.42,.48-1.04,.76-1.69,.76h-2.45c.33-4.41,.48-7.03,.48-7.03l62.63-1.67Z"/><path class="cls-42" d="M280.65,267.02c-2.34,.83-8.46-.8-8.46-.8-3.32,.28-9.06-.7-9.06-.7-.17-1.16,5.9-.75,7.32-.66,1.41,.08,3.49-1.91,3.65-1.58,.17,.33,6.55,3.74,6.55,3.74Z"/><path class="cls-42" d="M272.86,237.76c0-1.25,6.4-.92,4.73,0-1.66,.91-4.73,0-4.73,0Z"/><path class="cls-49" d="M277.43,31.79v3.92l-25.61,8.65-7.8-23.3s5.23,1.13,6.97,9.02l26.44,1.71Z"/><polygon class="cls-49" points="269.8 55 273.31 65.27 257.89 70.13 256.15 59.43 269.8 55"/><path class="cls-42" d="M264.05,291.46l8.31,18.37s-33.59-2.27-50.72,4.81v.29h-14.38v-.29c2.33-1.15,50.36-21.35,56.61-23.1l.18-.08Z"/><path class="cls-49" d="M265.92,179.78c1.5,13.46-.27,19.68-.27,19.68-2.29-5.3-4.87-11.27-7.92-18.38l7.73-1.64c.22-.05,.44,.11,.46,.34Z"/><path class="cls-49" d="M266.05,212.97l-13.98,1.76-64.52,1.68-5.64-21.22,13.41-3.96s-.35-1.98-.8-3.65c-.07-.27-.43-1.67-.43-1.67l14.53-1.44-.47-10.14,4.24-.28c3.93-.73,1.36-19.22-.6-22.13l28.06-1.01c10.1,24.61,24.11,58.45,26.2,62.06Z"/><polygon class="cls-49" points="265.26 99.28 265.37 103.35 262.12 104.05 261.94 100.89 247.47 77.94 255.9 75.17 265.26 99.28"/><path class="cls-51" d="M264.05,291.46l-.18,.08c-6.25,1.75-54.28,21.95-56.61,23.1v.29h-35.16v-.29c1.2-2.39,2.32-5.25,3.36-8.48,5.86,2.09,21.74,2.43,26.4,1.26,4.65-1.16,40.14-11.04,58.19-24.8l4,8.84Z"/><path class="cls-42" d="M258.94,280.18l1.11,2.44c-18.05,13.76-53.54,23.64-58.19,24.8-4.66,1.17-20.54,.83-26.4-1.26,.53-1.64,1.05-3.37,1.54-5.18,12.54,5.44,35.58-3.03,47.47-6.94,11.89-3.9,34.47-13.86,34.47-13.86Z"/><path class="cls-49" d="M256.81,101.94v3.22l-23.56,5.49-.8-18.19s-.09-.26-.27-.77l10.42-2.5,1.65-7.42,12.56,20.17Z"/><path class="cls-49" d="M252.64,58.14c1.63,6.82,2.5,12.55,1.65,14.92l-7.98,2.44s-4.55-7.31-5.1-15.07l11.43-2.29Z"/><path class="cls-49" d="M251.98,55.46l-11.49,1.92s-6.7-28.88-11.86-32.81l12.58-3.51s6.86,19.1,10.77,34.4Z"/><path class="cls-49" d="M242.1,79.54l-1.28,7.94-9.35,2.21c-.73-2.02-1.81-5.09-3.18-8.94,0,0,3.11,1.34,13.81-1.21Z"/><path class="cls-49" d="M240.18,17.86l-14.52,3.95-11.69-9.27s-5.77-16.48-14.58-21.28c0,0,10.62-8.56,30.4-8.9,0,0,8.48,23.95,10.39,35.5Z"/><path class="cls-49" d="M236.08,60.92c1.69,8.24,4.58,14.78,5.13,15.86,0,0-10.5,2.84-13.81,1.45-2.56-7.22-5.9-16.65-9.55-27.03l13.94-4.52s2.77,6.81,4.29,14.24Z"/><path class="cls-49" d="M238.73,148.18l-28.31,.83-6.32-14.73c-.96-2.57-1.46-4.13-1.96-6.8-.47-2.46-.42-5.61,1.13-6.56l25.69-5.73,.33,9.92s4.12,10.1,9.44,23.07Z"/><path class="cls-49" d="M230.9,44.36l-13.86,4.57c-1.11-3.17-2.25-6.42-3.41-9.71l1.11-.34,12.72-3.95s1.17,1.55,2.07,4.29c.91,2.8,1.37,5.14,1.37,5.14Z"/><path class="cls-49" d="M227.8,94.51l.83,17.13-19.84,4.49s-1.17,1.27-2.39-4.71l-1.77-9.09s-3.82-.35-7.59,.37c0,0-1.17-2.64-1.5-5.08l-2.49-10.75-2.55,.61,3.82,16.79s.16,.66,1.11,1l-.55,1.44-2.33,.27,1.66,11.92-31.42,6.87-7.43-32.48,11.08-2.38-.88-3.43-10.89,2.43-1.84-8.37,27.05-5.22c4.24,3.08,10.17,2.29,10.17,2.29,.34,4.33,2.83,3.88,2.83,3.88,27.43-4.16,29.92-2.49,29.92-2.49l3.34,9.69-14.47,2.77,.66,2.77,14.64-3.1h.01l.82,2.38Z"/><polygon class="cls-41" points="226.14 89.69 226.98 92.13 226.97 92.13 212.33 95.23 211.67 92.46 226.14 89.69"/><path class="cls-49" d="M226.47,32.38l-12.84,3.82-.99,.22c-.88-2.51-1.85-5.27-2.73-7.81l.78-.17,11.12-2.76s2.38,.63,4.66,6.7Z"/><path class="cls-49" d="M214.26,55.23l6.11,17.72s-13.27,.42-18.73-2.57c0,0-2.47-4.82-2.39-9.45l15.01-5.7Z"/><path class="cls-49" d="M219.79,23.62l-9.64,2.41-1.08,.21c-2.94-8.4-5.85-16.77-8.55-24.58,0,0,5.5,6.06,7.41,12.71l11.86,9.25Z"/><polygon class="cls-49" points="205.48 29.73 213.45 52.87 212.26 53.27 198.59 58.14 192.88 33.41 204.54 30.01 205.48 29.73"/><path class="cls-49" d="M209.13,152.25c3.28,6.23,2.93,16.11,2.76,18.83-.03,.41-.36,.72-.77,.74l-3.32,.18c-.99-7.03-2.82-4.62-11.51-2.75-8.69,1.87-8.31,3.87-8.31,3.87l1.36,6.77-11.52,2.3-14-52.76,35.5-7.77c-2.57,6.98,9.81,30.59,9.81,30.59Z"/><path class="cls-49" d="M200.69,72.95c2.94,1.77,17.5,3.37,17.5,3.37,0,0-15.94,2.62-21.15,3.22s-4.77-.93-4.77-.93l-.27-4.45,8.69-1.21Z"/><path class="cls-49" d="M205.11,171.15c.38,1.43,.78,5.04,.7,11.07l-12.33,1.27s-1.1-2.65-1.2-3.03c-.42-1.64-.91-3.74-1.45-5.87-.11-.46,.16-.93,.62-1.05l12.68-3.45c.36-.1,.88,.7,.98,1.06Z"/><path class="cls-49" d="M205.35,116.68l-8.26,1.94-2.21-11.91,.55-1.44c.63,.22,1.6,.29,3.1-.06,0,0,3.77-.78,4.1-.55,.34,.22,1.83,10.53,2.72,12.02Z"/><path class="cls-49" d="M193.49-5.08l11.27,32.71-62.01,16.73L128.56,2.75s41.96-9.16,50.69-8.25c0,0-1.21,10.06,14.23,.42h.01Z"/><path class="cls-49" d="M196.59,61.45c-.05,3.55,2.66,9.29,2.66,9.29-8.97,.4-47.07,8.1-47.07,8.1l-2.18-7.99,46.59-9.4Z"/><polygon class="cls-49" points="190.5 34.22 196.38 58.77 184.63 61.14 179.69 37.15 190.5 34.22"/><path class="cls-49" d="M192.07,189.63l-11.49,2.73-2.11-7.77,11.42-2.37c1.33,1.91,2.18,7.41,2.18,7.41Z"/><path class="cls-49" d="M189.69,74.56l.07,1.79s-5.12,.23-6.58-.64l6.51-1.15Z"/><polygon class="cls-49" points="177.4 193.46 184.48 220.12 141.66 225.65 139.06 199.15 177.4 193.46"/><path class="cls-42" d="M138.4,228.97l45.75-5.68s-.13,1.82-.39,4.96c0,0-29.79,3.16-33.56,3.71v-.67c0-.5-.43-.89-.92-.83l-9.44,1.04c-.67,.07-1.28-.43-1.33-1.1l-.11-1.43Z"/><polygon class="cls-49" points="177.44 37.76 182.32 61.61 171.6 63.77 167.03 40.58 177.44 37.76"/><path class="cls-51" d="M183.76,228.25c-.79,9.54-2.79,31.24-6.07,50.97,0,0-7.17,2.76-18.15,2.85-8.4,.06-13.2,2.37-14.98,3.44-.42,.25-.45,.84-.07,1.13,2.49,1.97,10.48,8.26,12.23,9.31,2.07,1.25,11.74,7.93,15.24,9.07-.86,2.76-1.78,5.19-2.74,7.21,0,0-27.88-25.67-97.72-36.15,0,0-42.4-6.98-62.68-7.48-20.29-.5-35.97-5.65-51.49-21.45l-1.72,1.5c17.79,23.27,53.21,22.44,53.21,22.44,25.44,1.33,62.27,7.49,62.27,7.49,8.1,1.31,15.66,2.84,22.67,4.5,0,0-1.42,2.48-.53,5.08,.89,2.61-4.93,6.93-4.93,6.93-5.6-8.7-27.27-11.75-29.54-11.75s-24.56-3.05-25.78-3.55c-1.22-.49-12.69-.72-12.69-.72,0,0-.28,1.94,0,2.66s1.94,1.89,1.33,4.44-1.88,3.43-1.99,4.04-.39,5.99-.45,6.88c-.05,.88,.06,5.21-3.05,7.59-3.1,2.38-6.87,5.1-7.59,5.6s-4.49,2.51-5.71,4.36v.29H-.05v-.29s.39-1.76,8.2-6.14c7.82-4.37,8.82-7.09,9.43-9.09,.61-1.99,.99-15.9,.99-18.51s-2.16-3.77-2.99-4.43c-.83-.67-11.2-1.83-24.66-3.22-13.47-1.38-30.32-10.58-31.15-11.02-.83-.45-18.46-16.3-19.01-16.8-.56-.5-15.24-2.82-15.93-2.94-.69-.11-4.13-2.38-3.02-4.76,1.12-2.39,6.03-3.33,6.03-3.33,2.89-3.88,11.64-4.04,10.37-4.15-1.28-.11-4.03-2.55-4.03-2.55l.23-.67-3.88-1.58c-1.17-.48-9.13-8.32-11.74-11.16-.47-.5-1.25-.52-1.75-.05l-3.94,3.79-1.54-1.1,.03-.04,3.69-3.69c.75-.75,.78-1.94,.07-2.72-3-3.27-10.92-10.19-13.32-11.01-2.91-1-5.36-2.53-5.19-3.61,.16-1.09,.04-10.6-.25-11.27-.29-.66-5.66-2.95-3.25-4.2,.39-.2,.72-.39,1-.57,.92-.59,1.06-1.87,.32-2.69-1.24-1.37-3.05-3.76-3.19-6.17-.2-3.7-1.29-9.36-2.28-11.06-1-1.7-5.95-8.36-7.49-9.06-1.53-.71-.83-5.16-1.41-6.94-.58-1.79-3.57-1.96-6.19-2.79s-2.87-2.53-2.91-2.74,.16-2.75,0-3.99c-.17-1.25-1.37-1.62-2.95-3.25-1.58-1.62-6.7-1.91-7.73-2.2-1.04-.29-2.75-1.7-3.58-2.74s-7.27-6.2-8.4-5.95c-1.12,.25-6.9-2.16-6.9-2.16l-.83,1.46-1.91,1.41-1.68-1.01,1.68-2.81c-2.49,.12-7.61-2.54-8.15-3.12s-11.34-6.9-15.04-8.02c-3.7-1.13-7.15-3.66-7.15-3.66-2.96-4.03-23.92-12.42-23.92-12.42,0,0-2.99,4.94-3.44,6.32,0,0-1.03,1.36-1.09,2.11-.07,.75,1.25,5.15-3.28,12.8v-17.4c1.51-1.83,3.43-5.88,3.27-6.26-.17-.39-3.27-2-3.27-2v-11.75c1.9-.5,2.77,0,2.77,0,1.34,1.72,8.07,3.48,9.9,3.94,.3,.07,.62,.06,.92,0,3.43-.78,6.11-.5,7.57-.21,.7,.14,1.3,.62,1.51,1.3,2.09,6.58,6.62,8.52,8.64,9.06,.61,.17,1.1,.61,1.36,1.19,1.5,3.36,4.89,4.37,5.4,4.67,.42,.25,3.56-1.14,5.12-1.86,.53-.25,1.13-.26,1.69-.09,1.35,.39,2.06-.04,2.06-.04,.98-.43,1.79-.6,2.46-.6,2.27,0,2.91,2.06,3.08,3.37,.06,.49-.32,.91-.81,.9-.8,0-1.79,.15-1.79,.15-1.06,1.28,.66,2.22,.66,2.22-1.22,1.94,1.83,1.77,1.83,1.77,1.63-1.31,2.8-1.97,3.63-2.25,1-.33,1.98,.46,1.92,1.51-.06,.98,.13,2.5,1.55,3.68,1.3,1.08,3.09,.48,4.37-.23,.4-.22,.83-.33,1.27-.33,.69,0,1.37,.27,1.87,.79l1.61,1.64c.54,.56,1.29,.88,2.07,.88h2.35c.35,0,.7,.04,1.04,.14,8.1,2.41,18.82,8.12,21.41,9.54,.39,.21,.72,.48,.99,.82,2.06,2.55,11.53,14.12,18.22,20.11,2.24,2,4.09,4.21,5.59,6.32,2.5,3.53,4.03,6.79,4.72,8.43,.28,.66,.32,1.38,.13,2.06-1.14,3.98,.21,6.4,.31,6.92,.09,.43,7.82,11.69,12.75,18.92,1.38,2.02,2.54,3.73,3.25,4.8,3.26,4.87,10.38,9.2,30.01,26.27,18.72,16.27,41.67,22.12,43.78,22.63,.11,.03,.16,.04,.16,.04,1.19,.2,8.95,1.5,15.58,2.05v.64c0,.53,.4,.97,.93,1.01l33.47,2.43c.69,.05,1.31,.41,1.74,.94,3.02,3.78,10.64,2.64,13.62,2.02,.73-.15,1.28-.74,1.38-1.48l.51-3.98,2.22-.13v4.89c0,.93,.74,1.72,1.67,1.74,8.27,.16,22.6-3.69,27.41-5.06,.97-.28,1.63-1.16,1.63-2.16v-1.19l11.63-.67,1.61-.2,32.81-4.07,.11,1.43c.05,.67,.66,1.17,1.33,1.1l9.44-1.04c.49-.06,.92,.33,.92,.83v.67c3.77-.55,33.56-3.71,33.56-3.71ZM-156.45,108.23c1.41-.66,1.01-2.33,1.01-2.33,0,0-2.09-.26-2.09,1.37,0,1.27-.34,1.63,1.08,.96Zm-48.64-26.08c.17-.61-3.82-1.27-3.91,.39,0,0,1.09,2.08,2.08,1.42,1-.67,1.67-1.2,1.83-1.81Z"/><polygon class="cls-49" points="174.02 180.73 176.77 191.08 138.73 196.25 138.4 187.29 174.02 180.73"/><path class="cls-42" d="M177.69,279.22c-1.25,7.51-2.69,14.74-4.32,20.9-.23-.11-7.8-3.51-11.63-5.84-1.42-.86-3.26-.55-4.33,.72-.34,.39-.6,.74-.69,.95-1.75-1.05-9.74-7.34-12.23-9.31-.38-.29-.35-.88,.07-1.13,1.78-1.07,6.58-3.38,14.98-3.44,10.98-.09,18.15-2.85,18.15-2.85Z"/><polygon class="cls-49" points="163.07 139.47 173.25 177.8 137.46 184.13 113.74 184.74 112.63 149.72 135.99 148.88 163.07 139.47"/><path class="cls-42" d="M173.37,300.12c-.45,1.73-.92,3.36-1.4,4.9h0c-3.5-1.14-13.17-7.82-15.24-9.07,.09-.21,.35-.56,.69-.95,1.07-1.27,2.91-1.58,4.33-.72,3.83,2.33,11.4,5.73,11.63,5.84Z"/><polygon class="cls-49" points="164.77 41.19 169.5 64.19 149.3 68.26 143.5 46.96 164.77 41.19"/><path class="cls-42" d="M167.61,314.64v.29h-15.58v-.29c.17-1.07,3.27-8.23,3.27-8.23,8.34,4.84,12.31,8.23,12.31,8.23Z"/><polygon class="cls-49" points="159.88 127.44 162.46 137.19 134.8 146.33 112.24 147.06 109.52 139.74 110.41 130.01 137.76 130.01 159.88 127.44"/><path class="cls-49" d="M159.18,125.16l-20.45,2.28H73.5l-.09,2.57h5.46l-2.38,29.4-8.2,6.05h-15.02v1.6l2.38,1.06h8.35l-4.14,2.05v27.71l3.27,1.11-3.88,34.03-13.02,1.05-31.09-1.5c2.38-2.27,6.26-3.21,6.26-3.21,5.6-3.66-.31-5.88-.31-5.88l-1.64,.11-2.97,.19s-3.03-36.49,2.09-51.87c0,0,.12-1.19,.28-3.17,.62-7.53,1.89-26.48-.32-34.57,3.13,6.59,3.45,14.11,7.64,17.32,9.3,7.12,21.61-.11,21.61-.11l-1.47-2.54s-17.32,8.08-21.47-4.89c-3.25-10.13-4.37-13.85-8.79-18.17h-.01c-.2-.53-6.87-16.97-7.75-18.41,.53-1.93,1.19-5.19,1.33-5.9,.02-.09,.03-.14,.03-.14l4.61,.08c3.75,3.16,6.65,3.99,7.07-1.08s-4.2-3.49-4.2-3.49l-1.12-13.97c-2.87-2.28-2.37-9.31-2.37-9.31l-1.04-1.28-2.99,.16-4.86,4.03,.24,8.77,2.04,2.46-.29,2.32h-1.5l-9.27-17.16,47.43-14.22,15.96-.33,5.45,1.83,.48-.05,5.93-.63c1.34,6.22,2.84,9.85,4.09,11.95,1.09,1.84,3.27,2.71,5.33,2.13l14.25-4.02,6.21,21.39,2.33-.94-5.99-20.78,2.99-1.11h13.19l29.82-7.87,5.54,20.39c.89,6.99,10.2,44.56,10.2,44.56Z"/><path class="cls-42" d="M155.3,306.41s-3.1,7.16-3.27,8.23v.29h-3.27v-.29s2.99-7.75,4.71-9.27c.63,.35,1.24,.7,1.83,1.04Z"/><path class="cls-42" d="M153.47,305.37c-1.72,1.52-4.71,9.27-4.71,9.27v.29h-20.5v-.29s-12.09-11.62-20.73-17.22c-8.65-5.6-14.69-2.55-14.69-2.55,.11-.55,3.04-6.82,3.04-6.82-1.5-1.83,0-4.46,0-4.46,27.12,6.63,46.02,15.29,57.59,21.78Z"/><path class="cls-49" d="M142.75,57.6l-28.93,7.57-13.97,.33-19.37,5.49s-2.9,1.08-4.65-4.66c-1.85-6.05-13.89-53.29-19.96-71.41l29.43-6.15,35.47-9.07,.95,11.53s5.04,15.53,10.19,31.58l-17.51,5.74,5.78,17.25,3.2-.04,14.43-4.47c2.78,8.82,4.84,15.49,4.94,16.31Z"/><polygon class="cls-49" points="138.4 224.26 138.61 226.05 105.26 230.36 105.24 230.23 101.96 202.45 135.88 199.43 138.4 224.26"/><path class="cls-49" d="M137.07,38.97l-13.36,4.04h-1.79l-4.28-12.84,15.11-4.75c1.5,4.67,2.98,9.31,4.32,13.55Z"/><path class="cls-49" d="M135.4,187.6l.23,8.92-21.34,1.91s-.27-10.14-.27-10.31l21.38-.52Z"/><path class="cls-42" d="M128.26,314.64v.29h-48.33v-.29c4.65-5.34,8.86-13.95,8.86-13.95,1.78-.55,3.94-5.27,4.05-5.82,0,0,6.04-3.05,14.69,2.55,8.64,5.6,20.73,17.22,20.73,17.22Z"/><polygon class="cls-49" points="111.07 178.48 111.82 198.63 99.06 199.43 102.76 230.52 90.4 230.86 86.85 228.86 63.13 228.86 66.58 196.24 94.48 196.24 94.34 178.48 108.41 178.48 108.75 178.48 111.07 178.48"/><polygon class="cls-49" points="109.99 149.8 110.98 176.23 108.75 176.23 68.69 176.23 69.51 168.5 79.37 160.86 80.24 149.63 109.99 149.8"/><polygon class="cls-49" points="107.08 141.07 109.31 147.05 80.45 146.88 80.9 141.07 107.08 141.07"/><path class="cls-41" d="M108.75,176.23v2.25h-14.41l.14,17.76h-27.9l-3.45,32.62h23.72l3.55,2,12.36-.34,2.48-.29,.02,.13,.33,2.68-1.61,.2-11.63,.67-30.71,1.78-2.22,.13-10.97,.63-27.72-1.27s-3.71-.39-10.69-.78c-.73-.04-1.49-.1-2.27-.16-6.63-.55-14.39-1.85-15.58-2.05,0,0-.05-.01-.16-.04-1.91-.56-12.64-6.01-12.64-6.01l1.11-1.55,12.14,5.55c2.54,1.1,19.84,2.05,19.84,2.05,.69-.97,1.78-1.81,2.93-2.52,2.43-1.5,5.16-2.36,5.16-2.36,1.61-1.61-1-1.83-1-1.83l-.12-1.89,1.64-.11s5.91,2.22,.31,5.88c0,0-3.88,.94-6.26,3.21l31.09,1.5,13.02-1.05,3.88-34.03-3.27-1.11v-2.07h2.33l1.28,.43,2.35-20.34,2.87,.33h40.06Zm-16.99,17.16v-14.91h-23.31l-1.57,14.91h24.88Z"/><polygon class="cls-49" points="107.9 130.01 107.23 138.45 98.42 138.45 98.44 130.01 107.9 130.01"/><polygon class="cls-49" points="96.01 130.01 95.99 138.45 81.1 138.45 81.76 130.01 96.01 130.01"/><path class="cls-51" d="M95.88,283.59s-1.5,2.63,0,4.46c0,0-2.93,6.27-3.04,6.82s-2.27,5.27-4.05,5.82c0,0-4.21,8.61-8.86,13.95v.29h-2.55v-.29c8.64-9.22,10.92-19.55,10.92-19.55,0,0,5.82-4.32,4.93-6.93-.89-2.6,.53-5.08,.53-5.08,.72,.17,1.42,.34,2.12,.51Z"/><path class="cls-50" d="M92.35,233.91v1.19c0,1-.66,1.88-1.63,2.16-4.81,1.37-19.14,5.22-27.41,5.06-.93-.02-1.67-.81-1.67-1.74v-4.89l30.71-1.78Z"/><polygon class="cls-49" points="91.76 178.48 91.76 193.39 66.88 193.39 68.45 178.48 91.76 178.48"/><path class="cls-42" d="M88.3,295.09s-2.28,10.33-10.92,19.55v.29H2.83v-.29c1.22-1.85,4.99-3.86,5.71-4.36s4.49-3.22,7.59-5.6c3.11-2.38,3-6.71,3.05-7.59,.06-.89,.34-6.27,.45-6.88s1.38-1.49,1.99-4.04-1.05-3.72-1.33-4.44,0-2.66,0-2.66c0,0,11.47,.23,12.69,.72,1.22,.5,23.5,3.55,25.78,3.55s23.94,3.05,29.54,11.75Z"/><path class="cls-49" d="M70.75,57.19l-5.69,.74-5.57-2.16-16.21,.25L-6.52,70.86l-9.13,9.98c-.36-.25-7.61-4.98-32.06-2.95,0,0-15.3,.07-19.29-7.62,1.37-1.39,2.38-2.33,2.38-2.33h5.6l31.09-10.84s-.99-11.97-8.48-19.7c0,0-5.54-8.23-5.05-11.64L-18.95,15.88s3.99,6.18,5.86,16.32l2.7,.46s-.99-5.65-5.23-17.46L37.25-1.26l15.88-3.07s14.34,46.94,17.62,61.52Z"/><polygon class="cls-49" points="66.56 169.54 65.82 175.9 63.47 196.24 62.19 195.81 62.4 171.79 66.56 169.54"/><path class="cls-41" d="M-15.65,80.84l9.13-9.98,49.8-14.84,16.21-.25,5.57,2.16,.23,2.16-.48,.05-5.45-1.83-15.96,.33L-4.03,72.86l9.27,17.16h1.5l.29-2.32-2.04-2.46-.24-8.77,4.86-4.03,2.99-.16,1.04,1.28s-.5,7.03,2.37,9.31l1.12,13.97s4.62-1.58,4.2,3.49-3.32,4.24-7.07,1.08l-4.61-.08s0,.05-.03,.14l-2.13-.47-13.76-26.77-7.02,7.92h0l-9.22,10.41-2.06-.4,.39-1.97,8.54-9.35Zm33.23,20.44c.52-.06,1.88-.74,1.24-2.17-.5-1.1-1.63-.19-1.63-.19l-.15,.14c-.62,.63-.54,1.73,.24,2.14,.11,.06,.21,.08,.3,.08Zm-2.89-2.36l-.54-9.75-.95,.8-4.38,1.61-.64,3.4,1.78,4.08,4.73-.14Zm-.8-13.09l-.22-1.65s-2.52-.97-2.65-9.2l-3.86,2.2,.2,7.19,1.87,2.83v1.7l2.08-.87,2.58-2.2Z"/><path class="cls-50" d="M59.42,235.82l-.51,3.98c-.1,.74-.65,1.33-1.38,1.48-2.98,.62-10.6,1.76-13.62-2.02-.43-.53-1.05-.89-1.74-.94l-33.47-2.43c-.53-.04-.93-.48-.93-1.01v-.64c.78,.06,1.54,.12,2.27,.16,6.98,.39,10.69,.78,10.69,.78l27.72,1.27,10.97-.63Z"/><path class="cls-41" d="M46.31,148.84l1.47,2.54s-12.31,7.23-21.61,.11c-4.19-3.21-4.51-10.73-7.64-17.32,0-.01-.01-.02-.01-.03-.22-.47-.46-.93-.71-1.38-3.25-5.87-9.45-9.52-9.45-9.52,0,0-7.01-5.95-8.44-11.27-1.16-4.35,6.36-6.03,6.36-6.03l1.21-4.94,2.13,.47c-.14,.71-.8,3.97-1.33,5.9-.12,.46-.24,.85-.34,1.11,0,0-7.07,.83-4.37,5.32,0,0,3.29,4.62,4.74,5.7,3.42,2.54,5.86,4.46,7.72,6.27h.01c4.42,4.33,5.54,8.05,8.79,18.18,4.15,12.97,21.47,4.89,21.47,4.89Z"/><path class="cls-49" d="M34.37-2.53L-17.29,13.04l-5.37-7.65-.84-7.17L22.73-13.51C28.99-3.7,34.37-2.53,34.37-2.53Z"/><path class="cls-49" d="M21.01-15.67L-26.87-3.59l1.31,9.24-4.52,.59-1.56-7.12-6.32-28.81C-19-33.51-2.54-43.49-2.54-43.49l6.76-3.35c2.1,7.8,16.79,31.17,16.79,31.17Z"/><path class="cls-47" d="M19.57,225.48s2.61,.22,1,1.83c0,0-2.73,.86-5.16,2.36,0,0,.65-3.1,.65-3.83,1.14-.09,2.31-.21,3.51-.36Z"/><path class="cls-47" d="M18.82,99.11c.64,1.43-.72,2.11-1.24,2.17-.09,0-.19-.02-.3-.08-.78-.41-.86-1.51-.24-2.14l.15-.14s1.13-.91,1.63,.19Z"/><path class="cls-42" d="M18.53,134.17c2.21,8.09,.94,27.04,.32,34.57l-.8-.07c-.17-1.75-14.14-41.82-20.7-45.23-6.57-3.4-42.53,2.04-42.53,2.04-7.23-3.03-18.58-18.83-19.24-19.58l6.15-2.49,28.56-12.26,5.13,1.01,2.06,.4,9.22-10.41h0c9.89,2.79,19.57,23.79,19.57,23.79,0,0-7.52,1.68-6.36,6.03,1.43,5.32,8.44,11.27,8.44,11.27,0,0,6.2,3.65,9.45,9.52,.25,.45,.49,.91,.71,1.38,0,.01,.01,.02,.01,.03Z"/><path class="cls-47" d="M18.05,168.67l.8,.07c-.16,1.98-.28,3.17-.28,3.17-5.12,15.38-2.09,51.87-2.09,51.87l-1.84,.12c-5.21-49.58,3.41-55.23,3.41-55.23Z"/><path class="cls-42" d="M18.57,280.9c0,2.61-.38,16.52-.99,18.51-.61,2-1.61,4.72-9.43,9.09C.34,312.88-.05,314.64-.05,314.64v.29H-116.13v-.29s12.22-10.87,8.39-23.51c0,0-1.65-21.41,.72-24.4,2.03-2.55,4.55-12.93,4.55-12.93,0,0,6.28-10.36,8.64-13.41,3.36-4.32,3.5-18.98,3.5-18.98l.46-.46c1.51,4.4,7.46,8.24,7.46,8.24,6.82,1.61,10.25,5.21,10.25,5.21,0,0-4.91,.94-6.03,3.33-1.11,2.38,2.33,4.65,3.02,4.76,.69,.12,15.37,2.44,15.93,2.94,.55,.5,18.18,16.35,19.01,16.8,.83,.44,17.68,9.64,31.15,11.02,13.46,1.39,23.83,2.55,24.66,3.22,.83,.66,2.99,1.83,2.99,4.43Z"/><polygon class="cls-49" points="14.15 89.17 14.69 98.92 9.96 99.06 8.18 94.98 8.82 91.58 13.2 89.97 14.15 89.17"/><path class="cls-42" d="M15.41,167.84s-2.93,3.82-3.99,13.13l-4.43-2.27H-5.43s-6.31,3.55-7.92,3.55-18.18-8.09-18.18-8.09l3.73-12.64-13.76-29.15-1.11-5.32s36.36-4.43,39.24-1.66c4.07,3.91,18.18,38.02,18.84,42.45Z"/><path class="cls-49" d="M13.67,84.18l.22,1.65-2.58,2.2-2.08,.87v-1.7l-1.87-2.83-.2-7.19,3.86-2.2c.13,8.23,2.65,9.2,2.65,9.2Z"/><path class="cls-49" d="M8.29,107.37c.88,1.44,7.55,17.88,7.75,18.4-1.86-1.81-4.3-3.73-7.72-6.27-1.45-1.08-4.74-5.7-4.74-5.7-2.7-4.49,4.37-5.32,4.37-5.32,.1-.26,.22-.65,.34-1.11Z"/><path class="cls-42" d="M-1.31,201.15c-.03,1.22,.17,3.83,2.15,5.49,1.05,.87,2.27,2.04,4.99,3.27l5.4,.5c.27,6.26,.7,11.46,1.25,13.3,0,0-21.18,2.55-33.09-10.81,0,0,17.28-12.73,19.16-17.86l-.04-14.07H7.65l3.61,1.78c-.45,5.99-.44,16.63-.11,25.66l-5.16-.44s-5.76-2.66-5.6-6.77l-1.7-.05Z"/><path class="cls-49" d="M-6.27,74.23l13.76,26.77-1.21,4.94s-9.68-21-19.57-23.79l7.02-7.92Z"/></g><g><path class="cls-10" d="M171.96,305.02c-.86,2.76-1.78,5.19-2.74,7.21,0,0-27.88-25.67-97.72-36.15,0,0-42.4-6.98-62.68-7.48-20.29-.5-35.97-5.65-51.49-21.45l-1.72,1.5c17.79,23.27,53.21,22.44,53.21,22.44,25.44,1.33,62.27,7.49,62.27,7.49,8.1,1.31,15.66,2.84,22.67,4.5,.72,.17,1.42,.34,2.12,.51,27.12,6.63,46.02,15.29,57.59,21.78,.63,.35,1.24,.7,1.83,1.04,8.34,4.84,12.31,8.23,12.31,8.23"/><path class="cls-10" d="M-7.81,232.19c1.19,.2,8.95,1.5,15.58,2.05,.78,.06,1.54,.12,2.27,.16,6.98,.39,10.69,.78,10.69,.78l27.72,1.27,10.97-.63,2.22-.13,30.71-1.78,11.63-.67,1.61-.2,32.81-4.07,45.75-5.68s-.13,1.82-.39,4.96c-.79,9.54-2.79,31.24-6.07,50.97-1.25,7.51-2.69,14.74-4.32,20.9-.45,1.73-.92,3.36-1.4,4.9"/><path class="cls-10" d="M-84.07,137.51h0c.13,0,4.27,6.66,4.27,6.66l1.83,8.43s7.48,9.09,8.97,9.81c0,0-2.32,1.33-.27,6.04s3.88,5.6,6.04,6.04,27.32,4.05,27.32,4.05c-2,8.68-.61,16,2,21.81l-1.79,.29c-3.7,.58-6.36-4.37-6.36-4.37l-1.04,1.83c2.7,6.07,10.09,4.11,10.09,4.11,4.8,9.24,12.4,14.18,12.4,14.18,0,0,10.75,11.6,36.67,9.45,1.14-.09,2.31-.21,3.51-.36,0,0,2.61,.22,1,1.83,0,0-2.73,.86-5.16,2.36-1.15,.71-2.24,1.55-2.93,2.52,0,0-17.3-.95-19.84-2.05l-12.14-5.55-1.11,1.55s10.73,5.45,12.64,6.01"/><path class="cls-10" d="M34.37-2.53s-5.38-1.17-11.64-10.98L-23.5-1.78l.84,7.17,5.37,7.65L34.37-2.53Z"/><path class="cls-10" d="M-30.08,6.24l4.52-.59-1.31-9.24L21.01-15.67S6.32-39.04,4.22-46.84l-6.76,3.35s-16.46,9.98-35.42,13.8L-31.64-.88l1.56,7.12Z"/><path class="cls-10" d="M65.06,57.93l5.69-.74c-3.28-14.58-17.62-61.52-17.62-61.52l-15.88,3.07L-15.62,15.2c4.24,11.81,5.23,17.46,5.23,17.46l-2.7-.46c-1.87-10.14-5.86-16.32-5.86-16.32l-22.51,9.88c-.49,3.41,5.05,11.64,5.05,11.64,7.49,7.73,8.48,19.7,8.48,19.7l-31.09,10.84h-5.6s-1.01,.94-2.38,2.33c-2.8,2.85-7.13,7.56-7.43,9.86-.34,2.62,5.28,15.81,8.25,22.24,0,0,4.79-.87,6-1.33l29.63-12.39,6.36,1.54,8.54-9.35,9.13-9.98,49.8-14.84,16.21-.25,5.57,2.16Z"/><path class="cls-10" d="M-42.67,127.05s36.36-4.43,39.24-1.66c4.07,3.91,18.18,38.02,18.84,42.45,0,0-2.93,3.82-3.99,13.13l-4.43-2.27H-5.43s-6.31,3.55-7.92,3.55-18.18-8.09-18.18-8.09l3.73-12.64-13.76-29.15-1.11-5.32Z"/><path class="cls-10" d="M1.78,194.22s.22,3.27-3.05,6.26c0,0-.04,.26-.04,.67-.03,1.22,.17,3.83,2.15,5.49,1.05,.87,2.27,2.04,4.99,3.27l5.4,.5c.27,6.26,.7,11.46,1.25,13.3,0,0-21.18,2.55-33.09-10.81,0,0,17.28-12.73,19.16-17.86l-.04-14.07H7.65l3.61,1.78c-.45,5.99-.44,16.63-.11,25.66l-5.16-.44s-5.76-2.66-5.6-6.77c0,0,3.16-2.88,3.39-6.92"/><polygon class="cls-10" points="162.46 137.19 159.88 127.44 137.76 130.01 110.41 130.01 109.52 139.74 112.24 147.06 134.8 146.33 162.46 137.19"/><polygon class="cls-10" points="96.01 130.01 81.76 130.01 81.1 138.45 95.99 138.45 96.01 130.01"/><polygon class="cls-10" points="98.42 138.45 107.23 138.45 107.9 130.01 98.44 130.01 98.42 138.45"/><polygon class="cls-10" points="108.75 178.48 108.41 178.48 94.34 178.48 94.48 196.24 66.58 196.24 63.13 228.86 86.85 228.86 90.4 230.86 102.76 230.52 99.06 199.43 111.82 198.63 111.07 178.48 108.75 178.48"/><polygon class="cls-10" points="66.88 193.39 68.45 178.48 91.76 178.48 91.76 193.39 66.88 193.39"/><polygon class="cls-10" points="68.69 176.23 69.51 168.5 79.37 160.86 80.24 149.63 109.99 149.8 110.98 176.23 108.75 176.23 68.69 176.23"/><polygon class="cls-10" points="80.9 141.07 80.45 146.88 109.31 147.05 107.08 141.07 80.9 141.07"/><polygon class="cls-10" points="173.25 177.8 163.07 139.47 135.99 148.88 112.63 149.72 113.74 184.74 137.46 184.13 173.25 177.8"/><polygon class="cls-10" points="176.77 191.08 174.02 180.73 138.4 187.29 138.73 196.25 176.77 191.08"/><polygon class="cls-10" points="141.66 225.65 184.48 220.12 177.4 193.46 139.06 199.15 141.66 225.65"/><path class="cls-10" d="M137.81,41.29c2.78,8.82,4.84,15.49,4.94,16.31l-28.93,7.57-13.97,.33-19.37,5.49s-2.9,1.08-4.65-4.66c-1.85-6.05-13.89-53.29-19.96-71.41l29.43-6.15,35.47-9.07,.95,11.53s5.04,15.53,10.19,31.58l-17.51,5.74,5.78,17.25,3.2-.04,14.43-4.47Z"/><path class="cls-10" d="M137.07,38.97c-1.34-4.24-2.82-8.88-4.32-13.55l-15.11,4.75,4.28,12.84h1.79l13.36-4.04Z"/><path class="cls-10" d="M11.02,74.98l-3.86,2.2,.2,7.19,1.87,2.83v1.7l2.08-.87,2.58-2.2-.22-1.65s-2.52-.97-2.65-9.2Z"/><polygon class="cls-10" points="13.2 89.97 8.82 91.58 8.18 94.98 9.96 99.06 14.69 98.92 14.15 89.17 13.2 89.97"/><path class="cls-10" d="M17.19,98.92l-.15,.14c-.62,.63-.54,1.73,.24,2.14,.11,.06,.21,.08,.3,.08,.52-.06,1.88-.74,1.24-2.17-.5-1.1-1.63-.19-1.63-.19Z"/><path class="cls-10" d="M257.73,181.08c3.05,7.11,5.63,13.08,7.92,18.38,0,0,1.77-6.22,.27-19.68-.02-.23-.24-.39-.46-.34l-7.73,1.64Z"/><path class="cls-10" d="M266.85,177.63l-9.57,2.11c-10.56-24.62-22.99-54.02-22.9-55.74l-.35-8.48,27.87-6.35s-.41,16.96,5.49,34.58l13.55,42.82,.49,25.65-9.6,1.21s-1.53-3.52-3.98-9.16c0,0,1.87-4.52,1.7-14.33-.13-7.37-.53-10.43-.73-11.49-.09-.49-.48-.87-.98-.91-.25-.02-.58,0-.99,.09Z"/><path class="cls-10" d="M182.24-6.99c-.81,3.31,1.5,3.15,1.5,3.15,9.22-.24,8.1-6.02,8.1-6.02,0,0-3.62-3.2-4.86-6.86-1.25-3.66-8.32-8.48-8.32-8.48-4.82-3.33-5.81-9.27-5.81-9.27-15.86,3.35-45.54,9.5-49.22,9.44l1,16.26L127.62,0s56.12-13.14,54.62-6.98Z"/><path class="cls-10" d="M211.79,151.92c1.96,2.91,4.53,21.4,.6,22.13l-4.24,.28,.47,10.14-14.53,1.44s.36,1.4,.43,1.67c.45,1.67,.8,3.65,.8,3.65l-13.41,3.96,5.64,21.22,64.52-1.68,13.98-1.76c-2.09-3.61-16.1-37.45-26.2-62.06l-28.06,1.01Z"/><path class="cls-10" d="M203.27,120.92c-1.55,.95-1.6,4.1-1.13,6.56,.5,2.67,1,4.23,1.96,6.8l6.32,14.73,28.31-.83c-5.32-12.97-9.44-23.07-9.44-23.07l-.33-9.92-25.69,5.73Z"/><path class="cls-10" d="M195.43,105.27c-.95-.34-1.11-1-1.11-1l-3.82-16.79,2.55-.61,2.49,10.75c.33,2.44,1.5,5.08,1.5,5.08,3.77-.72,7.59-.37,7.59-.37l1.77,9.09c1.22,5.98,2.39,4.71,2.39,4.71l19.84-4.49-.83-17.13-.82-2.38-.84-2.44-3.34-9.69s-2.49-1.67-29.92,2.49c0,0-2.49,.45-2.83-3.88,0,0-5.93,.79-10.17-2.29l-27.05,5.22,1.84,8.37,10.89-2.43,.88,3.43-11.08,2.38,7.43,32.48,31.42-6.87-1.66-11.92,2.33-.27,2.21,11.91,8.26-1.94c-.89-1.49-2.38-11.8-2.72-12.02-.33-.23-4.1,.55-4.1,.55-1.5,.35-2.47,.28-3.1,.06Z"/><path class="cls-10" d="M199.25,60.93c-.08,4.63,2.39,9.45,2.39,9.45,5.46,2.99,18.73,2.57,18.73,2.57l-6.11-17.72-15.01,5.7Z"/><path class="cls-10" d="M199.39-8.74s10.62-8.56,30.4-8.9c0,0,8.48,23.95,10.39,35.5l-14.52,3.95-11.69-9.27s-5.77-16.48-14.58-21.28Z"/><path class="cls-10" d="M355.64,6.81s-5.47,.08-8.13,0c-2.66-.09-4.74-2.17-4.74-2.17l-.41-9.56s-3.99-.25-7.32-.91c-3.32-.67-3.49-2.99-3.49-2.99l-1.16-10.15-7.36,1.12,1.79,15.84s4.49,.25,7.39,.09c2.91-.17,2.83,1.99,2.83,1.99v7.98s-18.04-.41-18.87-1.24c-.83-.84-2.33-4.24-3.08-4.53-.74-.3-8.48,1.7-10.89-.88-2.41-2.57,0-6.23,0-6.23-2.08-1.17-5.23,1.16-5.82,1.49-.58,.34-10.64,2.33-12.83,1.5s-1.47-6.57-1.47-6.57c1.42-.91,13.39-3.57,13.39-3.57l1.38-3.27-12.08,.94s-12.91,3.91-14.66,5.07c0,0-31.21,9.15-31.73,9.15l4.46,16.96s6.49,.41,10.65,9.89l23.11,1.33,21.03,2.74,.08-9.64s0-1.91,6.57-1.91,6.82,1.66,6.82,1.66c0,0,2.09,5.15-1.53,7.07l-9.61,.08,.16,3.41,13.56,.91s.49-3.74,5.07-3.66c4.57,.09,6.05,4.66,6.05,4.66,0,0,12.77-4.32,30.84-3.74"/><path class="cls-10" d="M293.96,100.52l8.49,19.52-36.07,10.37s-3.06-12.95-2.48-22.76l30.06-7.13Z"/><path class="cls-10" d="M266.95,133.01l36.58-10.56,9.4,43.73-12.64,2.49s-.91-1.41-1.25-4.66c-.33-3.24-1.49-3.15-1.49-3.15l-20.37,4.73s-7.15-19.2-10.23-32.58Z"/><path class="cls-10" d="M355.64,206.58l-5.72-3.11-65.92,11.92-.56,.07-2.79,.35-30.07,3.74-62.63,1.67s-.15,2.62-.48,7.03c-.8,10.55-2.62,31.32-5.84,50.66-1.3,7.85-2.84,15.47-4.63,22.07-.49,1.81-1.01,3.54-1.54,5.18-1.04,3.23-2.16,6.09-3.36,8.48"/><path class="cls-10" d="M244.02,21.06s5.23,1.13,6.97,9.02l26.44,1.71v3.92l-25.61,8.65-7.8-23.3Z"/><polygon class="cls-10" points="280.49 31.91 296.52 33.82 295.72 62.01 291.56 62.01 286.74 46.92 278.01 46.92 275.52 39.84 280.59 37.65 280.49 31.91"/><polygon class="cls-10" points="288.53 62.01 285.04 49.7 276.76 49.7 273.4 40.48 252.75 47.03 255.43 56.61 271.4 51.45 275.81 64.5 283.17 62.22 288.53 62.01"/><polygon class="cls-10" points="256.15 59.43 257.89 70.13 273.31 65.27 269.8 55 256.15 59.43"/><path class="cls-10" d="M241.21,60.43c.55,7.76,5.1,15.07,5.1,15.07l7.98-2.44c.85-2.37-.02-8.1-1.65-14.92l-11.43,2.29Z"/><path class="cls-10" d="M241.21,21.06s6.86,19.1,10.77,34.4l-11.49,1.92s-6.7-28.88-11.86-32.81l12.58-3.51Z"/><path class="cls-10" d="M232.18,91.69c.18,.51,.27,.77,.27,.77l.8,18.19,23.56-5.49v-3.22l-12.56-20.17-1.65,7.42-10.42,2.5Z"/><path class="cls-10" d="M217.04,48.93c.27,.76,.54,1.52,.81,2.27,3.65,10.38,6.99,19.81,9.55,27.03,.31,.88,.6,1.72,.89,2.52,1.37,3.85,2.45,6.92,3.18,8.94,.3,.86,.54,1.54,.71,2"/><path class="cls-10" d="M217.04,48.93l13.86-4.57s-.46-2.34-1.37-5.14c-.9-2.74-2.07-4.29-2.07-4.29l-12.72,3.95-1.11,.34c1.16,3.29,2.3,6.54,3.41,9.71Z"/><path class="cls-10" d="M188.88-18.44l2.96,8.58,1.65,4.78,11.27,32.71-62.01,16.73L128.56,2.75s41.96-9.16,50.69-8.25c0,0-1.21,10.06,14.23,.42"/><polygon class="cls-10" points="205.48 29.73 213.45 52.87 212.26 53.27 198.59 58.14 192.88 33.41 204.54 30.01 205.48 29.73"/><path class="cls-10" d="M217.84,51.2h.01l13.94-4.52s2.77,6.81,4.29,14.24c1.69,8.24,4.58,14.78,5.13,15.86,0,0-10.5,2.84-13.81,1.45"/><path class="cls-10" d="M209.91,28.61c.88,2.54,1.85,5.3,2.73,7.81l.99-.22,12.84-3.82c-2.28-6.07-4.66-6.7-4.66-6.7l-11.12,2.76-.78,.17Z"/><path class="cls-10" d="M200.52,1.66c2.7,7.81,5.61,16.18,8.55,24.58l1.08-.21,9.64-2.41-11.86-9.25c-1.91-6.65-7.41-12.71-7.41-12.71Z"/><path class="cls-10" d="M196.57-9.83c1.24,3.63,2.56,7.49,3.95,11.49"/><path class="cls-10" d="M228.29,80.75s3.11,1.34,13.81-1.21l-1.28,7.94-9.35,2.21"/><polyline class="cls-10" points="226.97 92.13 212.33 95.23 211.67 92.46 226.14 89.69"/><polygon class="cls-10" points="247.47 77.94 255.9 75.17 265.26 99.28 265.37 103.35 262.12 104.05 261.94 100.89 247.47 77.94"/><path class="cls-10" d="M284.72,90.14c-7.26,1.33-16.91,9.36-16.91,9.36l.12,3.33,26.04-5.66,.92-20.5s-.02-.02-.04-.01l-10.13,13.48Z"/><path class="cls-10" d="M258.06,72.51l15.93-4.79,7.36,20.48s-10.56,5.08-13.47,8.03c-.25,.26-.68,.18-.8-.16l-9.02-23.56Z"/><path class="cls-10" d="M218.19,76.32s-14.56-1.6-17.5-3.37l-8.69,1.21,.27,4.45s-.44,1.53,4.77,.93,21.15-3.22,21.15-3.22Z"/><path class="cls-10" d="M196.59,61.45c-.05,3.55,2.66,9.29,2.66,9.29-8.97,.4-47.07,8.1-47.07,8.1l-2.18-7.99,46.59-9.4Z"/><polygon class="cls-10" points="169.5 64.19 149.3 68.26 143.5 46.96 164.77 41.19 169.5 64.19"/><polygon class="cls-10" points="171.6 63.77 182.32 61.61 177.44 37.76 167.03 40.58 171.6 63.77"/><polygon class="cls-10" points="184.63 61.14 196.38 58.77 190.5 34.22 179.69 37.15 184.63 61.14"/><path class="cls-10" d="M183.18,75.71l6.51-1.15,.07,1.79s-5.12,.23-6.58-.64Z"/><path class="cls-10" d="M189.89,182.22c1.33,1.91,2.18,7.41,2.18,7.41l-11.49,2.73-2.11-7.77,11.42-2.37Z"/><path class="cls-10" d="M209.13,152.25c3.28,6.23,2.93,16.11,2.76,18.83-.03,.41-.36,.72-.77,.74l-3.32,.18c-.99-7.03-2.82-4.62-11.51-2.75-8.69,1.87-8.31,3.87-8.31,3.87l1.36,6.77-11.52,2.3-14-52.76,35.5-7.77c-2.57,6.98,9.81,30.59,9.81,30.59Z"/><path class="cls-10" d="M192.28,180.46c-.42-1.64-.91-3.74-1.45-5.87-.11-.46,.16-.93,.62-1.05l12.68-3.45c.36-.1,.88,.7,.98,1.06,.38,1.43,.78,5.04,.7,11.07l-12.33,1.27s-1.1-2.65-1.2-3.03Z"/><path class="cls-10" d="M114.02,188.12c0,.17,.27,10.31,.27,10.31l21.34-1.91-.23-8.92-21.38,.52Z"/><polygon class="cls-10" points="105.24 230.23 101.96 202.45 135.88 199.43 138.4 224.26 138.61 226.05 105.26 230.36 105.24 230.23"/><path class="cls-10" d="M-13.3,82.15l-9.22,10.41-2.06-.4-5.13-1.01-28.56,12.26-6.15,2.49c.66,.75,12.01,16.55,19.24,19.58,0,0,35.96-5.44,42.53-2.04,6.56,3.41,20.53,43.48,20.7,45.23,0,0-8.62,5.65-3.41,55.23l1.84-.12,2.97-.19,1.64-.11s5.91,2.22,.31,5.88c0,0-3.88,.94-6.26,3.21l31.09,1.5,13.02-1.05,3.88-34.03-3.27-1.11v-27.71l4.14-2.05h-8.35l-2.38-1.06v-1.6h15.02l8.2-6.05,2.38-29.4h-5.46l.09-2.57h65.23l20.45-2.28s-9.31-37.57-10.2-44.56l-5.54-20.39-29.82,7.87h-13.19l-2.99,1.11,5.99,20.78-2.33,.94-6.21-21.39-14.25,4.02c-2.06,.58-4.24-.29-5.33-2.13-1.25-2.1-2.75-5.73-4.09-11.95l-5.93,.63-.48,.05-5.45-1.83-15.96,.33L-4.03,72.86l9.27,17.16h1.5l.29-2.32-2.04-2.46-.24-8.77,4.86-4.03,2.99-.16,1.04,1.28s-.5,7.03,2.37,9.31l1.12,13.97s4.62-1.58,4.2,3.49-3.32,4.24-7.07,1.08l-4.61-.08s0,.05-.03,.14c-.14,.71-.8,3.97-1.33,5.9-.12,.46-.24,.85-.34,1.11,0,0-7.07,.83-4.37,5.32,0,0,3.29,4.62,4.74,5.7,3.42,2.54,5.86,4.46,7.72,6.27"/><path class="cls-10" d="M18.52,134.14c-.22-.47-.46-.93-.71-1.38-3.25-5.87-9.45-9.52-9.45-9.52,0,0-7.01-5.95-8.44-11.27-1.16-4.35,6.36-6.03,6.36-6.03l1.21-4.94-13.76-26.77-7.02,7.92"/><path class="cls-10" d="M16.05,125.78c4.42,4.32,5.54,8.04,8.79,18.17,4.15,12.97,21.47,4.89,21.47,4.89l1.47,2.54s-12.31,7.23-21.61,.11c-4.19-3.21-4.51-10.73-7.64-17.32"/><polygon class="cls-10" points="65.82 175.9 66.56 169.54 62.4 171.79 62.19 195.81 63.47 196.24 65.82 175.9"/><path class="cls-10" d="M221.64,314.64c17.13-7.08,50.72-4.81,50.72-4.81l-8.31-18.37-4-8.84-1.11-2.44,2.33-1.27,1.08,2.34,4.29,9.33,9.04,19.64s26.38,2.02,33.53,4.42"/><path class="cls-16" d="M280.65,215.81s-7.18,4.96-28.91,6.23c-21.35,1.26-38.73,3.04-57,3-.62,0-1.21,.26-1.61,.73l-1.52,1.72c-.42,.48-1.04,.76-1.69,.76h-2.46"/><path class="cls-16" d="M183.76,228.25s-29.79,3.16-33.56,3.71v-.67c0-.5-.43-.89-.92-.83l-9.44,1.04c-.67,.07-1.28-.43-1.33-1.1l-.11-1.43"/><path class="cls-16" d="M92.35,233.91v1.19c0,1-.66,1.88-1.63,2.16-4.81,1.37-19.14,5.22-27.41,5.06-.93-.02-1.67-.81-1.67-1.74v-4.89"/><path class="cls-16" d="M59.42,235.82l-.51,3.98c-.1,.74-.65,1.33-1.38,1.48-2.98,.62-10.6,1.76-13.62-2.02-.43-.53-1.05-.89-1.74-.94l-33.47-2.43c-.53-.04-.93-.48-.93-1.01v-.64"/><path class="cls-16" d="M-72.16,234.4s-4.91,.94-6.03,3.33c-1.11,2.38,2.33,4.65,3.02,4.76,.69,.12,15.37,2.44,15.93,2.94,.55,.5,18.18,16.35,19.01,16.8,.83,.44,17.68,9.64,31.15,11.02,13.46,1.39,23.83,2.55,24.66,3.22,.83,.66,2.99,1.83,2.99,4.43s-.38,16.52-.99,18.51c-.61,2-1.61,4.72-9.43,9.09C.34,312.88-.05,314.64-.05,314.64"/><path class="cls-16" d="M2.83,314.64c1.22-1.85,4.99-3.86,5.71-4.36s4.49-3.22,7.59-5.6c3.11-2.38,3-6.71,3.05-7.59,.06-.89,.34-6.27,.45-6.88s1.38-1.49,1.99-4.04-1.05-3.72-1.33-4.44,0-2.66,0-2.66c0,0,11.47,.23,12.69,.72,1.22,.5,23.5,3.55,25.78,3.55s23.94,3.05,29.54,11.75c0,0-2.28,10.33-10.92,19.55"/><path class="cls-16" d="M93.76,283.08s-1.42,2.48-.53,5.08c.89,2.61-4.93,6.93-4.93,6.93"/><path class="cls-16" d="M95.88,283.59s-1.5,2.63,0,4.46c0,0-2.93,6.27-3.04,6.82s-2.27,5.27-4.05,5.82c0,0-4.21,8.61-8.86,13.95"/><path class="cls-16" d="M92.84,294.87s6.04-3.05,14.69,2.55c8.64,5.6,20.73,17.22,20.73,17.22"/><path class="cls-16" d="M148.76,314.64s2.99-7.75,4.71-9.27"/><path class="cls-16" d="M155.3,306.41s-3.1,7.16-3.27,8.23"/><path class="cls-16" d="M207.26,314.64c2.33-1.15,50.36-21.35,56.61-23.1"/><path class="cls-16" d="M266.64,290.58s43.05-12.59,49.03-12.5c5.99,.08,31.21,7.31,39.97,12.88"/><path class="cls-16" d="M355.64,288.22s-26.92-12.22-40.38-11.97c0,0-2.55-1.42-47.45,12.02,0,0,33.64-23.33,41.04-37.05,0,0,18.38-7.23,24.36-7.56,5.99-.33,20.82,.41,22.43,1.41"/><path class="cls-16" d="M272.86,237.76s3.07,.91,4.73,0c1.67-.92-4.73-1.25-4.73,0Z"/><path class="cls-16" d="M273.93,252.95c3.45,.79,11.99,.56,32.93-6.3,0,0,16.54-6.4,19.45-6.73,2.91-.34-2.41-1.91-8.15,.83-5.73,2.74-23.11,4.16-24.19,4.07-.93-.07-17.64-.94-21.57,3.97-1.22,1.51-.36,3.73,1.53,4.16Z"/><path class="cls-16" d="M274.1,263.28c-.16-.33-2.24,1.66-3.65,1.58-1.42-.09-7.49-.5-7.32,.66,0,0,5.74,.98,9.06,.7,0,0,6.12,1.63,8.46,.8,0,0-6.38-3.41-6.55-3.74Z"/><path class="cls-16" d="M274.1,263.28s2.33-6.82,27.19-10.56c0,0-1.17,6.57-16.55,17.79,0,0-1.91,1-.58-.83s4.16-3.33,3.54-5.4c-.63-2.08-3.73,2.55-4.26,2.98-.52,.42-2.79-.24-2.79-.24"/><path class="cls-16" d="M156.72,295.95c-1.75-1.05-9.74-7.34-12.23-9.31-.38-.29-.35-.88,.07-1.13,1.78-1.07,6.58-3.38,14.98-3.44,10.98-.09,18.15-2.85,18.15-2.85"/><path class="cls-10" d="M171.97,305.02h0c-3.5-1.14-13.17-7.82-15.24-9.07"/><path class="cls-16" d="M175.46,306.16c5.86,2.09,21.74,2.43,26.4,1.26,4.65-1.16,40.14-11.04,58.19-24.8"/><path class="cls-16" d="M262.35,281.25s16.71-9.48,18.9-11.74c2.19-2.25-28.1-2.85-29.68-3.29-1.58-.45-17.21,.05-22.36,1.38s-40.53,11.22-47.58,11.31"/><path class="cls-16" d="M258.94,280.18s-22.58,9.96-34.47,13.86c-11.89,3.91-34.93,12.38-47.47,6.94"/><path class="cls-16" d="M173.38,300.12h0c-.23-.11-7.8-3.51-11.63-5.84-1.42-.86-3.26-.55-4.33,.72-.34,.39-.6,.74-.69,.95"/><path class="cls-16" d="M15.41,229.67s.65-3.1,.65-3.83"/><path class="cls-16" d="M16.48,223.78s-3.03-36.49,2.09-51.87c0,0,.12-1.19,.28-3.17,.62-7.53,1.89-26.48-.32-34.57,0-.01-.01-.02-.01-.03"/><path class="cls-10" d="M16.05,125.78h-.01c-.2-.53-6.87-16.97-7.75-18.41"/><path class="cls-16" d="M6.28,105.94s-9.68-21-19.57-23.79"/><polygon class="cls-6" points="355.91 290.96 355.91 314.93 309.21 314.93 296.58 314.93 279.95 314.93 277.12 314.93 229.63 314.93 221.64 314.93 207.26 314.93 172.1 314.93 167.61 314.93 152.03 314.93 148.76 314.93 128.26 314.93 79.93 314.93 77.38 314.93 2.83 314.93 -.05 314.93 -116.13 314.93 -118.32 314.93 -223.18 314.93 -223.18 158.9 -223.18 148.76 -223.18 111.14 -223.18 93.74 -223.18 85.48 -223.18 73.73 -223.18 67.25 -223.18 -131.03 355.91 -131.03 355.91 -50.64 355.91 -24.99 355.91 -22.04 355.91 -4.38 355.91 6.81 355.91 29.67 355.91 32.58 355.91 47.54 355.91 49.95 355.91 66.5 355.91 69.16 355.91 88.69 355.91 93.9 355.91 115.74 355.91 120.34 355.91 132.7 355.91 154.7 355.91 156.92 355.91 161.3 355.91 164.96 355.91 196.44 355.91 206.58 355.91 228.69 355.91 245.07 355.91 288.22 355.91 290.96"/></g></g><g><polyline class="cls-9" points="39.2 81.18 39.2 84.18 39.27 84.71"/><g><polygon class="cls-34" points="39.59 85.42 35.26 89.62 43.92 89.62 39.59 85.42"/><rect class="cls-34" x="34.85" y="89.09" width="8.71" height="6.61"/><rect class="cls-34" x="9.8" y="116.7" width="6.61" height="4.41"/><rect class="cls-34" x="9.8" y="125.07" width="6.61" height="4.16"/><rect class="cls-34" x="9.8" y="121.11" width="6.61" height="3.96"/><path class="cls-34" d="M16.41,131.96v2.16h-5.55c-.59,0-1.06-.47-1.06-1.05v-1.11h6.61Z"/><rect class="cls-34" x="16.41" y="131.96" width="8.05" height="2.16"/><polygon class="cls-34" points="32.31 125.07 32.31 125.41 31.53 125.41 31.53 129.23 24.46 129.23 24.46 125.07 32.31 125.07"/><rect class="cls-34" x="24.46" y="131.96" width="7.07" height="2.16"/><rect class="cls-34" x="62.11" y="116.7" width="7.58" height="4.41"/><rect class="cls-34" x="62.11" y="121.11" width="7.58" height="3.96"/><rect class="cls-34" x="46.99" y="125.07" width="7.46" height="4.16"/><rect class="cls-34" x="62.11" y="125.07" width="7.58" height="4.16"/><polygon class="cls-34" points="46.99 125.07 46.99 129.23 41.98 129.23 41.98 125.41 39.74 125.41 39.74 125.07 46.99 125.07"/><rect class="cls-34" x="41.98" y="131.96" width="5.01" height="2.16"/><polyline class="cls-9" points="31.53 134.12 32.31 134.12 39.74 134.12 41.98 134.12"/><rect class="cls-34" x="46.99" y="131.96" width="7.46" height="2.16"/><rect class="cls-34" x="54.45" y="131.96" width="7.66" height="2.16"/><path class="cls-34" d="M69.69,131.96v1.11c0,.58-.48,1.05-1.06,1.05h-6.52v-2.16h7.58Z"/><path class="cls-34" d="M39.47,93.18l-.52-.32c.15-.11,.33-.17,.51-.18,.24-.02,7.32,4.73,7.53,4.87l-2.87-1.97,2.87,1.96h0s7.46,5.11,7.46,5.11l-7.46-4.84-7.52-4.63Z"/><polygon class="cls-34" points="39.54 101.83 39.54 107.07 32.31 107.07 32.31 101.91 39.54 101.83"/><polygon class="cls-34" points="62.11 107.9 62.11 113.33 54.45 113.33 54.45 102.65 62.11 107.9"/><path class="cls-34" d="M71.83,116.7h-9.72v-8.8l10.32,7.07c.8,.54,.39,1.73-.6,1.73Z"/><rect class="cls-34" x="46.99" y="109.65" width="7.46" height="2.62"/><rect class="cls-34" x="46.99" y="107.07" width="7.46" height="2.58"/><polygon class="cls-9" points="45.11 107.95 44.42 107.07 46.99 107.07 46.99 107.95 45.11 107.95"/><polygon class="cls-9" points="39.63 107.07 39.54 107.07 39.54 101.83 39.57 101.82 39.63 107.07"/><polygon class="cls-9" points="30.06 107.95 29.37 107.07 32.31 107.07 32.31 107.95 30.06 107.95"/><polygon class="cls-34" points="24.46 102.85 24.46 116.7 16.41 116.7 16.41 108.39 24.46 102.85"/><path class="cls-34" d="M16.41,108.39v8.31H7.47c-.98,0-1.4-1.18-.6-1.73l9.54-6.58Z"/><polygon class="cls-34" points="39.74 116.7 32.31 116.7 32.31 113.33 39.7 113.33 39.74 116.7"/><rect class="cls-34" x="46.99" y="112.27" width="7.46" height="4.43"/><line class="cls-9" x1="34.52" y1="95.91" x2="34.52" y2="89.09"/><line class="cls-9" x1="44.11" y1="89.09" x2="44.11" y2="95.71"/><polyline class="cls-9" points="32.69 90.79 39.27 84.71 45.71 90.36"/><polyline class="cls-9" points="32.31 125.41 32.31 129.23 32.31 131.96 32.31 134.12"/><polygon class="cls-34" points="32.31 97.44 32.31 107.07 24.46 107.07 24.46 102.84 32.31 97.44"/><polygon class="cls-34" points="39.66 109.65 32.31 109.65 32.31 107.07 39.63 107.07 39.66 109.65"/><polygon class="cls-34" points="32.31 107.95 32.31 109.65 24.46 109.65 24.46 107.07 29.37 107.07 30.06 107.95 32.31 107.95"/><rect class="cls-34" x="24.46" y="109.65" width="7.85" height="2.62"/><polygon class="cls-34" points="39.7 113.33 32.31 113.33 32.31 109.65 39.66 109.65 39.7 113.33"/><rect class="cls-34" x="24.46" y="112.27" width="7.85" height="4.43"/><line class="cls-9" x1="32.31" y1="97.43" x2="24.46" y2="102.84"/><polygon class="cls-34" points="46.99 107.95 46.99 109.65 39.66 109.65 39.63 107.07 44.42 107.07 45.11 107.95 46.99 107.95"/><polygon class="cls-34" points="46.99 109.65 46.99 113.33 39.7 113.33 39.66 109.65 46.99 109.65"/><polygon class="cls-34" points="46.99 113.33 46.99 116.7 39.74 116.7 39.7 113.33 46.99 113.33"/><polygon class="cls-34" points="46.99 101.74 46.99 107.07 39.63 107.07 39.57 101.82 46.99 101.74"/><polygon class="cls-34" points="54.45 102.65 54.45 107.07 46.99 107.07 46.99 101.74 53 101.66 53.01 101.66 54.45 102.65"/><rect class="cls-34" x="54.45" y="113.33" width="7.66" height="3.37"/><polyline class="cls-9" points="50.91 100.23 46.99 97.54 46.99 97.55 46.99 97.81"/><polyline class="cls-9" points="39.47 93.18 39.46 92.68 39.46 92.67"/><line class="cls-9" x1="16.41" y1="113.33" x2="24.36" y2="113.33"/><line class="cls-9" x1="24.46" y1="109.65" x2="24.36" y2="109.65"/><polygon class="cls-35" points="39.57 101.82 39.54 101.83 32.31 101.91 32.31 97.43 34.52 95.91 38.95 92.86 39.47 93.18 39.57 101.82"/><polygon class="cls-35" points="47.04 97.85 47.04 101.78 39.62 101.86 39.52 93.22 47.04 97.85"/><polygon class="cls-34" points="53 101.66 46.99 101.74 46.99 97.81 50.91 100.23 50.99 100.28 53 101.66"/><polyline class="cls-9" points="50.99 100.28 53 101.66 56.5 104.06"/><line class="cls-9" x1="32.31" y1="101.91" x2="25.85" y2="101.99"/><polyline class="cls-9" points="32.31 107.95 34.59 107.95 35.26 107.23"/><polyline class="cls-9" points="46.99 107.95 49.64 107.95 50.31 107.23"/><rect class="cls-34" x="9.8" y="129.23" width="6.61" height="2.73"/><rect class="cls-34" x="16.41" y="129.23" width="8.05" height="2.73"/><rect class="cls-34" x="24.46" y="129.23" width="7.07" height="2.73"/><rect class="cls-34" x="62.11" y="129.23" width="7.58" height="2.73"/><rect class="cls-34" x="54.45" y="129.23" width="7.66" height="2.73"/><rect class="cls-34" x="46.99" y="129.23" width="7.46" height="2.73"/><rect class="cls-34" x="41.98" y="129.23" width="5.01" height="2.73"/><polyline class="cls-9" points="31.53 131.96 32.31 131.96 39.74 131.96 41.98 131.96"/><polyline class="cls-9" points="31.53 129.23 32.31 129.23 39.74 129.23 41.98 129.23"/><polyline class="cls-9" points="39.74 125.41 39.74 129.23 39.74 131.96 39.74 133.31 39.74 134.12"/><rect class="cls-34" x="32.31" y="116.7" width="7.43" height="4.41"/><rect class="cls-34" x="39.74" y="116.7" width="7.25" height="4.41"/><rect class="cls-34" x="46.99" y="116.7" width="7.46" height="4.41"/><rect class="cls-34" x="46.99" y="121.11" width="7.46" height="3.96"/><rect class="cls-34" x="54.45" y="116.7" width="7.66" height="4.41"/><rect class="cls-34" x="54.45" y="125.07" width="7.66" height="4.16"/><rect class="cls-34" x="24.46" y="116.7" width="7.85" height="4.41"/><rect class="cls-34" x="16.41" y="116.7" width="8.05" height="4.41"/><rect class="cls-34" x="16.41" y="121.11" width="8.05" height="3.96"/><rect class="cls-34" x="16.41" y="125.07" width="8.05" height="4.16"/><rect class="cls-34" x="24.46" y="121.11" width="7.85" height="3.96"/><rect class="cls-34" x="32.31" y="121.11" width="7.43" height="3.96"/><rect class="cls-34" x="39.74" y="121.11" width="7.25" height="3.96"/><rect class="cls-34" x="54.45" y="121.11" width="7.66" height="3.96"/><rect class="cls-36" x="31.53" y="125.41" width="10.45" height="8.71"/><polyline class="cls-9" points="27.34 101.54 32.52 98.75 28.47 101.64 35.03 98.41 31.18 98.72 30.79 99.08 29.69 99.78"/><path class="cls-9" d="M29.82,101.47c2.77,0,3.67-.13,3.69-.31,.02-.21-1.05-.66-2.09-.44-.19,.04-.36,.1-.5,.16"/><polyline class="cls-9" points="46.53 99.24 49.25 100.34 51.43 101.23 43.12 99.52 48.76 101.23 47.27 98.67 48.95 99.56 49.58 99.95"/><polygon class="cls-36" points="39.46 93 51.49 101.35 27.42 101.35 39.46 93"/></g></g><g><rect class="cls-22" x="62.01" y="38.3" width=".92" height="12.34" transform="translate(18 106.94) rotate(-90)"/><g><g><rect class="cls-22" x="65.51" y="44.51" width=".92" height="11.01" transform="translate(-6.1 9.28) rotate(-7.69)"/><rect class="cls-26" x="65.97" y="54.94" width="1.72" height=".65"/></g><g><rect class="cls-22" x="57.91" y="44.54" width=".92" height="11.01" transform="translate(10.33 -9.98) rotate(10.72)"/><rect class="cls-26" x="56.46" y="54.97" width="1.72" height=".65"/></g><rect class="cls-22" x="61.69" y="44.46" width="1.12" height="2.4"/><rect class="cls-22" x="62.01" y="40.48" width=".92" height="12.34" transform="translate(109.11 -15.82) rotate(90)"/><path class="cls-26" d="M68.64,44.01h-12.34c-.19-.17-.37-.33-.56-.5h13.51c-.2,.17-.41,.33-.61,.5Z"/><g><path class="cls-20" d="M59.82,47.81l-.63-.12c.17-.39,.35-.78,.52-1.17l.31,.06c-.07,.41-.13,.82-.2,1.23Z"/><path class="cls-20" d="M61.57,47.98l-.64-.05c.11-.41,.22-.81,.32-1.22l.31,.02c0,.41,0,.83,0,1.24Z"/><path class="cls-20" d="M63.45,47.99l-.64,.02c.05-.41,.09-.83,.14-1.24h.31c.06,.4,.13,.81,.19,1.22Z"/><path class="cls-20" d="M65.14,47.81l-.64,.07c0-.42,0-.83,0-1.25l.31-.04c.11,.4,.22,.81,.33,1.21Z"/></g><path class="cls-11" d="M58.37,46.22c.46,.15,1.14,.33,2.04,.44,.35,.04,2.19,.27,4.17-.02,.85-.12,1.42-.29,1.74-.41"/></g></g><g><polygon class="cls-43" points="123.24 118.06 122.82 116.24 124.09 116.4 123.24 118.06"/><rect class="cls-43" x="112.78" y="118.07" width="9.1" height="5.55"/><polygon class="cls-43" points="109.91 116.24 111.17 115.98 110.04 117.52 109.91 116.24"/><polygon class="cls-43" points="113.34 117.5 110.15 116.19 115.74 115.01 113.34 117.5"/><polygon class="cls-43" points="122.19 116.99 120.9 115.48 124.1 116.44 122.19 116.99"/><rect class="cls-43" x="113.02" y="115.53" width="8.71" height="2.01"/><rect class="cls-43" x="110.15" y="116.3" width="14.09" height="1.76"/><rect class="cls-43" x="113.28" y="113.98" width="7.9" height="1.93"/><polygon class="cls-18" points="121.2 113.98 121.2 115.43 124.98 116.55 124.25 118.14 110.15 118.07 109.76 116.3 113.28 115.44 113.28 113.98 121.2 113.98"/><rect class="cls-37" x="112.78" y="118.14" width="9.1" height="4.66"/><path class="cls-27" d="M123.22,123.83h-11.78l1.35-.95c.07-.05,.16-.08,.25-.08h8.81c.1,0,.2,.04,.27,.1l1.11,.93Z"/><line class="cls-3" x1="113.76" y1="115.37" x2="120.63" y2="115.37"/><g><rect class="cls-43" x="115.88" y="118.15" width="2.58" height="4.66"/><rect class="cls-3" x="115.88" y="118.15" width="2.58" height="4.66"/></g><path class="cls-14" d="M113.28,114.1v1.24c0,.06-.04,.11-.09,.12l-3.31,.82c-.06,.02-.1,.08-.09,.15l.34,1.55c.01,.06,.06,.1,.12,.1l13.92,.08s.09-.03,.11-.07l.64-1.39c.03-.07,0-.15-.08-.17l-3.56-1.05c-.05-.02-.09-.06-.09-.12v-1.23c0-.07-.05-.12-.12-.12h-7.67c-.07,0-.12,.05-.12,.12Z"/><polyline class="cls-11" points="112.78 118.14 112.78 122.8 121.88 122.8 121.88 118.14"/></g><g><rect class="cls-43" x="134.47" y="152.01" width="9.1" height="5.55"/><polygon class="cls-43" points="131.6 150.19 132.86 149.92 131.73 151.47 131.6 150.19"/><polygon class="cls-43" points="135.03 151.44 131.84 150.13 137.43 148.95 135.03 151.44"/><polygon class="cls-43" points="143.88 150.93 142.59 149.42 145.79 150.38 143.88 150.93"/><rect class="cls-43" x="134.71" y="149.48" width="8.71" height="2.01"/><rect class="cls-43" x="131.84" y="150.25" width="14.09" height="1.76"/><rect class="cls-43" x="134.97" y="147.92" width="7.9" height="1.93"/><polygon class="cls-18" points="142.89 147.92 142.89 149.37 146.67 150.49 145.94 152.09 131.84 152.01 131.45 150.25 134.97 149.38 134.97 147.92 142.89 147.92"/><rect class="cls-37" x="134.47" y="152.09" width="9.1" height="4.66"/><path class="cls-27" d="M144.91,157.78h-11.78l1.35-.95c.07-.05,.16-.08,.25-.08h8.81c.1,0,.2,.04,.27,.1l1.11,.93Z"/><line class="cls-3" x1="135.45" y1="149.31" x2="142.32" y2="149.31"/><g><rect class="cls-43" x="137.56" y="152.09" width="2.58" height="4.66"/><rect class="cls-3" x="137.56" y="152.09" width="2.58" height="4.66"/></g><path class="cls-14" d="M134.97,148.05v1.24c0,.06-.04,.11-.09,.12l-3.31,.82c-.06,.02-.1,.08-.09,.15l.34,1.55c.01,.06,.06,.1,.12,.1l13.92,.08s.09-.03,.11-.07l.64-1.39c.03-.07,0-.15-.08-.17l-3.56-1.05c-.05-.02-.09-.06-.09-.12v-1.23c0-.07-.05-.12-.12-.12h-7.67c-.07,0-.12,.05-.12,.12Z"/><polyline class="cls-11" points="134.47 152.09 134.47 156.74 143.57 156.74 143.57 152.09"/></g><g><rect class="cls-43" x="228.6" y="205.32" width="9.1" height="5.55"/><polygon class="cls-43" points="225.72 203.5 226.98 203.23 225.86 204.77 225.72 203.5"/><polygon class="cls-43" points="229.16 204.75 225.96 203.44 231.56 202.26 229.16 204.75"/><polygon class="cls-43" points="238.01 204.24 236.72 202.73 239.91 203.69 238.01 204.24"/><rect class="cls-43" x="228.84" y="202.79" width="8.71" height="2.01"/><rect class="cls-43" x="225.97" y="203.56" width="14.09" height="1.76"/><rect class="cls-43" x="229.1" y="201.23" width="7.9" height="1.93"/><polygon class="cls-18" points="237.01 201.23 237.01 202.68 240.8 203.8 240.06 205.4 225.97 205.32 225.58 203.56 229.1 202.69 229.1 201.23 237.01 201.23"/><rect class="cls-37" x="228.6" y="205.4" width="9.1" height="4.66"/><path class="cls-27" d="M239.04,211.09h-11.78l1.35-.95c.07-.05,.16-.08,.25-.08h8.81c.1,0,.2,.04,.27,.1l1.11,.93Z"/><line class="cls-3" x1="229.58" y1="202.62" x2="236.45" y2="202.62"/><g><rect class="cls-43" x="231.69" y="205.39" width="2.58" height="4.66"/><rect class="cls-3" x="231.69" y="205.39" width="2.58" height="4.66"/></g><path class="cls-14" d="M229.1,201.36v1.24c0,.06-.04,.11-.09,.12l-3.31,.82c-.06,.02-.1,.08-.09,.15l.34,1.55c.01,.06,.06,.1,.12,.1l13.92,.08s.09-.03,.11-.07l.64-1.39c.03-.07,0-.15-.08-.17l-3.56-1.05c-.05-.02-.09-.06-.09-.12v-1.23c0-.07-.05-.12-.12-.12h-7.67c-.07,0-.12,.05-.12,.12Z"/><polyline class="cls-11" points="228.6 205.4 228.6 210.05 237.7 210.05 237.7 205.4"/></g><g><rect class="cls-54" x="41.98" y="138.17" width="34.81" height="12.38"/><rect class="cls-45" x="42.89" y="138.17" width="32.93" height="12.38"/></g><text class="cls-61" transform="translate(48.65 144.92)"><tspan x="0" y="0">天龍寺</tspan></text><text class="cls-63" transform="translate(47.89 148.6)"><tspan class="cls-38" x="0" y="0">T</tspan><tspan class="cls-57" x="1.48" y="0">enryuu </tspan><tspan class="cls-38" x="11.39" y="0">T</tspan><tspan x="12.88" y="0">emple</tspan></text><g><g><rect class="cls-54" x="72.06" y="44.94" width="41.02" height="12.69"/><rect class="cls-45" x="73.83" y="44.94" width="37.75" height="12.69"/></g><text class="cls-64" transform="translate(78.15 52.24)"><tspan x="0" y="0">野宮神社</tspan></text><text class="cls-63" transform="translate(83.12 55.32)"><tspan x="0" y="0">Nomiya Shrine</tspan></text></g><g><rect class="cls-54" x="93.47" y="99.87" width="38.58" height="11.93"/><rect class="cls-45" x="94.5" y="99.87" width="36.55" height="11.93"/></g><text class="cls-61" transform="translate(103.08 106.36)"><tspan class="cls-60" x="0" y="0">弘</tspan><tspan x="6.87" y="0">源寺</tspan></text><text class="cls-63" transform="translate(103.15 109.77)"><tspan x="0" y="0">Kougen </tspan><tspan class="cls-38" x="10.87" y="0">T</tspan><tspan class="cls-57" x="12.35" y="0">emple</tspan></text><g><rect class="cls-54" x="125" y="159.82" width="29.89" height="11.56"/><rect class="cls-45" x="125.9" y="159.82" width="28.15" height="11.56"/></g><text class="cls-62" transform="translate(130.09 166.22)"><tspan x="0" y="0">妙智院</tspan></text><text class="cls-63" transform="translate(132.87 169.89)"><tspan x="0" y="0">Myochiin</tspan></text><g><rect class="cls-54" x="226.69" y="213.47" width="36.29" height="12.58"/><rect class="cls-45" x="227.78" y="213.47" width="34.18" height="12.58"/></g><text class="cls-61" transform="translate(235.14 220.55)"><tspan class="cls-67" x="0" y="0">臨川</tspan><tspan x="13.79" y="0">寺</tspan></text><text class="cls-63" transform="translate(235.24 224.3)"><tspan x="0" y="0">Rinsen </tspan><tspan class="cls-38" x="9.37" y="0">T</tspan><tspan class="cls-57" x="10.85" y="0">emple</tspan></text><g><path class="cls-53" d="M199.68,149.44h27.45c1.2,0,2.17,.97,2.17,2.17v7.06s0,0,0,0h-29.61s0,0,0,0v-9.23s0,0,0,0Z" transform="translate(-2.27 3.21) rotate(-.85)"/><line class="cls-7" x1="199.25" y1="156.02" x2="229.07" y2="156"/><rect class="cls-53" x="183.73" y="149.6" width="8.1" height="9.06"/><rect class="cls-52" x="183.73" y="151.05" width="2.37" height="3.15"/><rect class="cls-52" x="187.55" y="151.05" width="2.83" height="3.15"/><rect class="cls-52" x="199.45" y="151.2" width="2.64" height="3.15"/><rect class="cls-52" x="203.58" y="151.2" width="2.83" height="3.15"/><rect class="cls-52" x="208.04" y="151.15" width="2.83" height="3.15"/><rect class="cls-52" x="212.53" y="151.15" width="2.83" height="3.15"/><rect class="cls-52" x="217.21" y="151.15" width="2.83" height="3.15"/><rect class="cls-52" x="222.74" y="152.03" width=".96" height="2.66"/><rect class="cls-52" x="224.52" y="152.03" width=".96" height="2.66"/><rect class="cls-46" x="183.47" y="158.32" width="8.36" height="2.99"/><rect class="cls-46" x="199.45" y="158.32" width="35.53" height="2.67"/><rect class="cls-32" x="177.82" y="143.13" width="5.65" height="7.6"/><rect class="cls-23" x="191.83" y="143.13" width="5.64" height="18.18"/><rect class="cls-21" x="177.82" y="150.73" width="5.65" height="10.59"/><rect class="cls-33" x="174.78" y="139.11" width="26.17" height="4.02"/><rect class="cls-33" x="176.16" y="143.13" width="1.66" height="18.99"/><rect class="cls-33" x="197.59" y="143.13" width="1.66" height="18.99"/><line class="cls-9" x1="177.82" y1="161.31" x2="197.47" y2="161.31"/><line class="cls-9" x1="183.47" y1="143.13" x2="183.47" y2="161.31"/><line class="cls-33" x1="191.83" y1="143.13" x2="191.83" y2="161.31"/><line class="cls-9" x1="183.47" y1="158.32" x2="191.83" y2="158.32"/><line class="cls-9" x1="199.45" y1="158.32" x2="234.98" y2="158.32"/><line class="cls-23" x1="177.82" y1="150.73" x2="183.47" y2="150.73"/><rect class="cls-25" x="181.2" y="141.58" width="13.45" height="4.22"/><text class="cls-65" transform="translate(183.89 144.57)"><tspan class="cls-40" x="0" y="0">嵐</tspan><tspan class="cls-68" x="2.68" y="0">山</tspan><tspan x="5.36" y="0">駅</tspan></text><rect class="cls-24" x="183.73" y="155.48" width="3.74" height="3.18"/><rect class="cls-24" x="188.05" y="155.48" width="3.52" height="3.18"/><line class="cls-24" x1="183.73" y1="149.6" x2="191.86" y2="149.6"/><path class="cls-15" d="M199.25,149.6l27.94-.24c1.04,0,1.88,.83,1.88,1.86v7.09"/><rect class="cls-12" x="183.27" y="151.05" width="2.83" height="3.15"/><rect class="cls-12" x="187.55" y="151.05" width="2.83" height="3.15"/><rect class="cls-12" x="199.25" y="151.2" width="2.83" height="3.15"/><rect class="cls-12" x="203.58" y="151.2" width="2.83" height="3.15"/><rect class="cls-12" x="208.04" y="151.15" width="2.83" height="3.15"/><rect class="cls-12" x="212.53" y="151.15" width="2.83" height="3.15"/><rect class="cls-12" x="217.21" y="151.15" width="2.83" height="3.15"/><path class="cls-12" d="M223.38,150.86h1.61c.79,0,1.44,.64,1.44,1.44v6.03h-4.49v-6.03c0-.79,.64-1.44,1.44-1.44Z"/><rect class="cls-12" x="222.74" y="152.03" width=".96" height="2.66"/><rect class="cls-12" x="224.52" y="152.03" width=".96" height="2.66"/><path class="cls-13" d="M174.35,138.79v4.76h1.49v18.9h2.37v-.77l18.99-.04v.8h2.45v-1.45h35.33v-2.99h-5.73s-.02-7.15-.02-7.15c0,0-.22-1.34-1.6-1.61h-5.31s-14.6,.12-14.6,.12h-8.12l.03-5.93h1.6v-4.78l-26.88,.14Z"/></g><g><rect class="cls-54" x="184.96" y="165.63" width="38.62" height="11.94"/><rect class="cls-45" x="186.12" y="165.63" width="36.36" height="11.94"/></g><text class="cls-61" transform="translate(194.38 172.28)"><tspan class="cls-58" x="0" y="0">嵐</tspan><tspan class="cls-66" x="6.96" y="0">山</tspan><tspan x="13.9" y="0">駅</tspan></text><text class="cls-63" transform="translate(191.51 175.77)"><tspan x="0" y="0">arashiyama station</tspan></text><g><g><rect class="cls-54" x="143.47" y="232.87" width="40.7" height="12.59"/><rect class="cls-45" x="144.69" y="232.87" width="38.32" height="12.59"/></g><text class="cls-61" transform="translate(154.31 239.28)"><tspan class="cls-56" x="0" y="0">渡</tspan><tspan class="cls-59" x="6.83" y="0">月</tspan><tspan x="13.54" y="0">橋</tspan></text><text class="cls-63" transform="translate(156.76 243.58)"><tspan class="cls-17" x="0" y="0">T</tspan><tspan x="1.51" y="0">ogetukyou</tspan></text></g><g><rect class="cls-43" x="46.27" y="174.64" width="6.34" height="3.87"/><polygon class="cls-43" points="44.27 173.37 45.15 173.18 44.36 174.26 44.27 173.37"/><polygon class="cls-43" points="46.66 174.24 44.43 173.33 48.33 172.51 46.66 174.24"/><polygon class="cls-43" points="52.82 173.88 51.92 172.83 54.15 173.5 52.82 173.88"/><rect class="cls-43" x="46.44" y="172.87" width="6.07" height="1.4"/><rect class="cls-43" x="44.44" y="173.41" width="9.82" height="1.23"/><rect class="cls-43" x="46.62" y="171.79" width="5.5" height="1.34"/><polygon class="cls-18" points="52.13 171.79 52.13 172.8 54.77 173.58 54.25 174.69 44.44 174.64 44.17 173.41 46.62 172.81 46.62 171.79 52.13 171.79"/><rect class="cls-37" x="46.27" y="174.69" width="6.34" height="3.24"/><path class="cls-27" d="M53.54,178.65h-8.21l.94-.66s.11-.05,.17-.05h6.13c.07,0,.14,.02,.19,.07l.77,.65Z"/><line class="cls-3" x1="46.95" y1="172.76" x2="51.74" y2="172.76"/><g><rect class="cls-43" x="48.43" y="174.69" width="1.8" height="3.24"/><rect class="cls-3" x="48.43" y="174.69" width="1.8" height="3.24"/></g><path class="cls-14" d="M46.62,171.88v.86s-.03,.07-.06,.08l-2.31,.57s-.07,.06-.06,.1l.24,1.08s.04,.07,.08,.07l9.69,.05s.06-.02,.08-.05l.45-.97s0-.1-.05-.12l-2.48-.73s-.06-.04-.06-.08v-.86s-.04-.09-.09-.09h-5.34s-.09,.04-.09,.09Z"/><polyline class="cls-11" points="46.27 174.69 46.27 177.93 52.61 177.93 52.61 174.69"/></g><g><rect class="cls-43" x="89.51" y="156.49" width="6.34" height="3.87"/><polygon class="cls-43" points="87.51 155.22 88.39 155.03 87.6 156.11 87.51 155.22"/><polygon class="cls-43" points="89.9 156.09 87.68 155.18 91.58 154.36 89.9 156.09"/><polygon class="cls-43" points="96.06 155.74 95.17 154.69 97.39 155.36 96.06 155.74"/><rect class="cls-43" x="89.68" y="154.73" width="6.07" height="1.4"/><rect class="cls-43" x="87.68" y="155.26" width="9.82" height="1.23"/><rect class="cls-43" x="89.86" y="153.64" width="5.5" height="1.34"/><polygon class="cls-18" points="95.37 153.64 95.37 154.65 98.01 155.43 97.5 156.54 87.68 156.49 87.41 155.26 89.86 154.66 89.86 153.64 95.37 153.64"/><rect class="cls-37" x="89.51" y="156.54" width="6.34" height="3.24"/><path class="cls-27" d="M96.78,160.51h-8.21l.94-.66s.11-.05,.17-.05h6.13c.07,0,.14,.02,.19,.07l.77,.65Z"/><line class="cls-3" x1="90.19" y1="154.61" x2="94.98" y2="154.61"/><g><rect class="cls-43" x="91.66" y="156.54" width="1.8" height="3.25"/><rect class="cls-3" x="91.66" y="156.54" width="1.8" height="3.25"/></g><path class="cls-14" d="M89.86,153.73v.86s-.03,.07-.06,.08l-2.31,.57s-.07,.06-.06,.1l.24,1.08s.04,.07,.08,.07l9.69,.05s.06-.02,.08-.05l.45-.97s0-.1-.05-.12l-2.48-.73s-.06-.04-.06-.08v-.86s-.04-.09-.09-.09h-5.34s-.09,.04-.09,.09Z"/><polyline class="cls-11" points="89.51 156.54 89.51 159.79 95.85 159.79 95.85 156.54"/></g><rect class="cls-13" x="183.98" y="146.06" width="7.32" height="3.31"/><g><path class="cls-30" d="M225.47,240.14h2.84v2.84c0,.71-.57,1.28-1.28,1.28h-2.84v-2.84c0-.71,.57-1.28,1.28-1.28Z" transform="translate(-104.33 218.45) rotate(-42.84)"/><path class="cls-28" d="M179.55,240.14h2.84v2.84c0,.71-.57,1.28-1.28,1.28h-2.84v-2.84c0-.71,.57-1.28,1.28-1.28Z" transform="translate(-116.58 187.22) rotate(-42.84)"/><rect class="cls-31" x="223.64" y="243.59" width="5.23" height="8.24" rx="1.94" ry="1.94"/><rect class="cls-29" x="177.71" y="243.59" width="5.23" height="8.24" rx="1.94" ry="1.94"/><rect class="cls-4" x="225.84" y="251.69" width=".83" height="13.33"/><path class="cls-2" d="M180.39,251.48l-.44,12.19s21.1-9.37,46.71-1.41l.36-10.78"/><rect class="cls-4" x="179.5" y="252.43" width="1.65" height="13.33"/><path class="cls-5" d="M179.74,254.91s22.87-10.53,47.49-.9"/><line class="cls-5" x1="189.32" y1="251.83" x2="189.32" y2="260.35"/><line class="cls-5" x1="202.7" y1="250.65" x2="202.7" y2="259.17"/><line class="cls-5" x1="216.09" y1="251.27" x2="216.09" y2="259.79"/><path class="cls-8" d="M179.5,258.35s24.41-9.3,47.17-.78"/><rect class="cls-8" x="195.17" y="254.91" width=".94" height="4.19"/><rect class="cls-8" x="208.92" y="254.49" width=".94" height="4.19"/><rect class="cls-48" x="180.32" y="249.95" width="3.34" height="18.29"/><rect class="cls-48" x="225.84" y="249.2" width="3.34" height="18.29"/><path class="cls-16" d="M176.95,249.95v18.29h6.72v-4.23s17.85-6.94,39.46-1.12v4.6h6.05v-18.29h-5.92l.05,2.28s-16.8-6.46-39.65,.95v-2.48h-6.72Z"/></g></g><g><path class="cls-19" d="M191.04,199c0-3.5,2.84-6.34,6.34-6.34s6.34,2.84,6.34,6.34-6.34,14.34-6.34,14.34c0,0-6.34-10.84-6.34-14.34Z"/><circle class="cls-44" cx="197.38" cy="199.14" r="2.76"/></g><g><g><rect class="cls-54" x="178.36" y="215.77" width="38.04" height="9.18"/><polygon class="cls-45" points="215.3 224.95 179.47 224.95 179.5 215.77 215.33 215.77 215.3 224.95"/></g><text class="cls-55" transform="translate(184.34 223.16)"><tspan x="0" y="0">集合場所</tspan></text></g></g></g></svg>