<?xml version="1.0" encoding="UTF-8"?><svg id="_レイヤー_2" xmlns="http://www.w3.org/2000/svg" xmlns:xlink="http://www.w3.org/1999/xlink" viewBox="0 0 354.32 279.13"><defs><style>.cls-1,.cls-2,.cls-3,.cls-4,.cls-5,.cls-6,.cls-7,.cls-8,.cls-9,.cls-10,.cls-11,.cls-12,.cls-13,.cls-14,.cls-15,.cls-16{fill:none;}.cls-17{letter-spacing:-.01em;}.cls-18{opacity:.62;}.cls-18,.cls-2,.cls-3,.cls-4,.cls-19,.cls-20,.cls-21,.cls-22,.cls-23,.cls-24,.cls-25,.cls-26,.cls-27,.cls-28,.cls-29,.cls-30,.cls-31,.cls-32,.cls-33,.cls-34,.cls-35,.cls-36,.cls-5,.cls-7,.cls-8,.cls-9,.cls-10,.cls-11,.cls-12,.cls-13,.cls-14,.cls-15,.cls-16{stroke-miterlimit:10;}.cls-18,.cls-3,.cls-19,.cls-20,.cls-21,.cls-22,.cls-24,.cls-25,.cls-26,.cls-31,.cls-32,.cls-33,.cls-34,.cls-35,.cls-36,.cls-9,.cls-11,.cls-14{stroke:#633319;}.cls-18,.cls-19,.cls-20,.cls-21,.cls-25,.cls-26,.cls-27,.cls-28,.cls-36,.cls-11,.cls-12,.cls-13{stroke-width:.25px;}.cls-18,.cls-36{fill:#593016;}.cls-2{stroke-width:3px;}.cls-2,.cls-4,.cls-5,.cls-8{stroke:#c7321d;}.cls-37{letter-spacing:-.02em;}.cls-38{clip-path:url(#clippath);}.cls-39{letter-spacing:0em;}.cls-40{fill:#f2eabb;}.cls-41{fill:#67a284;}.cls-42,.cls-24,.cls-33{fill:#fff;}.cls-43{fill:#e794a4;}.cls-44{fill:#7f8080;}.cls-45{fill:#99a9a1;}.cls-46{fill:#a02d24;}.cls-47{fill:#b7d67a;}.cls-48{fill:#a8ce93;}.cls-49{fill:#b1dbef;}.cls-50,.cls-31{fill:#7fcded;}.cls-51{fill:#25b391;}.cls-52{fill:#4c3225;}.cls-3{stroke-width:.1px;}.cls-53{letter-spacing:-.02em;}.cls-4{stroke-width:5px;}.cls-54{letter-spacing:0em;}.cls-55{letter-spacing:0em;}.cls-19{fill:#fcf9eb;}.cls-20,.cls-22,.cls-32{fill:#faf9d5;}.cls-21{fill:#e9500e;}.cls-56{letter-spacing:-.04em;}.cls-22,.cls-23,.cls-24,.cls-29,.cls-30,.cls-31,.cls-6,.cls-14,.cls-15,.cls-16{stroke-width:.5px;}.cls-23{fill:#004152;}.cls-23,.cls-12,.cls-15{stroke:#613318;}.cls-57{letter-spacing:-.02em;}.cls-25{fill:#5f4d22;}.cls-26{fill:#5f3318;}.cls-27{stroke:#4c3326;}.cls-27,.cls-28,.cls-29,.cls-30{fill:#172244;}.cls-28,.cls-29{stroke:#4b3225;}.cls-30{stroke:#4a3225;}.cls-34{fill:#8d6226;}.cls-35{fill:#633319;}.cls-58{font-size:7px;}.cls-58,.cls-59,.cls-60,.cls-61{fill:#4a3226;}.cls-58,.cls-59,.cls-62,.cls-61{font-family:HiraMaruPro-W4-83pv-RKSJ-H, 'Hiragino Maru Gothic Pro';}.cls-36{opacity:.23;}.cls-59{font-size:6.62px;}.cls-5{stroke-width:2px;}.cls-6{stroke:#b7d67a;stroke-linecap:round;stroke-linejoin:round;}.cls-63{letter-spacing:0em;}.cls-7{stroke:#f5e931;}.cls-10,.cls-16{stroke:#4d3326;}.cls-64{letter-spacing:-.01em;}.cls-60{font-family:KozGoPr6N-Regular-83pv-RKSJ-H, 'Kozuka Gothic Pr6N';font-size:2.91px;}.cls-65{letter-spacing:0em;}.cls-62{fill:#613318;font-size:2.7px;}.cls-61{font-size:7.33px;}.cls-13{stroke:#fff;}</style><clipPath id="clippath"><rect class="cls-1" x="0" width="354.32" height="279.13"/></clipPath></defs><g id="_たてもの"><g class="cls-38"><g><g><g><path class="cls-41" d="M386.83,264.72v23.97h-46.7v-.29c-7.15-2.4-33.53-4.42-33.53-4.42l-9.04-19.64s43.05-12.59,49.03-12.5c5.99,.08,31.21,7.31,39.97,12.88h.27Z"/><path class="cls-49" d="M386.83,261.98v2.74h-.27c-8.76-5.57-33.98-12.8-39.97-12.88-5.98-.09-49.03,12.5-49.03,12.5l-4.29-9.33s16.71-9.48,18.9-11.74c2.19-2.25-28.1-2.85-29.68-3.29-1.58-.45-17.21,.05-22.36,1.38s-40.53,11.22-47.58,11.31c3.22-19.34,5.04-40.11,5.84-50.66h2.45c.65,0,1.27-.28,1.69-.76l1.52-1.72c.4-.47,.99-.73,1.61-.73,18.27,.04,35.65-1.74,57-3,21.73-1.27,28.91-6.23,28.91-6.23l2.79-.35v3.61c0,1.03,.84,1.86,1.87,1.86h10.76c.77,0,1.48,.39,1.9,1.03l.82,1.26c.26,.4,.64,.69,1.1,.83,5.19,1.6,22.68,4.58,25.85,5.12,.31,.05,.62,.06,.93,.04,6.17-.52,28.97-.52,28.97-.52h.27v16.38h-.27c-1.61-1-16.44-1.74-22.43-1.41-5.98,.33-24.36,7.56-24.36,7.56-7.4,13.72-41.04,37.05-41.04,37.05,44.9-13.44,47.45-12.02,47.45-12.02,13.46-.25,40.38,11.97,40.38,11.97h.27Zm-29.6-48.3c2.91-.34-2.41-1.91-8.15,.83-5.73,2.74-23.11,4.16-24.19,4.07-.93-.07-17.64-.94-21.57,3.97-1.22,1.51-.36,3.73,1.53,4.16,3.45,.79,11.99,.56,32.93-6.3,0,0,16.54-6.4,19.45-6.73Zm-15.96-3.99c.75,.33,2.58-1.75-9.31-.5,0,0-5.82,2.66-12.22,1.08,0,0-1.25-1.74-3.58,1.04,0,0-3.35-1.28-5.26-.42-.34,.15-.35,.64-.04,.86,.76,.52,2.1,1.32,3.06,1.26,1.41-.08,4.9,.22,6.98-.85,2.08-1.06,13.89,0,13.89,0,0,0,1.08,.28,.99-.85-.08-1.12,1.5-.09,2.08-.61,.58-.51,2.66-1.35,3.41-1.01Zm-25.61,34.58c15.38-11.22,16.55-17.79,16.55-17.79-24.86,3.74-27.19,10.56-27.19,10.56-.16-.33-2.24,1.66-3.65,1.58-1.42-.09-7.49-.5-7.32,.66,0,0,5.74,.98,9.06,.7,0,0,6.12,1.63,8.46,.8,0,0,2.27,.66,2.79,.24,.53-.43,3.63-5.06,4.26-2.98,.62,2.07-2.21,3.57-3.54,5.4s.58,.83,.58,.83Zm-7.15-32.75c1.67-.92-4.73-1.25-4.73,0,0,0,3.07,.91,4.73,0Z"/><path class="cls-41" d="M386.83,218.83v43.15h-.27s-26.92-12.22-40.38-11.97c0,0-2.55-1.42-47.45,12.02,0,0,33.64-23.33,41.04-37.05,0,0,18.38-7.23,24.36-7.56,5.99-.33,20.82,.41,22.43,1.41h.27Z"/><path class="cls-41" d="M386.83,180.34v22.11h-.27s-22.8,0-28.97,.52c-.31,.02-.62,0-.93-.04-3.17-.54-20.66-3.52-25.85-5.12-.46-.14-.84-.43-1.1-.83l-.82-1.26c-.42-.64-1.13-1.03-1.9-1.03h-10.76c-1.03,0-1.87-.83-1.87-1.86v-3.61l.56-.07,65.92-11.92,5.72,3.11h.27Z"/><path class="cls-40" d="M-30.82-85.86l6.99-3.32-1.09-2.41-7,3.18,1.1,2.55Zm3.02,208.61c2.29-.91,9.84-1.99,13.5-.88s7.87,11.42,7.87,11.42l5.32-2.66-10.64-22.73c-8.95-.22-15.84,14.4-16.05,14.85ZM222.76-36.1s-3.62-3.2-4.86-6.86c-1.25-3.66-8.32-8.48-8.32-8.48-4.82-3.33-5.81-9.27-5.81-9.27-15.86,3.35-45.54,9.5-49.22,9.44l1,16.26,2.99,8.76s56.12-13.14,54.62-6.98c-.81,3.31,1.5,3.15,1.5,3.15,9.22-.24,8.1-6.02,8.1-6.02Zm-2.97-8.62l-6.23-18.08s-2.74,.59-7.04,1.51c0,0,.32,4.75,6.81,9.52,5.06,3.71,6.32,6.7,6.46,7.05ZM-77.09-75.28c0-1.16,.77-1.29,1.94-1.32l2.59-.11,.18-2.66-5.19,.09c-1.2-.02-2.18,.94-2.18,2.15v1.85h2.66ZM218.39,202.01c-.8,10.55-2.62,31.32-5.84,50.66-1.3,7.85-2.84,15.47-4.63,22.07-.49,1.81-1.01,3.54-1.54,5.18-1.04,3.23-2.16,6.09-3.36,8.48v.29h-4.49v-.29s-3.97-3.39-12.31-8.23c-.59-.34-1.2-.69-1.83-1.04-11.57-6.49-30.47-15.15-57.59-21.78-.7-.17-1.4-.34-2.12-.51-7.01-1.66-14.57-3.19-22.67-4.5,0,0-36.83-6.16-62.27-7.49,0,0-35.42,.83-53.21-22.44l1.72-1.5c15.52,15.8,31.2,20.95,51.49,21.45,20.28,.5,62.68,7.48,62.68,7.48,69.84,10.48,97.72,36.15,97.72,36.15,.96-2.02,1.88-4.45,2.74-7.21h0c.48-1.54,.95-3.17,1.4-4.9,1.63-6.16,3.07-13.39,4.32-20.9,3.28-19.73,5.28-41.43,6.07-50.97,.26-3.14,.39-4.96,.39-4.96l-45.75,5.68-32.81,4.07-.33-2.68,33.35-4.31-.21-1.79-2.52-24.83-33.92,3.02,3.28,27.78-2.48,.29-3.7-31.09,12.76-.8-.75-20.15h-2.32v-2.25h2.23l-.99-26.43-29.75-.17-.87,11.23-9.86,7.64-.82,7.73-2.87-.33,.74-6.36-4.16,2.25-.21,24.02h-2.33v-25.64l4.14-2.05h-8.35l-2.38-1.06v-1.6h15.02l8.2-6.05,2.38-29.4h-5.46l.09-2.57h65.23l20.45-2.28s-9.31-37.57-10.2-44.56l-5.54-20.39-29.82,7.87h-13.19l-2.99,1.11,5.99,20.78-2.33,.94-6.21-21.39-14.25,4.02c-2.06,.58-4.24-.29-5.33-2.13-1.25-2.1-2.75-5.73-4.09-11.95l-5.93,.63-.23-2.16,5.69-.74c-3.28-14.58-17.62-61.52-17.62-61.52l-15.88,3.07L15.3-11.04C19.54,.77,20.53,6.42,20.53,6.42l-2.7-.46c-1.87-10.14-5.86-16.32-5.86-16.32L-10.54-.48c-.49,3.41,5.05,11.64,5.05,11.64C2,18.89,2.99,30.86,2.99,30.86l-31.09,10.84h-5.6s-1.01,.94-2.38,2.33c-2.8,2.85-7.13,7.56-7.43,9.86-.34,2.62,5.28,15.81,8.25,22.24,0,0,4.79-.87,6-1.33L.37,62.41l6.36,1.54-.39,1.97-5.13-1.01-28.56,12.26-6.15,2.49c.66,.75,12.01,16.55,19.24,19.58,0,0,35.96-5.44,42.53-2.04,6.56,3.41,20.53,43.48,20.7,45.23,0,0-8.62,5.65-3.41,55.23l1.84-.12,2.97-.19,.12,1.89c-1.2,.15-2.37,.27-3.51,.36,0,.73-.65,3.83-.65,3.83-1.15,.71-2.24,1.55-2.93,2.52,0,0-17.3-.95-19.84-2.05l-12.14-5.55c-10.53-3.35-35.53-22.25-37.19-23.75-1.66-1.49-17.88-13.3-22.61-18.09-1.48-1.5-2.84-3.31-4.05-5.19-2.66-4.14-4.6-8.63-5.5-10.97-1.32-3.41-3.92-10.22-6.86-16.91-.92-2.09-2.99-5.2-5.39-8.49-5.3-7.25-12.25-15.36-12.25-15.36-3.95-7.26-30.3-30.65-37.12-27.49-2.87,1.33-5.27,1.63-7.22,1.33-2.68-.4-4.5-1.93-5.54-3.44-.64-.93-4.61-3.46-9.59-6.41-8.87-5.26-20.97-11.88-23.21-13.26-3.49-2.16-27.15-9.31-27.15-9.31V-157.27H386.83V-76.88h-.27c-2.44-4.07-2.97-15.35-2.97-15.35-3.28-.02-6.9,.11-10.81,.35l2.66,42.1h8.81l2.31-1.45h.27v2.95l-.78,.66c-.05,.13-.04,11.06,.78,17v11.19h-.27s-5.47,.08-8.13,0c-2.66-.09-4.74-2.17-4.74-2.17l-.41-9.56s-3.99-.25-7.32-.91c-3.32-.67-3.49-2.99-3.49-2.99l-1.16-10.15-7.36,1.12,1.79,15.84s4.49,.25,7.39,.09c2.91-.17,2.83,1.99,2.83,1.99v7.98s-18.04-.41-18.87-1.24c-.83-.84-2.33-4.24-3.08-4.53-.74-.3-8.48,1.7-10.89-.88-2.41-2.57,0-6.23,0-6.23-2.08-1.17-5.23,1.16-5.82,1.49-.58,.34-10.64,2.33-12.83,1.5s-1.47-6.57-1.47-6.57c1.42-.91,13.39-3.57,13.39-3.57l1.38-3.27-12.08,.94s-12.91,3.91-14.66,5.07c0,0-31.21,9.15-31.73,9.15l4.46,16.96s6.49,.41,10.65,9.89l23.11,1.33,21.03,2.74,.08-9.64s0-1.91,6.57-1.91,6.82,1.66,6.82,1.66c0,0,2.09,5.15-1.53,7.07l-9.61,.08,.16,3.41,13.56,.91s.49-3.74,5.07-3.66c4.57,.09,6.05,4.66,6.05,4.66,0,0,12.77-4.32,30.84-3.74h.27v2.91h-10.39l.99,14.96h9.4v2.41h-8.73l.75,16.55h7.98v2.66h-13.68l13.41,19.53h.27v5.21h-.27l-10.96-16.58-24.47,10.88-22.91,5.7v2.72l15.1-3.61,.36,2.56-16.11,4.5,7.3,16.39,18.23-8.42,.95,2.16-17.65,8.82,20.08,11.08,28.33-9.76h2.02v12.36h-.27l-1.03-9.81-26.66,9.2,5.82,4.55s12.3,16.96,15.4,18.06h6.74v2.22h-3.8l2.83,4.38h.97v3.66h-.27l-1.09-1.55s-6.43,4.93-24.22,6.98v10.53l-2.2,.2c-.18-2.03-.29-5.05-.2-9.54l-10.68,1.75c.75,1.49,4.62,30.14,4.62,30.14l12.45-2.59-.93-14.33c-.02-.29-.02-.52-.04-.7l2.3-.17,1.08,14.7,18.91-3.94h.27v10.14h-.27l-5.72-3.11-65.92,11.92-.56,.07-2.79,.35-30.07,3.74-62.63,1.67s-.15,2.62-.48,7.03Zm6.02-233.33h-.01c-15.44,9.64-14.23-.42-14.23-.42-8.73-.91-50.69,8.25-50.69,8.25l14.19,41.61L235.68,1.39l-11.27-32.71Zm7.03,6.74c2.7,7.81,5.61,16.18,8.55,24.58l1.08-.21,9.64-2.41-11.86-9.25c-1.91-6.65-7.41-12.71-7.41-12.71ZM-62.39,14.09c-1.73-5.55-2.78-12.58-2.95-16.48-.28-6.37,19.78-8.7,19.78-8.7-.05-3.72-7.37-36.36-7.37-36.36h-16.35l-5.99,5.76v4.22l1,.99-2.33,1.67-1.33-1.61v-4.38h-4.87c0,32.25,19.79,54.22,20.41,54.89ZM227.49-36.07l8.2-4.48-5.24-9.98c0-5.73-2.97-16-2.97-16-5.81,1.32-9.17,2.12-9.17,2.12,.09,1.43,3.86,12.83,9.18,28.34Zm20.47,58.76l13.86-4.57s-.46-2.34-1.37-5.14c-.9-2.74-2.07-4.29-2.07-4.29l-12.72,3.95-1.11,.34c1.16,3.29,2.3,6.54,3.41,9.71ZM-81.92-47.56v4.04h4.22l6.87-6.59h17.18l-1.55-5.4-24.55-12.72h-6.05c6.54,8.31,3.88,20.67,3.88,20.67ZM259.21,54.51c1.37,3.85,2.45,6.92,3.18,8.94l9.35-2.21,1.28-7.94c-10.7,2.55-13.81,1.21-13.81,1.21Zm-.89-2.52c3.31,1.39,13.81-1.45,13.81-1.45-.55-1.08-3.44-7.62-5.13-15.86-1.52-7.43-4.29-14.24-4.29-14.24l-13.94,4.52c3.65,10.38,6.99,19.81,9.55,27.03Zm4.78,13.46c.18,.51,.27,.77,.27,.77l.8,18.19,23.56-5.49v-3.22l-12.56-20.17-1.65,7.42-10.42,2.5ZM386.56-21.6v-1.78c-2.86-2.7-2.68-23.82-2.68-23.82l-8.15,.25,.58,24.07c1.66,1.83,10.25,1.28,10.25,1.28Zm-3.53,156.96s-.94-3.57-4.6-5.07c-3.66-1.49-16.46-18.62-16.46-18.62-4.16,2.41-2.74,3.82-2.74,3.82,2.41,2.31,11.22,24.11,11.22,24.11,8.15-.33,12.58-4.24,12.58-4.24Zm-6.59-95.1l-.71-15.72h-13.93l9.43,15.72h5.21Zm-1.56-17.93l-1.18-15.99s-11.01,.14-22.2,5.35l8.64,10.64h14.74Zm-.19,27.38l-4.9-7.43-40.46,.28-1.11,22.89,21.39-5.27,25.08-10.47Zm-1.54-83.22v-2.8l-.37-10.25-9.04,1.13,.76,8.33c.13,1.16,.86,2.06,2.17,2.74l6.48,.85Zm-.41-15.78l-2.21-37.15c-19.45,4.16-31.84,2.4-31.84,2.4l1.55,39.31c19.7-3.64,32.5-4.56,32.5-4.56Zm-2.71-39.4v-3.01c-9.45,.69-19.88,1.94-31.43,3.64l.09,2.11c14.47,1.01,31.34-2.74,31.34-2.74Zm-35.72,128.42h33.63s-6.07-10.83-17.4-25.12c0,0-15.67,23.46-16.23,25.12Zm33.65,100.71s-7.32-18.38-11.73-25.11c0,0,.09-3.24,3.58-5.49,0,0-13.22-9.81-22.78-13.63,0,0,10.39,47.89,10.48,48.3,.08,.41,20.45-4.07,20.45-4.07Zm-4.41-165.03s.67-1.58-3.16-1.16l-5.49,.08s-1.66,1.08-2.24-6.53l-1.08-11.37-6.46,1.14s-.94,9.45,2.14,9.61l.08,9.31s.66,2,2.83,1.91l5.15-.41,.91,1.25,7.32,.25v-4.08Zm-13.43,34.06s3.59-1.22,3.26-1.66c-.33-.45-1.44-2.66-4.32-2.66s-2.11,2.02-2.11,2.02l3.17,2.3Zm.05,168.31c.17-4.8-5.66-35.35-5.66-35.35l-13.13,2.58c.5,4.57-1.5,5.15-1.5,5.15l-17.71,4.16,1.63,4.27,.31,25.99,8.62-1.08,27.44-5.72Zm-1.87-164.33v-2.87l-2.46-1.87-15.39-1.13-.28,32.15h1.54l16.59-26.28Zm-3.31-40.34c.43-2.34,.02-3.91-.41-4.81-.29-.61-.89-1.02-1.57-1.1-7.17-.87-7.51,4.68-7.09,5.69,.45,1.05,9.07,.22,9.07,.22Zm-1.14,166.83l-9.4-43.73-36.58,10.56c3.08,13.38,10.23,32.58,10.23,32.58l20.37-4.73s1.16-.09,1.49,3.15c.34,3.25,1.25,4.66,1.25,4.66l12.64-2.49Zm-1.35-181.93l-2.01,.32-4.36,.04-5.6-.03-1.39,4.8,.35,2.99,5.99,.36c3.71-2.11,7.43-1.55,7.43-1.55-.61-1.31-.41-6.93-.41-6.93Zm-3.64,41.26c1.22,0,.66-2.22,.66-2.77s-.44-.89-4.87-1c-4.44-.11-3.55,1.22-3.55,1.22V-.73h7.76Zm-2.94-43.73l-.99-20.7-5.79,.26,1.02,20.44h5.76Zm-1.1-23.11l-.95-19.8c-5.83,.88-11.79,1.86-17.78,2.89l-1.62,4.55v13.4l20.35-1.04Zm-1.45,161.37l-8.49-19.52-30.06,7.13c-.58,9.81,2.48,22.76,2.48,22.76l36.07-10.37Zm-.25-188.84l-.36-10.52-13.92,.6-.73-5.92-3.15,.33,1.13,18c5.91-.92,11.6-1.75,17.03-2.49Zm-5.23,243.21s1.82-.42,.74-5.24-.41-5.82-2.74-5.24-16.79,3.16-16.96,4.74l2.33,8.23s.17,1.25,2.79,.67c2.61-.59,13.84-3.16,13.84-3.16Zm-.1-192.3l-.79-20.5-6.32,.25-.11,6.23,1.83,1.89,.28,4.99-1.28,1.38h-8.04l1.89,2.55,.72,4.21,11.82-1Zm-1.15,79.9l.8-28.19-16.03-1.91,.1,5.74-5.07,2.19,2.49,7.08h8.73l4.82,15.09h4.16Zm.41-68.09c.39-.55-.49-3.71-.49-3.71l-11.17,2.75s-.86,2.84,1.69,3.01,9.59-1.5,9.97-2.05Zm-1.08,79.2l.36-8.15h-12.28l-6.7,2.02,7.34,19.38,9.04-13.25h2.24Zm-1.08,24.05l.92-20.5s-.02-.02-.04-.01l-10.13,13.48c-7.26,1.33-16.91,9.36-16.91,9.36l.12,3.33,26.04-5.66Zm-5.07-123.62v-2.58l-.55-.66h-6.96l-.75,.64v3.02l.97,.55h6.32l.97-.97Zm-.37,88.46l-3.49-12.31h-8.28l-3.36-9.22-20.65,6.55,2.68,9.58,15.97-5.16,4.41,13.05,7.36-2.28,5.36-.21Zm-1.1-94.08v-5.8l-14.24,.64-.11-2.82,7.75-.24-.27-13.4,2.06-4.11c-6.6,1.15-13.22,2.36-19.72,3.6l1.06,21.43,2.09,10.15,2.76,10.97c2.08-1.11,13.47-4.43,13.47-4.43l-.61-4.24-3.16-4.05v-5.93l1.61-1.55,7.31-.22Zm-5.6-50.91l-.29-3.44-14.84,1.78,.59,3.32,14.54-1.66Zm-.4,295.2l-.49-25.65-13.55-42.82c-5.9-17.62-5.49-34.58-5.49-34.58l-27.87,6.35,.35,8.48c-.09,1.72,12.34,31.12,22.9,55.74l9.57-2.11c.41-.09,.74-.11,.99-.09,.5,.04,.89,.42,.98,.91,.2,1.06,.6,4.12,.73,11.49,.17,9.81-1.7,14.33-1.7,14.33,2.45,5.64,3.98,9.16,3.98,9.16l9.6-1.21Zm-.08-124.02l-7.36-20.48-15.93,4.79,9.02,23.56c.12,.34,.55,.42,.8,.16,2.91-2.95,13.47-8.03,13.47-8.03Zm-3.92-52.49v-3.92l-26.44-1.71c-1.74-7.89-6.97-9.02-6.97-9.02l7.8,23.3,25.61-8.65Zm-4.12,29.56l-3.51-10.27-13.65,4.43,1.74,10.7,15.42-4.86Zm-7.66,134.19s1.77-6.22,.27-19.68c-.02-.23-.24-.39-.46-.34l-7.73,1.64c3.05,7.11,5.63,13.08,7.92,18.38Zm.4-210.03l-4.58-21.12-1.23-22c-12.93,2.48-25.33,5.03-36.11,7.33l5.83,20.88,7.31,22.89,28.78-7.98Zm-13.98,225.3l13.98-1.76c-2.09-3.61-16.1-37.45-26.2-62.06l-28.06,1.01c1.96,2.91,4.53,21.4,.6,22.13l-4.24,.28,.47,10.14-14.53,1.44s.36,1.4,.43,1.67c.45,1.67,.8,3.65,.8,3.65l-13.41,3.96,5.64,21.22,64.52-1.68Zm13.3-111.38l-.11-4.07-9.36-24.11-8.43,2.77,14.47,22.95,.18,3.16,3.25-.7Zm-11.08-30.29c.85-2.37-.02-8.1-1.65-14.92l-11.43,2.29c.55,7.76,5.1,15.07,5.1,15.07l7.98-2.44Zm-13.8-15.68l11.49-1.92c-3.91-15.3-10.77-34.4-10.77-34.4l-12.58,3.51c5.16,3.93,11.86,32.81,11.86,32.81Zm-14.83-35.57l14.52-3.95c-1.91-11.55-10.39-35.5-10.39-35.5-19.78,.34-30.4,8.9-30.4,8.9,8.81,4.8,14.58,21.28,14.58,21.28l11.69,9.27Zm-15.24,127.2l28.31-.83c-5.32-12.97-9.44-23.07-9.44-23.07l-.33-9.92-25.69,5.73c-1.55,.95-1.6,4.1-1.13,6.56,.5,2.67,1,4.23,1.96,6.8l6.32,14.73Zm18.21-37.37l-.83-17.13-.82-2.38-.84-2.44-3.34-9.69s-2.49-1.67-29.92,2.49c0,0-2.49,.45-2.83-3.88,0,0-5.93,.79-10.17-2.29l-27.05,5.22,1.84,8.37,10.89-2.43,.88,3.43-11.08,2.38,7.43,32.48,31.42-6.87-1.66-11.92,2.33-.27,2.21,11.91,8.26-1.94c-.89-1.49-2.38-11.8-2.72-12.02-.33-.23-4.1,.55-4.1,.55-1.5,.35-2.47,.28-3.1,.06-.95-.34-1.11-1-1.11-1l-3.82-16.79,2.55-.61,2.49,10.75c.33,2.44,1.5,5.08,1.5,5.08,3.77-.72,7.59-.37,7.59-.37l1.77,9.09c1.22,5.98,2.39,4.71,2.39,4.71l19.84-4.49Zm-.08-131.6l-6.93-25.87c-8.81,1.89-16.43,3.59-22.23,4.9,0,0,2.38,9.41,2.64,15.65l4.57,9.47s13.88-4.4,21.95-4.15Zm-14.92,56.16l12.84-3.82c-2.28-6.07-4.66-6.7-4.66-6.7l-11.12,2.76-.78,.17c.88,2.54,1.85,5.3,2.73,7.81l.99-.22Zm6.74,36.75l-6.11-17.72-15.01,5.7c-.08,4.63,2.39,9.45,2.39,9.45,5.46,2.99,18.73,2.57,18.73,2.57Zm-6.92-20.08l-7.97-23.14-.94,.28-11.66,3.4,5.71,24.73,13.67-4.87,1.19-.4Zm-1.56,118.21c.17-2.72,.52-12.6-2.76-18.83,0,0-12.38-23.61-9.81-30.59l-35.5,7.77,14,52.76,11.52-2.3-1.36-6.77s-.38-2,8.31-3.87c8.69-1.87,10.52-4.28,11.51,2.75l3.32-.18c.41-.02,.74-.33,.77-.74Zm6.3-94.76s-14.56-1.6-17.5-3.37l-8.69,1.21,.27,4.45s-.44,1.53,4.77,.93,21.15-3.22,21.15-3.22Zm-12.38,105.9c.08-6.03-.32-9.64-.7-11.07-.1-.36-.62-1.16-.98-1.06l-12.68,3.45c-.46,.12-.73,.59-.62,1.05,.54,2.13,1.03,4.23,1.45,5.87,.1,.38,1.2,3.03,1.2,3.03l12.33-1.27Zm-6.56-111.48s-2.71-5.74-2.66-9.29l-46.59,9.4,2.18,7.99s38.1-7.7,47.07-8.1Zm-2.87-11.97l-5.88-24.55-10.81,2.93,4.94,23.99,11.75-2.37Zm-15.8,133.59l11.49-2.73s-.85-5.5-2.18-7.41l-11.42,2.37,2.11,7.77Zm9.18-116.01l-.07-1.79-6.51,1.15c1.46,.87,6.58,.64,6.58,.64Zm-5.28,143.77l-7.08-26.66-38.34,5.69,2.6,26.5,42.82-5.53Zm-2.16-158.51l-4.88-23.85-10.41,2.82,4.57,23.19,10.72-2.16Zm-5.55,129.47l-2.75-10.35-35.62,6.56,.33,8.96,38.04-5.17Zm-3.52-13.28l-10.18-38.33-27.08,9.41-23.36,.84,1.11,35.02,23.72-.61,35.79-6.33Zm-3.75-113.61l-4.73-23-21.27,5.77,5.8,21.3,20.2-4.07Zm-7.04,73l-2.58-9.75-22.12,2.57h-27.35l-.89,9.73,2.72,7.32,22.56-.73,27.66-9.14Zm-48.64-72.02l28.93-7.57c-.1-.82-2.16-7.49-4.94-16.31l-14.43,4.47-3.2,.04-5.78-17.25,17.51-5.74c-5.15-16.05-10.19-31.58-10.19-31.58l-.95-11.53-35.47,9.07-29.43,6.15c6.07,18.12,18.11,65.36,19.96,71.41,1.75,5.74,4.65,4.66,4.65,4.66l19.37-5.49,13.97-.33Zm9.89-22.16l13.36-4.04c-1.34-4.24-2.82-8.88-4.32-13.55l-15.11,4.75,4.28,12.84h1.79Zm11.92,153.51l-.23-8.92-21.38,.52c0,.17,.27,10.31,.27,10.31l21.34-1.91Zm-14.86-219.39v-5.08c-9.24,3.11-16.68,4.25-22.75,2.89l-13.61,4.24,.51,7.31,35.85-9.36Zm-.88-9.31l-11.29-31.27-21.76,5.63c3.84,11.16,7.05,20.87,7.44,27.24,0,0,3.05,6.88,25.61-1.6Zm-10.58,179.23l-2.23-5.98h-26.18l-.45,5.81,28.86,.17Zm-2.08-8.6l.67-8.44h-9.46l-.02,8.44h8.81Zm.46-204.44l-8.92-24.69s-22.77,6.51-28.93,7.78l-19.96,1.68,3.33,17.77-10.17,2.38-.26,8.52-14.3,2.2-3.95-7.36s-15.63,7.65-17.87,9.73c0,0,14.35,35.8,28.35,42.9,0,0-6.32-24.69-6.49-28.6,0,0,.53-2.38,5.73-3.93l-2.49-8.37,12.75-4.33,.09-2.16,.08-1.77,12.05-3.88,7.35,5.76,12.41-4.49-3.55-10.67-9.81,3.02-2.93,4.22-2.11-1.33,3.6-4.94,13.64-3.93,4.1,12.58,4.32-1.44-5.76-18.01,2.49-.67,5.52,17.78,21.69-5.75Zm-11.7,204.44l.02-8.44h-14.25l-.66,8.44h14.89Zm-8.86-162.76l6.9-2.09c-7.76-3.6-12.98-12.45-16.93-28.06l-12.03,4.15,.09,4.37,1.96,1.78s-.77,4.38,3.16,4.77c3.94,.39,3.38,5.54,3.55,5.99,.17,.44,3.27,1.77,3.27,1.77l10.03,7.32Zm4.24-7.72c.08,.05,.19-.02,.18-.11-.13-1.22-1.05-7.49-7.08-24.71l-3.99,1.44s4.03,18.72,10.89,23.38Zm-54.39,23.26l46.94-14.06s-6.93-5.2-7.71-6.75c0,0-2.93-.94-4.65-2.88,0,0,.61-4.77-2.99-4.93,0,0-1.98-.35-3-2.87-.8-1.95-2.61-3.29-4.72-3.29h-2.15l-8.76,4.44-2.6-.11-.78,1.05-1.72-.17-2.88,2.28-4.49,.22-4.96,1.58c-.74,.23-1.17,.99-1,1.74l5.47,23.75Zm45.39-4.13l-.43-7.24-44.69,13.67,1.22,2.61,43.9-9.04Zm-19.68-33.27l.28-4.36-7.04-5.21-8.81,2.94-.34,3.99-12.41,4.46,1.83,6.18,5.15-.55,2.88-2h2.05l.67-.72h2.62l9.5-4.71,3.62-.02Zm-13.12-19.45l-3.01-15.31-4.71,.79,1.19,15.96,6.53-1.44Zm-9.12,10.86l.19-6.11-13.53,2.5,2.53,5.15,10.81-1.54Zm-.58-8.76l-1.33-16.47s-22.65,4.53-22.86,4.53l.54,8.82-2.91,3.74-1.83-1.39,2.24-2.94-.37-7.85-20.12,2.58s-6.55,3-14.97,6.87l11.33,5.68,21.22-3.45,.25,1.99-19.37,3.7,4.12,11.23,17.71-8.65-.54-1.39,2.32-.91c.24,.61,.41,1.01,.46,1.01,.12,0,6.86-3.74,9.39-4.32,2.83-.65,2.83-.67,2.83-.67l11.89-2.11ZM13.63-13.2l51.66-15.57s-5.38-1.17-11.64-10.98L7.42-28.02l.84,7.17,5.37,7.65ZM4.05-29.83l47.88-12.08s-14.69-23.37-16.79-31.17l-6.76,3.35S11.92-59.75-7.04-55.93L-.72-27.12l-2.35,.51c-2.36-10.77-6.8-28.57-6.8-28.57l-9.58,2.07c.92,7.41,.74,11.81,.74,11.81l6.24,13.39,2.49,12.97L-1.64-18.77c.02-.23-.03-.71-.14-1.39l2.62,.16,4.52-.59-1.31-9.24ZM42.34,154.73c1.06-9.31,3.99-13.13,3.99-13.13-.66-4.43-14.77-38.54-18.84-42.45-2.88-2.77-39.24,1.66-39.24,1.66l1.11,5.32,13.76,29.15-3.73,12.64s16.57,8.09,18.18,8.09,7.92-3.55,7.92-3.55h12.42l4.43,2.27Zm1.06,42.74c-.55-1.84-.98-7.04-1.25-13.3l-5.4-.5c-2.72-1.23-3.94-2.4-4.99-3.27-1.98-1.66-2.18-4.27-2.15-5.49l1.7,.05c-.16,4.11,5.6,6.77,5.6,6.77l5.16,.44c-.33-9.03-.34-19.67,.11-25.66l-3.61-1.78h-9.14l.04,14.07c-1.88,5.13-19.16,17.86-19.16,17.86,11.91,13.36,33.09,10.81,33.09,10.81Zm-15.91-29.49v-13.52l-1.66-.06-6.71,3.44-2.55,4.6,2.05,7.87,1.27,5.66c6.95-5.91,7.6-7.99,7.6-7.99Zm-3.59-238.83l-4.11-11.98-13.55-7.69c-14.84,6.82-33.3,15.31-33.43,15.39l6.12,19.49c32.57-5.53,44.97-15.21,44.97-15.21Zm-5.81,248.33l-1.52-6.67-2.13-8.7,2.13-4.27-4.27-1.33-6.87,3.6s3.11,9.76-1.55,14.58l-3.38,1.51c3.45,5.64,7.87,8.68,7.87,8.68,4.02-2.89,7.2-5.34,9.72-7.4ZM10.56-12.37l-3.83-5.71c-9.96,.67-21.28,8.46-21.28,8.46l-2.08,.79-.08-.22c-6.42,.61-12.05,1.88-12.05,1.88-2.75-1.37-13.39,.37-13.39,.37,0,0,1.17,3.1,2.85,10.59l3.5,.39s3.49-3.8,4.21-7.29l2.22,.47s-1.81,6.93-5.54,9.21l-3.85-.31c1.54,7.33,3.41,18.1,5.17,33.17h5.28l3.08-1.08s-4.41-11.85-5.61-19.42c-1.21-7.56-.21-11.18-.21-11.18L-12.64,1.64l-1.83-4.82,2.08-.79,1.5,1.33L10.56-12.37ZM2.72,159.11l7.2-3.6-8.2-4.27-4.55,1.67s-1.94,7.87,0,14.9c.61,2.19,1.47,4.22,2.44,6.07,0,0,7.28-.58,3.11-14.77Zm-1.72-23.11l-1.61-3.35c-12.86,7.09-28.04,8.95-34.75,4.57-.82-.53-1.66,.19-1.66,.19-1.44,3.91,3.46,8.9,3.46,8.9l29.6,4.24,4.96-14.55ZM-22.32,37.19L0,29.45S-1.5,19.97-7.04,13.24c0,0-4.22-6.4-4.93-9.06l-16.35,5.42s-1.73,7.22,6,27.59Zm13.56,97.01s-2.82-9.48-6.87-10.89-13.3,1.86-13.3,1.86c0,0-.94,7.4-3.96,11.16,0,0,6.34,4.35,24.13-2.13ZM-17.21-11l4.57-2.49c-1.56-10.9-2.24-13.51-2.24-13.51l-6.51-13.42c.64-5.22-.78-12.06-.78-12.06l-4.94,.99c.46,8.36,4.29,22.08,4.29,22.08l-1.37,1.37c-8.02-.41-5.49,17.5-5.49,17.5l.83,.96c5.9-1.36,11.64-1.42,11.64-1.42Zm4.3,116.46l-1.11-4.26c-6.26-.56-20.4-19.35-20.4-19.35-.83-.99-3.1-5.54-3.1-5.54l-7.71-6.82h-7.81c-1.83-8.42-3.27-5.76-4.38-6.43-1.11-.66-4.71-5.43-4.71-5.43l1.55-1.72c.78,2.06,4.05,5.27,4.05,5.27,3.43-.55,5.01,6.79,5.01,6.79l7.24-.08,4.65,4.07s-6.65-14.24-6.29-17.96c.26-2.66,5.2-8.43,7.97-11.49,1.11-1.21,1.87-2,1.87-2l-1.5-.78h-25.49l-26.04,17.42c-.48,.31-.58,.97-.22,1.41,1.99,2.41,7.65,9.61,7.97,13.54l1.33-.45-2.33-5.32-.22-7.42h2.22l.22,7.29,7.31,13.55,6.11-.21,3.12,5.32h3.37s6.41,3.74,6.8,3.57c.39-.16,3.42-.62,4.21-6.27,0,0-4.21-11.64-16.33-10.56-3.48,.31-6.78-9.73-6.78-9.73l2.12-1.24s2.51,8.9,5.42,8.77c3.06-.14,11.5-1,18.15,12.18,0,0-1.37,7.23-6.03,9.39,0,0-1.91,.33-8.06-4.32l-4.32,.12-2.87-4.9-2.62,3.99-3.39-.54-2.85-.37s2.74,4.22,11.8,4.05l8.89,18.07,4.16,2c6.37,.16,12.59,3.81,12.59,3.81,.44-.39,4.31-3.76,6.97-4.26s8.59,3.6,8.59,3.6c4.1-5.04,10.87-6.76,10.87-6.76Zm-12.09,8.62s-4.13-3.35-6.59-3.38c-2.47-.03-5.88,3.3-5.88,3.3,0,0,.54,10.75,6.99,9.31,0,0,4.82-8.23,5.48-9.23Zm-.94-144.28c-2.45-6.32-3.74-20.87-3.74-20.87l-20.28,3.62,7.2,38.05c.05,.26,.31,.41,.56,.33,2.3-.84,10.94-.84,10.94-.84-3.32-19.29,5.32-20.29,5.32-20.29Zm-5.29,155.77s-3.52,.3-5.41-1.95c-2.07-2.45-3.37-5.07-3.6-8.77,0,0-7.71-3.66-10.6-3.5l3.51,5.31,1.99,8.1s5.32,8.64,9.98,10.74c0,0,3.52-4.69,4.13-9.93Zm-10.17-87.89h5.32s-3.37-32.48-9.08-46.1c0,0-17.63,1.6-17.63,6.8,0,5.83,3.1,16.81,3.1,16.81,1.72,6.99,8.53,7.91,8.53,7.91,3.61,3.27,9.76,14.58,9.76,14.58Zm-31.22,45.98l.99-1.47-3.41-.56s-3.55-7.06-3.69-7.4c-.03,0-1.74,.62-1.74,.64,.83,5.93,2.28,8.07,2.28,8.07l5.57,.72Z"/><polygon class="cls-47" points="386.83 67.66 386.83 89.5 386.8 89.5 382.2 77.86 379.15 78.64 384.81 94.1 356.48 103.86 336.4 92.78 354.05 83.96 353.1 81.8 334.87 90.22 327.57 73.83 343.68 69.33 343.32 66.77 328.22 70.38 328.22 67.66 351.13 61.96 375.6 51.08 386.56 67.66 386.83 67.66"/><path class="cls-47" d="M386.83-19.43V3.43h-.27c-18.07-.58-30.84,3.74-30.84,3.74,0,0-1.48-4.57-6.05-4.66-4.58-.08-5.07,3.66-5.07,3.66l-13.56-.91-.16-3.41,9.61-.08c3.62-1.92,1.53-7.07,1.53-7.07,0,0-.25-1.66-6.82-1.66s-6.57,1.91-6.57,1.91l-.08,9.64-21.03-2.74-23.11-1.33c-4.16-9.48-10.65-9.89-10.65-9.89l-4.46-16.96c.52,0,31.73-9.15,31.73-9.15,1.75-1.16,14.66-5.07,14.66-5.07l12.08-.94-1.38,3.27s-11.97,2.66-13.39,3.57c0,0-.72,5.74,1.47,6.57s12.25-1.16,12.83-1.5c.59-.33,3.74-2.66,5.82-1.49,0,0-2.41,3.66,0,6.23,2.41,2.58,10.15,.58,10.89,.88,.75,.29,2.25,3.69,3.08,4.53,.83,.83,18.87,1.24,18.87,1.24v-7.98s.08-2.16-2.83-1.99c-2.9,.16-7.39-.09-7.39-.09l-1.79-15.84,7.36-1.12,1.16,10.15s.17,2.32,3.49,2.99c3.33,.66,7.32,.91,7.32,.91l.41,9.56s2.08,2.08,4.74,2.17c2.66,.08,8.13,0,8.13,0h.27Z"/><path class="cls-47" d="M373.7,6.34l1.18,15.99h-14.74l-8.64-10.64c11.19-5.21,22.2-5.35,22.2-5.35Z"/><polygon class="cls-47" points="369.79 42.28 374.69 49.71 349.61 60.18 328.22 65.45 329.33 42.56 369.79 42.28"/><path class="cls-47" d="M367.94,39.73h-33.63c.56-1.66,16.23-25.12,16.23-25.12,11.33,14.29,17.4,25.12,17.4,25.12Z"/><path class="cls-47" d="M364.31,160.31l.93,14.33-12.45,2.59s-3.87-28.65-4.62-30.14l10.68-1.75c-.09,4.49,.02,7.51,.2,9.54,.37,4.3,1.09,4.18,1.09,4.18l3.45,.09c.5-.02,.64,.14,.68,.46,.02,.18,.02,.41,.04,.7Z"/><path class="cls-47" d="M356.23,115.33c4.41,6.73,11.73,25.11,11.73,25.11,0,0-20.37,4.48-20.45,4.07-.09-.41-10.48-48.3-10.48-48.3,9.56,3.82,22.78,13.63,22.78,13.63-3.49,2.25-3.58,5.49-3.58,5.49Z"/><path class="cls-41" d="M349.08,214.51c5.74-2.74,11.06-1.17,8.15-.83-2.91,.33-19.45,6.73-19.45,6.73-20.94,6.86-29.48,7.09-32.93,6.3-1.89-.43-2.75-2.65-1.53-4.16,3.93-4.91,20.64-4.04,21.57-3.97,1.08,.09,18.46-1.33,24.19-4.07Z"/><path class="cls-47" d="M353.38,7.81c.33,.44-3.26,1.66-3.26,1.66l-3.17-2.3s-.77-2.02,2.11-2.02,3.99,2.21,4.32,2.66Z"/><path class="cls-47" d="M344.51,142.43s5.83,30.55,5.66,35.35l-27.44,5.72-8.62,1.08-.31-25.99-1.63-4.27,17.71-4.16s2-.58,1.5-5.15l13.13-2.58Z"/><polygon class="cls-47" points="348.3 10.58 348.3 13.45 331.71 39.73 330.17 39.73 330.45 7.58 345.84 8.71 348.3 10.58"/><path class="cls-47" d="M334.45,96.21l9.4,43.73-12.64,2.49s-.91-1.41-1.25-4.66c-.33-3.24-1.49-3.15-1.49-3.15l-20.37,4.73s-7.15-19.2-10.23-32.58l36.58-10.56Z"/><path class="cls-41" d="M331.96,209.19c11.89-1.25,10.06,.83,9.31,.5-.75-.34-2.83,.5-3.41,1.01-.58,.52-2.16-.51-2.08,.61,.09,1.13-.99,.85-.99,.85,0,0-11.81-1.06-13.89,0-2.08,1.07-5.57,.77-6.98,.85-.96,.06-2.3-.74-3.06-1.26-.31-.22-.3-.71,.04-.86,1.91-.86,5.26,.42,5.26,.42,2.33-2.78,3.58-1.04,3.58-1.04,6.4,1.58,12.22-1.08,12.22-1.08Z"/><path class="cls-41" d="M340.13,288.4v.29h-12.63c-3.16-1.11-17.68-1.88-17.68-1.88l1.05,1.59v.29h-2.83v-.29l-1.22-2.09s-29.37-1.92-46.27,2.09v.29h-7.99v-.29c17.13-7.08,50.72-4.81,50.72-4.81l-8.31-18.37-4-8.84-1.11-2.44,2.33-1.27,1.08,2.34,4.29,9.33,9.04,19.64s26.38,2.02,33.53,4.42Z"/><path class="cls-47" d="M324.88,74.28l8.49,19.52-36.07,10.37s-3.06-12.95-2.48-22.76l30.06-7.13Z"/><path class="cls-41" d="M332.21,226.48s-1.17,6.57-16.55,17.79c0,0-1.91,1-.58-.83s4.16-3.33,3.54-5.4c-.63-2.08-3.73,2.55-4.26,2.98-.52,.42-2.79-.24-2.79-.24,0,0-6.38-3.41-6.55-3.74,0,0,2.33-6.82,27.19-10.56Z"/><path class="cls-47" d="M328.63,142.93c1.08,4.82-.74,5.24-.74,5.24,0,0-11.23,2.57-13.84,3.16-2.62,.58-2.79-.67-2.79-.67l-2.33-8.23c.17-1.58,14.63-4.16,16.96-4.74s1.66,.42,2.74,5.24Z"/><polygon class="cls-47" points="327.44 7.58 326.64 35.77 322.48 35.77 317.66 20.68 308.93 20.68 306.44 13.6 311.51 11.41 311.41 5.67 327.44 7.58"/><polygon class="cls-47" points="326.33 38.73 325.97 46.88 323.73 46.88 314.69 60.13 307.35 40.75 314.05 38.73 326.33 38.73"/><path class="cls-47" d="M325.81,50.43l-.92,20.5-26.04,5.66-.12-3.33s9.65-8.03,16.91-9.36l10.13-13.48s.04-.01,.04,.01Z"/><polygon class="cls-47" points="315.96 23.46 319.45 35.77 314.09 35.98 306.73 38.26 302.32 25.21 286.35 30.37 283.67 20.79 304.32 14.24 307.68 23.46 315.96 23.46"/><path class="cls-47" d="M311.86,160.33l.49,25.65-9.6,1.21s-1.53-3.52-3.98-9.16c0,0,1.87-4.52,1.7-14.33-.13-7.37-.53-10.43-.73-11.49-.09-.49-.48-.87-.98-.91-.25-.02-.58,0-.99,.09l-9.57,2.11c-10.56-24.62-22.99-54.02-22.9-55.74l-.35-8.48,27.87-6.35s-.41,16.96,5.49,34.58l13.55,42.82Z"/><path class="cls-47" d="M304.91,41.48l7.36,20.48s-10.56,5.08-13.47,8.03c-.25,.26-.68,.18-.8-.16l-9.02-23.56,15.93-4.79Z"/><path class="cls-41" d="M282.49,239.98c1.58,.44,31.87,1.04,29.68,3.29-2.19,2.26-18.9,11.74-18.9,11.74l-1.08-2.34-2.33,1.27s-22.58,9.96-34.47,13.86c-11.89,3.91-34.93,12.38-47.47,6.94,1.79-6.6,3.33-14.22,4.63-22.07,7.05-.09,42.43-9.98,47.58-11.31s20.78-1.83,22.36-1.38Z"/><path class="cls-41" d="M281.5,193.31l30.07-3.74s-7.18,4.96-28.91,6.23c-21.35,1.26-38.73,3.04-57,3-.62,0-1.21,.26-1.61,.73l-1.52,1.72c-.42,.48-1.04,.76-1.69,.76h-2.45c.33-4.41,.48-7.03,.48-7.03l62.63-1.67Z"/><path class="cls-41" d="M311.57,240.78c-2.34,.83-8.46-.8-8.46-.8-3.32,.28-9.06-.7-9.06-.7-.17-1.16,5.9-.75,7.32-.66,1.41,.08,3.49-1.91,3.65-1.58,.17,.33,6.55,3.74,6.55,3.74Z"/><path class="cls-41" d="M303.78,211.52c0-1.25,6.4-.92,4.73,0-1.66,.91-4.73,0-4.73,0Z"/><path class="cls-47" d="M308.35,5.55v3.92l-25.61,8.65-7.8-23.3s5.23,1.13,6.97,9.02l26.44,1.71Z"/><polygon class="cls-47" points="300.72 28.76 304.23 39.03 288.81 43.89 287.07 33.19 300.72 28.76"/><path class="cls-41" d="M294.97,265.22l8.31,18.37s-33.59-2.27-50.72,4.81v.29h-14.38v-.29c2.33-1.15,50.36-21.35,56.61-23.1l.18-.08Z"/><path class="cls-47" d="M296.84,153.54c1.5,13.46-.27,19.68-.27,19.68-2.29-5.3-4.87-11.27-7.92-18.38l7.73-1.64c.22-.05,.44,.11,.46,.34Z"/><path class="cls-47" d="M296.97,186.73l-13.98,1.76-64.52,1.68-5.64-21.22,13.41-3.96s-.35-1.98-.8-3.65c-.07-.27-.43-1.67-.43-1.67l14.53-1.44-.47-10.14,4.24-.28c3.93-.73,1.36-19.22-.6-22.13l28.06-1.01c10.1,24.61,24.11,58.45,26.2,62.06Z"/><polygon class="cls-47" points="296.18 73.04 296.29 77.11 293.04 77.81 292.86 74.65 278.39 51.7 286.82 48.93 296.18 73.04"/><path class="cls-49" d="M294.97,265.22l-.18,.08c-6.25,1.75-54.28,21.95-56.61,23.1v.29h-35.16v-.29c1.2-2.39,2.32-5.25,3.36-8.48,5.86,2.09,21.74,2.43,26.4,1.26,4.65-1.16,40.14-11.04,58.19-24.8l4,8.84Z"/><path class="cls-41" d="M289.86,253.94l1.11,2.44c-18.05,13.76-53.54,23.64-58.19,24.8-4.66,1.17-20.54,.83-26.4-1.26,.53-1.64,1.05-3.37,1.54-5.18,12.54,5.44,35.58-3.03,47.47-6.94,11.89-3.9,34.47-13.86,34.47-13.86Z"/><path class="cls-47" d="M287.73,75.7v3.22l-23.56,5.49-.8-18.19s-.09-.26-.27-.77l10.42-2.5,1.65-7.42,12.56,20.17Z"/><path class="cls-47" d="M283.56,31.9c1.63,6.82,2.5,12.55,1.65,14.92l-7.98,2.44s-4.55-7.31-5.1-15.07l11.43-2.29Z"/><path class="cls-47" d="M282.9,29.22l-11.49,1.92s-6.7-28.88-11.86-32.81l12.58-3.51s6.86,19.1,10.77,34.4Z"/><path class="cls-47" d="M273.02,53.3l-1.28,7.94-9.35,2.21c-.73-2.02-1.81-5.09-3.18-8.94,0,0,3.11,1.34,13.81-1.21Z"/><path class="cls-47" d="M267,34.68c1.69,8.24,4.58,14.78,5.13,15.86,0,0-10.5,2.84-13.81,1.45-2.56-7.22-5.9-16.65-9.55-27.03l13.94-4.52s2.77,6.81,4.29,14.24Z"/><path class="cls-47" d="M269.65,121.94l-28.31,.83-6.32-14.73c-.96-2.57-1.46-4.13-1.96-6.8-.47-2.46-.42-5.61,1.13-6.56l25.69-5.73,.33,9.92s4.12,10.1,9.44,23.07Z"/><path class="cls-47" d="M261.82,18.12l-13.86,4.57c-1.11-3.17-2.25-6.42-3.41-9.71l1.11-.34,12.72-3.95s1.17,1.55,2.07,4.29c.91,2.8,1.37,5.14,1.37,5.14Z"/><path class="cls-47" d="M258.72,68.27l.83,17.13-19.84,4.49s-1.17,1.27-2.39-4.71l-1.77-9.09s-3.82-.35-7.59,.37c0,0-1.17-2.64-1.5-5.08l-2.49-10.75-2.55,.61,3.82,16.79s.16,.66,1.11,1l-.55,1.44-2.33,.27,1.66,11.92-31.42,6.87-7.43-32.48,11.08-2.38-.88-3.43-10.89,2.43-1.84-8.37,27.05-5.22c4.24,3.08,10.17,2.29,10.17,2.29,.34,4.33,2.83,3.88,2.83,3.88,27.43-4.16,29.92-2.49,29.92-2.49l3.34,9.69-14.47,2.77,.66,2.77,14.64-3.1h.01l.82,2.38Z"/><polygon class="cls-40" points="257.06 63.45 257.9 65.89 257.89 65.89 243.25 68.99 242.59 66.22 257.06 63.45"/><path class="cls-47" d="M257.39,6.14l-12.84,3.82-.99,.22c-.88-2.51-1.85-5.27-2.73-7.81l.78-.17,11.12-2.76s2.38,.63,4.66,6.7Z"/><path class="cls-47" d="M245.18,28.99l6.11,17.72s-13.27,.42-18.73-2.57c0,0-2.47-4.82-2.39-9.45l15.01-5.7Z"/><path class="cls-47" d="M250.71-2.62L241.07-.21,239.99,0c-2.94-8.4-5.85-16.77-8.55-24.58,0,0,5.5,6.06,7.41,12.71l11.86,9.25Z"/><polygon class="cls-47" points="236.4 3.49 244.37 26.63 243.18 27.03 229.51 31.9 223.8 7.17 235.46 3.77 236.4 3.49"/><path class="cls-47" d="M240.05,126.01c3.28,6.23,2.93,16.11,2.76,18.83-.03,.41-.36,.72-.77,.74l-3.32,.18c-.99-7.03-2.82-4.62-11.51-2.75-8.69,1.87-8.31,3.87-8.31,3.87l1.36,6.77-11.52,2.3-14-52.76,35.5-7.77c-2.57,6.98,9.81,30.59,9.81,30.59Z"/><path class="cls-47" d="M231.61,46.71c2.94,1.77,17.5,3.37,17.5,3.37,0,0-15.94,2.62-21.15,3.22s-4.77-.93-4.77-.93l-.27-4.45,8.69-1.21Z"/><path class="cls-47" d="M236.03,144.91c.38,1.43,.78,5.04,.7,11.07l-12.33,1.27s-1.1-2.65-1.2-3.03c-.42-1.64-.91-3.74-1.45-5.87-.11-.46,.16-.93,.62-1.05l12.68-3.45c.36-.1,.88,.7,.98,1.06Z"/><path class="cls-47" d="M236.27,90.44l-8.26,1.94-2.21-11.91,.55-1.44c.63,.22,1.6,.29,3.1-.06,0,0,3.77-.78,4.1-.55,.34,.22,1.83,10.53,2.72,12.02Z"/><path class="cls-47" d="M224.41-31.32L235.68,1.39l-62.01,16.73-14.19-41.61s41.96-9.16,50.69-8.25c0,0-1.21,10.06,14.23,.42h.01Z"/><path class="cls-47" d="M227.51,35.21c-.05,3.55,2.66,9.29,2.66,9.29-8.97,.4-47.07,8.1-47.07,8.1l-2.18-7.99,46.59-9.4Z"/><polygon class="cls-47" points="221.42 7.98 227.3 32.53 215.55 34.9 210.61 10.91 221.42 7.98"/><path class="cls-47" d="M222.99,163.39l-11.49,2.73-2.11-7.77,11.42-2.37c1.33,1.91,2.18,7.41,2.18,7.41Z"/><path class="cls-47" d="M220.61,48.32l.07,1.79s-5.12,.23-6.58-.64l6.51-1.15Z"/><polygon class="cls-47" points="208.32 167.22 215.4 193.88 172.58 199.41 169.98 172.91 208.32 167.22"/><path class="cls-41" d="M169.32,202.73l45.75-5.68s-.13,1.82-.39,4.96c0,0-29.79,3.16-33.56,3.71v-.67c0-.5-.43-.89-.92-.83l-9.44,1.04c-.67,.07-1.28-.43-1.33-1.1l-.11-1.43Z"/><polygon class="cls-47" points="208.36 11.52 213.24 35.37 202.52 37.53 197.95 14.34 208.36 11.52"/><path class="cls-49" d="M214.68,202.01c-.79,9.54-2.79,31.24-6.07,50.97,0,0-7.17,2.76-18.15,2.85-8.4,.06-13.2,2.37-14.98,3.44-.42,.25-.45,.84-.07,1.13,2.49,1.97,10.48,8.26,12.23,9.31,2.07,1.25,11.74,7.93,15.24,9.07-.86,2.76-1.78,5.19-2.74,7.21,0,0-27.88-25.67-97.72-36.15,0,0-42.4-6.98-62.68-7.48-20.29-.5-35.97-5.65-51.49-21.45l-1.72,1.5c17.79,23.27,53.21,22.44,53.21,22.44,25.44,1.33,62.27,7.49,62.27,7.49,8.1,1.31,15.66,2.84,22.67,4.5,0,0-1.42,2.48-.53,5.08,.89,2.61-4.93,6.93-4.93,6.93-5.6-8.7-27.27-11.75-29.54-11.75s-24.56-3.05-25.78-3.55c-1.22-.49-12.69-.72-12.69-.72,0,0-.28,1.94,0,2.66s1.94,1.89,1.33,4.44-1.88,3.43-1.99,4.04-.39,5.99-.45,6.88c-.05,.88,.06,5.21-3.05,7.59-3.1,2.38-6.87,5.1-7.59,5.6s-4.49,2.51-5.71,4.36v.29h-2.88v-.29s.39-1.76,8.2-6.14c7.82-4.37,8.82-7.09,9.43-9.09,.61-1.99,.99-15.9,.99-18.51s-2.16-3.77-2.99-4.43c-.83-.67-11.2-1.83-24.66-3.22-13.47-1.38-30.32-10.58-31.15-11.02-.83-.45-18.46-16.3-19.01-16.8-.56-.5-15.24-2.82-15.93-2.94-.69-.11-4.13-2.38-3.02-4.76,1.12-2.39,6.03-3.33,6.03-3.33,2.89-3.88,11.64-4.04,10.37-4.15-1.28-.11-4.03-2.55-4.03-2.55l.23-.67-3.88-1.58c-1.17-.48-9.13-8.32-11.74-11.16-.47-.5-1.25-.52-1.75-.05l-3.94,3.79-1.54-1.1,.03-.04,3.69-3.69c.75-.75,.78-1.94,.07-2.72-3-3.27-10.92-10.19-13.32-11.01-2.91-1-5.36-2.53-5.19-3.61,.16-1.09,.04-10.6-.25-11.27-.29-.66-5.66-2.95-3.25-4.2,.39-.2,.72-.39,1-.57,.92-.59,1.06-1.87,.32-2.69-1.24-1.37-3.05-3.76-3.19-6.17-.2-3.7-1.29-9.36-2.28-11.06-1-1.7-5.95-8.36-7.49-9.06-1.53-.71-.83-5.16-1.41-6.94-.58-1.79-3.57-1.96-6.19-2.79s-2.87-2.53-2.91-2.74,.16-2.75,0-3.99c-.17-1.25-1.37-1.62-2.95-3.25-1.58-1.62-6.7-1.91-7.73-2.2-1.04-.29-2.75-1.7-3.58-2.74s-7.27-6.2-8.4-5.95c-1.12,.25-6.9-2.16-6.9-2.16l-.83,1.46-1.91,1.41-1.68-1.01,1.68-2.81c-2.49,.12-7.61-2.54-8.15-3.12s-11.34-6.9-15.04-8.02c-3.7-1.13-7.15-3.66-7.15-3.66-2.96-4.03-23.92-12.42-23.92-12.42,0,0-2.99,4.94-3.44,6.32,0,0-1.03,1.36-1.09,2.11-.07,.75,1.25,5.15-3.28,12.8v-17.4c1.51-1.83,3.43-5.88,3.27-6.26-.17-.39-3.27-2-3.27-2v-11.75c1.9-.5,2.77,0,2.77,0,1.34,1.72,8.07,3.48,9.9,3.94,.3,.07,.62,.06,.92,0,3.43-.78,6.11-.5,7.57-.21,.7,.14,1.3,.62,1.51,1.3,2.09,6.58,6.62,8.52,8.64,9.06,.61,.17,1.1,.61,1.36,1.19,1.5,3.36,4.89,4.37,5.4,4.67,.42,.25,3.56-1.14,5.12-1.86,.53-.25,1.13-.26,1.69-.09,1.35,.39,2.06-.04,2.06-.04,.98-.43,1.79-.6,2.46-.6,2.27,0,2.91,2.06,3.08,3.37,.06,.49-.32,.91-.81,.9-.8,0-1.79,.15-1.79,.15-1.06,1.28,.66,2.22,.66,2.22-1.22,1.94,1.83,1.77,1.83,1.77,1.63-1.31,2.8-1.97,3.63-2.25,1-.33,1.98,.46,1.92,1.51-.06,.98,.13,2.5,1.55,3.68,1.3,1.08,3.09,.48,4.37-.23,.4-.22,.83-.33,1.27-.33,.69,0,1.37,.27,1.87,.79l1.61,1.64c.54,.56,1.29,.88,2.07,.88h2.35c.35,0,.7,.04,1.04,.14,8.1,2.41,18.82,8.12,21.41,9.54,.39,.21,.72,.48,.99,.82,2.06,2.55,11.53,14.12,18.22,20.11,2.24,2,4.09,4.21,5.59,6.32,2.5,3.53,4.03,6.79,4.72,8.43,.28,.66,.32,1.38,.13,2.06-1.14,3.98,.21,6.4,.31,6.92,.09,.43,7.82,11.69,12.75,18.92,1.38,2.02,2.54,3.73,3.25,4.8,3.26,4.87,10.38,9.2,30.01,26.27,18.72,16.27,41.67,22.12,43.78,22.63,.11,.03,.16,.04,.16,.04,1.19,.2,8.95,1.5,15.58,2.05v.64c0,.53,.4,.97,.93,1.01l33.47,2.43c.69,.05,1.31,.41,1.74,.94,3.02,3.78,10.64,2.64,13.62,2.02,.73-.15,1.28-.74,1.38-1.48l.51-3.98,2.22-.13v4.89c0,.93,.74,1.72,1.67,1.74,8.27,.16,22.6-3.69,27.41-5.06,.97-.28,1.63-1.16,1.63-2.16v-1.19l11.63-.67,1.61-.2,32.81-4.07,.11,1.43c.05,.67,.66,1.17,1.33,1.1l9.44-1.04c.49-.06,.92,.33,.92,.83v.67c3.77-.55,33.56-3.71,33.56-3.71ZM-125.53,81.99c1.41-.66,1.01-2.33,1.01-2.33,0,0-2.09-.26-2.09,1.37,0,1.27-.34,1.63,1.08,.96Zm-48.64-26.08c.17-.61-3.82-1.27-3.91,.39,0,0,1.09,2.08,2.08,1.42,1-.67,1.67-1.2,1.83-1.81Z"/><polygon class="cls-47" points="204.94 154.49 207.69 164.84 169.65 170.01 169.32 161.05 204.94 154.49"/><path class="cls-41" d="M208.61,252.98c-1.25,7.51-2.69,14.74-4.32,20.9-.23-.11-7.8-3.51-11.63-5.84-1.42-.86-3.26-.55-4.33,.72-.34,.39-.6,.74-.69,.95-1.75-1.05-9.74-7.34-12.23-9.31-.38-.29-.35-.88,.07-1.13,1.78-1.07,6.58-3.38,14.98-3.44,10.98-.09,18.15-2.85,18.15-2.85Z"/><polygon class="cls-47" points="193.99 113.23 204.17 151.56 168.38 157.89 144.66 158.5 143.55 123.48 166.91 122.64 193.99 113.23"/><path class="cls-41" d="M204.29,273.88c-.45,1.73-.92,3.36-1.4,4.9h0c-3.5-1.14-13.17-7.82-15.24-9.07,.09-.21,.35-.56,.69-.95,1.07-1.27,2.91-1.58,4.33-.72,3.83,2.33,11.4,5.73,11.63,5.84Z"/><polygon class="cls-47" points="195.69 14.95 200.42 37.95 180.22 42.02 174.42 20.72 195.69 14.95"/><polygon class="cls-47" points="190.8 101.2 193.38 110.95 165.72 120.09 143.16 120.82 140.44 113.5 141.33 103.77 168.68 103.77 190.8 101.2"/><path class="cls-47" d="M190.1,98.92l-20.45,2.28H104.42l-.09,2.57h5.46l-2.38,29.4-8.2,6.05h-15.02v1.6l2.38,1.06h8.35l-4.14,2.05v27.71l3.27,1.11-3.88,34.03-13.02,1.05-31.09-1.5c2.38-2.27,6.26-3.21,6.26-3.21,5.6-3.66-.31-5.88-.31-5.88l-1.64,.11-2.97,.19s-3.03-36.49,2.09-51.87c0,0,.12-1.19,.28-3.17,.62-7.53,1.89-26.48-.32-34.57,3.13,6.59,3.45,14.11,7.64,17.32,9.3,7.12,21.61-.11,21.61-.11l-1.47-2.54s-17.32,8.08-21.47-4.89c-3.25-10.13-4.37-13.85-8.79-18.17h-.01c-.2-.53-6.87-16.97-7.75-18.41,.53-1.93,1.19-5.19,1.33-5.9,.02-.09,.03-.14,.03-.14l4.61,.08c3.75,3.16,6.65,3.99,7.07-1.08s-4.2-3.49-4.2-3.49l-1.12-13.97c-2.87-2.28-2.37-9.31-2.37-9.31l-1.04-1.28-2.99,.16-4.86,4.03,.24,8.77,2.04,2.46-.29,2.32h-1.5l-9.27-17.16,47.43-14.22,15.96-.33,5.45,1.83,.48-.05,5.93-.63c1.34,6.22,2.84,9.85,4.09,11.95,1.09,1.84,3.27,2.71,5.33,2.13l14.25-4.02,6.21,21.39,2.33-.94-5.99-20.78,2.99-1.11h13.19l29.82-7.87,5.54,20.39c.89,6.99,10.2,44.56,10.2,44.56Z"/><path class="cls-41" d="M186.22,280.17s-3.1,7.16-3.27,8.23v.29h-3.27v-.29s2.99-7.75,4.71-9.27c.63,.35,1.24,.7,1.83,1.04Z"/><path class="cls-41" d="M184.39,279.13c-1.72,1.52-4.71,9.27-4.71,9.27v.29h-20.5v-.29s-12.09-11.62-20.73-17.22c-8.65-5.6-14.69-2.55-14.69-2.55,.11-.55,3.04-6.82,3.04-6.82-1.5-1.83,0-4.46,0-4.46,27.12,6.63,46.02,15.29,57.59,21.78Z"/><path class="cls-47" d="M173.67,31.36l-28.93,7.57-13.97,.33-19.37,5.49s-2.9,1.08-4.65-4.66c-1.85-6.05-13.89-53.29-19.96-71.41l29.43-6.15,35.47-9.07,.95,11.53s5.04,15.53,10.19,31.58l-17.51,5.74,5.78,17.25,3.2-.04,14.43-4.47c2.78,8.82,4.84,15.49,4.94,16.31Z"/><polygon class="cls-47" points="169.32 198.02 169.53 199.81 136.18 204.12 136.16 203.99 132.88 176.21 166.8 173.19 169.32 198.02"/><path class="cls-47" d="M167.99,12.73l-13.36,4.04h-1.79l-4.28-12.84,15.11-4.75c1.5,4.67,2.98,9.31,4.32,13.55Z"/><path class="cls-47" d="M166.32,161.36l.23,8.92-21.34,1.91s-.27-10.14-.27-10.31l21.38-.52Z"/><path class="cls-41" d="M159.18,288.4v.29h-48.33v-.29c4.65-5.34,8.86-13.95,8.86-13.95,1.78-.55,3.94-5.27,4.05-5.82,0,0,6.04-3.05,14.69,2.55,8.64,5.6,20.73,17.22,20.73,17.22Z"/><polygon class="cls-47" points="141.99 152.24 142.74 172.39 129.98 173.19 133.68 204.28 121.32 204.62 117.77 202.62 94.05 202.62 97.5 170 125.4 170 125.26 152.24 139.33 152.24 139.67 152.24 141.99 152.24"/><polygon class="cls-47" points="140.91 123.56 141.9 149.99 139.67 149.99 99.61 149.99 100.43 142.26 110.29 134.62 111.16 123.39 140.91 123.56"/><polygon class="cls-47" points="138 114.83 140.23 120.81 111.37 120.64 111.82 114.83 138 114.83"/><path class="cls-40" d="M139.67,149.99v2.25h-14.41l.14,17.76h-27.9l-3.45,32.62h23.72l3.55,2,12.36-.34,2.48-.29,.02,.13,.33,2.68-1.61,.2-11.63,.67-30.71,1.78-2.22,.13-10.97,.63-27.72-1.27s-3.71-.39-10.69-.78c-.73-.04-1.49-.1-2.27-.16-6.63-.55-14.39-1.85-15.58-2.05,0,0-.05-.01-.16-.04-1.91-.56-12.64-6.01-12.64-6.01l1.11-1.55,12.14,5.55c2.54,1.1,19.84,2.05,19.84,2.05,.69-.97,1.78-1.81,2.93-2.52,2.43-1.5,5.16-2.36,5.16-2.36,1.61-1.61-1-1.83-1-1.83l-.12-1.89,1.64-.11s5.91,2.22,.31,5.88c0,0-3.88,.94-6.26,3.21l31.09,1.5,13.02-1.05,3.88-34.03-3.27-1.11v-2.07h2.33l1.28,.43,2.35-20.34,2.87,.33h40.06Zm-16.99,17.16v-14.91h-23.31l-1.57,14.91h24.88Z"/><polygon class="cls-47" points="138.82 103.77 138.15 112.21 129.34 112.21 129.36 103.77 138.82 103.77"/><polygon class="cls-47" points="126.93 103.77 126.91 112.21 112.02 112.21 112.68 103.77 126.93 103.77"/><path class="cls-49" d="M126.8,257.35s-1.5,2.63,0,4.46c0,0-2.93,6.27-3.04,6.82s-2.27,5.27-4.05,5.82c0,0-4.21,8.61-8.86,13.95v.29h-2.55v-.29c8.64-9.22,10.92-19.55,10.92-19.55,0,0,5.82-4.32,4.93-6.93-.89-2.6,.53-5.08,.53-5.08,.72,.17,1.42,.34,2.12,.51Z"/><path class="cls-48" d="M123.27,207.67v1.19c0,1-.66,1.88-1.63,2.16-4.81,1.37-19.14,5.22-27.41,5.06-.93-.02-1.67-.81-1.67-1.74v-4.89l30.71-1.78Z"/><polygon class="cls-47" points="122.68 152.24 122.68 167.15 97.8 167.15 99.37 152.24 122.68 152.24"/><path class="cls-41" d="M119.22,268.85s-2.28,10.33-10.92,19.55v.29H33.75v-.29c1.22-1.85,4.99-3.86,5.71-4.36s4.49-3.22,7.59-5.6c3.11-2.38,3-6.71,3.05-7.59,.06-.89,.34-6.27,.45-6.88s1.38-1.49,1.99-4.04-1.05-3.72-1.33-4.44,0-2.66,0-2.66c0,0,11.47,.23,12.69,.72,1.22,.5,23.5,3.55,25.78,3.55s23.94,3.05,29.54,11.75Z"/><path class="cls-47" d="M101.67,30.95l-5.69,.74-5.57-2.16-16.21,.25-49.8,14.84-9.13,9.98c-.36-.25-7.61-4.98-32.06-2.95,0,0-15.3,.07-19.29-7.62,1.37-1.39,2.38-2.33,2.38-2.33h5.6L2.99,30.86S2,18.89-5.49,11.16c0,0-5.54-8.23-5.05-11.64L11.97-10.36s3.99,6.18,5.86,16.32l2.7,.46s-.99-5.65-5.23-17.46l52.87-16.46,15.88-3.07s14.34,46.94,17.62,61.52Z"/><polygon class="cls-47" points="97.48 143.3 96.74 149.66 94.39 170 93.11 169.57 93.32 145.55 97.48 143.3"/><path class="cls-40" d="M15.27,54.6l9.13-9.98,49.8-14.84,16.21-.25,5.57,2.16,.23,2.16-.48,.05-5.45-1.83-15.96,.33-47.43,14.22,9.27,17.16h1.5l.29-2.32-2.04-2.46-.24-8.77,4.86-4.03,2.99-.16,1.04,1.28s-.5,7.03,2.37,9.31l1.12,13.97s4.62-1.58,4.2,3.49-3.32,4.24-7.07,1.08l-4.61-.08s0,.05-.03,.14l-2.13-.47-13.76-26.77-7.02,7.92h0l-9.22,10.41-2.06-.4,.39-1.97,8.54-9.35Zm33.23,20.44c.52-.06,1.88-.74,1.24-2.17-.5-1.1-1.63-.19-1.63-.19l-.15,.14c-.62,.63-.54,1.73,.24,2.14,.11,.06,.21,.08,.3,.08Zm-2.89-2.36l-.54-9.75-.95,.8-4.38,1.61-.64,3.4,1.78,4.08,4.73-.14Zm-.8-13.09l-.22-1.65s-2.52-.97-2.65-9.2l-3.86,2.2,.2,7.19,1.87,2.83v1.7l2.08-.87,2.58-2.2Z"/><path class="cls-48" d="M90.34,209.58l-.51,3.98c-.1,.74-.65,1.33-1.38,1.48-2.98,.62-10.6,1.76-13.62-2.02-.43-.53-1.05-.89-1.74-.94l-33.47-2.43c-.53-.04-.93-.48-.93-1.01v-.64c.78,.06,1.54,.12,2.27,.16,6.98,.39,10.69,.78,10.69,.78l27.72,1.27,10.97-.63Z"/><path class="cls-40" d="M77.23,122.6l1.47,2.54s-12.31,7.23-21.61,.11c-4.19-3.21-4.51-10.73-7.64-17.32,0-.01-.01-.02-.01-.03-.22-.47-.46-.93-.71-1.38-3.25-5.87-9.45-9.52-9.45-9.52,0,0-7.01-5.95-8.44-11.27-1.16-4.35,6.36-6.03,6.36-6.03l1.21-4.94,2.13,.47c-.14,.71-.8,3.97-1.33,5.9-.12,.46-.24,.85-.34,1.11,0,0-7.07,.83-4.37,5.32,0,0,3.29,4.62,4.74,5.7,3.42,2.54,5.86,4.46,7.72,6.27h.01c4.42,4.33,5.54,8.05,8.79,18.18,4.15,12.97,21.47,4.89,21.47,4.89Z"/><path class="cls-45" d="M50.49,199.24s2.61,.22,1,1.83c0,0-2.73,.86-5.16,2.36,0,0,.65-3.1,.65-3.83,1.14-.09,2.31-.21,3.51-.36Z"/><path class="cls-45" d="M49.74,72.87c.64,1.43-.72,2.11-1.24,2.17-.09,0-.19-.02-.3-.08-.78-.41-.86-1.51-.24-2.14l.15-.14s1.13-.91,1.63,.19Z"/><path class="cls-41" d="M49.45,107.93c2.21,8.09,.94,27.04,.32,34.57l-.8-.07c-.17-1.75-14.14-41.82-20.7-45.23-6.57-3.4-42.53,2.04-42.53,2.04-7.23-3.03-18.58-18.83-19.24-19.58l6.15-2.49L1.21,64.91l5.13,1.01,2.06,.4,9.22-10.41h0c9.89,2.79,19.57,23.79,19.57,23.79,0,0-7.52,1.68-6.36,6.03,1.43,5.32,8.44,11.27,8.44,11.27,0,0,6.2,3.65,9.45,9.52,.25,.45,.49,.91,.71,1.38,0,.01,.01,.02,.01,.03Z"/><path class="cls-45" d="M48.97,142.43l.8,.07c-.16,1.98-.28,3.17-.28,3.17-5.12,15.38-2.09,51.87-2.09,51.87l-1.84,.12c-5.21-49.58,3.41-55.23,3.41-55.23Z"/><path class="cls-41" d="M49.49,254.66c0,2.61-.38,16.52-.99,18.51-.61,2-1.61,4.72-9.43,9.09-7.81,4.38-8.2,6.14-8.2,6.14v.29H-85.21v-.29s12.22-10.87,8.39-23.51c0,0-1.65-21.41,.72-24.4,2.03-2.55,4.55-12.93,4.55-12.93,0,0,6.28-10.36,8.64-13.41,3.36-4.32,3.5-18.98,3.5-18.98l.46-.46c1.51,4.4,7.46,8.24,7.46,8.24,6.82,1.61,10.25,5.21,10.25,5.21,0,0-4.91,.94-6.03,3.33-1.11,2.38,2.33,4.65,3.02,4.76,.69,.12,15.37,2.44,15.93,2.94,.55,.5,18.18,16.35,19.01,16.8,.83,.44,17.68,9.64,31.15,11.02,13.46,1.39,23.83,2.55,24.66,3.22,.83,.66,2.99,1.83,2.99,4.43Z"/><polygon class="cls-47" points="45.07 62.93 45.61 72.68 40.88 72.82 39.1 68.74 39.74 65.34 44.12 63.73 45.07 62.93"/><path class="cls-41" d="M46.33,141.6s-2.93,3.82-3.99,13.13l-4.43-2.27h-12.42s-6.31,3.55-7.92,3.55S-.61,147.92-.61,147.92l3.73-12.64-13.76-29.15-1.11-5.32s36.36-4.43,39.24-1.66c4.07,3.91,18.18,38.02,18.84,42.45Z"/><path class="cls-47" d="M44.59,57.94l.22,1.65-2.58,2.2-2.08,.87v-1.7l-1.87-2.83-.2-7.19,3.86-2.2c.13,8.23,2.65,9.2,2.65,9.2Z"/><path class="cls-47" d="M39.21,81.13c.88,1.44,7.55,17.88,7.75,18.4-1.86-1.81-4.3-3.73-7.72-6.27-1.45-1.08-4.74-5.7-4.74-5.7-2.7-4.49,4.37-5.32,4.37-5.32,.1-.26,.22-.65,.34-1.11Z"/><path class="cls-41" d="M29.61,174.91c-.03,1.22,.17,3.83,2.15,5.49,1.05,.87,2.27,2.04,4.99,3.27l5.4,.5c.27,6.26,.7,11.46,1.25,13.3,0,0-21.18,2.55-33.09-10.81,0,0,17.28-12.73,19.16-17.86l-.04-14.07h9.14l3.61,1.78c-.45,5.99-.44,16.63-.11,25.66l-5.16-.44s-5.76-2.66-5.6-6.77l-1.7-.05Z"/><path class="cls-47" d="M24.65,47.99l13.76,26.77-1.21,4.94s-9.68-21-19.57-23.79l7.02-7.92Z"/><path class="cls-41" d="M27.49,154.46v13.52s-.65,2.08-7.6,7.99l-1.27-5.66-2.05-7.87,2.55-4.6,6.71-3.44,1.66,.06Z"/><path class="cls-41" d="M16.57,170.81l1.52,6.67c-2.52,2.06-5.7,4.51-9.72,7.4,0,0-4.42-3.04-7.87-8.68l3.38-1.51c4.66-4.82,1.55-14.58,1.55-14.58l6.87-3.6,4.27,1.33-2.13,4.27,2.13,8.7Z"/><path class="cls-40" d="M10.31,199.9s10.73,5.45,12.64,6.01c-2.11-.51-25.06-6.36-43.78-22.63-19.63-17.07-26.75-21.4-30.01-26.27-.71-1.07-1.87-2.78-3.25-4.8l1.66-.89c1.21,1.88,2.57,3.69,4.05,5.19,4.73,4.79,20.95,16.6,22.61,18.09,1.66,1.5,26.66,20.4,37.19,23.75l-1.11,1.55Z"/><path class="cls-41" d="M15.27,54.6l-8.54,9.35-6.36-1.54-29.63,12.39c-1.21,.46-6,1.33-6,1.33-2.97-6.43-8.59-19.62-8.25-22.24,.3-2.3,4.63-7.01,7.43-9.86,3.99,7.69,19.29,7.62,19.29,7.62,24.45-2.03,31.7,2.7,32.06,2.95Z"/><path class="cls-41" d="M9.92,155.51l-7.2,3.6c4.17,14.19-3.11,14.77-3.11,14.77-.97-1.85-1.83-3.88-2.44-6.07-1.94-7.03,0-14.9,0-14.9l4.55-1.67,8.2,4.27Z"/><path class="cls-41" d="M-.61,132.65l1.61,3.35-4.96,14.55-29.6-4.24s-4.9-4.99-3.46-8.9c0,0,.84-.72,1.66-.19,6.71,4.38,21.89,2.52,34.75-4.57Z"/></g><g><path class="cls-10" d="M202.88,278.78c-.86,2.76-1.78,5.19-2.74,7.21,0,0-27.88-25.67-97.72-36.15,0,0-42.4-6.98-62.68-7.48-20.29-.5-35.97-5.65-51.49-21.45l-1.72,1.5c17.79,23.27,53.21,22.44,53.21,22.44,25.44,1.33,62.27,7.49,62.27,7.49,8.1,1.31,15.66,2.84,22.67,4.5,.72,.17,1.42,.34,2.12,.51,27.12,6.63,46.02,15.29,57.59,21.78,.63,.35,1.24,.7,1.83,1.04,8.34,4.84,12.31,8.23,12.31,8.23"/><path class="cls-10" d="M23.11,205.95c1.19,.2,8.95,1.5,15.58,2.05,.78,.06,1.54,.12,2.27,.16,6.98,.39,10.69,.78,10.69,.78l27.72,1.27,10.97-.63,2.22-.13,30.71-1.78,11.63-.67,1.61-.2,32.81-4.07,45.75-5.68s-.13,1.82-.39,4.96c-.79,9.54-2.79,31.24-6.07,50.97-1.25,7.51-2.69,14.74-4.32,20.9-.45,1.73-.92,3.36-1.4,4.9"/><path class="cls-10" d="M-53.15,111.27h0c.13,0,4.27,6.66,4.27,6.66l1.83,8.43s7.48,9.09,8.97,9.81c0,0-2.32,1.33-.27,6.04s3.88,5.6,6.04,6.04,27.32,4.05,27.32,4.05c-2,8.68-.61,16,2,21.81l-1.79,.29c-3.7,.58-6.36-4.37-6.36-4.37l-1.04,1.83c2.7,6.07,10.09,4.11,10.09,4.11,4.8,9.24,12.4,14.18,12.4,14.18,0,0,10.75,11.6,36.67,9.45,1.14-.09,2.31-.21,3.51-.36,0,0,2.61,.22,1,1.83,0,0-2.73,.86-5.16,2.36-1.15,.71-2.24,1.55-2.93,2.52,0,0-17.3-.95-19.84-2.05l-12.14-5.55-1.11,1.55s10.73,5.45,12.64,6.01"/><path class="cls-10" d="M95.98,31.69l5.69-.74c-3.28-14.58-17.62-61.52-17.62-61.52l-15.88,3.07L15.3-11.04C19.54,.77,20.53,6.42,20.53,6.42l-2.7-.46c-1.87-10.14-5.86-16.32-5.86-16.32L-10.54-.48c-.49,3.41,5.05,11.64,5.05,11.64C2,18.89,2.99,30.86,2.99,30.86l-31.09,10.84h-5.6s-1.01,.94-2.38,2.33c-2.8,2.85-7.13,7.56-7.43,9.86-.34,2.62,5.28,15.81,8.25,22.24,0,0,4.79-.87,6-1.33L.37,62.41l6.36,1.54,8.54-9.35,9.13-9.98,49.8-14.84,16.21-.25,5.57,2.16Z"/><path class="cls-10" d="M-11.75,100.81s36.36-4.43,39.24-1.66c4.07,3.91,18.18,38.02,18.84,42.45,0,0-2.93,3.82-3.99,13.13l-4.43-2.27h-12.42s-6.31,3.55-7.92,3.55S-.61,147.92-.61,147.92l3.73-12.64-13.76-29.15-1.11-5.32Z"/><path class="cls-10" d="M32.7,167.98s.22,3.27-3.05,6.26c0,0-.04,.26-.04,.67-.03,1.22,.17,3.83,2.15,5.49,1.05,.87,2.27,2.04,4.99,3.27l5.4,.5c.27,6.26,.7,11.46,1.25,13.3,0,0-21.18,2.55-33.09-10.81,0,0,17.28-12.73,19.16-17.86l-.04-14.07h9.14l3.61,1.78c-.45,5.99-.44,16.63-.11,25.66l-5.16-.44s-5.76-2.66-5.6-6.77c0,0,3.16-2.88,3.39-6.92"/><path class="cls-10" d="M18.62,170.31l-2.05-7.87,2.55-4.6,6.71-3.44,1.66,.06v13.52s-.65,2.08-7.6,7.99l-1.27-5.66Z"/><path class="cls-10" d="M2.72,159.11l7.2-3.6-8.2-4.27-4.55,1.67s-1.94,7.87,0,14.9c.61,2.19,1.47,4.22,2.44,6.07,0,0,7.28-.58,3.11-14.77Z"/><path class="cls-10" d="M.5,176.2c3.45,5.64,7.87,8.68,7.87,8.68,4.02-2.89,7.2-5.34,9.72-7.4l-1.52-6.67-2.13-8.7,2.13-4.27-4.27-1.33-6.87,3.6s3.11,9.76-1.55,14.58l-3.38,1.51Z"/><polygon class="cls-10" points="193.38 110.95 190.8 101.2 168.68 103.77 141.33 103.77 140.44 113.5 143.16 120.82 165.72 120.09 193.38 110.95"/><polygon class="cls-10" points="126.93 103.77 112.68 103.77 112.02 112.21 126.91 112.21 126.93 103.77"/><polygon class="cls-10" points="129.34 112.21 138.15 112.21 138.82 103.77 129.36 103.77 129.34 112.21"/><polygon class="cls-10" points="139.67 152.24 139.33 152.24 125.26 152.24 125.4 170 97.5 170 94.05 202.62 117.77 202.62 121.32 204.62 133.68 204.28 129.98 173.19 142.74 172.39 141.99 152.24 139.67 152.24"/><polygon class="cls-10" points="97.8 167.15 99.37 152.24 122.68 152.24 122.68 167.15 97.8 167.15"/><polygon class="cls-10" points="99.61 149.99 100.43 142.26 110.29 134.62 111.16 123.39 140.91 123.56 141.9 149.99 139.67 149.99 99.61 149.99"/><polygon class="cls-10" points="111.82 114.83 111.37 120.64 140.23 120.81 138 114.83 111.82 114.83"/><polygon class="cls-10" points="204.17 151.56 193.99 113.23 166.91 122.64 143.55 123.48 144.66 158.5 168.38 157.89 204.17 151.56"/><polygon class="cls-10" points="207.69 164.84 204.94 154.49 169.32 161.05 169.65 170.01 207.69 164.84"/><polygon class="cls-10" points="172.58 199.41 215.4 193.88 208.32 167.22 169.98 172.91 172.58 199.41"/><path class="cls-10" d="M-.61,132.65l1.61,3.35-4.96,14.55-29.6-4.24s-4.9-4.99-3.46-8.9c0,0,.84-.72,1.66-.19,6.71,4.38,21.89,2.52,34.75-4.57Z"/><path class="cls-10" d="M168.73,15.05c2.78,8.82,4.84,15.49,4.94,16.31l-28.93,7.57-13.97,.33-19.37,5.49s-2.9,1.08-4.65-4.66c-1.85-6.05-13.89-53.29-19.96-71.41l29.43-6.15,35.47-9.07,.95,11.53s5.04,15.53,10.19,31.58l-17.51,5.74,5.78,17.25,3.2-.04,14.43-4.47Z"/><path class="cls-10" d="M167.99,12.73c-1.34-4.24-2.82-8.88-4.32-13.55l-15.11,4.75,4.28,12.84h1.79l13.36-4.04Z"/><path class="cls-10" d="M41.94,48.74l-3.86,2.2,.2,7.19,1.87,2.83v1.7l2.08-.87,2.58-2.2-.22-1.65s-2.52-.97-2.65-9.2Z"/><polygon class="cls-10" points="44.12 63.73 39.74 65.34 39.1 68.74 40.88 72.82 45.61 72.68 45.07 62.93 44.12 63.73"/><path class="cls-10" d="M48.11,72.68l-.15,.14c-.62,.63-.54,1.73,.24,2.14,.11,.06,.21,.08,.3,.08,.52-.06,1.88-.74,1.24-2.17-.5-1.1-1.63-.19-1.63-.19Z"/><path class="cls-10" d="M288.65,154.84c3.05,7.11,5.63,13.08,7.92,18.38,0,0,1.77-6.22,.27-19.68-.02-.23-.24-.39-.46-.34l-7.73,1.64Z"/><path class="cls-10" d="M297.77,151.39l-9.57,2.11c-10.56-24.62-22.99-54.02-22.9-55.74l-.35-8.48,27.87-6.35s-.41,16.96,5.49,34.58l13.55,42.82,.49,25.65-9.6,1.21s-1.53-3.52-3.98-9.16c0,0,1.87-4.52,1.7-14.33-.13-7.37-.53-10.43-.73-11.49-.09-.49-.48-.87-.98-.91-.25-.02-.58,0-.99,.09Z"/><path class="cls-10" d="M242.71,125.68c1.96,2.91,4.53,21.4,.6,22.13l-4.24,.28,.47,10.14-14.53,1.44s.36,1.4,.43,1.67c.45,1.67,.8,3.65,.8,3.65l-13.41,3.96,5.64,21.22,64.52-1.68,13.98-1.76c-2.09-3.61-16.1-37.45-26.2-62.06l-28.06,1.01Z"/><path class="cls-10" d="M234.19,94.68c-1.55,.95-1.6,4.1-1.13,6.56,.5,2.67,1,4.23,1.96,6.8l6.32,14.73,28.31-.83c-5.32-12.97-9.44-23.07-9.44-23.07l-.33-9.92-25.69,5.73Z"/><path class="cls-10" d="M226.35,79.03c-.95-.34-1.11-1-1.11-1l-3.82-16.79,2.55-.61,2.49,10.75c.33,2.44,1.5,5.08,1.5,5.08,3.77-.72,7.59-.37,7.59-.37l1.77,9.09c1.22,5.98,2.39,4.71,2.39,4.71l19.84-4.49-.83-17.13-.82-2.38-.84-2.44-3.34-9.69s-2.49-1.67-29.92,2.49c0,0-2.49,.45-2.83-3.88,0,0-5.93,.79-10.17-2.29l-27.05,5.22,1.84,8.37,10.89-2.43,.88,3.43-11.08,2.38,7.43,32.48,31.42-6.87-1.66-11.92,2.33-.27,2.21,11.91,8.26-1.94c-.89-1.49-2.38-11.8-2.72-12.02-.33-.23-4.1,.55-4.1,.55-1.5,.35-2.47,.28-3.1,.06Z"/><path class="cls-10" d="M230.17,34.69c-.08,4.63,2.39,9.45,2.39,9.45,5.46,2.99,18.73,2.57,18.73,2.57l-6.11-17.72-15.01,5.7Z"/><path class="cls-10" d="M386.56-19.43s-5.47,.08-8.13,0c-2.66-.09-4.74-2.17-4.74-2.17l-.41-9.56s-3.99-.25-7.32-.91c-3.32-.67-3.49-2.99-3.49-2.99l-1.16-10.15-7.36,1.12,1.79,15.84s4.49,.25,7.39,.09c2.91-.17,2.83,1.99,2.83,1.99v7.98s-18.04-.41-18.87-1.24c-.83-.84-2.33-4.24-3.08-4.53-.74-.3-8.48,1.7-10.89-.88-2.41-2.57,0-6.23,0-6.23-2.08-1.17-5.23,1.16-5.82,1.49-.58,.34-10.64,2.33-12.83,1.5s-1.47-6.57-1.47-6.57c1.42-.91,13.39-3.57,13.39-3.57l1.38-3.27-12.08,.94s-12.91,3.91-14.66,5.07c0,0-31.21,9.15-31.73,9.15l4.46,16.96s6.49,.41,10.65,9.89l23.11,1.33,21.03,2.74,.08-9.64s0-1.91,6.57-1.91,6.82,1.66,6.82,1.66c0,0,2.09,5.15-1.53,7.07l-9.61,.08,.16,3.41,13.56,.91s.49-3.74,5.07-3.66c4.57,.09,6.05,4.66,6.05,4.66,0,0,12.77-4.32,30.84-3.74"/><path class="cls-10" d="M346.95,7.17s-.77-2.02,2.11-2.02,3.99,2.21,4.32,2.66c.33,.44-3.26,1.66-3.26,1.66l-3.17-2.3Z"/><path class="cls-10" d="M351.5,11.69l8.64,10.64h14.74l-1.18-15.99s-11.01,.14-22.2,5.35Z"/><polygon class="cls-10" points="374.69 49.71 369.79 42.28 329.33 42.56 328.22 65.45 349.61 60.18 374.69 49.71"/><polyline class="cls-10" points="386.56 67.66 375.6 51.08 351.13 61.96 328.22 67.66 328.22 70.38 343.32 66.77 343.68 69.33 327.57 73.83 334.87 90.22 353.1 81.8 354.05 83.96 336.4 92.78 356.48 103.86 384.81 94.1 379.15 78.64 382.2 77.86 386.8 89.5"/><path class="cls-10" d="M367.94,39.73s-6.07-10.83-17.4-25.12c0,0-15.67,23.46-16.23,25.12h33.63Z"/><polygon class="cls-10" points="330.45 7.58 345.84 8.71 348.3 10.58 348.3 13.45 331.71 39.73 330.17 39.73 330.45 7.58"/><path class="cls-10" d="M324.88,74.28l8.49,19.52-36.07,10.37s-3.06-12.95-2.48-22.76l30.06-7.13Z"/><path class="cls-10" d="M297.87,106.77l36.58-10.56,9.4,43.73-12.64,2.49s-.91-1.41-1.25-4.66c-.33-3.24-1.49-3.15-1.49-3.15l-20.37,4.73s-7.15-19.2-10.23-32.58Z"/><path class="cls-10" d="M308.93,142.43l2.33,8.23s.17,1.25,2.79,.67c2.61-.59,13.84-3.16,13.84-3.16,0,0,1.82-.42,.74-5.24s-.41-5.82-2.74-5.24-16.79,3.16-16.96,4.74Z"/><path class="cls-10" d="M350.17,177.78l-27.44,5.72-8.62,1.08-.31-25.99-1.63-4.27,17.71-4.16s2-.58,1.5-5.15l13.13-2.58s5.83,30.55,5.66,35.35Z"/><path class="cls-10" d="M364.27,159.61c.02,.18,.02,.41,.04,.7l.93,14.33-12.45,2.59s-3.87-28.65-4.62-30.14l10.68-1.75c-.09,4.49,.02,7.51,.2,9.54,.37,4.3,1.09,4.18,1.09,4.18l3.45,.09c.5-.02,.64,.14,.68,.46Z"/><path class="cls-10" d="M337.03,96.21s10.39,47.89,10.48,48.3c.08,.41,20.45-4.07,20.45-4.07,0,0-7.32-18.38-11.73-25.11,0,0,.09-3.24,3.58-5.49,0,0-13.22-9.81-22.78-13.63Z"/><path class="cls-10" d="M386.56,180.34l-5.72-3.11-65.92,11.92-.56,.07-2.79,.35-30.07,3.74-62.63,1.67s-.15,2.62-.48,7.03c-.8,10.55-2.62,31.32-5.84,50.66-1.3,7.85-2.84,15.47-4.63,22.07-.49,1.81-1.01,3.54-1.54,5.18-1.04,3.23-2.16,6.09-3.36,8.48"/><path class="cls-10" d="M274.94-5.18s5.23,1.13,6.97,9.02l26.44,1.71v3.92l-25.61,8.65-7.8-23.3Z"/><polygon class="cls-10" points="311.41 5.67 327.44 7.58 326.64 35.77 322.48 35.77 317.66 20.68 308.93 20.68 306.44 13.6 311.51 11.41 311.41 5.67"/><polygon class="cls-10" points="319.45 35.77 315.96 23.46 307.68 23.46 304.32 14.24 283.67 20.79 286.35 30.37 302.32 25.21 306.73 38.26 314.09 35.98 319.45 35.77"/><polygon class="cls-10" points="287.07 33.19 288.81 43.89 304.23 39.03 300.72 28.76 287.07 33.19"/><path class="cls-10" d="M272.13,34.19c.55,7.76,5.1,15.07,5.1,15.07l7.98-2.44c.85-2.37-.02-8.1-1.65-14.92l-11.43,2.29Z"/><path class="cls-10" d="M272.13-5.18s6.86,19.1,10.77,34.4l-11.49,1.92s-6.7-28.88-11.86-32.81l12.58-3.51Z"/><path class="cls-10" d="M263.1,65.45c.18,.51,.27,.77,.27,.77l.8,18.19,23.56-5.49v-3.22l-12.56-20.17-1.65,7.42-10.42,2.5Z"/><path class="cls-10" d="M247.96,22.69c.27,.76,.54,1.52,.81,2.27,3.65,10.38,6.99,19.81,9.55,27.03,.31,.88,.6,1.72,.89,2.52,1.37,3.85,2.45,6.92,3.18,8.94,.3,.86,.54,1.54,.71,2"/><path class="cls-10" d="M247.96,22.69l13.86-4.57s-.46-2.34-1.37-5.14c-.9-2.74-2.07-4.29-2.07-4.29l-12.72,3.95-1.11,.34c1.16,3.29,2.3,6.54,3.41,9.71Z"/><path class="cls-10" d="M219.8-44.68l2.96,8.58,1.65,4.78L235.68,1.39l-62.01,16.73-14.19-41.61s41.96-9.16,50.69-8.25c0,0-1.21,10.06,14.23,.42"/><polygon class="cls-10" points="236.4 3.49 244.37 26.63 243.18 27.03 229.51 31.9 223.8 7.17 235.46 3.77 236.4 3.49"/><path class="cls-10" d="M248.76,24.96h.01l13.94-4.52s2.77,6.81,4.29,14.24c1.69,8.24,4.58,14.78,5.13,15.86,0,0-10.5,2.84-13.81,1.45"/><path class="cls-10" d="M240.83,2.37c.88,2.54,1.85,5.3,2.73,7.81l.99-.22,12.84-3.82c-2.28-6.07-4.66-6.7-4.66-6.7l-11.12,2.76-.78,.17Z"/><path class="cls-10" d="M231.44-24.58c2.7,7.81,5.61,16.18,8.55,24.58l1.08-.21,9.64-2.41-11.86-9.25c-1.91-6.65-7.41-12.71-7.41-12.71Z"/><path class="cls-10" d="M259.21,54.51s3.11,1.34,13.81-1.21l-1.28,7.94-9.35,2.21"/><polyline class="cls-10" points="257.89 65.89 243.25 68.99 242.59 66.22 257.06 63.45"/><polygon class="cls-10" points="278.39 51.7 286.82 48.93 296.18 73.04 296.29 77.11 293.04 77.81 292.86 74.65 278.39 51.7"/><path class="cls-10" d="M315.64,63.9c-7.26,1.33-16.91,9.36-16.91,9.36l.12,3.33,26.04-5.66,.92-20.5s-.02-.02-.04-.01l-10.13,13.48Z"/><polygon class="cls-10" points="314.69 60.13 323.73 46.88 325.97 46.88 326.33 38.73 314.05 38.73 307.35 40.75 314.69 60.13"/><path class="cls-10" d="M288.98,46.27l15.93-4.79,7.36,20.48s-10.56,5.08-13.47,8.03c-.25,.26-.68,.18-.8-.16l-9.02-23.56Z"/><path class="cls-10" d="M249.11,50.08s-14.56-1.6-17.5-3.37l-8.69,1.21,.27,4.45s-.44,1.53,4.77,.93,21.15-3.22,21.15-3.22Z"/><path class="cls-10" d="M227.51,35.21c-.05,3.55,2.66,9.29,2.66,9.29-8.97,.4-47.07,8.1-47.07,8.1l-2.18-7.99,46.59-9.4Z"/><polygon class="cls-10" points="200.42 37.95 180.22 42.02 174.42 20.72 195.69 14.95 200.42 37.95"/><polygon class="cls-10" points="202.52 37.53 213.24 35.37 208.36 11.52 197.95 14.34 202.52 37.53"/><polygon class="cls-10" points="215.55 34.9 227.3 32.53 221.42 7.98 210.61 10.91 215.55 34.9"/><path class="cls-10" d="M214.1,49.47l6.51-1.15,.07,1.79s-5.12,.23-6.58-.64Z"/><path class="cls-10" d="M220.81,155.98c1.33,1.91,2.18,7.41,2.18,7.41l-11.49,2.73-2.11-7.77,11.42-2.37Z"/><path class="cls-10" d="M240.05,126.01c3.28,6.23,2.93,16.11,2.76,18.83-.03,.41-.36,.72-.77,.74l-3.32,.18c-.99-7.03-2.82-4.62-11.51-2.75-8.69,1.87-8.31,3.87-8.31,3.87l1.36,6.77-11.52,2.3-14-52.76,35.5-7.77c-2.57,6.98,9.81,30.59,9.81,30.59Z"/><path class="cls-10" d="M223.2,154.22c-.42-1.64-.91-3.74-1.45-5.87-.11-.46,.16-.93,.62-1.05l12.68-3.45c.36-.1,.88,.7,.98,1.06,.38,1.43,.78,5.04,.7,11.07l-12.33,1.27s-1.1-2.65-1.2-3.03Z"/><path class="cls-10" d="M144.94,161.88c0,.17,.27,10.31,.27,10.31l21.34-1.91-.23-8.92-21.38,.52Z"/><polygon class="cls-10" points="136.16 203.99 132.88 176.21 166.8 173.19 169.32 198.02 169.53 199.81 136.18 204.12 136.16 203.99"/><path class="cls-10" d="M17.62,55.91l-9.22,10.41-2.06-.4-5.13-1.01-28.56,12.26-6.15,2.49c.66,.75,12.01,16.55,19.24,19.58,0,0,35.96-5.44,42.53-2.04,6.56,3.41,20.53,43.48,20.7,45.23,0,0-8.62,5.65-3.41,55.23l1.84-.12,2.97-.19,1.64-.11s5.91,2.22,.31,5.88c0,0-3.88,.94-6.26,3.21l31.09,1.5,13.02-1.05,3.88-34.03-3.27-1.11v-27.71l4.14-2.05h-8.35l-2.38-1.06v-1.6h15.02l8.2-6.05,2.38-29.4h-5.46l.09-2.57h65.23l20.45-2.28s-9.31-37.57-10.2-44.56l-5.54-20.39-29.82,7.87h-13.19l-2.99,1.11,5.99,20.78-2.33,.94-6.21-21.39-14.25,4.02c-2.06,.58-4.24-.29-5.33-2.13-1.25-2.1-2.75-5.73-4.09-11.95l-5.93,.63-.48,.05-5.45-1.83-15.96,.33-47.43,14.22,9.27,17.16h1.5l.29-2.32-2.04-2.46-.24-8.77,4.86-4.03,2.99-.16,1.04,1.28s-.5,7.03,2.37,9.31l1.12,13.97s4.62-1.58,4.2,3.49-3.32,4.24-7.07,1.08l-4.61-.08s0,.05-.03,.14c-.14,.71-.8,3.97-1.33,5.9-.12,.46-.24,.85-.34,1.11,0,0-7.07,.83-4.37,5.32,0,0,3.29,4.62,4.74,5.7,3.42,2.54,5.86,4.46,7.72,6.27"/><path class="cls-10" d="M49.44,107.9c-.22-.47-.46-.93-.71-1.38-3.25-5.87-9.45-9.52-9.45-9.52,0,0-7.01-5.95-8.44-11.27-1.16-4.35,6.36-6.03,6.36-6.03l1.21-4.94-13.76-26.77-7.02,7.92"/><path class="cls-10" d="M46.97,99.54c4.42,4.32,5.54,8.04,8.79,18.17,4.15,12.97,21.47,4.89,21.47,4.89l1.47,2.54s-12.31,7.23-21.61,.11c-4.19-3.21-4.51-10.73-7.64-17.32"/><polygon class="cls-10" points="96.74 149.66 97.48 143.3 93.32 145.55 93.11 169.57 94.39 170 96.74 149.66"/><path class="cls-10" d="M-28.32,9.6s-1.73,7.22,6,27.59L0,29.45S-1.5,19.97-7.04,13.24c0,0-4.22-6.4-4.93-9.06l-16.35,5.42Z"/><path class="cls-10" d="M252.56,288.4c17.13-7.08,50.72-4.81,50.72-4.81l-8.31-18.37-4-8.84-1.11-2.44,2.33-1.27,1.08,2.34,4.29,9.33,9.04,19.64s26.38,2.02,33.53,4.42"/><path class="cls-16" d="M386.56,202.45s-22.8,0-28.97,.52c-.31,.02-.62,0-.93-.04-3.17-.54-20.66-3.52-25.85-5.12-.46-.14-.84-.43-1.1-.83l-.82-1.26c-.42-.64-1.13-1.03-1.9-1.03h-10.76c-1.03,0-1.87-.83-1.87-1.86v-3.61"/><path class="cls-16" d="M311.57,189.57s-7.18,4.96-28.91,6.23c-21.35,1.26-38.73,3.04-57,3-.62,0-1.21,.26-1.61,.73l-1.52,1.72c-.42,.48-1.04,.76-1.69,.76h-2.46"/><path class="cls-16" d="M214.68,202.01s-29.79,3.16-33.56,3.71v-.67c0-.5-.43-.89-.92-.83l-9.44,1.04c-.67,.07-1.28-.43-1.33-1.1l-.11-1.43"/><path class="cls-16" d="M123.27,207.67v1.19c0,1-.66,1.88-1.63,2.16-4.81,1.37-19.14,5.22-27.41,5.06-.93-.02-1.67-.81-1.67-1.74v-4.89"/><path class="cls-16" d="M90.34,209.58l-.51,3.98c-.1,.74-.65,1.33-1.38,1.48-2.98,.62-10.6,1.76-13.62-2.02-.43-.53-1.05-.89-1.74-.94l-33.47-2.43c-.53-.04-.93-.48-.93-1.01v-.64"/><path class="cls-16" d="M22.95,205.91c-2.11-.51-25.06-6.36-43.78-22.63-19.63-17.07-26.75-21.4-30.01-26.27-.71-1.07-1.87-2.78-3.25-4.8-4.93-7.23-12.66-18.49-12.75-18.92-.1-.52-1.45-2.94-.31-6.92,.19-.68,.15-1.4-.13-2.06-.69-1.64-2.22-4.9-4.72-8.43-1.5-2.11-3.35-4.32-5.59-6.32-6.69-5.99-16.16-17.56-18.22-20.11-.27-.34-.6-.61-.99-.82-2.59-1.42-13.31-7.13-21.41-9.54-.34-.1-.69-.14-1.04-.14h-2.35c-.78,0-1.53-.32-2.07-.88l-1.61-1.64c-.5-.52-1.18-.79-1.87-.79-.44,0-.87,.11-1.27,.33-1.28,.71-3.07,1.31-4.37,.23-1.42-1.18-1.61-2.7-1.55-3.68,.06-1.05-.92-1.84-1.92-1.51-.83,.28-2,.94-3.63,2.25,0,0-3.05,.17-1.83-1.77,0,0-1.72-.94-.66-2.22,0,0,.99-.15,1.79-.15,.49,.01,.87-.41,.81-.9-.17-1.31-.81-3.37-3.08-3.37-.67,0-1.48,.17-2.46,.6,0,0-.71,.43-2.06,.04-.56-.17-1.16-.16-1.69,.09-1.56,.72-4.7,2.11-5.12,1.86-.51-.3-3.9-1.31-5.4-4.67-.26-.58-.75-1.02-1.36-1.19-2.02-.54-6.55-2.48-8.64-9.06-.21-.68-.81-1.16-1.51-1.3-1.46-.29-4.14-.57-7.57,.21-.3,.06-.62,.07-.92,0-1.83-.46-8.56-2.22-9.9-3.94,0,0-.87-.5-2.77,0"/><path class="cls-10" d="M23.11,205.95s-.05-.01-.16-.04"/><path class="cls-16" d="M-41.24,208.16s-4.91,.94-6.03,3.33c-1.11,2.38,2.33,4.65,3.02,4.76,.69,.12,15.37,2.44,15.93,2.94,.55,.5,18.18,16.35,19.01,16.8,.83,.44,17.68,9.64,31.15,11.02,13.46,1.39,23.83,2.55,24.66,3.22,.83,.66,2.99,1.83,2.99,4.43s-.38,16.52-.99,18.51c-.61,2-1.61,4.72-9.43,9.09-7.81,4.38-8.2,6.14-8.2,6.14"/><path class="cls-16" d="M33.75,288.4c1.22-1.85,4.99-3.86,5.71-4.36s4.49-3.22,7.59-5.6c3.11-2.38,3-6.71,3.05-7.59,.06-.89,.34-6.27,.45-6.88s1.38-1.49,1.99-4.04-1.05-3.72-1.33-4.44,0-2.66,0-2.66c0,0,11.47,.23,12.69,.72,1.22,.5,23.5,3.55,25.78,3.55s23.94,3.05,29.54,11.75c0,0-2.28,10.33-10.92,19.55"/><path class="cls-16" d="M124.68,256.84s-1.42,2.48-.53,5.08c.89,2.61-4.93,6.93-4.93,6.93"/><path class="cls-16" d="M126.8,257.35s-1.5,2.63,0,4.46c0,0-2.93,6.27-3.04,6.82s-2.27,5.27-4.05,5.82c0,0-4.21,8.61-8.86,13.95"/><path class="cls-16" d="M123.76,268.63s6.04-3.05,14.69,2.55c8.64,5.6,20.73,17.22,20.73,17.22"/><path class="cls-16" d="M179.68,288.4s2.99-7.75,4.71-9.27"/><path class="cls-16" d="M238.18,288.4c2.33-1.15,50.36-21.35,56.61-23.1"/><path class="cls-16" d="M297.56,264.34s43.05-12.59,49.03-12.5c5.99,.08,31.21,7.31,39.97,12.88"/><path class="cls-16" d="M386.56,261.98s-26.92-12.22-40.38-11.97c0,0-2.55-1.42-47.45,12.02,0,0,33.64-23.33,41.04-37.05,0,0,18.38-7.23,24.36-7.56,5.99-.33,20.82,.41,22.43,1.41"/><path class="cls-16" d="M303.78,211.52s3.07,.91,4.73,0c1.67-.92-4.73-1.25-4.73,0Z"/><path class="cls-16" d="M310.9,210.89c-.34,.15-.35,.64-.04,.86,.76,.52,2.1,1.32,3.06,1.26,1.41-.08,4.9,.22,6.98-.85,2.08-1.06,13.89,0,13.89,0,0,0,1.08,.28,.99-.85-.08-1.12,1.5-.09,2.08-.61,.58-.51,2.66-1.35,3.41-1.01,.75,.33,2.58-1.75-9.31-.5,0,0-5.82,2.66-12.22,1.08,0,0-1.25-1.74-3.58,1.04,0,0-3.35-1.28-5.26-.42Z"/><path class="cls-16" d="M304.85,226.71c3.45,.79,11.99,.56,32.93-6.3,0,0,16.54-6.4,19.45-6.73,2.91-.34-2.41-1.91-8.15,.83-5.73,2.74-23.11,4.16-24.19,4.07-.93-.07-17.64-.94-21.57,3.97-1.22,1.51-.36,3.73,1.53,4.16Z"/><path class="cls-16" d="M305.02,237.04c-.16-.33-2.24,1.66-3.65,1.58-1.42-.09-7.49-.5-7.32,.66,0,0,5.74,.98,9.06,.7,0,0,6.12,1.63,8.46,.8,0,0-6.38-3.41-6.55-3.74Z"/><path class="cls-16" d="M305.02,237.04s2.33-6.82,27.19-10.56c0,0-1.17,6.57-16.55,17.79,0,0-1.91,1-.58-.83s4.16-3.33,3.54-5.4c-.63-2.08-3.73,2.55-4.26,2.98-.52,.42-2.79-.24-2.79-.24"/><path class="cls-16" d="M187.64,269.71c-1.75-1.05-9.74-7.34-12.23-9.31-.38-.29-.35-.88,.07-1.13,1.78-1.07,6.58-3.38,14.98-3.44,10.98-.09,18.15-2.85,18.15-2.85"/><path class="cls-10" d="M202.89,278.78h0c-3.5-1.14-13.17-7.82-15.24-9.07"/><path class="cls-16" d="M206.38,279.92c5.86,2.09,21.74,2.43,26.4,1.26,4.65-1.16,40.14-11.04,58.19-24.8"/><path class="cls-16" d="M293.27,255.01s16.71-9.48,18.9-11.74c2.19-2.25-28.1-2.85-29.68-3.29-1.58-.45-17.21,.05-22.36,1.38s-40.53,11.22-47.58,11.31"/><path class="cls-16" d="M289.86,253.94s-22.58,9.96-34.47,13.86c-11.89,3.91-34.93,12.38-47.47,6.94"/><path class="cls-16" d="M204.3,273.88h0c-.23-.11-7.8-3.51-11.63-5.84-1.42-.86-3.26-.55-4.33,.72-.34,.39-.6,.74-.69,.95"/><path class="cls-16" d="M-192.26,41.01s23.66,7.15,27.15,9.31c2.24,1.38,14.34,8,23.21,13.26,4.98,2.95,8.95,5.48,9.59,6.41,1.04,1.51,2.86,3.04,5.54,3.44,1.95,.3,4.35,0,7.22-1.33,6.82-3.16,33.17,20.23,37.12,27.49,0,0,6.95,8.11,12.25,15.36,2.4,3.29,4.47,6.4,5.39,8.49,2.94,6.69,5.54,13.5,6.86,16.91,.9,2.34,2.84,6.83,5.5,10.97,1.21,1.88,2.57,3.69,4.05,5.19,4.73,4.79,20.95,16.6,22.61,18.09,1.66,1.5,26.66,20.4,37.19,23.75"/><path class="cls-16" d="M46.33,203.43s.65-3.1,.65-3.83"/><path class="cls-16" d="M47.4,197.54s-3.03-36.49,2.09-51.87c0,0,.12-1.19,.28-3.17,.62-7.53,1.89-26.48-.32-34.57,0-.01-.01-.02-.01-.03"/><path class="cls-10" d="M46.97,99.54h-.01c-.2-.53-6.87-16.97-7.75-18.41"/><line class="cls-10" x1="17.63" y1="55.91" x2="17.62" y2="55.91"/><path class="cls-16" d="M37.2,79.7s-9.68-21-19.57-23.79"/><path class="cls-16" d="M15.28,54.61h-.01c-.36-.26-7.61-4.99-32.06-2.96,0,0-15.3,.07-19.29-7.62"/><polygon class="cls-6" points="386.83 264.72 386.83 288.69 340.13 288.69 327.5 288.69 310.87 288.69 308.04 288.69 260.55 288.69 252.56 288.69 238.18 288.69 203.02 288.69 198.53 288.69 182.95 288.69 179.68 288.69 159.18 288.69 110.85 288.69 108.3 288.69 33.75 288.69 30.87 288.69 -85.21 288.69 -87.4 288.69 -192.26 288.69 -192.26 132.66 -192.26 122.52 -192.26 84.9 -192.26 67.5 -192.26 59.24 -192.26 47.49 -192.26 41.01 -192.26 -157.27 386.83 -157.27 386.83 -76.88 386.83 -51.23 386.83 -48.28 386.83 -30.62 386.83 -19.43 386.83 3.43 386.83 6.34 386.83 21.3 386.83 23.71 386.83 40.26 386.83 42.92 386.83 62.45 386.83 67.66 386.83 89.5 386.83 94.1 386.83 106.46 386.83 128.46 386.83 130.68 386.83 135.06 386.83 138.72 386.83 170.2 386.83 180.34 386.83 202.45 386.83 218.83 386.83 261.98 386.83 264.72"/></g></g><g><polyline class="cls-9" points="70.12 54.94 70.12 57.94 70.19 58.46"/><g><polygon class="cls-33" points="70.51 59.17 66.18 63.38 74.84 63.38 70.51 59.17"/><rect class="cls-33" x="65.78" y="62.85" width="8.71" height="6.61"/><rect class="cls-33" x="40.72" y="90.46" width="6.61" height="4.41"/><rect class="cls-33" x="40.72" y="98.83" width="6.61" height="4.16"/><rect class="cls-33" x="40.72" y="94.87" width="6.61" height="3.96"/><path class="cls-33" d="M47.33,105.72v2.16h-5.55c-.59,0-1.06-.47-1.06-1.05v-1.11h6.61Z"/><rect class="cls-33" x="47.33" y="105.72" width="8.05" height="2.16"/><polygon class="cls-33" points="63.23 98.83 63.23 99.17 62.45 99.17 62.45 102.99 55.38 102.99 55.38 98.83 63.23 98.83"/><rect class="cls-33" x="55.38" y="105.72" width="7.07" height="2.16"/><rect class="cls-33" x="93.03" y="90.46" width="7.58" height="4.41"/><rect class="cls-33" x="93.03" y="94.87" width="7.58" height="3.96"/><rect class="cls-33" x="77.91" y="98.83" width="7.46" height="4.16"/><rect class="cls-33" x="93.03" y="98.83" width="7.58" height="4.16"/><polygon class="cls-33" points="77.91 98.83 77.91 102.99 72.9 102.99 72.9 99.17 70.66 99.17 70.66 98.83 77.91 98.83"/><rect class="cls-33" x="72.9" y="105.72" width="5.01" height="2.16"/><polyline class="cls-9" points="62.45 107.88 63.23 107.88 70.66 107.88 72.9 107.88"/><rect class="cls-33" x="77.91" y="105.72" width="7.46" height="2.16"/><rect class="cls-33" x="85.37" y="105.72" width="7.66" height="2.16"/><path class="cls-33" d="M100.61,105.72v1.11c0,.58-.48,1.05-1.06,1.05h-6.52v-2.16h7.58Z"/><path class="cls-33" d="M70.39,66.94l-.52-.32c.15-.11,.33-.17,.51-.18,.24-.02,7.32,4.73,7.53,4.87l-2.87-1.97,2.87,1.96h0s7.46,5.11,7.46,5.11l-7.46-4.84-7.52-4.63Z"/><polygon class="cls-33" points="70.46 75.59 70.46 80.83 63.23 80.83 63.23 75.67 70.46 75.59"/><polygon class="cls-33" points="93.03 81.66 93.03 87.09 85.37 87.09 85.37 76.41 93.03 81.66"/><path class="cls-33" d="M102.75,90.46h-9.72v-8.8l10.32,7.07c.8,.54,.39,1.73-.6,1.73Z"/><rect class="cls-33" x="77.91" y="83.41" width="7.46" height="2.62"/><rect class="cls-33" x="77.91" y="80.83" width="7.46" height="2.58"/><polygon class="cls-9" points="76.03 81.71 75.34 80.83 77.91 80.83 77.91 81.71 76.03 81.71"/><polygon class="cls-9" points="70.55 80.83 70.46 80.83 70.46 75.59 70.49 75.58 70.55 80.83"/><polygon class="cls-9" points="60.98 81.71 60.29 80.83 63.23 80.83 63.23 81.71 60.98 81.71"/><polygon class="cls-33" points="55.38 76.61 55.38 90.46 47.33 90.46 47.33 82.15 55.38 76.61"/><path class="cls-33" d="M47.33,82.15v8.31h-8.94c-.98,0-1.4-1.18-.6-1.73l9.54-6.58Z"/><polygon class="cls-33" points="70.66 90.46 63.23 90.46 63.23 87.09 70.62 87.09 70.66 90.46"/><rect class="cls-33" x="77.91" y="86.03" width="7.46" height="4.43"/><line class="cls-9" x1="65.44" y1="69.67" x2="65.44" y2="62.85"/><line class="cls-9" x1="75.04" y1="62.85" x2="75.04" y2="69.46"/><polyline class="cls-9" points="63.61 64.55 70.19 58.46 76.63 64.11"/><polyline class="cls-9" points="63.23 99.17 63.23 102.99 63.23 105.72 63.23 107.88"/><polygon class="cls-33" points="63.23 71.2 63.23 80.83 55.38 80.83 55.38 76.6 63.23 71.2"/><polygon class="cls-33" points="70.58 83.41 63.23 83.41 63.23 80.83 70.55 80.83 70.58 83.41"/><polygon class="cls-33" points="63.23 81.71 63.23 83.41 55.38 83.41 55.38 80.83 60.29 80.83 60.98 81.71 63.23 81.71"/><rect class="cls-33" x="55.38" y="83.41" width="7.85" height="2.62"/><polygon class="cls-33" points="70.62 87.09 63.23 87.09 63.23 83.41 70.58 83.41 70.62 87.09"/><rect class="cls-33" x="55.38" y="86.03" width="7.85" height="4.43"/><line class="cls-9" x1="63.23" y1="71.19" x2="55.38" y2="76.6"/><polygon class="cls-33" points="77.91 81.71 77.91 83.41 70.58 83.41 70.55 80.83 75.34 80.83 76.03 81.71 77.91 81.71"/><polygon class="cls-33" points="77.91 83.41 77.91 87.09 70.62 87.09 70.58 83.41 77.91 83.41"/><polygon class="cls-33" points="77.91 87.09 77.91 90.46 70.66 90.46 70.62 87.09 77.91 87.09"/><polygon class="cls-33" points="77.91 75.5 77.91 80.83 70.55 80.83 70.49 75.58 77.91 75.5"/><polygon class="cls-33" points="85.37 76.41 85.37 80.83 77.91 80.83 77.91 75.5 83.92 75.42 83.93 75.42 85.37 76.41"/><rect class="cls-33" x="85.37" y="87.09" width="7.66" height="3.37"/><polyline class="cls-9" points="81.83 73.99 77.91 71.3 77.91 71.31 77.91 71.57"/><polyline class="cls-9" points="70.39 66.94 70.38 66.44 70.38 66.43"/><line class="cls-9" x1="47.33" y1="87.09" x2="55.28" y2="87.09"/><line class="cls-9" x1="55.38" y1="83.41" x2="55.28" y2="83.41"/><polygon class="cls-34" points="70.49 75.58 70.46 75.59 63.23 75.67 63.23 71.19 65.44 69.67 69.87 66.62 70.39 66.94 70.49 75.58"/><polygon class="cls-34" points="77.96 71.61 77.96 75.54 70.54 75.62 70.44 66.98 77.96 71.61"/><polygon class="cls-33" points="83.92 75.42 77.91 75.5 77.91 71.57 81.83 73.99 81.91 74.04 83.92 75.42"/><polyline class="cls-9" points="81.91 74.04 83.92 75.42 87.42 77.82"/><line class="cls-9" x1="63.23" y1="75.67" x2="56.77" y2="75.75"/><polyline class="cls-9" points="63.23 81.71 65.51 81.71 66.18 80.99"/><polyline class="cls-9" points="77.91 81.71 80.56 81.71 81.23 80.99"/><rect class="cls-33" x="40.72" y="102.99" width="6.61" height="2.73"/><rect class="cls-33" x="47.33" y="102.99" width="8.05" height="2.73"/><rect class="cls-33" x="55.38" y="102.99" width="7.07" height="2.73"/><rect class="cls-33" x="93.03" y="102.99" width="7.58" height="2.73"/><rect class="cls-33" x="85.37" y="102.99" width="7.66" height="2.73"/><rect class="cls-33" x="77.91" y="102.99" width="7.46" height="2.73"/><rect class="cls-33" x="72.9" y="102.99" width="5.01" height="2.73"/><polyline class="cls-9" points="62.45 105.72 63.23 105.72 70.66 105.72 72.9 105.72"/><polyline class="cls-9" points="62.45 102.99 63.23 102.99 70.66 102.99 72.9 102.99"/><polyline class="cls-9" points="70.66 99.17 70.66 102.99 70.66 105.72 70.66 107.07 70.66 107.88"/><rect class="cls-33" x="63.23" y="90.46" width="7.43" height="4.41"/><rect class="cls-33" x="70.66" y="90.46" width="7.25" height="4.41"/><rect class="cls-33" x="77.91" y="90.46" width="7.46" height="4.41"/><rect class="cls-33" x="77.91" y="94.87" width="7.46" height="3.96"/><rect class="cls-33" x="85.37" y="90.46" width="7.66" height="4.41"/><rect class="cls-33" x="85.37" y="98.83" width="7.66" height="4.16"/><rect class="cls-33" x="55.38" y="90.46" width="7.85" height="4.41"/><rect class="cls-33" x="47.33" y="90.46" width="8.05" height="4.41"/><rect class="cls-33" x="47.33" y="94.87" width="8.05" height="3.96"/><rect class="cls-33" x="47.33" y="98.83" width="8.05" height="4.16"/><rect class="cls-33" x="55.38" y="94.87" width="7.85" height="3.96"/><rect class="cls-33" x="63.23" y="94.87" width="7.43" height="3.96"/><rect class="cls-33" x="70.66" y="94.87" width="7.25" height="3.96"/><rect class="cls-33" x="85.37" y="94.87" width="7.66" height="3.96"/><rect class="cls-35" x="62.45" y="99.17" width="10.45" height="8.71"/><polyline class="cls-9" points="58.26 75.29 63.45 72.51 59.39 75.4 65.95 72.17 62.11 72.48 61.71 72.84 60.62 73.54"/><path class="cls-9" d="M60.75,75.23c2.77,0,3.67-.13,3.69-.31,.02-.21-1.05-.66-2.09-.44-.19,.04-.36,.1-.5,.16"/><polyline class="cls-9" points="77.45 73 80.17 74.1 82.35 74.99 74.04 73.28 79.69 74.99 78.19 72.43 79.87 73.32 80.5 73.71"/><polygon class="cls-35" points="70.38 66.76 82.42 75.11 58.34 75.11 70.38 66.76"/></g></g><g><rect class="cls-21" x="92.93" y="12.06" width=".92" height="12.34" transform="translate(75.16 111.62) rotate(-90)"/><g><g><rect class="cls-21" x="96.43" y="18.27" width=".92" height="11.01" transform="translate(-2.31 13.18) rotate(-7.69)"/><rect class="cls-25" x="96.89" y="28.7" width="1.72" height=".65"/></g><g><rect class="cls-21" x="88.84" y="18.3" width=".92" height="11.01" transform="translate(5.99 -16.19) rotate(10.72)"/><rect class="cls-25" x="87.38" y="28.73" width="1.72" height=".65"/></g><rect class="cls-21" x="92.61" y="18.22" width="1.12" height="2.4"/><rect class="cls-21" x="92.93" y="14.23" width=".92" height="12.34" transform="translate(113.79 -72.99) rotate(90)"/><path class="cls-25" d="M99.56,17.77h-12.34c-.19-.17-.37-.33-.56-.5h13.51c-.2,.17-.41,.33-.61,.5Z"/><g><path class="cls-19" d="M90.74,21.57l-.63-.12c.17-.39,.35-.78,.52-1.17l.31,.06c-.07,.41-.13,.82-.2,1.23Z"/><path class="cls-19" d="M92.5,21.74l-.64-.05c.11-.41,.22-.81,.32-1.22l.31,.02c0,.41,0,.83,0,1.24Z"/><path class="cls-19" d="M94.37,21.75l-.64,.02c.05-.41,.09-.83,.14-1.24h.31c.06,.4,.13,.81,.19,1.22Z"/><path class="cls-19" d="M96.06,21.57l-.64,.07c0-.42,0-.83,0-1.25l.31-.04c.11,.4,.22,.81,.33,1.21Z"/></g><path class="cls-11" d="M89.3,19.98c.46,.15,1.14,.33,2.04,.44,.35,.04,2.19,.27,4.17-.02,.85-.12,1.42-.29,1.74-.41"/></g></g><g><polygon class="cls-42" points="154.16 91.82 153.74 90 155.02 90.16 154.16 91.82"/><rect class="cls-42" x="143.7" y="91.82" width="9.1" height="5.55"/><polygon class="cls-42" points="140.83 90 142.09 89.74 140.96 91.28 140.83 90"/><polygon class="cls-42" points="144.27 91.26 141.07 89.95 146.67 88.77 144.27 91.26"/><polygon class="cls-42" points="153.11 90.74 151.82 89.24 155.02 90.2 153.11 90.74"/><rect class="cls-42" x="143.95" y="89.29" width="8.71" height="2.01"/><rect class="cls-42" x="141.07" y="90.06" width="14.09" height="1.76"/><rect class="cls-42" x="144.21" y="87.74" width="7.9" height="1.93"/><polygon class="cls-18" points="152.12 87.74 152.12 89.19 155.9 90.31 155.17 91.9 141.07 91.82 140.68 90.06 144.21 89.2 144.21 87.74 152.12 87.74"/><rect class="cls-36" x="143.7" y="91.9" width="9.1" height="4.66"/><path class="cls-26" d="M154.15,97.59h-11.78l1.35-.95c.07-.05,.16-.08,.25-.08h8.81c.1,0,.2,.04,.27,.1l1.11,.93Z"/><line class="cls-3" x1="144.68" y1="89.12" x2="151.55" y2="89.12"/><g><rect class="cls-42" x="146.8" y="91.9" width="2.58" height="4.66"/><rect class="cls-3" x="146.8" y="91.9" width="2.58" height="4.66"/></g><path class="cls-14" d="M144.21,87.86v1.24c0,.06-.04,.11-.09,.12l-3.31,.82c-.06,.02-.1,.08-.09,.15l.34,1.55c.01,.06,.06,.1,.12,.1l13.92,.08s.09-.03,.11-.07l.64-1.39c.03-.07,0-.15-.08-.17l-3.56-1.05c-.05-.02-.09-.06-.09-.12v-1.23c0-.07-.05-.12-.12-.12h-7.67c-.07,0-.12,.05-.12,.12Z"/><polyline class="cls-11" points="143.7 91.9 143.7 96.56 152.8 96.56 152.8 91.9"/></g><g><rect class="cls-42" x="165.39" y="125.77" width="9.1" height="5.55"/><polygon class="cls-42" points="162.52 123.95 163.78 123.68 162.65 125.22 162.52 123.95"/><polygon class="cls-42" points="165.96 125.2 162.76 123.89 168.36 122.71 165.96 125.2"/><polygon class="cls-42" points="174.8 124.69 173.51 123.18 176.71 124.14 174.8 124.69"/><rect class="cls-42" x="165.64" y="123.24" width="8.71" height="2.01"/><rect class="cls-42" x="162.76" y="124.01" width="14.09" height="1.76"/><rect class="cls-42" x="165.9" y="121.68" width="7.9" height="1.93"/><polygon class="cls-18" points="173.81 121.68 173.81 123.13 177.59 124.25 176.86 125.85 162.76 125.77 162.37 124.01 165.9 123.14 165.9 121.68 173.81 121.68"/><rect class="cls-36" x="165.39" y="125.85" width="9.1" height="4.66"/><path class="cls-26" d="M175.84,131.54h-11.78l1.35-.95c.07-.05,.16-.08,.25-.08h8.81c.1,0,.2,.04,.27,.1l1.11,.93Z"/><line class="cls-3" x1="166.37" y1="123.07" x2="173.24" y2="123.07"/><g><rect class="cls-42" x="168.49" y="125.85" width="2.58" height="4.66"/><rect class="cls-3" x="168.49" y="125.85" width="2.58" height="4.66"/></g><path class="cls-14" d="M165.9,121.81v1.24c0,.06-.04,.11-.09,.12l-3.31,.82c-.06,.02-.1,.08-.09,.15l.34,1.55c.01,.06,.06,.1,.12,.1l13.92,.08s.09-.03,.11-.07l.64-1.39c.03-.07,0-.15-.08-.17l-3.56-1.05c-.05-.02-.09-.06-.09-.12v-1.23c0-.07-.05-.12-.12-.12h-7.67c-.07,0-.12,.05-.12,.12Z"/><polyline class="cls-11" points="165.39 125.85 165.39 130.5 174.49 130.5 174.49 125.85"/></g><g><rect class="cls-42" x="259.52" y="179.08" width="9.1" height="5.55"/><polygon class="cls-42" points="256.65 177.25 257.91 176.99 256.78 178.53 256.65 177.25"/><polygon class="cls-42" points="260.08 178.51 256.88 177.2 262.48 176.02 260.08 178.51"/><polygon class="cls-42" points="268.93 178 267.64 176.49 270.83 177.45 268.93 178"/><rect class="cls-42" x="259.76" y="176.54" width="8.71" height="2.01"/><rect class="cls-42" x="256.89" y="177.31" width="14.09" height="1.76"/><rect class="cls-42" x="260.02" y="174.99" width="7.9" height="1.93"/><polygon class="cls-18" points="267.94 174.99 267.94 176.44 271.72 177.56 270.99 179.15 256.89 179.08 256.5 177.31 260.02 176.45 260.02 174.99 267.94 174.99"/><rect class="cls-36" x="259.52" y="179.15" width="9.1" height="4.66"/><path class="cls-26" d="M269.96,184.84h-11.78l1.35-.95c.07-.05,.16-.08,.25-.08h8.81c.1,0,.2,.04,.27,.1l1.11,.93Z"/><line class="cls-3" x1="260.5" y1="176.38" x2="267.37" y2="176.38"/><g><rect class="cls-42" x="262.62" y="179.15" width="2.58" height="4.66"/><rect class="cls-3" x="262.62" y="179.15" width="2.58" height="4.66"/></g><path class="cls-14" d="M260.02,175.11v1.24c0,.06-.04,.11-.09,.12l-3.31,.82c-.06,.02-.1,.08-.09,.15l.34,1.55c.01,.06,.06,.1,.12,.1l13.92,.08s.09-.03,.11-.07l.64-1.39c.03-.07,0-.15-.08-.17l-3.56-1.05c-.05-.02-.09-.06-.09-.12v-1.23c0-.07-.05-.12-.12-.12h-7.67c-.07,0-.12,.05-.12,.12Z"/><polyline class="cls-11" points="259.52 179.15 259.52 183.81 268.62 183.81 268.62 179.15"/></g><g><rect class="cls-52" x="72.9" y="111.93" width="34.81" height="12.38"/><rect class="cls-43" x="73.82" y="111.93" width="32.93" height="12.38"/></g><text class="cls-58" transform="translate(79.57 118.68)"><tspan x="0" y="0">天龍寺</tspan></text><text class="cls-60" transform="translate(78.81 122.35)"><tspan class="cls-37" x="0" y="0">T</tspan><tspan class="cls-54" x="1.48" y="0">enryuu </tspan><tspan class="cls-37" x="11.39" y="0">T</tspan><tspan x="12.88" y="0">emple</tspan></text><g><g><rect class="cls-52" x="102.98" y="18.7" width="41.02" height="12.69"/><rect class="cls-43" x="104.75" y="18.7" width="37.75" height="12.69"/></g><text class="cls-61" transform="translate(109.07 26)"><tspan x="0" y="0">野宮神社</tspan></text><text class="cls-60" transform="translate(114.04 29.08)"><tspan x="0" y="0">Nomiya Shrine</tspan></text></g><g><rect class="cls-52" x="124.39" y="73.63" width="38.58" height="11.93"/><rect class="cls-43" x="125.42" y="73.63" width="36.55" height="11.93"/></g><text class="cls-58" transform="translate(134 80.12)"><tspan class="cls-57" x="0" y="0">弘</tspan><tspan x="6.87" y="0">源寺</tspan></text><text class="cls-60" transform="translate(134.08 83.53)"><tspan x="0" y="0">Kougen </tspan><tspan class="cls-37" x="10.87" y="0">T</tspan><tspan class="cls-54" x="12.35" y="0">emple</tspan></text><g><rect class="cls-52" x="155.93" y="133.58" width="29.89" height="11.56"/><rect class="cls-43" x="156.82" y="133.58" width="28.15" height="11.56"/></g><text class="cls-59" transform="translate(161.01 139.98)"><tspan x="0" y="0">妙智院</tspan></text><text class="cls-60" transform="translate(163.8 143.64)"><tspan x="0" y="0">Myochiin</tspan></text><g><rect class="cls-52" x="217.07" y="173.39" width="36.29" height="12.58"/><rect class="cls-43" x="218.16" y="173.39" width="34.18" height="12.58"/></g><text class="cls-58" transform="translate(225.53 180.47)"><tspan class="cls-64" x="0" y="0">臨川</tspan><tspan x="13.79" y="0">寺</tspan></text><text class="cls-60" transform="translate(225.63 184.22)"><tspan x="0" y="0">Rinsen </tspan><tspan class="cls-37" x="9.37" y="0">T</tspan><tspan class="cls-54" x="10.85" y="0">emple</tspan></text><g><path class="cls-51" d="M230.6,123.2h27.45c1.2,0,2.17,.97,2.17,2.17v7.06s0,0,0,0h-29.61s0,0,0,0v-9.23s0,0,0,0Z" transform="translate(-1.88 3.67) rotate(-.85)"/><line class="cls-7" x1="230.17" y1="129.78" x2="259.99" y2="129.76"/><rect class="cls-51" x="214.66" y="123.36" width="8.1" height="9.06"/><rect class="cls-50" x="214.66" y="124.81" width="2.37" height="3.15"/><rect class="cls-50" x="218.47" y="124.81" width="2.83" height="3.15"/><rect class="cls-50" x="230.37" y="124.95" width="2.64" height="3.15"/><rect class="cls-50" x="234.51" y="124.95" width="2.83" height="3.15"/><rect class="cls-50" x="238.97" y="124.91" width="2.83" height="3.15"/><rect class="cls-50" x="243.45" y="124.91" width="2.83" height="3.15"/><rect class="cls-50" x="248.14" y="124.91" width="2.83" height="3.15"/><rect class="cls-50" x="253.67" y="125.79" width=".96" height="2.66"/><rect class="cls-50" x="255.45" y="125.79" width=".96" height="2.66"/><rect class="cls-44" x="214.39" y="132.08" width="8.36" height="2.99"/><rect class="cls-44" x="230.37" y="132.08" width="35.53" height="2.67"/><rect class="cls-31" x="208.75" y="116.89" width="5.65" height="7.6"/><rect class="cls-22" x="222.76" y="116.89" width="5.64" height="18.18"/><rect class="cls-20" x="208.75" y="124.49" width="5.65" height="10.59"/><rect class="cls-32" x="205.7" y="112.87" width="26.17" height="4.02"/><rect class="cls-32" x="207.08" y="116.89" width="1.66" height="18.99"/><rect class="cls-32" x="228.51" y="116.89" width="1.66" height="18.99"/><line class="cls-9" x1="208.75" y1="135.07" x2="228.39" y2="135.07"/><line class="cls-9" x1="214.39" y1="116.89" x2="214.39" y2="135.07"/><line class="cls-32" x1="222.76" y1="116.89" x2="222.76" y2="135.07"/><line class="cls-9" x1="214.39" y1="132.08" x2="222.76" y2="132.08"/><line class="cls-9" x1="230.37" y1="132.08" x2="265.9" y2="132.08"/><line class="cls-22" x1="208.75" y1="124.49" x2="214.39" y2="124.49"/><rect class="cls-24" x="212.13" y="115.34" width="13.45" height="4.22"/><text class="cls-62" transform="translate(214.82 118.33)"><tspan class="cls-39" x="0" y="0">嵐</tspan><tspan class="cls-65" x="2.68" y="0">山</tspan><tspan x="5.36" y="0">駅</tspan></text><rect class="cls-23" x="214.66" y="129.24" width="3.74" height="3.18"/><rect class="cls-23" x="218.98" y="129.24" width="3.52" height="3.18"/><line class="cls-23" x1="214.66" y1="123.36" x2="222.78" y2="123.36"/><path class="cls-15" d="M230.17,123.36l27.94-.24c1.04,0,1.88,.83,1.88,1.86v7.09"/><rect class="cls-12" x="214.19" y="124.81" width="2.83" height="3.15"/><rect class="cls-12" x="218.47" y="124.81" width="2.83" height="3.15"/><rect class="cls-12" x="230.17" y="124.95" width="2.83" height="3.15"/><rect class="cls-12" x="234.51" y="124.95" width="2.83" height="3.15"/><rect class="cls-12" x="238.97" y="124.91" width="2.83" height="3.15"/><rect class="cls-12" x="243.45" y="124.91" width="2.83" height="3.15"/><rect class="cls-12" x="248.14" y="124.91" width="2.83" height="3.15"/><path class="cls-12" d="M254.3,124.61h1.61c.79,0,1.44,.64,1.44,1.44v6.03h-4.49v-6.03c0-.79,.64-1.44,1.44-1.44Z"/><rect class="cls-12" x="253.67" y="125.79" width=".96" height="2.66"/><rect class="cls-12" x="255.45" y="125.79" width=".96" height="2.66"/><path class="cls-13" d="M205.27,112.55v4.76h1.49v18.9h2.37v-.77l18.99-.04v.8h2.45v-1.45h35.33v-2.99h-5.73s-.02-7.15-.02-7.15c0,0-.22-1.34-1.6-1.61h-5.31s-14.6,.12-14.6,.12h-8.12l.03-5.93h1.6v-4.78l-26.88,.14Z"/></g><g><rect class="cls-52" x="215.88" y="139.39" width="38.62" height="11.94"/><rect class="cls-43" x="217.04" y="139.39" width="36.36" height="11.94"/></g><text class="cls-58" transform="translate(225.3 146.04)"><tspan class="cls-55" x="0" y="0">嵐</tspan><tspan class="cls-63" x="6.96" y="0">山</tspan><tspan x="13.9" y="0">駅</tspan></text><text class="cls-60" transform="translate(222.44 149.53)"><tspan x="0" y="0">arashiyama station</tspan></text><g><g><rect class="cls-52" x="174.4" y="206.63" width="40.7" height="12.59"/><rect class="cls-43" x="175.61" y="206.63" width="38.32" height="12.59"/></g><text class="cls-58" transform="translate(185.23 213.04)"><tspan class="cls-53" x="0" y="0">渡</tspan><tspan class="cls-56" x="6.83" y="0">月</tspan><tspan x="13.54" y="0">橋</tspan></text><text class="cls-60" transform="translate(187.68 217.34)"><tspan class="cls-17" x="0" y="0">T</tspan><tspan x="1.51" y="0">ogetukyou</tspan></text></g><g><rect class="cls-42" x="77.19" y="148.39" width="6.34" height="3.87"/><polygon class="cls-42" points="75.19 147.12 76.07 146.94 75.28 148.02 75.19 147.12"/><polygon class="cls-42" points="77.58 148 75.36 147.09 79.26 146.27 77.58 148"/><polygon class="cls-42" points="83.74 147.64 82.85 146.59 85.07 147.26 83.74 147.64"/><rect class="cls-42" x="77.36" y="146.63" width="6.07" height="1.4"/><rect class="cls-42" x="75.36" y="147.17" width="9.82" height="1.23"/><rect class="cls-42" x="77.54" y="145.55" width="5.5" height="1.34"/><polygon class="cls-18" points="83.05 145.55 83.05 146.56 85.69 147.34 85.18 148.45 75.36 148.39 75.09 147.17 77.54 146.56 77.54 145.55 83.05 145.55"/><rect class="cls-36" x="77.19" y="148.45" width="6.34" height="3.24"/><path class="cls-26" d="M84.46,152.41h-8.21l.94-.66s.11-.05,.17-.05h6.13c.07,0,.14,.02,.19,.07l.77,.65Z"/><line class="cls-3" x1="77.87" y1="146.51" x2="82.66" y2="146.51"/><g><rect class="cls-42" x="79.35" y="148.45" width="1.8" height="3.24"/><rect class="cls-3" x="79.35" y="148.45" width="1.8" height="3.24"/></g><path class="cls-14" d="M77.54,145.63v.86s-.03,.07-.06,.08l-2.31,.57s-.07,.06-.06,.1l.24,1.08s.04,.07,.08,.07l9.69,.05s.06-.02,.08-.05l.45-.97s0-.1-.05-.12l-2.48-.73s-.06-.04-.06-.08v-.86s-.04-.09-.09-.09h-5.34s-.09,.04-.09,.09Z"/><polyline class="cls-11" points="77.19 148.45 77.19 151.69 83.53 151.69 83.53 148.45"/></g><g><rect class="cls-42" x="120.43" y="130.25" width="6.34" height="3.87"/><polygon class="cls-42" points="118.43 128.98 119.31 128.79 118.53 129.87 118.43 128.98"/><polygon class="cls-42" points="120.83 129.85 118.6 128.94 122.5 128.12 120.83 129.85"/><polygon class="cls-42" points="126.99 129.5 126.09 128.44 128.31 129.11 126.99 129.5"/><rect class="cls-42" x="120.6" y="128.48" width="6.07" height="1.4"/><rect class="cls-42" x="118.6" y="129.02" width="9.82" height="1.23"/><rect class="cls-42" x="120.78" y="127.4" width="5.5" height="1.34"/><polygon class="cls-18" points="126.29 127.4 126.29 128.41 128.93 129.19 128.42 130.3 118.6 130.25 118.33 129.02 120.78 128.42 120.78 127.4 126.29 127.4"/><rect class="cls-36" x="120.43" y="130.3" width="6.34" height="3.24"/><path class="cls-26" d="M127.71,134.26h-8.21l.94-.66s.11-.05,.17-.05h6.13c.07,0,.14,.02,.19,.07l.77,.65Z"/><line class="cls-3" x1="121.12" y1="128.37" x2="125.9" y2="128.37"/><g><rect class="cls-42" x="122.59" y="130.3" width="1.8" height="3.25"/><rect class="cls-3" x="122.59" y="130.3" width="1.8" height="3.25"/></g><path class="cls-14" d="M120.78,127.49v.86s-.03,.07-.06,.08l-2.31,.57s-.07,.06-.06,.1l.24,1.08s.04,.07,.08,.07l9.69,.05s.06-.02,.08-.05l.45-.97s0-.1-.05-.12l-2.48-.73s-.06-.04-.06-.08v-.86s-.04-.09-.09-.09h-5.34s-.09,.04-.09,.09Z"/><polyline class="cls-11" points="120.43 130.3 120.43 133.54 126.77 133.54 126.77 130.3"/></g><rect class="cls-13" x="214.9" y="119.82" width="7.32" height="3.31"/><g><path class="cls-29" d="M256.4,213.89h2.84v2.84c0,.71-.57,1.28-1.28,1.28h-2.84v-2.84c0-.71,.57-1.28,1.28-1.28Z" transform="translate(-78.24 232.48) rotate(-42.84)"/><path class="cls-27" d="M210.47,213.89h2.84v2.84c0,.71-.57,1.28-1.28,1.28h-2.84v-2.84c0-.71,.57-1.28,1.28-1.28Z" transform="translate(-90.49 201.24) rotate(-42.84)"/><rect class="cls-30" x="254.56" y="217.34" width="5.23" height="8.24" rx="1.94" ry="1.94"/><rect class="cls-28" x="208.63" y="217.35" width="5.23" height="8.24" rx="1.94" ry="1.94"/><rect class="cls-4" x="256.76" y="225.44" width=".83" height="13.33"/><path class="cls-2" d="M211.32,225.24l-.44,12.19s21.1-9.37,46.71-1.41l.36-10.78"/><rect class="cls-4" x="210.42" y="226.19" width="1.65" height="13.33"/><path class="cls-5" d="M210.67,228.67s22.87-10.53,47.49-.9"/><line class="cls-5" x1="220.24" y1="225.59" x2="220.24" y2="234.11"/><line class="cls-5" x1="233.62" y1="224.41" x2="233.62" y2="232.93"/><line class="cls-5" x1="247.01" y1="225.03" x2="247.01" y2="233.55"/><path class="cls-8" d="M210.42,232.11s24.41-9.3,47.17-.78"/><rect class="cls-8" x="226.09" y="228.67" width=".94" height="4.19"/><rect class="cls-8" x="239.85" y="228.25" width=".94" height="4.19"/><rect class="cls-46" x="211.25" y="223.71" width="3.34" height="18.29"/><rect class="cls-46" x="256.76" y="222.96" width="3.34" height="18.29"/><path class="cls-16" d="M207.87,223.71v18.29h6.72v-4.23s17.85-6.94,39.46-1.12v4.6h6.05v-18.29h-5.92l.05,2.28s-16.8-6.46-39.65,.95v-2.48h-6.72Z"/></g></g></g></g></svg>