<svg xmlns="http://www.w3.org/2000/svg" viewBox="0 0 728.2 688.12"><defs><style>.cls-1{fill:#c22939;}.cls-2{fill:none;stroke:#ffeec0;stroke-miterlimit:10;stroke-width:7.48px;}</style></defs><g id="レイヤー_2" data-name="レイヤー 2"><g id="レイヤー_2-2" data-name="レイヤー 2"><path class="cls-1" d="M698.63,389s36.73,25,28.31,66.32S681,505.81,681,505.81c-.77,19.64-4.92,25.31-13.52,39.54-10.5,17.38-36,25.34-48.46,26-15.18.83-28.76-5.86-28.76-5.86C580.85,571.69,561.4,576,557.06,576s-21.74-.45-25.89-4.6V530.11c3.45,4.4,17.41,20.08,17.41,20.08l3.06-3.44c-9-5.93-37.3-61.22-37.3-61.22-7.46-23.14-36.54-66.19-36.54-66.19C469.19,403.46,460.58,361,460.58,361L488,377.12s3.28,18,27.51,73.6,67.08,96.16,67.08,96.16l3.32-3.83s-13-7.65-45.66-60.7-41.8-99.55-41.8-99.55l30.06,20.37c3.58,21.43,16.33,44.23,32.66,72.54s32.9,43.74,32.9,43.74l2.55-1.39s-20.66-32.65-38.26-60.2S542,411.69,542,411.69c19.65,6.38,58.42,73.46,67.86,95.65S618,545.86,618,545.86h4.6c.25-34.43-11.17-53.46-21.94-73.21-26.18-48-54.58-69.48-54.58-69.48,11,1.18,31.63,8.52,46.93,18.47s18.78,13.93,30.61,28.56c15.05,18.63,26.53,46.18,26.53,46.18l3.82-1.79s-2.55-13.52-13-31.88S615.22,424.85,594.05,412c-28-17.08-59.43-16.84-59.43-16.84L502,374.7c21.93-3.32,42.34-3.57,63.77,2.05s45.4,20.15,68.61,41.32a283.92,283.92,0,0,1,37.24,41.06l3.07-3.06S648,412.54,612.16,390c-36.48-23-58.16-25.25-88-25.25s-36,2.55-36,2.55l-21.69-13.52s6.12-4.08,33.67-9.89,42.86-3.63,67.6,0,42.59,13.46,69.63,30.8,38.26,32.71,38.26,32.71l3.32-3.12s-20.13-22.67-31.73-32.21c-19.16-15.74-38.22-25.62-61.88-32.83-18-5.48-31.63-8.18-66.09-7.78-32.25.38-63,18.24-63,18.24L424.43,338C466.8,313.36,495,310.39,527.64,310.3c35.1-.1,53.85,5.93,76.87,14.41a242.39,242.39,0,0,1,56.63,30.35l2.54-3.06s-14-14-37-26c-19.07-10-58.83-22.76-88.39-23.91-18.94-.73-44.19-1.34-67.53,5.94a243.29,243.29,0,0,0-60.32,28.43l-17.86-6.37-4.9-3a24.66,24.66,0,0,0-4.5-13.49l5.58-3.93s74.16-25,108.66-27.55c30.45-2.25,78.56-4.59,99.22-1.53s55.86,10.21,78.56,27.55S703.73,350,703.22,365,698.63,389,698.63,389Z"/><path class="cls-1" d="M676.9,232.43c0,10.76-8.61,11.86-7.08,16.45s2.18,8.65,0,14.35c-4.83,12.91-14.63,11.88-20.71,11.86a24.41,24.41,0,0,1-12.81-3.64c-5.92-3.33-6.51-7.26-19.71-7.26s-16.07,10.9-16.07,10.9-16.83-1.72-24.48-1.53c0,0-13.74-11.48-25.14-11.86S535,265.19,525.39,269c-8,3.12-15.5.76-17.79.19s-10.23-7-10.09-13.14c.13-5.74,3.77-10.2,4-14.6s-8-12.62-1.34-21.62,15.18-12.54,23.21-7.81c2.22,1.31,3.43,3.13,7.2,3.09,4.05,0,5.55-5.23,14.55-5.42,7.46-.15,17.59,2.11,18.74,16.84s-2.87,23.14,6.51,29.84l11.32.39,0-42.79c-2.21-4.26-2.94-10.85-15.05-15.82s-25,2.86-42.87.82-11.07-18-12-22.75c-.63-3.36-6.73-15.81-4.07-21.56,1.74-3.78,3.71-10.86,21.45-11.24,5.58-.11,9.16-6.48,18.93-5.63,9.53.83,21.72,11,19.69,31.41s9.56,26,9.56,26l5.61.12s1.28-38,0-44.38-27.8-24.48-27-35.45,7.14-15.56,14.29-18.88S578.89,81.3,591.64,81,609,95.32,619.7,100.68s9.7,14,9.95,17.34-8.93,19.39-18.11,20.92-17.34,19.14-17.34,19.14v37.23h6.37s7.15-1.53,10.71-22.95,9.09-31.82,20.67-32.14c9.18-.25,12.07,5.73,14,5.91,6.36.57,13.6.88,15.85,1.31s9.85,1.86,11.43,13.18c1.06,7.59-4.09,10.46-4.09,15s2.81,4.59,1.28,10.72c-2.38,9.52-12,13.26-16.58,13.26s-5.66-1.47-9.69-3.06c-7-2.75-17.28-2.6-23.88-2.12a16.22,16.22,0,0,0-10.44,4.87L598.7,210.86a11.68,11.68,0,0,0-3.3,8.12v37.3h9s6.69-6.64,7.46-24.23,14.93-23.74,19.66-23.92c3.77-.14,11.56,1,15.15,5.36,2.78,3.35,2.35,1.77,13.78,1.91C670.08,215.52,676.89,222.62,676.9,232.43Z"/><path class="cls-1" d="M522.11,541.78v47.44C516.5,605.42,494,618.47,494,618.47s.79,15.8-19,32.54c-23.22,19.63-59.69,13-59.69,13s-26.78,24.1-51.33,24.1-52.16-24.48-52.16-24.48-29.65,6.31-52.23-6.51-27.93-43.23-27.93-43.23A93.25,93.25,0,0,1,206,591.52V542.16s13.21-53.95,28.13-82.64,37.47-52.93,55.09-68.87c20.07-18.15,60-36.37,66.9-39.43.34.1.68.21,1,.3l.27,23.18s-31,8.42-74.83,56.89-49.74,94-49.74,114.53c0,14.28.32,20.72.32,20.72h3.3s.46-24,3.27-38.33,6.38-43.87,43.87-86.46,73.81-56.89,73.81-56.89h.12l.28,23.08s-30.53,10-60.56,49.75c-21.1,27.94-35.6,56.81-35.59,94.12,0,40.94,3.9,51.46,6.5,59.8l3.61.05a199.59,199.59,0,0,1-3.85-25.4c-1-12.62-1.45-38.39,2.29-56.81,3.7-18.2,15.75-47.28,32.59-67.17s37.49-40,55.11-45.53l.38,31.62s-34.13,18.88-49.69,46.18S290,550.53,291.28,577.36c1.27,26.27,10.71,55,10.71,55h3.57s-9.95-29.08-8.42-62,1.4-45,17.85-71.68c15.65-25.35,43.44-40,43.44-40l.24,20.79a126,126,0,0,0-29.74,49.06c-7,22-7.38,62.59-4.21,83.48s9.28,32,9.28,32h3.82S329.41,624.8,329,585.4s14.13-78.32,29.82-90.67l1.8,151.63h6.89l1.65-152.57h.05c15.74,12.25,30.34,51.36,30,90.78s-8.8,58.53-8.8,58.53h3.83s6.12-11.09,9.28-32,2.83-61.46-4.21-83.47a125.93,125.93,0,0,0-29.75-49.07h-.2l.22-20.78h.23s27.79,14.7,43.43,40c16.45,26.66,16.33,38.77,17.86,71.68s-8.42,62-8.42,62h3.57s9.44-28.7,10.71-55c1.3-26.83-1.78-55.22-17.34-82.52s-49.69-46.16-49.69-46.16h-.24l.34-31.64h.28c17.62,5.54,38.28,25.63,55.11,45.53s28.89,49,32.59,67.16c3.74,18.43,3.25,44.2,2.29,56.83a200.37,200.37,0,0,1-3.86,25.38l3.62,0c2.59-8.34,6.47-18.86,6.49-59.8,0-37.31-14.49-66.18-35.58-94.13-30-39.78-60.56-49.74-60.56-49.74h-.28l.25-23.08h.43s36.31,14.29,73.81,56.88,41.08,72.27,43.87,86.47S491.74,566,491.74,566h3.31s.31-6.44.31-20.72c0-20.54-5.86-66.07-49.74-114.54s-74.82-56.88-74.82-56.88h-.32l.24-22.59.65-.22c4.55,2.05,32.43,14.89,55.78,32.16,25.5,18.88,37.09,28.29,65.89,74.65C518.54,498.92,522.11,541.78,522.11,541.78Z"/><path class="cls-1" d="M370.3,129.32h10.82s9.94-16.83,13.33-34S405.61,61.6,415.32,61.6s10.18,8,14.77,9.57,11.48-2.68,19.14,6.12-5.36,18.36,1.91,24.49,9.94,21.81-8,23.72-21.42-1.53-36.73,0-34.91,23.34-34.91,23.34V199h10s5.74,1.91,9.95-24.87,16.45-35.2,23.87-36.35,4.82,5,14.77,3.06,18.75,1.15,23,6.89-1.91,16.45,2.68,26.78S455,199,444.25,201.26s-33.29.76-49.8,5-23,26.4-23,26.4v52.8H380s1.15,1.91,4.21-28.31S395.7,218.65,410,215.54s15.56,7,20.85,4.84c8.07-3.3,19.2-5.26,26.85.77,9.06,7.14.9,20.79,4.72,25.51,4.07,5,8.17,8.55,6.26,18.11s-14.94,14.35-22.59,16.58c-6.36,1.85-26.66,1.24-37,1.53-5.88.16-11.22,3.69-15.67,7.53A95.7,95.7,0,0,0,380,305.33l-3,2.18a23.83,23.83,0,0,0-25.72-.76l-2.32-1.42s-10.71-16.84-21.42-20.28c0,0-37.89,1.53-45.92-2.68s-21.43-10.72-23.34-20.28,3.44-11.48,7.08-16.84-2.87-19.89,4.4-24.87,21.42-5.35,28.32,0,1.22-7,15.53-3.87,28.08,10.38,31.14,40.61,4.21,28.31,4.21,28.31h8.51v-52.8s-6.46-22.19-23-26.4-39.1-2.68-49.81-5-16.07-16.46-11.47-26.79-1.53-21,2.67-26.78,13-8.8,23-6.89,7.34-4.21,14.77-3.06,19.66,9.57,23.87,36.35S347.39,199,347.39,199h10V148.84S337.82,127,322.52,125.5s-18.75,1.91-36.73,0-15.3-17.6-8-23.72S272,86.09,279.67,77.29s14.54-4.59,19.13-6.12,5.05-9.57,14.77-9.57,17.5,16.45,20.88,33.67,13.32,34.05,13.32,34.05h9.66V86.47s-36.82-40.94-35.68-47.82,4.22-16.46,17.6-23S352.63,0,364,0s14.41,9.57,24,16.45,15.68,13.4,16.45,21.81-34.1,49-34.1,49Z"/><path class="cls-1" d="M451.3,357.26c2.4,17.13,11.58,45.91,11.58,45.91-5.93-7.93-36.83-33.66-36.83-33.66-7.07-11.77-6.79-25.61-6.79-25.61Z"/><path class="cls-1" d="M389.13,334.6l21.62,7.55a49.75,49.75,0,0,0,3.88,21.39,256.29,256.29,0,0,0-31.57-15.2L380.75,345a24.66,24.66,0,0,0,6-10.56Z"/><path class="cls-1" d="M387.64,327.08c0,.26,0,.52,0,.78a24.82,24.82,0,0,1-.89,6.61l-13.89-.74,7.88,11.3a24,24,0,0,1-9.38,6l-.64-.29v.51a23.93,23.93,0,0,1-13.56.25v-.76l-1,.46a24.09,24.09,0,0,1-9.17-5.5l8.37-12-15.06.8a25.21,25.21,0,0,1-.9-6.67v-.05l13.89-8.45-9-6.32a24.18,24.18,0,0,1,7-6.29c4.1,2.55,12.26,7.7,12.73,8.65s8.49-4.66,13-7.89a24.46,24.46,0,0,1,6.18,6.08l-8.2,5.77Z"/><path class="cls-1" d="M387.64,327.08l-12.7-7.72,8.2-5.77A24.66,24.66,0,0,1,387.64,327.08Z"/><path class="cls-1" d="M372.87,333.73l13.89.74a24.66,24.66,0,0,1-6,10.56Z"/><path class="cls-1" d="M371.37,351.05l-.65.22v-.51Z"/><path class="cls-1" d="M377,307.51c-4.5,3.23-12.53,8.8-13,7.89s-8.63-6.1-12.73-8.65a23.83,23.83,0,0,1,25.72.76Z"/><path class="cls-1" d="M357.15,350.76v.76c-.35-.09-.69-.2-1-.3Z"/><path class="cls-1" d="M355.33,333.73l-8.37,12a24.71,24.71,0,0,1-6.69-11.19Z"/><path class="cls-1" d="M353.26,319.36l-13.89,8.45A24.65,24.65,0,0,1,344.28,313Z"/><path class="cls-1" d="M347,345.72l-1.83,2.62a255.81,255.81,0,0,0-31.56,15.2,49.75,49.75,0,0,0,3.88-21.39l21.62-7.55,1.2-.07A24.71,24.71,0,0,0,347,345.72Z"/><path class="cls-1" d="M339.48,309.66l4.8,3.38a24.65,24.65,0,0,0-4.91,14.77l-3.71,2.26-17.86,6.37A243.29,243.29,0,0,0,257.48,308c-23.34-7.28-48.59-6.67-67.53-5.94C160.39,303.22,120.63,316,101.57,326,78.51,338,64.51,352,64.51,352l2.56,3.06a241.93,241.93,0,0,1,56.62-30.35c23-8.48,41.77-14.51,76.88-14.41,32.65.09,60.83,3.06,103.2,27.67l-31.88,11.74s-30.74-17.86-63-18.24c-34.46-.4-48.11,2.3-66.09,7.78-23.66,7.21-42.72,17.09-61.88,32.83-11.61,9.54-31.73,32.21-31.73,32.21l3.31,3.12S63.75,392,90.78,374.7s44.9-27.17,69.64-30.8,40.05-5.8,67.6,0,33.66,9.89,33.66,9.89L240,367.31s-6.13-2.55-36-2.55-51.53,2.29-88,25.25c-35.81,22.53-62.49,66.06-62.49,66.06l3.06,3.06a284.17,284.17,0,0,1,37.23-41.06c23.22-21.17,47.2-35.71,68.62-41.32s41.83-5.37,63.77-2.05l-32.65,20.41s-31.42-.24-59.43,16.84c-21.17,12.9-36.48,32.39-46.93,50.76s-13,31.88-13,31.88L78,496.38s11.48-27.55,26.53-46.18c11.83-14.63,15.3-18.61,30.61-28.56s36-17.29,46.93-18.47c0,0-28.4,21.45-54.58,69.48-10.77,19.75-22.19,38.78-21.94,73.21h4.59s-1.28-16.32,8.16-38.52,48.21-89.27,67.85-95.65c0,0,1.28,18.62-16.32,46.17s-38.26,60.2-38.26,60.2l2.55,1.39s16.58-15.42,32.91-43.74,29.07-51.11,32.64-72.54l30.07-20.37s-9.15,46.49-41.8,99.55-45.66,60.7-45.66,60.7l3.32,3.83s42.85-40.56,67.08-96.16,27.5-73.6,27.5-73.6L267.61,361s-8.6,42.46-17.21,58.34c0,0-29.08,43.05-36.54,66.19,0,0-28.32,55.29-37.31,61.22l3.06,3.44s14-15.68,17.41-20.08v41.25c-4.14,4.15-21.55,4.6-25.89,4.6s-23.78-4.27-33.22-10.46c0,0-13.58,6.69-28.76,5.86-12.48-.67-38-8.63-48.46-26-8.59-14.23-12.76-19.9-13.52-39.54,0,0-37.49-9.18-45.92-50.5S29.57,389,29.57,389s-4.08-8.93-4.59-24S30.33,325.48,53,308.13s57.91-24.49,78.57-27.55,68.77-.72,99.22,1.53C265.32,284.67,339.48,309.66,339.48,309.66Z"/><path class="cls-1" d="M308.94,343.9s.28,13.84-6.79,25.61c0,0-30.9,25.73-36.83,33.66,0,0,9.18-28.78,11.57-45.91Z"/><path class="cls-1" d="M230.07,256.6c.15,6.19-7.79,12.57-10.09,13.14s-9.82,2.94-17.79-.19c-9.63-3.78-14.16-7.65-25.56-7.27s-25.14,11.86-25.14,11.86c-7.65-.19-24.49,1.54-24.49,1.54s-2.86-10.91-16.06-10.91S97.15,268.7,91.23,272a24.29,24.29,0,0,1-12.81,3.63c-6.08,0-15.88,1.05-20.71-11.86-2.14-5.7-1.49-9.75,0-14.34s-7.09-5.7-7.07-16.46c0-9.81,6.81-16.91,16.45-17,11.43-.14,11,1.44,13.77-1.91,3.59-4.33,11.39-5.5,15.17-5.35,4.72.18,18.88,6.31,19.65,23.91s7.46,24.23,7.46,24.23h9V219.57a11.7,11.7,0,0,0-3.29-8.13l-11.17-11.52a16.22,16.22,0,0,0-10.45-4.87c-6.59-.48-16.91-.63-23.87,2.12-4,1.6-5.1,3.06-9.69,3.06S59.49,196.49,57.12,187c-1.53-6.12,1.27-6.12,1.27-10.71s-5.14-7.46-4.08-15c1.58-11.32,9.29-12.78,11.43-13.18s9.49-.74,15.85-1.32c2-.17,4.86-6.16,14-5.91,11.58.32,17.09,10.72,20.66,32.14s10.71,23,10.71,23h6.38V158.66s-8.16-17.6-17.34-19.13-18.37-17.6-18.11-20.92-.77-12,9.95-17.34,15.3-19.9,28.05-19.64,14.29,12.24,21.43,15.55,13.52,7.91,14.29,18.88-25.77,29.08-27,35.46,0,44.38,0,44.38l5.61-.13s11.61-5.61,9.56-26,10.16-30.58,19.68-31.41c9.78-.85,13.36,5.52,18.94,5.64,17.74.38,19.71,7.46,21.45,11.24,2.66,5.74-3.44,18.2-4.08,21.55-.9,4.77,5.88,20.71-12,22.76s-30.75-5.8-42.87-.83-12.84,11.57-15.05,15.82L147,256.93h10.21c9.37-6.7,5.35-15.12,6.5-29.85s11.28-17,18.74-16.83c9,.19,10.5,5.38,14.54,5.42,3.78,0,5-1.79,7.21-3.1,8-4.73,16.52-1.18,23.21,7.81S225.91,237.6,226.1,242,229.94,250.86,230.07,256.6Z"/><path class="cls-2" d="M387.64,327.08c0,.26,0,.52,0,.78a24.72,24.72,0,0,1-6.9,17.17,24,24,0,0,1-9.38,6l-.65.22a23.93,23.93,0,0,1-13.56.25c-.35-.09-.69-.2-1-.3a24.09,24.09,0,0,1-9.17-5.5,24.71,24.71,0,0,1-6.69-11.19,25.21,25.21,0,0,1-.9-6.67v-.05A24.65,24.65,0,0,1,344.28,313a24.18,24.18,0,0,1,7-6.29,23.83,23.83,0,0,1,25.72.76,24.54,24.54,0,0,1,10.68,19.57Z"/></g></g></svg>