<?xml version="1.0" encoding="UTF-8"?><svg id="_レイヤー_2" xmlns="http://www.w3.org/2000/svg" viewBox="0 0 50.85 45.98"><defs><style>.cls-1{fill:#efb9a6;}</style></defs><g id="_レイヤー_1-2"><g><path class="cls-1" d="m43.14,36.21s0,.01,0,.02c0,0,0-.01,0-.02Zm3.79-9.2c-.13-.13-4.19-4.44-9.95-4.43-3.25,0-5.31,1-5.31,1l-2.44-.81s2.18-1.49,6.61-2c4.37-.5,9.98,2.77,10.14,2.87-.15-.1-4.48-3.11-8.89-3.2-4.67-.1-8.41,2.2-8.41,2.2l-1.54-.44c.14-.92-.31-1.35-.31-1.35,0,0,5.01-1.57,6.57-1.72,1.07-.1,5.71-.8,9.74,0,4.04.8,4.57,2.19,5.24,3.29.68,1.1.29,3.74.29,3.74,0,0,.88.8,1.15,1.14.27.34,1.26,1.94.52,3.96-.74,2.02-3,2.6-3,2.6,0,0,.05,1.51-1.22,2.95-1.26,1.44-3.5,1.57-4.06,1.27-.56-.3-1.06-.3-1.47-.11-.41.19-.77.47-1.81.52-1.04.04-1.9-.43-1.9-.43l-.51-3.09,1.9,1.61-1.85-2.17s-1.28-3.86-2.91-5.75c-1.4-1.62-1.72-4.71-1.72-4.71l2.37,1.25s.23,1.86,1.68,4.75c1.54,3.08,4.66,6.37,4.78,6.49-.11-.13-2.51-3.05-3.97-5.67-1.4-2.52-2.11-5.46-2.11-5.46l2.73,1.75s.02,1.36.98,2.99c1.13,1.92,3.08,4.34,3.14,4.41-.04-.06-1.06-1.56-2.49-3.85-1.46-2.34-1.41-3.36-1.41-3.36,0,0,1.72,1.38,2.99,3.14,1.84,2.55,2.57,5.39,2.67,5.81-.09-.41-.7-3.02-1.62-4.65-1.34-2.38-3.89-4.56-3.89-4.56.55-.05,2.37.27,4.09,1.51,1.63,1.18,3.5,4.48,3.57,4.6-.04-.12-1.16-3.04-3.53-4.94-2.14-1.72-4.34-1.47-4.34-1.47l-2.68-1.64s2.49-.72,5.13.17c2.9.98,6.75,5.05,6.88,5.19-.13-.16-4.33-5.38-8.31-5.92-2.43-.33-4.33.24-4.33.24l-1.95-1.01s1.75-1.03,5.58-.91c4.96.16,9.07,4.06,9.2,4.18Zm-3.79,9.24s0,0,0-.02c0,0,0,.01,0,.02Z"/><path class="cls-1" d="m45.73,14.6c.82.08,1.59.56,1.34,1.45s-.44.76-.35,1.1c.08.34-.03,1.35-.99,1.43-1.07.09-1.42-.09-1.78-.37-.14-.11-.31-.2-.49-.25-.24-.05-.57-.07-.98.07-.7.25-.72.55-.72.55h-1.55s-.82-.81-1.72-.74c-.91.07-.93.09-1.03.2-.1.11-1.53.47-2.26.08s-.8-1.14-.46-1.63c.33-.49-.36-.89-.11-1.44.25-.55.99-.98,1.5-.89.51.08.56.39.82.39.26.01.5-.48,1.19-.41.69.08,1.31.47,1.13,1.43s.24,1.54.47,1.67c.23.12.49.13.55-.11s.03-2.33.03-2.33c0,0,.09-1.05-.88-1.31-.97-.26-1.41-.11-1.71.06-.45.24-2.24.12-2.18-.59.05-.71.09-1.11-.16-1.46s-.24-1.4.6-1.54c.84-.14,1.29-.17,1.63-.38s1.56-.25,1.77.75c.21,1,.17,2.43.53,2.62s.64.08.64.08v-2.07c0-.18.06-.74-.8-1.27-.86-.52-1.27-1.46-1.12-2.02s.38-.75.98-.93c.6-.18.47-1.11,1.4-1.07.93.04,1.1.79,1.37.96.27.17,1.35.28,1.41,1.27.06.99-.71,1.51-1.28,1.74s-1.12,1-1.12,1.5v1.94s.51.14.9-.54c.39-.68.11-1.73.43-2.2.33-.47,1.02-.92,1.84-.51.81.4,1.16.22,1.66.34s.97.98.51,1.55.11.36.08.87c-.01.29-.44,1.13-1.24,1.07-.98-.08-1-.29-1.37-.33-.3-.04-1.1-.3-1.95.45-.71.63-.93.83-.91,1.91.02,1.08.03,1.51.3,1.53s.83-.55.88-1.82c.04-1.27,1.04-1.41,1.76-1.3.73.11.62.44,1.44.52Z"/><path class="cls-1" d="m43.14,36.21s0,.01,0,.02c0,0,0-.01,0-.02Z"/><path class="cls-1" d="m23.37,42.69c-.02-.08-.84-3.43-.36-5.77.49-2.36,2.13-4.08,2.13-4.08v10.13s.01.14.23.14.22-.13.22-.13v-10.18s1.98,2.25,2.21,4.44c.28,2.65-.46,5.44-.48,5.51.03-.07,1.19-2.78.81-5.58-.39-2.84-2.21-4.88-2.51-5.08v-1.66s2.45,1.42,3.59,3.57c1.45,2.74.77,5.99.34,8.13,0,0,1.73-4.02.54-7.18-1.19-3.16-3.36-4.48-4.46-5.17v-2.14s2.99,1.69,4.16,3.31c1.17,1.61,2.17,3.35,2.3,5.12.13,1.78-.2,4.55-.2,4.55,0,0,1.45-4.42-.35-7.58-1.8-3.16-3.69-4.79-5.91-5.94v-1.58s2.47,1.2,4.07,2.62c1.6,1.43,3.18,3.51,3.77,5.23.59,1.72.87,4.34.87,4.34,0,0,.41-2.6-1-5.41-1.41-2.81-3.37-4.36-4.39-5.29-1.02-.93-3.32-1.94-3.32-1.94v-1.46s.41-.05.62-.18c0,0,2.97,1.68,3.84,2.29s3.73,3.53,4.52,5.22c.79,1.69,2.27,5.96,1.78,8.26,0,0-.48,1.05-1.21,1.34-.73.29-.71.56-.8,1-.09.44-.75,1.78-2.02,2.28-1.27.5-2.69.39-3.16.31-.47-.08-1.01,1.52-3.67,1.58-2.66.06-3.55-1.47-3.74-1.53-.19-.06-1.28.56-3.21-.18-1.93-.74-2.13-2.63-2.3-2.9-.17-.27-2.11-1.44-2.21-2.31-.08-.72.38-4.6,1.98-7.68.34-.66.73-1.28,1.18-1.83,2.5-3.04,4.31-4.46,6.56-5.5.23-.11.47-.21.71-.31,0,0,.25.19.7.18l-.05,1.45s-2.39.95-4.42,2.88c-2.02,1.93-4.42,5.29-4.28,9.59,0,0,.42-5.48,3.84-8.63,3.43-3.14,4.85-3.36,4.85-3.36v1.55s-3.04,1.72-4.35,3.39c-1.31,1.67-2.81,4.26-2.49,7.3s.69,3.14.69,3.14c0,0-.92-3.83-.06-6.12s1.59-3.58,2.95-4.88c1.36-1.3,3.26-2.26,3.26-2.26v2.2s-2.31,1.1-3.48,3.07c-.9,1.53-1.59,3.54-1.43,5.46.15,1.78,1.01,3.61,1.04,3.68-.02-.07-.8-2.32-.72-4.17.06-1.42.53-3.99,1.91-5.39,1.38-1.4,2.68-2.11,2.68-2.11v1.68s-2.21,1.87-2.58,4.71c-.36,2.84.33,4.89.8,5.85Z"/><path class="cls-1" d="m32.8,17.41c0,.95-1.31,1.72-2.14,1.69-.94-.03-2.35-.12-3.01.36-.52.39-1.11,1.09-1.11,1.09,0,0-.43-.38-1.16-.38s-1.13.38-1.13.38c0,0-1.13-1.45-2.05-1.33-.92.12-3.29-.28-3.86-.86-.46-.47-.63-1.01-.04-1.65.15-.16.21-.38.16-.58-.08-.33-.12-.85.21-1.27.31-.38,1.14-.41,2.44-.24.12.01.24-.01.33-.08.13-.09.36-.19.65-.14.41.07,1.35.08,1.81,2.36,0,0,.17,2.01.41,2.24.24.24.41.16.53-.12.12-.28.12-3.26-.27-3.87-.39-.61-1.4-1.17-2.14-1.15-.74.02-3.4.12-3.63-1.15-.13-.7.18-.99.29-1.11.06-.06.1-.15.06-.23-.22-.45-.26-1.23.15-1.55.42-.32.57-.38.86-.38.47-.01.67.28.8.23.22-.08.59-.65,1.7.07,1.03.68,1.1,2.11,1.1,2.83,0,.16.03.33.09.48.07.17.18.34.37.35.37.03.54-.29.54-.39v-2.06s.09-.55-.4-1.05-1.88-1.23-2.48-1.3c-.25-.03-.5.03-.66.08-.15.05-.31.08-.47.09-.59.03-1.84.17-1.88-.75-.05-.97.53-1.09.59-1.17.06-.07-.39-1.06.12-1.55.48-.45,1.06-.3,1.18-.31.12-.01.6-.82,1.28-.67.75.18,1.05.64,1.4,2.88,0,0,.29,1.29.83,1.54.54.25.63-.1.65-.45,0-.13-.12-1.77-.12-1.77,0,0-.12-.9-.54-1.14-.42-.24-1.49-1.46-1.71-1.97-.21-.5-.13-1.1.22-1.41s1.21-.82,1.48-1.15c.27-.33.5-.62,1.05-.62s.7.1,1.12.51c.42.41.67.76,1.32,1.08s.58.89.58,1.1-.08.77-.59,1.22-1.76,1.45-1.83,2.18c-.06.62-.08,1.62-.08,1.9,0,.1.02.19.06.28.04.08.12.16.23.21.27.1,1.04-.53,1.24-1.66.2-1.13.27-2.62,1.23-2.72.96-.1,1,.54,1.41.68s.88-.1,1.21.37.03,1.18,0,1.32.59.48.66.98-.55,1.04-.82,1.05c-.27.01-.74.08-1.33-.23-.59-.31-2.11.44-2.51.73-.39.3-1.24.78-1.27,2-.03,1.22-.01,1.61-.01,1.61,0,0-.01.6.48.54.5-.06.7-.54.74-1.65.04-1.11.69-2.34,1.73-2.4.81-.05.59.22.9.27.31.05.48.02.61-.1.12-.13.78.03,1.02.35.24.32.31.69.16,1.13s.28.62.3.9c.02.28.21,1.26-.97,1.68-1.18.42-2.65.06-3.14.27-.48.2-1.58.76-1.67,1.5-.09.75-.18,3.35-.18,3.35,0,0,.04.37.32.41.28.04.47-.74.53-1.35.05-.6.01-1.84.47-2.39.46-.55,1.14-.86,1.47-.89.32-.03.53.1.81.14.27.04,1.16.06,1.43-.08.15-.08,1.22.11,1.36.67.13.57-.2,1.05-.2,1.19s.73.5.73.98Z"/><path class="cls-1" d="m31.42,23.86c.03.71.78,3.22.8,3.3-.62-.75-2.77-2.36-2.77-2.36l-.47-1.84,2.44.89Z"/><path class="cls-1" d="m28.99,24.66l-2.44-1.45c.41-.29.54-.82.54-.82l1.46.46c.11.66.44,1.8.44,1.8Z"/><ellipse class="cls-1" cx="25.36" cy="21.93" rx="1.45" ry="1.38"/><path class="cls-1" d="m24.24,23.31l-.57.27-1.82.85.4-1.58.09-.03,1.34-.39c.17.59.57.87.57.87Z"/><path class="cls-1" d="m9.69,34.37h0s0,0,0,0Zm-4.76-10.77c.1-.06.52-.33,1.21-.69.78-.41,1.9-.93,3.23-1.39,2.67-.91,4.76-.88,6.16-.75.97.09,4.82.86,6.13,1.97l-2.52.91s-3.48-1.72-8.1-.86c-3.89.73-6.95,4.09-7.11,4.27.14-.15,2.49-2.53,5.67-3.53,3.28-1.03,6.43-.95,9.11.27l-1.87.89s-3.57-.93-7.19.76c-3.83,1.78-5.57,5.25-5.57,5.25,0,0,2.35-3.79,6.51-5.32,2.86-1.05,5.59-.35,5.59-.35l-2.57,1.67s-2.02-.32-4.07.99c-1.64,1.05-3.79,3.54-3.97,5.29,0,0,1.13-2.38,2.92-3.94,1.49-1.3,2.68-2.11,4.6-2.01,0,0-2.77,2.44-3.77,4.31-1.09,2.03-1.57,5.14-1.57,5.14,0,0,.59-3.1,2.17-5.39,1.58-2.29,3.39-3.87,3.39-3.87,0,0,.03,1.25-1.51,3.71-1.82,2.93-2.1,3.37-2.13,3.42.12-.13,3.47-4.09,4.18-7.3l2.4-1.72s-.31,2.58-2.02,5.24c-1.71,2.66-3.97,5.9-3.97,5.9,0,0,3.45-3.96,4.56-6.12,1.1-2.16,1.93-4.68,1.93-5.25l2.11-1.02s-.72,3.81-1.47,4.6c-.41.43-.96,1.36-1.48,2.37-.58,1.13-1.1,2.35-1.31,3.05,0,0-1.45,1.77-1.96,2.36.09-.07,1.47-1.15,1.84-1.8-.02.06-.56,1.51-.71,3.75,0,0-1.35.2-2.5-.09-1.15-.29-1.18-.58-1.7-.46-.52.12-2.6.84-4.2-.51-1.6-1.35-1.69-2.22-1.82-3.51,0,0-3.05-1.09-3.29-3.56s1.47-4.08,2.04-4.23c0,0-.92-2.39.55-4.35,1.47-1.97,5.09-2.64,6.12-2.76,1.03-.13,5.34-.2,7.33,0,2.48.25,7.77,1.88,7.77,1.88,0,0-.27.24-.39.57-.13.39-.07.73-.07.73l-1.36.5s-1.98-1-2.61-1.23c-.63-.23-2.81-1-5.48-1-1.11,0-2.54.3-3.83.64-1.94.52-3.78,1.39-5.42,2.55Z"/><path class="cls-1" d="m21.84,23.07l-.46,1.63c-.97.53-3.27,2.98-3.27,2.98.19-.31,1.01-3.69,1.01-3.69l2.72-.93Z"/><path class="cls-1" d="m16.1,15.06c.25.55-.44.95-.11,1.44.34.49.27,1.24-.46,1.63-.73.39-2.16.03-2.26-.08-.1-.11-.12-.14-1.03-.2s-1.72.74-1.72.74h-1.55s-.02-.31-.72-.55c-.41-.14-.75-.12-.98-.07-.18.04-.34.13-.49.25-.36.28-.71.46-1.78.37-.96-.08-1.07-1.09-.99-1.43.09-.34-.1-.21-.35-1.1-.25-.89.52-1.37,1.34-1.45.82-.08.71-.41,1.44-.52.72-.11,1.72.04,1.76,1.3.04,1.27.61,1.84.88,1.82s.27-.45.3-1.53c.02-1.08-.21-1.27-.91-1.91-.78-.72-1.46-.45-1.75-.37-.37.09-.58.21-1.57.25-.77.03-1.15-.71-1.16-1-.02-.51.48-.36.01-.93s.01-1.43.51-1.55c.5-.12.85-.01,1.67-.42.81-.4,1.5.11,1.83.59.33.47.04,1.52.43,2.2.39.68.9.54.9.54v-1.94c0-.5-.55-1.27-1.12-1.5-.57-.23-1.34-.75-1.28-1.74.06-.99,1.14-1.1,1.41-1.27.27-.17.44-.92,1.37-.96.93-.04.8.89,1.4,1.07.6.18.83.36.98.93s-.25,1.5-1.12,2.02c-.87.52-.8,1.09-.8,1.27v2.07s.31.15.64-.08c.42-.29.35-1.56.53-2.62.17-1,1.47-1,1.82-.81.5.26.74.31,1.58.45.84.14.85,1.19.6,1.54-.25.35-.21.74-.16,1.46.05.71-1.82.69-2.19.59-.34-.09-.79-.17-1.77.06-.86.21-.82,1.18-.82,1.18,0,0-.03,2.08.03,2.33.06.24.33.24.55.11.23-.12.65-.71.47-1.67-.18-.96.44-1.35,1.13-1.43s.94.42,1.19.41c.26,0,.31-.31.82-.39.51-.08,1.25.35,1.5.89Z"/></g></g></svg>