<?xml version="1.0" encoding="UTF-8"?><svg id="_レイヤー_2" xmlns="http://www.w3.org/2000/svg" viewBox="0 0 150.11 89.47"><defs><style>.cls-1{fill:#a41a29;}.cls-2{fill:#ffeec0;}</style></defs><g id="_アイコン"><path class="cls-1" d="m76.01,74.89c-.1-.02-.21-.04-.32-.04-4.53.08-6.36-1.02-7.1-1.96-.84-1.07-.55-2.3-.53-2.37.2-.72-.22-1.47-.94-1.68-.73-.21-1.48.21-1.69.93-.27.94-.38,3.01.96,4.75.23.3.51.58.8.84-1.75.2-3.41.45-4.96.74-1.1.2-2.16.42-3.19.66-8.62.02-9.81-3.27-9.86-3.41-.18-.72-.89-1.17-1.61-1.01-.74.16-1.21.89-1.05,1.62.09.43.87,3.24,5.67,4.68-7.39,2.4-11.83,5.09-12.08,5.25-.08.05-.15.1-.22.16-2.05,1.01-3.69,1.29-4.64.77-.97-.52-1.13-1.81-1.14-1.86-.07-.75-.73-1.29-1.49-1.23-.75.07-1.31.73-1.24,1.49.09,1.01.73,2.99,2.52,3.98.7.39,1.49.59,2.37.6,1.45.03,3.14-.44,5.04-1.41.13-.07.24-.16.34-.25.97-.57,7.64-4.33,17.71-6.66.1,0,.18,0,.28,0,.27,0,.51-.09.72-.22.8-.17,1.62-.34,2.46-.49,11.78-2.14,29.84-2.34,48.98,8.87.09.05.19.09.29.12.03.02.05.04.08.05,2.11,1.07,3.96,1.62,5.55,1.65,1.14.02,2.14-.22,2.99-.74,1.6-.96,2.19-2.62,2.21-3.85.01-.76-.59-1.38-1.34-1.39s-1.38.59-1.39,1.34c0,.17-.06,1.06-.89,1.56-.67.4-2.32.8-5.89-1.01-.07-.03-.13-.06-.2-.08,0,0-.02-.01-.02-.02-3.93-2.3-7.82-4.14-11.62-5.59,5.11-1.23,5.88-4.17,5.97-4.61.15-.74-.33-1.48-1.07-1.63-.74-.14-1.45.31-1.6,1.05,0,.03-1.05,3.45-10.18,2.93-2.77-.75-5.47-1.32-8.1-1.72.26-.23.5-.47.71-.74,1.68-2.19.86-4.75.82-4.86-.24-.71-1-1.09-1.71-.87-.71.23-1.11,1-.89,1.71.02.05.4,1.34-.41,2.37-.96,1.23-3.4,1.8-6.86,1.6-.02,0-.04,0-.06,0-.74-.03-1.47-.04-2.19-.04"/><circle class="cls-1" cx="76.14" cy="24.8" r="24.8"/><circle class="cls-1" cx="40.58" cy="34.19" r="21.24"/><circle class="cls-1" cx="109.15" cy="34.19" r="21.24"/><circle class="cls-1" cx="130.49" cy="57.63" r="19.62"/><circle class="cls-1" cx="19.61" cy="57.62" r="19.6"/><path class="cls-1" d="m30.54,31.89h88.96v41.99c-47.59-27.6-88.96,0-88.96,0"/><ellipse class="cls-2" cx="76.95" cy="38.58" rx="1.95" ry="11.02"/><ellipse class="cls-2" cx="105.82" cy="52.06" rx="7.92" ry="1.4" transform="translate(-5.22 12.33) rotate(-6.51)"/><ellipse class="cls-2" cx="60.55" cy="42.73" rx="1.77" ry="10.03" transform="translate(-13.52 45.11) rotate(-37.05)"/><ellipse class="cls-2" cx="92.97" cy="42.73" rx="10.03" ry="1.77" transform="translate(2.85 91.18) rotate(-52.95)"/><ellipse class="cls-2" cx="47.54" cy="52.13" rx="1.4" ry="7.92" transform="translate(-9.64 93.45) rotate(-83.49)"/></g></svg>