<svg xmlns="http://www.w3.org/2000/svg" viewBox="0 0 1056.53 366.53"><defs><style>.cls-1{fill:none;stroke:#a41a29;stroke-miterlimit:10;stroke-width:6px;}</style></defs><g id="レイヤー_2" data-name="レイヤー 2"><g id="レイヤー_1-2" data-name="レイヤー 1"><path class="cls-1" d="M1047.37,48.56A173,173,0,1,0,928,355.91S863.81,309.6,863.81,221.4s69.39-173.7,173-172.95C1046.68,48.52,1047.37,48.56,1047.37,48.56Z"/><path class="cls-1" d="M489.76,162.83,422.58,62.17a37.1,37.1,0,0,0-6.33-7.36c-20.84-18.22-37.95,1.46-37.95,1.46-11.74,11.33-9.29,23.1-4.89,31.22a38.34,38.34,0,0,0,12.39,13.4l99.08,66.82Z"/><path class="cls-1" d="M526.65,199.71,627.3,266.89a37.1,37.1,0,0,1,7.36,6.33c18.23,20.84-1.46,37.95-1.46,37.95-11.33,11.75-23.09,9.29-31.22,4.9a38.34,38.34,0,0,1-13.39-12.4L521.76,204.6Z"/><path class="cls-1" d="M485.25,199.71,384.59,266.89a37.1,37.1,0,0,0-7.36,6.33c-18.22,20.84,1.46,37.95,1.46,37.95,11.33,11.75,23.09,9.29,31.22,4.9a38.46,38.46,0,0,0,13.4-12.4l66.82-99.07Z"/><path class="cls-1" d="M526.65,166.81,627.3,99.64a37.1,37.1,0,0,0,7.36-6.33c18.23-20.84-1.46-37.95-1.46-37.95-11.33-11.75-23.09-9.29-31.22-4.9a38.34,38.34,0,0,0-13.39,12.4l-66.83,99.07Z"/><path class="cls-1" d="M483.13,170.58,382.55,103.29a37.17,37.17,0,0,0-8.67-4.38c-26.22-8.86-34.5,15.88-34.5,15.88-6.52,15,.25,24.89,7.42,30.71a38.22,38.22,0,0,0,16.58,7.63L480.48,177Z"/><path class="cls-1" d="M531.32,190.54,650,214.08a37.3,37.3,0,0,1,9.23,3c24.81,12.27,13.17,35.62,13.17,35.62-6,15.18-17.78,17.42-27,16.47a38.43,38.43,0,0,1-17.12-6.33l-99.65-66Z"/><path class="cls-1" d="M493.07,206.38,425.79,307a37,37,0,0,0-4.38,8.67c-8.86,26.23,15.87,34.5,15.87,34.5,15,6.52,24.89-.25,30.72-7.42a38.33,38.33,0,0,0,7.63-16.58L499.45,209Z"/><path class="cls-1" d="M518.73,160.15,586,59.56a37.3,37.3,0,0,0,4.38-8.66c8.86-26.23-15.88-34.5-15.88-34.5-15-6.52-24.89.25-30.71,7.42a38.22,38.22,0,0,0-7.63,16.58L512.35,157.5Z"/><path class="cls-1" d="M480.57,190.4l-118.7,23.54a37,37,0,0,0-9.23,3c-24.8,12.27-13.17,35.62-13.17,35.62,6,15.18,17.78,17.41,27,16.46a38.29,38.29,0,0,0,17.12-6.32l99.65-66Z"/><path class="cls-1" d="M528.77,170.44l100.58-67.29A36.92,36.92,0,0,1,638,98.77c26.23-8.86,34.5,15.88,34.5,15.88,6.52,15-.25,24.88-7.42,30.71A38.33,38.33,0,0,1,648.51,153l-117.1,23.82Z"/><path class="cls-1" d="M512.92,208.68l23.54,118.7a37.3,37.3,0,0,0,3,9.23c12.27,24.81,35.62,13.17,35.62,13.17,15.18-6,17.42-17.78,16.47-27a38.43,38.43,0,0,0-6.33-17.12L519.3,206Z"/><path class="cls-1" d="M498.37,157.84,474.83,39.15a37.3,37.3,0,0,0-3-9.23c-12.27-24.81-35.62-13.17-35.62-13.17-15.18,6-17.42,17.78-16.47,27A38.43,38.43,0,0,0,426,60.84l66,99.65Z"/><path class="cls-1" d="M509,157.18,532.62,38.51a36.71,36.71,0,0,0,.73-9.69C531.5,1.21,505.48,3,505.48,3c-16.31-.29-22.89,9.76-25.53,18.62a38.25,38.25,0,0,0-.71,18.23l22.81,117.31Z"/><path class="cls-1" d="M509,209.35,532.62,328a36.67,36.67,0,0,1,.73,9.69c-1.85,27.61-27.87,25.79-27.87,25.79-16.31.3-22.89-9.76-25.53-18.61a38.28,38.28,0,0,1-.71-18.24l22.81-117.3Z"/><path class="cls-1" d="M479.68,180.07,361,156.4a37.46,37.46,0,0,0-9.68-.73c-27.62,1.85-25.8,27.87-25.8,27.87-.29,16.31,9.76,22.9,18.61,25.54a38.29,38.29,0,0,0,18.24.7L479.68,187Z"/><path class="cls-1" d="M532.22,186.08l118.67,23.68a37,37,0,0,0,9.68.72c27.62-1.84,25.8-27.86,25.8-27.86.3-16.32-9.76-22.9-18.61-25.54a38.42,38.42,0,0,0-18.24-.71l-117.3,22.81Z"/><circle class="cls-1" cx="505.95" cy="183.08" r="26.27"/><path class="cls-1" d="M284.4,48.56A173,173,0,1,0,165.06,355.91S100.84,309.6,100.84,221.4s69.39-173.7,173-172.95C283.71,48.52,284.4,48.56,284.4,48.56Z"/></g></g></svg>