<?xml version="1.0" encoding="UTF-8"?><svg id="_レイヤー_2" xmlns="http://www.w3.org/2000/svg" xmlns:xlink="http://www.w3.org/1999/xlink" viewBox="0 0 553.02 798.43"><defs><style>.cls-1{letter-spacing:-.18em;}.cls-2,.cls-3,.cls-4,.cls-5,.cls-6,.cls-7,.cls-8{fill:none;}.cls-9{stroke-width:.13px;}.cls-9,.cls-3,.cls-10,.cls-11,.cls-12,.cls-13,.cls-14,.cls-15,.cls-16,.cls-17,.cls-18,.cls-19,.cls-20,.cls-21,.cls-22,.cls-23,.cls-24,.cls-25,.cls-26,.cls-27,.cls-28,.cls-29,.cls-30,.cls-31,.cls-32,.cls-33,.cls-34,.cls-35,.cls-36,.cls-37,.cls-38,.cls-39,.cls-40,.cls-41,.cls-42,.cls-43,.cls-44,.cls-45,.cls-46,.cls-6,.cls-47,.cls-48,.cls-49,.cls-50,.cls-51,.cls-52,.cls-53,.cls-54,.cls-55,.cls-56,.cls-57,.cls-58,.cls-59,.cls-60,.cls-61,.cls-62,.cls-7,.cls-63,.cls-64,.cls-65,.cls-66,.cls-67,.cls-68,.cls-69,.cls-70,.cls-8,.cls-71,.cls-72,.cls-73{stroke-miterlimit:10;}.cls-9,.cls-10,.cls-43,.cls-44,.cls-45,.cls-50,.cls-52,.cls-59{stroke:#020202;}.cls-9,.cls-10,.cls-44,.cls-45,.cls-50,.cls-52{fill:#b4b3b6;}.cls-3,.cls-11,.cls-12,.cls-13,.cls-14,.cls-15,.cls-16,.cls-17,.cls-18,.cls-19,.cls-20,.cls-21,.cls-22,.cls-23,.cls-24,.cls-25,.cls-26,.cls-27,.cls-28,.cls-29,.cls-31,.cls-32,.cls-33,.cls-34,.cls-35,.cls-36,.cls-37,.cls-38,.cls-39,.cls-41,.cls-42,.cls-6,.cls-47,.cls-48,.cls-49,.cls-51,.cls-53,.cls-54,.cls-55,.cls-56,.cls-57,.cls-60,.cls-61,.cls-62,.cls-7,.cls-63,.cls-64,.cls-65,.cls-66,.cls-67,.cls-68,.cls-69,.cls-70,.cls-71,.cls-72,.cls-73{stroke:#000;}.cls-3,.cls-56{stroke-width:.2px;}.cls-74{font-family:KozGoPr6N-Regular-83pv-RKSJ-H, 'Kozuka Gothic Pr6N';font-size:5.46px;}.cls-74,.cls-75{fill:#4d3326;}.cls-76{letter-spacing:-.01em;}.cls-10{stroke-width:.23px;}.cls-11{stroke-width:.46px;}.cls-11,.cls-13,.cls-77,.cls-72{fill:#fbf4e6;}.cls-12{fill:#040000;}.cls-12,.cls-13,.cls-14,.cls-15,.cls-16,.cls-17,.cls-18,.cls-19,.cls-20,.cls-21,.cls-22,.cls-23,.cls-24,.cls-25,.cls-26,.cls-27,.cls-28,.cls-29,.cls-30,.cls-31,.cls-32,.cls-33,.cls-34,.cls-35,.cls-36,.cls-37,.cls-38,.cls-40,.cls-41{stroke-width:.15px;}.cls-14{fill:#fbfbfb;}.cls-15{fill:#8a8c84;}.cls-16{fill:#999;}.cls-17{fill:#fcfdf5;}.cls-4,.cls-5{stroke-linejoin:round;}.cls-4,.cls-30,.cls-40{stroke:#4d3326;}.cls-5{stroke:#b5d57a;}.cls-18{fill:#8b8d85;}.cls-19{fill:#7f8375;}.cls-20{fill:#8f5d50;}.cls-21{fill:#8e948f;}.cls-22{fill:#b68881;}.cls-23{fill:#babbb3;}.cls-24{fill:#5c4e4b;}.cls-25,.cls-78{fill:#bdbb9a;}.cls-26,.cls-66,.cls-68,.cls-69{fill:#a79383;}.cls-27,.cls-53{fill:#adb4b9;}.cls-28{fill:#adb09e;}.cls-29{fill:#d8d7d6;}.cls-30{fill:#d3d3cd;}.cls-31{fill:#7b755e;}.cls-32{fill:#7a6f73;}.cls-33{fill:#4e383f;}.cls-34{fill:#82796d;}.cls-35{fill:#787878;}.cls-36{fill:#53544c;}.cls-37{fill:#88878a;}.cls-38{fill:#3e3f30;}.cls-79{clip-path:url(#clippath);}.cls-39{fill:#8a967c;stroke-width:.29px;}.cls-40,.cls-41{fill:#f2f3eb;}.cls-42{stroke-width:.15px;}.cls-42,.cls-47,.cls-57,.cls-62{fill:#9a9a9a;}.cls-80{fill:#f6eedb;}.cls-81,.cls-58,.cls-59{fill:#f2f2f0;}.cls-82,.cls-49{fill:#f7d05e;}.cls-83{fill:#69a788;}.cls-84{fill:#ede9e6;}.cls-85{fill:#e793a3;}.cls-86{fill:#f198aa;}.cls-87{fill:#fdf8fa;}.cls-88{fill:#665e5c;}.cls-89{fill:#685344;}.cls-90{fill:#b4e0f5;}.cls-91{fill:#b5d57a;}.cls-92,.cls-54{fill:#857774;}.cls-93{fill:#858585;}.cls-94{fill:#37302b;}.cls-95,.cls-51,.cls-55,.cls-56,.cls-67,.cls-71{fill:#807c6f;}.cls-96{fill:#645f50;}.cls-97,.cls-98{fill:#4c3225;}.cls-99{fill:#47312e;}.cls-100{fill:#4e3427;}.cls-101{fill:#798780;}.cls-43{fill:#d1d1d1;stroke-width:.26px;}.cls-44{stroke-width:.2px;}.cls-102{letter-spacing:-.2em;}.cls-45{stroke-width:.2px;}.cls-75{font-family:HiraMaruPro-W4-83pv-RKSJ-H, 'Hiragino Maru Gothic Pro';}.cls-75,.cls-98{font-size:12px;}.cls-103{clip-path:url(#clippath-1);}.cls-104{clip-path:url(#clippath-2);}.cls-46{fill:#be1a20;stroke:#610f13;stroke-width:.5px;}.cls-6{stroke-width:.17px;}.cls-47{stroke-width:.1px;}.cls-105{letter-spacing:-.03em;}.cls-48,.cls-63{fill:#fff;}.cls-106{letter-spacing:-.02em;}.cls-98{font-family:HiraMaruProN-W4-83pv-RKSJ-H, 'Hiragino Maru Gothic ProN';}.cls-107{letter-spacing:-.03em;}.cls-50{stroke-width:.2px;}.cls-51{stroke-width:.21px;}.cls-52{stroke-width:.21px;}.cls-53{stroke-width:.1px;}.cls-54,.cls-58,.cls-59{stroke-width:.19px;}.cls-55{stroke-width:.2px;}.cls-57{stroke-width:.1px;}.cls-58{stroke:#0c0c0c;}.cls-60{stroke-width:.14px;}.cls-60,.cls-61,.cls-65{fill:#fffff2;}.cls-61{stroke-width:.14px;}.cls-108{letter-spacing:-.07em;}.cls-62{stroke-width:.14px;}.cls-7{stroke-width:.17px;}.cls-63,.cls-64,.cls-65,.cls-70{stroke-width:.18px;}.cls-64{fill:#74675c;}.cls-66{stroke-width:.19px;}.cls-67{stroke-width:.12px;}.cls-68{stroke-width:.2px;}.cls-69{stroke-width:.2px;}.cls-70{fill:#b1bd9d;}.cls-8{stroke:#37302b;stroke-width:.25px;}.cls-71{stroke-width:.12px;}.cls-109{letter-spacing:-.05em;}.cls-72{stroke-width:.33px;}.cls-73{fill:#dceef9;stroke-width:.32px;}</style><clipPath id="clippath"><rect class="cls-2" x="217.86" y="594.22" width="19.18" height="6.34"/></clipPath><clipPath id="clippath-1"><path class="cls-2" d="M299.36,530.49v27.24h22.51v-27.24h-22.51Zm1.95,1.95h18.62v6.24h-18.62v-6.24Zm0,14.92v-6.07h18.62v6.07h-18.62Z"/></clipPath><clipPath id="clippath-2"><path class="cls-2" d="M346.16,421.69v26.82h28.55v-26.82h-28.55Zm2.47,4.12h23.62v6.26h-23.62v-6.26Zm0,18.92v-9.35h23.62v9.35h-23.62Z"/></clipPath></defs><g id="_場所小文字"><g><g><polygon class="cls-49" points="552.52 68 236.94 145.4 226.96 111.15 401.21 53.37 397.22 46.39 225.3 104.25 219.89 86.2 294.58 61.68 293.14 57.92 219.59 82.02 218.43 79.68 293.14 55.7 292.31 51.04 217 75.58 213.66 66.67 183.4 62.35 185.73 41.07 196.7 .84 552.52 .84 552.52 68"/><g><g><path class="cls-91" d="M552.52,736.57v61.36h-49.87l-9.68-49.18c21.76-2.01,43.74-5.93,59.55-12.18Z"/><path class="cls-80" d="M344.07,313.58l.96,.24c4.42-10.51,12.28-9.14,12.28-9.14l.98-3.18-71.18-19.18c-10.25,15.42-30.47,20.75-30.47,20.75l.26,2.32,46.19-2.15,40.98,10.34Zm-13.08,30.37c-16.36,.77-16.36,19.35-4.74,21.89l5.49-10.13-5.1-2.48,4.35-9.28Zm31.91-22.58l-18.33,40.57-6.92-3.36-2.18,4.2,76.42,42.53-22.4,19.17,22.4,12.55,21.08-2.19h2.7v2.51l5.99,4.15,1.13-.99c3.09-2.37,7.77-3.65,12.8-3.66l.02,2c-3.51,0-7.2,.87-10.57,3.33,0,0-.72,.56-.7,1.19l36.28,25.88,22.94-8.91,4.86-126.97-.73-.3-21.95-6.62-73.66-31.85-46.43,8.11-1.9,4.53c3.18,2.62,1.72,8.46,1.72,8.46l-1.71,3.77-.57,1.98-.29-.08Zm189.62,399.32v15.88c-15.81,6.25-37.79,10.17-59.55,12.18l9.68,49.18h-7.16l-9.4-48.6c-28.5,2.12-55.45,1.01-66.25-2.39l-89.29-34.1-14.28,85.09h-7.99l15.34-87.71-24.28-9.27-14.76,96.98h-6.62l14.86-99.47-8.17-3.11-19.08,102.58h-6.02l18.95-104.93-123.45-47.11,8.79,152.04h-27.23l-6.19-114.25-33.74-10.33-12.78,124.58h-6.99l8.43-84.29,.03-.3c-29.13-17.27-41.35-15.16-41.35-15.16l.78,99.75h-6.5l-.9-99.75s-15.95-.81-36.9,15v-8.82c18.44-12.94,36.84-13.29,36.84-13.29l-.33-35.98L.5,643.91v-8.06l36.51,11.25-.38-46.4L.5,586.91v-19.26l37.25,14.63,3.99-157.96,39.24-119.88L.5,268.69v-6.98l82.75,36.41,5.54-16.63L.5,254.56v-7.82l44.4,14.3L.5,229.95v-6.98l39.24,26.59,47.39-51.7L.5,220.31v-14.64l64.68-16.79-49.88-9.31-14.8,4.99v-7.15l114.02-37.71-2.39-5.55,21.13-6.57,17.55,39.19,41.68-9.48c-.44-11.47-9.76-25.33-13.08-30.84-3.33-5.52-1.77-7.13-1.77-7.13l40.79-12.85-5.21-18.08h0s6.67-2.19,6.67-2.19l5.41,18.05,171.92-57.86c5.16,1.33,3.99,6.98,3.99,6.98l-174.25,57.78,9.98,34.25,315.58-77.4v15.08l-15.08,3.54-61.74,105.97,64.4,10.98,12.42-35.81v19.29l-18.24,60.09,18.24,7.09v7.98l-19.95-7.98-16.06,50.05-.57,23.77,36.58,11.31v7.24l-37.11-11.2-2.47,66.86,39.58,5.41v7.46l-39.86-5.18-1.82,49.35,41.68,16.31v7.09l-41.94-16.3-2.16,58.59s37.96,13.34,44.1,15.2v7.73c-25.82-8.76-61.52-27.47-82.55-10.19l-38.68,193.87c48.16,6.79,99.56-4.21,121.23-10.91Zm-19.07-496.28l4.99-14.41-66.73-10.98-7.31,12.7,69.05,12.69Zm-5.54,19.95l3.91-14.27-71.54-13.19-7.3,13.38,67.39,10.42,7.54,3.66Zm-5.65,18.51l4.16-11.3-8.49-3.32-70.66-10.15-5.71,10.31,80.7,14.46Zm-31.04-114.73l33.92-58.3-92.45,22.17-12.41,24.05,70.94,12.08Zm20.11,149.12l8.92-27.72-81.94-14.96-8.96,16.12,81.98,26.56Zm-2.63,28.61l.81-22.39-83.04-27.11-7.43,14.46,71.29,29.92,18.37,5.12Zm-7.56,197.73l2.13-56.25-18.87,6.74-1.29,50.45c5.23-.97,11.1-1.18,18.03-.94Zm-36.3-331.89l22.28-37.8-70.17-11.97-20.95,38.68,68.84,11.09Zm11.14,334.78l1.67-52.15-30.91-22.4-47.31,110.14,17.92,3.68,15.51,9.51c18.45-29.94,28.85-43.46,43.12-48.78Zm-21.01-316.81l6.69-12.02-69.62-10.7-5.49,10.05,68.42,12.67Zm-2.41,377.69l8.58-41.81c-12.56,18.05-23.04,32.92-23.04,32.92l13.95,8.55,.51,.34Zm-8.47-358.14l7.88-14.15-68.45-12.53-8.29,15.2,68.86,11.48Zm-20.81,500.68l27.71-134.93-36.24-22.75-41.48-8.13-3.76,11.29-2.14,6.44-33.14,99.49-.66,15.33,89.71,33.26Zm-30.39-169.17l48.74-112.5-8.78-6.36-19.69,2.43-37.58,112.87,17.31,3.56Zm41.4-313.9l5.88-10.56-68.58-11.87-5.67,10.38,68.37,12.05Zm-11.46,20.59l7.9-14.2-68.5-11.67-2.54,4.64,63.14,21.23Zm-34.81-88.05l36.89-65.15-134.99,33.91-8.88,14.3,106.98,16.94Zm23.68,108.04l7.62-13.69c-3-2.33-53.94-17.97-104.75-33.21l-10.31,15.93,38.11,10.98-8.75,20.1,31.52,8.3,46.56-8.41Zm-12.93,180.35l8.66-25.55-53.53-30.21-11.83,15.42,3.61,2.17,34.93,23.69,18.16,14.48Zm-14.93-46.45l18.09-15.44-69.25-37.71-9.83,19,60.99,34.15Zm-20.12,149.83l32.92-97.1-19.3-15.58-33.88,101.77-2.46,7.4-32.97,99.05,20.6,7.96,33.04-97.44,2.05-6.06Zm15.53-376l5.38-9.75-108.12-17.46-4.62,7.09,107.36,20.12Zm-11.94,21.64l8.71-15.78-48.3-9.3-13.15,16.48,52.74,8.6Zm5.34,236.83l-30.26-19.16-4.5-2.64-8.4,10.4-.69,.75,37.34,27.13s6.36-16.02,6.51-16.48Zm-20.6-209.99l11.71-20.25-52.94-9.43-11.1,14.05,52.33,15.63Zm-50.26,420.8l61.48-184.39-8.8,3.57-36.95,113.74-23.69,64.17,7.96,2.91Zm48.94-187.23l10.15-3.92-69.61-50.71-6.26,7.03,65.72,47.6Zm1.67-158.82l-8.33-2.37-41.15-10.91-45.81,2.27,4.45,40.5s.42,5.37,5.14,7.86l49.89,27.94,8.1-14.95c-17.08-8.16-9.33-27.72,7.45-27.23,7.68-.3,10.76-1.18,20.26-23.11Zm-16.48,105.35l12.53-14.79-29.97-16.92-11.8,14.14,29.24,17.57Zm-24.73,172.26l36.76-113.51-53.29-38.17-73.77,118.53-28.89,79.42,89.23,33.91,29.96-80.18Zm15.26-310.34l6.89-14.07-32.92-9.37-9.23,14.16,35.26,9.28Zm-2.62,152.52l8.39-9.68-30.35-17.81-6.88,7.72,28.18,20.48,.66-.71Zm2.24,255.54l.8-12.53-20.95-8.17-3.77,11.34,23.92,9.36Zm-19.41-486.8l13.33-16.66-19.28-3.74-10.24,17.76,15.16,2.47,1.03,.17Zm-5.98,195.64l12.19-13.7-54.16-30.57c-3.37-2.63-3.67-8.45-3.67-8.45l-9.44,20.22,55.08,32.5Zm-21.58-121.35l28.5-42.77c-4.31-1.29-8.6-2.57-12.85-3.84l-17.27,18.54-30.13,20.08c6.09,13.1,7.97,22.62,7.97,22.62,13.87-2.43,23.78-14.63,23.78-14.63Zm23.99-68.06l.43-.48-34.33-6.12-10.77,9.6,33.4,9.74,11.27-12.74Zm-7.13,468.79l3.88-11.65-8.18-2.91-4.15,11.26,8.45,3.3Zm-16.92-256.66l16.98-18.02-53.51-30.58-7.73,16.55,44.26,32.05Zm3.91-222.22l10.51-17.94-25.01-4.82-12.01,18.44,26.51,4.32Zm-65.24,352.25l71.8-114.67-74.37-53.08h-14.46l-27.34,135.63,44.37,32.12Zm56.15-308.66c1.9-1.68,13.25-14.33,13.25-14.33-13.18-3.92-25.73-7.64-36.72-10.89l-29.81,13.6c10.87,10.66,18.51,22.13,23.81,32.21,0,0,27.57-18.91,29.47-20.59Zm-1.01-85.25l7.54-11.25-33.48,7.78,25.94,3.47Zm-24.61,35.97l20.95-30.59-33.03-5.38-16.57,30.82,28.65,5.15Zm1.37,16.29l9.62-8.88-41.64-7.41-3.35,6.82,35.37,9.47Zm4.24,124.04l-2.38-21.55-24.55,1.04-5.7,66.22,8.19,5.93,24.44-51.64Zm-3.12-27.63l-.85-8.39c-7.07-53.69-51.22-81.35-82.13-91.2l45.08,101.12,37.9-1.53Zm-35.6-80.7l26.61-10.49c-18.84-5.56-31.29-9.21-31.29-9.21l-5.77,12.22c3.11,2.15,7.69,5.18,10.45,7.48Zm-14.93-73.81l30.42-8.07c-1.66-8.15-10.14-34.25-10.14-34.25l-34.75,11.3c9.64,7.82,14.47,31.02,14.47,31.02Zm13.18,35.1l14.64-27.87-26.22,6.87v18.51l11.58,2.49Zm1.38,190.1l5.88-63.3-5.88,.25-12.71,63.05h12.71Zm-28.94,259.16l28.67-79.57-42.53-30.31-19.59,97.17,33.45,12.71Zm21.52-437.67l3.11-6.32-51.32-8.59,3.65,8.92s38.24,3.33,44.56,5.99Zm-7.66,14.18l4.41-8.17s-22.01-3.18-30.24-2.76c-.04,.01-.05,.06-.01,.08,2.08,.87,23.97,10,25.84,10.85Zm-4.64-29.7v-15.46l-37.01,8.77,37.01,6.69Zm-16.38,187.73l11.41-56-70.53-8.75s-8.85,26.21-11.54,47.85l70.66,16.9Zm7.57-62.86l-22.95-51.55s-20.45,10.81-24.94,17.3c-4.49,6.48-13.63,21.61-15.46,26.93l63.35,7.32Zm-24.83,147.59l15.78-77.45-22.8-5.75-11.64,67.01,18.66,16.19Zm-.45-205.79l-1.33-4.65-46.89-11.31-22.38,62.38,25.38,3.13c3.66-9.97,16.29-27.76,16.29-27.76,6.99-9.65,28.93-21.79,28.93-21.79Zm-32.01,365.15l31.72-155.72-96.96-83.97-14.95,45.64-5.11,160.48,15.76,6.21,19.63-147.94c.18-1.36,.84-2.64,1.95-3.45,1.99-1.45,3.17,.04,3.79,1.4,.4,.88,.53,1.86,.41,2.82l-19.54,149.62,63.3,24.91Zm27.52-377.28l-8.14-18.63-30.43,2.5-2.16,5.65,40.73,10.48Zm-20.16,196.15l11.47-63.1-45.62-11.52-23.42-29.85-13.91,42.48,71.48,61.99Zm9.19-221.26l-6.98-17.04-10.87-.42-7.26,19.12,25.11-1.66Zm-10.23-24.28l-2.91-6.65-1.82,6.49,4.73,.16Zm-5.27,483.87l-2.17-40.24-26.55-10.14-3.77,40.37,32.49,10.01Zm-2.35-504.34l-10.58-25.58-85.61,29.12,46.2,10.28,49.99-13.82Zm-5.59,20.31l1.66-4.16-13.64,4.16h11.98Zm-30.76,83.47l29.09-77.32-22.69-.67-52.79,55.71,17.12,12.96,29.27,9.32Zm21.47,33.68l-25.13-3.12-6.35,19.4,20.87,26.06s5.85-28.13,10.61-42.34Zm-21.92,354.82l3.7-40.88-50.9-19.43,.06,45.79,47.14,14.52Zm-4.72,42.17l3.46-34.67-45.88-14.04,.26,33.93s20.06,.61,42.13,15.09l.03-.31Z"/><path class="cls-91" d="M552.52,547.92v172.77c-21.67,6.7-73.07,17.7-121.23,10.91l38.68-193.87c21.03-17.28,56.73,1.43,82.55,10.19Z"/><path class="cls-91" d="M552.52,482.7v57.49c-6.14-1.86-44.1-15.2-44.1-15.2l2.16-58.59,41.94,16.3Z"/><polygon class="cls-91" points="552.52 415.13 552.52 475.61 510.84 459.3 512.66 409.95 552.52 415.13"/><polygon class="cls-91" points="552.52 346.6 552.52 407.67 512.94 402.26 515.41 335.4 552.52 346.6"/><polygon class="cls-91" points="552.52 262.21 552.52 339.36 515.94 328.05 516.51 304.28 532.57 254.23 552.52 262.21"/><polygon class="cls-91" points="552.52 187.05 552.52 254.23 534.28 247.14 552.52 187.05"/><polygon class="cls-91" points="552.52 83.08 552.52 167.76 540.1 203.57 475.7 192.59 537.44 86.62 552.52 83.08"/><path class="cls-91" d="M552.52,.5V68L236.94,145.4l-9.98-34.25,174.25-57.78s1.17-5.65-3.99-6.98l-171.92,57.86-5.41-18.05,74.69-24.52-1.44-3.76-131.58,43.11-.77-2.32,132.35-43.01-.83-4.66-75.33,24.49-3.32-8.86-30.26-4.32c1-4.66,2.33-21.28,2.33-21.28L197.37,.5h355.15Z"/><polygon class="cls-91" points="538.44 210 533.45 224.41 464.4 211.72 471.71 199.02 538.44 210"/><polygon class="cls-91" points="531.82 230.09 527.91 244.36 520.37 240.7 452.98 230.28 460.28 216.9 531.82 230.09"/><polygon class="cls-91" points="526.42 251.57 522.26 262.87 441.56 248.41 447.27 238.1 517.93 248.25 526.42 251.57"/><polygon class="cls-91" points="525.14 89.84 491.22 148.14 420.28 136.06 432.69 112.01 525.14 89.84"/><polygon class="cls-91" points="520.25 269.54 511.33 297.26 429.35 270.7 438.31 254.58 520.25 269.54"/><polygon class="cls-91" points="509.51 303.48 508.7 325.87 490.33 320.75 419.04 290.83 426.47 276.37 509.51 303.48"/><path class="cls-91" d="M508.42,333.37l-4.86,126.97-22.94,8.91-36.28-25.88c-.02-.63,.7-1.19,.7-1.19,3.37-2.46,7.06-3.33,10.57-3.33,5.82,0,11.14,2.4,13.67,3.85,4.04,2.33,4.93,1.72,4.93,1.72,10.93-1.06,9.26-21.89,9.26-21.89,15.94-14.2,4.39-28.89,4.39-28.89-.9-19.95-10.71-30.17-19.54-37.37-8.84-7.2-45.13-19.94-45.13-19.94l-59.43-16.86,1.71-3.77s1.46-5.84-1.72-8.46l1.9-4.53,46.43-8.11,73.66,31.85,21.95,6.62,.73,.3Z"/><path class="cls-91" d="M503.27,467.35l-2.13,56.25c-6.93-.24-12.8-.03-18.03,.94l1.29-50.45,18.87-6.74Z"/><path class="cls-91" d="M486.09,749.33l9.4,48.6h-179.22l14.28-85.09,89.29,34.1c10.8,3.4,37.75,4.51,66.25,2.39Z"/><path class="cls-83" d="M481.14,422.08s12.63-12.49,6.62-23.97c0,0-1.02,26.77-34.74,22.68l-.33,3.97-17.02,2.59v7.49h-2.7l.21-9.57,17.04-2.32,.35-2.73c-40.89-17.81-49.9-44.86-57.61-63.18l-8.58-19.04-10.17-13.36-11.02-3.19,.57-1.98,59.43,16.86s36.29,12.74,45.13,19.94c8.83,7.2,18.64,17.42,19.54,37.37,0,0,11.55,14.69-4.39,28.89,0,0,1.67,20.83-9.26,21.89,0,0-.89,.61-4.93-1.72-2.53-1.45-7.85-3.85-13.67-3.85l-.02-2c5.51-.01,11.44,1.49,16.2,4.71,0,0,4.22,2.87,7.33-3.73,3.12-6.59,2.02-15.75,2.02-15.75Z"/><path class="cls-91" d="M487.76,398.11c6.01,11.48-6.62,23.97-6.62,23.97,0,0,1.1,9.16-2.02,15.75-3.11,6.6-7.33,3.73-7.33,3.73-4.76-3.22-10.69-4.72-16.2-4.71-5.03,.01-9.71,1.29-12.8,3.66l-1.13,.99-5.99-4.15v-10l17.02-2.59,.33-3.97c33.72,4.09,34.74-22.68,34.74-22.68Z"/><polygon class="cls-91" points="487.12 153.91 464.84 191.71 396 180.62 416.95 141.94 487.12 153.91"/><path class="cls-91" d="M477.65,474.34l-1.67,52.15c-14.27,5.32-24.67,18.84-43.12,48.78l-15.51-9.51-17.92-3.68,47.31-110.14,30.91,22.4Z"/><polygon class="cls-91" points="461.66 197.66 454.97 209.68 386.55 197.01 392.04 186.96 461.66 197.66"/><path class="cls-91" d="M461.14,545.56l-8.58,41.81-.51-.34-13.95-8.55s10.48-14.87,23.04-32.92Z"/><polygon class="cls-91" points="451.97 215.08 444.09 229.23 375.23 217.75 383.52 202.55 451.97 215.08"/><polygon class="cls-91" points="450.99 594.98 423.28 729.91 333.57 696.65 334.23 681.32 367.37 581.83 369.51 575.39 373.27 564.1 414.75 572.23 450.99 594.98"/><path class="cls-91" d="M450.57,420.22l-.35,2.73-17.04,2.32-.21,9.57-21.08,2.19-22.4-12.55,22.4-19.17-76.42-42.53,2.18-4.2,6.92,3.36,18.33-40.57,.29,.08,11.02,3.19,10.17,13.36,8.58,19.04c7.71,18.32,16.72,45.37,57.61,63.18Z"/><polygon class="cls-91" points="441.63 448.24 392.89 560.74 375.58 557.18 413.16 444.31 432.85 441.88 441.63 448.24"/><polygon class="cls-91" points="440.17 236.28 434.29 246.84 365.92 234.79 371.59 224.41 440.17 236.28"/><polygon class="cls-91" points="430.73 253.23 422.83 267.43 359.69 246.2 362.23 241.56 430.73 253.23"/><polygon class="cls-91" points="424.91 114.23 388.02 179.38 281.04 162.44 289.92 148.14 424.91 114.23"/><path class="cls-91" d="M419.32,273.73l-7.62,13.69-46.56,8.41-31.52-8.3,8.75-20.1-38.11-10.98,10.31-15.93c50.81,15.24,101.75,30.88,104.75,33.21Z"/><polygon class="cls-91" points="407.43 442.22 398.77 467.77 380.61 453.29 345.68 429.6 342.07 427.43 353.9 412.01 407.43 442.22"/><polygon class="cls-91" points="401.93 405.88 383.84 421.32 322.85 387.17 332.68 368.17 401.93 405.88"/><polygon class="cls-91" points="396.64 474.05 363.72 571.15 361.67 577.21 328.63 674.65 308.03 666.69 341 567.64 343.46 560.24 377.34 458.47 396.64 474.05"/><polygon class="cls-91" points="384.63 185.4 379.25 195.15 271.89 175.03 276.51 167.94 384.63 185.4"/><polygon class="cls-91" points="376.02 201.01 367.31 216.79 314.57 208.19 327.72 191.71 376.02 201.01"/><path class="cls-91" d="M342.39,434.46l30.26,19.16c-.15,.46-6.51,16.48-6.51,16.48l-37.34-27.13,.69-.75,8.4-10.4,4.5,2.64Z"/><polygon class="cls-91" points="363.76 223.38 352.05 243.63 299.72 228 310.82 213.95 363.76 223.38"/><polygon class="cls-90" points="363.27 480.04 301.79 664.43 293.83 661.52 317.52 597.35 354.47 483.61 363.27 480.04"/><polygon class="cls-90" points="360.88 473.28 350.73 477.2 285.01 429.6 291.27 422.57 360.88 473.28"/><path class="cls-91" d="M358.29,301.5l-.98,3.18s-7.86-1.37-12.28,9.14l-.96-.24-40.98-10.34-46.19,2.15-.26-2.32s20.22-5.33,30.47-20.75l71.18,19.18Z"/><path class="cls-91" d="M344.07,316.01l8.33,2.37c-9.5,21.93-12.58,22.81-20.26,23.11l11.93-25.48Z"/><polygon class="cls-91" points="348.45 408.94 335.92 423.73 306.68 406.16 318.48 392.02 348.45 408.94"/><polygon class="cls-91" points="347.95 482.48 311.19 595.99 281.23 676.17 192 642.26 220.89 562.84 294.66 444.31 347.95 482.48"/><path class="cls-91" d="M344.07,316.01l-11.93,25.48c-16.78-.49-24.53,19.07-7.45,27.23l-8.1,14.95-49.89-27.94c-4.72-2.49-5.14-7.86-5.14-7.86l-4.45-40.5,45.81-2.27,41.15,10.91Z"/><polygon class="cls-91" points="333.34 271.58 326.45 285.65 291.19 276.37 300.42 262.21 333.34 271.58"/><polygon class="cls-91" points="332.22 428.49 323.83 438.17 323.17 438.88 294.99 418.4 301.87 410.68 332.22 428.49"/><path class="cls-101" d="M331.74,355.71l-5.49,10.13c-11.62-2.54-11.62-21.12,4.74-21.89l-4.35,9.28,5.1,2.48Z"/><polygon class="cls-91" points="326.87 681.18 326.07 693.71 302.15 684.35 305.92 673.01 326.87 681.18"/><polygon class="cls-91" points="323.62 710.22 308.28 797.93 284.58 797.93 299.34 700.95 323.62 710.22"/><polygon class="cls-91" points="319.99 190.25 306.66 206.91 305.63 206.74 290.47 204.27 300.71 186.51 319.99 190.25"/><path class="cls-91" d="M312.87,388.85l-12.19,13.7-55.08-32.5,9.44-20.22s.3,5.82,3.67,8.45l54.16,30.57Z"/><path class="cls-91" d="M307.6,238.43l-28.5,42.77s-9.91,12.2-23.78,14.63c0,0-1.88-9.52-7.97-22.62l30.13-20.08,17.27-18.54c4.25,1.27,8.54,2.55,12.85,3.84Z"/><polygon class="cls-91" points="303.52 212.66 303.09 213.14 291.82 225.88 258.42 216.14 269.19 206.54 303.52 212.66"/><polygon class="cls-90" points="299.84 670.28 295.96 681.93 287.51 678.63 291.66 667.37 299.84 670.28"/><polygon class="cls-90" points="296.02 407.25 279.04 425.27 234.78 393.22 242.51 376.67 296.02 407.25"/><path class="cls-82" d="M216.98,75.53l75.33-24.49,.83,4.66-132.35,43.01,.77,2.32,131.58-43.11,1.44,3.76-74.69,24.52-6.67,2.18-50.11,16.45,3.99,12.22-33.84,10.53-21.13,6.57-31.9,9.92-3.58-11.47L.5,157.29v-4.91l74.66-23.86-.83-2.07L.5,150.06v-4.24l72.64-22.92c-2.65,.67-53.03,12.93-72.64-24.19v-13.86c3.88,19.18,10.98,25.5,30.04,33.26,19.07,7.75,41.24,.77,41.24,.77l-.67-1.55,12.69-3.66,74.49-24.07,.98,3.21,.41,1.35,50.76-16.44-.02-.06,6.56-2.13Z"/><polygon class="cls-91" points="293.46 185.11 282.95 203.05 256.44 198.73 268.45 180.29 293.46 185.11"/><polygon class="cls-90" points="292.82 698.46 277.96 797.93 265.57 797.93 284.65 695.35 292.82 698.46"/><polygon class="cls-91" points="289.51 440.63 217.71 555.3 173.34 523.18 200.68 387.55 215.14 387.55 289.51 440.63"/><path class="cls-91" d="M287.11,232.31s-11.35,12.65-13.25,14.33-29.47,20.59-29.47,20.59c-5.3-10.08-12.94-21.55-23.81-32.21l29.81-13.6c10.99,3.25,23.54,6.97,36.72,10.89Z"/><polygon class="cls-91" points="280.39 150.14 272.85 161.39 246.91 157.92 280.39 150.14"/><polygon class="cls-91" points="278.5 693 259.55 797.93 163.84 797.93 155.05 645.89 278.5 693"/><polygon class="cls-91" points="269.19 166.77 248.24 197.36 219.59 192.21 236.16 161.39 269.19 166.77"/><polygon class="cls-91" points="259.23 204.77 249.61 213.65 214.24 204.18 217.59 197.36 259.23 204.77"/><polygon class="cls-91" points="251.47 316.14 253.85 337.69 229.41 389.33 221.22 383.4 226.92 317.18 251.47 316.14"/><path class="cls-91" d="M249.88,301.67l.85,8.39-37.9,1.53-45.08-101.12c30.91,9.85,75.06,37.51,82.13,91.2Z"/><path class="cls-91" d="M241.74,218.87l-26.61,10.49c-2.76-2.3-7.34-5.33-10.45-7.48l5.77-12.22s12.45,3.65,31.29,9.21Z"/><path class="cls-91" d="M230.62,147.48l-30.42,8.07s-4.83-23.2-14.47-31.02l34.75-11.3s8.48,26.1,10.14,34.25Z"/><polygon class="cls-91" points="228.02 162.78 213.38 190.65 201.8 188.16 201.8 169.65 228.02 162.78"/><polygon class="cls-91" points="220.64 317.45 214.76 380.75 202.05 380.75 214.76 317.7 220.64 317.45"/><path class="cls-91" d="M213.22,88.39l5.21,18.08-40.79,12.85s-1.56,1.61,1.77,7.13c3.32,5.51,12.64,19.37,13.08,30.84l-41.68,9.48-17.55-39.19,33.84-10.53-3.99-12.22,50.11-16.45h0Z"/><path class="cls-80" d="M213.66,66.67l3.32,8.86-6.56,2.13-1.42-4.12-28.26-3.76s-8.98,10.08-23.5,15.07c-14.52,4.99-83.91,28.27-85.8,28.93-1.88,.67-5.32-.44-7.87-3.1l-17.62-37.14L.5,51.71v-14.97l25.27,12.64L47.72,.5h13.64l-2.33,5.32,119.05,15.96L185.73,.5h11.64l-11.64,40.57s-1.33,16.62-2.33,21.28l30.26,4.32Zm-42.9-5.15c5.82-7.65,4.16-29.6,4.16-29.6L53.21,17.62l-15.38,36.25,15.38,6.82,20.04,39.74,84.38-28.77s6.31-1.17,13.13-10.14Z"/><polygon class="cls-91" points="214.49 560.34 185.82 639.91 152.37 627.2 171.96 530.03 214.49 560.34"/><path class="cls-91" d="M210.45,195.92l-3.11,6.32c-6.32-2.66-44.56-5.99-44.56-5.99l-3.65-8.92,51.32,8.59Z"/><path class="cls-91" d="M209,73.54l1.42,4.12-50.74,16.5-.41-1.35-.98-3.21-74.49,24.07-12.69,3.66,.67,1.55s-22.17,6.98-41.24-.77C11.48,110.35,4.38,104.03,.5,84.85V51.71l45.45,21.83,17.62,37.14c2.55,2.66,5.99,3.77,7.87,3.1,1.89-.66,71.28-23.94,85.8-28.93,14.52-4.99,23.5-15.07,23.5-15.07l28.26,3.76Z"/><path class="cls-91" d="M204.09,208.25l-4.41,8.17c-1.87-.85-23.76-9.98-25.84-10.85-.04-.02-.03-.07,.01-.08,8.23-.42,30.24,2.76,30.24,2.76Z"/><polygon class="cls-91" points="195.04 171.26 195.04 186.72 158.03 180.03 195.04 171.26"/><path class="cls-91" d="M190.07,318.45l-11.41,56-70.66-16.9c2.69-21.64,11.54-47.85,11.54-47.85l70.53,8.75Z"/><path class="cls-91" d="M163.28,260.04l22.95,51.55-63.35-7.32c1.83-5.32,10.97-20.45,15.46-26.93,4.49-6.49,24.94-17.3,24.94-17.3Z"/><polygon class="cls-91" points="185.73 .5 178.08 21.78 59.03 5.82 61.36 .5 185.73 .5"/><polygon class="cls-91" points="177.18 381.73 161.4 459.18 142.74 442.99 154.38 375.98 177.18 381.73"/><path class="cls-91" d="M174.92,31.92s1.66,21.95-4.16,29.6c-6.82,8.97-13.13,10.14-13.13,10.14l-84.38,28.77-20.04-39.74-15.38-6.82,15.38-36.25,121.71,14.3Z"/><path class="cls-91" d="M159.62,248.74l1.33,4.65s-21.94,12.14-28.93,21.79c0,0-12.63,17.79-16.29,27.76l-25.38-3.13,22.38-62.38,46.89,11.31Z"/><path class="cls-91" d="M160.66,462.82l-31.72,155.72-63.3-24.91,19.54-149.62c.12-.96-.01-1.94-.41-2.82-.62-1.36-1.8-2.85-3.79-1.4-1.11,.81-1.77,2.09-1.95,3.45l-19.63,147.94-15.76-6.21,5.11-160.48,14.95-45.64,96.96,83.97Z"/><polygon class="cls-91" points="148.32 222.63 156.46 241.26 115.73 230.78 117.89 225.13 148.32 222.63"/><polygon class="cls-91" points="147.77 374.31 136.3 437.41 64.82 375.42 78.73 332.94 102.15 362.79 147.77 374.31"/><polygon class="cls-91" points="138.51 199.11 145.49 216.15 120.38 217.81 127.64 198.69 138.51 199.11"/><polygon class="cls-91" points="130.42 683.68 136.61 797.93 83.9 797.93 96.68 673.35 130.42 683.68"/><polygon class="cls-91" points="132.35 185.22 135.26 191.87 130.53 191.71 132.35 185.22"/><polygon class="cls-91" points="127.82 635.5 129.99 675.74 97.5 665.73 101.27 625.36 127.82 635.5"/><polygon class="cls-91" points="117.06 145.82 127.64 171.4 77.65 185.22 31.45 174.94 117.06 145.82"/><polygon class="cls-91" points="123.71 187.55 122.05 191.71 110.07 191.71 123.71 187.55"/><polygon class="cls-91" points="120.38 197.86 91.29 275.18 62.02 265.86 44.9 252.9 97.69 197.19 120.38 197.86"/><polygon class="cls-91" points="112.13 134.15 114.52 139.7 .5 177.41 .5 157.29 76.65 132.6 80.23 144.07 112.13 134.15"/><path class="cls-91" d="M87.63,305.74l25.13,3.12c-4.76,14.21-10.61,42.34-10.61,42.34l-20.87-26.06,6.35-19.4Z"/><polygon class="cls-91" points="94.54 622.8 90.84 663.68 43.7 649.16 43.64 603.37 94.54 622.8"/><path class="cls-91" d="M89.58,671.18l-3.46,34.67-.03,.31c-22.07-14.48-42.13-15.09-42.13-15.09l-.26-33.93,45.88,14.04Z"/><polygon class="cls-91" points="88.79 281.49 83.25 298.12 .5 261.71 .5 254.56 88.79 281.49"/><polygon class="cls-91" points="87.13 197.86 39.74 249.56 .5 222.97 .5 220.31 87.13 197.86"/><path class="cls-91" d="M85.37,713.34l-.03,.3-8.43,84.29H44.8l-.78-99.75s12.22-2.11,41.35,15.16Z"/><polygon class="cls-91" points="80.98 304.44 41.74 424.32 37.75 582.28 .5 567.65 .5 268.69 80.98 304.44"/><polygon class="cls-91" points="74.33 126.45 75.16 128.52 .5 152.38 .5 150.06 74.33 126.45"/><path class="cls-91" d="M73.14,122.9L.5,145.82v-47.11c19.61,37.12,69.99,24.86,72.64,24.19Z"/><polygon class="cls-91" points="65.18 188.88 .5 205.67 .5 184.56 15.3 179.57 65.18 188.88"/><polygon class="cls-91" points="47.72 .5 25.77 49.38 .5 36.74 .5 .5 47.72 .5"/><polygon class="cls-91" points="44.9 261.04 .5 246.74 .5 229.95 44.9 261.04"/><path class="cls-91" d="M37.4,698.18l.9,99.75H.5v-84.75c20.95-15.81,36.9-15,36.9-15Z"/><path class="cls-91" d="M37.01,655.09l.33,35.98s-18.4,.35-36.84,13.29v-60.45l36.51,11.18Z"/><polygon class="cls-91" points="36.63 600.7 37.01 647.1 .5 635.85 .5 586.91 36.63 600.7"/></g><g><polyline class="cls-5" points="61.36 .5 185.73 .5 197.37 .5 552.52 .5 552.52 68 552.52 83.08 552.52 167.76 552.52 187.05 552.52 254.23 552.52 262.21 552.52 339.36 552.52 346.6 552.52 407.67 552.52 415.13 552.52 475.61 552.52 482.7 552.52 540.19 552.52 547.92 552.52 720.69 552.52 736.57 552.52 797.93 502.65 797.93 495.49 797.93 316.27 797.93 308.28 797.93 284.58 797.93 277.96 797.93 265.57 797.93 259.55 797.93 163.84 797.93 136.61 797.93 83.9 797.93 76.91 797.93 44.8 797.93 38.3 797.93 .5 797.93 .5 713.18 .5 704.36 .5 643.91 .5 635.85 .5 586.91 .5 567.65 .5 268.69 .5 261.71 .5 254.56 .5 246.74 .5 229.95 .5 222.97 .5 220.31 .5 205.67 .5 184.56 .5 177.41 .5 157.29 .5 152.38 .5 150.06 .5 145.82 .5 98.71 .5 84.85 .5 51.71 .5 36.74 .5 .5 47.72 .5"/><polyline class="cls-4" points="61.36 .5 59.03 5.82 178.08 21.78 185.73 .5"/><line class="cls-5" x1="47.72" y1=".5" x2="61.36" y2=".5"/><polyline class="cls-4" points=".5 36.74 25.77 49.38 47.72 .5"/><path class="cls-4" d="M197.37,.5l-11.64,40.57s-1.33,16.62-2.33,21.28l30.26,4.32,3.32,8.86,.02,.05"/><path class="cls-4" d="M.5,51.71l45.45,21.83,17.62,37.14c2.55,2.66,5.99,3.77,7.87,3.1,1.89-.66,71.28-23.94,85.8-28.93,14.52-4.99,23.5-15.07,23.5-15.07l28.26,3.76,1.42,4.12,.02,.06-50.76,16.44,50.74-16.5,6.56-2.13,75.33-24.49,.83,4.66-132.35,43.01,.77,2.32,131.58-43.11,1.44,3.76-74.69,24.52-6.67,2.18-50.11,16.45,3.99,12.22-33.84,10.53-21.13,6.57-31.9,9.92-3.58-11.47L.5,157.29"/><polyline class="cls-4" points=".5 152.38 75.16 128.52 74.33 126.45 .5 150.06"/><path class="cls-4" d="M73.14,122.9c-2.65,.67-53.03,12.93-72.64-24.19"/><path class="cls-4" d="M.5,145.82l72.64-22.92,.07-.02s.04-.01,.04-.01"/><path class="cls-4" d="M.5,84.85c3.88,19.18,10.98,25.5,30.04,33.26,19.07,7.75,41.24,.77,41.24,.77l-.67-1.55,12.69-3.66,74.49-24.07,.98,3.21,.41,1.35"/><path class="cls-4" d="M53.21,17.62l-15.38,36.25,15.38,6.82,20.04,39.74,84.38-28.77s6.31-1.17,13.13-10.14c5.82-7.65,4.16-29.6,4.16-29.6L53.21,17.62Z"/><polyline class="cls-4" points="112.13 134.15 114.52 139.7 .5 177.41"/><polyline class="cls-4" points=".5 184.56 15.3 179.57 65.18 188.88 .5 205.67"/><polygon class="cls-4" points="117.06 145.82 127.64 171.4 77.65 185.22 31.45 174.94 117.06 145.82"/><path class="cls-4" d="M213.22,88.39l5.21,18.08-40.79,12.85s-1.56,1.61,1.77,7.13c3.32,5.51,12.64,19.37,13.08,30.84l-41.68,9.48-17.55-39.19"/><path class="cls-4" d="M230.62,147.48c-1.66-8.15-10.14-34.25-10.14-34.25l-34.75,11.3c9.64,7.82,14.47,31.02,14.47,31.02l30.42-8.07Z"/><path class="cls-4" d="M552.52,68L236.94,145.4l-9.98-34.25,174.25-57.78s1.17-5.65-3.99-6.98l-171.92,57.86-5.41-18.05"/><polyline class="cls-4" points=".5 220.31 87.13 197.86 39.74 249.56 .5 222.97"/><polygon class="cls-4" points="110.07 191.71 123.71 187.55 122.05 191.71 110.07 191.71"/><polygon class="cls-4" points="91.29 275.18 62.02 265.86 44.9 252.9 97.69 197.19 120.38 197.86 91.29 275.18"/><polyline class="cls-4" points=".5 229.95 44.9 261.04 .5 246.74"/><polyline class="cls-4" points=".5 254.56 88.79 281.49 83.25 298.12 .5 261.71"/><polygon class="cls-4" points="132.35 185.22 130.53 191.71 135.26 191.87 132.35 185.22"/><polygon class="cls-4" points="127.64 198.69 120.38 217.81 145.49 216.15 138.51 199.11 127.64 198.69"/><polygon class="cls-4" points="117.89 225.13 148.32 222.63 156.46 241.26 115.73 230.78 117.89 225.13"/><path class="cls-4" d="M112.73,237.43l46.89,11.31,1.33,4.65s-21.94,12.14-28.93,21.79c0,0-12.63,17.79-16.29,27.76l-25.38-3.13,22.38-62.38Z"/><path class="cls-4" d="M163.28,260.04s-20.45,10.81-24.94,17.3c-4.49,6.48-13.63,21.61-15.46,26.93l63.35,7.32-22.95-51.55Z"/><polyline class="cls-4" points=".5 268.69 80.98 304.44 41.74 424.32 37.75 582.28 .5 567.65"/><polygon class="cls-4" points="158.03 180.03 195.04 171.26 195.04 186.72 158.03 180.03"/><path class="cls-4" d="M159.13,187.33l3.65,8.92s38.24,3.33,44.56,5.99l3.11-6.32-51.32-8.59Z"/><polygon class="cls-4" points="201.8 169.65 201.8 188.16 213.38 190.65 228.02 162.78 201.8 169.65"/><polygon class="cls-4" points="236.16 161.39 219.59 192.21 248.24 197.36 269.19 166.77 236.16 161.39"/><polygon class="cls-4" points="246.91 157.92 272.85 161.39 280.39 150.14 246.91 157.92"/><polygon class="cls-4" points="424.91 114.23 289.92 148.14 281.04 162.44 388.02 179.38 424.91 114.23"/><polygon class="cls-4" points="432.69 112.01 525.14 89.84 491.22 148.14 420.28 136.06 432.69 112.01"/><polygon class="cls-4" points="416.95 141.94 396 180.62 464.84 191.71 487.12 153.91 416.95 141.94"/><polyline class="cls-4" points="552.52 83.08 537.44 86.62 475.7 192.59 540.1 203.57 552.52 167.76"/><polyline class="cls-4" points="552.52 187.05 534.28 247.14 552.52 254.23"/><polygon class="cls-4" points="452.98 230.28 520.37 240.7 527.91 244.36 531.82 230.09 460.28 216.9 452.98 230.28"/><polygon class="cls-4" points="471.71 199.02 464.4 211.72 533.45 224.41 538.44 210 471.71 199.02"/><polyline class="cls-4" points="552.52 262.21 532.57 254.23 516.51 304.28 515.94 328.05 552.52 339.36"/><polygon class="cls-4" points="447.27 238.1 517.93 248.25 526.42 251.57 522.26 262.87 441.56 248.41 447.27 238.1"/><polygon class="cls-4" points="438.31 254.58 520.25 269.54 511.33 297.26 429.35 270.7 438.31 254.58"/><polygon class="cls-4" points="426.47 276.37 419.04 290.83 490.33 320.75 508.7 325.87 509.51 303.48 426.47 276.37"/><polygon class="cls-4" points="454.97 209.68 461.66 197.66 392.04 186.96 386.55 197.01 454.97 209.68"/><polygon class="cls-4" points="375.23 217.75 383.52 202.55 451.97 215.08 444.09 229.23 375.23 217.75"/><polygon class="cls-4" points="365.92 234.79 371.59 224.41 440.17 236.28 434.29 246.84 365.92 234.79"/><polygon class="cls-4" points="430.73 253.23 422.83 267.43 359.69 246.2 362.23 241.56 430.73 253.23"/><polygon class="cls-4" points="282.95 203.05 256.44 198.73 268.45 180.29 293.46 185.11 282.95 203.05"/><polygon class="cls-4" points="306.66 206.91 319.99 190.25 300.71 186.51 290.47 204.27 305.63 206.74 306.66 206.91"/><polygon class="cls-4" points="327.72 191.71 376.02 201.01 367.31 216.79 314.57 208.19 327.72 191.71"/><polygon class="cls-4" points="379.25 195.15 384.63 185.4 276.51 167.94 271.89 175.03 379.25 195.15"/><polygon class="cls-4" points="249.61 213.65 214.24 204.18 217.59 197.36 259.23 204.77 249.61 213.65"/><polygon class="cls-4" points="352.05 243.63 299.72 228 310.82 213.95 363.76 223.38 352.05 243.63"/><polygon class="cls-4" points="303.09 213.14 291.82 225.88 258.42 216.14 269.19 206.54 303.52 212.66 303.09 213.14"/><path class="cls-4" d="M173.84,205.57c2.08,.87,23.97,10,25.84,10.85l4.41-8.17s-22.01-3.18-30.24-2.76c-.04,.01-.05,.06-.01,.08Z"/><polygon class="cls-4" points="300.42 262.21 291.19 276.37 326.45 285.65 333.34 271.58 300.42 262.21"/><path class="cls-4" d="M333.62,287.53l31.52,8.3,46.56-8.41,7.62-13.69c-3-2.33-53.94-17.97-104.75-33.21l-10.31,15.93,38.11,10.98-8.75,20.1Z"/><path class="cls-4" d="M241.74,218.87c-18.84-5.56-31.29-9.21-31.29-9.21l-5.77,12.22c3.11,2.15,7.69,5.18,10.45,7.48l26.61-10.49Z"/><path class="cls-4" d="M287.11,232.31c-13.18-3.92-25.73-7.64-36.72-10.89l-29.81,13.6c10.87,10.66,18.51,22.13,23.81,32.21,0,0,27.57-18.91,29.47-20.59s13.25-14.33,13.25-14.33Z"/><path class="cls-4" d="M247.35,273.21c6.09,13.1,7.97,22.62,7.97,22.62,13.87-2.43,23.78-14.63,23.78-14.63l28.5-42.77c-4.31-1.29-8.6-2.57-12.85-3.84l-17.27,18.54-30.13,20.08Z"/><path class="cls-4" d="M250.73,310.06l-.85-8.39c-7.07-53.69-51.22-81.35-82.13-91.2l45.08,101.12,37.9-1.53Z"/><path class="cls-4" d="M461.14,545.56l-8.58,41.81-.51-.34-13.95-8.55s10.48-14.87,23.04-32.92Z"/><path class="cls-4" d="M503.27,467.35l-2.13,56.25c-6.93-.24-12.8-.03-18.03,.94l1.29-50.45,18.87-6.74Z"/><path class="cls-4" d="M475.98,526.49c-14.27,5.32-24.67,18.84-43.12,48.78l-15.51-9.51-17.92-3.68,47.31-110.14,30.91,22.4-1.67,52.15Z"/><polygon class="cls-4" points="441.63 448.24 432.85 441.88 413.16 444.31 375.58 557.18 392.89 560.74 441.63 448.24"/><polygon class="cls-4" points="367.37 581.83 334.23 681.32 333.57 696.65 423.28 729.91 450.99 594.98 414.75 572.23 373.27 564.1 369.51 575.39 367.37 581.83"/><polygon class="cls-4" points="299.84 670.28 295.96 681.93 287.51 678.63 291.66 667.37 299.84 670.28"/><polygon class="cls-4" points="301.79 664.43 363.27 480.04 354.47 483.61 317.52 597.35 293.83 661.52 301.79 664.43"/><polygon class="cls-4" points="281.23 676.17 192 642.26 220.89 562.84 294.66 444.31 347.95 482.48 311.19 595.99 281.23 676.17"/><polygon class="cls-4" points="185.82 639.91 152.37 627.2 171.96 530.03 214.49 560.34 185.82 639.91"/><polygon class="cls-4" points="217.71 555.3 173.34 523.18 200.68 387.55 215.14 387.55 289.51 440.63 217.71 555.3"/><polygon class="cls-4" points="214.76 380.75 202.05 380.75 214.76 317.7 220.64 317.45 214.76 380.75"/><polygon class="cls-4" points="323.17 438.88 294.99 418.4 301.87 410.68 332.22 428.49 323.83 438.17 323.17 438.88"/><polygon class="cls-4" points="350.73 477.2 285.01 429.6 291.27 422.57 360.88 473.28 350.73 477.2"/><polygon class="cls-4" points="335.92 423.73 306.68 406.16 318.48 392.02 348.45 408.94 335.92 423.73"/><path class="cls-4" d="M312.87,388.85l-54.16-30.57c-3.37-2.63-3.67-8.45-3.67-8.45l-9.44,20.22,55.08,32.5,12.19-13.7Z"/><polygon class="cls-4" points="296.02 407.25 242.51 376.67 234.78 393.22 279.04 425.27 296.02 407.25"/><polygon class="cls-4" points="253.85 337.69 251.47 316.14 226.92 317.18 221.22 383.4 229.41 389.33 253.85 337.69"/><path class="cls-4" d="M79.03,443.24l-19.63,147.94-15.76-6.21,5.11-160.48,14.95-45.64,96.96,83.97-31.72,155.72-63.3-24.91,19.54-149.62c.12-.96-.01-1.94-.41-2.82-.62-1.36-1.8-2.85-3.79-1.4-1.11,.81-1.77,2.09-1.95,3.45Z"/><polygon class="cls-4" points="142.74 442.99 161.4 459.18 177.18 381.73 154.38 375.98 142.74 442.99"/><polygon class="cls-4" points="136.3 437.41 64.82 375.42 78.73 332.94 102.15 362.79 147.77 374.31 136.3 437.41"/><path class="cls-4" d="M178.66,374.45l11.41-56-70.53-8.75s-8.85,26.21-11.54,47.85l70.66,16.9Z"/><path class="cls-4" d="M112.76,308.86l-25.13-3.12-6.35,19.4,20.87,26.06s5.85-28.13,10.61-42.34Z"/><polygon class="cls-4" points="383.84 421.32 322.85 387.17 332.68 368.17 401.93 405.88 383.84 421.32"/><path class="cls-4" d="M330.99,343.95l-4.35,9.28,5.1,2.48-5.49,10.13c-11.62-2.54-11.62-21.12,4.74-21.89Z"/><path class="cls-4" d="M332.14,341.49l11.93-25.48-41.15-10.91-45.81,2.27,4.45,40.5s.42,5.37,5.14,7.86l49.89,27.94,8.1-14.95c-17.08-8.16-9.33-27.72,7.45-27.23Z"/><path class="cls-4" d="M345.03,313.82c4.42-10.51,12.28-9.14,12.28-9.14l.98-3.18-71.18-19.18c-10.25,15.42-30.47,20.75-30.47,20.75l.26,2.32,46.19-2.15,40.98,10.34,.96,.24Z"/><path class="cls-4" d="M552.52,540.19c-6.14-1.86-44.1-15.2-44.1-15.2l2.16-58.59,41.94,16.3"/><polyline class="cls-4" points="552.52 475.61 510.84 459.3 512.66 409.95 552.52 415.13"/><polyline class="cls-4" points="552.52 346.6 515.41 335.4 512.94 402.26 552.52 407.67"/><path class="cls-4" d="M330.99,343.95c8.82-.54,11.28,2.73,23.92-24.85l7.99,2.27-18.33,40.57-6.92-3.36-2.18,4.2,76.42,42.53-22.4,19.17,22.4,12.55,21.08-2.19,.21-9.57,17.04-2.32,.35-2.73c-40.89-17.81-49.9-44.86-57.61-63.18l-8.58-19.04-10.17-13.36-11.02-3.19-.29-.08"/><path class="cls-4" d="M344.07,316.01l8.33,2.37c-9.5,21.93-12.58,22.81-20.26,23.11"/><path class="cls-4" d="M363.76,319.47l59.43,16.86s36.29,12.74,45.13,19.94c8.83,7.2,18.64,17.42,19.54,37.37,0,0,11.55,14.69-4.39,28.89,0,0,1.67,20.83-9.26,21.89,0,0-.89,.61-4.93-1.72-2.53-1.45-7.85-3.85-13.67-3.85-3.51,0-7.2,.87-10.57,3.33,0,0-.72,.56-.7,1.19l36.28,25.88,22.94-8.91,4.86-126.97-.73-.3-21.95-6.62-73.66-31.85-46.43,8.11-1.9,4.53c3.18,2.62,1.72,8.46,1.72,8.46l-1.71,3.77-19.69-5.89"/><path class="cls-4" d="M455.09,398.11l-1.73,20.18c46.72,4.83,34.4-45.98,13.89-60.14-7.03-5.81-44.73-19.54-44.73-19.54l-43.56-12.6,7.81,11.01,8.64,20.02c10.68,29.37,29.26,49.82,55.45,60.28l1.8-19.65"/><path class="cls-4" d="M455.59,436.85c-5.03,.01-9.71,1.29-12.8,3.66l-1.13,.99-5.99-4.15v-10l17.02-2.59,.33-3.97c33.72,4.09,34.74-22.68,34.74-22.68,6.01,11.48-6.62,23.97-6.62,23.97,0,0,1.1,9.16-2.02,15.75-3.11,6.6-7.33,3.73-7.33,3.73-4.76-3.22-10.69-4.72-16.2-4.71Z"/><path class="cls-4" d="M372.65,453.62c-.15,.46-6.51,16.48-6.51,16.48l-37.34-27.13,.69-.75,8.4-10.4,4.5,2.64,30.26,19.16Z"/><polygon class="cls-4" points="326.07 693.71 302.15 684.35 305.92 673.01 326.87 681.18 326.07 693.71"/><polygon class="cls-4" points="361.67 577.21 328.63 674.65 308.03 666.69 341 567.64 343.46 560.24 377.34 458.47 396.64 474.05 363.72 571.15 361.67 577.21"/><polygon class="cls-4" points="345.68 429.6 342.07 427.43 353.9 412.01 407.43 442.22 398.77 467.77 380.61 453.29 345.68 429.6"/><path class="cls-4" d="M552.52,547.92c-25.82-8.76-61.52-27.47-82.55-10.19l-38.68,193.87c48.16,6.79,99.56-4.21,121.23-10.91"/><polyline class="cls-4" points=".5 586.91 36.63 600.7 37.01 647.1 .5 635.85"/><polygon class="cls-4" points="43.7 649.16 90.84 663.68 94.54 622.8 43.64 603.37 43.7 649.16"/><polyline class="cls-4" points="259.55 797.93 278.5 693 155.05 645.89 163.84 797.93"/><polyline class="cls-4" points="277.96 797.93 292.82 698.46 284.65 695.35 265.57 797.93"/><polyline class="cls-4" points="308.28 797.93 323.62 710.22 299.34 700.95 284.58 797.93"/><path class="cls-4" d="M495.49,797.93l-9.4-48.6c-28.5,2.12-55.45,1.01-66.25-2.39l-89.29-34.1-14.28,85.09"/><path class="cls-4" d="M552.52,736.57c-15.81,6.25-37.79,10.17-59.55,12.18l9.68,49.18"/><polygon class="cls-4" points="97.5 665.73 129.99 675.74 127.82 635.5 101.27 625.36 97.5 665.73"/><polyline class="cls-4" points="136.61 797.93 130.42 683.68 96.68 673.35 83.9 797.93"/><path class="cls-4" d="M44.8,797.93l-.78-99.75s12.22-2.11,41.35,15.16l-.03,.3-8.43,84.29"/><path class="cls-4" d="M86.09,706.16c-22.07-14.48-42.13-15.09-42.13-15.09l-.26-33.93,45.88,14.04-3.46,34.67-.03,.31Z"/><path class="cls-4" d="M38.3,797.93l-.9-99.75s-15.95-.81-36.9,15"/><path class="cls-4" d="M.5,643.91l36.51,11.18,.33,35.98s-18.4,.35-36.84,13.29"/></g></g><circle class="cls-48" cx="257.58" cy="451.42" r="11.98"/><circle class="cls-48" cx="302.3" cy="546.01" r="14.79"/><circle class="cls-48" cx="271.29" cy="586.51" r="13.71"/><circle class="cls-48" cx="498.02" cy="713.54" r="17.63"/><circle class="cls-48" cx="207.98" cy="758.34" r="21.21"/><circle class="cls-48" cx="110.73" cy="580.36" r="13.24"/><circle class="cls-48" cx="116.07" cy="548.24" r="13.92"/><circle class="cls-48" cx="284.64" cy="393.7" r="15.08"/><circle class="cls-48" cx="360.23" cy="441.42" r="11.78"/><circle class="cls-48" cx="453.51" cy="383.7" r="14.97"/><g id="_自然博物"><rect class="cls-59" x="91.03" y="530.98" width="60.27" height="10.27"/><rect class="cls-73" x="93.86" y="532.57" width="5.76" height="5.31"/><rect class="cls-73" x="102.74" y="532.57" width="5.76" height="5.31"/><rect class="cls-73" x="111.62" y="532.57" width="5.76" height="5.31"/><rect class="cls-73" x="124.89" y="532.57" width="5.76" height="5.31"/><rect class="cls-73" x="133.77" y="532.57" width="5.76" height="5.31"/><rect class="cls-73" x="142.64" y="532.57" width="5.76" height="5.31"/><rect x="91.03" y="532.11" width="60.27" height=".92"/><polygon class="cls-92" points="146.76 529.31 95.85 529.31 88.64 531.04 153.68 531.04 146.76 529.31"/><polygon class="cls-92" points="145.18 525.28 101.24 525.28 95.85 529.31 146.76 529.31 145.18 525.28"/><rect class="cls-59" x="91.03" y="541.71" width="60.27" height="8.68"/><rect class="cls-73" x="93.86" y="541.71" width="5.76" height="5.31"/><rect class="cls-73" x="102.74" y="541.71" width="5.76" height="5.31"/><rect class="cls-73" x="111.62" y="541.71" width="5.76" height="5.31"/><rect class="cls-73" x="124.89" y="541.71" width="5.76" height="5.31"/><rect class="cls-73" x="133.77" y="541.71" width="5.76" height="5.31"/><rect class="cls-73" x="142.64" y="541.71" width="5.76" height="5.31"/><rect x="91.03" y="541.25" width="60.27" height=".92"/><rect class="cls-59" x="91.03" y="550.06" width="60.27" height="8.68"/><rect class="cls-73" x="93.86" y="550.06" width="5.76" height="5.31"/><rect class="cls-73" x="102.74" y="550.06" width="5.76" height="5.31"/><rect class="cls-73" x="111.62" y="550.06" width="5.76" height="5.31"/><rect class="cls-73" x="124.89" y="550.06" width="5.76" height="5.31"/><rect class="cls-73" x="133.77" y="550.06" width="5.76" height="5.31"/><rect class="cls-73" x="142.64" y="550.06" width="5.76" height="5.31"/><rect x="91.03" y="549.6" width="60.27" height=".92"/><rect class="cls-81" x="113.28" y="527.91" width="1.52" height="1.4"/><rect class="cls-81" x="115.64" y="527.91" width="1.52" height="1.4"/><rect class="cls-81" x="117.76" y="527.91" width="1.52" height="1.4"/><rect class="cls-81" x="120.04" y="527.91" width="1.52" height="1.4" transform="translate(241.61 1057.22) rotate(180)"/><rect class="cls-81" x="122.31" y="527.91" width="1.52" height="1.4" transform="translate(246.13 1057.22) rotate(180)"/><rect class="cls-81" x="124.52" y="527.91" width="1.52" height="1.4" transform="translate(250.55 1057.22) rotate(180)"/><rect x="103.88" y="544.36" width="27.77" height="1" transform="translate(662.62 427.09) rotate(90)"/><rect class="cls-39" x="72.23" y="554.4" width="62.5" height="4.34"/><rect class="cls-81" x="71.94" y="548.76" width="38.73" height="5.64"/><polygon class="cls-54" points="91.03 547.01 91.03 539.17 71.94 539.17 71.94 547.01 71.94 549.39 107.3 549.41 107.31 550.4 110.67 550.39 110.67 554.4 111.62 554.4 111.62 550.39 111.62 549.6 111.62 547.02 91.03 547.01"/><rect class="cls-58" x="72.06" y="549.41" width="35.25" height=".99"/></g><g id="_なんか"><rect class="cls-45" x="87.04" y="560.2" width="14.36" height="7.87"/><rect class="cls-9" x="108.14" y="561.77" width="6.69" height="6.69"/><rect class="cls-50" x="134.31" y="565.48" width="3.54" height="33.5"/><rect class="cls-45" x="69.42" y="568.96" width="64.89" height="30.02"/><rect class="cls-42" x="128.14" y="591.65" width="6.17" height="7.35"/><rect class="cls-42" x="121.97" y="591.65" width="6.17" height="7.35"/><rect class="cls-42" x="115.8" y="591.65" width="6.17" height="7.35"/><rect class="cls-62" x="115.8" y="590.24" width="18.51" height="1.4"/><g><rect class="cls-57" x="127.81" y="580.8" width="4.46" height="4.53"/><rect class="cls-57" x="123.35" y="580.8" width="4.46" height="4.53"/><rect class="cls-57" x="118.88" y="580.8" width="4.46" height="4.53"/><rect class="cls-47" x="118.88" y="579.79" width="13.39" height="1.02"/></g><g><rect class="cls-57" x="80.54" y="580.8" width="4.46" height="4.53"/><rect class="cls-57" x="76.07" y="580.8" width="4.46" height="4.53"/><rect class="cls-57" x="71.61" y="580.8" width="4.46" height="4.53"/><rect class="cls-47" x="71.61" y="579.79" width="13.39" height="1.02"/></g><g><rect class="cls-57" x="95.96" y="580.8" width="4.46" height="4.53"/><rect class="cls-57" x="91.5" y="580.8" width="4.46" height="4.53"/><rect class="cls-57" x="87.04" y="580.8" width="4.46" height="4.53"/><rect class="cls-47" x="87.04" y="579.79" width="13.39" height="1.02"/></g><g><rect class="cls-57" x="112.6" y="580.8" width="4.46" height="4.53"/><rect class="cls-57" x="108.14" y="580.8" width="4.46" height="4.53"/><rect class="cls-57" x="103.68" y="580.8" width="4.46" height="4.53"/><rect class="cls-47" x="103.68" y="579.79" width="13.39" height="1.02"/></g><g><rect class="cls-57" x="127.81" y="571.48" width="4.46" height="4.53"/><rect class="cls-57" x="123.35" y="571.48" width="4.46" height="4.53"/><rect class="cls-57" x="118.88" y="571.48" width="4.46" height="4.53"/><rect class="cls-47" x="118.88" y="570.46" width="13.39" height="1.02"/></g><g><rect class="cls-57" x="80.54" y="571.48" width="4.46" height="4.53"/><rect class="cls-57" x="76.07" y="571.48" width="4.46" height="4.53"/><rect class="cls-57" x="71.61" y="571.48" width="4.46" height="4.53"/><rect class="cls-47" x="71.61" y="570.46" width="13.39" height="1.02"/></g><g><rect class="cls-57" x="95.96" y="571.48" width="4.46" height="4.53"/><rect class="cls-57" x="91.5" y="571.48" width="4.46" height="4.53"/><rect class="cls-57" x="87.04" y="571.48" width="4.46" height="4.53"/><rect class="cls-47" x="87.04" y="570.46" width="13.39" height="1.02"/></g><g><rect class="cls-57" x="112.6" y="571.48" width="4.46" height="4.53"/><rect class="cls-57" x="108.14" y="571.48" width="4.46" height="4.53"/><rect class="cls-57" x="103.68" y="571.48" width="4.46" height="4.53"/><rect class="cls-47" x="103.68" y="570.46" width="13.39" height="1.02"/></g><rect class="cls-42" x="102.47" y="591.65" width="6.17" height="7.35"/><rect class="cls-42" x="96.29" y="591.65" width="6.17" height="7.35"/><rect class="cls-42" x="90.12" y="591.65" width="6.17" height="7.35"/><rect class="cls-62" x="90.12" y="590.24" width="18.51" height="1.4"/><rect class="cls-42" x="83.95" y="591.65" width="6.17" height="7.35"/><rect class="cls-42" x="77.78" y="591.65" width="6.17" height="7.35"/><rect class="cls-42" x="71.61" y="591.65" width="6.17" height="7.35"/><rect class="cls-62" x="71.61" y="590.24" width="18.51" height="1.4"/><rect class="cls-43" x="108.64" y="587.12" width="7.16" height="11.86"/><rect class="cls-10" x="100.68" y="553.49" width="2.36" height="64.89" transform="translate(687.8 484.07) rotate(90)"/><rect class="cls-52" x="75.19" y="569.15" width="3.32" height="14.87" transform="translate(653.44 499.74) rotate(90)"/><rect class="cls-52" x="100.2" y="569.15" width="3.32" height="14.87" transform="translate(678.45 474.72) rotate(90)"/><rect class="cls-52" x="125.21" y="569.15" width="3.32" height="14.87" transform="translate(703.46 449.71) rotate(90)"/><rect class="cls-52" x="87.7" y="571.51" width="3.32" height="10.15" transform="translate(665.94 487.23) rotate(90)"/><rect class="cls-52" x="112.71" y="571.51" width="3.32" height="10.15" transform="translate(690.96 462.22) rotate(90)"/><rect class="cls-44" x="100.52" y="535.17" width="1.77" height="65.82" transform="translate(669.48 466.68) rotate(90)"/></g><g><rect class="cls-89" x="258.35" y="384.63" width="52.02" height="9.03"/><rect class="cls-77" x="259.85" y="386.31" width="49.24" height="5.67"/><rect class="cls-89" x="253.03" y="398.58" width="62.65" height="13.43"/><rect class="cls-72" x="265.93" y="400.06" width="5.65" height="6.66"/><rect class="cls-77" x="253.02" y="411.31" width="62.67" height=".71"/><rect class="cls-95" x="261.94" y="387.1" width="5.41" height="4.1"/><rect class="cls-95" x="270.45" y="387.1" width="5.41" height="4.1"/><rect class="cls-95" x="278.64" y="387.1" width="5.41" height="4.1"/><rect class="cls-55" x="299.02" y="400.25" width="15.02" height="10.92"/><rect class="cls-56" x="271.82" y="400.25" width="15.02" height="5.45"/><rect class="cls-56" x="271.82" y="405.73" width="15.02" height="5.45"/><rect class="cls-51" x="254.62" y="400.11" width="11.31" height="11.07"/><rect class="cls-56" x="265.93" y="406.6" width="5.83" height="4.58"/><rect class="cls-68" x="292.24" y="400.25" width="7.22" height="10.92"/><polygon class="cls-69" points="292.14 411.18 284.93 411.18 285.03 400.25 292.24 400.25 292.14 411.18"/><rect class="cls-95" x="286.83" y="387.1" width="5.41" height="4.1"/><rect class="cls-95" x="294.72" y="387.1" width="5.41" height="4.1"/><rect class="cls-95" x="302.23" y="387.1" width="5.41" height="4.1"/><polygon class="cls-93" points="310.37 372.03 257.82 372.03 256.06 384.63 311.92 384.63 310.37 372.03"/><polygon points="311.79 383.53 256.22 383.53 256.18 383.8 311.82 383.8 311.79 383.53"/><polygon points="311.6 382.07 256.41 382.07 256.38 382.33 311.63 382.33 311.6 382.07"/><polygon points="311.43 380.6 256.63 380.6 256.59 380.87 311.46 380.87 311.43 380.6"/><polygon points="311.25 379.14 256.83 379.14 256.79 379.4 311.28 379.4 311.25 379.14"/><polygon points="311.05 377.67 257.03 377.67 256.99 377.94 311.09 377.94 311.05 377.67"/><polygon points="310.88 376.21 257.23 376.21 257.19 376.47 310.92 376.47 310.88 376.21"/><polygon points="310.7 374.74 257.44 374.74 257.4 375.01 310.74 375.01 310.7 374.74"/><polygon points="310.52 373.28 257.64 373.28 257.61 373.54 310.56 373.54 310.52 373.28"/><polygon class="cls-93" points="310.37 393.66 257.82 393.66 248.49 400.25 318.28 400.25 310.37 393.66"/><polygon points="317.13 399.29 249.85 399.29 249.47 399.56 317.45 399.56 317.13 399.29"/><polygon points="315.38 397.83 251.92 397.83 251.55 398.09 315.69 398.09 315.38 397.83"/><polygon points="313.65 396.36 254 396.36 253.64 396.63 313.9 396.63 313.65 396.36"/><polygon points="311.81 394.89 256.11 394.9 255.74 395.16 312.17 395.16 311.81 394.89"/><line class="cls-3" x1="299.46" y1="405.73" x2="314.04" y2="405.73"/><line class="cls-6" x1="254.74" y1="405.73" x2="266.12" y2="405.73"/><line class="cls-7" x1="307.19" y1="400.39" x2="307.19" y2="411.07"/><line class="cls-7" x1="310.5" y1="400.39" x2="310.5" y2="411.07"/><line class="cls-7" x1="303.61" y1="400.39" x2="303.61" y2="411.07"/><line class="cls-7" x1="280.9" y1="400.39" x2="280.9" y2="411.07"/><line class="cls-7" x1="276.33" y1="400.39" x2="276.33" y2="411.07"/><line class="cls-7" x1="261.94" y1="400.39" x2="261.94" y2="411.07"/><line class="cls-7" x1="258.35" y1="400.39" x2="258.35" y2="411.07"/></g><g><rect class="cls-31" x="236.83" y="444.56" width="38.48" height="19.86"/><polygon class="cls-63" points="255.8 431.09 253.9 434.38 257.7 434.38 255.8 431.09"/><polygon class="cls-63" points="255.71 432.52 235.3 437.76 235.55 438.56 276.35 438.56 276.7 437.84 255.71 432.52"/><rect class="cls-70" x="239.58" y="444.56" width="3.88" height="20.21"/><rect class="cls-70" x="249.59" y="444.56" width="3.88" height="20.21"/><rect class="cls-70" x="259.7" y="444.56" width="3.88" height="20.21"/><rect class="cls-70" x="269.1" y="444.56" width="3.88" height="20.21"/><rect class="cls-65" x="236.83" y="442.72" width="38.48" height="1.84"/><polygon class="cls-64" points="275.4 441.53 236.87 441.53 236.59 439.64 275.75 439.64 275.4 441.53"/><rect class="cls-61" x="236.81" y="441.53" width="38.53" height="1.08"/><rect class="cls-60" x="236.45" y="438.56" width="39.29" height="1.08"/><polygon class="cls-96" points="255.71 433.35 236.37 438.48 275.79 438.48 255.71 433.35"/><polygon class="cls-78" points="255.74 434.38 239.84 438.48 272.5 438.48 255.74 434.38"/><rect class="cls-19" x="234.74" y="462.85" width="41.36" height="2.87"/></g><g><rect class="cls-17" x="217.86" y="589.14" width="19.18" height="11.29"/><rect class="cls-17" x="217.86" y="577.12" width="19.18" height="11.29"/><rect class="cls-27" x="217.86" y="594.22" width="19.18" height="6.34"/><rect class="cls-27" x="217.86" y="586.88" width="19.18" height="2.22"/><rect class="cls-88" x="242.15" y="576.46" width="49.99" height="9.86"/><rect class="cls-89" x="237.04" y="589.87" width="60.22" height="12.91"/><rect class="cls-72" x="249.43" y="591.29" width="5.43" height="6.4"/><rect class="cls-77" x="237.03" y="602.1" width="60.23" height=".68"/><rect class="cls-11" x="245.6" y="575.66" width="5.64" height="7.11"/><rect class="cls-11" x="254.97" y="575.66" width="5.64" height="7.11"/><rect class="cls-11" x="264.33" y="575.66" width="5.64" height="7.11"/><rect class="cls-55" x="281.24" y="591.48" width="14.43" height="10.5"/><rect class="cls-56" x="255.09" y="591.48" width="14.43" height="5.24"/><rect class="cls-56" x="255.09" y="596.74" width="14.43" height="5.24"/><rect class="cls-67" x="237.04" y="596.74" width="5.11" height="5.24"/><rect class="cls-71" x="237.04" y="591.6" width="5.11" height="5.11"/><rect class="cls-56" x="249.43" y="597.58" width="5.6" height="4.4"/><rect class="cls-68" x="274.73" y="591.48" width="6.94" height="10.5"/><rect class="cls-66" x="242.15" y="592.8" width="7.28" height="9.18"/><polygon class="cls-69" points="274.63 601.97 267.69 601.97 267.79 591.48 274.73 591.48 274.63 601.97"/><rect class="cls-11" x="273.41" y="575.66" width="5.64" height="7.11"/><rect class="cls-11" x="283.02" y="575.66" width="5.64" height="7.11"/><polygon class="cls-93" points="292.67 568.62 241.08 568.36 239.95 576.46 293.64 576.46 292.67 568.62"/><polygon points="293.51 575.41 240.1 575.41 240.06 575.66 293.54 575.66 293.51 575.41"/><polygon points="293.33 574 240.29 574 240.25 574.25 293.36 574.25 293.33 574"/><polygon points="293.16 572.59 240.49 572.59 240.46 572.85 293.2 572.85 293.16 572.59"/><polygon points="292.99 571.18 240.68 571.18 240.65 571.44 293.02 571.44 292.99 571.18"/><polygon points="292.8 569.77 240.88 569.77 240.85 570.03 292.84 570.03 292.8 569.77"/><polygon points="292.64 568.36 241.08 568.36 241.04 568.62 292.67 568.62 292.64 568.36"/><polygon class="cls-93" points="292.14 585.14 237.03 585.14 237.04 591.6 299.75 591.48 292.14 585.14"/><polygon points="298.64 590.55 237.04 590.55 237.04 590.81 298.95 590.81 298.64 590.55"/><polygon points="296.96 589.14 237.04 589.14 237.03 589.4 297.26 589.4 296.96 589.14"/><polygon points="295.29 587.73 236.99 587.73 237.04 587.99 295.54 587.99 295.29 587.73"/><polygon points="293.53 586.33 236.99 586.33 236.99 586.58 293.87 586.58 293.53 586.33"/><line class="cls-3" x1="281.66" y1="596.74" x2="295.67" y2="596.74"/><line class="cls-7" x1="289.09" y1="591.6" x2="289.09" y2="601.88"/><line class="cls-7" x1="292.27" y1="591.6" x2="292.27" y2="601.88"/><line class="cls-7" x1="285.64" y1="591.6" x2="285.64" y2="601.88"/><line class="cls-7" x1="263.83" y1="591.6" x2="263.83" y2="601.88"/><line class="cls-7" x1="259.43" y1="591.6" x2="259.43" y2="601.88"/><rect class="cls-13" x="261.52" y="591.59" width="6.27" height="1.21"/><rect class="cls-13" x="255.06" y="591.59" width="6.27" height="1.21"/><rect class="cls-13" x="248.6" y="591.56" width="6.27" height="1.21"/><rect class="cls-13" x="242.16" y="591.57" width="6.27" height="1.21"/><rect class="cls-66" x="217.86" y="600.62" width="19.18" height="2.16"/><g class="cls-79"><line class="cls-53" x1="226.84" y1="594.22" x2="220.48" y2="600.58"/><line class="cls-53" x1="229.15" y1="594.22" x2="222.78" y2="600.58"/><line class="cls-53" x1="231.34" y1="594.22" x2="224.97" y2="600.58"/><line class="cls-53" x1="233.69" y1="594.22" x2="227.33" y2="600.58"/><line class="cls-53" x1="235.98" y1="594.22" x2="229.61" y2="600.58"/><line class="cls-53" x1="238.49" y1="594.22" x2="232.12" y2="600.58"/><line class="cls-53" x1="224.61" y1="594.22" x2="218.24" y2="600.58"/><line class="cls-53" x1="222.31" y1="594.2" x2="215.95" y2="600.57"/><line class="cls-53" x1="219.98" y1="594.2" x2="213.62" y2="600.57"/><line class="cls-53" x1="240.91" y1="594.22" x2="234.55" y2="600.58"/><line class="cls-53" x1="227.69" y1="594.22" x2="234.05" y2="600.59"/><line class="cls-53" x1="225.38" y1="594.22" x2="231.75" y2="600.59"/><line class="cls-53" x1="223.19" y1="594.22" x2="229.56" y2="600.59"/><line class="cls-53" x1="220.84" y1="594.22" x2="227.2" y2="600.59"/><line class="cls-53" x1="218.55" y1="594.22" x2="224.92" y2="600.59"/><line class="cls-53" x1="216.04" y1="594.22" x2="222.41" y2="600.59"/><line class="cls-53" x1="229.92" y1="594.22" x2="236.29" y2="600.59"/><line class="cls-53" x1="232.22" y1="594.21" x2="238.58" y2="600.58"/><line class="cls-53" x1="234.55" y1="594.21" x2="240.91" y2="600.58"/><line class="cls-53" x1="213.62" y1="594.22" x2="219.98" y2="600.59"/></g><polygon class="cls-16" points="227.4 569.77 215.6 576.03 215.6 577.12 217.86 577.12 217.86 577.14 237.04 577.14 238.92 577.12 238.92 576.03 227.4 569.77"/><polygon class="cls-17" points="227.4 571.18 217.8 575.97 236.99 575.97 227.4 571.18"/><rect class="cls-23" x="224.44" y="591.53" width="5.64" height="5.12"/><rect class="cls-23" x="221.6" y="579.54" width="2.93" height="4.59"/><rect class="cls-23" x="224.53" y="579.54" width="2.93" height="4.59"/><rect class="cls-23" x="227.45" y="579.54" width="2.93" height="4.59"/><rect class="cls-23" x="230.08" y="579.54" width="2.93" height="4.59"/><rect class="cls-21" x="224.44" y="595.86" width="5.64" height=".79"/><rect class="cls-21" x="221.6" y="584.13" width="11.4" height=".4"/><rect class="cls-32" x="224.44" y="589.92" width="5.64" height=".79"/><rect class="cls-32" x="221.6" y="578.82" width="11.4" height=".79"/></g><g><polygon class="cls-17" points="310.46 525.31 301.57 530.44 319.34 530.44 310.46 525.31"/><polygon class="cls-17" points="299.36 530.49 299.36 541.46 299.36 555.71 321.87 555.71 321.87 541.46 321.87 530.49 299.36 530.49"/><rect class="cls-66" x="299.36" y="557.73" width="22.51" height="2.88"/><rect class="cls-26" x="274.45" y="557.73" width="16.83" height="2.88"/><rect class="cls-23" x="311.98" y="533.53" width="3.43" height="4.04"/><rect class="cls-23" x="315.06" y="533.53" width="3.43" height="4.04"/><rect class="cls-23" x="303.16" y="533.53" width="3.43" height="4.04"/><rect class="cls-23" x="306.24" y="533.53" width="3.43" height="4.04"/><rect class="cls-21" x="307.08" y="552.49" width="6.62" height=".93"/><path class="cls-28" d="M321.37,530.49h-22.01v27.24h22.51v-27.24h-.5Zm-20.06,1.95h18.62v6.24h-18.62v-6.24Zm0,14.92v-6.07h18.62v6.07h-18.62Z"/><g class="cls-103"><polygon class="cls-17" points="310.55 559.64 300 564.91 321.1 564.91 310.55 559.64"/><line class="cls-28" x1="301.3" y1="528.29" x2="301.3" y2="547.36"/><line class="cls-28" x1="302.55" y1="547.36" x2="302.55" y2="549.75"/><line class="cls-28" x1="307.96" y1="547.36" x2="307.96" y2="549.75"/><line class="cls-28" x1="313.23" y1="547.36" x2="313.23" y2="549.75"/><line class="cls-28" x1="318.5" y1="547.36" x2="318.5" y2="549.75"/><line class="cls-28" x1="302.55" y1="552.48" x2="302.55" y2="555.22"/><line class="cls-28" x1="307.96" y1="552.48" x2="307.96" y2="555.22"/><line class="cls-28" x1="313.23" y1="552.48" x2="313.23" y2="555.22"/><line class="cls-28" x1="318.5" y1="552.48" x2="318.5" y2="555.22"/><line class="cls-28" x1="315.98" y1="549.75" x2="315.98" y2="552.48"/><line class="cls-28" x1="310.61" y1="549.75" x2="310.61" y2="552.48"/><line class="cls-28" x1="305.57" y1="549.75" x2="305.57" y2="552.48"/><line class="cls-28" x1="300.56" y1="549.75" x2="300.56" y2="552.48"/><line class="cls-28" x1="321.2" y1="549.75" x2="321.2" y2="552.48"/><line class="cls-28" x1="315.98" y1="555.22" x2="315.98" y2="557.73"/><line class="cls-28" x1="310.61" y1="555.22" x2="310.61" y2="557.73"/><line class="cls-28" x1="305.57" y1="555.22" x2="305.57" y2="557.73"/><line class="cls-28" x1="300.56" y1="555.22" x2="300.56" y2="557.73"/><line class="cls-28" x1="321.2" y1="555.22" x2="321.2" y2="557.73"/><line class="cls-28" x1="306.48" y1="528.29" x2="306.48" y2="547.36"/><line class="cls-28" x1="304.12" y1="528.29" x2="304.12" y2="547.36"/><line class="cls-28" x1="309.09" y1="528.29" x2="309.09" y2="547.36"/><line class="cls-28" x1="311.76" y1="528.29" x2="311.76" y2="547.36"/><line class="cls-28" x1="326" y1="532.44" x2="295.73" y2="532.44"/><line class="cls-28" x1="326" y1="538.68" x2="295.73" y2="538.68"/><line class="cls-28" x1="326" y1="536.58" x2="295.73" y2="536.58"/><line class="cls-28" x1="326" y1="534.51" x2="295.73" y2="534.51"/><line class="cls-28" x1="326" y1="541.29" x2="295.73" y2="541.29"/><line class="cls-28" x1="326.4" y1="545.33" x2="296.13" y2="545.33"/><line class="cls-28" x1="326.42" y1="543.53" x2="296.16" y2="543.53"/><line class="cls-28" x1="326" y1="547.36" x2="295.73" y2="547.36"/><line class="cls-28" x1="326" y1="549.75" x2="295.73" y2="549.75"/><line class="cls-28" x1="326" y1="552.49" x2="295.73" y2="552.49"/><line class="cls-28" x1="326" y1="555.22" x2="295.73" y2="555.22"/><line class="cls-28" x1="314.64" y1="528.29" x2="314.64" y2="547.36"/><line class="cls-28" x1="317.21" y1="528.29" x2="317.21" y2="547.36"/><line class="cls-28" x1="319.93" y1="528.29" x2="319.93" y2="547.36"/></g><rect class="cls-23" x="303.29" y="543.1" width="6.39" height="6.73"/><rect class="cls-23" x="311.76" y="543.1" width="6.62" height="6.73"/><line class="cls-23" x1="306.24" y1="543.1" x2="306.24" y2="549.84"/><line class="cls-23" x1="315.06" y1="543.1" x2="315.06" y2="549.84"/><polygon class="cls-35" points="327.39 533.85 310.46 522.81 293.5 534.2 296.68 534.2 310.46 525.31 323.89 533.85 327.39 533.85"/><rect class="cls-24" x="291.17" y="549.84" width="8.19" height="10.77"/><rect class="cls-17" x="275.92" y="549.84" width="15.25" height="7.89"/><rect class="cls-12" x="274.45" y="549.84" width="1.47" height="7.89"/><polygon class="cls-15" points="271.54 549.84 299.36 549.84 299.36 543.1 274.45 543.1 271.54 549.84"/><polygon class="cls-17" points="291.18 532.44 282.87 528.51 274.56 532.44 274.45 532.44 274.45 543.44 291.28 543.44 291.28 532.44 291.18 532.44"/><rect class="cls-12" x="282.9" y="524.22" width=".33" height="16.44" transform="translate(815.5 249.38) rotate(90)"/><polygon class="cls-15" points="291.28 540.14 291.28 543.42 289.82 543.42 289.82 540.14 275.92 540.14 275.92 543.44 274.45 543.44 274.45 531.79 275.92 531.79 275.92 537.62 289.82 537.62 289.82 531.77 291.28 531.77 291.28 537.62 291.28 540.14"/><rect class="cls-23" x="277.72" y="549.84" width="4.99" height="5.88"/><rect class="cls-23" x="284.44" y="549.84" width="4.99" height="5.88"/><rect class="cls-23" x="283.83" y="533.56" width="4.48" height="4.84"/><rect class="cls-23" x="277.72" y="533.56" width="4.48" height="4.84"/><polygon class="cls-35" points="293.5 533.29 283.07 526.08 272 533.53 276.04 533.53 283.07 528.58 290 533.29 293.5 533.29"/></g><g><rect class="cls-30" x="174.95" y="777.17" width="66.07" height="4.94"/><rect class="cls-99" x="218.99" y="747.76" width="22.02" height="29.41"/><rect class="cls-99" x="196.97" y="747.76" width="22.02" height="29.41"/><rect class="cls-99" x="174.95" y="747.76" width="22.02" height="29.41"/><polygon class="cls-40" points="241.02 747.76 174.95 747.76 174.95 735.06 182.63 731.52 233.88 731.52 241.02 734.78 241.02 747.76"/><rect class="cls-94" x="191.39" y="731.42" width="38.91" height="1.7"/><polygon class="cls-8" points="208.36 738.02 202.31 741.76 202.31 747.82 214.4 747.82 214.4 741.76 208.36 738.02"/><polygon class="cls-8" points="233 738.02 224.98 741.76 224.98 747.82 241.02 747.82 241.02 741.76 233 738.02"/><polygon class="cls-8" points="182.96 738.02 174.95 741.76 174.95 747.82 190.98 747.82 190.98 741.76 182.96 738.02"/><line class="cls-8" x1="192.23" y1="741.74" x2="195.62" y2="741.74"/><line class="cls-8" x1="192.23" y1="743.57" x2="195.62" y2="743.57"/><line class="cls-8" x1="192.23" y1="745.67" x2="195.62" y2="745.67"/><line class="cls-8" x1="198.09" y1="741.74" x2="201.48" y2="741.74"/><line class="cls-8" x1="198.09" y1="743.57" x2="201.48" y2="743.57"/><line class="cls-8" x1="198.09" y1="745.67" x2="201.48" y2="745.67"/><line class="cls-8" x1="215" y1="741.71" x2="218.39" y2="741.71"/><line class="cls-8" x1="215" y1="743.55" x2="218.39" y2="743.55"/><line class="cls-8" x1="215" y1="745.64" x2="218.39" y2="745.64"/><line class="cls-8" x1="220.1" y1="741.71" x2="223.49" y2="741.71"/><line class="cls-8" x1="220.1" y1="743.55" x2="223.49" y2="743.55"/><line class="cls-8" x1="220.1" y1="745.64" x2="223.49" y2="745.64"/><line class="cls-8" x1="196.97" y1="747.76" x2="196.97" y2="737.15"/><line class="cls-8" x1="218.99" y1="747.76" x2="218.99" y2="737.15"/><g><circle class="cls-94" cx="182.96" cy="741.89" r="1.85"/><circle class="cls-84" cx="183.44" cy="741.22" r=".68"/></g><g><circle class="cls-94" cx="207.98" cy="741.89" r="1.85"/><circle class="cls-84" cx="208.46" cy="741.22" r=".68"/></g><g><circle class="cls-94" cx="233" cy="741.89" r="1.85"/><circle class="cls-84" cx="233.48" cy="741.22" r=".68"/></g><polygon class="cls-40" points="232.81 730.09 182.63 728.66 182.63 731.52 232.81 731.52 232.81 730.09"/></g><line class="cls-28" x1="388.31" y1="451.44" x2="390.29" y2="451.44"/><g><polygon class="cls-17" points="360.24 416.77 347.52 424.11 372.25 424.11 360.24 416.77"/><polyline class="cls-17" points="346.16 423.34 346.16 435.6 346.16 458.23 374.72 458.23 374.72 435.6 374.72 423.34"/><rect class="cls-23" x="362.18" y="427.19" width="4.35" height="3.77"/><rect class="cls-23" x="366.08" y="427.19" width="4.35" height="3.77"/><rect class="cls-23" x="350.99" y="427.19" width="4.35" height="3.77"/><rect class="cls-23" x="354.9" y="427.19" width="4.35" height="3.77"/><rect class="cls-21" x="354.53" y="447.77" width="11.25" height="2.05"/><rect class="cls-23" x="351.15" y="436.83" width="8.1" height="5.76"/><rect class="cls-23" x="356.11" y="449.82" width="8.1" height="8.42"/><rect class="cls-23" x="361.89" y="436.83" width="8.39" height="5.76"/><line class="cls-23" x1="354.9" y1="436.83" x2="354.9" y2="442.59"/><line class="cls-23" x1="366.08" y1="436.83" x2="366.08" y2="442.59"/><path class="cls-28" d="M374.08,424.11h-27.92v34.12h2.47v-10.47h23.62v10.47h2.47v-6.7h0v-27.43h-.64Zm-1.83,20.62h-23.62v-9.35h23.62v9.35Zm0-12.67h-23.62v-6.26h23.62v6.26Z"/><g class="cls-104"><polygon class="cls-17" points="360.36 460.3 346.98 466.99 373.74 466.99 360.36 460.3"/><line class="cls-28" x1="348.63" y1="424.11" x2="348.63" y2="443.08"/><line class="cls-28" x1="350.21" y1="444.73" x2="350.21" y2="447.77"/><line class="cls-28" x1="357.08" y1="444.73" x2="357.08" y2="447.77"/><line class="cls-28" x1="363.76" y1="444.73" x2="363.76" y2="447.77"/><line class="cls-28" x1="370.44" y1="444.73" x2="370.44" y2="447.77"/><line class="cls-28" x1="355.2" y1="424.11" x2="355.2" y2="443.08"/><line class="cls-28" x1="352.2" y1="424.11" x2="352.2" y2="443.08"/><line class="cls-28" x1="358.51" y1="424.11" x2="358.51" y2="443.08"/><line class="cls-28" x1="361.89" y1="424.11" x2="361.89" y2="443.08"/><line class="cls-28" x1="379.95" y1="425.81" x2="341.56" y2="425.81"/><line class="cls-28" x1="379.95" y1="432.06" x2="341.56" y2="432.06"/><line class="cls-28" x1="379.95" y1="430.17" x2="341.56" y2="430.17"/><line class="cls-28" x1="379.95" y1="437.57" x2="341.56" y2="437.57"/><line class="cls-28" x1="379.95" y1="428.43" x2="341.56" y2="428.43"/><line class="cls-28" x1="379.95" y1="435.38" x2="341.56" y2="435.38"/><line class="cls-28" x1="380.46" y1="442.16" x2="342.08" y2="442.16"/><line class="cls-28" x1="380.49" y1="439.87" x2="342.11" y2="439.87"/><line class="cls-28" x1="379.95" y1="444.73" x2="341.56" y2="444.73"/><line class="cls-28" x1="379.95" y1="447.77" x2="341.56" y2="447.77"/><line class="cls-28" x1="365.55" y1="424.11" x2="365.55" y2="443.08"/><line class="cls-28" x1="368.81" y1="424.11" x2="368.81" y2="443.08"/><line class="cls-28" x1="372.25" y1="424.11" x2="372.25" y2="443.08"/></g><line class="cls-28" x1="346.12" y1="450.46" x2="348.63" y2="450.46"/><line class="cls-28" x1="346.12" y1="453.16" x2="348.63" y2="453.16"/><line class="cls-28" x1="372.25" y1="450.46" x2="374.76" y2="450.46"/><line class="cls-28" x1="372.25" y1="453.16" x2="374.76" y2="453.16"/><polygon class="cls-35" points="381.72 427.59 360.24 413.6 338.74 428.04 342.77 428.04 360.24 416.77 377.28 427.59 381.72 427.59"/></g><g><rect class="cls-34" x="453.69" y="353.48" width="8.35" height=".75" transform="translate(-98.62 512.54) rotate(-53.61)"/><rect class="cls-34" x="449.03" y="353.48" width="8.35" height=".75" transform="translate(437.19 928.62) rotate(-126.39)"/><polygon class="cls-20" points="453.2 359.27 437.79 369.54 473.59 369.54 458.13 359.27 453.2 359.27"/><g><rect class="cls-38" x="443.32" y="371.36" width="25.31" height="20.81"/><rect class="cls-34" x="446.01" y="374.53" width="1.13" height="5.01" transform="translate(893.15 754.06) rotate(180)"/><rect class="cls-34" x="449" y="374.53" width="1.13" height="5.01" transform="translate(899.14 754.06) rotate(180)"/><rect class="cls-34" x="452.07" y="374.53" width="1.13" height="5.01" transform="translate(905.27 754.06) rotate(180)"/><rect class="cls-34" x="455.1" y="374.53" width="1.13" height="5.01" transform="translate(911.33 754.06) rotate(180)"/><rect class="cls-34" x="458.13" y="374.53" width="1.13" height="5.01" transform="translate(917.39 754.06) rotate(180)"/><rect class="cls-34" x="461.31" y="374.53" width="1.13" height="5.01" transform="translate(923.75 754.06) rotate(180)"/><rect class="cls-34" x="464.24" y="374.53" width="1.13" height="5.01" transform="translate(929.61 754.06) rotate(180)"/><path class="cls-34" d="M467.44,371.4h-24.33v20.77h1.2v-11.33h23.13v11.33h1.2v-20.77h-1.2Zm0,8.14h-23.13v-5.01h23.13v5.01Z"/></g><g><rect class="cls-34" x="470.15" y="392.39" width="1.2" height="13.61"/><rect class="cls-34" x="456.46" y="392.39" width="1.2" height="13.61"/><rect class="cls-34" x="442.39" y="392.39" width="1.2" height="13.61"/><rect class="cls-34" x="454.66" y="376.31" width="1.2" height="32.17" transform="translate(847.65 -62.87) rotate(90)"/><polygon class="cls-34" points="440.04 392.64 439.19 391.79 427.13 403.85 427.13 405.62 440.04 392.64"/><polygon class="cls-34" points="439.79 389.4 439.19 388.8 427.1 400.89 427.1 402.14 439.79 389.4"/><polygon class="cls-34" points="439.79 386.25 439.19 385.65 426.45 398.37 427.1 398.59 439.79 386.25"/><rect class="cls-34" x="454.66" y="373.31" width="1.2" height="32.17" transform="translate(844.66 -65.86) rotate(90)"/><rect class="cls-34" x="454.66" y="370.16" width="1.2" height="32.17" transform="translate(841.5 -69.01) rotate(90)"/><rect class="cls-34" x="439.17" y="385.65" width=".86" height="7.34" transform="translate(879.21 778.64) rotate(180)"/><polygon class="cls-34" points="433.01 399.7 433.95 398.76 433.87 390.96 433.01 391.8 433.01 399.7"/><polygon class="cls-34" points="426.23 405.93 427.1 405.93 427.1 397.73 426.23 398.59 426.23 405.93"/><rect class="cls-34" x="444.04" y="385.65" width=".86" height="7.34" transform="translate(888.95 778.64) rotate(180)"/><rect class="cls-34" x="450.11" y="385.73" width=".86" height="7.34" transform="translate(901.07 778.8) rotate(180)"/><rect class="cls-34" x="455.87" y="385.73" width=".86" height="7.34" transform="translate(912.6 778.8) rotate(180)"/><rect class="cls-34" x="461.07" y="385.65" width=".86" height="7.34" transform="translate(922.99 778.64) rotate(180)"/><rect class="cls-34" x="466.7" y="385.69" width=".86" height="7.34" transform="translate(934.26 778.72) rotate(180)"/><rect class="cls-34" x="470.48" y="385.65" width=".86" height="7.34" transform="translate(941.83 778.64) rotate(180)"/><rect class="cls-41" x="421.96" y="404.13" width="49.38" height="2.99"/></g><rect class="cls-34" x="429.86" y="371.36" width="1.2" height="34.64"/><polygon class="cls-22" points="468.63 369.68 443.32 369.68 440.99 371.36 470.48 371.36 468.63 369.68"/><polygon class="cls-22" points="464.24 365.79 447.14 365.79 440.99 369.68 470.48 369.68 464.24 365.79"/><rect class="cls-34" x="427.05" y="369.73" width="10.87" height="1.22" transform="translate(-79.45 121.11) rotate(-14.62)"/><polygon class="cls-34" points="455.1 359.27 437.87 369.53 437.26 368.48 453.2 359.27 455.1 359.27"/><polygon class="cls-34" points="456.23 359.27 473.46 369.53 475.7 369.42 458.13 359.27 456.23 359.27"/><path class="cls-34" d="M457.27,356.59h0c0-.89-.72-1.61-1.61-1.61s-1.61,.72-1.61,1.61h0l-.86,2.65,2.46,1.79,2.46-1.79-.86-2.65Z"/><polygon class="cls-25" points="455.67 362.21 451.66 364.62 459.67 364.62 455.67 362.21"/><rect x="453.54" y="363.92" width=".49" height="1.53"/><rect x="454.88" y="363.92" width=".49" height="1.53"/><rect x="456.23" y="363.92" width=".49" height="1.53"/><rect x="457.58" y="363.92" width=".49" height="1.53"/></g><g><rect class="cls-18" x="520.56" y="720.51" width="1.16" height="8.69"/><rect class="cls-14" x="467.74" y="688.12" width="47.46" height="18.62"/><polygon class="cls-14" points="521.72 706.73 489.43 706.75 489.43 695.2 492.55 695.2 521.72 706.73"/><polygon class="cls-14" points="515.2 706.68 487.35 706.73 487.35 699.35 489.64 699.35 515.2 706.68"/><rect class="cls-14" x="465.32" y="720.03" width="25.14" height="9.17"/><rect class="cls-36" x="465.32" y="712.54" width="25.14" height="7.97"/><rect class="cls-36" x="490.45" y="713.54" width="31.27" height="6.97"/><rect class="cls-14" x="465.32" y="709.55" width="25.14" height="3.99"/><rect class="cls-14" x="490.45" y="709.55" width="31.27" height="3.99"/><rect class="cls-29" x="490.45" y="720.51" width="30.11" height="8.69"/><polygon class="cls-14" points="531.98 729.2 521.72 718.92 519.59 718.92 490.45 718.92 490.45 720.51 521.17 720.51 529.87 729.2 531.98 729.2"/><polygon class="cls-33" points="521.72 706.73 465.08 706.73 463.24 709.57 523.65 709.57 521.72 706.73"/><polygon class="cls-33" points="489.64 699.35 465.86 699.35 465.08 706.75 490.45 706.75 489.64 699.35"/><polygon class="cls-33" points="489.64 695.2 468.08 695.2 465.86 699.35 489.64 699.35 489.64 695.2"/><rect class="cls-37" x="471.63" y="723.15" width="10.47" height="6.05"/><rect class="cls-37" x="465.32" y="723.15" width="6.32" height="6.05"/><rect class="cls-37" x="469.91" y="688.12" width="4.69" height="4.49"/><rect class="cls-37" x="479.76" y="688.12" width="4.69" height="4.49"/><rect class="cls-37" x="489.12" y="688.12" width="4.69" height="4.49"/><rect class="cls-37" x="498.58" y="688.12" width="4.69" height="4.49"/><rect class="cls-37" x="508.05" y="688.12" width="4.69" height="4.49"/><rect class="cls-33" x="467.74" y="686.72" width="47.46" height="1.4"/><rect class="cls-18" x="493.81" y="720.51" width="1.16" height="8.69"/><rect class="cls-18" x="500.36" y="720.51" width="1.16" height="8.69"/><rect class="cls-18" x="506.91" y="720.51" width="1.16" height="8.69"/><rect class="cls-18" x="514.04" y="720.51" width="1.16" height="8.69"/></g><rect class="cls-86" x="210.73" y="604.83" width="94.74" height="21.07"/><text class="cls-75" transform="translate(216.09 617.32)"><tspan class="cls-107" x="0" y="0">日</tspan><tspan x="11.65" y="0">本郷土玩具館</tspan></text><g><rect class="cls-86" x="423.09" y="410.78" width="57.75" height="21.03"/><text class="cls-74" transform="translate(439.51 430.18)"><tspan x="0" y="0">Achi Shrine</tspan></text><rect class="cls-100" x="423.09" y="410.78" width="1.9" height="21.03"/><rect class="cls-100" x="478.94" y="410.78" width="1.9" height="21.07"/><text class="cls-75" transform="translate(428.23 423.27)"><tspan x="0" y="0">阿智神社</tspan></text></g><g><rect class="cls-86" x="229.79" y="345.19" width="108.53" height="21.03"/><text class="cls-75" transform="translate(234.93 357.88)"><tspan class="cls-109" x="0" y="0">語</tspan><tspan class="cls-108" x="11.38" y="0">ら</tspan><tspan class="cls-105" x="22.57" y="0">い</tspan><tspan x="34.25" y="0">座 大原本邸</tspan></text><text class="cls-74" transform="translate(254.07 364.58)"><tspan x="0" y="0">Oharaza House Kantalyzer</tspan></text><rect class="cls-100" x="336.42" y="345.19" width="1.9" height="21.03"/><rect class="cls-100" x="229.48" y="345.19" width="1.9" height="21.03"/></g><rect class="cls-86" x="195.85" y="467.77" width="71.47" height="21.07"/><text class="cls-75" transform="translate(201.58 480.42)"><tspan x="0" y="0">大原美術館</tspan></text><text class="cls-74" transform="translate(203.42 487.16)"><tspan x="0" y="0">Ohara Museumu Of Art</tspan></text><rect class="cls-100" x="265.42" y="467.79" width="1.9" height="21.03"/><rect class="cls-100" x="195.76" y="467.79" width="1.9" height="21.03"/><g><rect class="cls-86" x="330.26" y="540.06" width="102.37" height="21.03"/><text class="cls-75" transform="translate(350.76 552.44)"><tspan x="0" y="0">倉敷民藝館</tspan></text><text class="cls-74" transform="translate(342.68 559.34)"><tspan x="0" y="0">Kurashiki Museumu Of For</tspan><tspan class="cls-1" x="64.13" y="0">k</tspan><tspan class="cls-102" x="65.86" y="0">・</tspan><tspan x="70.23" y="0">Craft</tspan></text><rect class="cls-100" x="431.05" y="539.95" width="1.9" height="21.03"/><rect class="cls-100" x="329.76" y="539.95" width="1.9" height="21.03"/></g><g><rect class="cls-86" x="324.1" y="463.01" width="102.37" height="21.03"/><text class="cls-75" transform="translate(345.28 475.39)"><tspan x="0" y="0">倉敷考古館</tspan></text><text class="cls-74" transform="translate(332.61 481.77)"><tspan x="0" y="0">Kurashiki Archaeological Museumu</tspan></text><rect class="cls-100" x="424.56" y="463.01" width="1.9" height="21.03"/><rect class="cls-100" x="323.98" y="463.01" width="1.9" height="21.03"/></g><g><g><rect class="cls-86" x="10.22" y="501.45" width="120.53" height="21.03"/><text class="cls-75" transform="translate(16.68 513.79)"><tspan x="0" y="0">倉敷市</tspan><tspan class="cls-106" x="36" y="0">立中</tspan><tspan x="59.62" y="0">央図書館</tspan></text><rect class="cls-100" x="128.91" y="501.45" width="1.9" height="21.03"/><rect class="cls-100" x="10.22" y="501.45" width="1.9" height="21.03"/></g><text class="cls-74" transform="translate(38.51 520.84)"><tspan x="0" y="0">Kurashiki Centrail Library</tspan></text></g><text class="cls-74" transform="translate(224.2 624.21)"><tspan x="0" y="0">Japanese Fork </tspan><tspan class="cls-76" x="35.77" y="0">T</tspan><tspan x="38.6" y="0">oy Museumu</tspan></text><rect class="cls-100" x="210.73" y="604.85" width="1.9" height="21.03"/><rect class="cls-100" x="303.76" y="604.85" width="1.9" height="21.03"/><g><rect class="cls-86" x="56.28" y="604.83" width="94.74" height="21.07"/><text class="cls-75" transform="translate(62.17 617.32)"><tspan x="0" y="0">倉敷市立美術館</tspan></text><rect class="cls-100" x="149.18" y="604.85" width="1.9" height="21.03"/><rect class="cls-100" x="56.28" y="604.85" width="1.9" height="21.03"/><text class="cls-74" transform="translate(69.52 624.22)"><tspan x="0" y="0">Kurashiki Sity Art Museumu</tspan></text></g><g><rect class="cls-86" x="185.04" y="699.39" width="84.45" height="21.07"/><text class="cls-75" transform="translate(191.26 711.88)"><tspan x="0" y="0">倉敷市芸文館</tspan></text><rect class="cls-100" x="185.01" y="699.41" width="1.9" height="21.03"/><rect class="cls-100" x="268.53" y="699.41" width="1.9" height="21.03"/><text class="cls-74" transform="translate(206.22 718.78)"><tspan x="0" y="0">Geibunkan Hall</tspan></text></g><g><rect class="cls-86" x="449.41" y="733.49" width="84.45" height="21.03"/><text class="cls-75" transform="translate(455.63 745.95)"><tspan x="0" y="0">倉敷市民会館</tspan></text><text class="cls-74" transform="translate(471.57 752.88)"><tspan x="0" y="0">Kurasiki Civic Hall</tspan></text><rect class="cls-100" x="532.9" y="733.49" width="1.9" height="21.07"/><rect class="cls-100" x="449.41" y="733.49" width="1.9" height="21.07"/></g></g><g><path class="cls-46" d="M142.06,415.23c0-6.42,5.21-11.63,11.63-11.63s11.63,5.21,11.63,11.63-11.63,26.3-11.63,26.3c0,0-11.63-19.88-11.63-26.3Z"/><circle class="cls-87" cx="153.68" cy="415.47" r="5.06"/></g><g><g><rect class="cls-97" x="118.81" y="447.48" width="69.74" height="16.24"/><rect class="cls-85" x="120.89" y="447.48" width="65.7" height="16.24"/></g><text class="cls-98" transform="translate(129.77 459.53)"><tspan x="0" y="0">集合場所</tspan></text></g></g></g></svg>