<svg xmlns="http://www.w3.org/2000/svg" viewBox="0 0 1472.68 994.21"><defs><style>.cls-1{fill:#4e3427;}.cls-2{fill:#ffeec0;}</style></defs><g id="レイヤー_2" data-name="レイヤー 2"><g id="レイヤー_2-2" data-name="レイヤー 2"><path class="cls-1" d="M433.46,490.74a207.93,207.93,0,0,1-6.35,23.5,503.38,503.38,0,0,1-25.22,63.53,698.91,698.91,0,0,1-53.37,93.05,865.45,865.45,0,0,1-90.78,112.11c-31.19,32.73-64.32,63.76-97.76,94.17-28.79,26.19-58.1,51.95-88.75,75.95-10.8,8.46-21.78,16.78-33.32,24.21a128.12,128.12,0,0,1-12.27,7.14,49.56,49.56,0,0,1-4.83,2.14c-.65.25-1.33.43-2,.67-1,.34,1.2-.22,0,0-.3,0-.6.13-.91.18s-.56.05-.84.1c-1.05.21,1.9,0,.87,0-.69,0-1.54-.21,1.57.12-.81-.08-1.55-.34,1.93.32a39.74,39.74,0,0,1,6.52,1.91c2.79,1.13,2.14,1,1.53.7,2.34,1.29,1.5,1,1.09.65s.57,1,.44.43a6.28,6.28,0,0,0-.57-1c-.25-.45,0,.72,0,0,0-.19-.06-.39-.07-.58a8.39,8.39,0,0,1,.07-1.66,20.44,20.44,0,0,1,1-4.14,74.91,74.91,0,0,1,6-12.29c3.72-6.51,7.87-12.75,12.1-18.93a625.53,625.53,0,0,1,45.14-59.11c12.5-14.3,25.94-27.92,40.94-39.62,11.34-8.84,23.69-16.67,37.2-21.75a72.66,72.66,0,0,1,16.53-4.4c1.33-.21,2.66-.37,4-.51.72-.07,1.44-.13,2.17-.18l1.07-.06c1.33-.1-1.52,0-.2,0s2.6-.05,3.91,0c.7,0,1.4,0,2.11.08.35,0,.7.06,1.05.06-2.55,0-1.29-.1-.66,0q1.91.2,3.81.45c1.52.19-2.51-.44-1-.16.34.07.68.12,1,.18l1.7.34c2.17.42-2.92-.71-.23-.05.62.15,1.24.32,1.85.48,2.45.64-2.52-.8-.38-.11.67.21,1.34.42,2,.65a36.56,36.56,0,0,0,7.52,1.7c.88.1,3.88.52,4.8-.22,2.26-1.81-5.4-4.36-6-4.57-13.45-4.57-27.93-6.69-42.09-5-12.9,1.52-25.32,6.21-36.64,12.47-14.54,8-27.61,18.59-39.65,30-16,15.09-30.32,31.82-43.76,49.16Q43.53,928.48,32.24,945c-4.72,6.84-9.39,13.74-13.57,20.92a81.68,81.68,0,0,0-6.39,12.88c-.89,2.47-1.8,5.32-.92,7.93a5.1,5.1,0,0,0,2,2.51c4,3,9.78,4.21,14.59,4.84a23,23,0,0,0,11.45-1.51c9.06-3.44,17.35-9.31,25.24-14.8,28.76-20,55.51-43,81.83-66.07q49.85-43.64,97.2-90c36.08-35.25,70.22-72.26,100.57-112.6a748.12,748.12,0,0,0,65-102A564.1,564.1,0,0,0,442,532.7a297.11,297.11,0,0,0,10.52-35.4c.11-.51.23-1,.33-1.55.47-2.5-7.54-4.42-9.09-4.8-1.22-.3-9.82-2.59-10.28-.21Z"/><path class="cls-1" d="M368.26,713.8l-.33-.35-.36-.39c-.06-.08-.13-.15-.19-.22-.88-1,1.69,1.93,1.22,1.39-1-1.12-1.9-2.24-2.8-3.41-.57-.74-1.13-1.5-1.66-2.26-.14-.2-.27-.4-.41-.59-.7-1,1.83,2.77,1,1.46q-.41-.61-.78-1.23c-.72-1.17-2.31-4.56-.35-.4-.2-.43-.4-.85-.59-1.28-.08-.19-.16-.38-.23-.57s-.09-.21-.13-.31c-.29-.76-.44-1.8.58,1.66-.14-.47-.28-.94-.41-1.41-.36-1.37.26,1.51.23,1.27s-.07-.45-.09-.67,0-.49,0-.74c-.06-.84-.18,2.28,0,1a10.71,10.71,0,0,1,.24-1.28l-.44,1.43a5.44,5.44,0,0,1,1.21-2.11l-.88.93a8.66,8.66,0,0,1,4.24-2.22l-1.24.32a26,26,0,0,1,11-.11l-1.46-.32a16.44,16.44,0,0,1,3.22,1.07l.73.34.36.19c.61.29-1.93-1.12-1-.55.52.32,1,.63,1.55,1s1,.75,1.52,1.14c.93.74-2-1.75-.84-.7l.74.68c.5.47,1,1,1.45,1.46l.39.42c.85.93-1.26-1.44-1.18-1.33.23.28.48.55.71.83.47.58.93,1.17,1.37,1.77l.68.94.3.45c.64.91-1.79-2.72-1-1.53.9,1.39,1.75,2.8,2.53,4.26.19.35.38.7.56,1,.68,1.3-1.3-2.6-.79-1.56.11.21.21.42.32.64.39.81.77,1.63,1.13,2.45q1.13,2.55,2.08,5.16l.26.74c.47,1.28-.7-2-.5-1.44s.32.94.47,1.41c.32,1,.62,1.94.91,2.91.6,2,1.13,4.06,1.61,6.11.25,1.06.49,2.13.71,3.19l.3,1.51c0,.17.06.34.1.5.07.35-.43-2.29-.28-1.47.05.29.11.59.16.89q.6,3.39,1,6.81c.6,4.76.95,9.54,1.09,14.33,0,1.25,0,2.51.06,3.76,0,.63-.06,1.28,0,1.9a9.59,9.59,0,0,0,0-1.08v.44c0,.34,0,.69,0,1q-.09,3.89-.36,7.77a160.14,160.14,0,0,1-5.57,32c-.38,1.37-.78,2.72-1.2,4.07l.44-1.42a148.14,148.14,0,0,1-23.32,45.54,146.13,146.13,0,0,1-9.94,11.72l.88-.93-.52.54a4.64,4.64,0,0,0-1.34,4.18,16.61,16.61,0,0,0,2.4,6.79,16.27,16.27,0,0,0,4.74,5.42c1,.6,3.24,2,4.3.88a149.28,149.28,0,0,0,22-29.39,157,157,0,0,0,13.48-32,163.64,163.64,0,0,0,6.21-61.45,138.56,138.56,0,0,0-5-26.94,97.3,97.3,0,0,0-10.22-23.79c-3.94-6.36-8.84-12.78-15.29-16.77a25.14,25.14,0,0,0-9-3.55,27,27,0,0,0-12.9.78c-8.84,2.93-6.2,14.25-3.24,20.58a76.27,76.27,0,0,0,12.86,18.68c.21.24.43.48.66.71,1,1.07,3.06,2.63,4.7,2.58a2.76,2.76,0,0,0,2.56-2.67c.56-4.59-2.46-9.49-5.47-12.65Z"/><path class="cls-1" d="M417.31,662a11.11,11.11,0,0,1-2.21-.89l2.17,1.16a9.08,9.08,0,0,1-1.81-1.27l1.77,1.62a7,7,0,0,1-1.19-1.42l1.25,2a6.66,6.66,0,0,1-.77-1.75l.64,2.33a7,7,0,0,1-.23-2l-.07,2.42a7.47,7.47,0,0,1,.37-2.09l-.75,2.25a8,8,0,0,1,1-2l-1.34,2a8.86,8.86,0,0,1,1.34-1.53l-1.84,1.64a7.51,7.51,0,0,1,1.55-1.07l-2.27,1.18a8.43,8.43,0,0,1,1.67-.63l-2.6.64a7.41,7.41,0,0,1,1.81-.22H413.1a9,9,0,0,1,2.07.27l-2.48-.62a10.25,10.25,0,0,1,2.39.94l-2.18-1.16a15,15,0,0,1,3.11,2.25l-1.76-1.62a27.47,27.47,0,0,1,4.61,5.74l-1.25-2a63.41,63.41,0,0,1,6.13,13.74c.58,1.77,1.12,3.57,1.61,5.38l-.63-2.33a190.47,190.47,0,0,1,5,26.38c1.59,12.55,2.37,25.19,2.74,37.83.27,9,.32,18.11.22,27.17,0,2.21,2,4.77,3.66,6a10.81,10.81,0,0,0,14-1.67l1.34-2a8.23,8.23,0,0,0,.81-4.66c.17-14.56,0-29.14-1-43.68A302.52,302.52,0,0,0,448,698.25,159.36,159.36,0,0,0,442,674a67.94,67.94,0,0,0-7.54-15.55,28.22,28.22,0,0,0-8.25-8.43,21.22,21.22,0,0,0-13.12-3.41,18.38,18.38,0,0,0-11.21,5.36,16.87,16.87,0,0,0-4.53,8.25,14.75,14.75,0,0,0,1,9.35c1.89,4,5.2,6.64,9.14,8.45a14.22,14.22,0,0,0,1.65.61,11.8,11.8,0,0,0,7.76,0,10.17,10.17,0,0,0,5.45-4.81,8.32,8.32,0,0,0,.18-7,9.14,9.14,0,0,0-5.2-4.79Z"/><path class="cls-1" d="M484,420.62c-.3,2-.64,4-1,5.94q-1.32,7.72-2.86,15.4c-1.41,7.12-2.93,14.2-4.61,21.26-1.86,7.88-3.91,15.73-6.24,23.49a225.05,225.05,0,0,1-7.7,22c-.36.84-.72,1.69-1.09,2.52l.44-1c-2.74,6.21-5.9,12.55-10.46,17.65a24.9,24.9,0,0,1-3.26,3.07l1.08-.83A17.41,17.41,0,0,1,445.2,532c-1.16.56,2.06-.72.67-.27l-.75.23c-1.51.44,2.48-.42,1.1-.23-.52.07-1.84.18.33,0s.86-.09.33-.07c4.07-.16,2.81.09,1.73,0s3.24.51,2.14.28l-.45-.08c-1.24-.21,2.81.76,1.79.44l-.39-.11c-.84-.25-2-1,1,.42-.24-.1-.48-.22-.71-.31,1.52.61,1.51,1.16.69.29l.93,1a3.59,3.59,0,0,1-.77-1.47l.28,1c-.57-2.19.25-4.61,1.13-6.61l-.44,1c2.94-6.58,8.42-12,14-16.34l-1.07.84a80.46,80.46,0,0,1,12.75-8c1.24-.64,2.5-1.24,3.76-1.82l2-.87.94-.4.55-.22c.83-.35-.75.28-.8.31a11,11,0,0,1,2.11-.81c.77-.29,1.54-.57,2.32-.84,1.5-.52,3-1,4.54-1.47s3.31-.95,5-1.37l2.34-.57,1.36-.3.51-.12c.94-.2-2.1.44-.85.19,3.7-.74,7.42-1.36,11.17-1.8,1-.12,1.94-.23,2.91-.32l1.39-.13.59-.06c1.62-.14-2,.16-1,.08,2.13-.15,4.26-.28,6.4-.35,4.71-.18,9.4-.37,14.09-.86,13.56-1.41,27.28-5.17,39-12.25A66.66,66.66,0,0,0,597,463a52.16,52.16,0,0,0,4.07-6.41,19.42,19.42,0,0,0,1.95-4.22c0-.05,0-.1.05-.15.45-1.24-2.08-2.65-2.7-3a19.22,19.22,0,0,0-6.95-1.69,18.66,18.66,0,0,0-7.14.56c-1.41.49-2.61,1-3.14,2.48-.13.35-.27.69-.42,1l.44-1a51.6,51.6,0,0,1-10.53,15,65.09,65.09,0,0,1-6.33,5.63l1.08-.84a70.28,70.28,0,0,1-15.32,9l-1.19.5c-.73.3,1.54-.61.81-.33l-.69.27c-.84.32-1.68.63-2.53.93q-2.52.87-5.08,1.59c-.95.26-1.9.51-2.86.74l-1.3.31-.66.15c-1.39.31,2.13-.43.72-.16-2,.41-4.08.77-6.13,1.06-1,.15-2.1.28-3.15.4l-1.52.16c-.82.08-3.3.21.09,0-2.37.15-4.74.27-7.11.34-5.42.15-10.84.54-16.22,1.17A138.12,138.12,0,0,0,479.42,492c-12.48,4-24.47,10-34.26,18.76a47.89,47.89,0,0,0-8.22,9.36,23.56,23.56,0,0,0-3.79,8.66,6.86,6.86,0,0,0,2.28,6.66c2.32,2,5.74,2.81,8.64,3.44a33.17,33.17,0,0,0,11.24.44,22.26,22.26,0,0,0,11.8-5.37,36.22,36.22,0,0,0,6.8-8.29c5.3-8.42,8.95-17.94,12.15-27.32,3.57-10.47,6.47-21.16,9.05-31.9,2.26-9.37,4.25-18.8,6-28.27,1-5.06,1.87-10.12,2.68-15.21,0-.23.07-.46.11-.69.2-1.36-1.84-2.52-2.71-3a19,19,0,0,0-7-1.69,18.66,18.66,0,0,0-7.14.56c-1.23.42-2.91,1-3.14,2.48Z"/><path class="cls-1" d="M514.07,560.05a48.47,48.47,0,0,1,7.41-2l-.57.1a38,38,0,0,1,8-.54,53.37,53.37,0,0,1,7.85,1.21q8,1.56,16,2.48a195.4,195.4,0,0,0,28.31,1.16,171.61,171.61,0,0,0,37.4-5.11c2.09-.54,4.19-1.1,6.23-1.83.67-.24-1.63-3.09-1.42-2.82a39.53,39.53,0,0,0-5-5,39.08,39.08,0,0,0-5.64-4.3c-.82-.49-2-1.4-3-1a89.65,89.65,0,0,1-10.91,2.95q-3.36.74-6.74,1.32l.56-.1a191.76,191.76,0,0,1-69.47-1,39.38,39.38,0,0,0-24.09,1.36c-.68.24,1.63,3.09,1.41,2.82a39,39,0,0,0,5,5,38.45,38.45,0,0,0,5.63,4.3c.82.49,2,1.4,3,1Z"/><path class="cls-1" d="M553,482.68c-1.3,4.41-2.72,8.8-4.15,13.17q-5.42,16.47-11.59,32.66c-5.4,14.16-11.23,28.16-17.71,41.86A319.62,319.62,0,0,1,497,611.13c-7.22,10.83-15.49,21.57-26,29.37-1.11.83-2.25,1.61-3.42,2.35l.78-.49a37,37,0,0,1-18.35,6.1l1.26-.05a25.11,25.11,0,0,1-4.82-.34c-.74-.12,1.72.44.8.18l-.46-.13c-.43-.12-1.74-.61-.14,0s.3.06-.07-.07,2.48,1.31,1.56.79c-.42-.23-1.2-.73.57.39,2.93,1.85-1.46-1.19,1.31.91,1.67,1.26.94.72.57.41-.8-.68,1.51,1.42,1.32,1.2a3.15,3.15,0,0,0-.36-.37c-.55-.5,1.41,1.69,1,1.09-.19-.24-.39-.48-.58-.73-.79-1,.8,1.4.29.44-.13-.25-.27-.49-.4-.75a14.74,14.74,0,0,1-.79-1.93l.4,1.2c-1.55-4.82-1.06-10.09-.08-15l-.18.89a82.6,82.6,0,0,1,6-17.62c.55-1.19-.48-2.62-1.14-3.5a22.71,22.71,0,0,0-5.29-4.78,22.17,22.17,0,0,0-6.34-3.26c-.85-.22-3.16-1-3.68.18A80.66,80.66,0,0,0,434.19,628c-.89,5.36-.88,11,1.47,16a26.1,26.1,0,0,0,7.5,8.91c4,3.18,8.64,6,13.66,7.2a31.86,31.86,0,0,0,16.33-.62c7.13-2.15,13.53-6.55,19.05-11.45a118.94,118.94,0,0,0,17.37-19.84,245.07,245.07,0,0,0,15.83-25.5c5.06-9.25,9.7-18.74,14.05-28.35q6.27-13.86,11.8-28,4.82-12.27,9.18-24.7,3.2-9.08,6.14-18.24c.95-2.95,1.92-5.91,2.78-8.89,0-.13.07-.26.11-.39.4-1.35-.33-2.43-1.14-3.51a22.71,22.71,0,0,0-5.29-4.78,21.89,21.89,0,0,0-6.34-3.25c-.74-.2-3.34-1-3.68.17Z"/><path class="cls-1" d="M552.48,606.07c-.58,5.78-1.46,11.54-2.44,17.26a225.86,225.86,0,0,1-8.48,35,90.21,90.21,0,0,1-8.11,18.07l.67-1.08a47.67,47.67,0,0,1-3,4.33c-.5.64-1,1.26-1.57,1.86-.27.3-.55.6-.84.89s-.33.29-.46.45c.06-.08,1.49-1.37.7-.67-.56.49-1.12,1-1.71,1.42-.16.12-.33.23-.49.36s2.16-1.44,1.15-.81l-.87.54c-1.11.67,1.68-.89,1.54-.83s-.34.18-.52.26c-1.81.88,2.59-1,1.33-.55-1,.36-2.45.56,1.45-.45l-.46.14c-.8.22-2.13.47,1.56-.34a32.27,32.27,0,0,0-7.33,2.4c-1.56.77-4,2-5.06,3.52-.59.82-1.3,2,0,2.71s3.57.53,5,.22c9.94-2.19,19-7.13,25-15.48,4.57-6.34,7.77-13.6,10.34-20.94,4.94-14.07,7.91-28.86,10.07-43.6.48-3.27.93-6.55,1.26-9.83.13-1.33-.53-1.76-1.83-2a14.64,14.64,0,0,0-6.13.7,26.78,26.78,0,0,0-7.09,3l-1.71,1.19a5.76,5.76,0,0,0-1.9,2.26Z"/><path class="cls-1" d="M573.12,648.05c-.61,5.48-1.49,10.94-2.51,16.36-.87,4.61-1.87,9.2-3.17,13.71a45.07,45.07,0,0,1-4.4,11c-1,1.6-2.37,3.45-4.28,4l.52-.09h0l15.31,12.31c.1-.27,1.26-.65,1.5-.76,1.33-.64,2.69-1.26,4-1.85a118.77,118.77,0,0,1,12.7-4.74,71.14,71.14,0,0,1,8.38-2.06l-.52.09a30.9,30.9,0,0,1,9.4-.45,15.06,15.06,0,0,1,2,.4l.48.14c.16,0-1.13-.43-.43-.14l.87.37c.72.29-1.66-.89-.89-.45s-2-1.21-1.24-.76c.87.55-2.39-1.63-1.55-1a50.58,50.58,0,0,1-5.32-4.26c.69.62-1.73-1.77-1-1,.2.22-1.23-1.52-.68-.76l.24.31c.52.61-.41-.76-.21-.35a12.54,12.54,0,0,1,1.36,4.56l0-.53a22.27,22.27,0,0,1-.49,6.09A91.92,91.92,0,0,1,600,709.05a179.37,179.37,0,0,1-9.63,22.63,256.11,256.11,0,0,1-19.93,33c-1.44,2-2.89,4-4.43,6-.44.56,1.66,2.59,1.68,2.62A45.46,45.46,0,0,0,573,778a44.85,44.85,0,0,0,5.87,4c.48.25,2.48,1.56,2.95,1a219.2,219.2,0,0,0,14.34-21c9.09-14.86,17.07-30.72,21.82-47.53,1.24-4.38,2.53-9.6.65-14-1.41-3.31-4.48-5.89-7.15-8.13-4-3.35-8.49-6.83-13.55-8.4a24.06,24.06,0,0,0-10.58-.36,73.59,73.59,0,0,0-12.4,3c-3.52,1.16-7,2.5-10.39,4-1.19.51-2.38,1-3.55,1.6a9.18,9.18,0,0,0-2,1c0,.05-.24.08-.26.15-.27.76,1.41,2.33,1.68,2.62a47.41,47.41,0,0,0,4.3,3.83,54.26,54.26,0,0,0,5.15,3.76,16.43,16.43,0,0,0,4.18,2.11c.34.09,1-.28,1.24-.43a7.83,7.83,0,0,0,2.66-2.33c2.28-3,3.57-6.79,4.69-10.35a164.8,164.8,0,0,0,5.48-25.94c.3-2.05.59-4.11.82-6.17.1-.92-1.19-2.1-1.68-2.62A58.17,58.17,0,0,0,576.08,649c-.27-.14-2.9-1.53-3-1Z"/><path class="cls-1" d="M673.8,421.73a78.06,78.06,0,0,0,5.27,9.73c3.39,5.35,7.59,10.71,12.79,14.39,3.59,2.55,7.39,4.78,11.79,5.63A25,25,0,0,0,718.56,450c6.49-2.79,10-9.41,11.27-16.05,1-5.19.52-10.92,2.52-15.87l-.91,2.2a8.12,8.12,0,0,1,1.09-1.92l-1.48,1.82a5.69,5.69,0,0,1,1.06-1l-2,1.37a5.39,5.39,0,0,1,1.19-.62l-2.29.86a6.9,6.9,0,0,1,1.27-.3l-2.53.3a9.4,9.4,0,0,1,2.12,0l-2.66-.33a74.15,74.15,0,0,1,10.54,2.3c2.46.71,4.9,1.56,7.41,2.07,6.29,1.27,13.53,1,19.35-2a37,37,0,0,0,7.69-5.74c2.71-2.47,5.27-5.11,7.78-7.79,6.43-6.86,12.51-14,18.5-21.28s12.12-14.86,18.05-22.4c2.78-3.55,5.63-7.06,8.3-10.7l.12-.16-18.51-7c-3,9-6.37,17.9-9.81,26.75q-2.71,7-5.57,13.91l.91-2.2c-3.87,9.36-7.94,18.64-12.34,27.76a260.78,260.78,0,0,1-14,25.78,112.83,112.83,0,0,1-8.15,11.51l1.49-1.81a63.71,63.71,0,0,1-4.27,4.73,8.42,8.42,0,0,0-2.61,6.4,9.3,9.3,0,0,0,3.2,6.24c3.83,3.12,10.25,4,14,.18,6.54-6.5,11.78-14.35,16.46-22.26A308,308,0,0,0,800.22,417c4.67-10.09,9-20.34,13.11-30.66q4.56-11.37,8.75-22.89c1.29-3.55,2.69-7.11,3.79-10.72,0-.05,0-.1,0-.15a8.42,8.42,0,0,0-1.34-6.79,10.84,10.84,0,0,0-5-3.74,9.92,9.92,0,0,0-12.17,3.55c-4.73,6.2-9.56,12.33-14.43,18.43q-3.71,4.65-7.48,9.25L787,371.5c-8.78,10.73-17.65,21.64-27.68,31.25a50.87,50.87,0,0,1-5.7,4.87l1.94-1.37a11.9,11.9,0,0,1-2.5,1.43l2.29-.87a21.53,21.53,0,0,1-4.69,1.06l2.53-.29a20.09,20.09,0,0,1-4.52,0l2.66.33c-4.07-.5-7.94-2.07-11.89-3.09-6.18-1.59-12.88-3.15-18.95-.42-7.51,3.37-8.59,11.75-9.31,18.94a37.7,37.7,0,0,1-2.06,10.48l.92-2.2a13.4,13.4,0,0,1-1.91,3.27l1.48-1.82a10,10,0,0,1-1.88,1.74l1.95-1.37a10.77,10.77,0,0,1-2,1.08l2.29-.87a13.22,13.22,0,0,1-3,.73l2.54-.3a14.44,14.44,0,0,1-3.22,0l2.65.33a16.12,16.12,0,0,1-3.54-.89l2.51.94a21.43,21.43,0,0,1-4.18-2.21l2.11,1.44a33.69,33.69,0,0,1-6-5.34l1.63,1.83a62.69,62.69,0,0,1-8.79-13.08l1.09,2.11c-.35-.67-.69-1.35-1-2a10.63,10.63,0,0,0-4.83-5.39,11.29,11.29,0,0,0-7.7-1,9.16,9.16,0,0,0-5.73,4.05,8,8,0,0,0-.65,6.88Z"/><path class="cls-1" d="M666.29,564.69a35.42,35.42,0,0,1,1.46-7c1.19-3.86,3.08-7.94,6.58-10.23l-.67.43a9.11,9.11,0,0,1,3.16-1.26c.25,0,.5-.06.75-.11.78-.14-1-.09-.62,0s1.6.26.12,0c-1.31-.28-.63-.14-.32,0,.83.24-2.43-.88-1.39-.49.75.28,1.81.94-1.61-.75.85.42,1.65,1.17-1.67-1l.4.24c.9.57-2.71-1.85-1.61-1.06l.48.34c.74.52-2.35-1.87-1.21-.92.34.27.67.56,1,.84.89.77-.88-.82-.94-.88l.58.56c.75.73,1.46,1.49,2.16,2.26l1,1.12.53.63c.46.55-1.05-1.28-.6-.72l.3.37c.75.93,1.49,1.88,2.21,2.84A209.84,209.84,0,0,1,691.07,573c1,1.8,2,3.6,3,5.43a12.33,12.33,0,0,0,3.52,3.42,32.55,32.55,0,0,0,5.5,3.49,27.34,27.34,0,0,0,4.13,1.69c.2.06,3.27.91,3.49-.11L715.21,566l.65-3c.26-1.24-.75-2.31-1.53-3.14a25.86,25.86,0,0,0-5.64-4.34,25.38,25.38,0,0,0-6.45-3c-.62-.15-3.26-.95-3.49.11l-4.53,20.9-.64,3,16.64,8.5a230,230,0,0,0-15.34-25.31c-4.59-6.51-9.66-12.69-16.09-17.46a47.29,47.29,0,0,0-7-4.31,23.34,23.34,0,0,0-7.84-2.66,10.9,10.9,0,0,0-9.14,4c-3.46,4-5.1,9.87-5.6,15.05-.12,1.33.62,2.17,1.52,3.14a25.84,25.84,0,0,0,5.65,4.34,25,25,0,0,0,6.45,3c.54.14,3.39.93,3.49-.11Z"/><path class="cls-1" d="M720.68,530.61c2.55-4.09,5.28-8.07,8-12q10.37-14.94,21.8-29.09a426.19,426.19,0,0,1,32.42-36.07c12.29-12.12,25.47-23.46,39.91-33,13.59-9,28.51-16.44,44.51-19.87q2.73-.58,5.49-1l-.55.08a82.89,82.89,0,0,1,13.63-.91l-14.57-13.18a110.92,110.92,0,0,1-2.84,20.76c-3,13.81-8.27,27.55-17.11,38.74a57.45,57.45,0,0,1-20.81,16.68c-1.09.5,6,7.26,6.53,7.73a42,42,0,0,0,5.65,4.29c.72.43,2.05,1.49,2.94,1.08,14.41-6.69,24.55-19.39,30.9-33.68A120.39,120.39,0,0,0,885.86,406c.29-2.44.54-4.91.6-7.37,0-1.05-.84-2-1.49-2.75a43.43,43.43,0,0,0-4.05-4.09,54.39,54.39,0,0,0-4.94-4l-1.69-1.14a9,9,0,0,0-2.4-1.16c-16.87-.31-33.34,4.89-48.23,12.52-16.18,8.29-30.84,19.39-44.34,31.49a384,384,0,0,0-36.78,38.25q-13.63,16.13-25.88,33.37c-2.56,3.62-5.09,7.26-7.55,11a44.26,44.26,0,0,0-3.39,5.21c0,.08-.1.16-.15.24-.42.67,1.32,2.55,1.49,2.75a40.87,40.87,0,0,0,5,5c.65.56,7.78,6.65,8.58,5.36Z"/><path class="cls-1" d="M714.48,668.49c.67-1.59,1.43-3.14,2.2-4.69,2.17-4.41,4.54-8.73,7-13q2.65-4.56,5.48-9c.54-.86,1.09-1.71,1.64-2.56l.78-1.21.45-.69c.83-1.26-1.41,2.14-.71,1.09q1.83-2.77,3.72-5.51c5.85-8.5,12.09-16.73,18.64-24.7q12.09-14.73,25.52-28.28,1.83-1.84,3.68-3.67c-2.42,2.4-.61.6.32-.31l1.92-1.85q4-3.84,8.07-7.58,8.5-7.77,17.38-15.1A482.13,482.13,0,0,1,851.8,521c1.9-1.25-1.89,1.24-.57.37l1.34-.87,3-2q2.93-1.87,5.86-3.7,6.1-3.78,12.32-7.4,12.88-7.51,26.19-14.28,14.09-7.18,28.57-13.54c2.48-1.1,5-2.17,7.47-3.23l3.79-1.59c.77-.32,3-1.22-.23.09l2-.83q7.93-3.23,16-6.21a649.88,649.88,0,0,1,69.55-21.5q9.31-2.32,18.69-4.4a13.3,13.3,0,0,0,6.48-4.23c1.19-1.47,2.45-3.92,2.08-5.91-1-5.05-6.18-5.41-10.27-4.5a676.21,676.21,0,0,0-72.86,20.4A616.64,616.64,0,0,0,907,473.81a532.59,532.59,0,0,0-52.53,28.63,512.61,512.61,0,0,0-45.56,31.72,455.24,455.24,0,0,0-35,30.37c-10.16,9.78-19.93,20-29.12,30.65q-10.75,12.51-20.42,25.9c-5.36,7.46-10.47,15.12-15.23,23-3,4.88-5.8,9.84-8.41,14.92-1.16,2.27-2.33,4.56-3.33,6.9,0,.1-.09.2-.13.29-.78,1.86-1.24,3.92-.24,5.83a6.5,6.5,0,0,0,4.94,3.08c4.58.48,10.62-2.09,12.51-6.59Z"/><path class="cls-1" d="M765.4,526.91a80.69,80.69,0,0,1,5.73-14.76c1.24-2.55,2.59-5,4-7.48l-1.08,1.81A75.08,75.08,0,0,1,789.42,488l-1.62,1.38A56.66,56.66,0,0,1,801,481l-2,.91a52.89,52.89,0,0,1,12.3-3.77l-2.33.41a28.18,28.18,0,0,1,6-.47l-2.51-.14a13.25,13.25,0,0,1,2.66.4l-2.58-.7a7.59,7.59,0,0,1,1.46.56L811.65,477a6.77,6.77,0,0,1,1,.64l-1.94-1.6a5,5,0,0,1,.76.77L810,474.89a5.49,5.49,0,0,1,.65,1.1l-.89-2a6,6,0,0,1,.42,1.61l-.26-2.1a11.07,11.07,0,0,1-.21,3.49l.42-2.06c-.88,4.26-3.06,8.24-5.28,11.94l1.08-1.81a157.54,157.54,0,0,1-18.74,24.52c-.79.86-1.57,1.76-2.44,2.54-2.22,2-1.67,5.75-.35,8,1.48,2.53,2.89,5.11,4.29,7.69q5.3,9.81,10.13,19.87,3.51,7.29,6.74,14.71l-.89-2c6.19,14.25,11.72,28.94,15.16,44.12.91,4,1.65,8,2.16,12.07l-.26-2.11a63.77,63.77,0,0,1-.28,20.45l.42-2.06a31.68,31.68,0,0,1-3.67,9.82l1.08-1.8a23.85,23.85,0,0,1-4.9,5.79l1.62-1.38a24.81,24.81,0,0,1-5.77,3.6l2-.9a46.25,46.25,0,0,1-10.7,3.18l2.33-.4a52.31,52.31,0,0,1-11.11.66l2.51.13a59,59,0,0,1-12.38-2l2.58.71a63.23,63.23,0,0,1-12-4.67l2.38,1.22c-.93-.48-1.86-1-2.74-1.53a12.76,12.76,0,0,0-7.47-2.06c-2,.12-4.68,1-6,2.68-3,4-.83,9,3,11.47,6.85,4.41,15,7.2,22.89,8.92A62.32,62.32,0,0,0,806,667.29a53.27,53.27,0,0,0,19.56-5.88,30.74,30.74,0,0,0,13-14.92c2.59-6.12,3.41-13.1,3.33-19.71-.22-15.94-4.69-31.79-10-46.7A394.64,394.64,0,0,0,813,536.47c-3.56-7.16-7.18-14.39-11.3-21.25-.06-.1-.11-.2-.17-.29l-.36,8a61.61,61.61,0,0,0,5.36-5.83q4.92-5.67,9.39-11.71a114.39,114.39,0,0,0,9.64-15.08,37.94,37.94,0,0,0,2.65-6.19,20.05,20.05,0,0,0,1.17-7.19,14.45,14.45,0,0,0-4-9.47,19.55,19.55,0,0,0-10.9-5.34,31.19,31.19,0,0,0-10,.19,60.53,60.53,0,0,0-13.24,3.56A66.9,66.9,0,0,0,769.85,480a78,78,0,0,0-12.22,15.62,95,95,0,0,0-10.76,23.66c0,.13-.07.26-.11.38a7.69,7.69,0,0,0,.73,6.21,11.63,11.63,0,0,0,5.77,4.69,11.4,11.4,0,0,0,7.42.43c1.9-.67,4.17-2,4.72-4.08Z"/><path class="cls-1" d="M956.46,396.54,977,394.89l32.63-2.62,7.52-.6a32.82,32.82,0,0,0,7-1.29,25.38,25.38,0,0,0,6.55-2.78c.73-.49,2.6-1.51,2.26-2.64s-2.65-1-3.34-1l-20.57,1.65-32.63,2.62-7.52.6a32.71,32.71,0,0,0-7,1.29,25.73,25.73,0,0,0-6.55,2.78c-.74.49-2.6,1.51-2.26,2.64s2.65,1,3.34,1Z"/><path class="cls-1" d="M995.05,481.75c1.92,5.38,3.59,10.85,5.21,16.33a349.36,349.36,0,0,1,8.84,36.56,187.21,187.21,0,0,1,2.83,22.64l0-.76c.49,8.64.41,17.79-2.48,26.05-.3.86-.64,1.71-1,2.54-.18.39-.37.77-.56,1.16-.27.58.66-1.18.22-.42l-.38.67a22.49,22.49,0,0,1-1.41,2.09l-.33.42c-.79,1,1.07-1.19.56-.64-.27.29-.53.58-.82.86s-.32.3-.47.45c0,0,2-1.73,1-1l-.46.37c-.94.79,2.52-1.83,1.24-1-1.62,1.12,2.78-1.71,1.18-.77-1.31.77,2.46-1.33,1.69-.94l-.59.31c-.67.36,2.84-1.26,1.51-.72l-.56.24c-1.12.47,2.3-.79,1.23-.45l-.66.22c-.86.26-1.94.41.22,0-.45.09-.91.19-1.37.26a30.73,30.73,0,0,1-3.18.25c-.53,0,1.31,0,.6,0h-.5l-.85,0c-.59,0-1.17-.09-1.76-.15a44.86,44.86,0,0,1-8.25-1.82c-1.27-.4-3.69.66-4.72,1.09a33.39,33.39,0,0,0-6.72,3.78c-.83.61-7.17,5.41-4.35,6.29,5.34,1.66,11.16,2.65,16.74,1.67a37.66,37.66,0,0,0,11.08-3.92,47.57,47.57,0,0,0,12-8.67c7.24-7.4,9.15-17.77,9.43-27.75.35-12.21-1.39-24.48-3.72-36.43-2.15-11-4.92-21.91-8.09-32.67q-1.63-5.55-3.41-11a34.62,34.62,0,0,0-1.78-5.29,1,1,0,0,1-.08-.23c-.34-1-3.15-.1-3.43,0a34.24,34.24,0,0,0-12.09,7.34c-.69.75-2,1.9-1.58,3.05Z"/><path class="cls-1" d="M992.67,483.86c-2.26,6.55-4.71,13-7.2,19.5-5.79,15-12,29.82-18.77,44.4-4.39,9.46-9,18.8-14,28l.78-1.42a240.88,240.88,0,0,1-19,30c-1.82,2.39-3.71,4.73-5.68,7a3.39,3.39,0,0,0-.29,4.18c1,1.44,3.45,2.14,5.07,2.31,4.54.48,10-.65,13.15-4.23a181.24,181.24,0,0,0,19.15-27.31c6.53-11,12.44-22.47,18-34.06,5.06-10.64,9.8-21.43,14.3-32.32q5.13-12.42,9.83-25c1.41-3.77,3-7.56,4.14-11.43l.06-.16a3.41,3.41,0,0,0-1.7-3.83,11.45,11.45,0,0,0-6.31-1.35,17.2,17.2,0,0,0-7.49,1.86c-1.63.9-3.35,2-4,3.9Z"/><path class="cls-1" d="M1101.13,285c-.87,4.16-1.79,8.31-2.72,12.45q-3.48,15.47-7.33,30.85c-3.31,13.21-6.83,26.37-10.68,39.44-3.8,12.89-7.9,25.72-12.78,38.25-3.67,9.4-7.64,19.18-13.67,27.35-.54.72-1.09,1.42-1.67,2.1l.9-1.05a16.93,16.93,0,0,1-5.49,4.53l1.43-.66a10.19,10.19,0,0,1-1.94.62c-1.13.26,1.11-.16,1.28-.15-.16,0-.33,0-.49,0h-.38c-1.15.06,2.68.27,1.68.12-1.22-.18,2.47.65,2,.5-1-.3-1.09-.74,2.12.86-1.06-.53,2.72,1.62,2,1.14-.89-.58,2.38,1.91,1.66,1.29s1.84,2.13,1.23,1.31,1,2,.79,1.33c-.07-.22-.18-.42-.24-.65l.38,1.53a6.26,6.26,0,0,1,0-2.55L1059,445c.81-4.25,3.21-8.26,5.4-11.92a172.08,172.08,0,0,1,11.87-17q4.37-5.64,9-11.07l-.9,1.06a370.49,370.49,0,0,1,30.34-31.56,274.11,274.11,0,0,1,35-27.87,152.27,152.27,0,0,1,20-11.27l-1.44.65c2-.91,4-1.77,6.08-2.56l-15.7-10.35c-1,1.52-2,3.06-3.06,4.59q-4.18,6.31-8.32,12.68-6.19,9.54-12.29,19.13-7.57,11.92-15,24-8.28,13.43-16.32,27-8.43,14.25-16.53,28.68c-5.28,9.45-10.43,19-15.37,28.6-4.54,8.84-8.91,17.78-12.94,26.87a248.11,248.11,0,0,0-9.22,23.52,89.6,89.6,0,0,0-4.48,19.77c-.1,1.19-.15,2.38-.14,3.57,0,1.77,1.66,3.63,2.84,4.72a18.12,18.12,0,0,0,6.73,3.79c2.58.74,9,1.83,9-2.6a45.52,45.52,0,0,1,.91-9l-.26,1.37a122.93,122.93,0,0,1,5.58-19.14c2.87-7.83,6.18-15.49,9.67-23.06,4-8.72,8.33-17.32,12.77-25.83,4.74-9.08,9.66-18.08,14.68-27q7.66-13.62,15.65-27,7.63-12.86,15.47-25.58,7-11.37,14.16-22.65,5.89-9.3,11.88-18.54,4.2-6.47,8.45-12.9c1.31-2,2.83-3.94,4-6,.05-.08.12-.16.17-.25l.26-1.37a4.21,4.21,0,0,0-.87-2.32,12.35,12.35,0,0,0-3.9-3.88,22.54,22.54,0,0,0-4.8-2.3c-1.65-.56-4.63-1.16-6.39-.48-15,5.78-28.74,14.64-41.45,24.42a336.65,336.65,0,0,0-38,34.52,315.11,315.11,0,0,0-29.18,34.83,119.53,119.53,0,0,0-8.39,13.31c-1.67,3.18-3.26,6.64-3.52,10.28a8.4,8.4,0,0,0,1.82,5.51c2.76,3.75,7.76,6.24,12.31,6.87a15.28,15.28,0,0,0,11.94-3.2,38.88,38.88,0,0,0,7.74-9.47,112.36,112.36,0,0,0,7-13.43,335.77,335.77,0,0,0,13.42-36.55c4.26-13.5,8.07-27.15,11.64-40.85q4.51-17.33,8.52-34.79c1.41-6.12,2.79-12.25,4.09-18.39.06-.28.12-.55.17-.83a4.91,4.91,0,0,0-1.09-4.49,15.46,15.46,0,0,0-5.74-4.39,15.14,15.14,0,0,0-7-1.72c-1.27.09-3.85.36-4.18,2Z"/><path class="cls-1" d="M1118.75,402.28l.66,16,1.57,38.08,1.9,46.29,1.64,39.91.54,13.12c.08,2.08.07,4.19.25,6.26,0,.09,0,.18,0,.27.05,1.33,1.7,2.14,2.69,2.59a21.58,21.58,0,0,0,6.94,1.64,21.33,21.33,0,0,0,7.13-.26c.91-.24,3.19-.72,3.14-2l-.66-16L1143,510.09l-1.9-46.3-1.64-39.9-.54-13.13c-.09-2.07-.07-4.19-.26-6.26a2.44,2.44,0,0,1,0-.27c-.06-1.33-1.7-2.13-2.69-2.59A21.91,21.91,0,0,0,1129,400a21.39,21.39,0,0,0-7.14.27c-.9.24-3.19.72-3.14,2Z"/><path class="cls-1" d="M1180.16,422.06c-4,4.34-8.24,8.54-12.5,12.66-3.9,3.77-7.88,7.45-12,11l-.73.63c-.92.79,1.77-1.5.67-.58q-.84.72-1.68,1.41c-1,.86-2.09,1.71-3.16,2.54-2,1.6-4.1,3.14-6.24,4.58l-1.58,1c3.34-2.19,1-.64.15-.13-.49.28-1,.56-1.48.83s-2.62,1.29-.4.24.26-.14-.32.1l-.74.28c-1.28.48,3-1,1.73-.59l-.69.2c-1.34.39,1.54-.31,1.64-.33l-.57.1c-.75.11-2.09.15,1.32-.05a21.59,21.59,0,0,0-9.44,2.62,16.09,16.09,0,0,0-3.67,2.68,5.63,5.63,0,0,0-1.67,2.73,72,72,0,0,0,2.63,16.36c2.78,10.25,7.82,20.13,15.83,27.28a41.31,41.31,0,0,0,16.92,8.92c9,2.37,18.47,1.91,27.58.63,17.64-2.47,35.5-9.05,49.24-20.65a74.55,74.55,0,0,0,11.89-12.45,38.72,38.72,0,0,0,3.56-5.63c0-.09.09-.18.13-.28.57-1.25,1-2.45-.31-3.45s-3.81-.88-5.22-.66a21.06,21.06,0,0,0-7.31,2.49c-1.66,1-4,2.25-4.79,4.07a30.47,30.47,0,0,1-2.57,4.33c-.49.71-1,1.4-1.52,2.09l-.45.58c-.83,1.07,1.07-1.29.55-.68-.35.42-.69.84-1,1.25a60.14,60.14,0,0,1-5.24,5.35l-.71.63-.49.43c-.19.17,1.93-1.62,1.12-1-.58.48-1.16,1-1.75,1.42q-1.89,1.49-3.89,2.83l-1.06.69c-1,.66,1.64-1,1.4-.88l-.66.41c-.76.46-1.52.91-2.3,1.35s-1.53.84-2.31,1.25l-1.15.57-.64.32c-.88.43,3-1.39,1.22-.59s-3.64,1.59-5.5,2.27l-1.35.49c-1.47.52,2.79-.92,1.3-.44l-.63.2c-1.06.35-2.13.67-3.21,1s-2.24.6-3.36.86l-1.57.36c-.71.15-1.92.37,1.13-.23l-1.08.21q-3.78.74-7.6,1.15c-1.49.17-3,.29-4.47.41-1.33.1.93-.06,1-.06a6.17,6.17,0,0,0-1.13.06l-1.74,0a59.57,59.57,0,0,1-6.54-.35c2.6.27.43,0-.17-.06s-.9-.16-1.35-.24c-1-.19-1.9-.41-2.84-.67a39.42,39.42,0,0,1-5.47-1.92l1.32.58a39.09,39.09,0,0,1-14.27-10.95l.76.93c-7-8.59-10.82-19.51-12.51-30.36-.26-1.68-.47-3.38-.61-5.07l.1,1.19c0-.5-.08-1-.1-1.51l-14.78,8c12.9-.76,24.12-9,33.73-17a320,320,0,0,0,24.29-22.58c1.6-1.64,3.2-3.29,4.76-5,.85-.9,2.15-2.51,1.58-3.92s-2.64-1.71-3.86-1.72a17.91,17.91,0,0,0-7,1.49,17.4,17.4,0,0,0-6.08,3.82Z"/><path class="cls-1" d="M1303.52,249.26c-2.47,3.8-4.9,7.63-7.33,11.45q-8.7,13.71-17.16,27.55c-6.79,11.12-13.48,22.31-19.89,33.65-5.53,9.75-11,19.61-15.57,29.86a78.12,78.12,0,0,0-4.32,11.38c-.81,3-.93,5.94.6,8.78a16.78,16.78,0,0,0,5.37,5.8,18.46,18.46,0,0,0,6.5,3.09c1.17.21,3.54.38,4.33-.93s.35-3.08-.4-4.4a15.6,15.6,0,0,0-4.88-5.3c-.39-.26-1-.79.85.73a17.1,17.1,0,0,1,2.49,2.47c-.5-.63,1.47,2.45,1,1.39,0,.12.69,2.33.53,1.22,0-.18-.07-.36-.09-.54l.15,1.5c-.26-2.78.95-5.78,1.9-8.32l-.46,1.21a184.6,184.6,0,0,1,10.28-21.76c4.94-9.32,10.18-18.48,15.52-27.57q8.16-13.87,16.63-27.55,6.74-10.89,13.6-21.7c2.12-3.33,4.42-6.6,6.41-10l.09-.14c.88-1.35.28-3.12-.39-4.4a16.51,16.51,0,0,0-4.88-5.3,16.19,16.19,0,0,0-6.51-3.09c-1.37-.2-3.43-.45-4.32.93Z"/><path class="cls-1" d="M1335.57,294.76q-2,2.6-4,5.2-5.4,7.11-10.71,14.3-7.86,10.59-15.56,21.29-9.4,13.06-18.59,26.29-10.11,14.58-19.88,29.4-9.86,15-19.19,30.26c-5.83,9.6-11.47,19.31-16.74,29.22a290,290,0,0,0-13,27.09c-2.77,6.79-5.3,13.85-6.42,21.12-.75,4.91-1,10.77,1.59,15.21a13.8,13.8,0,0,0,2.49,3.33,14.38,14.38,0,0,0,5.47,3.17,20.09,20.09,0,0,0,7.65,1c1.57-.15,4-.33,5-1.74a2.58,2.58,0,0,0-.33-3.57,9.83,9.83,0,0,1-1.62-2l.79,1.24a14.25,14.25,0,0,1-1.91-6.13l.12,1.23c-.54-5.67.83-11.49,2.43-16.9a159.91,159.91,0,0,1,8.87-22.51c2.29-4.9,4.73-9.73,7.25-14.51l-.58,1.09c7.31-13.83,15.32-27.28,23.63-40.53,8.73-13.94,17.81-27.66,27.1-41.24q12.66-18.5,25.81-36.66Q1335,326,1345,312.77c3-3.95,6.08-7.8,9-11.81l.12-.16c2.5-3.25-3.48-6-5.8-6.73a20.11,20.11,0,0,0-7.65-1c-1.61.15-3.95.34-5,1.73Z"/><path class="cls-1" d="M1293.6,393.88a27.32,27.32,0,0,1,2.17,5.59,84.34,84.34,0,0,1,3.13,17.91c.69,8.65-.07,17.35,2.09,25.84a43.84,43.84,0,0,0,7.13,15.34,27.51,27.51,0,0,0,5.8,5.95c.87.63,4.09-.34,4.78-.52a36.26,36.26,0,0,0,7.17-2.83c1.72-.91,3.78-1.87,5.06-3.36l.71-.91a.73.73,0,0,0-.5-1.15l-.05,0,.58.43a26.16,26.16,0,0,1-4.88-5.09,43.25,43.25,0,0,1-7.13-14.6,54.39,54.39,0,0,1-1.85-11.18c-.28-4.53-.1-9.07-.38-13.6a90.53,90.53,0,0,0-2.93-18.87A30.22,30.22,0,0,0,1312,386c-.52-.91-2.73-.47-3.35-.37a29.2,29.2,0,0,0-6.77,2.16,28.78,28.78,0,0,0-6.22,3.43c-.56.44-2.55,1.77-2,2.68Z"/><path class="cls-1" d="M1368.57,234.46a282.5,282.5,0,0,1,29.45-14.3c3.89-1.61,7.84-3.11,11.87-4.33l-1.31.4a42.06,42.06,0,0,1,10-1.94c.89,0-2,0-1.15,0l.57,0c.27,0,.54,0,.82.07,1.23.1-2.65-.53-1.09-.17s-2.84-1-1.44-.42c-3-1.17-4.74-2-6.83-4.22.92,1-1-1.64-.56-.77.07.16.18.31.25.48l-.5-1.27a4.92,4.92,0,0,1,.21,2.38l.13-1.09a20.49,20.49,0,0,1-2.14,6.22,71.72,71.72,0,0,1-4.85,8.24,184.25,184.25,0,0,1-15.44,19.69q-5.22,5.89-10.79,11.47l.77-.77a196.26,196.26,0,0,1-14.63,13.32,90.11,90.11,0,0,1-13.57,9.47,32.86,32.86,0,0,1-6.47,2.82l1.31-.39a16.15,16.15,0,0,1-2.48.55c-.37.05-.74.06-1.11.1-.86.08,2.11.05,1.1,0l-.55,0c-.15,0-.3,0-.45,0-.92,0,2.59.47,1.59.26-1.56-.33,2.56.81,1.58.48a19.34,19.34,0,0,1,6.88,4,6.94,6.94,0,0,1,1.65,1.87,2.25,2.25,0,0,1-.12-.21l.51,1.27a1.42,1.42,0,0,1-.08-.65l-.12,1.09a6.2,6.2,0,0,1,2.07-3.18l-.77.77c4.06-4.05,9.3-7,14.26-9.8A189.44,189.44,0,0,1,1390.22,265c4.94-1.93,9.94-3.68,15-5.21l-1.31.4a144.54,144.54,0,0,1,17.3-4.12q4.11-.71,8.27-1.07c1.38-.12,2.75-.21,4.14-.26l.91,0h.53c.21,0-1.79,0-1.1,0s1.37,0,2,0c1.42,0,2.83.11,4.24.25.69.06,1.37.14,2,.23l1,.14c-2.86-.38-2-.33-1.39-.22l.7.13-12.21-8.5c-.17,1.59-.33,3.17-.48,4.76-.42,4.33-.79,8.66-1.14,13q-.75,9.58-1.31,19.19-.68,11.82-1,23.65c-.25,8.69-.37,17.39-.29,26.09.08,8.88.36,17.76.93,26.61.54,8.43,1.35,16.85,2.61,25.2a152.46,152.46,0,0,0,4.74,21.77,68.83,68.83,0,0,0,7.79,17.76,41.16,41.16,0,0,0,16.91,14.79,47.46,47.46,0,0,0,7.56,2.75c1.26.35,3.89.73,5.15-.07s1-2.05.39-3.13c-2.36-3.89-7.53-6.06-11.7-7.22-1.29-.36,2.73.87,1.66.49l-.52-.17c-1.31-.47-1.73-.84,1.24.55l-1-.45c-.84-.41-2-1.27,1.67.93L1463,433l-.9-.58c-1-.67,2.44,1.77,1.4,1L1463,433c-.31-.24-.61-.49-.91-.75l-.39-.35c2.44,2.12,1.69,1.59,1.21,1.11l-.29-.27c-.6-.59-1.18-1.21-1.73-1.86-.26-.3-.51-.61-.76-.93-.79-1,.94,1.27.58.77l-.43-.59a42.42,42.42,0,0,1-2.94-4.77,62.12,62.12,0,0,1-2.93-6.37l.51,1.27c-4.43-11.22-6.52-23.32-8-35.24a393.84,393.84,0,0,1-2.58-42.46c-.19-13.94.12-27.88.76-41.8q.74-16.18,2.07-32.33.42-5.1.91-10.17c.14-1.55.44-3.14.47-4.7a1.23,1.23,0,0,1,0-.19,5.53,5.53,0,0,0-1.57-2.66,12.94,12.94,0,0,0-2.54-2.13,21.6,21.6,0,0,0-8.09-3.71c-13.36-2.51-27-.82-40.06,2.54a197.67,197.67,0,0,0-38,14.16,142.77,142.77,0,0,0-13.95,7.76,46.46,46.46,0,0,0-9.12,7.22,6.61,6.61,0,0,0-1.62,2.43c-.81,2.78,1.33,5,3.31,6.61,5,4.13,12.48,6.63,19,5.13a39.26,39.26,0,0,0,11.94-5.31,111,111,0,0,0,12.83-9.6,235.92,235.92,0,0,0,26.77-27c3.7-4.34,7.26-8.81,10.56-13.46a79.65,79.65,0,0,0,7-11.41c1.21-2.53,2.62-5.81,2.12-8.68-.6-3.39-3.8-6-6.52-7.68a28.41,28.41,0,0,0-12.49-4.38c-5.19-.43-10.27,1-15.17,2.48a145.08,145.08,0,0,0-15.61,6c-8.12,3.57-16.08,7.54-23.88,11.77l-1.3.71c-1.25.7-1,2.09-.4,3.13a13.44,13.44,0,0,0,4.6,4.21,22.88,22.88,0,0,0,7.11,3c1.6.33,3.63.77,5.14-.07Z"/><path class="cls-2" d="M422.46,476.74a207.93,207.93,0,0,1-6.35,23.5,503.38,503.38,0,0,1-25.22,63.53,698.91,698.91,0,0,1-53.37,93.05,865.45,865.45,0,0,1-90.78,112.11c-31.19,32.73-64.32,63.76-97.76,94.17-28.79,26.19-58.1,51.95-88.75,75.95-10.8,8.46-21.78,16.78-33.32,24.21a128.12,128.12,0,0,1-12.27,7.14,49.56,49.56,0,0,1-4.83,2.14c-.65.25-1.33.43-2,.67-1,.34,1.2-.22,0,0-.3,0-.6.13-.91.18s-.56.05-.84.1c-1,.21,1.9,0,.87,0-.69,0-1.54-.21,1.57.12-.81-.08-1.55-.34,1.93.32a39.74,39.74,0,0,1,6.52,1.91c2.79,1.13,2.14,1,1.53.7,2.34,1.29,1.5,1,1.09.65s.57,1,.44.43a6.28,6.28,0,0,0-.57-1c-.25-.45,0,.72,0,0,0-.19-.06-.39-.07-.58a8.39,8.39,0,0,1,.07-1.66,20.44,20.44,0,0,1,1-4.14,74.91,74.91,0,0,1,6-12.29c3.72-6.51,7.87-12.75,12.1-18.93a625.53,625.53,0,0,1,45.14-59.11c12.5-14.3,25.94-27.92,40.94-39.62,11.34-8.84,23.69-16.67,37.2-21.75a72.66,72.66,0,0,1,16.53-4.4c1.33-.21,2.66-.37,4-.51.72-.07,1.44-.13,2.17-.18l1.07-.06c1.33-.1-1.52,0-.2,0s2.6-.05,3.91,0c.7,0,1.4,0,2.11.08.35,0,.7.06,1.05.06-2.55,0-1.29-.1-.66,0q1.91.2,3.81.45c1.52.19-2.51-.44-1-.16.34.07.68.12,1,.18l1.7.34c2.17.42-2.92-.71-.23-.05.62.15,1.24.32,1.85.48,2.45.64-2.52-.8-.38-.11.67.21,1.34.42,2,.65a36.56,36.56,0,0,0,7.52,1.7c.88.1,3.88.52,4.8-.22,2.26-1.81-5.4-4.36-6-4.57-13.45-4.57-27.93-6.69-42.09-5-12.9,1.52-25.32,6.21-36.64,12.47-14.54,8-27.61,18.59-39.65,30-16,15.09-30.32,31.82-43.76,49.16Q32.53,914.48,21.24,931c-4.72,6.84-9.39,13.74-13.57,20.92a81.68,81.68,0,0,0-6.39,12.88c-.89,2.47-1.8,5.32-.92,7.93a5.1,5.1,0,0,0,2,2.51c4,3,9.78,4.21,14.59,4.84a23,23,0,0,0,11.45-1.51c9.06-3.44,17.35-9.31,25.24-14.8,28.76-20,55.51-43,81.83-66.07q49.85-43.64,97.2-90c36.08-35.25,70.22-72.26,100.57-112.6a748.12,748.12,0,0,0,65-102A564.1,564.1,0,0,0,431,518.7a297.11,297.11,0,0,0,10.52-35.4c.11-.51.23-1,.33-1.55.47-2.5-7.54-4.42-9.09-4.8-1.22-.3-9.82-2.59-10.28-.21Z"/><path class="cls-2" d="M357.26,699.8l-.33-.35-.36-.39c-.06-.08-.13-.15-.19-.22-.88-1,1.69,1.93,1.22,1.39-1-1.12-1.9-2.24-2.8-3.41-.57-.74-1.13-1.5-1.66-2.26-.14-.2-.27-.4-.41-.59-.7-1,1.83,2.77,1,1.46q-.41-.61-.78-1.23c-.72-1.17-2.31-4.56-.35-.4-.2-.43-.4-.85-.59-1.28-.08-.19-.16-.38-.23-.57s-.09-.21-.13-.31c-.29-.76-.44-1.8.58,1.66-.14-.47-.28-.94-.41-1.41-.36-1.37.26,1.51.23,1.27s-.07-.45-.09-.67,0-.49,0-.74c-.06-.84-.18,2.28,0,1a10.71,10.71,0,0,1,.24-1.28l-.44,1.43a5.44,5.44,0,0,1,1.21-2.11l-.88.93a8.66,8.66,0,0,1,4.24-2.22l-1.24.32a26,26,0,0,1,11-.11l-1.46-.32a16.44,16.44,0,0,1,3.22,1.07l.73.34.36.19c.61.29-1.93-1.12-1-.55.52.32,1,.63,1.55,1s1,.75,1.52,1.14c.93.74-2-1.75-.84-.7l.74.68c.5.47,1,1,1.45,1.46l.39.42c.85.93-1.26-1.44-1.18-1.33.23.28.48.55.71.83.47.58.93,1.17,1.37,1.77l.68.94.3.45c.64.91-1.79-2.72-1-1.53.9,1.39,1.75,2.8,2.53,4.26.19.35.38.7.56,1,.68,1.3-1.3-2.6-.79-1.56.11.21.21.42.32.64.39.81.77,1.63,1.13,2.45q1.13,2.55,2.08,5.16l.26.74c.47,1.28-.7-2-.5-1.44s.32.94.47,1.41c.32,1,.62,1.94.91,2.91.6,2,1.13,4.06,1.61,6.11.25,1.06.49,2.13.71,3.19l.3,1.51c0,.17.06.34.1.5.07.35-.43-2.29-.28-1.47.05.29.11.59.16.89q.6,3.39,1,6.81c.6,4.76.95,9.54,1.09,14.33,0,1.25,0,2.51.06,3.76,0,.63-.06,1.28,0,1.9a9.59,9.59,0,0,0,0-1.08v.44c0,.34,0,.69,0,1q-.09,3.89-.36,7.77a160.14,160.14,0,0,1-5.57,32c-.38,1.37-.78,2.72-1.2,4.07l.44-1.42a148.14,148.14,0,0,1-23.32,45.54,146.13,146.13,0,0,1-9.94,11.72l.88-.93-.52.54a4.64,4.64,0,0,0-1.34,4.18,16.61,16.61,0,0,0,2.4,6.79,16.27,16.27,0,0,0,4.74,5.42c1,.6,3.24,2,4.3.88a149.28,149.28,0,0,0,22-29.39,157,157,0,0,0,13.48-32,163.64,163.64,0,0,0,6.21-61.45,138.56,138.56,0,0,0-5-26.94,97.3,97.3,0,0,0-10.22-23.79c-3.94-6.36-8.84-12.78-15.29-16.77a25.14,25.14,0,0,0-9-3.55,27,27,0,0,0-12.9.78c-8.84,2.93-6.2,14.25-3.24,20.58a76.27,76.27,0,0,0,12.86,18.68c.21.24.43.48.66.71,1,1.07,3.06,2.63,4.7,2.58a2.76,2.76,0,0,0,2.56-2.67c.56-4.59-2.46-9.49-5.47-12.65Z"/><path class="cls-2" d="M406.31,648a11.11,11.11,0,0,1-2.21-.89l2.17,1.16a9.08,9.08,0,0,1-1.81-1.27l1.77,1.62a7,7,0,0,1-1.19-1.42l1.25,2a6.66,6.66,0,0,1-.77-1.75l.64,2.33a7,7,0,0,1-.23-2l-.07,2.42a7.47,7.47,0,0,1,.37-2.09l-.75,2.25a8,8,0,0,1,1-2l-1.34,2a8.86,8.86,0,0,1,1.34-1.53l-1.84,1.64a7.51,7.51,0,0,1,1.55-1.07l-2.27,1.18a8.43,8.43,0,0,1,1.67-.63l-2.6.64a7.41,7.41,0,0,1,1.81-.22H402.1a9,9,0,0,1,2.07.27l-2.48-.62a10.25,10.25,0,0,1,2.39.94l-2.18-1.16a15,15,0,0,1,3.11,2.25l-1.76-1.62a27.47,27.47,0,0,1,4.61,5.74l-1.25-2a63.41,63.41,0,0,1,6.13,13.74c.58,1.77,1.12,3.57,1.61,5.38l-.63-2.33a190.47,190.47,0,0,1,5,26.38c1.59,12.55,2.37,25.19,2.74,37.83.27,9,.32,18.11.22,27.17,0,2.21,2,4.77,3.66,6a10.81,10.81,0,0,0,14-1.67l1.34-2a8.23,8.23,0,0,0,.81-4.66c.17-14.56,0-29.14-1-43.68A302.52,302.52,0,0,0,437,684.25,159.36,159.36,0,0,0,431,660a67.94,67.94,0,0,0-7.54-15.55,28.22,28.22,0,0,0-8.25-8.43,21.22,21.22,0,0,0-13.12-3.41,18.38,18.38,0,0,0-11.21,5.36,16.87,16.87,0,0,0-4.53,8.25,14.75,14.75,0,0,0,1,9.35c1.89,4,5.2,6.64,9.14,8.45a14.22,14.22,0,0,0,1.65.61,11.8,11.8,0,0,0,7.76,0,10.17,10.17,0,0,0,5.45-4.81,8.32,8.32,0,0,0,.18-7,9.14,9.14,0,0,0-5.2-4.79Z"/><path class="cls-2" d="M473,406.62c-.3,2-.64,4-1,5.94q-1.32,7.72-2.86,15.4c-1.41,7.12-2.93,14.2-4.61,21.26-1.86,7.88-3.91,15.73-6.24,23.49a225.05,225.05,0,0,1-7.7,22c-.36.84-.72,1.69-1.09,2.52l.44-1c-2.74,6.21-5.9,12.55-10.46,17.65a24.9,24.9,0,0,1-3.26,3.07l1.08-.83A17.41,17.41,0,0,1,434.2,518c-1.16.56,2.06-.72.67-.27l-.75.23c-1.51.44,2.48-.42,1.1-.23-.52.07-1.84.18.33,0s.86-.09.33-.07c4.07-.16,2.81.09,1.73,0s3.24.51,2.14.28l-.45-.08c-1.24-.21,2.81.76,1.79.44l-.39-.11c-.84-.25-2-1,1,.42-.24-.1-.48-.22-.71-.31,1.52.61,1.51,1.16.69.29l.93,1a3.59,3.59,0,0,1-.77-1.47l.28,1c-.57-2.19.25-4.61,1.13-6.61l-.44,1c2.94-6.58,8.42-12,14-16.34l-1.07.84a80.46,80.46,0,0,1,12.75-8c1.24-.64,2.5-1.24,3.76-1.82l2-.87.94-.4.55-.22c.83-.35-.75.28-.8.31a11,11,0,0,1,2.11-.81c.77-.29,1.54-.57,2.32-.84,1.5-.52,3-1,4.54-1.47s3.31-.95,5-1.37l2.34-.57,1.36-.3.51-.12c.94-.2-2.1.44-.85.19,3.7-.74,7.42-1.36,11.17-1.8,1-.12,1.94-.23,2.91-.32l1.39-.13.59-.06c1.62-.14-2,.16-1,.08,2.13-.15,4.26-.28,6.4-.35,4.71-.18,9.4-.37,14.09-.86,13.56-1.41,27.28-5.17,39-12.25A66.66,66.66,0,0,0,586,449a52.16,52.16,0,0,0,4.07-6.41,19.42,19.42,0,0,0,1.95-4.22c0-.05,0-.1.05-.15.45-1.24-2.08-2.65-2.7-3a19.22,19.22,0,0,0-6.95-1.69,18.66,18.66,0,0,0-7.14.56c-1.41.49-2.61,1-3.14,2.48-.13.35-.27.69-.42,1l.44-1a51.6,51.6,0,0,1-10.53,15,65.09,65.09,0,0,1-6.33,5.63l1.08-.84a70.28,70.28,0,0,1-15.32,9l-1.19.5c-.73.3,1.54-.61.81-.33l-.69.27c-.84.32-1.68.63-2.53.93q-2.52.87-5.08,1.59c-.95.26-1.9.51-2.86.74l-1.3.31-.66.15c-1.39.31,2.13-.43.72-.16-2,.41-4.08.77-6.13,1.06-1,.15-2.1.28-3.15.4l-1.52.16c-.82.08-3.3.21.09,0-2.37.15-4.74.27-7.11.34-5.42.15-10.84.54-16.22,1.17A138.12,138.12,0,0,0,468.42,478c-12.48,4-24.47,10-34.26,18.76a47.89,47.89,0,0,0-8.22,9.36,23.56,23.56,0,0,0-3.79,8.66,6.86,6.86,0,0,0,2.28,6.66c2.32,2,5.74,2.81,8.64,3.44a33.17,33.17,0,0,0,11.24.44,22.26,22.26,0,0,0,11.8-5.37,36.22,36.22,0,0,0,6.8-8.29c5.3-8.42,8.95-17.94,12.15-27.32,3.57-10.47,6.47-21.16,9.05-31.9,2.26-9.37,4.25-18.8,6-28.27,1-5.06,1.87-10.12,2.68-15.21,0-.23.07-.46.11-.69.2-1.36-1.84-2.52-2.71-3a19,19,0,0,0-7-1.69,18.66,18.66,0,0,0-7.14.56c-1.23.42-2.91,1-3.14,2.48Z"/><path class="cls-2" d="M503.07,546.05a48.47,48.47,0,0,1,7.41-2l-.57.1a38,38,0,0,1,8-.54,53.37,53.37,0,0,1,7.85,1.21q8,1.56,16,2.48a195.4,195.4,0,0,0,28.31,1.16,171.61,171.61,0,0,0,37.4-5.11c2.09-.54,4.19-1.1,6.23-1.83.67-.24-1.63-3.09-1.42-2.82a39.53,39.53,0,0,0-5-5,39.08,39.08,0,0,0-5.64-4.3c-.82-.49-2-1.4-3-1a89.65,89.65,0,0,1-10.91,2.95q-3.36.74-6.74,1.32l.56-.1a191.76,191.76,0,0,1-69.47-1,39.38,39.38,0,0,0-24.09,1.36c-.68.24,1.63,3.09,1.41,2.82a39,39,0,0,0,5,5,38.45,38.45,0,0,0,5.63,4.3c.82.49,2,1.4,3,1Z"/><path class="cls-2" d="M542,468.68c-1.3,4.41-2.72,8.8-4.15,13.17q-5.42,16.47-11.59,32.66c-5.4,14.16-11.23,28.16-17.71,41.86A319.62,319.62,0,0,1,486,597.13c-7.22,10.83-15.49,21.57-26,29.37-1.11.83-2.25,1.61-3.42,2.35l.78-.49a37,37,0,0,1-18.35,6.1l1.26-.05a25.11,25.11,0,0,1-4.82-.34c-.74-.12,1.72.44.8.18l-.46-.13c-.43-.12-1.74-.61-.14,0s.3.06-.07-.07,2.48,1.31,1.56.79c-.42-.23-1.2-.73.57.39,2.93,1.85-1.46-1.19,1.31.91,1.67,1.26.94.72.57.41-.8-.68,1.51,1.42,1.32,1.2a3.15,3.15,0,0,0-.36-.37c-.55-.5,1.41,1.69,1,1.09-.19-.24-.39-.48-.58-.73-.79-1,.8,1.4.29.44-.13-.25-.27-.49-.4-.75a14.74,14.74,0,0,1-.79-1.93l.4,1.2c-1.55-4.82-1.06-10.09-.08-15l-.18.89a82.6,82.6,0,0,1,6-17.62c.55-1.19-.48-2.62-1.14-3.5a22.71,22.71,0,0,0-5.29-4.78,22.17,22.17,0,0,0-6.34-3.26c-.85-.22-3.16-1-3.68.18A80.66,80.66,0,0,0,423.19,614c-.89,5.36-.88,11,1.47,16a26.1,26.1,0,0,0,7.5,8.91c4,3.18,8.64,6,13.66,7.2a31.86,31.86,0,0,0,16.33-.62c7.13-2.15,13.53-6.55,19.05-11.45a118.94,118.94,0,0,0,17.37-19.84,245.07,245.07,0,0,0,15.83-25.5c5.06-9.25,9.7-18.74,14.05-28.35q6.27-13.86,11.8-28,4.82-12.27,9.18-24.7,3.2-9.07,6.14-18.24c.95-2.95,1.92-5.91,2.78-8.89,0-.13.07-.26.11-.39.4-1.35-.33-2.43-1.14-3.51a22.71,22.71,0,0,0-5.29-4.78,21.89,21.89,0,0,0-6.34-3.25c-.74-.2-3.34-1-3.68.17Z"/><path class="cls-2" d="M541.48,592.07c-.58,5.78-1.46,11.54-2.44,17.26a225.86,225.86,0,0,1-8.48,35,90.21,90.21,0,0,1-8.11,18.07l.67-1.08a47.67,47.67,0,0,1-3,4.33c-.5.64-1,1.26-1.57,1.86-.27.3-.55.6-.84.89s-.33.29-.46.45c.06-.08,1.49-1.37.7-.67-.56.49-1.12,1-1.71,1.42-.16.12-.33.23-.49.36s2.16-1.44,1.15-.81l-.87.54c-1.11.67,1.68-.89,1.54-.83s-.34.18-.52.26c-1.81.88,2.59-1,1.33-.55-1,.36-2.45.56,1.45-.45l-.46.14c-.8.22-2.13.47,1.56-.34a32.27,32.27,0,0,0-7.33,2.4c-1.56.77-4,2-5.06,3.52-.59.82-1.3,2-.05,2.71s3.57.53,5,.22c9.94-2.19,19-7.13,25-15.48,4.57-6.34,7.77-13.6,10.34-20.94,4.94-14.07,7.91-28.86,10.07-43.6.48-3.27.93-6.55,1.26-9.83.13-1.33-.53-1.76-1.83-2a14.64,14.64,0,0,0-6.13.7,26.78,26.78,0,0,0-7.09,3l-1.71,1.19a5.76,5.76,0,0,0-1.9,2.26Z"/><path class="cls-2" d="M562.12,634.05c-.61,5.48-1.49,10.94-2.51,16.36-.87,4.61-1.87,9.2-3.17,13.71a45.07,45.07,0,0,1-4.4,11c-1,1.6-2.37,3.45-4.28,4l.52-.09h0l15.31,12.31c.1-.27,1.26-.65,1.5-.76,1.33-.64,2.69-1.26,4-1.85a118.77,118.77,0,0,1,12.7-4.74,71.14,71.14,0,0,1,8.38-2.06l-.52.09a30.9,30.9,0,0,1,9.4-.45,15.06,15.06,0,0,1,2,.4l.48.14c.16,0-1.13-.43-.43-.14l.87.37c.72.29-1.66-.89-.89-.45s-2-1.21-1.24-.76c.87.55-2.39-1.63-1.55-1a50.58,50.58,0,0,1-5.32-4.26c.69.62-1.73-1.77-1-1,.2.22-1.23-1.52-.68-.76l.24.31c.52.61-.41-.76-.21-.35a12.54,12.54,0,0,1,1.36,4.56l0-.53a22.27,22.27,0,0,1-.49,6.09A91.92,91.92,0,0,1,589,695.05a179.37,179.37,0,0,1-9.63,22.63,256.11,256.11,0,0,1-19.93,33c-1.44,2-2.89,4-4.43,6-.44.56,1.66,2.59,1.68,2.62A45.46,45.46,0,0,0,562,764a44.85,44.85,0,0,0,5.87,4c.48.25,2.48,1.56,2.95,1a219.2,219.2,0,0,0,14.34-21c9.09-14.86,17.07-30.72,21.82-47.53,1.24-4.38,2.53-9.6.65-14-1.41-3.31-4.48-5.89-7.15-8.13-4-3.35-8.49-6.83-13.55-8.4a24.06,24.06,0,0,0-10.58-.36,73.59,73.59,0,0,0-12.4,3c-3.52,1.16-7,2.5-10.39,4-1.19.51-2.38,1-3.55,1.6a9.18,9.18,0,0,0-2,1c0,.05-.24.08-.26.15-.27.76,1.41,2.33,1.68,2.62a47.41,47.41,0,0,0,4.3,3.83,54.26,54.26,0,0,0,5.15,3.76,16.43,16.43,0,0,0,4.18,2.11c.34.09,1-.28,1.24-.43a7.83,7.83,0,0,0,2.66-2.33c2.28-3,3.57-6.79,4.69-10.35a164.8,164.8,0,0,0,5.48-25.94c.3-2.05.59-4.11.82-6.17.1-.92-1.19-2.1-1.68-2.62A58.17,58.17,0,0,0,565.08,635c-.27-.14-2.9-1.53-3-1Z"/><path class="cls-2" d="M662.8,407.73a78.06,78.06,0,0,0,5.27,9.73c3.39,5.35,7.59,10.71,12.79,14.39,3.59,2.55,7.39,4.78,11.79,5.63A25,25,0,0,0,707.56,436c6.49-2.79,10-9.41,11.27-16.05,1-5.19.52-10.92,2.52-15.87l-.91,2.2a8.12,8.12,0,0,1,1.09-1.92l-1.48,1.82a5.69,5.69,0,0,1,1.06-1l-2,1.37a5.39,5.39,0,0,1,1.19-.62l-2.29.86a6.9,6.9,0,0,1,1.27-.3l-2.53.3a9.4,9.4,0,0,1,2.12,0l-2.66-.33a74.15,74.15,0,0,1,10.54,2.3c2.46.71,4.9,1.56,7.41,2.07,6.29,1.27,13.53,1,19.35-2a37,37,0,0,0,7.69-5.74c2.71-2.47,5.27-5.11,7.78-7.79,6.43-6.86,12.51-14,18.5-21.28s12.12-14.86,18.05-22.4c2.78-3.55,5.63-7.06,8.3-10.7l.12-.16-18.51-7c-3,9-6.37,17.9-9.81,26.75q-2.71,7-5.57,13.91l.91-2.2c-3.87,9.36-7.94,18.64-12.34,27.76a260.78,260.78,0,0,1-14,25.78,112.83,112.83,0,0,1-8.15,11.51l1.49-1.81a63.71,63.71,0,0,1-4.27,4.73,8.42,8.42,0,0,0-2.61,6.4,9.3,9.3,0,0,0,3.2,6.24c3.83,3.12,10.25,4,14,.18,6.54-6.5,11.78-14.35,16.46-22.26A308,308,0,0,0,789.22,403c4.67-10.09,9-20.34,13.11-30.66q4.56-11.37,8.75-22.89c1.29-3.55,2.69-7.11,3.79-10.72,0-.05,0-.1,0-.15a8.42,8.42,0,0,0-1.34-6.79,10.84,10.84,0,0,0-5-3.74,9.92,9.92,0,0,0-12.17,3.55c-4.73,6.2-9.56,12.33-14.43,18.43q-3.71,4.65-7.48,9.25L776,357.5c-8.78,10.73-17.65,21.64-27.68,31.25a50.87,50.87,0,0,1-5.7,4.87l1.94-1.37a11.9,11.9,0,0,1-2.5,1.43l2.29-.87a21.53,21.53,0,0,1-4.69,1.06l2.53-.29a20.09,20.09,0,0,1-4.52,0l2.66.33c-4.07-.5-7.94-2.07-11.89-3.09-6.18-1.59-12.88-3.15-18.95-.42-7.51,3.37-8.59,11.75-9.31,18.94a37.7,37.7,0,0,1-2.06,10.48l.92-2.2a13.4,13.4,0,0,1-1.91,3.27l1.48-1.82a10,10,0,0,1-1.88,1.74l1.95-1.37a10.77,10.77,0,0,1-2,1.08l2.29-.87a13.22,13.22,0,0,1-3,.73l2.54-.3a14.44,14.44,0,0,1-3.22,0l2.65.33a16.12,16.12,0,0,1-3.54-.89l2.51.94a21.43,21.43,0,0,1-4.18-2.21l2.11,1.44a33.69,33.69,0,0,1-6-5.34l1.63,1.83a62.69,62.69,0,0,1-8.79-13.08l1.09,2.11c-.35-.67-.69-1.35-1-2a10.63,10.63,0,0,0-4.83-5.39,11.29,11.29,0,0,0-7.7-1,9.16,9.16,0,0,0-5.73,4.05,8,8,0,0,0-.65,6.88Z"/><path class="cls-2" d="M655.29,550.69a35.42,35.42,0,0,1,1.46-7c1.19-3.86,3.08-7.94,6.58-10.23l-.67.43a9.11,9.11,0,0,1,3.16-1.26c.25,0,.5-.06.75-.11.78-.14-1-.09-.62,0s1.6.26.12,0c-1.31-.28-.63-.14-.32,0,.83.24-2.43-.88-1.39-.49.75.28,1.81.94-1.61-.75.85.42,1.65,1.17-1.67-1l.4.24c.9.57-2.71-1.85-1.61-1.06l.48.34c.74.52-2.35-1.87-1.21-.92.34.27.67.56,1,.84.89.77-.88-.82-.94-.88l.58.56c.75.73,1.46,1.49,2.16,2.26l1,1.12.53.63c.46.55-1.05-1.28-.6-.72l.3.37c.75.93,1.49,1.88,2.21,2.84A209.84,209.84,0,0,1,680.07,559c1,1.8,2,3.6,3,5.43a12.33,12.33,0,0,0,3.52,3.42,32.55,32.55,0,0,0,5.5,3.49,27.34,27.34,0,0,0,4.13,1.69c.2.06,3.27.91,3.49-.11L704.21,552l.65-3c.26-1.24-.75-2.31-1.53-3.14a25.86,25.86,0,0,0-5.64-4.34,25.38,25.38,0,0,0-6.45-3c-.62-.15-3.26-.95-3.49.11l-4.53,20.9-.64,3,16.64,8.5a230,230,0,0,0-15.34-25.31c-4.59-6.51-9.66-12.69-16.09-17.46a47.29,47.29,0,0,0-7-4.31,23.34,23.34,0,0,0-7.84-2.66,10.9,10.9,0,0,0-9.14,4c-3.46,4-5.1,9.87-5.6,15.05-.12,1.33.62,2.17,1.52,3.14a25.84,25.84,0,0,0,5.65,4.34,25,25,0,0,0,6.45,3c.54.14,3.39.93,3.49-.11Z"/><path class="cls-2" d="M709.68,516.61c2.55-4.09,5.28-8.07,8-12q10.37-14.94,21.8-29.09a426.19,426.19,0,0,1,32.42-36.07c12.29-12.12,25.47-23.46,39.91-33,13.59-9,28.51-16.44,44.51-19.87q2.73-.58,5.49-1l-.55.08a82.89,82.89,0,0,1,13.63-.91l-14.57-13.18a110.92,110.92,0,0,1-2.84,20.76c-3,13.81-8.27,27.55-17.11,38.74a57.45,57.45,0,0,1-20.81,16.68c-1.09.5,6,7.26,6.53,7.73a42,42,0,0,0,5.65,4.29c.72.43,2.05,1.49,2.94,1.08,14.41-6.69,24.55-19.39,30.9-33.68A120.39,120.39,0,0,0,874.86,392c.29-2.44.54-4.91.6-7.37,0-1.05-.84-2-1.49-2.75a43.43,43.43,0,0,0-4.05-4.09,54.39,54.39,0,0,0-4.94-4l-1.69-1.14a9,9,0,0,0-2.4-1.16c-16.87-.31-33.34,4.89-48.23,12.52-16.18,8.29-30.84,19.39-44.34,31.49a384,384,0,0,0-36.78,38.25q-13.63,16.13-25.88,33.37c-2.56,3.62-5.09,7.26-7.55,11a44.26,44.26,0,0,0-3.39,5.21c0,.08-.1.16-.15.24-.42.67,1.32,2.55,1.49,2.75a40.87,40.87,0,0,0,5,5c.65.56,7.78,6.65,8.58,5.36Z"/><path class="cls-2" d="M703.48,654.49c.67-1.59,1.43-3.14,2.2-4.69,2.17-4.41,4.54-8.73,7-13q2.65-4.56,5.48-9c.54-.86,1.09-1.71,1.64-2.56l.78-1.21.45-.69c.83-1.26-1.41,2.14-.71,1.09q1.83-2.77,3.72-5.51c5.85-8.5,12.09-16.73,18.64-24.7q12.09-14.73,25.52-28.28,1.83-1.84,3.68-3.67c-2.42,2.4-.61.6.32-.31l1.92-1.85q4-3.84,8.07-7.58,8.5-7.77,17.38-15.1A482.13,482.13,0,0,1,840.8,507c1.9-1.25-1.89,1.24-.57.37l1.34-.87,3-2q2.93-1.87,5.86-3.7,6.1-3.78,12.32-7.4,12.88-7.51,26.19-14.28,14.09-7.18,28.57-13.54c2.48-1.1,5-2.17,7.47-3.23l3.79-1.59c.77-.32,3-1.22-.23.09l2-.83q7.93-3.23,16-6.21a649.88,649.88,0,0,1,69.55-21.5q9.32-2.32,18.69-4.4a13.3,13.3,0,0,0,6.48-4.23c1.19-1.47,2.45-3.92,2.08-5.91-1-5.05-6.18-5.41-10.27-4.5a676.21,676.21,0,0,0-72.86,20.4A616.64,616.64,0,0,0,896,459.81a532.59,532.59,0,0,0-52.53,28.63,512.61,512.61,0,0,0-45.56,31.72,455.24,455.24,0,0,0-35,30.37c-10.16,9.78-19.93,20-29.12,30.65q-10.75,12.51-20.42,25.9c-5.36,7.46-10.47,15.12-15.23,23-3,4.88-5.8,9.84-8.41,14.92-1.16,2.27-2.33,4.56-3.33,6.9,0,.1-.09.2-.13.29-.78,1.86-1.24,3.92-.24,5.83a6.5,6.5,0,0,0,4.94,3.08c4.58.48,10.62-2.09,12.51-6.59Z"/><path class="cls-2" d="M754.4,512.91a80.69,80.69,0,0,1,5.73-14.76c1.24-2.55,2.59-5,4-7.48l-1.08,1.81A75.08,75.08,0,0,1,778.42,474l-1.62,1.38A56.66,56.66,0,0,1,790,467l-2,.91a52.89,52.89,0,0,1,12.3-3.77l-2.33.41a28.18,28.18,0,0,1,6-.47l-2.51-.14a13.25,13.25,0,0,1,2.66.4l-2.58-.7a7.59,7.59,0,0,1,1.46.56L800.65,463a6.77,6.77,0,0,1,1,.64l-1.94-1.6a5,5,0,0,1,.76.77L799,460.89a5.49,5.49,0,0,1,.65,1.1l-.89-2a6,6,0,0,1,.42,1.61l-.26-2.1a11.07,11.07,0,0,1-.21,3.49l.42-2.06c-.88,4.26-3.06,8.24-5.28,11.94l1.08-1.81a157.54,157.54,0,0,1-18.74,24.52c-.79.86-1.57,1.76-2.44,2.54-2.22,2-1.67,5.75-.35,8,1.48,2.53,2.89,5.11,4.29,7.69q5.3,9.81,10.13,19.87,3.51,7.29,6.74,14.71l-.89-2c6.19,14.25,11.72,28.94,15.16,44.12.91,4,1.65,8,2.16,12.07l-.26-2.11a63.77,63.77,0,0,1-.28,20.45l.42-2.06a31.68,31.68,0,0,1-3.67,9.82l1.08-1.8a23.85,23.85,0,0,1-4.9,5.79l1.62-1.38a24.81,24.81,0,0,1-5.77,3.6l2-.9a46.25,46.25,0,0,1-10.7,3.18l2.33-.4a52.31,52.31,0,0,1-11.11.66l2.51.13a59,59,0,0,1-12.38-2l2.58.71a63.23,63.23,0,0,1-12-4.67l2.38,1.22c-.93-.48-1.86-1-2.74-1.53a12.76,12.76,0,0,0-7.47-2.06c-2,.12-4.68,1-6,2.68-3,4-.83,9,3,11.47,6.85,4.41,15,7.2,22.89,8.92A62.32,62.32,0,0,0,795,653.29a53.27,53.27,0,0,0,19.56-5.88,30.74,30.74,0,0,0,13-14.92c2.59-6.12,3.41-13.1,3.33-19.71-.22-15.94-4.69-31.79-10-46.7A394.64,394.64,0,0,0,802,522.47c-3.56-7.16-7.18-14.39-11.3-21.25-.06-.1-.11-.2-.17-.29l-.36,8a61.61,61.61,0,0,0,5.36-5.83q4.92-5.67,9.39-11.71a114.39,114.39,0,0,0,9.64-15.08,37.94,37.94,0,0,0,2.65-6.19,20.05,20.05,0,0,0,1.17-7.19,14.45,14.45,0,0,0-4-9.47,19.55,19.55,0,0,0-10.9-5.34,31.19,31.19,0,0,0-10,.19,60.53,60.53,0,0,0-13.24,3.56A66.9,66.9,0,0,0,758.85,466a78,78,0,0,0-12.22,15.62,95,95,0,0,0-10.76,23.66c0,.13-.07.26-.11.38a7.69,7.69,0,0,0,.73,6.21,11.63,11.63,0,0,0,5.77,4.69,11.4,11.4,0,0,0,7.42.43c1.9-.67,4.17-2,4.72-4.08Z"/><path class="cls-2" d="M945.46,382.54,966,380.89l32.63-2.62,7.52-.6a32.82,32.82,0,0,0,7-1.29,25.38,25.38,0,0,0,6.55-2.78c.73-.49,2.6-1.51,2.26-2.64s-2.65-1-3.34-1l-20.57,1.65-32.63,2.62-7.52.6a32.71,32.71,0,0,0-7,1.29,25.73,25.73,0,0,0-6.55,2.78c-.74.49-2.6,1.51-2.26,2.64s2.65,1,3.34,1Z"/><path class="cls-2" d="M984.05,467.75c1.92,5.38,3.59,10.85,5.21,16.33a349.36,349.36,0,0,1,8.84,36.56,187.21,187.21,0,0,1,2.83,22.64l0-.76c.49,8.64.41,17.79-2.48,26.05-.3.86-.64,1.71-1,2.54-.18.39-.37.77-.56,1.16-.27.58.66-1.18.22-.42l-.38.67a22.49,22.49,0,0,1-1.41,2.09l-.33.42c-.79,1,1.07-1.19.56-.64-.27.29-.53.58-.82.86s-.32.3-.47.45c0,0,2-1.73,1-1l-.46.37c-.94.79,2.52-1.83,1.24-1-1.62,1.12,2.78-1.71,1.18-.77-1.31.77,2.46-1.33,1.69-.94l-.59.31c-.67.36,2.84-1.26,1.51-.72l-.56.24c-1.12.47,2.3-.79,1.23-.45l-.66.22c-.86.26-1.94.41.22,0-.45.09-.91.19-1.37.26a30.73,30.73,0,0,1-3.18.25c-.53,0,1.31,0,.6,0h-.5l-.85,0c-.59,0-1.17-.09-1.76-.15a44.86,44.86,0,0,1-8.25-1.82c-1.27-.4-3.69.66-4.72,1.09a33.39,33.39,0,0,0-6.72,3.78c-.83.61-7.17,5.41-4.35,6.29,5.34,1.66,11.16,2.65,16.74,1.67a37.66,37.66,0,0,0,11.08-3.92,47.57,47.57,0,0,0,12-8.67c7.24-7.4,9.15-17.77,9.43-27.75.35-12.21-1.39-24.48-3.72-36.43-2.15-11-4.92-21.91-8.09-32.67q-1.63-5.55-3.41-11a34.62,34.62,0,0,0-1.78-5.29,1,1,0,0,1-.08-.23c-.34-1-3.15-.1-3.43,0a34.24,34.24,0,0,0-12.09,7.34c-.69.75-2,1.9-1.58,3.05Z"/><path class="cls-2" d="M981.67,469.86c-2.26,6.55-4.71,13-7.2,19.5-5.79,15-12,29.82-18.77,44.4-4.39,9.46-9,18.8-14,28l.78-1.42a240.88,240.88,0,0,1-19,30c-1.82,2.39-3.71,4.73-5.68,7a3.39,3.39,0,0,0-.29,4.18c1,1.44,3.45,2.14,5.07,2.31,4.54.48,10-.65,13.15-4.23a181.24,181.24,0,0,0,19.15-27.31c6.53-11,12.44-22.47,18-34.06,5.06-10.64,9.8-21.43,14.3-32.32q5.13-12.42,9.83-25c1.41-3.77,3-7.56,4.14-11.43l.06-.16a3.41,3.41,0,0,0-1.7-3.83,11.45,11.45,0,0,0-6.31-1.35,17.2,17.2,0,0,0-7.49,1.86c-1.63.9-3.35,2-4,3.9Z"/><path class="cls-2" d="M1090.13,271c-.87,4.16-1.79,8.31-2.72,12.45q-3.48,15.47-7.33,30.85c-3.31,13.21-6.83,26.37-10.68,39.44-3.8,12.89-7.9,25.72-12.78,38.25-3.67,9.4-7.64,19.18-13.67,27.35-.54.72-1.09,1.42-1.67,2.1l.9-1.05a16.93,16.93,0,0,1-5.49,4.53l1.43-.66a10.19,10.19,0,0,1-1.94.62c-1.13.26,1.11-.16,1.28-.15-.16,0-.33,0-.49,0h-.38c-1.15.06,2.68.27,1.68.12-1.22-.18,2.47.65,2,.5-1-.3-1.09-.74,2.12.86-1.06-.53,2.72,1.62,2,1.14-.89-.58,2.38,1.91,1.66,1.29s1.84,2.13,1.23,1.31,1,2,.79,1.33c-.07-.22-.18-.42-.24-.65l.38,1.53a6.26,6.26,0,0,1,0-2.55L1048,431c.81-4.25,3.21-8.26,5.4-11.92a172.08,172.08,0,0,1,11.87-17q4.37-5.64,9-11.07l-.9,1.06a370.49,370.49,0,0,1,30.34-31.56,274.11,274.11,0,0,1,35-27.87,152.27,152.27,0,0,1,20-11.27l-1.44.65c2-.91,4-1.77,6.08-2.56l-15.7-10.35c-1,1.52-2,3.06-3.06,4.59q-4.18,6.31-8.32,12.68-6.19,9.54-12.29,19.13-7.57,11.92-15,24-8.28,13.43-16.32,27-8.43,14.25-16.53,28.68c-5.28,9.45-10.43,19-15.37,28.6-4.54,8.84-8.91,17.78-12.94,26.87a248.11,248.11,0,0,0-9.22,23.52,89.6,89.6,0,0,0-4.48,19.77c-.1,1.19-.15,2.38-.14,3.57,0,1.77,1.66,3.63,2.84,4.72a18.12,18.12,0,0,0,6.73,3.79c2.58.74,9,1.83,9-2.6a45.52,45.52,0,0,1,.91-9l-.26,1.37a122.93,122.93,0,0,1,5.58-19.14c2.87-7.83,6.18-15.49,9.67-23.06,4-8.72,8.33-17.32,12.77-25.83,4.74-9.08,9.66-18.08,14.68-27q7.66-13.62,15.65-27,7.63-12.86,15.47-25.58,7-11.37,14.16-22.65,5.89-9.3,11.88-18.54,4.2-6.47,8.45-12.9c1.31-2,2.83-3.94,4-6,.05-.08.12-.16.17-.25l.26-1.37a4.21,4.21,0,0,0-.87-2.32,12.35,12.35,0,0,0-3.9-3.88,22.54,22.54,0,0,0-4.8-2.3c-1.65-.56-4.63-1.16-6.39-.48-15,5.78-28.74,14.64-41.45,24.42a336.65,336.65,0,0,0-38,34.52,315.11,315.11,0,0,0-29.18,34.83,119.53,119.53,0,0,0-8.39,13.31c-1.67,3.18-3.26,6.64-3.52,10.28a8.4,8.4,0,0,0,1.82,5.51c2.76,3.75,7.76,6.24,12.31,6.87a15.28,15.28,0,0,0,11.94-3.2,38.88,38.88,0,0,0,7.74-9.47,112.36,112.36,0,0,0,7-13.43,335.77,335.77,0,0,0,13.42-36.55c4.26-13.5,8.07-27.15,11.64-40.85q4.51-17.33,8.52-34.79c1.41-6.12,2.79-12.25,4.09-18.39.06-.28.12-.55.17-.83a4.91,4.91,0,0,0-1.09-4.49,15.46,15.46,0,0,0-5.74-4.39,15.14,15.14,0,0,0-7-1.72c-1.27.09-3.85.36-4.18,2Z"/><path class="cls-2" d="M1107.75,388.28l.66,16,1.57,38.08,1.9,46.29,1.64,39.91.54,13.12c.08,2.08.07,4.19.25,6.26,0,.09,0,.18,0,.27.05,1.33,1.7,2.14,2.69,2.59a21.58,21.58,0,0,0,6.94,1.64,21.33,21.33,0,0,0,7.13-.26c.91-.24,3.19-.72,3.14-2l-.66-16L1132,496.09l-1.9-46.3-1.64-39.9-.54-13.13c-.09-2.07-.07-4.19-.26-6.26a2.44,2.44,0,0,1,0-.27c-.06-1.33-1.7-2.13-2.69-2.59A21.91,21.91,0,0,0,1118,386a21.39,21.39,0,0,0-7.14.27c-.9.24-3.19.72-3.14,2Z"/><path class="cls-2" d="M1169.16,408.06c-4,4.34-8.24,8.54-12.5,12.66-3.9,3.77-7.88,7.45-12,11l-.73.63c-.92.79,1.77-1.5.67-.58q-.84.72-1.68,1.41c-1,.86-2.09,1.71-3.16,2.54-2,1.6-4.1,3.14-6.24,4.58l-1.58,1c3.34-2.19,1-.64.15-.13-.49.28-1,.56-1.48.83s-2.62,1.29-.4.24.26-.14-.32.1l-.74.28c-1.28.48,3-1,1.73-.59l-.69.2c-1.34.39,1.54-.31,1.64-.33l-.57.1c-.75.11-2.09.15,1.32-.05a21.59,21.59,0,0,0-9.44,2.62,16.09,16.09,0,0,0-3.67,2.68,5.63,5.63,0,0,0-1.67,2.73,72,72,0,0,0,2.63,16.36c2.78,10.25,7.82,20.13,15.83,27.28a41.31,41.31,0,0,0,16.92,8.92c9,2.37,18.47,1.91,27.58.63,17.64-2.47,35.5-9,49.24-20.65a74.55,74.55,0,0,0,11.89-12.45,38.72,38.72,0,0,0,3.56-5.63c0-.09.09-.18.13-.28.57-1.25,1-2.45-.31-3.45s-3.81-.88-5.22-.66a21.06,21.06,0,0,0-7.31,2.49c-1.66,1-4,2.25-4.79,4.07a30.47,30.47,0,0,1-2.57,4.33c-.49.71-1,1.4-1.52,2.09l-.45.58c-.83,1.07,1.07-1.29.55-.68-.35.42-.69.84-1,1.25a60.14,60.14,0,0,1-5.24,5.35l-.71.63-.49.43c-.19.17,1.93-1.62,1.12-1-.58.48-1.16,1-1.75,1.42q-1.89,1.49-3.89,2.83l-1.06.69c-1,.66,1.64-1,1.4-.88l-.66.41c-.76.46-1.52.91-2.3,1.35s-1.53.84-2.31,1.25l-1.15.57-.64.32c-.88.43,3-1.39,1.22-.59s-3.64,1.59-5.5,2.27l-1.35.49c-1.47.52,2.79-.92,1.3-.44l-.63.2c-1.06.35-2.13.67-3.21,1s-2.24.6-3.36.86l-1.57.36c-.71.15-1.92.37,1.13-.23l-1.08.21q-3.78.74-7.6,1.15c-1.49.17-3,.29-4.47.41-1.33.1.93-.06,1-.06a6.17,6.17,0,0,0-1.13.06l-1.74,0a59.57,59.57,0,0,1-6.54-.35c2.6.27.43,0-.17-.06s-.9-.16-1.35-.24c-1-.19-1.9-.41-2.84-.67a39.42,39.42,0,0,1-5.47-1.92l1.32.58a39.09,39.09,0,0,1-14.27-10.95l.76.93c-7-8.59-10.82-19.51-12.51-30.36-.26-1.68-.47-3.38-.61-5.07l.1,1.19c0-.5-.08-1-.1-1.51l-14.78,8c12.9-.76,24.12-9,33.73-17a320,320,0,0,0,24.29-22.58c1.6-1.64,3.2-3.29,4.76-5,.85-.9,2.15-2.51,1.58-3.92s-2.64-1.71-3.86-1.72a17.91,17.91,0,0,0-7,1.49,17.4,17.4,0,0,0-6.08,3.82Z"/><path class="cls-2" d="M1292.52,235.26c-2.47,3.8-4.9,7.63-7.33,11.45q-8.7,13.71-17.16,27.55c-6.79,11.12-13.48,22.31-19.89,33.65-5.53,9.75-11,19.61-15.57,29.86a78.12,78.12,0,0,0-4.32,11.38c-.81,3-.93,5.94.6,8.78a16.78,16.78,0,0,0,5.37,5.8,18.46,18.46,0,0,0,6.5,3.09c1.17.21,3.54.38,4.33-.93s.35-3.08-.4-4.4a15.6,15.6,0,0,0-4.88-5.3c-.39-.26-1-.79.85.73a17.1,17.1,0,0,1,2.49,2.47c-.5-.63,1.47,2.45,1,1.39,0,.12.69,2.33.53,1.22,0-.18-.07-.36-.09-.54l.15,1.5c-.26-2.78.95-5.78,1.9-8.32l-.46,1.21a184.6,184.6,0,0,1,10.28-21.76c4.94-9.32,10.18-18.48,15.52-27.57q8.16-13.87,16.63-27.55,6.74-10.89,13.6-21.7c2.12-3.33,4.42-6.6,6.41-10l.09-.14c.88-1.35.28-3.12-.39-4.4a16.51,16.51,0,0,0-4.88-5.3,16.19,16.19,0,0,0-6.51-3.09c-1.37-.2-3.43-.45-4.32.93Z"/><path class="cls-2" d="M1324.57,280.76q-2,2.6-4,5.2-5.4,7.11-10.71,14.3-7.86,10.59-15.56,21.29-9.4,13.06-18.59,26.29-10.11,14.58-19.88,29.4-9.86,15-19.19,30.26c-5.83,9.6-11.47,19.31-16.74,29.22a290,290,0,0,0-13,27.09c-2.77,6.79-5.3,13.85-6.42,21.12-.75,4.91-1,10.77,1.59,15.21a13.8,13.8,0,0,0,2.49,3.33,14.38,14.38,0,0,0,5.47,3.17,20.09,20.09,0,0,0,7.65,1c1.57-.15,4-.33,5-1.74a2.58,2.58,0,0,0-.33-3.57,9.83,9.83,0,0,1-1.62-1.95l.79,1.24a14.25,14.25,0,0,1-1.91-6.13l.12,1.23c-.54-5.67.83-11.49,2.43-16.9a159.91,159.91,0,0,1,8.87-22.51c2.29-4.9,4.73-9.73,7.25-14.51l-.58,1.09c7.31-13.83,15.32-27.28,23.63-40.53,8.73-13.94,17.81-27.66,27.1-41.24q12.66-18.5,25.81-36.66Q1324,312,1334,298.77c3-3.95,6.08-7.8,9-11.81l.12-.16c2.5-3.25-3.48-6-5.8-6.73a20.11,20.11,0,0,0-7.65-1c-1.61.15-3.95.34-5,1.73Z"/><path class="cls-2" d="M1282.6,379.88a27.32,27.32,0,0,1,2.17,5.59,84.34,84.34,0,0,1,3.13,17.91c.69,8.65-.07,17.35,2.09,25.84a43.84,43.84,0,0,0,7.13,15.34,27.51,27.51,0,0,0,5.8,5.95c.87.63,4.09-.34,4.78-.52a36.26,36.26,0,0,0,7.17-2.83c1.72-.91,3.78-1.87,5.06-3.36l.71-.91a.73.73,0,0,0-.5-1.15l-.05,0,.58.43a26.16,26.16,0,0,1-4.88-5.09,43.25,43.25,0,0,1-7.13-14.6,54.39,54.39,0,0,1-1.85-11.18c-.28-4.53-.1-9.07-.38-13.6a90.53,90.53,0,0,0-2.93-18.87A30.22,30.22,0,0,0,1301,372c-.52-.91-2.73-.47-3.35-.37a29.2,29.2,0,0,0-6.77,2.16,28.78,28.78,0,0,0-6.22,3.43c-.56.44-2.55,1.77-2,2.68Z"/><path class="cls-2" d="M1357.57,220.46a282.5,282.5,0,0,1,29.45-14.3c3.89-1.61,7.84-3.11,11.87-4.33l-1.31.4a42.06,42.06,0,0,1,10-1.94c.89,0-2,0-1.15,0l.57,0c.27,0,.54,0,.82.07,1.23.1-2.65-.53-1.09-.17s-2.84-1-1.44-.42c-3-1.17-4.74-2-6.83-4.22.92,1-1-1.64-.56-.77.07.16.18.31.25.48l-.5-1.27a4.92,4.92,0,0,1,.21,2.38l.13-1.09a20.49,20.49,0,0,1-2.14,6.22,71.72,71.72,0,0,1-4.85,8.24,184.25,184.25,0,0,1-15.44,19.69q-5.22,5.89-10.79,11.47l.77-.77a196.26,196.26,0,0,1-14.63,13.32,90.11,90.11,0,0,1-13.57,9.47,32.86,32.86,0,0,1-6.47,2.82l1.31-.39a16.15,16.15,0,0,1-2.48.55c-.37.05-.74.06-1.11.1-.86.08,2.11.05,1.1,0l-.55,0c-.15,0-.3,0-.45,0-.92,0,2.59.47,1.59.26-1.56-.33,2.56.81,1.58.48a19.34,19.34,0,0,1,6.88,4,6.94,6.94,0,0,1,1.65,1.87,2.25,2.25,0,0,1-.12-.21l.51,1.27a1.42,1.42,0,0,1-.08-.65l-.12,1.09a6.2,6.2,0,0,1,2.07-3.18l-.77.77c4.06-4.05,9.3-7,14.26-9.8A189.44,189.44,0,0,1,1379.22,251c4.94-1.93,9.94-3.68,15-5.21l-1.31.4a144.54,144.54,0,0,1,17.3-4.12q4.11-.71,8.27-1.07c1.38-.12,2.75-.21,4.14-.26l.91,0h.53c.21,0-1.79,0-1.1,0s1.37,0,2,0c1.42,0,2.83.11,4.24.25.69.06,1.37.14,2,.23l1,.14c-2.86-.38-2-.33-1.39-.22l.7.13-12.21-8.5c-.17,1.59-.33,3.17-.48,4.76-.42,4.33-.79,8.66-1.14,13q-.75,9.58-1.31,19.19-.68,11.82-1,23.65c-.25,8.69-.37,17.39-.29,26.09.08,8.88.36,17.76.93,26.61.54,8.43,1.35,16.85,2.61,25.2a152.46,152.46,0,0,0,4.74,21.77,68.83,68.83,0,0,0,7.79,17.76,41.16,41.16,0,0,0,16.91,14.79,47.46,47.46,0,0,0,7.56,2.75c1.26.35,3.89.73,5.15-.07s1-2.05.39-3.13c-2.36-3.89-7.53-6.06-11.7-7.22-1.29-.36,2.73.87,1.66.49l-.52-.17c-1.31-.47-1.73-.84,1.24.55l-1-.45c-.84-.41-2-1.27,1.67.93L1452,419l-.9-.58c-1-.67,2.44,1.77,1.4,1L1452,419c-.31-.24-.61-.49-.91-.75l-.39-.35c2.44,2.12,1.69,1.59,1.21,1.11l-.29-.27c-.6-.59-1.18-1.21-1.73-1.86-.26-.3-.51-.61-.76-.93-.79-1,.94,1.27.58.77l-.43-.59a42.42,42.42,0,0,1-2.94-4.77,62.12,62.12,0,0,1-2.93-6.37l.51,1.27c-4.43-11.22-6.52-23.32-8-35.24a393.84,393.84,0,0,1-2.58-42.46c-.19-13.94.12-27.88.76-41.8q.74-16.18,2.07-32.33.42-5.1.91-10.17c.14-1.55.44-3.14.47-4.7a1.23,1.23,0,0,1,0-.19,5.53,5.53,0,0,0-1.57-2.66,12.94,12.94,0,0,0-2.54-2.13,21.6,21.6,0,0,0-8.09-3.71c-13.36-2.51-27-.82-40.06,2.54a197.67,197.67,0,0,0-38,14.16,142.77,142.77,0,0,0-13.95,7.76,46.46,46.46,0,0,0-9.12,7.22,6.61,6.61,0,0,0-1.62,2.43c-.81,2.78,1.33,5,3.31,6.61,5,4.13,12.48,6.63,19,5.13a39.26,39.26,0,0,0,11.94-5.31,111,111,0,0,0,12.83-9.6,235.92,235.92,0,0,0,26.77-27c3.7-4.34,7.26-8.81,10.56-13.46a79.65,79.65,0,0,0,7-11.41c1.21-2.53,2.62-5.81,2.12-8.68-.6-3.39-3.8-6-6.52-7.68a28.41,28.41,0,0,0-12.49-4.38c-5.19-.43-10.27,1-15.17,2.48a145.08,145.08,0,0,0-15.61,6c-8.12,3.57-16.08,7.54-23.88,11.77l-1.3.71c-1.25.7-1,2.09-.4,3.13a13.44,13.44,0,0,0,4.6,4.21,22.88,22.88,0,0,0,7.11,3c1.6.33,3.63.77,5.14-.07Z"/><path class="cls-1" d="M949.85,169.94a18.84,18.84,0,0,1,1.63-2.44c.31-.42.63-.83,1-1.24l.56-.67.32-.37c-.09.11-.4.44,0,0,1.05-1.16,2.14-2.27,3.29-3.34,1.42-1.32,2.91-2.56,4.46-3.74l1.27-.94c.48-.35.44-.37,0,0,.26-.2.55-.38.83-.56,1-.68,2-1.33,3-2s2.33-1.36,3.52-2l.39-.21c-.79.42.38-.19.54-.26.66-.33,1.33-.65,2-1s1.31-.6,2-.88l1-.4.55-.23c.83-.35,0,0-.36.14,1.54-.53,3-1.16,4.59-1.67l1.41-.46c.37-.12,1.1-.31-.57.17l.81-.24c.94-.28,1.88-.55,2.83-.8s2.09-.54,3.14-.79c.36-.09,1.13-.23-.48.1l.73-.16,1.66-.35c1.08-.22,2.16-.42,3.24-.61l1.77-.29.8-.13c.69-.1.66-.11,0,0,2.53-.42,5.1-.64,7.65-.87l-3.16-1.13L990.7,154.4l-15.07,18.71-3.48,4.31c-.51.64.58,1,.93,1.1a9.59,9.59,0,0,0,3.66-.17c2.29-.45,5.28-1.14,6.82-3.06L993,163.57l15.07-18.71,3.48-4.31c1.06-1.32-3-1.15-3.16-1.13-16.73,1.45-33.52,5.5-48.33,13.6a63.29,63.29,0,0,0-19.36,15.74,24.37,24.37,0,0,0-2.29,3.31c-.94,1.75,4.07,1,4.59.93a18.72,18.72,0,0,0,4.42-1.36,5.15,5.15,0,0,0,2.41-1.7Z"/><path class="cls-1" d="M939.46,226.71c1.56-1.34,3.19-2.6,4.83-3.85l1.16-.89.72-.54c.31-.23,1.3-.78.08-.06,1.12-.66,2.15-1.57,3.21-2.33q4-2.82,8-5.48,10.75-7.08,22.1-13.2a6.45,6.45,0,0,1,.58-.31c-1.21.59-.18.09.06,0l1.46-.78c1.2-.63,2.41-1.26,3.62-1.87q3.6-1.85,7.26-3.58t7.36-3.39c1.27-.57,2.55-1.13,3.83-1.67l1.77-.76,1.07-.45c.29-.12,1.93-.84.47-.19,6.17-2.73,12.66-4.93,19.06-7l2.41-.79,1.22-.38c.64-.21.54-.17-.31.09l.82-.25q2.48-.77,5-1.48,5.51-1.59,11.09-2.95a13.64,13.64,0,0,0,4-1.61c.39-.26,1.55-1,1.36-1.7-.46-1.73-5.43-.42-6.27-.21A308.87,308.87,0,0,0,975.3,197.6a294.33,294.33,0,0,0-40.1,25.1c-2.11,1.58-4.23,3.19-6.23,4.91s1.76,1.95,2.73,1.86c2.6-.25,5.72-1,7.76-2.76Z"/><path class="cls-1" d="M1115.58,161.85a67.76,67.76,0,0,1-7.62-5.41,65.55,65.55,0,0,1-13.38-14c-3.87-5.8-6.51-13.07-5.47-19.87a48.65,48.65,0,0,1,2.71-10.07,37,37,0,0,1,2-4.4c.34-.65.71-1.28,1.1-1.91-.45.72.25-.37.35-.51.23-.32.46-.65.7-1a30,30,0,0,1,3-3.33c.79-.77-.55.44.17-.15l.81-.67c.62-.48,1.27-.91,1.92-1.36s-.46.29-.48.3a4.27,4.27,0,0,0,.51-.3l1-.52c.25-.12,1.48-.69.43-.23s.46-.18.71-.28.7-.26,1.06-.39c1.18-.44-1.58.47-.18.06l1.14-.32.64-.15c1-.25-1.57.3-.5.1.82-.15,1.64-.3,2.48-.4l.57-.07c1-.14-1.18.08-.43,0,.54,0,1.09-.09,1.64-.11.93,0,1.86-.07,2.8-.06h.64c.87,0-.2,0-.29,0a8,8,0,0,1,2,.11,63.86,63.86,0,0,1,13,2.18,23.34,23.34,0,0,1,2.32.77c.36.14.71.28,1.06.44l.57.26.39.2c-.36-.2.51.3.65.39.3.18.58.37.86.56a15.62,15.62,0,0,1,1.62,1.3,14.12,14.12,0,0,1,1.37,1.42c.2.24.38.48.57.72l.23.33c-.35-.5,0,0,.08.12a17.16,17.16,0,0,1,1.57,3.43,21.2,21.2,0,0,1,.84,7.8c0-.55,0,.39,0,.54l-.12,1c-.1.74-.23,1.48-.38,2.22-.29,1.43-.67,2.85-1.1,4.25a56.33,56.33,0,0,1-3.43,8.35q-1,2-2.14,3.92l-.48.79-.14.23c.28-.45-.12.18-.14.22-.4.63-.81,1.24-1.23,1.85a50.07,50.07,0,0,1-4.69,5.87c-.36.37-.72.74-1.09,1.1a3.68,3.68,0,0,0-.54.5c.4-.62.74-.64.44-.39l-.41.35c-.32.27-.65.53-1,.78l-.48.34c-.74.51,1.24-.68.46-.29a4.52,4.52,0,0,0-.49.25c1.48-.93,1.39-.59.8-.37-.78.29,1.89-.55,1-.34a13.34,13.34,0,0,1,2.43-.38c-2.55.21-6,.83-7.71,2.94s1.44,2.67,2.91,2.55c6.56-.54,11.56-4.16,15.7-9a63.76,63.76,0,0,0,9.69-15.69c2.45-5.62,4.21-11.87,3.74-18.06a17,17,0,0,0-8.57-13.79c-4-2.26-8.47-3.18-13-4a70.5,70.5,0,0,0-14.57-1.19c-8.82.26-18.17,2.62-25.22,8.15a35,35,0,0,0-11.4,17.23,39.9,39.9,0,0,0-2.15,11.58,27.4,27.4,0,0,0,2.32,11c2.91,6.81,7.87,12.7,13.28,17.67a78.58,78.58,0,0,0,11.19,8.62l.65.4c2.16,1.29,5.36.58,7.55-.32.67-.28,5.35-2.66,3.3-3.88Z"/><path class="cls-1" d="M1208.26,83.65c.88-.54,1.79-1,2.71-1.52l.68-.35c1-.53-1.44.71-.39.2q.95-.48,1.92-.93c1.46-.69,2.93-1.33,4.42-2,1.78-.73,3.59-1.41,5.41-2,1.07-.38-1.27.42-.5.17l.74-.25,1.52-.48c1.11-.35,2.22-.68,3.35-1s2.13-.57,3.2-.83l1.75-.4,1.07-.23c.43-.09,1.63-.21-.12,0,2.61-.33,5.18-.89,7.8-1.17q1.1-.12,2.19-.21l1.21-.1c.34,0,1.62-.15.17,0a47.8,47.8,0,0,1,4.79-.11c1.64,0,3.29.06,4.93.17q1.31.09,2.61.21c-.19,0-.94-.11,0,0l1.77.23-1.1-4.09-11.54,9.36-18.52,15-4.25,3.45a2.78,2.78,0,0,0-1.15,2.5c.25.92,1.42,1.43,2.25,1.58a10.5,10.5,0,0,0,8.2-2.19L1245,89.34l18.52-15,4.25-3.45a2.78,2.78,0,0,0,1.15-2.5,2.69,2.69,0,0,0-2.25-1.58c-21.12-2.86-42.82,1.71-61.71,11.34-1.3.66-2.6,1.33-3.84,2.1-1.5.93-3.53,3.39-1,4.51s6,.28,8.21-1.09Z"/><path class="cls-1" d="M1191.83,138.75a45,45,0,0,1,4.09-2.62c1.68-1,3.4-1.92,5.13-2.82l.77-.39c1-.53-1.82.9-.54.27.62-.3,1.24-.61,1.87-.9,1.32-.63,2.66-1.25,4-1.84,3.12-1.37,6.3-2.64,9.5-3.82l2.66-1c.61-.21,1.75-.58-1,.36l.7-.24,1.66-.56c2-.66,4-1.29,6-1.9,2.28-.68,4.58-1.32,6.88-1.92l1.74-.45.88-.23c1.39-.35-2.55.63-1.15.29s2.65-.64,4-.94c2.57-.59,5.16-1.13,7.76-1.64,1.36-.27,2.72-.52,4.09-.76l2.1-.37c1.61-.28-2.83.47-1.21.2l1.44-.23c3.48-.56,7-1.06,10.48-1.49,1.71-.21,3.42-.4,5.13-.59l2.84-.28c1.75-.18-2.77.25-1,.09l1.66-.15q6-.51,12.06-.82c2.11-.11,4.21-.19,6.33-.26,1.07,0,2.15-.07,3.23-.09l1.41,0-1,0h.94a40.37,40.37,0,0,0,7.68-.73c1.71-.36,4.29-.91,5.77-2,.68-.51,1.78-1.36.73-2.19s-3.41-1-4.77-1a373.93,373.93,0,0,0-47,3.42,296.93,296.93,0,0,0-37.24,7.63,209.57,209.57,0,0,0-25.09,8.58,144.13,144.13,0,0,0-15.57,7.55,52.15,52.15,0,0,0-5.33,3.32l-.07.05c-.77.57-1.66,1.3-.73,2.18s3.68,1,4.77,1a33.48,33.48,0,0,0,7.67-.73c1.89-.42,4.19-.83,5.77-2Z"/><path class="cls-1" d="M1350.85,39.63c1-.89,2.11-1.71,3.21-2.5q1.88-1.35,3.82-2.6c.82-.52,1.65-1,2.47-1.52l-.45.26.58-.33,1.5-.83q3.24-1.77,6.61-3.27c1.19-.53,2.4-1,3.62-1.52l1.92-.73c.61-.24-.93.35-.81.3s.38-.14.57-.21l1.15-.39a88.37,88.37,0,0,1,8.77-2.46c.77-.17,1.53-.33,2.31-.48.39-.07.78-.13,1.17-.22l-.73.13.86-.14c1.69-.27,3.39-.49,5.1-.65,2-.19,3.92-.31,5.88-.36l1.52,0c.18,0,.38,0,.57,0-.59,0-1,0-.15,0,1,0,2.08.05,3.12.11,2.14.12,4.28.32,6.4.61,1.1.15,2.2.32,3.29.51l1.66.31c.21,0,.43.07.63.12l.35.09-.42-6.27-18.43,13.87-29.36,22.1-6.73,5.07c-1.4,1-3,3.3-1.52,5s4.33,2,6.34,1.29c3-1,6.09-1.82,9.17-2.59s6.44-1.46,9.69-2.07c.66-.13-.73.13-.68.12l.73-.13,1.3-.21c.94-.15,1.88-.29,2.83-.41q2.91-.41,5.84-.64c2.24-.19,4.49-.3,6.73-.31h.6c.72,0-1.18,0-.11,0l1.57.05q1.74.07,3.48.24c2.6.26,6.44-.84,7.57-3.48s-1-4.39-3.47-4.63A96.28,96.28,0,0,0,1386.07,52a167,167,0,0,0-19,4.24c-1.14.33-2.28.67-3.4,1.05l4.81,6.28,18.43-13.88,29.37-22.1,6.72-5.06a4.21,4.21,0,0,0,2-3.51,3.11,3.11,0,0,0-2.45-2.76,92.58,92.58,0,0,0-46.74,1.53,99.42,99.42,0,0,0-28.24,13.55,49.18,49.18,0,0,0-4.32,3.29,5.05,5.05,0,0,0-2.06,3,2.93,2.93,0,0,0,1.37,2.77,7.82,7.82,0,0,0,8.29-.77Z"/><path class="cls-1" d="M1350.51,110.06a21.69,21.69,0,0,1,2.83-3.22l.8-.76.42-.38c.68-.63-.79.68-.22.2s1.43-1.22,2.17-1.79,1.75-1.32,2.66-2l1.52-1,.77-.49c.84-.53-1.18.72-.08,0s2.47-1.43,3.73-2.09c.69-.36,1.38-.71,2.08-1.05l1.13-.54.5-.23c1-.46-1.08.48-.48.22,1.62-.71,3.26-1.4,4.92-2,.89-.34,1.79-.66,2.69-1l1.36-.46-.67.22.87-.27c2-.64,4.13-1.21,6.22-1.73,1.12-.28,2.24-.54,3.37-.79s-1.32.28-.4.09l.78-.16,1.86-.37c2.54-.48,5.09-.88,7.65-1.23,1.36-.18,2.73-.34,4.09-.49l.63-.07-.67.07c.32,0,.64-.06,1-.09l2.26-.2c6.43-.51,12.88-.68,19.33-.57l1.16,0h.49l2.79.1c1.84.07,3.68.17,5.52.29q5.85.36,11.69,1c2.06.22,4.12.45,6.17.71a12,12,0,0,0,8.2-2.2c.58-.46,1.51-1.17,1.27-2s-1.44-1-2.12-1.13a253.93,253.93,0,0,0-45.37-1.9,160.94,160.94,0,0,0-33.93,5.3,104.58,104.58,0,0,0-22.88,9.09,67.35,67.35,0,0,0-12.85,9.11,26.62,26.62,0,0,0-3.78,4.09.21.21,0,0,0,0,.06c-.43.63-.8,1.25-.13,1.88s2.23.67,3,.62a14,14,0,0,0,4.53-1c1-.43,2.53-1,3.19-2Z"/><path class="cls-2" d="M938.85,155.94a18.84,18.84,0,0,1,1.63-2.44c.31-.42.63-.83,1-1.24l.56-.67.32-.37c-.09.11-.4.44,0,0,1.05-1.16,2.14-2.27,3.29-3.34,1.42-1.32,2.91-2.56,4.46-3.74l1.27-.94c.48-.35.44-.37,0,0,.26-.2.55-.38.83-.56,1-.68,2-1.33,3-2s2.33-1.36,3.52-2l.39-.21c-.79.42.38-.19.54-.26.66-.33,1.33-.65,2-1s1.31-.6,2-.88l1-.4.55-.23c.83-.35,0,0-.36.14,1.54-.53,3-1.16,4.59-1.67l1.41-.46c.37-.12,1.1-.31-.57.17l.81-.24c.94-.28,1.88-.55,2.83-.8s2.09-.54,3.14-.79c.36-.09,1.13-.23-.48.1l.73-.16,1.66-.35c1.08-.22,2.16-.42,3.24-.61l1.77-.29.8-.13c.69-.1.66-.11,0,0,2.53-.42,5.1-.64,7.65-.87l-3.16-1.13L979.7,140.4l-15.07,18.71-3.48,4.31c-.51.64.58,1,.93,1.1a9.59,9.59,0,0,0,3.66-.17c2.29-.45,5.28-1.14,6.82-3.06L982,149.57l15.07-18.71,3.48-4.31c1.06-1.32-3-1.15-3.16-1.13-16.73,1.45-33.52,5.5-48.33,13.6a63.29,63.29,0,0,0-19.36,15.74,24.37,24.37,0,0,0-2.29,3.31c-.94,1.75,4.07,1,4.59.93a18.72,18.72,0,0,0,4.42-1.36,5.15,5.15,0,0,0,2.41-1.7Z"/><path class="cls-2" d="M928.46,212.71c1.56-1.34,3.19-2.6,4.83-3.85l1.16-.89.72-.54c.31-.23,1.3-.78.08-.06,1.12-.66,2.15-1.57,3.21-2.33q4-2.82,8-5.48,10.75-7.08,22.1-13.2a6.45,6.45,0,0,1,.58-.31c-1.21.59-.18.09.06,0l1.46-.78c1.2-.63,2.41-1.26,3.62-1.87q3.6-1.85,7.26-3.58t7.36-3.39c1.27-.57,2.55-1.13,3.83-1.67l1.77-.76,1.07-.45c.29-.12,1.93-.84.47-.19,6.17-2.73,12.66-4.93,19.06-7l2.41-.79,1.22-.38c.64-.21.54-.17-.31.09l.82-.25q2.47-.77,5-1.48,5.51-1.59,11.09-2.95a13.64,13.64,0,0,0,4-1.61c.39-.26,1.55-1,1.36-1.7-.46-1.73-5.43-.42-6.27-.21A308.87,308.87,0,0,0,964.3,183.6a294.33,294.33,0,0,0-40.1,25.1c-2.11,1.58-4.23,3.19-6.23,4.91s1.76,1.95,2.73,1.86c2.6-.25,5.72-1,7.76-2.76Z"/><path class="cls-2" d="M1104.58,147.85a67.76,67.76,0,0,1-7.62-5.41,65.55,65.55,0,0,1-13.38-14c-3.87-5.8-6.51-13.07-5.47-19.87a48.65,48.65,0,0,1,2.71-10.07,37,37,0,0,1,2-4.4c.34-.65.71-1.28,1.1-1.91-.45.72.25-.37.35-.51.23-.32.46-.65.7-1a30,30,0,0,1,3-3.33c.79-.77-.55.44.17-.15l.81-.67c.62-.48,1.27-.91,1.92-1.36s-.46.29-.48.3a4.27,4.27,0,0,0,.51-.3l1-.52c.25-.12,1.48-.69.43-.23s.46-.18.71-.28.7-.26,1.06-.39c1.18-.44-1.58.47-.18.06l1.14-.32.64-.15c1-.25-1.57.3-.5.1.82-.15,1.64-.3,2.48-.4l.57-.07c1-.14-1.18.08-.43,0,.54,0,1.09-.09,1.64-.11.93,0,1.86-.07,2.8-.06h.64c.87,0-.2,0-.29,0a8,8,0,0,1,2,.11,63.86,63.86,0,0,1,13,2.18,23.34,23.34,0,0,1,2.32.77c.36.14.71.28,1.06.44l.57.26.39.2c-.36-.2.51.3.65.39.3.18.58.37.86.56a15.62,15.62,0,0,1,1.62,1.3,14.12,14.12,0,0,1,1.37,1.42c.2.24.38.48.57.72l.23.33c-.35-.5,0,0,.08.12a17.16,17.16,0,0,1,1.57,3.43,21.2,21.2,0,0,1,.84,7.8c0-.55,0,.39,0,.54l-.12,1c-.1.74-.23,1.48-.38,2.22-.29,1.43-.67,2.85-1.1,4.25a56.33,56.33,0,0,1-3.43,8.35q-1,2-2.14,3.92l-.48.79-.14.23c.28-.45-.12.18-.14.22-.4.63-.81,1.24-1.23,1.85a50.07,50.07,0,0,1-4.69,5.87c-.36.37-.72.74-1.09,1.1a3.68,3.68,0,0,0-.54.5c.4-.62.74-.64.44-.39l-.41.35c-.32.27-.65.53-1,.78l-.48.34c-.74.51,1.24-.68.46-.29a4.52,4.52,0,0,0-.49.25c1.48-.93,1.39-.59.8-.37-.78.29,1.89-.55,1-.34a13.34,13.34,0,0,1,2.43-.38c-2.55.21-6,.83-7.71,2.94s1.44,2.67,2.91,2.55c6.56-.54,11.56-4.16,15.7-9a63.76,63.76,0,0,0,9.69-15.69c2.45-5.62,4.21-11.87,3.74-18.06a17,17,0,0,0-8.57-13.79c-4-2.26-8.47-3.18-13-4a70.5,70.5,0,0,0-14.57-1.19c-8.82.26-18.17,2.62-25.22,8.15a35,35,0,0,0-11.4,17.23,39.9,39.9,0,0,0-2.15,11.58,27.4,27.4,0,0,0,2.32,11c2.91,6.81,7.87,12.7,13.28,17.67a78.58,78.58,0,0,0,11.19,8.62l.65.4c2.16,1.29,5.36.58,7.55-.32.67-.28,5.35-2.66,3.3-3.88Z"/><path class="cls-2" d="M1197.26,69.65c.88-.54,1.79-1,2.71-1.52l.68-.35c1-.53-1.44.71-.39.2q.95-.48,1.92-.93c1.46-.69,2.93-1.33,4.42-2,1.78-.73,3.59-1.41,5.41-2,1.07-.38-1.27.42-.5.17l.74-.25,1.52-.48c1.11-.35,2.22-.68,3.35-1s2.13-.57,3.2-.83l1.75-.4,1.07-.23c.43-.09,1.63-.21-.12,0,2.61-.33,5.18-.89,7.8-1.17l2.19-.21,1.21-.1c.34,0,1.62-.15.17,0a47.8,47.8,0,0,1,4.79-.11c1.64,0,3.29.06,4.93.17q1.31.09,2.61.21c-.19,0-.94-.11,0,0l1.77.23-1.1-4.09-11.54,9.36-18.52,15-4.25,3.45a2.78,2.78,0,0,0-1.15,2.5c.25.92,1.42,1.43,2.25,1.58a10.5,10.5,0,0,0,8.2-2.19L1234,75.34l18.52-15,4.25-3.45a2.78,2.78,0,0,0,1.15-2.5,2.69,2.69,0,0,0-2.25-1.58c-21.12-2.86-42.82,1.71-61.71,11.34-1.3.66-2.6,1.33-3.84,2.1-1.5.93-3.53,3.39-1,4.51s6,.28,8.21-1.09Z"/><path class="cls-2" d="M1180.83,124.75a45,45,0,0,1,4.09-2.62c1.68-1,3.4-1.92,5.13-2.82l.77-.39c1-.53-1.82.9-.54.27.62-.3,1.24-.61,1.87-.9,1.32-.63,2.66-1.25,4-1.84,3.12-1.37,6.3-2.64,9.5-3.82l2.66-1c.61-.21,1.75-.58-1,.36l.7-.24,1.66-.56c2-.66,4-1.29,6-1.9,2.28-.68,4.58-1.32,6.88-1.92l1.74-.45.88-.23c1.39-.35-2.55.63-1.15.29s2.65-.64,4-.94c2.57-.59,5.16-1.13,7.76-1.64,1.36-.27,2.72-.52,4.09-.76l2.1-.37c1.61-.28-2.83.47-1.21.2l1.44-.23c3.48-.56,7-1.06,10.48-1.49,1.71-.21,3.42-.4,5.13-.59l2.84-.28c1.75-.18-2.77.25-1,.09l1.66-.15q6-.51,12.06-.82c2.11-.11,4.21-.19,6.33-.26,1.07,0,2.15-.07,3.23-.09l1.41,0-1,0h.94a40.37,40.37,0,0,0,7.68-.73c1.71-.36,4.29-.91,5.77-2,.68-.51,1.78-1.36.73-2.19s-3.41-1-4.77-1a373.93,373.93,0,0,0-47,3.42,296.93,296.93,0,0,0-37.24,7.63,209.57,209.57,0,0,0-25.09,8.58,144.13,144.13,0,0,0-15.57,7.55,52.15,52.15,0,0,0-5.33,3.32l-.07,0c-.77.57-1.66,1.3-.73,2.18s3.68,1,4.77,1a33.48,33.48,0,0,0,7.67-.73c1.89-.42,4.19-.83,5.77-2Z"/><path class="cls-2" d="M1339.85,25.63c1-.89,2.11-1.71,3.21-2.5q1.88-1.35,3.82-2.6c.82-.52,1.65-1,2.47-1.52l-.45.26.58-.33,1.5-.83q3.24-1.77,6.61-3.27c1.19-.53,2.4-1,3.62-1.52l1.92-.73c.61-.24-.93.35-.81.3s.38-.14.57-.21l1.15-.39a88.37,88.37,0,0,1,8.77-2.46c.77-.17,1.53-.33,2.31-.48.39-.07.78-.13,1.17-.22l-.73.13.86-.14c1.69-.27,3.39-.49,5.1-.65,2-.19,3.92-.31,5.88-.36l1.52,0h.57c-.59,0-1,0-.15,0,1,0,2.08.05,3.12.11,2.14.12,4.28.32,6.4.61,1.1.15,2.2.32,3.29.51l1.66.31c.21,0,.43.07.63.12l.35.09-.42-6.27-18.43,13.87-29.36,22.1-6.73,5.07c-1.4,1-3,3.3-1.52,5s4.33,2,6.34,1.29c3-1,6.09-1.82,9.17-2.59s6.44-1.46,9.69-2.07c.66-.13-.73.13-.68.12l.73-.13,1.3-.21c.94-.15,1.88-.29,2.83-.41q2.91-.41,5.84-.64c2.24-.19,4.49-.3,6.73-.31h.6c.72,0-1.18,0-.11,0l1.57.05q1.74.07,3.48.24c2.6.26,6.44-.84,7.57-3.48s-1-4.39-3.47-4.63A96.28,96.28,0,0,0,1375.07,38a167,167,0,0,0-19,4.24c-1.14.33-2.28.67-3.4,1.05l4.81,6.28,18.43-13.88,29.37-22.1L1412,8.55A4.21,4.21,0,0,0,1414,5a3.11,3.11,0,0,0-2.45-2.76,92.58,92.58,0,0,0-46.74,1.53,99.42,99.42,0,0,0-28.24,13.55,49.18,49.18,0,0,0-4.32,3.29,5.05,5.05,0,0,0-2.06,3,2.93,2.93,0,0,0,1.37,2.77,7.82,7.82,0,0,0,8.29-.77Z"/><path class="cls-2" d="M1339.51,96.06a21.69,21.69,0,0,1,2.83-3.22l.8-.76.42-.38c.68-.63-.79.68-.22.2s1.43-1.22,2.17-1.79,1.75-1.32,2.66-2l1.52-1,.77-.49c.84-.53-1.18.72-.08,0s2.47-1.43,3.73-2.09c.69-.36,1.38-.71,2.08-1.05l1.13-.54.5-.23c1-.46-1.08.48-.48.22,1.62-.71,3.26-1.4,4.92-2,.89-.34,1.79-.66,2.69-1l1.36-.46-.67.22.87-.27c2-.64,4.13-1.21,6.22-1.73,1.12-.28,2.24-.54,3.37-.79s-1.32.28-.4.09l.78-.16,1.86-.37c2.54-.48,5.09-.88,7.65-1.23,1.36-.18,2.73-.34,4.09-.49l.63-.07-.67.07c.32,0,.64-.06,1-.09l2.26-.2c6.43-.51,12.88-.68,19.33-.57l1.16,0h.49l2.79.1c1.84.07,3.68.17,5.52.29q5.85.36,11.69,1c2.06.22,4.12.45,6.17.71a12,12,0,0,0,8.2-2.2c.58-.46,1.51-1.17,1.27-2s-1.44-1-2.12-1.13a253.93,253.93,0,0,0-45.37-1.9,160.94,160.94,0,0,0-33.93,5.3,104.58,104.58,0,0,0-22.88,9.09,67.35,67.35,0,0,0-12.85,9.11,26.62,26.62,0,0,0-3.78,4.09.21.21,0,0,0,0,.06c-.43.63-.8,1.25-.13,1.88s2.23.67,3,.62a14,14,0,0,0,4.53-1c1-.43,2.53-1,3.19-2Z"/></g></g></svg>