<svg xmlns="http://www.w3.org/2000/svg" viewBox="0 0 593.31 637.65"><defs><style>.cls-1{fill:#c22939;}.cls-2{fill:#ffeec0;}</style></defs><g id="レイヤー_2" data-name="レイヤー 2"><g id="レイヤー_2-2" data-name="レイヤー 2"><path class="cls-1" d="M296.8,0s-116,120.61-57.14,279.39c0,0-149.42,90.19-142.36,279.18,0,0,114.65-25.61,199.5-156.31,0,0,68.08,116.57,199.66,156.31,0,0,5.74-182.8-144.38-279.29C352.08,279.28,416.54,134.68,296.8,0Z"/><path class="cls-2" d="M296.8,28.26l-3.89,14.56.62,272.33S196.45,364.7,115.12,517.49L108,540s90.18-160.59,188.77-217.52c0,0,89.13,49.1,189.12,217.52,0,0-8.15-33.59-20.62-47.36,0,0-57.47-111.45-164.15-177.31V42.65Z"/><path class="cls-1" d="M241,486.73s9.69,23.75,9.21,85.78,0,65.14,0,65.14h16.48V553.12s-2.91-68.81-12.85-80.93Z"/><polygon class="cls-1" points="306.12 435.88 306.12 628.13 286.82 628.13 286.82 436.08 296.31 418.19 306.12 435.88"/><path class="cls-1" d="M349.66,486.73s-9.69,23.75-9.2,85.78,0,65.14,0,65.14H324V553.12s2.91-68.81,12.84-80.93Z"/><path class="cls-1" d="M146.53,297.16s-18.36,3.52-26.13-5.39-4.25-19.77-1.83-23.17c3.82-5.33,9.73-8.41,17.82-9.63a18.32,18.32,0,0,1-4-17.75,20.41,20.41,0,0,1,19.6-14.51c11.7-.08,20.73,10.77,21.33,11.24,0,0,0,0,0,0,0-.69.93-12,11.77-15.79,11.18-3.87,23.07,2.92,26.47,9.46,4.45,8.54,1.88,18.36-5.26,25.27,0,0,13.82,1.14,15,15.64s-12.87,20.13-19.38,20.72-12.49-2.92-12.49-2.92,1.34,15.1-10.94,21.17c-13.4,6.63-23.75-2.85-26.6-5.52C149.93,304.17,146.53,297.16,146.53,297.16Z"/><path class="cls-2" d="M202.54,269.68s-15.58-1.32-26.06,4.79c-12.58,7.33-15.36,23.84-15.36,23.84S157.78,289,160,279.89l-19.64.64s-.64-5.39,7.7-7.19,16.95.9,16.95.9l1.66-1.93s-16.23-17.08-15.3-25.71a89.92,89.92,0,0,1,22.57,22l4.36-1.23s-4.68-7.5-1.24-13.74a14.56,14.56,0,0,1,10.19-7.07s-6.66,9.88-2.19,18.72C185,265.32,198.63,262.61,202.54,269.68Z"/><path class="cls-1" d="M112.11,266.16a26.88,26.88,0,0,1,9-8.11S115.06,248,119,236.74s20.21-16.53,20.21-16.53,16.8-5.88,22-11.15,9.69-17.39,8.3-22.23-2.44-5.41-4.24-5.13-2.76,2.07-2.21,5.76-.64,15.9-9.54,14.63,6.24-17,6.25-19,3-7.37-3.09-6.83S145,194.66,141.1,193.32s-5.53-.6-4.46-6,8.82-9.34,13.87-10.06,1.37-8.8-4.23-5.8S127.5,178,127,191.35s-.15,25.53-.15,25.53l-16.69,18.81-3.19-.15-20.2-43.1,14.85-21.11a9.63,9.63,0,0,1,5.74-3.85c5.55-1.28,16.43-4.64,23.46-12.27a28.49,28.49,0,0,0,7.54-20.62c-.3-10.23-5.95-9-5.74-5,.13,2.27-.1,6.45-.1,8,0,5-6.35,12.42-10.26,10s1.4-12.56,2.88-15.11c3-5.12,5.14-8.23,2.29-9.71-3.09-1.59-5.18,3.13-8.58,7.24-2,2.46-8.16,11.9-11.89,10.2s-3.23-10.41,3.08-14.35c5.3-3.3,6.91-2.53,8.36-4.46s-2.43-5.84-10.11-1.12c-6.86,4.23-10.16,7.15-13.09,17.87s4.89,19.54-1.19,30.39a68,68,0,0,1-6.93,10l-6,0L63.37,128.63a9.13,9.13,0,0,1,0-6.06c1.69-5,4.7-15.44,3.64-25C65.63,85.4,56.58,80.07,55.1,78.94c-5-3.78-11.94.44-5.48,4.11,4,2.3,7.08,4.87,8,7.4,1,2.75,1.66,9.17-2.59,9.51-3.47.28-9.76-12.69-10.28-14.15s-3-6.6-6.14-5.15-1.7,6.26-.56,7.93,7.36,12.16,3,16.84c-3.11,3.3-7.18-1.56-8.52-6.5A28.63,28.63,0,0,1,32,87.56c.54-4.63-5.17-5.74-6,3.74-.58,7,2.38,18.35,6,22.06a71,71,0,0,0,17.8,13.43,10.64,10.64,0,0,1,5.14,6l16.93,49-1.73,3.31-12.84-.15s-12.66-22-24.6-25.11-21.36-.37-23,.59-5.09,6.27,4.32,4.37,15.68.87,17.87,6-15.94,1.05-19.66-.59-8.08-.41-8.34,1.21,1.47,4.36,6.82,5.38,15.39,5.42,14.5,10.27S12.07,188.26,9.35,184s-6.09-6.31-7.17-5.77-4.53,2.32.41,8.3,18.79,13.45,32,10.36,20.24-5.59,20.24-5.59l23.75,3.31,18.77,44.44v3.53l-18.45-.09A8.92,8.92,0,0,1,72,239.2c-4.58-5.72-14.86-17.14-25.6-19.72-14.47-3.47-21.29.63-23.19,2.26s-3.25,7.57,4.45,4.58,14.35-3.12,18,2.48c4.26,6.54-10.83,4.84-16,3.5-6.62-1.7-10.24-1.6-11,.28s.36,3.66,9.71,5.21,14,5.74,13.81,8.63-12,4.61-15.87-.2S21.8,239,18.5,240.13c-1.89.67-2.68,6.29,4.73,10.86s17.21,10,33.87,3.32,16-5.84,16-5.84S100.75,245.06,112.11,266.16Z"/><path class="cls-1" d="M173.28,320.4s-.34,4.74-7.54,12.33c-10.37,10.9-28.38,4.8-28.38,4.8a24.47,24.47,0,0,1-4.91,16.16c-3.52,4.95-14.47,11.26-27.88,7.25s-16.14-18.28-16.14-18.28-10.5,5.48-22.06.87-15.69-18.07-11.16-29.4,19.9-14.43,19.9-14.43c-3.21-3.4-4.79-14-2-22,2.12-6.22,7.12-12.81,20-14.24s17.38,5.12,17.38,5.12-2.82,3.87-2.42,12.1,7.61,16.13,7.61,16.13c8.82,9.88,27.21,6.44,27.21,6.44v3c-16.35-1.89-22.81,3.93-22.81,3.93-12.33-17.07-23.7-18.85-23.7-18.85-1,4.74,17.54,23.36,17.54,23.36l-3.81,4.1s-14.69-5.65-21.55-3.51S81.38,321,81.38,321l25,3.21v20.51H108c2.3-11,5.27-20.85,15.41-28.33,9.88-7.29,24.53-3.87,25.46-3.66,0,0,0,0,.05,0C156,323.72,173.28,320.4,173.28,320.4Z"/><path class="cls-2" d="M142.83,306.29s2.63,4.95,6,6.44c-.93-.21-15.58-3.63-25.46,3.66-10.14,7.48-13.11,17.36-15.41,28.33h-1.66V324.21l-25-3.21s.23-3.55,7.12-5.68,21.55,3.51,21.55,3.51l3.81-4.1s-18.5-18.62-17.54-23.36c0,0,11.37,1.78,23.7,18.85C120,310.22,126.48,304.4,142.83,306.29Z"/><path class="cls-1" d="M446.78,298.34s18.36,3.52,26.13-5.38,4.26-19.78,1.83-23.17c-3.82-5.34-9.73-8.42-17.81-9.64a18.31,18.31,0,0,0,4-17.75,20.42,20.42,0,0,0-19.6-14.51c-11.7-.08-20.73,10.77-21.32,11.25,0,0,0,0,0,0,0-.69-.93-12-11.77-15.79-11.18-3.87-23.07,2.92-26.47,9.46-4.45,8.54-1.88,18.37,5.26,25.27,0,0-13.82,1.14-15,15.64s12.87,20.13,19.39,20.73,12.48-2.92,12.48-2.92-1.34,15.09,10.95,21.16c13.4,6.63,23.74-2.85,26.59-5.52C443.38,305.36,446.78,298.34,446.78,298.34Z"/><path class="cls-2" d="M390.77,270.87s15.58-1.33,26.06,4.78c12.58,7.33,15.37,23.84,15.37,23.84s3.33-9.31,1.15-18.42l19.64.64s.64-5.39-7.7-7.19-16.94.9-16.94.9l-1.67-1.92s16.24-17.09,15.3-25.72a89.73,89.73,0,0,0-22.56,22l-4.37-1.24s4.68-7.5,1.25-13.74a14.57,14.57,0,0,0-10.19-7.07s6.65,9.88,2.18,18.72C408.29,266.5,394.68,263.8,390.77,270.87Z"/><path class="cls-1" d="M481.21,267.34a27.1,27.1,0,0,0-9-8.11s6.1-10.09,2.12-21.3-20.21-16.53-20.21-16.53-16.8-5.89-22-11.15-9.69-17.4-8.29-22.24,2.43-5.41,4.23-5.13,2.76,2.07,2.21,5.76.64,15.91,9.54,14.63-6.24-17-6.25-19-3-7.37,3.09-6.83,11.66,18.41,15.57,17.06,5.53-.59,4.46-6-8.82-9.33-13.87-10.06-1.37-8.8,4.23-5.8,18.78,6.54,19.32,19.89.16,25.53.16,25.53l16.68,18.8,3.19-.14,20.2-43.11-14.85-21.11a9.68,9.68,0,0,0-5.74-3.85c-5.55-1.28-16.43-4.63-23.46-12.26A28.53,28.53,0,0,1,455,135.78c.31-10.23,6-9,5.74-5-.12,2.26.1,6.44.11,8,0,5,6.34,12.41,10.25,10s-1.4-12.56-2.88-15.12c-2.95-5.11-5.14-8.23-2.29-9.7,3.09-1.6,5.18,3.12,8.58,7.24,2,2.45,8.17,11.89,11.89,10.19s3.24-10.41-3.08-14.34c-5.3-3.31-6.91-2.54-8.36-4.47s2.43-5.84,10.11-1.11c6.86,4.22,10.16,7.14,13.09,17.86s-4.89,19.55,1.19,30.39a68.89,68.89,0,0,0,6.94,10l6,0,17.65-49.76a9.22,9.22,0,0,0,0-6.07c-1.7-5-4.7-15.43-3.65-25,1.34-12.18,10.39-17.51,11.87-18.63,5-3.79,11.95.43,5.49,4.11-4,2.3-7.08,4.87-8,7.39-1,2.75-1.66,9.18,2.6,9.52,3.46.28,9.76-12.69,10.27-14.16s3-6.6,6.14-5.15,1.7,6.26.56,7.94-7.36,12.16-2.94,16.84c3.1,3.29,7.18-1.56,8.52-6.51a28.78,28.78,0,0,0,.45-11.37c-.54-4.62,5.17-5.74,6,3.74.58,7-2.38,18.35-6,22.07A71.22,71.22,0,0,1,543.43,128a10.66,10.66,0,0,0-5.15,6l-16.93,49,1.73,3.31,12.85-.15s12.65-22,24.59-25.11,21.36-.37,23.05.6,5.08,6.26-4.32,4.36-15.68.87-17.87,6,15.93,1,19.65-.58,8.08-.42,8.34,1.2S587.9,177,582.56,178s-15.4,5.43-14.5,10.27,13.18,1.18,15.9-3.06,6.09-6.3,7.17-5.77,4.53,2.33-.41,8.31-18.79,13.45-32,10.35-20.25-5.58-20.25-5.58l-23.75,3.3L496,240.25l0,3.53,18.44-.09a8.89,8.89,0,0,0,6.9-3.31c4.58-5.72,14.86-17.13,25.6-19.71,14.47-3.48,21.29.62,23.19,2.25s3.26,7.57-4.44,4.58-14.36-3.12-18,2.49c-4.25,6.54,10.83,4.83,16,3.5,6.62-1.71,10.24-1.61,11,.28s-.36,3.65-9.71,5.2-14,5.74-13.82,8.64,12,4.6,15.87-.21,4.49-7.25,7.78-6.08c1.9.67,2.68,6.28-4.73,10.86s-17.21,10-33.87,3.31-16-5.84-16-5.84S492.57,246.24,481.21,267.34Z"/><path class="cls-1" d="M420,321.57s.34,4.76,7.55,12.35c10.39,10.9,28.39,4.8,28.39,4.8-.34,3.4.26,9.67,4.89,16.15,3.53,5,14.48,11.27,27.89,7.25s16.13-18.28,16.13-18.28,10.5,5.47,22.06.87,15.69-18.06,11.16-29.39-19.87-14.43-19.87-14.43c3.19-3.4,4.76-14,2-22-2.15-6.23-7.14-12.82-20-14.26s-17.41,5.14-17.41,5.14,2.83,3.87,2.45,12.07S477.71,298,477.71,298c-8.85,9.88-27.21,6.44-27.21,6.44v3c16.32-1.9,22.81,3.93,22.81,3.93,12.33-17.07,23.7-18.86,23.7-18.86.93,4.74-17.54,23.36-17.54,23.36l3.78,4.11s14.69-5.66,21.58-3.51,7.1,5.67,7.1,5.67l-25,3.21V345.9h-1.63c-2.32-11-5.27-20.87-15.43-28.33-9.89-7.29-24.53-3.89-25.45-3.68,0,0,0,0,0,0C437.34,324.9,420,321.57,420,321.57Z"/><path class="cls-2" d="M450.5,307.48s-2.66,4.95-6.06,6.41c.92-.21,15.56-3.61,25.45,3.68C480.05,325,483,334.94,485.32,345.9H487V325.39l25-3.21s-.24-3.55-7.1-5.67S483.25,320,483.25,320l-3.78-4.11s18.47-18.62,17.54-23.36c0,0-11.37,1.79-23.7,18.86C473.31,311.41,466.82,305.58,450.5,307.48Z"/></g></g></svg>