<svg xmlns="http://www.w3.org/2000/svg" viewBox="0 0 524.45 524.45"><defs><style>.cls-1{fill:#fceee7;}.cls-2{fill:#9b1e29;}.cls-3{fill:#f8ecee;stroke:#9b1e29;stroke-miterlimit:10;stroke-width:2px;}.cls-4{fill:#4e3427;}</style></defs><g id="レイヤー_2" data-name="レイヤー 2"><g id="レイヤー_1-2" data-name="レイヤー 1"><circle class="cls-1" cx="262.23" cy="262.23" r="262.23"/><circle class="cls-2" cx="260.86" cy="109.28" r="60.59"/><circle class="cls-2" cx="156.22" cy="185.17" r="60.59"/><circle class="cls-2" cx="368.24" cy="185.3" r="60.59"/><circle class="cls-2" cx="196.24" cy="308.28" r="60.59"/><circle class="cls-2" cx="325.51" cy="308.28" r="60.59"/><circle class="cls-3" cx="260.86" cy="219.87" r="30.08"/><path class="cls-4" d="M205,452.11c.11-4.28.11-12.31.11-19.16,0-5,0-9.41-.11-11.23-.43-8.24-5.35-11.45-10.59-11.45-6.85,0-14.35,5.24-14.67,12.52-.1,1.82-.1,5.24-.1,9.2,0,6.53.1,14.55.21,20.12v.11a3,3,0,0,1-3.21,3,2.86,2.86,0,0,1-3-3v-.11c.11-4.28.11-12.31.11-19.16,0-5,0-9.41-.11-11.23-.42-8.35-5.35-11.78-10.59-11.78-6.74,0-14.13,5.46-14.45,13.38-.11,1.82-.11,5.35-.11,9.42,0,6.53.11,14.55.22,19.37v.11a3,3,0,0,1-3,3.21,3.18,3.18,0,0,1-3.21-3.32V452c.22-8.45.32-19.69.32-29.64,0-5.25,0-10.28-.1-14.24V408a3,3,0,0,1,6.09.1V411c0,.43,0,.65.11.65s.22-.11.32-.32c3.43-4.39,9.21-6.75,14.67-6.75,6.2,0,12.2,3,14.34,9.42A19.88,19.88,0,0,1,195,404.59c8.24,0,15.84,5.57,16.16,16.06.11,4.49.21,18.08.21,26.43v4.81a3.22,3.22,0,0,1-3.1,3.54,3.15,3.15,0,0,1-3.21-3.21Z"/><path class="cls-4" d="M250.72,455.75c-13.59,0-24.19-10.17-24.19-25.26,0-15.62,11.24-25.9,23.87-25.9,14.66,0,21.08,11.45,21.08,17.55,0,4.07-2.46,7.07-7.81,7.17-2.46.11-6.1.11-10.06.11-8,0-17.12-.11-19.48-.11-1.07,0-1.28.43-1.28,1.93,0,11.67,7.7,18.84,18,18.84A19.17,19.17,0,0,0,266.35,443a3,3,0,0,1,2.14-1,3.27,3.27,0,0,1,3.21,3.1C271.7,447.61,264.2,455.75,250.72,455.75Zm-.21-45.81c-10.28,0-16.81,9.21-16.81,13.17,0,1.07,1,1.07,13.38,1.07,5.57,0,11.56,0,14.56-.11,2.56-.11,3.53-1.28,3.53-3C265.17,418,261.42,409.94,250.51,409.94Z"/><path class="cls-4" d="M321.78,452.22c.11-4.5.22-12.85.22-19.59,0-4.39-.11-8.13-.22-9.84-.53-8.67-6-12.31-12-12.31-7.49,0-15.95,5.78-16.16,14.34-.11,3.32-.22,9.2-.22,16.59,0,3.42,0,6.95.11,10.81v.1a2.86,2.86,0,0,1-3.1,2.89,3.13,3.13,0,0,1-3.32-3v-.11c.21-8.67.43-18.62.43-27.72,0-6-.11-11.56-.22-16.27V408c0-1.71,1.72-2.78,3.43-2.78a2.76,2.76,0,0,1,3,2.88v4.07a.63.63,0,0,0,.11.43.58.58,0,0,0,.43-.32,19.79,19.79,0,0,1,15.84-7.71c8.88,0,17.44,5.78,17.87,17.13.11,3.42.22,11.34.22,18.72,0,4.5,0,8.89-.11,11.78a2.91,2.91,0,0,1-3.11,3.1,3,3,0,0,1-3.21-3Z"/><path class="cls-4" d="M387,408.12c-.21,8.24-.32,17-.32,26,0,6.85.43,11.77,3.21,15.73a3.68,3.68,0,0,1,.75,2.14,3.21,3.21,0,0,1-3.32,3c-3.53,0-5-5.67-5.24-7.49-.11-.43-.11-.54-.21-.54s-.22,0-.33.22c-3.64,5.56-10.48,8.56-17.23,8.56-8.88,0-17.44-5.35-17.76-17.13-.11-3.85-.32-13.8-.32-21.93,0-3.32,0-6.42.11-8.67a2.91,2.91,0,0,1,3.1-3.11,3,3,0,0,1,3.21,3V408c-.11,4.49-.22,13-.22,19.9,0,4.5.11,8.24.22,10,.53,8.77,6.1,12.41,12.09,12.41,7.49,0,15.63-5.67,15.84-14.45.11-3.64.21-7.27.21-10.91,0-5.68-.1-11.24-.21-16.91v-.11a2.86,2.86,0,0,1,3.1-2.89,3.13,3.13,0,0,1,3.32,3Z"/></g></g></svg>