<?xml version="1.0" encoding="UTF-8"?><svg id="_レイヤー_2" xmlns="http://www.w3.org/2000/svg" viewBox="0 0 187.46 229.68"><defs><style>.cls-1{fill:#4e3427;}.cls-2{fill:#a51a29;}.cls-3{fill:#fbeff1;stroke:#a51a29;stroke-miterlimit:10;stroke-width:2px;}</style></defs><g id="_レイヤー_3"><g><circle class="cls-2" cx="92.96" cy="34.09" r="34.09"/><circle class="cls-2" cx="34.09" cy="76.79" r="34.09"/><circle class="cls-2" cx="153.38" cy="76.86" r="34.09"/><circle class="cls-2" cx="56.6" cy="146.05" r="34.09"/><circle class="cls-2" cx="129.34" cy="146.05" r="34.09"/><circle class="cls-3" cx="92.96" cy="96.31" r="16.93"/></g><g><path class="cls-1" d="m70.52,228.96h-4.94v-18.97c0-6.38-2.29-10.48-7.23-10.48-4.03,0-7.71,3.79-7.71,8.79v20.65h-4.94v-20.23c0-5.24-2.23-9.21-6.86-9.21-4.28,0-8.07,4.21-8.07,9.33v20.11h-4.94v-24.39c0-3.37-.12-5.78-.24-8.49h4.4l.3,5.3h.18c1.81-3.19,4.82-6.02,10-6.02,4.28,0,7.59,2.65,8.97,6.56h.12c2.17-3.91,5.48-6.56,10.54-6.56,4.03,0,10.42,2.59,10.42,13.85v19.75Z"/><path class="cls-1" d="m103.46,227.57c-1.87.9-5.3,2.05-10.3,2.05-9.57,0-15.29-6.74-15.29-16.56,0-10.3,5.78-17.7,14.63-17.7,10.12,0,12.7,9.27,12.7,14.99,0,1.14-.06,1.99-.12,2.77h-22.34c.06,9.09,5.24,12.52,11.14,12.52,4.09,0,6.56-.84,8.61-1.69l.96,3.61Zm-3.19-18.18c.06-4.46-1.81-10.24-8.25-10.24-6.02,0-8.67,5.72-9.15,10.24h17.4Z"/><path class="cls-1" d="m138.92,228.96h-5v-19.39c0-5.36-1.93-10.06-7.65-10.06-4.27,0-8.61,3.61-8.61,9.33v20.11h-5v-24.39c0-3.37-.12-5.84-.24-8.49h4.46l.3,5.36h.12c1.63-3.19,5.42-6.08,10.54-6.08,4.09,0,11.08,2.47,11.08,13.61v19.99Z"/><path class="cls-1" d="m174.33,220.23c0,3.37.18,6.2.3,8.73h-4.52l-.24-5.18h-.18c-1.5,2.59-4.88,5.9-10.48,5.9-4.94,0-10.78-2.83-10.78-14.15v-19.39h5v18.48c0,6.38,1.87,10.84,7.35,10.84,3.91,0,8.55-3.13,8.55-8.91v-20.41h5v24.08Z"/></g></g></svg>