<?xml version="1.0" encoding="UTF-8"?><svg id="_レイヤー_2" xmlns="http://www.w3.org/2000/svg" viewBox="0 0 50 53.53"><defs><style>.cls-1{fill:#e5b3a0;}.cls-1,.cls-2,.cls-3{stroke:#9c1e29;stroke-miterlimit:10;}.cls-1,.cls-3{stroke-width:2px;}.cls-2{fill:none;}.cls-3{fill:#9c2b28;}</style></defs><g id="_レイヤー_6"><g><g><rect class="cls-2" x="10.27" y=".5" width="29.5" height="7.06"/><rect class="cls-2" x="10.27" y="45.97" width="29.5" height="7.06"/><path class="cls-2" d="m19.46,42.89l-.16-.46c-3.5-10.14-3.5-21.15,0-31.29l.16-.46h11.12s.16.46.16.46c3.5,10.14,3.5,21.15,0,31.29l-.16.46h-11.12Z"/><path class="cls-3" d="m9.26,42.86l-4.15-4.58c-1.99-2.19-3.4-4.67-3.78-7.28-.49-3.32-.43-6.45.17-9.44.39-1.94,1.31-3.81,2.71-5.48l4.51-5.4h6.77s-3,9.99-3,9.99c-1.01,4.31-.99,8.73.08,13.03l2.68,9.16h-5.99Z"/><path class="cls-3" d="m40.74,10.69l4.15,4.58c1.99,2.19,3.4,4.67,3.78,7.28.49,3.32.43,6.45-.17,9.44-.39,1.94-1.31,3.81-2.71,5.48l-4.51,5.4h-6.77s3-9.99,3-9.99c1.01-4.31.99-8.73-.08-13.03l-2.68-9.16h5.99Z"/></g><line class="cls-1" x1="17.96" y1="7.56" x2="17.96" y2=".5"/><line class="cls-1" x1="32.76" y1="7.56" x2="32.76" y2=".5"/><line class="cls-1" x1="17.96" y1="53.03" x2="17.96" y2="45.97"/><line class="cls-1" x1="32.76" y1="53.03" x2="32.76" y2="45.97"/></g></g></svg>