<svg xmlns="http://www.w3.org/2000/svg" viewBox="0 0 616.54 615.91"><defs><style>.cls-1,.cls-2{fill:#c22939;}.cls-2{stroke:#ffeec0;stroke-miterlimit:10;stroke-width:4.47px;}</style></defs><g id="レイヤー_2" data-name="レイヤー 2"><g id="レイヤー_2-2" data-name="レイヤー 2"><path class="cls-1" d="M280.62,273l-114.76-172A62.86,62.86,0,0,0,155,88.51C119.45,57.38,90.21,91,90.21,91c-20.06,19.35-15.87,39.45-8.36,53.33A65.38,65.38,0,0,0,103,167.22L272.28,281.38Z"/><path class="cls-1" d="M343.63,336.06l172,114.75a63.45,63.45,0,0,1,12.57,10.83c31.13,35.59-2.5,64.82-2.5,64.82-19.35,20.07-39.45,15.87-53.33,8.36a65.47,65.47,0,0,1-22.88-21.17L335.3,344.4Z"/><path class="cls-1" d="M272.91,336.06,101,450.81a63.23,63.23,0,0,0-12.58,10.83c-31.13,35.59,2.5,64.82,2.5,64.82,19.35,20.07,39.45,15.87,53.33,8.36a65.47,65.47,0,0,0,22.88-21.17L281.25,344.4Z"/><path class="cls-1" d="M345.16,281.38,515.59,165.09a63.08,63.08,0,0,0,12.57-10.82c31.13-35.59-2.5-64.82-2.5-64.82-19.35-20.07-39.45-15.87-53.33-8.37a65.5,65.5,0,0,0-22.88,21.18L334.27,271.06Z"/><path class="cls-1" d="M269.29,286.28,97.46,171.33a63.41,63.41,0,0,0-14.81-7.48C37.86,148.71,23.72,191,23.72,191c-11.13,25.56.43,42.52,12.68,52.47a65.45,65.45,0,0,0,28.32,13l200,40.7Z"/><path class="cls-1" d="M352.05,319.36,554.4,360.6a63.09,63.09,0,0,1,15.76,5.19c42.39,21,22.5,60.85,22.5,60.85-10.2,25.94-30.37,29.76-46.07,28.13A65.38,65.38,0,0,1,517.35,444L347.11,331.28Z"/><path class="cls-1" d="M286.28,347.45,171.34,519.28a62.64,62.64,0,0,0-7.48,14.81C148.72,578.88,191,593,191,593c25.56,11.13,42.52-.43,52.47-12.68a65.39,65.39,0,0,0,13-28.32L297.18,352Z"/><path class="cls-1" d="M330.12,268.46,445.06,96.63a63,63,0,0,0,7.48-14.81C467.68,37,425.42,22.89,425.42,22.89c-25.55-11.13-42.52.43-52.47,12.68a65.45,65.45,0,0,0-13,28.32L319.22,263.94Z"/><path class="cls-1" d="M264.92,320.14,62.14,360.36a62.82,62.82,0,0,0-15.76,5.19c-42.38,21-22.5,60.84-22.5,60.84,10.2,25.95,30.37,29.76,46.07,28.14A65.48,65.48,0,0,0,99.2,443.72L269.43,331Z"/><path class="cls-1" d="M347.25,286l171.83-115a63,63,0,0,1,14.81-7.48c44.8-15.14,58.94,27.12,58.94,27.12,11.13,25.55-.44,42.52-12.69,52.47a65.45,65.45,0,0,1-28.32,13L351.77,296.93Z"/><path class="cls-1" d="M320.19,351.38l40.22,202.78a63.34,63.34,0,0,0,5.18,15.76c21,42.38,60.85,22.5,60.85,22.5,25.94-10.2,29.76-30.37,28.14-46.07a65.55,65.55,0,0,0-10.81-29.25L331.08,346.87Z"/><path class="cls-1" d="M295.33,264.53,255.11,61.75A62.82,62.82,0,0,0,249.92,46c-21-42.38-60.84-22.5-60.84-22.5-26,10.2-29.76,30.37-28.14,46.07a65.48,65.48,0,0,0,10.81,29.25L284.43,269Z"/><path class="cls-1" d="M314.49,263.39,353.85,60.66a63.44,63.44,0,0,0,1.24-16.55C351.93-3.07,307.48,0,307.48,0c-27.87-.5-39.11,16.68-43.62,31.8A65.4,65.4,0,0,0,262.65,63l37.42,200.4Z"/><path class="cls-1" d="M313.41,352.51l40.44,202.74a63.4,63.4,0,0,1,1.24,16.54c-3.16,47.18-47.61,44.08-47.61,44.08-27.87.5-39.11-16.68-43.62-31.8a65.44,65.44,0,0,1-1.21-31.16l39-200.4Z"/><path class="cls-1" d="M263.39,302.5,60.66,262.06a63.44,63.44,0,0,0-16.55-1.24C-3.07,264,0,308.43,0,308.43c-.5,27.87,16.68,39.11,31.8,43.62A65.4,65.4,0,0,0,63,353.26l200.4-39Z"/><path class="cls-1" d="M353.4,313.4l202.48,39.81a63.05,63.05,0,0,0,16.55,1.25c47.18-3.16,44.07-47.61,44.07-47.61.5-27.87-16.67-39.12-31.8-43.63a65.52,65.52,0,0,0-31.15-1.2l-200.4,39Z"/><circle class="cls-2" cx="308.27" cy="307.64" r="44.88"/></g></g></svg>