<?xml version="1.0" encoding="UTF-8"?><svg id="_レイヤー_2" xmlns="http://www.w3.org/2000/svg" viewBox="0 0 471.33 471.33"><defs><style>.cls-1{fill:#fff;}.cls-2{fill:#c47272;}</style></defs><g id="_レイヤー_1-2"><g><rect class="cls-2" width="471.33" height="471.33" rx="94.62" ry="94.62"/><path class="cls-1" d="m228.02,74.2l-114.42,91.44c-8.96,7.16-3.9,21.6,7.57,21.6h228.83c11.47,0,16.53-14.44,7.57-21.6l-114.42-91.44c-4.43-3.54-10.72-3.54-15.14,0Z"/><rect class="cls-1" x="133.42" y="211.59" width="204.35" height="36.09" rx="18.04" ry="18.04"/><g><path class="cls-1" d="m185.24,314.73h-26.46v80.02h-22.68v-80.02h-26.46v-18.27h75.61v18.27Z"/><path class="cls-1" d="m276.48,345.61c0,35.29-17.27,50.41-41.84,50.41s-41.84-15.12-41.84-50.41,17.27-50.41,41.84-50.41,41.84,15.12,41.84,50.41Zm-24.58,0c0-24.95-6.17-34.03-17.26-34.03s-17.27,9.07-17.27,34.03,6.18,34.03,17.27,34.03,17.26-9.07,17.26-34.03Z"/><path class="cls-1" d="m323.87,296.46c23.31,0,35.92,10.33,35.92,32.39,0,24.2-15.88,34.78-38.31,34.78h-7.81v31.13h-22.05v-98.3h32.26Zm-1.13,50.79c8.07,0,13.74-5.04,13.74-17.14s-5.67-17.26-13.74-17.26h-9.07v34.4h9.07Z"/></g></g></g></svg>