<?xml version="1.0" encoding="UTF-8"?><svg id="_レイヤー_2" xmlns="http://www.w3.org/2000/svg" viewBox="0 0 93.02 36.21"><defs><style>.cls-1{fill:#4d3326;}</style></defs><g id="_本体"><path class="cls-1" d="m92.73,32.59V0s-27.65,0-27.65,0c-14.16,0-17.89,2.79-30.26,9.66-6.98,3.87-9.29,4.52-20.34,7.98C5.1,20.57.06,25.81,0,28.57h0s0,.04,0,.06c0,.07,0,.14.02.2,0,.04.01.07.02.1.02.09.02.2.05.28.48,1.37,1.68,2.26,2.74,2.8.94.48,1.98.72,3.03.72h21.37s2.19-1.38,2.19-1.38h.05c.34,2.73,2.61,4.84,5.36,4.84s5.03-2.11,5.36-4.84h2.86c.36,2.71,2.62,4.79,5.36,4.79s5-2.09,5.36-4.79h.05l1.75,1.38h37.17v-.07l.29-.09h-.29Zm-8.18-22.54c0-.84.68-1.52,1.52-1.52h2.43c.84,0,1.52.68,1.52,1.52v2.56c0,.84-.68,1.52-1.52,1.52h-2.43c-.84,0-1.52-.68-1.52-1.52v-2.56Zm-7.93,0c0-.84.68-1.52,1.52-1.52h2.43c.84,0,1.52.68,1.52,1.52v2.56c0,.84-.68,1.52-1.52,1.52h-2.43c-.84,0-1.52-.68-1.52-1.52v-2.56Zm-9.93-5.54h2.99c1.23,0,2.23,1.01,2.23,2.23v14.7h-7.46V6.75c0-1.23,1.01-2.23,2.23-2.23Zm-7.89,1.69h2.13c1.05,0,1.92.86,1.92,1.92v13.32h-5.97v-13.32c0-1.05.86-1.92,1.92-1.92Zm-14.37-1.69h2.12c1.32,0,2.41,1.11,2.41,2.46s-1.08,2.46-2.41,2.46h-11.29c3.65-1.98,6.54-3.61,9.17-4.93Z"/></g></svg>