<?xml version="1.0" encoding="UTF-8"?><svg id="_レイヤー_2" xmlns="http://www.w3.org/2000/svg" viewBox="0 0 400.82 505.66"><defs><style>.cls-1{letter-spacing:0em;}.cls-2{stroke:#ccc65c;}.cls-2,.cls-3,.cls-4,.cls-5{stroke-linejoin:round;}.cls-2,.cls-6,.cls-7{fill:none;}.cls-3{stroke:#bfcebd;stroke-linecap:round;stroke-width:.62px;}.cls-3,.cls-8{fill:#bfcebd;}.cls-9{font-size:9.75px;}.cls-9,.cls-10,.cls-11,.cls-12,.cls-13,.cls-14,.cls-15,.cls-16{fill:#4c3225;}.cls-9,.cls-11,.cls-13,.cls-14,.cls-15,.cls-16{font-family:HiraMaruPro-W4-83pv-RKSJ-H, 'Hiragino Maru Gothic Pro';}.cls-17{fill:#67a284;}.cls-18{fill:#efca5f;}.cls-19{fill:#eaad6f;}.cls-20{fill:#f4ecda;}.cls-21{fill:#fff;}.cls-22{fill:#e8e8e8;}.cls-23{fill:#e794a4;}.cls-24{fill:#fcebbe;}.cls-25{fill:#7d5f4a;}.cls-26{fill:#86151c;}.cls-27{fill:#848484;}.cls-28{fill:#85683f;}.cls-29{fill:#856c58;}.cls-30,.cls-31{fill:#8b5c3c;}.cls-32{fill:#904d36;}.cls-33{fill:#b79872;}.cls-34{fill:#8bcaa6;}.cls-35{fill:#cecece;}.cls-36{fill:#b0ce79;}.cls-37{fill:#aa6447;}.cls-38,.cls-4,.cls-5{fill:#a9734d;}.cls-39{fill:#b1dbef;}.cls-40,.cls-41{fill:#bd976e;}.cls-42{fill:#d8b282;}.cls-43{fill:#d8d8d8;}.cls-44{fill:#a5a5a5;}.cls-45{fill:#c0e3e4;}.cls-46{fill:#bd6b52;}.cls-47{fill:#e03230;}.cls-48{fill:#c7975d;}.cls-49{fill:#c66525;}.cls-50{fill:#d3d3d3;}.cls-51{fill:#afafaf;}.cls-52{fill:#231815;}.cls-53{fill:#424142;}.cls-54{fill:#444;}.cls-55{fill:#707070;}.cls-56{fill:#878787;}.cls-57{fill:#292a71;}.cls-58{fill:#5d3f27;}.cls-59{fill:#301d1f;}.cls-60{fill:#797a7a;}.cls-61{fill:#77171b;}.cls-62{fill:#515050;}.cls-11{font-size:7.47px;}.cls-12{font-family:KozGoPr6N-Regular-83pv-RKSJ-H, 'Kozuka Gothic Pr6N';font-size:4.33px;}.cls-31{stroke:#f7ce6a;stroke-width:.08px;}.cls-31,.cls-41,.cls-6,.cls-7{stroke-miterlimit:10;}.cls-41{stroke-width:.25px;}.cls-41,.cls-4,.cls-5{stroke:#231815;}.cls-13{font-size:8.07px;}.cls-4{stroke-width:.5px;}.cls-6{stroke:#4d3326;}.cls-7{stroke:#b0ce79;}.cls-14{font-size:7.95px;}.cls-15{font-size:7.67px;}.cls-63{letter-spacing:0em;}.cls-16{font-size:7.11px;}.cls-5{stroke-width:.2px;}</style></defs><g id="_レイヤー_6"><g><g><g><path class="cls-36" d="M400.32,.5V505.16H.5V.5H400.32Zm-64.4,322.31v-24.35h-12.47v-12.89h-24.94v14.13h-21.53l.05,13.07-.05-5h-15.22l1.94-120.22h.22v4.16h40.99v20.28h11.97v6.49h-46.39v54.04h48.72v-39.41h10.81v-21.12h3.99v-24.44h-3.16v-8.56h-6.15v-36.25h-3.66v27.1h-7.82v-10.8h3.41v-9.9h-21.78v9.98l-1.1,.9-29.74-36.15v-18.21l5.15-7.89h20.37v-5.24h-13.38l-1.67-4.57h-4.32v-19.46h24.86v-9.64h-35.67v9.81h6.82v17.87h-7.9l-11.22-19.87v-18.78h6.81v-12.86h-5.09v-15.33h-10.65v15.11h-6.65v13.08h9.76v20.7l18.12,31.59v29.84h-59.94l-19.12-15.63h16.63v-12.72h-44.65v12.56h20.62l23.45,19.12v37.58h-7.32v32.83h-1.83v13.47h9.15v37.83h24.02v68.17l-20.95-7.65h-26.6v4.49h6.9v10.48h-36.08v4.07h22.19l-20.61,6.15h-33.34l-.75-55.7s18.46-45.56,23.11-49.71h13.3l9.98-22.12h-4.99l-8.14,19.04-17.3-1.91s.81-6.06,1.6-9.5c.05-.23,.1-.45,.15-.65l1.55-6.58,16.6-70.54,31.56-.02v-11.23h-33.17l-.08-11.97s-1.33-4.74-6.32-2.08-12.39,7.23-12.39,7.23l-12.15,1.49s6.5-22.6,6.67-23.52c.16-.91,21.95-69.83,21.95-69.83l-11.98-2.33s-4.9,21.78-5.15,22.7c-.25,.91-17.62,51.96-17.62,51.96,0,0-8.4,26.68-8.9,34.67-.5,7.98-7.48,40.25-7.48,40.25l-5.41,.23-15.99,15.11-39.68,71.71-1.66,33.04c-1.22,38.24-1,48.55,1,71.27,1.99,22.72-2.28,42.57-2.28,42.57l-3.82,1.58,4.99,7.56s2.88,.45,6.84,.91l-7.01,29.1-6.32,15.96h5.74l5.24-13.88,7.31-30.69c3.4,.28,7.02,.47,10.06,.35,8.65-.34,15.13,2.07,18.71,3.4,3.57,1.33,7.23,8.07,7.23,8.07l3.57-1.83-3.57-11.81,.75-8.06,6.15-13.13,9.31-12.64,2.58,12.3,3.99-4.32-2.74-14.72,14.96-22.52v-15.55h31.51l33.25-9.23h13.05v-4.65h-4.65v-10.48h14.13l44.48,20.62,5.65,12.63v5.24h-1.74v12.22h6.73v98.68h10.23v-98.68h5.82v-12.22h-9.23v-1.33l14.63-3.99v-7.07h-9.89v-5.73l-4.74-3.91v-19.95h15.94l.02,6.15h22.2v15.3h24.02v-15.22h12.64Zm-10.81-198.02v-36.09h-29.93v36.09h29.93Zm-29.93,169.4v-18.4h-25.35v18.4h25.35Zm-49.38,118.49v-29.68h-39.57v29.68h39.57Zm-13.97-55.86v-14.05h-35.66v22.61h15.63v-8.56h20.03Zm-39.98-27.52v-5.99h-3.99v5.99h3.99Zm0-16.96v-22.61h-3.99v22.61h3.99Zm-9.23,47.72v-11.89h-33.75v11.89h33.75Zm-19.37-108.99c10.56-4.74,15.79-10.23,14.88-14.3,0,0-1-1.66-2.91,1.16-1.91,2.83-5.82,8.48-9.48,9.4-3.66,.91-10.56,2.82-11.3,3.24-.75,.41-8.73-.17-8.73,.83,0,.77,6.98,4.41,17.54-.33Zm-5.99,24.02v-19.03h-25.94v19.03h25.94Z"/><polygon class="cls-18" points="335.92 298.46 335.92 322.81 323.28 322.81 323.28 338.03 299.26 338.03 299.26 322.73 277.06 322.73 277.04 316.58 277.06 316.58 277.03 312.77 276.98 299.7 298.51 299.7 298.51 285.57 323.45 285.57 323.45 298.46 335.92 298.46"/><polygon class="cls-18" points="334.01 187.55 334.01 211.99 330.02 211.99 330.02 233.11 319.21 233.11 319.21 272.52 270.49 272.52 270.49 218.48 316.88 218.48 316.88 211.99 304.91 211.99 304.91 191.71 263.92 191.71 263.92 187.55 321.29 187.55 321.26 178.99 324.7 178.99 330.85 178.99 330.85 187.55 334.01 187.55"/><rect class="cls-18" x="295.18" y="88.7" width="29.93" height="36.09"/><path class="cls-20" d="M35.91,424.4c-3.96-.46-6.84-.91-6.84-.91l-4.99-7.56,3.82-1.58s4.27-19.85,2.28-42.57c-2-22.72-2.22-33.03-1-71.27l1.66-33.04,39.68-71.71,15.99-15.11,5.41-.23,14.3-.6,3.46-35.21,2.94,.29-2.83,36.17,4.82,4.99-.08,2.57,4.99,17.3v29.67l-6.49,15.55,3.08,3.99,2.99-1.41,4.41-8.81-.83-12.81s1.52-5.42,3.2-11.99l2.8,.75c-.79,3.44-1.6,9.5-1.6,9.5l17.3,1.91,8.14-19.04h4.99l-9.98,22.12h-13.3c-4.65,4.15-23.11,49.71-23.11,49.71l.75,55.7h33.34l20.61-6.15h-22.19v-4.07h36.08v-10.48h-6.9v-4.49h26.6l20.95,7.65v-68.17h6.74v68.17l30.59,12.86,1.12-81,1.12-81.09h-8.23v-38.16h-50.71v38.41h-8.65v29.43h4v13.55h-9.15v-13.47h1.83v-32.83h7.32v-37.58l-23.45-19.12h-20.62v-12.56h44.65v12.72h-16.63l19.12,15.63h59.94v-29.84l-18.12-31.59v-20.7h-9.76v-13.08h6.65v-15.11h10.65v15.33h5.09v12.86h-6.81v18.78l11.22,19.87h7.9v-17.87h-6.82v-9.81h35.67v9.64h-24.86v19.46h4.32l1.67,4.57h13.38v5.24h-20.37l-5.15,7.89v18.21l29.74,36.15,8.08,9.82h7.74v-10.72h-14.72v-9.98h21.78v9.9h-3.41v10.8h7.82v-27.1h3.66v36.25h-3.44l.03-4.99h-57.37l-.22,13.55-1.94,120.22h15.22l.05,5v3.81s-15.93,0-15.93,0v19.95l4.74,3.91v5.73h9.89v7.07l-14.63,3.99v1.33h9.23v12.22h-5.82v98.68h-10.23v-98.68h-6.73v-12.22h1.74v-5.24l-5.65-12.63-44.48-20.62h-14.13v10.48h4.65v4.65h-13.05l-33.25,9.23h-31.51v15.55l-14.96,22.52,2.74,14.72-3.99,4.32-2.58-12.3-9.31,12.64-6.15,13.13-.75,8.06,3.57,11.81-3.57,1.83s-3.66-6.74-7.23-8.07c-3.58-1.33-10.06-3.74-18.71-3.4-3.04,.12-6.66-.07-10.06-.35-1.74-.15-3.43-.32-4.96-.49ZM297.18,169.84l-33.26-40.32v7.24h-6.23v33.08h39.49ZM114.2,235.19v-29.51l-5.24-17.55-1.58,3.16c.25,13.14-7.23,30.6-7.23,30.6,0,0-14.22,29.84-21.37,46.47s-12.47,48.05-12.47,48.05l11.06,11.39c7.9,8.15,10.06,16.71,10.06,16.71v22.28h2.66l11.55-4.99,4.49-3.99-1.04-58.01-18.58-4.34-.58-16.71,2.66-2.33v-5.73l2.58-11.06,10.56-1.33,12.47-23.11Zm-10.75-44.31l2.1-3.44-3.1-.46-11.01-1.63-3.07-.46-15.41,13.86-29.15,54.87s-6.43,6.65-8.98,21.83c-2.55,15.19-1.66,86.46-1.66,86.46,0,0,1.44,24.5,.66,31.71-.77,7.2-1.44,21.83-1.44,21.83l2.2,.31,9.86,1.37,.69,.1s3.55-1,4.32-4.44c.78-3.43,11.31-87.79,11.97-92.33,.58-3.93,5.2-24.37,9.24-38.65,.64-2.26,1.26-4.37,1.85-6.24,4.32-13.64,27.38-60.19,27.38-60.19l3.55-24.5Zm1.52,103.42l-3.24-28.43-12.22,20.95v3.99l15.46,3.49Zm-24.14,100.09l20.84-26.77s-.28-1.6-3.38-.27-9.14,4.98-9.14,4.98l-3.94,.06-1.05,3.77-5.77-.56,.06-1.55,5.26-8.03v-14.58l-12.41,25.05-.33,2.33-14.91,15.63s-3.11,12.75-3.16,24.05l12.64,3.33s4.49,2.16,6.81-9.42c2.33-11.59,3.61-17.96,3.61-17.96l4.87-.06Zm-2.6-46.61l4.65-4.71s-7.87-14.02-8.37-14.08c-.49-.05-7.31-5.82-7.31-5.82l-2.66,.39-3.22,26.94,16.91-2.72Zm-9.76,27.6l11.37-24.88-18.9,3.77-3.57,31.52,11.1-10.41Z"/><polygon class="cls-17" points="321.29 174 321.26 178.99 321.29 187.55 263.92 187.55 263.7 187.55 263.92 174 321.29 174"/><polygon class="cls-17" points="309.57 159.12 309.57 169.84 301.83 169.84 293.75 160.02 294.85 159.12 309.57 159.12"/><polygon class="cls-17" points="263.92 129.52 297.18 169.84 257.69 169.84 257.69 136.76 263.92 136.76 263.92 129.52"/><rect class="cls-18" x="269.83" y="275.79" width="25.35" height="18.4"/><polygon class="cls-17" points="277.03 312.77 277.06 316.58 277.04 316.58 277.03 312.77"/><polygon class="cls-17" points="259.93 174 258.81 255.09 256.86 255.06 256.86 180.65 246.63 180.65 246.63 145.74 203.4 145.74 200.99 145.74 200.99 135.84 251.7 135.84 251.7 174 259.93 174"/><polygon class="cls-17" points="258.81 255.09 257.69 336.09 227.1 323.23 227.1 255.06 256.86 255.06 258.81 255.09"/><path class="cls-18" d="M256.86,180.65v74.41h-60.52v-37.83l.08-13.55v-23.44h6.98v-34.5h43.23v34.91h10.23Zm-12.06,62.77v-41.24h-38.24v41.07h5.82l23.36,.17h9.06Z"/><rect class="cls-18" x="206.23" y="383" width="39.57" height="29.68"/><polygon class="cls-20" points="244.8 202.18 244.8 243.42 235.74 243.42 212.38 243.25 206.56 243.25 206.56 202.18 244.8 202.18"/><polygon class="cls-18" points="231.83 342.77 231.83 356.82 211.8 356.82 211.8 365.38 196.17 365.38 196.17 342.77 231.83 342.77"/><polygon class="cls-17" points="203.4 145.74 203.4 180.24 196.42 180.24 196.42 203.68 196.34 217.23 196.34 203.68 192.34 203.68 192.34 174.25 200.99 174.25 200.99 145.74 203.4 145.74"/><rect class="cls-39" x="187.86" y="323.31" width="3.99" height="5.99"/><rect class="cls-39" x="187.86" y="289.73" width="3.99" height="22.61"/><rect class="cls-18" x="148.87" y="348.17" width="33.75" height="11.89"/><path class="cls-20" d="M130.74,131.85h10.23v-9.23l-10.06,6.07-.17,3.16Zm-3.49,2.5l-14.63,10.55-2.94-.29,.11-1.12,2.5-16.71,2.14-.26,12.15-1.49s7.4-4.57,12.39-7.23,6.32,2.08,6.32,2.08l.08,11.97h33.17v11.23l-31.56,.02-16.6,70.54-2.75-.65c.4-1.71,.78-3.39,1.12-4.99l13.3-65.01h-14.8v-8.64Z"/><path class="cls-24" d="M178.13,236.77c.91,4.07-4.32,9.56-14.88,14.3s-17.54,1.1-17.54,.33c0-1,7.98-.42,8.73-.83,.74-.42,7.64-2.33,11.3-3.24,3.66-.92,7.57-6.57,9.48-9.4,1.91-2.82,2.91-1.16,2.91-1.16Z"/><rect class="cls-18" x="131.32" y="256.06" width="25.94" height="19.03"/><path class="cls-39" d="M131.07,30.84l11.98,2.33s-21.79,68.92-21.95,69.83c-.17,.92-6.67,23.52-6.67,23.52l-2.14,.26-2.5,16.71-.11,1.12-3.46,35.21-14.3,.6s6.98-32.27,7.48-40.25c.5-7.99,8.9-34.67,8.9-34.67,0,0,17.37-51.05,17.62-51.96,.25-.92,5.15-22.7,5.15-22.7Z"/><path class="cls-17" d="M142.05,142.99l-13.3,65.01c-.34,1.6-.72,3.28-1.12,4.99-.57,2.4-1.17,4.83-1.75,7.13-1.68,6.57-3.2,11.99-3.2,11.99l.83,12.81-4.41,8.81-2.99,1.41-3.08-3.99,6.49-15.55v-29.67l-4.99-17.3,.08-2.57-4.82-4.99,2.83-36.17,14.63-10.55v8.64h14.8Z"/><polygon class="cls-17" points="140.97 122.62 140.97 131.85 130.74 131.85 130.91 128.69 140.97 122.62"/><path class="cls-20" d="M130.38,213.64l-1.55,6.58c-.05,.2-.1,.42-.15,.65l-2.8-.75c.58-2.3,1.18-4.73,1.75-7.13l2.75,.65Z"/><path class="cls-17" d="M114.2,205.68v29.51l-12.47,23.11-10.56,1.33-2.58,11.06v5.73l-2.66,2.33,.58,16.71,18.58,4.34,1.04,58.01-4.49,3.99-11.55,4.99h-2.66v-22.28s-2.16-8.56-10.06-16.71l-11.06-11.39s5.32-31.42,12.47-48.05,21.37-46.47,21.37-46.47c0,0,7.48-17.46,7.23-30.6l1.58-3.16,5.24,17.55Z"/><path class="cls-17" d="M105.55,187.44l-2.1,3.44-3.55,24.5s-23.06,46.55-27.38,60.19c-.59,1.87-1.21,3.98-1.85,6.24l-1.7-.48-.91-9.48,8.64-15.79c13.8-22.78,20.79-44.07,20.79-44.07l4.96-25.01,3.1,.46Z"/><polygon class="cls-17" points="101.73 265.87 104.97 294.3 89.51 290.81 89.51 286.82 101.73 265.87"/><path class="cls-39" d="M102.45,186.98l-4.96,25.01s-6.99,21.29-20.79,44.07l-8.64,15.79,.91,9.48-9.06,31.26-15.46,104.54-9.86-1.37,16.18-104.59,9.39-41.9s14.63-31.15,15.05-32.99c.41-1.84,12.97-26.61,12.97-26.61l3.26-24.32,11.01,1.63Z"/><path class="cls-17" d="M101.67,367.62l-20.84,26.77-4.87,.06s-1.28,6.37-3.61,17.96c-2.32,11.58-6.81,9.42-6.81,9.42l-12.64-3.33c.05-11.3,3.16-24.05,3.16-24.05l14.91-15.63,.33-2.33,12.41-25.05v14.58l-5.26,8.03-.06,1.55,5.77,.56,1.05-3.77,3.94-.06s6.04-3.65,9.14-4.98,3.38,.27,3.38,.27Z"/><path class="cls-17" d="M88.37,184.89l3.07,.46-3.26,24.32s-12.56,24.77-12.97,26.61c-.42,1.84-15.05,32.99-15.05,32.99l-9.39,41.9-16.18,104.59-2.2-.31s.67-14.63,1.44-21.83c.78-7.21-.66-31.71-.66-31.71,0,0-.89-71.27,1.66-86.46,2.55-15.18,8.98-21.83,8.98-21.83l29.15-54.87,15.41-13.86Z"/><path class="cls-17" d="M82.88,343.07l-4.65,4.71-16.91,2.72,3.22-26.94,2.66-.39s6.82,5.77,7.31,5.82c.5,.06,8.37,14.08,8.37,14.08Z"/><polygon class="cls-17" points="79.84 350.5 68.47 375.38 57.37 385.79 60.94 354.27 79.84 350.5"/><path class="cls-17" d="M68.97,281.33l1.7,.48c-4.04,14.28-8.66,34.72-9.24,38.65-.66,4.54-11.19,88.9-11.97,92.33-.77,3.44-4.32,4.44-4.32,4.44l-.69-.1,15.46-104.54,9.06-31.26Z"/><path class="cls-39" d="M40.87,424.89l-7.31,30.69-5.24,13.88h-5.74l6.32-15.96,7.01-29.1c1.53,.17,3.22,.34,4.96,.49Z"/></g><g><rect class="cls-7" x=".5" y=".5" width="399.82" height="504.66"/><rect class="cls-6" x="295.18" y="88.7" width="29.93" height="36.09"/><polygon class="cls-6" points="263.92 129.52 263.92 136.76 257.69 136.76 257.69 169.84 297.18 169.84 263.92 129.52"/><polyline class="cls-6" points="227.1 255.06 256.86 255.06 256.86 180.65 246.63 180.65 246.63 145.74 203.4 145.74 203.4 180.24 196.42 180.24 196.42 203.68 196.34 217.23 196.34 255.06 220.36 255.06"/><polygon class="cls-6" points="235.74 243.42 244.8 243.42 244.8 202.18 206.56 202.18 206.56 243.25 212.38 243.25 235.74 243.42"/><polygon class="cls-6" points="277.04 316.58 277.06 322.73 299.26 322.73 299.26 338.03 323.28 338.03 323.28 322.81 335.92 322.81 335.92 298.46 323.45 298.46 323.45 285.57 298.51 285.57 298.51 299.7 276.98 299.7 277.03 312.77 277.04 316.58"/><path class="cls-6" d="M321.26,178.99l.03-4.99h-57.37l-.22,13.55-1.94,120.22h15.22l.05,5,.03,3.81h-15.96v19.95l4.74,3.91v5.73h9.89v7.07l-14.63,3.99v1.33h9.23v12.22h-5.82v98.68h-10.23v-98.68h-6.73v-12.22h1.74v-5.24l-5.65-12.63-44.48-20.62h-14.13v10.48h4.65v4.65h-13.05l-33.25,9.23h-31.51v15.55l-14.96,22.52,2.74,14.72-3.99,4.32-2.58-12.3-9.31,12.64-6.15,13.13-.75,8.06,3.57,11.81-3.57,1.83s-3.66-6.74-7.23-8.07c-3.58-1.33-10.06-3.74-18.71-3.4-3.04,.12-6.66-.07-10.06-.35-1.74-.15-3.43-.32-4.96-.49-3.96-.46-6.84-.91-6.84-.91l-4.99-7.56,3.82-1.58s4.27-19.85,2.28-42.57c-2-22.72-2.22-33.03-1-71.27l1.66-33.04,39.68-71.71,15.99-15.11,5.41-.23,14.3-.6,3.46-35.21,.11-1.12,2.5-16.71,2.14-.26,12.15-1.49s7.4-4.57,12.39-7.23,6.32,2.08,6.32,2.08l.08,11.97h33.17v11.23l-31.56,.02-16.6,70.54-1.55,6.58c-.05,.2-.1,.42-.15,.65-.79,3.44-1.6,9.5-1.6,9.5l17.3,1.91,8.14-19.04h4.99l-9.98,22.12h-13.3c-4.65,4.15-23.11,49.71-23.11,49.71l.75,55.7h33.34l20.61-6.15h-22.19v-4.07h36.08v-10.48h-6.9v-4.49h26.6l20.95,7.65v-68.17h6.74v68.17l30.59,12.86,1.12-81,1.12-81.09h-8.23v-38.16h-50.71v38.41h-8.65v29.43h4v13.55h-9.15v-13.47h1.83v-32.83h7.32v-37.58l-23.45-19.12h-20.62v-12.56h44.65v12.72h-16.63l19.12,15.63h59.94v-29.84l-18.12-31.59v-20.7h-9.76v-13.08h6.65v-15.11h10.65v15.33h5.09v12.86h-6.81v18.78l11.22,19.87h7.9v-17.87h-6.82v-9.81h35.67v9.64h-24.86v19.46h4.32l1.67,4.57h13.38v5.24h-20.37l-5.15,7.89v18.21l29.74,36.15,8.08,9.82h7.74v-10.72h-14.72v-9.98h21.78v9.9h-3.41v10.8h7.82v-27.1h3.66v36.25"/><polygon class="cls-6" points="321.26 178.99 321.29 187.55 263.92 187.55 263.92 191.71 304.91 191.71 304.91 211.99 316.88 211.99 316.88 218.48 270.49 218.48 270.49 272.52 319.21 272.52 319.21 233.11 330.02 233.11 330.02 211.99 334.01 211.99 334.01 187.55 330.85 187.55 330.85 178.99 324.7 178.99 321.26 178.99"/><rect class="cls-6" x="269.83" y="275.79" width="25.35" height="18.4"/><polygon class="cls-6" points="130.74 131.85 140.97 131.85 140.97 122.62 130.91 128.69 130.74 131.85"/><path class="cls-6" d="M127.25,134.35l-14.63,10.55-2.83,36.17,4.82,4.99-.08,2.57,4.99,17.3v29.67l-6.49,15.55,3.08,3.99,2.99-1.41,4.41-8.81-.83-12.81s1.52-5.42,3.2-11.99c.58-2.3,1.18-4.73,1.75-7.13,.4-1.71,.78-3.39,1.12-4.99l13.3-65.01h-14.8v-11.14h3.49"/><path class="cls-6" d="M108.96,188.13l5.24,17.55v29.51l-12.47,23.11-10.56,1.33-2.58,11.06v5.73l-2.66,2.33,.58,16.71,18.58,4.34,1.04,58.01-4.49,3.99-11.55,4.99h-2.66v-22.28s-2.16-8.56-10.06-16.71l-11.06-11.39s5.32-31.42,12.47-48.05,21.37-46.47,21.37-46.47c0,0,7.48-17.46,7.23-30.6l1.58-3.16Z"/><polygon class="cls-6" points="101.73 265.87 89.51 286.82 89.51 290.81 104.97 294.3 101.73 265.87"/><path class="cls-6" d="M102.45,186.98l3.1,.46-2.1,3.44-3.55,24.5s-23.06,46.55-27.38,60.19c-.59,1.87-1.21,3.98-1.85,6.24-4.04,14.28-8.66,34.72-9.24,38.65-.66,4.54-11.19,88.9-11.97,92.33-.77,3.44-4.32,4.44-4.32,4.44l-.69-.1-9.86-1.37-2.2-.31s.67-14.63,1.44-21.83c.78-7.21-.66-31.71-.66-31.71,0,0-.89-71.27,1.66-86.46,2.55-15.18,8.98-21.83,8.98-21.83l29.15-54.87,15.41-13.86,3.07,.46,11.01,1.63Z"/><path class="cls-6" d="M64.54,323.56l-3.22,26.94,16.91-2.72,4.65-4.71s-7.87-14.02-8.37-14.08c-.49-.05-7.31-5.82-7.31-5.82l-2.66,.39Z"/><polygon class="cls-6" points="60.94 354.27 79.84 350.5 68.47 375.38 57.37 385.79 60.94 354.27"/><path class="cls-6" d="M83.71,366.02v-14.58l-12.41,25.05-.33,2.33-14.91,15.63s-3.11,12.75-3.16,24.05l12.64,3.33s4.49,2.16,6.81-9.42c2.33-11.59,3.61-17.96,3.61-17.96l4.87-.06,20.84-26.77s-.28-1.6-3.38-.27-9.14,4.98-9.14,4.98l-3.94,.06-1.05,3.77-5.77-.56,.06-1.55,5.26-8.03Z"/><polygon class="cls-6" points="196.17 342.77 196.17 365.38 211.8 365.38 211.8 356.82 231.83 356.82 231.83 342.77 196.17 342.77"/><rect class="cls-6" x="148.87" y="348.17" width="33.75" height="11.89"/><rect class="cls-6" x="206.23" y="383" width="39.57" height="29.68"/><rect class="cls-6" x="131.32" y="256.06" width="25.94" height="19.03"/><path class="cls-6" d="M145.71,251.4c0,.77,6.98,4.41,17.54-.33s15.79-10.23,14.88-14.3c0,0-1-1.66-2.91,1.16-1.91,2.83-5.82,8.48-9.48,9.4-3.66,.91-10.56,2.82-11.3,3.24-.75,.41-8.73-.17-8.73,.83Z"/><rect class="cls-6" x="187.86" y="289.73" width="3.99" height="22.61"/><rect class="cls-6" x="187.86" y="323.31" width="3.99" height="5.99"/><polyline class="cls-6" points="35.91 424.39 35.91 424.4 28.9 453.5 22.58 469.46 28.32 469.46 33.56 455.58 40.87 424.89"/><path class="cls-6" d="M34.59,415.76l16.18-104.59,9.39-41.9s14.63-31.15,15.05-32.99c.41-1.84,12.97-26.61,12.97-26.61l3.26-24.32"/><path class="cls-6" d="M91.92,180.42s6.98-32.27,7.48-40.25c.5-7.99,8.9-34.67,8.9-34.67,0,0,17.37-51.05,17.62-51.96,.25-.92,5.15-22.7,5.15-22.7l11.98,2.33s-21.79,68.92-21.95,69.83c-.17,.92-6.67,23.52-6.67,23.52"/><path class="cls-6" d="M102.45,186.98l-4.96,25.01s-6.99,21.29-20.79,44.07l-8.64,15.79,.91,9.48-9.06,31.26-15.46,104.54"/></g></g><polygon class="cls-44" points="307.49 293.32 286.46 306.19 328.52 306.19 307.49 293.32"/><g><g><rect class="cls-37" x="283.53" y="303.07" width="47.59" height="12.65"/><rect class="cls-28" x="283.53" y="315.72" width="47.59" height="2.82"/><g><rect class="cls-21" x="284.3" y="304.37" width="4.86" height="10.69"/><rect class="cls-21" x="289.78" y="304.37" width="4.86" height="10.69"/><rect class="cls-21" x="295.1" y="303.66" width="5.49" height="11.41"/></g><g><rect class="cls-21" x="313.56" y="303.66" width="5.49" height="11.41"/><rect class="cls-21" x="319.71" y="304.37" width="4.86" height="10.69"/><rect class="cls-21" x="325.2" y="304.37" width="4.86" height="10.69"/></g><rect class="cls-59" x="302.4" y="304.37" width="9.36" height="11.34"/><rect class="cls-59" x="300.58" y="317.13" width="1.81" height="1.41"/><rect class="cls-59" x="311.75" y="317.13" width="1.81" height="1.41"/><rect class="cls-46" x="300.58" y="303.07" width="1.81" height="14.06"/><rect class="cls-46" x="311.75" y="303.07" width="1.81" height="14.06"/><rect class="cls-46" x="302.03" y="303.81" width="10.09" height="1.13"/></g><polygon class="cls-8" points="334.95 303.66 334.95 303.66 280.04 303.66 289.9 302.09 325.08 302.09 334.95 303.66"/><g><path class="cls-32" d="M325.33,303.54c-6.21-.05-17.31-9.16-18.22-11.24-.01-.03-.02-.05-.02-.07,0,.02-.01,.05-.02,.07-.9,2.08-12.07,11.24-18.26,11.24h3.34c5.07,0,14.19-7.48,14.93-9.18,0-.02,.01-.04,.02-.06,0,.02,0,.04,.02,.06,.74,1.7,9.81,9.14,14.89,9.18h0s3.34,0,3.34,0h0Z"/><path class="cls-8" d="M329.57,303.66c-7.65-.06-21.33-11.28-22.44-13.84-.01-.03-.02-.06-.03-.09,0,.03-.02,.06-.03,.09-1.11,2.56-14.86,13.84-22.5,13.84h4.11c6.24,0,17.47-9.22,18.38-11.31,.01-.03,.02-.05,.02-.07,0,.02,.01,.05,.02,.07,.91,2.09,12.09,11.26,18.34,11.31h0s4.11,0,4.11,0h0Z"/></g><g><path class="cls-32" d="M315.83,301.71s0,0,0,0h0c0-.13-.87-.24-1.94-.24h-12.81c-1.07,0-1.94,.11-1.94,.24h0s0,0,0,0c0,1.5-1.65,2.72-3.68,2.72h2.17c1.24-.31,1.58-.92,1.92-1.48,0,0,.11-.21,.27-.62,0,0,0,0,0,0h0s0,0,0,0c0,0,0,0,0,0h0c0-.13,.8-.24,1.78-.24h11.78c.98,0,1.78,.11,1.78,.24h0s0,0,0,0c.03,.42,.18,.6,.3,.8,.39,.66,.77,1.07,1.86,1.3h2.2c-2.03,0-3.68-1.22-3.68-2.72Z"/><path class="cls-32" d="M315.83,301.71s0,0,0,0h0c0-.13-.87-.24-1.94-.24h-12.81c-1.07,0-1.94,.11-1.94,.24h0s0,0,0,0c0,1.5-1.65,2.72-3.68,2.72h2.17c1.24-.31,1.58-.92,1.92-1.48,0,0,.11-.21,.27-.62,0,0,0,0,0,0h0s0,0,0,0c0,0,0,0,0,0h0c0-.13,.8-.24,1.78-.24h11.78c.98,0,1.78,.11,1.78,.24h0s0,0,0,0c.03,.42,.18,.6,.3,.8,.39,.66,.77,1.07,1.86,1.3h2.2c-2.03,0-3.68-1.22-3.68-2.72Z"/><path class="cls-3" d="M316.55,300.93s0,0,0,0h0c0-.15-.95-.28-2.1-.28h-13.9c-1.16,0-2.1,.12-2.1,.28h0s0,0,0,0c0,1.74-1.79,3.15-4,3.15h2.35c1.34-.36,1.72-1.07,2.08-1.71,0,0,.12-.24,.3-.72,0,0,0,0,0,0h0s0,0,0,0c0,0,0,0,0,0h0c0-.15,.87-.27,1.93-.27h12.78c1.06,0,1.93,.12,1.93,.27h0s0,0,0,0c.03,.48,.19,.7,.32,.93,.42,.77,.84,1.24,2.02,1.5h2.38c-2.21,0-4-1.41-4-3.15Z"/></g></g><g><g><rect class="cls-27" x="270.3" y="234.85" width="49.01" height="8.38"/><polygon class="cls-27" points="294.8 230.06 280.3 243.23 309.31 243.23 294.8 230.06"/><polygon class="cls-29" points="294.8 231.43 281.81 243.23 307.8 243.23 294.8 231.43"/><path class="cls-21" d="M291.26,236.75l-10.47,6.48h28.03l-10.47-6.48c-2.17-1.34-4.92-1.34-7.09,0Z"/><path class="cls-58" d="M285.05,241.07h19.51c1.19,0,2.16,.97,2.16,2.16h-23.83c0-1.19,.97-2.16,2.16-2.16Z"/><path class="cls-27" d="M290.4,238.58c2.7-1.67,6.12-1.67,8.82,0l7.5,4.64h2.1l-13.14-8.13c-.54-.33-1.21-.33-1.75,0l-13.14,8.13h2.1l7.5-4.64Z"/><rect class="cls-58" x="294.66" y="237.33" width=".29" height="3.74"/></g><g><rect class="cls-58" x="272.88" y="243.23" width="43.86" height="10.85"/><rect class="cls-21" x="274.48" y="243.23" width="40.64" height="9.04"/><rect class="cls-58" x="272.88" y="244.54" width="43.86" height=".58"/><rect class="cls-58" x="272.88" y="250.58" width="43.86" height=".58"/></g><rect class="cls-25" x="284.53" y="243.23" width="20.55" height="10.85"/><rect class="cls-21" x="285.4" y="243.23" width="18.8" height="10.85"/><rect class="cls-25" x="288.83" y="243.23" width="11.94" height="10.85"/><rect class="cls-53" x="289.63" y="245.12" width="10.34" height="8.95"/><g><rect class="cls-43" x="285.4" y="245.52" width="3.43" height="5.06"/><rect class="cls-43" x="300.78" y="245.52" width="3.43" height="5.06"/></g><rect class="cls-58" x="300.78" y="245.12" width="3.43" height=".58"/><rect class="cls-58" x="285.4" y="245.12" width="3.43" height=".58"/><rect class="cls-58" x="285.4" y="250.29" width="3.43" height=".58"/><rect class="cls-58" x="300.78" y="250.29" width="3.43" height=".58"/></g><g><rect class="cls-30" x="219.12" y="240.2" width="1.84" height="9.25"/><rect class="cls-30" x="228.4" y="241" width="1.84" height="8.44"/><path class="cls-31" d="M224.69,237.49h-10.55l3.43,2.61c.76,.57,.68,.91,1.95,.91h10.3c1.27,0,1.23-.34,1.98-.91l3.43-2.61h-10.55Z"/><path class="cls-38" d="M230.91,230.63h-12.46c-.7,3.77-2.23,5.32-7.15,5.44v.8h26.75v-.8c-4.93-.11-6.45-1.65-7.15-5.44Z"/><g><polygon class="cls-55" points="224.68 231.68 220.5 235.59 228.86 235.59 224.68 231.68"/><g><path class="cls-5" d="M232.4,236.97c-2.63-.03-7.32-5.44-7.7-6.67,0-.02,0-.03,0-.04,0,.01,0,.03-.01,.04-.38,1.24-5.1,6.67-7.72,6.67h1.41c2.14,0,6-4.44,6.31-5.45,0-.01,0-.02,0-.04,0,.01,0,.02,0,.04,.31,1.01,4.15,5.43,6.29,5.45h0s1.41,0,1.41,0h0Z"/><path class="cls-38" d="M231.52,236.91c-2.33-.02-6.49-4.82-6.83-5.91,0-.01,0-.03,0-.04,0,.01,0,.03,0,.04-.34,1.1-4.52,5.91-6.84,5.91h1.25c1.9,0,5.32-3.94,5.59-4.83,0-.01,0-.02,0-.03,0,.01,0,.02,0,.03,.28,.89,3.68,4.81,5.58,4.83h0s1.25,0,1.25,0h0Z"/></g></g><path class="cls-38" d="M211.3,236.87c4.27,1.22,7.62,1.22,7.62,1.22,.49-.08,.82-.21,.82-.37,0,0,0,0,0,0h0s.44-.04,.98-.04h6.5c.54,0,.98,.02,.98,.04h0s0,0,0,0c0,.15,.33,.29,.82,.37,0,0,5.09,0,8.94-1.22"/><rect class="cls-52" x="218.47" y="230.48" width="12.44" height=".15"/><rect class="cls-22" x="220.72" y="241" width="7.92" height="2.73"/></g><g><polygon class="cls-60" points="165.74 336.84 154.24 343.11 177.24 343.11 165.74 336.84"/><polygon class="cls-62" points="165.74 337.97 156.33 343.11 175.15 343.11 165.74 337.97"/><rect class="cls-60" x="157.3" y="341.52" width="16.89" height="1.59"/><rect class="cls-42" x="158.03" y="343.11" width="15.42" height="11.75"/><rect class="cls-62" x="159.81" y="343.77" width="11.87" height="4.91"/><rect class="cls-40" x="162.33" y="349.7" width="6.82" height="3.63"/><rect class="cls-41" x="162.33" y="349.7" width="6.82" height=".71"/></g><g><rect class="cls-34" x="216.62" y="164.75" width="15.84" height=".53"/><rect class="cls-33" x="205.06" y="173.33" width="38.94" height="13.69"/><path class="cls-38" d="M232.46,165.19h-15.86c-.9,4.36-8.87,6.14-15.13,6.28v1.88h46.12v-1.87c-6.27-.13-14.24-1.9-15.13-6.28Z"/><g><polygon class="cls-26" points="224.53 164.75 217.81 170.48 231.26 170.48 224.53 164.75"/><g><path class="cls-4" d="M236.96,172.51c-4.22-.04-11.78-7.97-12.39-9.78,0-.02-.01-.04-.02-.06,0,.02,0,.04-.02,.06-.62,1.81-8.21,9.78-12.43,9.78h2.27c3.45,0,9.65-6.51,10.16-7.99,0-.02,0-.04,.01-.05,0,.02,0,.03,.01,.05,.5,1.48,6.68,7.96,10.13,7.99h0s2.27,0,2.27,0h0Z"/><path class="cls-38" d="M235.55,172.43c-3.74-.04-10.44-7.07-10.98-8.67,0-.02,0-.04-.01-.06,0,.02,0,.04-.01,.06-.55,1.61-7.28,8.67-11.01,8.67h2.01c3.05,0,8.55-5.77,9-7.08,0-.02,0-.03,.01-.05,0,.02,0,.03,.01,.05,.44,1.31,5.92,7.05,8.98,7.08h0s2.01,0,2.01,0h0Z"/></g></g><path class="cls-2" d="M224.56,165.34s0-.03-.01-.05c0,.02,0,.03-.01,.05-.28,.81-2.49,3.33-4.86,5.13h9.74c-2.37-1.8-4.58-4.32-4.86-5.13Z"/><rect class="cls-38" x="207.77" y="172.2" width="32.11" height="1.14"/><g><rect class="cls-52" x="219.4" y="173.34" width=".56" height="13.69"/><rect class="cls-57" x="219.4" y="185.69" width=".56" height="1.33"/><rect class="cls-49" x="219.4" y="179.02" width=".56" height="6.66"/><g><rect class="cls-61" x="218.83" y="177.43" width="1.7" height=".25"/><rect class="cls-61" x="219.1" y="179.77" width="1.15" height=".25"/><polygon class="cls-35" points="220.25 179.76 219.1 179.76 218.83 177.67 220.53 177.67 220.25 179.76"/></g></g><g><rect class="cls-52" x="209.66" y="173.34" width=".56" height="13.69"/><rect class="cls-57" x="209.66" y="185.69" width=".56" height="1.33"/><rect class="cls-49" x="209.66" y="179.02" width=".56" height="6.66"/><g><rect class="cls-61" x="209.09" y="177.43" width="1.7" height=".25"/><rect class="cls-61" x="209.36" y="179.77" width="1.15" height=".25"/><polygon class="cls-35" points="210.51 179.76 209.36 179.76 209.09 177.67 210.79 177.67 210.51 179.76"/></g></g><g><rect class="cls-52" x="238.87" y="173.34" width=".56" height="13.69"/><rect class="cls-57" x="238.87" y="185.69" width=".56" height="1.33"/><rect class="cls-49" x="238.87" y="179.02" width=".56" height="6.66"/><g><rect class="cls-61" x="238.31" y="177.43" width="1.7" height=".25"/><rect class="cls-61" x="238.58" y="179.77" width="1.15" height=".25"/><polygon class="cls-35" points="239.73 179.76 238.58 179.76 238.31 177.67 240 177.67 239.73 179.76"/></g></g><g><rect class="cls-52" x="229.13" y="173.34" width=".56" height="13.69"/><rect class="cls-57" x="229.13" y="185.69" width=".56" height="1.33"/><rect class="cls-49" x="229.13" y="179.02" width=".56" height="6.66"/><g><rect class="cls-61" x="228.57" y="177.43" width="1.7" height=".25"/><rect class="cls-61" x="228.84" y="179.77" width="1.15" height=".25"/><polygon class="cls-35" points="229.99 179.76 228.84 179.76 228.57 177.67 230.26 177.67 229.99 179.76"/></g></g><g><rect class="cls-47" x="235.85" y="173.33" width=".65" height="9.67"/><rect class="cls-21" x="235.85" y="182.99" width=".65" height=".88"/></g><g><rect class="cls-47" x="232.07" y="173.33" width=".65" height="9.67"/><rect class="cls-21" x="232.07" y="182.99" width=".65" height=".88"/></g><g><rect class="cls-47" x="216.38" y="173.33" width=".65" height="9.67"/><rect class="cls-21" x="216.38" y="182.99" width=".65" height=".88"/></g><g><rect class="cls-47" x="212.59" y="173.33" width=".65" height="9.67"/><rect class="cls-21" x="212.59" y="182.99" width=".65" height=".88"/></g><g><rect class="cls-47" x="225.83" y="173.33" width=".65" height="9.67"/><rect class="cls-21" x="225.83" y="182.99" width=".65" height=".88"/></g><g><rect class="cls-47" x="222.04" y="173.33" width=".65" height="9.67"/><rect class="cls-21" x="222.04" y="182.99" width=".65" height=".88"/></g><g><path class="cls-38" d="M229.02,173.05c0,.18,.81,1.16,1.44,1.25,0,0,16.11-.37,17.14-.97"/><path class="cls-38" d="M201.47,173.33c1.04,.47,17.16,.99,17.16,.99,.63-.09,1.04-1.1,1.04-1.27"/></g></g><g><rect class="cls-21" x="207.13" y="391.16" width="37.1" height="3.58"/><rect class="cls-21" x="207.13" y="391.28" width="37.1" height="1.87"/><rect class="cls-21" x="200.37" y="395.41" width="50.62" height="5.27"/><path class="cls-56" d="M240.73,387.28c-.8-.64-1.15-2.22-1.14-6.7h-27.82c0,4.48-.34,6.07-1.14,6.7-1,.79-3.67,1.08-6.56,1.55v.71h43.22v-.71c-2.89-.47-5.56-.75-6.56-1.55Z"/><polygon class="cls-50" points="243.61 391.05 207.75 391.05 204.07 389.54 247.29 389.54 243.61 391.05"/><polygon class="cls-48" points="204.07 389.54 207.13 390.82 207.13 393.14 207.75 393.14 207.75 390.2 208.37 389.8 215.77 389.8 216.39 390.2 216.39 393.14 216.8 393.14 216.8 390.2 217.42 389.8 224.82 389.8 225.44 390.2 225.44 393.14 225.92 393.14 225.92 390.2 226.55 389.8 233.94 389.8 234.56 390.2 234.56 393.14 234.97 393.14 234.97 390.2 235.6 389.8 242.99 389.8 243.61 390.2 243.61 393.14 244.23 393.14 244.23 390.82 247.29 389.54 204.07 389.54"/><rect class="cls-48" x="207.13" y="390.82" width="37.1" height=".46"/><rect class="cls-48" x="207.13" y="392.91" width="37.1" height=".46"/><g><rect class="cls-45" x="209.01" y="391.28" width="6.92" height="1.64"/><rect class="cls-45" x="235.49" y="391.28" width="6.92" height="1.64"/><rect class="cls-45" x="226.38" y="391.28" width="7.73" height="1.64"/><rect class="cls-45" x="217.29" y="391.28" width="7.73" height="1.64"/></g><polygon class="cls-56" points="256.71 395.41 194.66 395.41 207.13 393.37 244.23 393.37 256.71 395.41"/><path class="cls-51" d="M225.68,392.06c-5.77,0-3.51,2.65-9.73,2.65v.69h1.33c4.58-.36,3.09-2.6,8.4-2.6,5.7,0,3.6,2.23,8.71,2.6h1.02v-.69c-6.42-.14-3.68-2.65-9.73-2.65Z"/><path class="cls-48" d="M217.28,395.41h17.11c-5.11-.38-3.01-2.6-8.71-2.6-5.31,0-3.82,2.25-8.4,2.6Z"/><g><polygon class="cls-50" points="232.44 395.41 232.44 396.91 250.37 396.91 254.05 395.41 232.44 395.41"/><rect class="cls-48" x="232.44" y="396.68" width="18.55" height=".46"/><rect class="cls-48" x="232.44" y="399.01" width="18.55" height=".46"/><rect class="cls-48" x="232.44" y="400.21" width="18.55" height=".46"/><g><rect class="cls-45" x="242.22" y="397.14" width="6.92" height="1.87"/><rect class="cls-45" x="233.12" y="397.14" width="7.73" height="1.87"/></g><polygon class="cls-48" points="232.44 395.41 232.44 400.67 232.69 400.67 232.69 396.07 233.31 395.67 240.7 395.67 241.33 396.07 241.33 400.67 241.74 400.67 241.74 396.07 242.36 395.67 249.75 395.67 250.37 396.07 250.37 400.67 250.99 400.67 250.99 396.68 254.05 395.41 232.44 395.41"/></g><g><polygon class="cls-50" points="218.92 395.41 218.92 396.91 200.99 396.91 197.31 395.41 218.92 395.41"/><rect class="cls-48" x="200.37" y="396.68" width="18.55" height=".46" transform="translate(419.29 793.82) rotate(180)"/><rect class="cls-48" x="200.37" y="399.01" width="18.55" height=".46" transform="translate(419.29 798.48) rotate(180)"/><rect class="cls-48" x="200.37" y="400.21" width="18.55" height=".46" transform="translate(419.29 800.89) rotate(180)"/><g><rect class="cls-45" x="202.22" y="397.14" width="6.92" height="1.87" transform="translate(411.36 796.15) rotate(180)"/><rect class="cls-45" x="210.52" y="397.14" width="7.73" height="1.87" transform="translate(428.76 796.15) rotate(180)"/></g><polygon class="cls-48" points="218.92 395.41 218.92 400.67 218.68 400.67 218.68 396.07 218.06 395.67 210.66 395.67 210.04 396.07 210.04 400.67 209.63 400.67 209.63 396.07 209.01 395.67 201.61 395.67 200.99 396.07 200.99 400.67 200.37 400.67 200.37 396.68 197.31 395.41 218.92 395.41"/></g><rect class="cls-19" x="218.92" y="395.41" width="13.52" height="5.27"/><rect class="cls-54" x="220.18" y="395.74" width="11" height="4.93"/></g><g><g><rect class="cls-23" x="237.69" y="149.68" width="40" height="17.17"/><rect class="cls-10" x="274.14" y="149.68" width="3.55" height="17.17"/><rect class="cls-10" x="237.69" y="149.68" width="3.55" height="17.17"/></g><text class="cls-9" transform="translate(243.07 159.36)"><tspan x="0" y="0">御本殿</tspan></text><text class="cls-12" transform="translate(246.5 165.16)"><tspan x="0" y="0">Main Shrine</tspan></text></g><g><g><rect class="cls-23" x="192.3" y="250.58" width="41.74" height="16.13"/><rect class="cls-10" x="234.04" y="250.58" width="3.7" height="16.13"/><rect class="cls-10" x="192.3" y="250.58" width="3.7" height="16.13"/></g><text class="cls-13" transform="translate(203.07 259.51)"><tspan x="0" y="0">三光門</tspan></text><text class="cls-12" transform="translate(199.01 264.01)"><tspan x="0" y="0">Sankoumon Gate</tspan></text></g><g><g><rect class="cls-23" x="297.55" y="256.83" width="37.51" height="15.46"/><rect class="cls-10" x="331.74" y="256.83" width="3.33" height="15.46"/><rect class="cls-10" x="297.55" y="256.83" width="3.33" height="15.46"/></g><text class="cls-15" transform="translate(304.8 265.29)"><tspan x="0" y="0">社務所</tspan></text><text class="cls-12" transform="translate(305.08 270.01)"><tspan x="0" y="0">Shrine Offico</tspan></text></g><g><g><rect class="cls-23" x="302.49" y="321.76" width="36.34" height="15.08"/><rect class="cls-10" x="335.61" y="321.76" width="3.22" height="15.08"/><rect class="cls-10" x="302.49" y="321.76" width="3.22" height="15.08"/></g><text class="cls-11" transform="translate(309.46 330.22)"><tspan x="0" y="0">宝物殿</tspan></text><text class="cls-12" transform="translate(308.23 335.14)"><tspan class="cls-63" x="0" y="0">T</tspan><tspan class="cls-1" x="2.25" y="0">reasure Hall</tspan></text></g><g><g><rect class="cls-23" x="236.98" y="404.33" width="38.34" height="14.3"/><rect class="cls-10" x="271.92" y="404.33" width="3.4" height="14.3"/><rect class="cls-10" x="236.98" y="404.33" width="3.4" height="14.3"/></g><text class="cls-16" transform="translate(241.92 411.84)"><tspan x="0" y="0">文道会館</tspan></text><text class="cls-12" transform="translate(244.91 416.22)"><tspan x="0" y="0">Bundoukan</tspan></text></g><g><g><rect class="cls-23" x="175.19" y="350.5" width="34.31" height="15.17"/><rect class="cls-10" x="206.46" y="350.5" width="3.04" height="15.17"/><rect class="cls-10" x="175.19" y="350.5" width="3.04" height="15.17"/></g><text class="cls-14" transform="translate(180.42 358.5)"><tspan x="0" y="0">納札所</tspan></text><text class="cls-12" transform="translate(183.52 363.55)"><tspan x="0" y="0">Bill Office</tspan></text></g></g></g></svg>