<svg xmlns="http://www.w3.org/2000/svg" xmlns:xlink="http://www.w3.org/1999/xlink" viewBox="0 0 2379.27 4122.86"><defs><style>.cls-1,.cls-2,.cls-5{fill:none;}.cls-2,.cls-5{stroke:#dd7c7c;stroke-miterlimit:10;}.cls-2{stroke-width:2.31px;}.cls-3{clip-path:url(#clip-path);}.cls-4{fill:#ffedbf;}.cls-5{stroke-width:4px;}.cls-6{clip-path:url(#clip-path-2);}</style><clipPath id="clip-path" transform="translate(503.57 515.46)"><rect class="cls-1" width="1242" height="4038.88"/></clipPath><clipPath id="clip-path-2" transform="translate(503.57 515.46)"><circle class="cls-2" cx="1058.37" cy="301.86" r="816.17"/></clipPath></defs><g id="レイヤー_2" data-name="レイヤー 2"><g id="レイヤー_1-2" data-name="レイヤー 1"><g id="背景"><g class="cls-3"><path class="cls-4" d="M1604.6,3052.81a65.91,65.91,0,0,1,0,131.82h-286a28.51,28.51,0,0,0-28.51,28.51v21.48a28.51,28.51,0,0,0,28.51,28.52h69c35.91,0,66.27,28.15,67.25,64.05a65.91,65.91,0,0,1-65.88,67.77l-358.32,0a28.54,28.54,0,0,0-28.52,28.53V3445a28.52,28.52,0,0,0,28.52,28.52h68.94c35.92,0,66.28,28.16,67.26,64.06a65.91,65.91,0,0,1-65.88,67.76l-588.73,0a65.91,65.91,0,0,1,0-131.82l352.86-.05c15.77,0,29.29-12,29.29-27.78v-22.16A28.56,28.56,0,0,0,865.79,3395H800.16a65.91,65.91,0,1,1,0-131.82l352.85-.05c15.77,0,29.3-12,29.3-27.78V3213.2a28.51,28.51,0,0,0-28.51-28.51H1015.87a65.91,65.91,0,0,1,0-131.82h0a28.51,28.51,0,0,0,28.51-28.52v-22.16c0-15.77-13.52-27.81-29.29-27.78l-352.86,0a65.91,65.91,0,1,1,0-131.82l588.72.06a65.91,65.91,0,0,1,65.89,67.76c-1,35.9-31.34,64-67.26,64h-68.94a28.52,28.52,0,0,0-28.52,28.52v21.48a28.51,28.51,0,0,0,28.52,28.51l14.27-.11Z" transform="translate(503.57 515.46)"/><line class="cls-5" x1="1698.49" y1="3568.28" x2="2108.17" y2="3568.28"/><path class="cls-5" d="M1015.87,3184.69a65.91,65.91,0,0,1,0-131.82" transform="translate(503.57 515.46)"/><path class="cls-5" d="M1604.6,3184.63a65.91,65.91,0,0,0,0-131.82" transform="translate(503.57 515.46)"/><path class="cls-5" d="M865.79,3395H800.16a65.91,65.91,0,1,1,0-131.82l352.85-.05c15.77,0,29.3-12,29.3-27.78V3213.2a28.51,28.51,0,0,0-28.51-28.51H1015.87" transform="translate(503.57 515.46)"/><path class="cls-5" d="M1387.51,3263.14c35.91,0,66.27,28.15,67.25,64.05a65.91,65.91,0,0,1-65.88,67.77l-358.32,0" transform="translate(503.57 515.46)"/><path class="cls-5" d="M1604.6,3184.63h-286a28.51,28.51,0,0,0-28.51,28.51v21.48a28.51,28.51,0,0,0,28.51,28.52h70.32" transform="translate(503.57 515.46)"/><path class="cls-5" d="M1099.5,3473.52c35.92,0,66.28,28.16,67.26,64.06a65.91,65.91,0,0,1-65.88,67.76l-588.73,0a65.91,65.91,0,0,1,0-131.82l352.86-.05c15.77,0,29.29-12,29.29-27.78v-22.16A28.56,28.56,0,0,0,865.79,3395" transform="translate(503.57 515.46)"/><path class="cls-5" d="M1030.56,3395a28.54,28.54,0,0,0-28.52,28.53V3445a28.52,28.52,0,0,0,28.52,28.52h70.32" transform="translate(503.57 515.46)"/><path class="cls-5" d="M1249.59,2974.41c35.92,0,66.27-28.15,67.26-64A65.91,65.91,0,0,0,1251,2842.6l-588.72-.06a65.91,65.91,0,1,0,0,131.82l352.86,0c15.77,0,29.29,12,29.29,27.78v22.16a28.51,28.51,0,0,1-28.51,28.52" transform="translate(503.57 515.46)"/><path class="cls-5" d="M1251,2974.41h-70.31a28.52,28.52,0,0,0-28.52,28.52v21.48a28.51,28.51,0,0,0,28.52,28.51l14.27-.11" transform="translate(503.57 515.46)"/><g class="cls-6"><polyline class="cls-2" points="1499.33 1074.36 1393.92 1256.86 1604.67 1256.9"/><polyline class="cls-2" points="1604.67 1256.9 1710.08 1074.4 1499.33 1074.36"/><polyline class="cls-2" points="1183.17 1256.9 1077.76 1439.39 1288.51 1439.43"/><polyline class="cls-2" points="1288.51 1439.43 1393.92 1256.94 1183.17 1256.9"/><polyline class="cls-2" points="1288.51 1074.36 1393.92 1256.86 1183.17 1256.9"/><polyline class="cls-2" points="1183.17 1256.9 1077.76 1074.4 1288.51 1074.36"/><polyline class="cls-2" points="1604.67 1256.9 1710.08 1439.39 1499.33 1439.43"/><polyline class="cls-2" points="1499.33 1439.43 1393.92 1256.94 1604.67 1256.9"/><polyline class="cls-2" points="1288.54 1439.46 1393.88 1256.92 1499.3 1439.41"/><polyline class="cls-2" points="1499.3 1439.41 1393.96 1621.95 1288.54 1439.46"/><polyline class="cls-2" points="1288.54 1074.38 1393.88 891.85 1499.3 1074.34"/><polyline class="cls-2" points="1499.3 1074.34 1393.96 1256.88 1288.54 1074.38"/><line class="cls-2" x1="1393.88" y1="891.85" x2="1393.88" y2="1621.95"/><line class="cls-2" x1="1077.76" y1="1439.39" x2="1710.08" y2="1074.41"/><line class="cls-2" x1="1077.76" y1="1074.41" x2="1710.08" y2="1439.39"/><polyline class="cls-2" points="1183.17 1621.93 1077.76 1804.42 1288.51 1804.47"/><polyline class="cls-2" points="1288.51 1804.47 1393.92 1621.97 1183.17 1621.93"/><polyline class="cls-2" points="867.01 1804.47 761.59 1986.96 972.34 1987"/><polyline class="cls-2" points="972.34 1987 1077.76 1804.51 867.01 1804.47"/><polyline class="cls-2" points="972.34 1621.93 1077.76 1804.42 867.01 1804.47"/><polyline class="cls-2" points="867.01 1804.47 761.59 1621.97 972.34 1621.93"/><polyline class="cls-2" points="1288.51 1804.47 1393.92 1986.96 1183.17 1987"/><polyline class="cls-2" points="1183.17 1987 1077.76 1804.51 1288.51 1804.47"/><polyline class="cls-2" points="972.38 1987.03 1077.72 1804.49 1183.13 1986.98"/><polyline class="cls-2" points="1183.13 1986.98 1077.79 2169.52 972.38 1987.03"/><polyline class="cls-2" points="972.38 1621.95 1077.72 1439.41 1183.13 1621.91"/><polyline class="cls-2" points="1183.13 1621.91 1077.79 1804.44 972.38 1621.95"/><line class="cls-2" x1="1077.72" y1="1439.41" x2="1077.72" y2="2169.52"/><line class="cls-2" x1="761.59" y1="1986.96" x2="1393.92" y2="1621.97"/><line class="cls-2" x1="761.59" y1="1621.97" x2="1393.92" y2="1986.96"/><polyline class="cls-2" points="1815.5 1621.91 1710.08 1804.4 1920.83 1804.44"/><polyline class="cls-2" points="1920.83 1804.44 2026.25 1621.95 1815.5 1621.91"/><polyline class="cls-2" points="1499.33 1804.44 1393.92 1986.94 1604.67 1986.98"/><polyline class="cls-2" points="1604.67 1986.98 1710.08 1804.49 1499.33 1804.44"/><polyline class="cls-2" points="1604.67 1621.91 1710.08 1804.4 1499.33 1804.44"/><polyline class="cls-2" points="1499.33 1804.44 1393.92 1621.95 1604.67 1621.91"/><polyline class="cls-2" points="1920.83 1804.44 2026.25 1986.94 1815.5 1986.98"/><polyline class="cls-2" points="1815.5 1986.98 1710.08 1804.49 1920.83 1804.44"/><polyline class="cls-2" points="1604.71 1987 1710.05 1804.47 1815.46 1986.96"/><polyline class="cls-2" points="1815.46 1986.96 1710.12 2169.5 1604.71 1987"/><polyline class="cls-2" points="1604.71 1621.93 1710.05 1439.39 1815.46 1621.88"/><polyline class="cls-2" points="1815.46 1621.88 1710.12 1804.42 1604.71 1621.93"/><line class="cls-2" x1="1710.04" y1="1439.39" x2="1710.04" y2="2169.5"/><line class="cls-2" x1="1393.92" y1="1986.94" x2="2026.25" y2="1621.95"/><line class="cls-2" x1="1393.92" y1="1621.95" x2="2026.25" y2="1986.94"/><polyline class="cls-2" points="1815.5 526.75 1710.08 709.24 1920.83 709.29"/><polyline class="cls-2" points="1920.83 709.29 2026.25 526.79 1815.5 526.75"/><polyline class="cls-2" points="1499.33 709.29 1393.92 891.78 1604.67 891.82"/><polyline class="cls-2" points="1604.67 891.82 1710.08 709.33 1499.33 709.29"/><polyline class="cls-2" points="1604.67 526.75 1710.08 709.24 1499.33 709.29"/><polyline class="cls-2" points="1499.33 709.29 1393.92 526.79 1604.67 526.75"/><polyline class="cls-2" points="1920.83 709.29 2026.25 891.78 1815.5 891.82"/><polyline class="cls-2" points="1815.5 891.82 1710.08 709.33 1920.83 709.29"/><polyline class="cls-2" points="1604.71 891.85 1710.05 709.31 1815.46 891.8"/><polyline class="cls-2" points="1815.46 891.8 1710.12 1074.34 1604.71 891.85"/><polyline class="cls-2" points="1604.71 526.77 1710.05 344.24 1815.46 526.73"/><polyline class="cls-2" points="1815.46 526.73 1710.12 709.26 1604.71 526.77"/><line class="cls-2" x1="1710.04" y1="344.24" x2="1710.04" y2="1074.34"/><line class="cls-2" x1="1393.92" y1="891.78" x2="2026.25" y2="526.79"/><line class="cls-2" x1="1393.92" y1="526.79" x2="2026.25" y2="891.78"/><polyline class="cls-2" points="2131.66 1074.43 2026.25 1256.92 2237 1256.96"/><polyline class="cls-2" points="2237 1256.96 2342.41 1074.47 2131.66 1074.43"/><polyline class="cls-2" points="1815.5 1256.96 1710.08 1439.46 1920.83 1439.5"/><polyline class="cls-2" points="1920.83 1439.5 2026.25 1257.01 1815.5 1256.96"/><polyline class="cls-2" points="1920.83 1074.43 2026.25 1256.92 1815.5 1256.96"/><polyline class="cls-2" points="1815.5 1256.96 1710.08 1074.47 1920.83 1074.43"/><polyline class="cls-2" points="2237 1256.96 2342.41 1439.46 2131.66 1439.5"/><polyline class="cls-2" points="2131.66 1439.5 2026.25 1257.01 2237 1256.96"/><polyline class="cls-2" points="1920.87 1439.52 2026.21 1256.99 2131.62 1439.48"/><polyline class="cls-2" points="2131.62 1439.48 2026.28 1622.02 1920.87 1439.52"/><polyline class="cls-2" points="1920.87 1074.45 2026.21 891.91 2131.62 1074.4"/><polyline class="cls-2" points="2131.62 1074.4 2026.28 1256.94 1920.87 1074.45"/><line class="cls-2" x1="2026.21" y1="891.91" x2="2026.21" y2="1622.02"/><line class="cls-2" x1="1710.08" y1="1439.46" x2="2342.41" y2="1074.47"/><line class="cls-2" x1="1710.08" y1="1074.47" x2="2342.41" y2="1439.46"/><polyline class="cls-2" points="867.01 1074.38 761.59 1256.88 972.34 1256.92"/><polyline class="cls-2" points="972.34 1256.92 1077.76 1074.43 867.01 1074.38"/><polyline class="cls-2" points="550.84 1256.92 445.43 1439.41 656.18 1439.46"/><polyline class="cls-2" points="656.18 1439.46 761.59 1256.96 550.84 1256.92"/><polyline class="cls-2" points="656.18 1074.38 761.59 1256.88 550.84 1256.92"/><polyline class="cls-2" points="550.84 1256.92 445.43 1074.43 656.18 1074.38"/><polyline class="cls-2" points="972.34 1256.92 1077.76 1439.41 867.01 1439.46"/><polyline class="cls-2" points="867.01 1439.46 761.59 1256.96 972.34 1256.92"/><polyline class="cls-2" points="656.22 1439.48 761.55 1256.94 866.97 1439.43"/><polyline class="cls-2" points="866.97 1439.43 761.63 1621.97 656.22 1439.48"/><polyline class="cls-2" points="656.22 1074.4 761.55 891.87 866.97 1074.36"/><polyline class="cls-2" points="866.97 1074.36 761.63 1256.9 656.22 1074.4"/><line class="cls-2" x1="761.55" y1="891.87" x2="761.55" y2="1621.97"/><line class="cls-2" x1="445.43" y1="1439.41" x2="1077.76" y2="1074.43"/><line class="cls-2" x1="445.43" y1="1074.43" x2="1077.76" y2="1439.41"/><polyline class="cls-2" points="1183.13 526.77 1077.72 709.26 1288.47 709.31"/><polyline class="cls-2" points="1288.47 709.31 1393.88 526.82 1183.13 526.77"/><polyline class="cls-2" points="866.97 709.31 761.55 891.8 972.3 891.85"/><polyline class="cls-2" points="972.3 891.85 1077.72 709.35 866.97 709.31"/><polyline class="cls-2" points="972.3 526.77 1077.72 709.26 866.97 709.31"/><polyline class="cls-2" points="866.97 709.31 761.55 526.82 972.3 526.77"/><polyline class="cls-2" points="1288.47 709.31 1393.88 891.8 1183.13 891.85"/><polyline class="cls-2" points="1183.13 891.85 1077.72 709.35 1288.47 709.31"/><polyline class="cls-2" points="972.34 891.87 1077.68 709.33 1183.09 891.82"/><polyline class="cls-2" points="1183.09 891.82 1077.76 1074.36 972.34 891.87"/><polyline class="cls-2" points="972.34 526.79 1077.68 344.26 1183.09 526.75"/><polyline class="cls-2" points="1183.09 526.75 1077.76 709.29 972.34 526.79"/><line class="cls-2" x1="1077.68" y1="344.26" x2="1077.68" y2="1074.36"/><line class="cls-2" x1="761.55" y1="891.8" x2="1393.88" y2="526.82"/><line class="cls-2" x1="761.55" y1="526.82" x2="1393.88" y2="891.8"/></g><circle class="cls-2" cx="1561.94" cy="817.32" r="816.17"/><circle class="cls-2" cx="1561.94" cy="817.32" r="816.17"/><path class="cls-4" d="M656.78,686.79a65.91,65.91,0,1,1,0,131.82h-286a28.51,28.51,0,0,0-28.52,28.51V868.6a28.51,28.51,0,0,0,28.52,28.51h68.94c35.92,0,66.27,28.16,67.26,64.06a65.91,65.91,0,0,1-65.89,67.76l-358.32,0a28.52,28.52,0,0,0-28.51,28.53V1079a28.5,28.5,0,0,0,28.51,28.51h69c35.91,0,66.27,28.16,67.25,64.06a65.9,65.9,0,0,1-65.88,67.76l-588.72.06a65.91,65.91,0,0,1-65.91-65.91,65.91,65.91,0,0,1,65.91-65.91l352.85-.06c15.77,0,29.3-12,29.3-27.77v-22.16A28.57,28.57,0,0,0-82,1029h-65.64a65.91,65.91,0,0,1-65.91-65.91,65.91,65.91,0,0,1,65.91-65.91l352.86-.06c15.77,0,29.29-12,29.29-27.77V847.18A28.51,28.51,0,0,0,206,818.66H68.06a65.91,65.91,0,1,1,0-131.82h0a28.51,28.51,0,0,0,28.51-28.51V636.17c0-15.77-13.53-27.81-29.3-27.78l-352.85,0a65.91,65.91,0,0,1-65.91-65.91,65.91,65.91,0,0,1,65.91-65.91l588.72.05A65.9,65.9,0,0,1,369,544.33c-1,35.9-31.34,64.06-67.25,64.06H232.83a28.51,28.51,0,0,0-28.51,28.51v21.48a28.51,28.51,0,0,0,28.51,28.52l14.27-.11Z" transform="translate(503.57 515.46)"/><line class="cls-5" x1="750.67" y1="1202.25" x2="1160.35" y2="1202.25"/><path class="cls-5" d="M68.06,818.66a65.91,65.91,0,1,1,0-131.82" transform="translate(503.57 515.46)"/><path class="cls-5" d="M656.78,818.61a65.91,65.91,0,1,0,0-131.82" transform="translate(503.57 515.46)"/><path class="cls-5" d="M-82,1029h-65.64a65.91,65.91,0,0,1-65.91-65.91,65.91,65.91,0,0,1,65.91-65.91l352.86-.06c15.77,0,29.29-12,29.29-27.77V847.18A28.51,28.51,0,0,0,206,818.66H68.06" transform="translate(503.57 515.46)"/><path class="cls-5" d="M439.69,897.11c35.92,0,66.27,28.16,67.26,64.06a65.91,65.91,0,0,1-65.89,67.76l-358.32,0" transform="translate(503.57 515.46)"/><path class="cls-5" d="M656.78,818.61h-286a28.51,28.51,0,0,0-28.52,28.51V868.6a28.51,28.51,0,0,0,28.52,28.51h70.31" transform="translate(503.57 515.46)"/><path class="cls-5" d="M151.69,1107.49c35.91,0,66.27,28.16,67.25,64.06a65.9,65.9,0,0,1-65.88,67.76l-588.72.06a65.91,65.91,0,0,1-65.91-65.91,65.91,65.91,0,0,1,65.91-65.91l352.85-.06c15.77,0,29.3-12,29.3-27.77v-22.16A28.57,28.57,0,0,0-82,1029" transform="translate(503.57 515.46)"/><path class="cls-5" d="M82.74,1029a28.52,28.52,0,0,0-28.51,28.53V1079a28.5,28.5,0,0,0,28.51,28.51h70.32" transform="translate(503.57 515.46)"/><path class="cls-5" d="M301.78,608.39c35.91,0,66.27-28.16,67.25-64.06a65.9,65.9,0,0,0-65.88-67.76l-588.72-.05a65.91,65.91,0,0,0-65.91,65.91,65.91,65.91,0,0,0,65.91,65.91l352.85,0c15.77,0,29.3,12,29.3,27.78v22.16a28.51,28.51,0,0,1-28.51,28.51" transform="translate(503.57 515.46)"/><path class="cls-5" d="M303.15,608.39H232.83a28.51,28.51,0,0,0-28.51,28.51v21.48a28.51,28.51,0,0,0,28.51,28.52l14.27-.11" transform="translate(503.57 515.46)"/></g></g></g></g></svg>