<svg xmlns="http://www.w3.org/2000/svg" viewBox="0 0 564.3 561.42"><defs><style>.cls-1{fill:#c22939;}</style></defs><g id="レイヤー_2" data-name="レイヤー 2"><g id="レイヤー_2-2" data-name="レイヤー 2"><path class="cls-1" d="M547.86,236.11s16.78,17.16,16.43,40.88-13.78,42.44-13.78,42.44,13.67,16.72-1.69,44.09c-8.28,14.74-21.2,21-31.38,23.56A55.09,55.09,0,0,1,502,388.93s4.77-1.79,4.77-13.16c0-16.4-18.33-13.59-18.33-13.59v2.55c-7.86-1.93-20.67,2.76-19.54,13.4s10.61,15.09,10.61,15.09l-51.65,2.09c-11.9,0-43.43-3.35-55.06-5.81l-37.34-8c1.23-9.43,1.1-23.75.75-34.63a85.09,85.09,0,0,0-14.88-45.65,150.31,150.31,0,0,0-14.26-17.51c10.29-8.15,9.73-28.68,9.73-28.68,16.51-3.3,42.38-19.73,55.62-32.7,12.76-12.49,36.94-48.2,37.77-85,.54-23.35-5.33-63.07-26.75-89.61C357.81,15.88,307.09,1.16,307.09,1.16c58.06-11.2,128.62,62.3,128.62,62.3,37.44-4.42,56.61,39.7,56.61,39.7,22.92,14,38.65,50.26,39.13,51.38-.83-.53-15.33-9.91-26.64,0-11.63,10.21,3.4,17.42,3.4,17.42s-3,13.65,10.83,15.85,18.61-19.63,18.61-19.63C556.63,190.49,547.86,236.11,547.86,236.11ZM531.19,314A19.18,19.18,0,1,0,512,333.2,19.17,19.17,0,0,0,531.19,314Zm-25-101.73A19.2,19.2,0,1,0,487,231.48,19.21,19.21,0,0,0,506.15,212.28Zm-24.37-89.42a19.18,19.18,0,1,0-19.19,19.19A19.18,19.18,0,0,0,481.78,122.86Zm-21.2,189.65,5.84-55.3s-73.09,39.54-134.08,47.12l9.09,24.93S420.08,334.33,460.58,312.51Zm-15.36,66.8,10.24-37.07s-36.08,14.34-110.81,9.92v20S399.87,386.81,445.22,379.31Zm-5.65-136.12s-.41-26.08-15.2-49.64c0,0-26.49,35.84-49.06,48.68s-42.46,21-46,21.41v18S397.1,279.81,439.57,243.19Z"/><path class="cls-1" d="M533.71,386c5.06,34.45-29,53.18-29,53.18C494.87,485.33,448.6,499,448.6,499s2-16.35-7.24-18.2a89.61,89.61,0,0,0-14.69-1.56,3.78,3.78,0,0,0-3.75,3.06c-1.07,5.44-2.74,16.57.67,20.26,4.53,5,13.64,4.8,13.64,4.8-22.54,38.15-67.15,30.29-67.15,30.29-32.43,26.3-82.53,23.73-82.53,23.73,14.23-13.54,34-55.79,37.42-85.17s-5.28-70.49-5.28-70.49c11.93-7.46,13.51-22.09,13.51-22.09l1,.48c35.84,17.8,99.56,15.09,130.89,14.15,18.77-.56,39.44-4.77,53.13-8.09C527.59,387.86,533.71,386,533.71,386Zm-42.17,44.07a19.26,19.26,0,1,0-19.27,19.27A19.27,19.27,0,0,0,491.54,430.08Zm-70.39,12.28,21.1-30.08s-75.27-.64-104.44-19.84l-3.89,9.33S396.68,441.87,421.15,442.36Zm-32.86,57.49a13.58,13.58,0,1,0-13.57,13.59A13.57,13.57,0,0,0,388.29,499.85Zm-28.12-22.62,24.52-8.18s-11.28-44.49-52.83-64.38l-5.71,7.15S360.78,436.57,360.17,477.23Z"/><path class="cls-1" d="M402.28,113.61c3.67,31-3.62,58.84-15.31,79.08-23.61,40.85-71.62,53.58-71.62,53.58a39.59,39.59,0,0,0-3.17-5.55,132.28,132.28,0,0,0,41.07-20.53c23-17.32,49.43-60.37,44-106Z"/><path class="cls-1" d="M402.28,113.61l-5,.56a99.16,99.16,0,0,0-7.13-27c-22-52.3-66.35-67.47-75.36-70.07a3.62,3.62,0,0,0-3,.46c-6.89,4.55-9.36,5-13.67,1.9-4.56-3.32-2.17-8.58,4.5-10.4,8-2.22,67.15,15.23,87.95,62.32A145.89,145.89,0,0,1,402.28,113.61Z"/><path class="cls-1" d="M259.57,307c.21.78,5,15.18,22.43,15.18,19.11,0,22.28-15.2,22.28-15.2S294.14,314,282,314C270.23,314,260.18,307.42,259.57,307Zm50.82,75.68c-.78.45-13.35,8-28.39,8s-27.47-7.51-28.25-8c.24.8,5.87,16.72,28.2,16.72C305.75,399.41,310.2,383.49,310.39,382.69Zm21.95-37.75v20.94a49,49,0,0,1-9.46,29.27c-7.91,10.67-21.1,22.38-40.88,22.2h-.16c-19.78.18-33-11.53-40.88-22.2a49,49,0,0,1-9.49-29.27V344.94a50.2,50.2,0,0,1,3.89-19.32c5-11.85,14.29-30.83,25.79-38.63a35.2,35.2,0,0,0,20.69,5.55H282A35.22,35.22,0,0,0,302.7,287c11.5,7.8,20.8,26.78,25.76,38.63A49.82,49.82,0,0,1,332.34,344.94ZM282,360.55c28.3,0,33-18.31,33-18.31a82.68,82.68,0,0,1-33,7.45c-18,0-33.19-7.45-33.19-7.45S255.46,360.55,282,360.55Z"/><circle class="cls-1" cx="311.43" cy="209.04" r="12.25"/><path class="cls-1" d="M255,450.56c.8-.3,13.7-5.34,26.83-5.34,14.58,0,28.07,5,28.9,5.34-.46-.64-8.31-10.72-28.9-10.72S255.36,449.92,255,450.56ZM315.72,410s10.54,43.88,2.12,80.2-36,71.12-36,71.12-27.58-34.8-36-71.12S248,410,248,410c10.13,12.49,33.88,11.61,33.88,11.61S305.56,422.52,315.72,410Zm-12.3,67.25s-6.22-7.8-21.42-7.8-21.47,7.8-21.47,7.8a85.38,85.38,0,0,1,21.31-2.52A89.09,89.09,0,0,1,303.42,477.28Zm-5.31,32.2s-8.44-7.72-16.27-7.72-15.9,7.72-15.9,7.72,8.45-2.74,16.06-2.74S298.11,509.48,298.11,509.48Z"/><path class="cls-1" d="M299.69,230.67c7.78,10,15.07,18.79,11.74,35.79-2.62,13.37-17.45,29.16-37,22.76-23.3-7.64-23.86-28.34-22.09-38.82,1-6.06,7-14.85,11.82-21.18A31.64,31.64,0,0,0,270.64,210v-5.74a18.51,18.51,0,0,0-1.77-8.23c-5.74-11.77-21.21-19.67-21.21-19.67,7.48-9.65,23-7.45,23-7.45L282,156.58l10.4,12.89c17.59-.34,22.12,7.94,22.12,7.94-9.57,2.49-15.55,10-18.71,15.33A20.06,20.06,0,0,0,293,203v8.12A31.88,31.88,0,0,0,299.69,230.67Z"/><path class="cls-1" d="M276.29,561.35s-50.1,2.57-82.53-23.73c0,0-44.63,7.86-67.15-30.29,0,0,9.09.19,13.64-4.8,3.38-3.69,1.75-14.82.67-20.26a3.79,3.79,0,0,0-3.78-3.06,89.51,89.51,0,0,0-14.66,1.56c-9.25,1.85-7.26,18.2-7.26,18.2S69,485.33,59.09,439.19c0,0-34-18.73-28.95-53.18,0,0,7.23,2.2,18.06,4.75,13.62,3.21,32.92,6.94,50.56,7.47,31.39.94,95.32,3.68,131.13-14.26.27-.13.51-.24.75-.37,0,0,1.58,14.63,13.51,22.09,0,0-8.71,41.09-5.31,70.49S262.06,547.81,276.29,561.35Zm-38.6-149.53L232,404.67c-41.57,19.89-52.86,64.38-52.86,64.38l24.56,8.18C203,436.57,237.69,411.82,237.69,411.82Zm-7.8-10.05L226,392.44c-29.13,19.2-104.43,19.84-104.43,19.84l21.12,30.08C167.17,441.87,229.89,401.77,229.89,401.77Zm-27.18,98.08a13.58,13.58,0,1,0-13.59,13.59A13.57,13.57,0,0,0,202.71,499.85Zm-91.89-69.77a19.26,19.26,0,1,0-19.27,19.27A19.27,19.27,0,0,0,110.82,430.08Z"/><path class="cls-1" d="M261.28,9.9c7.83,1.29,7.75,8.93,3.7,11.39-3.57,2.2-6.92,1.69-13.54-1.82a4.36,4.36,0,0,0-3.27-.48c-9.41,2.76-53.26,18.06-75.16,70a99.08,99.08,0,0,0-7.16,27l-5-.56a145.79,145.79,0,0,1,11.66-42.22C193.36,26.15,255.12,8.88,261.28,9.9Z"/><circle class="cls-1" cx="252.33" cy="209.04" r="12.25"/><path class="cls-1" d="M257.18,284a148,148,0,0,0-19.57,25.84A69.8,69.8,0,0,0,228.26,342c-.49,11.13-.89,28.71.53,39.73l-37.34,8c-11.63,2.49-43.13,5.84-55,5.84l-51.68-2.09S94.25,389,95.35,378.4,83.69,363.07,75.81,365v-2.55S57.45,359.63,57.48,376c0,11.36,4.8,13.16,4.8,13.16a53.85,53.85,0,0,1-13.41-1.34c-10.42-2.3-24.6-8.34-33.42-24.07-15.34-27.37-1.67-44.1-1.67-44.1S.35,301,0,277.26s16.4-40.88,16.4-40.88-8.74-45.65,10.24-67.9c0,0,4.77,21.82,18.58,19.62s10.83-15.84,10.83-15.84,15-7.21,3.4-17.45c-11.28-9.92-25.79-.56-26.62,0,.49-1.13,16.22-37.4,39.14-51.36,0,0,19.17-44.13,56.61-39.7,0,0,70.53-73.5,128.59-62.3,0,0-50.72,14.72-76.37,46.51-21.39,26.54-27.29,66.26-26.75,89.61.86,36.83,25,72.54,37.79,85,13.25,13,39.09,29.4,55.63,32.7C247.48,255.28,246.91,275.81,257.18,284Zm-22.25-2v-18c-3.51-.4-23.37-8.58-45.94-21.42s-49.09-48.68-49.09-48.68c-14.79,23.57-15.17,49.65-15.17,49.65C167.17,280.07,234.93,282,234.93,282Zm-12.06,47.58,9.06-24.93C171,297,97.85,257.48,97.85,257.48l5.84,55.3C144.19,334.6,222.87,329.53,222.87,329.53Zm-3.25,42.94V352.42c-74.7,4.4-110.81-9.91-110.81-9.91l10.27,37.07C164.43,387.08,219.62,372.47,219.62,372.47ZM120.87,123.13a19.19,19.19,0,1,0-19.19,19.19A19.2,19.2,0,0,0,120.87,123.13ZM96.51,212.55a19.18,19.18,0,1,0-19.17,19.19A19.17,19.17,0,0,0,96.51,212.55Zm-25,101.73a19.2,19.2,0,1,0-19.19,19.19A19.2,19.2,0,0,0,71.47,314.28Z"/><path class="cls-1" d="M250.93,242.55a41.55,41.55,0,0,0-3.16,5.57s-48-12.73-71.62-53.58c-11.69-20.24-19-48.09-15.28-79.08l5,.56c-5.39,45.63,21.07,88.7,44,106A132,132,0,0,0,250.93,242.55Z"/></g></g></svg>