<?xml version="1.0" encoding="UTF-8"?><svg id="_レイヤー_2" xmlns="http://www.w3.org/2000/svg" viewBox="0 0 46.31 46.07"><defs><style>.cls-1{fill:#eab6a3;}</style></defs><g id="_レイヤー_1-2"><g><path class="cls-1" d="m44.72,19.42s1.36,1.39,1.33,3.32c-.03,1.93-1.12,3.44-1.12,3.44,0,0,1.11,1.36-.13,3.58-.67,1.19-1.72,1.7-2.55,1.91-.71.18-1.25.15-1.25.15,0,0,.39-.15.39-1.07,0-1.33-1.49-1.1-1.49-1.1v.21c-.64-.16-1.68.22-1.59,1.09.09.86.86,1.23.86,1.23l-4.2.17c-.97,0-3.52-.27-4.47-.47l-3.03-.65c.1-.77.09-1.93.06-2.81-.04-1.33-.45-2.62-1.21-3.7-.58-.84-1.16-1.42-1.16-1.42.83-.66.79-2.33.79-2.33,1.34-.27,3.44-1.6,4.52-2.66,1.04-1.01,3-3.91,3.07-6.9.04-1.9-.44-5.12-2.17-7.27-2.08-2.58-6.2-3.78-6.2-3.78,4.71-.91,10.44,5.06,10.44,5.06,3.04-.36,4.6,3.22,4.6,3.22,1.86,1.13,3.14,4.08,3.18,4.17-.07-.04-1.24-.81-2.16,0-.94.83.28,1.41.28,1.41,0,0-.24,1.11.88,1.29s1.51-1.59,1.51-1.59c1.54,1.81.83,5.51.83,5.51Zm-1.35,6.32c0-.86-.7-1.56-1.56-1.56s-1.56.7-1.56,1.56.7,1.56,1.56,1.56,1.56-.7,1.56-1.56Zm-2.03-8.26c0-.86-.7-1.56-1.56-1.56s-1.56.7-1.56,1.56.7,1.56,1.56,1.56,1.56-.7,1.56-1.56Zm-1.98-7.26c0-.86-.7-1.56-1.56-1.56s-1.56.7-1.56,1.56.7,1.56,1.56,1.56,1.56-.7,1.56-1.56Zm-1.72,15.39l.47-4.49s-5.93,3.21-10.88,3.83l.74,2.02s6.39.41,9.67-1.36Zm-1.25,5.42l.83-3.01s-2.93,1.16-9,.81v1.63s4.48,1.19,8.16.58Zm-.46-11.05s-.03-2.12-1.23-4.03c0,0-2.15,2.91-3.98,3.95-1.83,1.04-3.44,1.71-3.73,1.74v1.46s5.5-.15,8.95-3.12Z"/><path class="cls-1" d="m43.57,31.58c.41,2.8-2.35,4.32-2.35,4.32-.8,3.74-4.56,4.85-4.56,4.85,0,0,.16-1.33-.59-1.48-.47-.09-.92-.12-1.19-.13-.15,0-.28.1-.3.25-.09.44-.22,1.34.05,1.64.37.4,1.11.39,1.11.39-1.83,3.1-5.45,2.46-5.45,2.46-2.64,2.13-6.7,1.92-6.7,1.92,1.16-1.1,2.76-4.53,3.04-6.91.28-2.39-.43-5.72-.43-5.72.97-.6,1.09-1.79,1.09-1.79.03.01.05.03.08.04,2.91,1.44,8.08,1.22,10.62,1.15,1.53-.05,3.2-.39,4.31-.66.76-.18,1.26-.34,1.26-.34Zm-3.42,3.58c0-.86-.7-1.56-1.56-1.56s-1.56.7-1.56,1.56.7,1.56,1.56,1.56,1.56-.7,1.56-1.56Zm-5.71,1l1.71-2.44s-6.11-.05-8.48-1.61l-.32.76s5.09,3.26,7.08,3.29Zm-2.67,4.67c0-.61-.49-1.1-1.1-1.1s-1.1.49-1.1,1.1.49,1.1,1.1,1.1,1.1-.49,1.1-1.1Zm-2.28-1.84l1.99-.66s-.92-3.61-4.29-5.23l-.46.58s2.81,2.01,2.76,5.31Z"/><path class="cls-1" d="m32.91,9.47c.3,2.52-.29,4.78-1.24,6.42-1.92,3.32-5.81,4.35-5.81,4.35-.07-.18-.26-.45-.26-.45,0,0,1.73-.45,3.33-1.67,1.86-1.41,4.01-4.9,3.57-8.61l.41-.05Z"/><path class="cls-1" d="m32.91,9.47l-.41.05c-.09-.73-.27-1.46-.58-2.19-1.79-4.25-5.38-5.48-6.12-5.69-.08-.02-.17,0-.24.04-.56.37-.76.41-1.11.15-.37-.27-.18-.7.36-.84.65-.18,5.45,1.24,7.14,5.06.52,1.17.82,2.32.95,3.43Z"/><path class="cls-1" d="m21.32,25.17c.02.06.4,1.23,1.82,1.23,1.51,0,1.8-1.17,1.81-1.23-.05.03-.85.57-1.81.57s-1.77-.54-1.82-.57Zm-.47,6.14c.02.07.47,1.36,2.29,1.36,1.93,0,2.29-1.29,2.31-1.36-.06.04-1.08.65-2.3.65s-2.23-.61-2.29-.65Zm6.38-3.06v1.7c0,.85-.26,1.69-.77,2.38-.64.87-1.71,1.82-3.32,1.8h-.01c-1.61.02-2.68-.94-3.32-1.8-.51-.69-.77-1.52-.77-2.38v-1.7c0-.54.11-1.07.32-1.57.4-.96,1.16-2.5,2.09-3.14,0,0,.67.49,1.68.45h.01c1.01.04,1.68-.45,1.68-.45.93.63,1.69,2.17,2.09,3.14.21.5.32,1.03.32,1.57Zm-4.09,1.27c2.3,0,2.68-1.49,2.68-1.49,0,0-1.22.6-2.68.6s-2.7-.6-2.7-.6c0,0,.54,1.49,2.7,1.49Z"/><circle class="cls-1" cx="25.53" cy="17.22" r=".99"/><path class="cls-1" d="m25.47,36.82c-.04-.05-.67-.87-2.35-.87s-2.15.82-2.18.87c.07-.02,1.11-.43,2.18-.43,1.19,0,2.28.41,2.35.43Zm.41-3.29s.85,3.56.17,6.51c-.68,2.95-2.92,5.77-2.92,5.77,0,0-2.24-2.82-2.92-5.77-.68-2.95.17-6.51.17-6.51.82,1.01,2.75.94,2.75.94,0,0,1.93.07,2.75-.94Zm-1,5.46s-.5-.63-1.74-.63-1.74.63-1.74.63c0,0,.71-.2,1.73-.2s1.75.2,1.75.2Zm-.43,2.61s-.69-.63-1.32-.63-1.29.63-1.29.63c0,0,.69-.22,1.3-.22s1.31.22,1.31.22Z"/><path class="cls-1" d="m24.58,18.97c.63.81,1.23,1.53.96,2.9-.21,1.09-1.42,2.37-3,1.85-1.89-.62-1.94-2.3-1.79-3.15.08-.49.57-1.21.96-1.72.34-.45.52-1,.52-1.56v-.47c0-.23-.04-.46-.14-.67-.47-.96-1.72-1.6-1.72-1.6.61-.78,1.86-.6,1.86-.6l.92-1,.84,1.05c1.43-.03,1.8.64,1.8.64-.78.2-1.26.81-1.52,1.25-.15.25-.23.54-.23.83v.66c0,.57.19,1.13.54,1.59Z"/><path class="cls-1" d="m22.68,45.82s-4.07.21-6.7-1.92c0,0-3.62.64-5.45-2.46,0,0,.74.02,1.11-.39.27-.3.14-1.2.05-1.64-.03-.15-.16-.25-.3-.25-.27,0-.72.03-1.19.13-.75.15-.59,1.48-.59,1.48,0,0-3.76-1.11-4.56-4.85,0,0-2.76-1.52-2.35-4.32,0,0,.59.18,1.47.39,1.11.26,2.67.56,4.1.61,2.55.08,7.74.3,10.65-1.16.02,0,.04-.02.06-.03,0,0,.13,1.19,1.1,1.79,0,0-.7,3.34-.43,5.72.28,2.38,1.88,5.81,3.04,6.91Zm-3.13-12.14l-.46-.58c-3.37,1.61-4.29,5.23-4.29,5.23l1.99.66c-.05-3.3,2.76-5.31,2.76-5.31Zm-.63-.82l-.32-.76c-2.37,1.56-8.48,1.61-8.48,1.61l1.71,2.44c1.98-.04,7.08-3.29,7.08-3.29Zm-2.21,7.96c0-.61-.49-1.1-1.1-1.1s-1.1.49-1.1,1.1.49,1.1,1.1,1.1,1.1-.49,1.1-1.1Zm-7.46-5.66c0-.86-.7-1.56-1.56-1.56s-1.56.7-1.56,1.56.7,1.56,1.56,1.56,1.56-.7,1.56-1.56Z"/><path class="cls-1" d="m21.46,1.05c.63.1.63.72.3.92-.29.18-.56.14-1.1-.15-.08-.04-.18-.07-.27-.04-.76.22-4.33,1.47-6.1,5.68-.31.73-.49,1.46-.58,2.19l-.41-.05c.13-1.1.43-2.26.95-3.43,1.69-3.82,6.7-5.22,7.2-5.14Z"/><circle class="cls-1" cx="20.73" cy="17.22" r=".99"/><path class="cls-1" d="m21.13,23.3s-.9.92-1.59,2.1c-.47.79-.72,1.7-.76,2.62-.04.9-.07,2.33.04,3.22l-3.03.65c-.94.2-3.5.47-4.47.47l-4.19-.17s.77-.36.86-1.23c.09-.86-.95-1.24-1.59-1.09v-.21s-1.49-.23-1.49,1.1c0,.92.39,1.07.39,1.07,0,0-.46.03-1.09-.11-.85-.19-2-.68-2.71-1.95-1.25-2.22-.14-3.58-.14-3.58,0,0-1.09-1.52-1.12-3.44-.03-1.93,1.33-3.32,1.33-3.32,0,0-.71-3.71.83-5.51,0,0,.39,1.77,1.51,1.59,1.12-.18.88-1.29.88-1.29,0,0,1.22-.59.28-1.42-.92-.81-2.1-.05-2.16,0,.04-.09,1.32-3.04,3.18-4.17,0,0,1.56-3.58,4.6-3.22,0,0,5.73-5.97,10.44-5.06,0,0-4.12,1.19-6.2,3.78-1.74,2.15-2.22,5.38-2.17,7.27.07,2.99,2.03,5.89,3.07,6.9,1.07,1.05,3.17,2.39,4.52,2.65,0,0-.04,1.67.79,2.33Zm-1.81-.16v-1.46c-.29-.03-1.9-.7-3.73-1.74-1.83-1.04-3.98-3.95-3.98-3.95-1.2,1.91-1.23,4.03-1.23,4.03,3.45,2.97,8.95,3.12,8.95,3.12Zm-.98,3.86l.74-2.02c-4.95-.62-10.88-3.83-10.88-3.83l.47,4.49c3.29,1.77,9.67,1.36,9.67,1.36Zm-.26,3.49v-1.63c-6.07.36-9-.81-9-.81l.83,3.01c3.68.61,8.16-.58,8.16-.58ZM10.06,10.25c0-.86-.7-1.56-1.56-1.56s-1.56.7-1.56,1.56.7,1.56,1.56,1.56,1.56-.7,1.56-1.56Zm-1.98,7.26c0-.86-.7-1.56-1.56-1.56s-1.56.7-1.56,1.56.7,1.56,1.56,1.56,1.56-.7,1.56-1.56Zm-2.03,8.26c0-.86-.7-1.56-1.56-1.56s-1.56.7-1.56,1.56.7,1.56,1.56,1.56,1.56-.7,1.56-1.56Z"/><path class="cls-1" d="m20.62,19.94s-.18.27-.26.45c0,0-3.9-1.03-5.81-4.35-.95-1.64-1.54-3.9-1.24-6.42l.41.05c-.44,3.7,1.71,7.2,3.57,8.6,1.61,1.21,3.33,1.67,3.33,1.67Z"/></g></g></svg>