<?xml version="1.0" encoding="UTF-8"?><svg id="_レイヤー_2" xmlns="http://www.w3.org/2000/svg" viewBox="0 0 51.34 48.39"><defs><style>.cls-1{fill:none;stroke:#9c1e29;stroke-linecap:round;stroke-linejoin:round;}</style></defs><g id="_レイヤー_6"><g><polyline class="cls-1" points="17.45 38.68 .5 27.23 17.45 29.72"/><path class="cls-1" d="m21.02,47.89l2.27-17.46-5.01-18.59-4.77-2.18,1.39,7.06,6.13,31.17s6.2-5.44,13.72-2.18l.51-5.38"/><polyline class="cls-1" points="17.45 29.72 17.45 44.48 20.35 44.48"/><polyline class="cls-1" points="23.29 30.44 31.52 27.23 22.42 27.23"/><polygon class="cls-1" points="44.64 .5 31.52 27.23 35.81 32.95 44.64 .5"/><polygon class="cls-1" points="22.33 37.82 35.81 32.95 50.84 43.39 35.24 40.34 22.33 37.82"/><polyline class="cls-1" points="13.5 9.67 5.15 16.73 14.89 16.73"/></g></g></svg>