<svg xmlns="http://www.w3.org/2000/svg" viewBox="0 0 24.65 28.05"><defs><style>.cls-1{fill:#4e3427;}</style></defs><g id="レイヤー_2" data-name="レイヤー 2"><g id="メイン"><ellipse class="cls-1" cx="19.09" cy="7.85" rx="5.56" ry="7.85"/><rect class="cls-1" x="17.95" y="13.91" width="2.28" height="14.13" rx="1.14"/><rect class="cls-1" x="4.42" y="13.91" width="2.28" height="14.13" rx="1.14"/><path class="cls-1" d="M9.76,0C9.11,0,8.65.4,8.65.8V9.44H6.8V.8C6.8.4,6.33,0,5.69,0S4.32.32,4.32.77V9.44H2.48V.8C2.48.4,2,0,1.37,0S0,.32,0,.77V12.94c0,1.66,2.88,3,5.56,3h0c3.46,0,5.56-1.74,5.56-3.88V.77C11.12.32,10.49,0,9.76,0Z"/></g></g></svg>