<svg xmlns="http://www.w3.org/2000/svg" viewBox="0 0 595.28 566.37"><defs><style>.cls-1{fill:#eee;}.cls-2{fill:#efb9a6;}</style></defs><g id="レイヤー_2" data-name="レイヤー 2"><g id="本体_イラスト"><rect id="背景" class="cls-1" width="595.28" height="566.37"/><path id="愛知_map" class="cls-2" d="M264.54,444.07c-11.67-2.34,76.13-48.46,66.77-69.95-5.54-12.73-28.72-25.47-39.37-29.74-13.91-5.57-26-33.64-44-26.58-8,3.13-34.09,6.76-36.73,19-3.65,16.9,5.51,62.48,0,61.21-37.84-8.66-66.71-85.5-69.1-152.81-.79-22.21-26.85,5.79-42.62-.23-4.25-1.62-13.1-61.06-.46-78.05,16-21.46,41.51-37.38,46.37-36.73,26.57,3.53,50.88,32.44,96.42,41.32,15.69,3.06,38.23-15.71,81.11-19.9,20.38-2,43.27,14.51,65.81,16.84,37.87,3.91,89.73-28.75,108.66-15.31,18.18,12.91-15.32,77.37-10.29,98,2.84,11.66-6.71,37.9-18.14,54.32s-43.49,24.95-55.74,48.16c-11.41,21.6-23.76,43.23-42.85,59.84C327.05,451.1,302.66,451.71,264.54,444.07Z"/></g></g></svg>