<svg xmlns="http://www.w3.org/2000/svg" viewBox="0 0 38.38 38.56"><defs><style>.cls-1{fill:#efb9a6;}</style></defs><g id="レイヤー_2" data-name="レイヤー 2"><g id="本体_イラスト"><g id="map"><path class="cls-1" d="M9.64,34.9l-7,3.47A1.83,1.83,0,0,1,0,36.73V5.3A1.83,1.83,0,0,1,1,3.66L8,.19a1.83,1.83,0,0,1,2.64,1.64V33.26A1.83,1.83,0,0,1,9.64,34.9Z"/><path class="cls-1" d="M14.88,34.9l7,3.47a1.83,1.83,0,0,0,2.64-1.64V5.3a1.83,1.83,0,0,0-1-1.64l-7-3.47a1.83,1.83,0,0,0-2.64,1.64V33.26A1.83,1.83,0,0,0,14.88,34.9Z"/><path class="cls-1" d="M37.37,34.9l-7,3.47a1.83,1.83,0,0,1-2.64-1.64V5.3a1.83,1.83,0,0,1,1-1.64l7-3.47a1.83,1.83,0,0,1,2.64,1.64V33.26A1.83,1.83,0,0,1,37.37,34.9Z"/></g></g></g></svg>