<?xml version="1.0" encoding="UTF-8"?><svg id="_レイヤー_2" xmlns="http://www.w3.org/2000/svg" viewBox="0 0 46.59 48.69"><defs><style>.cls-1{stroke-linecap:round;stroke-linejoin:round;}.cls-1,.cls-2{fill:none;stroke:#e5b3a0;}.cls-3{fill:#e5b3a0;}.cls-2{stroke-miterlimit:10;}</style></defs><g id="_レイヤー_3"><polygon class="cls-3" points="11.01 35.47 6.54 35.91 10.57 39.94 11.01 35.47"/></g><g id="_レイヤー_6"><path class="cls-1" d="m19.51,1.31l-9.71,35.32L.5,1.47s51.14-11.76,45.1,46.72l-35.8-11.56"/><polyline class="cls-1" points="36.9 10.41 9.8 36.63 45.29 28.73"/><path class="cls-1" d="m5.45,20.17s22.25-4.07,19.75,21.43"/><line class="cls-1" x1="9.8" y1=".5" x2="9.37" y2="19.55"/><line class="cls-1" x1="28.89" y1="4.44" x2="18.21" y2="22.3"/><line class="cls-1" x1="23.86" y1="28.97" x2="42.27" y2="18.55"/><line class="cls-1" x1="25.39" y1="37.11" x2="46.08" y2="37.7"/><polygon class="cls-2" points="8.83 32.98 9.59 31.02 10.89 32.66 12.53 32 12.81 33.71 14.84 33.95 13.98 35.7 15.42 37.11 13.87 37.94 9.8 36.63 8.83 32.98"/></g></svg>