<?xml version="1.0" encoding="UTF-8"?><svg id="_レイヤー_2" xmlns="http://www.w3.org/2000/svg" viewBox="0 0 49.71 742.07"><defs><style>.cls-1{stroke-width:1.5px;}.cls-1,.cls-2,.cls-3,.cls-4{stroke:#e5b3a0;stroke-miterlimit:10;}.cls-1,.cls-4{fill:none;}.cls-2{stroke-width:2px;}.cls-2,.cls-3{fill:#e5b3a0;}</style></defs><g id="_レイヤー_3"><line class="cls-1" x1="24.5" y1="102.67" x2="24.5" y2="355.63"/><line class="cls-1" x1="24.5" y1="436.99" x2="24.5" y2="742.07"/><line class="cls-1" x1="24.5" x2="24.5" y2="32.54"/></g><g id="_レイヤー_6"><g><g><rect class="cls-4" x="9.77" y="39.86" width="29.5" height="7.06"/><rect class="cls-4" x="9.77" y="85.32" width="29.5" height="7.06"/><path class="cls-4" d="m18.96,82.25l-.16-.46c-3.5-10.14-3.5-21.15,0-31.29l.16-.46h11.12s.16.46.16.46c3.5,10.14,3.5,21.15,0,31.29l-.16.46h-11.12Z"/><path class="cls-3" d="m8.76,82.21l-4.15-4.58c-1.99-2.19-3.4-4.67-3.78-7.28-.49-3.32-.43-6.45.17-9.44.39-1.94,1.31-3.81,2.71-5.48l4.51-5.4h6.77s-3,9.99-3,9.99c-1.01,4.31-.99,8.73.08,13.03l2.68,9.16h-5.99Z"/><path class="cls-3" d="m40.24,50.05l4.15,4.58c1.99,2.19,3.4,4.67,3.78,7.28.49,3.32.43,6.45-.17,9.44-.39,1.94-1.31,3.81-2.71,5.48l-4.51,5.4h-6.77s3-9.99,3-9.99c1.01-4.31.99-8.73-.08-13.03l-2.68-9.16h5.99Z"/></g><line class="cls-2" x1="17.46" y1="46.92" x2="17.46" y2="39.86"/><line class="cls-2" x1="32.26" y1="46.92" x2="32.26" y2="39.86"/><line class="cls-2" x1="17.46" y1="92.39" x2="17.46" y2="85.32"/><line class="cls-2" x1="32.26" y1="92.39" x2="32.26" y2="85.32"/></g><g><rect class="cls-4" x="10.48" y="371.9" width="29.5" height="7.06"/><rect class="cls-4" x="10.48" y="417.37" width="29.5" height="7.06"/><path class="cls-3" d="m19.67,414.29l-.16-.46c-3.5-10.14-3.5-21.15,0-31.29l.16-.46h11.12s.16.46.16.46c3.5,10.14,3.5,21.15,0,31.29l-.16.46h-11.12Z"/><path class="cls-3" d="m9.47,414.26l-4.15-4.58c-1.99-2.19-3.4-4.67-3.78-7.28-.49-3.32-.43-6.45.17-9.44.39-1.94,1.31-3.81,2.71-5.48l4.51-5.4h6.77s-3,9.99-3,9.99c-1.01,4.31-.99,8.73.08,13.03l2.68,9.16h-5.99Z"/><path class="cls-3" d="m40.95,382.09l4.15,4.58c1.99,2.19,3.4,4.67,3.78,7.28.49,3.32.43,6.45-.17,9.44-.39,1.94-1.31,3.81-2.71,5.48l-4.51,5.4h-6.77s3-9.99,3-9.99c1.01-4.31.99-8.73-.08-13.03l-2.68-9.16h5.99Z"/><line class="cls-2" x1="15.7" y1="378.96" x2="15.7" y2="371.9"/><line class="cls-2" x1="25.21" y1="371.9" x2="25.21" y2="378.96"/><line class="cls-2" x1="34.72" y1="378.54" x2="34.72" y2="371.47"/><line class="cls-2" x1="15.72" y1="424.64" x2="15.72" y2="417.58"/><line class="cls-2" x1="25.23" y1="417.58" x2="25.23" y2="424.64"/><line class="cls-2" x1="34.74" y1="424.22" x2="34.74" y2="417.15"/></g></g></svg>