<?xml version="1.0" encoding="UTF-8"?><svg id="_レイヤー_2" xmlns="http://www.w3.org/2000/svg" viewBox="0 0 58.96 40.44"><defs><style>.cls-1{fill:#9c1e29;}.cls-1,.cls-2{stroke:#9c1e29;stroke-miterlimit:10;}.cls-2{fill:none;}</style></defs><g id="_レイヤー_6"><g><path class="cls-2" d="m58.35.66s-.9,5.53-5.42,5.98c-23.3,2.3-49.17,0-49.17,0C-1,4.92.86.66.86.66c0,0,26.3,7.37,57.49,0Z"/><polyline class="cls-2" points="14.99 7.33 14.99 39.94 19.36 39.94 19.36 7.66"/><polyline class="cls-2" points="38.92 7.52 38.92 39.94 43.41 39.94 43.41 7.33"/><rect class="cls-1" x="27.15" y="3.77" width="4.97" height="6.97"/><polyline class="cls-2" points="14.99 11.66 7.11 11.66 7.11 15.04 14.99 15.04"/><line class="cls-2" x1="19.36" y1="11.66" x2="38.92" y2="11.66"/><polyline class="cls-2" points="43.41 11.66 51.38 11.66 51.38 15.04 43.41 15.04"/><line class="cls-2" x1="38.92" y1="15.04" x2="19.36" y2="15.04"/></g></g></svg>