<?xml version="1.0" encoding="UTF-8"?>
<svg id="_レイヤー_2" data-name="レイヤー 2" xmlns="http://www.w3.org/2000/svg" viewBox="0 0 49.42 37.53">
  <defs>
    <style>
      .cls-1 {
        fill: #de7c7c;
      }

      .cls-2 {
        fill: none;
        stroke: #a41a29;
        stroke-miterlimit: 10;
      }
    </style>
  </defs>
  <g id="_レイヤー_1-2" data-name="レイヤー 1">
    <g>
      <g>
        <path class="cls-1" d="m38.15,30.99l.1,1.49c-1.99,1.07-3.9,1.91-5.72,2.57,0,0-4.64-2.45,0-5.56,0,0-2.04-6.25,1.53-6.43,0,0,1.37,0,3.02,1.66,0,0-.33-1.67.47-2.93l.6,9.21Z"/>
        <polygon class="cls-1" points="22.79 11.75 31.66 7.6 30.67 14.26 25.99 12.77 23.64 12.02 23.64 12.01 22.79 11.75"/>
        <polygon class="cls-1" points="25.99 12.77 30.36 18.84 25.28 20.2 23.64 12.02 25.99 12.77"/>
        <polygon class="cls-1" points="22.79 11.75 22.06 20.2 17.18 19.58 20.57 13.17 22.79 11.75"/>
        <polygon class="cls-1" points="22.79 11.75 20.57 13.17 16.8 15.58 16.13 8.94 22.79 11.75"/>
        <path class="cls-1" d="m7.01,7.56l2-1.63,5.75,2.43c.38,2.84,0,2.81,0,2.81-1.35,2.23-5.75,1.17-5.75,1.17.1,3.61-2.56,3.63-2.56,3.63-3.71-.18-3.88-4.8-3.88-4.8l4.38-3.57h0s.05-.04.05-.04Z"/>
      </g>
      <g>
        <path class="cls-2" d="m6.97,7.6l-4.38,3.57-1.95,1.58,6.11,11.44,4.41-3.21v13.56s8.24,5.22,21.38.5c1.81-.65,3.72-1.49,5.72-2.57l-.1-1.49-.6-9.21-.14-2.19,6.05,1.39,5.3-11.01-10.5-5.46-7.44-3.87-3.43,4.74-4.6,6.36-5.13-5.91"/>
        <polyline class="cls-2" points="17.66 5.84 14.14 1.77 9.01 5.93 7.01 7.56 6.97 7.6"/>
        <polyline class="cls-2" points="9.01 5.93 14.77 8.36 16.13 8.94 22.79 11.75 31.66 7.6 38.26 4.51"/>
        <polyline class="cls-2" points="23.64 12.02 25.99 12.77 30.67 14.26 31.66 7.6"/>
        <polyline class="cls-2" points="16.13 8.94 16.8 15.58 20.57 13.17 22.79 11.75"/>
        <polyline class="cls-2" points="20.57 13.17 17.18 19.58 22.06 20.2 22.79 11.75 23.64 12.01 23.64 12.02 25.28 20.2 30.36 18.84 25.99 12.77"/>
        <path class="cls-2" d="m2.58,11.17s.17,4.62,3.88,4.8c0,0,2.66-.02,2.56-3.63,0,0,4.4,1.07,5.75-1.17,0,0,.38.03,0-2.81"/>
        <polyline class="cls-2" points="6.97 11.59 6.97 7.6 6.97 7.6"/>
        <polyline class="cls-2" points="6.97 7.51 7.01 7.56 8.72 9.21"/>
        <path class="cls-2" d="m32.53,35.05s-4.64-2.45,0-5.56c0,0-2.04-6.25,1.53-6.43,0,0,1.37,0,3.02,1.66,0,0-.33-1.67.47-2.93"/>
        <line class="cls-2" x1="35.59" y1="31.84" x2="38.25" y2="32.48"/>
        <polyline class="cls-2" points="36.48 28.42 38.15 30.99 38.26 31.16"/>
        <path class="cls-2" d="m17.66,5.84h0c.21.06,5.76,1.58,9.73-.45"/>
      </g>
    </g>
  </g>
</svg>