<?xml version="1.0" encoding="UTF-8"?>
<svg id="_レイヤー_2" data-name="レイヤー 2" xmlns="http://www.w3.org/2000/svg" viewBox="0 0 38.89 51.36">
  <defs>
    <style>
      .cls-1 {
        fill: #de7c7c;
      }

      .cls-2 {
        fill: none;
      }

      .cls-2, .cls-3 {
        stroke: #a41a29;
        stroke-miterlimit: 10;
      }

      .cls-3 {
        fill: #ffeec0;
      }
    </style>
  </defs>
  <g id="_レイヤー_1-2" data-name="レイヤー 1">
    <g>
      <g>
        <g>
          <path class="cls-1" d="m16.67.5c8.93,0,16.17,7.24,16.17,16.17,0,7.91-5.69,14.5-13.2,15.89-.96.19-1.95.28-2.97.28-.55,0-1.1-.03-1.63-.08C6.87,31.94.5,25.05.5,16.67.5,7.74,7.74.5,16.67.5Z"/>
          <path class="cls-1" d="m19.69,32.84l5.38,18.02H8.28l6.75-18.02v-.08c.54.05,1.09.08,1.64.08,1.02,0,2.01-.09,2.97-.28l.05.28Z"/>
        </g>
        <g>
          <path class="cls-2" d="m15.04,32.76C6.87,31.94.5,25.05.5,16.67.5,7.74,7.74.5,16.67.5s16.17,7.24,16.17,16.17c0,7.91-5.69,14.5-13.2,15.89-.96.19-1.95.28-2.97.28-.55,0-1.1-.03-1.63-.08Z"/>
          <polyline class="cls-2" points="15.03 32.84 8.28 50.86 25.07 50.86 19.69 32.84"/>
        </g>
      </g>
      <rect class="cls-3" x="3.05" y="12.27" width="10.46" height="6.51"/>
      <rect class="cls-3" x="19.83" y="12.27" width="10.46" height="6.51"/>
      <line class="cls-2" x1="13.25" y1="15.53" x2="20.1" y2="15.53"/>
      <path class="cls-2" d="m36.18,9.88c-.27.73-.67,1.6-1.29,2.49-.25.37-.51.69-.77.98.35.36.73.79,1.11,1.3.5.67.86,1.32,1.14,1.88.32-.67.67-1.37,1.05-2.08.28-.52.56-1.02.84-1.49-.27-.26-.55-.56-.82-.91-.61-.78-1-1.55-1.25-2.17Z"/>
    </g>
  </g>
</svg>