<?xml version="1.0" encoding="UTF-8"?>
<svg id="_レイヤー_2" data-name="レイヤー 2" xmlns="http://www.w3.org/2000/svg" viewBox="0 0 33.34 51.37">
  <defs>
    <style>
      .cls-1 {
        stroke-width: 2px;
      }

      .cls-1, .cls-2 {
        fill: none;
        stroke: #a41a29;
        stroke-miterlimit: 10;
      }

      .cls-3 {
        fill: #de7c7c;
      }
    </style>
  </defs>
  <g id="_レイヤー_1-2" data-name="レイヤー 1">
    <g>
      <g>
        <path class="cls-3" d="m16.55,13.47l11.03-8.73c3.23,2.96,5.26,7.21,5.26,11.94,0,7.92-5.69,14.51-13.21,15.89-.96.19-1.95.28-2.96.28-.56,0-1.11-.03-1.65-.08C6.86,31.94.5,25.05.5,16.68.5,11.91,2.56,7.62,5.85,4.66l10.7,8.81Z"/>
        <path class="cls-3" d="m27.58,4.74l-11.03,8.73L5.85,4.66C8.71,2.07,12.51.5,16.67.5s8.04,1.61,10.91,4.24Z"/>
        <path class="cls-3" d="m15.02,32.85v-.08c.54.05,1.09.08,1.65.08,1.01,0,2-.09,2.96-.28l.05.28,5.38,18.02H8.28l6.74-18.02Z"/>
      </g>
      <g>
        <path class="cls-2" d="m27.58,4.74c3.23,2.96,5.26,7.21,5.26,11.94,0,7.92-5.69,14.51-13.21,15.89-.96.19-1.95.28-2.96.28-.56,0-1.11-.03-1.65-.08C6.86,31.94.5,25.05.5,16.68.5,11.91,2.56,7.62,5.85,4.66,8.71,2.07,12.51.5,16.67.5s8.04,1.61,10.91,4.24Z"/>
        <polyline class="cls-2" points="15.02 32.85 8.28 50.87 25.06 50.87 19.68 32.85"/>
        <polyline class="cls-1" points="3.39 2.63 5.85 4.66 16.55 13.47 26.71 21.84"/>
        <polyline class="cls-1" points="6.26 21.61 16.55 13.47 27.58 4.74 29.94 2.87"/>
      </g>
    </g>
  </g>
</svg>