<?xml version="1.0" encoding="UTF-8"?>
<svg id="_レイヤー_2" data-name="レイヤー 2" xmlns="http://www.w3.org/2000/svg" viewBox="0 0 75.16 36.06">
  <defs>
    <style>
      .cls-1 {
        stroke: #de7c7c;
        stroke-width: 2px;
      }

      .cls-1, .cls-2 {
        fill: none;
        stroke-miterlimit: 10;
      }

      .cls-3 {
        fill: #de7c7c;
      }

      .cls-2 {
        stroke: #a41a29;
      }

      .cls-4 {
        fill: #ffeec0;
      }
    </style>
  </defs>
  <g id="_レイヤー_1-2" data-name="レイヤー 1">
    <g>
      <g>
        <path class="cls-4" d="m47.55,9.12l-.73,7.25-2.49,1.73-1.98,1.37-6.31,4.38-1.99,1.38-2.14,1.49-6.06,4.2-5.45,3.78c.07-2.17.13-4.35.2-6.52l18.21-12.88,8.74-6.18Z"/>
        <path class="cls-4" d="m47.55,9.12l-8.74,6.18-.6-.84c.24-.16.51-.43.64-.87-.33-.19-.67-.37-1.03-.55-.98-.48-1.93-.86-2.81-1.16-2.71-.99-4.82-.97-6.24-.77-3.49.49-3.9,2.24-9.64,4.21-2.09.72-5.57,1.71-5.57,1.71-.31-2.52.07-4.47.4-5.65.4-1.39.73-2.58,1.82-3.52,1.68-1.45,3.9-1.24,4.52-1.17,1.13-.73,1.65-1.2,1.57-1.39-.02-.04-.05-.07-.11-.08-.22-.13-.5-.28-.82-.42l.08-.18L26.87.57l20.68,8.55Z"/>
        <path class="cls-4" d="m44.45,18.27c.24,2.6.47,5.2.71,7.8l-1.95,1.76-.78-8.25-.08-.11,1.98-1.37.12.17Z"/>
        <path class="cls-3" d="m42.43,19.58l.78,8.25-.15.26-7.02-4.24,6.31-4.38.08.11Z"/>
        <path class="cls-4" d="m38.21,14.46l.6.84-18.21,12.88c-6.54-3.16-13.08-6.31-19.62-9.46,3.14-2.23,6.27-4.47,9.4-6.7h.01c.2,1.61.8,3.35,1.86,5.01l.1.2c-.11.05-.21.12-.3.21-.46.47-.46,1.23,0,1.7.47.47,1.23.47,1.7,0,.12-.11.21-.25.26-.39l.28.03c1.22.26,2.62.44,4.15.45,5.89.05,10.42-2.4,12.77-3.94.31-.27,2.34-1.94,4.8-1.41.75.17,1.34.49,1.76.79.13-.04.28-.1.44-.21Z"/>
        <path class="cls-3" d="m38.85,13.59c-.13.44-.4.71-.64.87-.16.11-.31.17-.44.21-.42-.3-1.01-.62-1.76-.79-2.46-.53-4.49,1.14-4.8,1.41-2.35,1.54-6.88,3.99-12.77,3.94-1.53-.01-2.93-.19-4.15-.45l-.28-.03c.18-.44.09-.96-.26-1.31-.09-.09-.19-.16-.3-.21l.11-.2s3.48-.99,5.57-1.71c5.74-1.97,6.15-3.72,9.64-4.21,1.42-.2,3.53-.22,6.24.77.88.3,1.83.68,2.81,1.16.36.18.7.36,1.03.55Z"/>
        <path class="cls-4" d="m34.05,25.23c.24,2.69.49,5.37.73,8.05l-1.95,1.76c-.31-2.77-.61-5.55-.92-8.32l2.14-1.49Z"/>
        <path class="cls-3" d="m31.91,26.72c.31,2.77.61,5.55.92,8.32l-.19.3-6.79-4.42,6.06-4.2Z"/>
        <path class="cls-3" d="m21.87,5.3c.08.19-.44.66-1.57,1.39-.62-.07-2.84-.28-4.52,1.17-1.09.94-1.42,2.13-1.82,3.52-.33,1.18-.71,3.13-.4,5.65l-.11.2c-.34-.18-.76-.18-1.1,0l-.1-.2c-1.06-1.66-1.66-3.4-1.86-5.01-.32-2.31.17-4.38,1.29-5.72s2.63-1.91,3.72-2.17c.69-.11,1.57-.18,2.58-.09,1.23.12,2.12.43,2.39.53.2.07.39.15.57.23.32.14.6.29.82.42.06.01.09.04.11.08Z"/>
        <path class="cls-4" d="m20.6,28.18c-.07,2.17-.13,4.35-.2,6.52L.98,25.27v-6.55c6.54,3.15,13.08,6.3,19.62,9.46Z"/>
        <path class="cls-3" d="m13.75,17.44c.35.35.44.87.26,1.31-.05.14-.14.28-.26.39-.47.47-1.23.47-1.7,0-.46-.47-.46-1.23,0-1.7.09-.09.19-.16.3-.21.34-.18.76-.18,1.1,0,.11.05.21.12.3.21Z"/>
      </g>
      <g>
        <path class="cls-2" d="m21.02,4.62L26.87.57l20.68,8.55-8.74,6.18-18.21,12.88c-6.54-3.16-13.08-6.31-19.62-9.46,3.14-2.23,6.27-4.47,9.4-6.7"/>
        <path class="cls-2" d="m.98,18.72v6.55l19.42,9.43c.07-2.17.13-4.35.2-6.52"/>
        <polyline class="cls-2" points="47.55 9.12 46.82 16.37 44.33 18.1 42.35 19.47 36.04 23.85 34.05 25.23 31.91 26.72 25.85 30.92 20.4 34.7"/>
        <path class="cls-2" d="m34.05,25.23c.24,2.69.49,5.37.73,8.05l-1.95,1.76c-.31-2.77-.61-5.55-.92-8.32"/>
        <path class="cls-2" d="m44.45,18.27c.24,2.6.47,5.2.71,7.8l-1.95,1.76-.78-8.25"/>
        <polyline class="cls-2" points="25.85 30.92 32.64 35.34 32.79 35.44"/>
        <polyline class="cls-2" points="36.04 23.85 43.06 28.09 43.21 28.18"/>
        <path class="cls-2" d="m13.45,17.23c.11.05.21.12.3.21.35.35.44.87.26,1.31-.05.14-.14.28-.26.39-.47.47-1.23.47-1.7,0-.46-.47-.46-1.23,0-1.7.09-.09.19-.16.3-.21.34-.18.76-.18,1.1,0Z"/>
        <path class="cls-2" d="m14.29,18.78c1.22.26,2.62.44,4.15.45,5.89.05,10.42-2.4,12.77-3.94.31-.27,2.34-1.94,4.8-1.41.75.17,1.34.49,1.76.79.13-.04.28-.1.44-.21.24-.16.51-.43.64-.87-.33-.19-.67-.37-1.03-.55-.98-.48-1.93-.86-2.81-1.16-2.71-.99-4.82-.97-6.24-.77-3.49.49-3.9,2.24-9.64,4.21-2.09.72-5.57,1.71-5.57,1.71-.31-2.52.07-4.47.4-5.65.4-1.39.73-2.58,1.82-3.52,1.68-1.45,3.9-1.24,4.52-1.17,1.13-.73,1.65-1.2,1.57-1.39-.02-.04-.05-.07-.11-.08-.22-.13-.5-.28-.82-.42-.18-.08-.37-.16-.57-.23-.27-.1-1.16-.41-2.39-.53-1.01-.09-1.89-.02-2.58.09-1.09.26-2.6.83-3.72,2.17s-1.61,3.41-1.29,5.72c.2,1.61.8,3.35,1.86,5.01"/>
      </g>
    </g>
    <line class="cls-1" x1="75.16" y1="21" x2="75.16" y2="21"/>
  </g>
</svg>