<?xml version="1.0" encoding="UTF-8"?>
<svg id="_レイヤー_2" data-name="レイヤー 2" xmlns="http://www.w3.org/2000/svg" viewBox="0 0 36.7 33.53">
  <defs>
    <style>
      .cls-1 {
        fill: none;
        stroke: #f9f4e6;
        stroke-miterlimit: 10;
      }

      .cls-2 {
        fill: #e0b09d;
      }
    </style>
  </defs>
  <g id="_レイヤー_1-2" data-name="レイヤー 1">
    <g>
      <g>
        <path class="cls-2" d="m36.13,26.76c.15,2.71.03,4.55-.05,4.55,0,0-.02-.05-.03-.13-1.78.42-4.33.96-7.43,1.36-2.29.29-5.75.61-14.6.42-3.57-.08-8.15-.24-13.51-.6-.02-1.7.07-3.37.24-4.99h.06s3.25.64,8.58.99c1.2.08,2.51.14,3.91.19,3.28.1,7.07.06,11.19-.25,1.22-.09,2.47-.21,3.75-.35,2.49-.28,5.08-.66,7.73-1.17h.17Z"/>
        <path class="cls-2" d="m36.13,26.76h-.17c-2.65.52-5.24.9-7.73,1.18l-.03-.26c.75-7.74-1.08-16.2-1.08-16.2h5.2c2.68,4.72,3.57,11.05,3.81,15.28Z"/>
        <path class="cls-2" d="m27.13,11.48s1.82,8.46,1.08,16.2l.03.26c-1.28.14-2.53.26-3.75.35.18-3.42-.44-16.81-.44-16.81h3.08Z"/>
        <path class="cls-2" d="m27.13,11.48h-3.08c-.71-6.08-1.91-7.92-1.91-7.92h-4.69c-.97.72-3.13,7.92-3.13,7.92h-3.28c.11-.46,1.3-4.34,3.33-8.51.54-1.09,1.01-1.96,1.31-2.48h7.79s2.91,6.27,3.67,10.98Z"/>
        <path class="cls-2" d="m24.04,11.48s.62,13.39.44,16.81c-4.12.31-7.91.35-11.19.25v-.19c-.55-3.65,1.02-16.88,1.02-16.88h9.73Z"/>
        <path class="cls-2" d="m11.04,11.48h3.27s-1.57,13.23-1.01,16.88v.19c-1.41-.04-2.71-.1-3.92-.19h0c-.46-3.7,1.55-16.15,1.66-16.85,0-.02,0-.03,0-.03Z"/>
        <path class="cls-2" d="m11.02,11.53s0,0,.02-.02c-.11.7-2.12,13.15-1.66,16.85h0c-5.32-.35-8.58-.98-8.58-.98h-.06c.93-8.8,4.16-15.9,4.16-15.9h6.12s-.01.04-.01.05Z"/>
      </g>
      <g>
        <path class="cls-1" d="m11.03,11.48h-6.12S1.67,18.59.75,27.38c-.17,1.62-.27,3.29-.24,4.99,5.36.36,9.95.53,13.51.6,8.85.19,12.3-.13,14.6-.42,3.1-.4,5.65-.94,7.43-1.36.02.08.03.13.03.13.09,0,.2-1.85.05-4.55-.24-4.23-1.13-10.56-3.81-15.28H11.03Z"/>
        <path class="cls-1" d="m.8,27.38s3.25.63,8.58.98c1.2.08,2.51.14,3.91.19,3.28.1,7.07.06,11.19-.25,1.22-.09,2.47-.21,3.75-.35,2.49-.28,5.08-.66,7.73-1.17"/>
        <path class="cls-1" d="m11.04,11.48s0,.01,0,.03c-.01.01-.01.02-.02.02,0,0,0-.02.01-.05.11-.46,1.3-4.34,3.33-8.51.54-1.09,1.01-1.96,1.31-2.48h7.79s2.91,6.27,3.67,10.98c0,0,1.82,8.46,1.08,16.2"/>
        <path class="cls-1" d="m9.38,28.36c-.46-3.69,1.55-16.15,1.66-16.85"/>
        <path class="cls-1" d="m13.3,28.36c-.56-3.65,1.01-16.88,1.01-16.88,0,0,2.16-7.21,3.13-7.92h4.69s1.2,1.84,1.91,7.92c0,0,.62,13.39.44,16.81"/>
      </g>
    </g>
  </g>
</svg>