<?xml version="1.0" encoding="UTF-8"?>
<svg id="_レイヤー_2" data-name="レイヤー 2" xmlns="http://www.w3.org/2000/svg" viewBox="0 0 38.4 23.36">
  <defs>
    <style>
      .cls-1 {
        fill: #de7c7c;
      }

      .cls-2 {
        fill: none;
        stroke: #a41a29;
        stroke-miterlimit: 10;
      }
    </style>
  </defs>
  <g id="_レイヤー_1-2" data-name="レイヤー 1">
    <g>
      <g>
        <path class="cls-1" d="m35.39.51l2.42,14.53-15.75-7.05c.7.2,1.57.31,2.49.14,2.35-.42,6.1-2.56,6.1-2.56,0,0-2.78-1.31-5.26-1.78l10-3.28Z"/>
        <polygon class="cls-1" points="37.81 15.04 37.01 22.35 32.53 22.41 37.81 15.04"/>
        <path class="cls-1" d="m30.65,5.57s-3.75,2.14-6.1,2.56c-.92.17-1.79.06-2.49-.14l-1.79-.8s.03-.07.04-.1c.07-.23.17-.58.13-1.04-.01-.09-.04-.37-.19-.71l.04-.02s.88-1.71,3.54-1.71c.48,0,1.02.07,1.56.18,2.48.47,5.26,1.78,5.26,1.78Z"/>
        <polygon class="cls-1" points=".6 15.92 6.8 22.78 1.79 22.85 .6 15.92"/>
      </g>
      <g>
        <polyline class="cls-2" points="4.26 1.48 3.11 1.52 .6 15.92 37.81 15.04 35.39 .51 4.27 1.48"/>
        <path class="cls-2" d="m18.09,6.93c-.07-.26-.14-.63-.14-1.08.02-.18.06-.46.2-.77.04-.1.09-.2.16-.3.18-.27.42-.65.78-.67.42-.01.73.48.95.82.09.14.16.28.21.41.15.34.18.62.19.71.04.46-.06.81-.13,1.04-.01.03-.02.07-.04.1-.25.78-.73,1.32-1.06,1.63-.14-.11-.32-.29-.5-.53-.41-.54-.55-1.07-.62-1.36Z"/>
        <path class="cls-2" d="m12.93,4.33c-2.29.69-5.2,2.34-5.2,2.34,0,0,4.15,1.95,6.82,1.96.56,0,1.05-.07,1.46-.2.53-.15.94-.37,1.25-.61.6-.43.83-.89.83-.89"/>
        <path class="cls-2" d="m18.15,5.08s-1.96-1.39-4.32-.97c-.28.05-.58.12-.89.22"/>
        <path class="cls-2" d="m20.23,7.17s.01.01.04.02l1.79.8,15.75,7.05-.8,7.31-4.48.06-25.73.37-5.01.07-1.19-6.93,15.41-7.49,1.25-.61.89-.43"/>
        <path class="cls-2" d="m20.29,5.32s.88-1.71,3.54-1.71c.48,0,1.02.07,1.56.18,2.48.47,5.26,1.78,5.26,1.78,0,0-3.75,2.14-6.1,2.56-.92.17-1.79.06-2.49-.14-.95-.26-1.62-.68-1.79-.8"/>
        <path class="cls-2" d="m12.94,4.33h-.01c-2.88-.95-5.77-1.9-8.66-2.85h-.01"/>
        <line class="cls-2" x1="25.39" y1="3.79" x2="35.39" y2=".51"/>
        <line class="cls-2" x1=".6" y1="15.92" x2="6.8" y2="22.78"/>
        <polyline class="cls-2" points="37.81 15.04 32.53 22.41 32.53 22.42"/>
      </g>
    </g>
  </g>
</svg>