<?xml version="1.0" encoding="UTF-8"?>
<svg id="_レイヤー_2" data-name="レイヤー 2" xmlns="http://www.w3.org/2000/svg" viewBox="0 0 128.89 26.16">
  <defs>
    <style>
      .cls-1 {
        fill: #de7c7c;
      }

      .cls-2 {
        fill: none;
        stroke: #a41a29;
        stroke-miterlimit: 10;
      }
    </style>
  </defs>
  <g id="_レイヤー_1-2" data-name="レイヤー 1">
    <g>
      <g>
        <g>
          <path class="cls-1" d="m118.6,8.5l-12.05.06c-.93-6.63,4.54-8.06,4.54-8.06h.76s4.18,1.1,6.75,8Z"/>
          <path class="cls-1" d="m111.09,22.61h6.41c-.74,3.04-3.34,3.05-3.37,3.05-2.78-.3-3.04-3.05-3.04-3.05Z"/>
          <path class="cls-1" d="m102.36,22.61h6.4c-.73,3.04-3.34,3.05-3.37,3.05-2.78-.3-3.03-3.05-3.03-3.05Z"/>
          <path class="cls-1" d="m97.65,13.02v4.62h-48.25v-3.86c16.09-.25,32.17-.51,48.25-.76Z"/>
          <rect class="cls-1" x="85.05" y="3.62" width="4.93" height="7.29"/>
          <rect class="cls-1" x="76.48" y="3.62" width="4.93" height="7.29"/>
          <rect class="cls-1" x="67.52" y="3.62" width="4.93" height="7.29"/>
          <path class="cls-1" d="m61.11,22.61h6.41c-.74,3.04-3.34,3.05-3.37,3.05-2.78-.3-3.04-3.05-3.04-3.05Z"/>
          <path class="cls-1" d="m51.22,22.61h6.41c-.74,3.04-3.34,3.05-3.37,3.05-2.78-.3-3.04-3.05-3.04-3.05Z"/>
          <polygon class="cls-1" points="44.74 13.67 44.74 15.33 44.74 17.64 .5 17.64 .5 13.67 44.74 13.67"/>
          <path class="cls-1" d="m35.64,22.61h6.4c-.73,3.04-3.34,3.05-3.37,3.05-2.78-.3-3.03-3.05-3.03-3.05Z"/>
          <rect class="cls-1" x="35.64" y="3.62" width="4.93" height="7.29"/>
          <rect class="cls-1" x="28.64" y="3.62" width="4.93" height="7.29"/>
          <path class="cls-1" d="m2.75,22.61h6.4c-.73,3.04-3.34,3.05-3.37,3.05-2.78-.3-3.03-3.05-3.03-3.05Z"/>
          <rect class="cls-1" x="3.32" y="3.62" width="4.92" height="7.29"/>
        </g>
        <g>
          <path class="cls-2" d="m118.6,8.5s.03.07.04.11c0,0,9.57,3.16,9.74,7.4.17,4.24-2.6,6.22-2.6,6.22H49.4V.5h62.45s4.18,1.1,6.75,8Z"/>
          <polyline class="cls-2" points="95.63 .88 95.23 8.61 106.55 8.56 118.6 8.5 118.64 8.5"/>
          <path class="cls-2" d="m49.4,17.64h48.25v-4.62c-16.08.25-32.16.51-48.25.76"/>
          <polyline class="cls-2" points="2.75 22.61 .5 22.61 .5 17.64 .5 13.67 .5 .88 44.74 .88 44.74 13.67 44.74 15.33 44.74 17.64 44.74 22.61 42.04 22.61"/>
          <line class="cls-2" x1="35.64" y1="22.61" x2="9.15" y2="22.61"/>
          <line class="cls-2" x1="44.74" y1="13.67" x2=".5" y2="13.67"/>
          <line class="cls-2" x1="44.74" y1="17.64" x2=".5" y2="17.64"/>
          <path class="cls-2" d="m44.74,15.33c1.56,0,3.11,0,4.66,0"/>
          <rect class="cls-2" x="85.05" y="3.62" width="4.93" height="7.29"/>
          <rect class="cls-2" x="76.48" y="3.62" width="4.93" height="7.29"/>
          <rect class="cls-2" x="67.52" y="3.62" width="4.93" height="7.29"/>
          <rect class="cls-2" x="35.64" y="3.62" width="4.93" height="7.29"/>
          <rect class="cls-2" x="28.64" y="3.62" width="4.93" height="7.29"/>
          <rect class="cls-2" x="3.32" y="3.62" width="4.92" height="7.29"/>
          <path class="cls-2" d="m2.75,22.61s.25,2.75,3.03,3.05c.03,0,2.64,0,3.37-3.05"/>
          <path class="cls-2" d="m35.64,22.61s.25,2.75,3.03,3.05c.03,0,2.64,0,3.37-3.05"/>
          <path class="cls-2" d="m51.22,22.61s.26,2.75,3.04,3.05c.03,0,2.63,0,3.37-3.05"/>
          <path class="cls-2" d="m61.11,22.61s.26,2.75,3.04,3.05c.03,0,2.63,0,3.37-3.05"/>
          <path class="cls-2" d="m111.09,22.61s.26,2.75,3.04,3.05c.03,0,2.63,0,3.37-3.05"/>
          <path class="cls-2" d="m102.36,22.61s.25,2.75,3.03,3.05c.03,0,2.64,0,3.37-3.05"/>
          <path class="cls-2" d="m111.09.5s-5.47,1.43-4.54,8.06c0,.03,0,.07.01.11"/>
        </g>
      </g>
      <line class="cls-2" x1="1.94" y1="22.61" x2="9.15" y2="22.61"/>
      <line class="cls-2" x1="35.23" y1="22.61" x2="42.45" y2="22.61"/>
    </g>
  </g>
</svg>