<?xml version="1.0" encoding="UTF-8"?>
<svg id="_レイヤー_2" data-name="レイヤー 2" xmlns="http://www.w3.org/2000/svg" viewBox="0 0 31.51 66.66">
  <defs>
    <style>
      .cls-1 {
        fill: #de7c7c;
      }

      .cls-2 {
        fill: none;
        stroke: #a41a29;
        stroke-miterlimit: 10;
      }
    </style>
  </defs>
  <g id="_レイヤー_1-2" data-name="レイヤー 1">
    <g>
      <g>
        <path class="cls-1" d="m21.38,10.54l2.17,4.82c-2.37.01-4.74.01-7.12.01-2.54,0-5.07,0-7.59-.01l2.21-4.82h10.33Z"/>
        <path class="cls-1" d="m23.11,61.76l-2.21,4.4h-10.33l-2.17-4.4c2.35.17,4.85.26,7.51.26s4.95-.1,7.2-.26Z"/>
      </g>
      <g>
        <path class="cls-2" d="m23.11,61.76l-2.21,4.4h-10.33l-2.17-4.4c2.35.17,4.85.26,7.51.26s4.95-.1,7.2-.26Z"/>
        <path class="cls-2" d="m8.84,15.36l2.21-4.82h10.33l2.17,4.82c-2.37.01-4.74.01-7.12.01-2.54,0-5.07,0-7.59-.01Z"/>
        <rect class="cls-2" x=".5" y="15.64" width="30.51" height="46.12" rx="9.4" ry="9.4"/>
      </g>
    </g>
  </g>
</svg>