<?xml version="1.0" encoding="UTF-8"?>
<svg id="_レイヤー_2" data-name="レイヤー 2" xmlns="http://www.w3.org/2000/svg" viewBox="0 0 54.06 42.47">
  <defs>
    <style>
      .cls-1 {
        fill: #de7c7c;
      }

      .cls-2 {
        fill: none;
        stroke: #a41a29;
        stroke-miterlimit: 10;
      }
    </style>
  </defs>
  <g id="_レイヤー_1-2" data-name="レイヤー 1">
    <g>
      <g>
        <path class="cls-1" d="m52.66,5.19c1.77,2.04.45,5.38.14,6.16-.23.58-.5,1.08-.78,1.51-4.12.19-11.31-2.91-11.31-2.91-.38-1.62-.16-3.33-.16-3.33l-3.27-.91c-10.52,1.33-17.98.51-17.98.51-1.93,1.92-3.06,2.08-3.06,2.08.22.24.28.91.28,1.65-5.73,4.73-10.82,5.26-10.82,5.26h0c-1.68-1.34-2.93-3.38-2.93-3.38-.43-6.56,3.42-7.68,3.42-7.68,3.16-.1,6.65-1.2,6.65-1.2,1.09-.27,13.06-3.19,22.92-2.27,5.13.48,9.86,1.79,9.86,1.79,1.75.49,3.19.98,4.22,1.35,1.72.22,2.54,1.05,2.82,1.37Z"/>
        <path class="cls-1" d="m40.71,9.95s7.19,3.1,11.31,2.91c-.34.53-.68.95-.97,1.26-6.45,1.34-9.72-2.63-9.72-2.63-.3-.45-.5-.99-.62-1.54Z"/>
        <path class="cls-1" d="m42.51,13.28c2.78,5.31,1.43,20.2,1.43,20.2-16.24,8.59-30.7.71-30.7.71-.17-.98-.28-2.03-.33-3.11-.43-7.68,1.58-17.02,1.58-17.02l4.56-1.17.25-6.67c9.26,5.01,17.98-.51,17.98-.51l.32,6.11,4.91,1.46Zm-6.21,7.32c0-4.28-3.47-7.74-7.74-7.74s-7.75,3.46-7.75,7.74,3.47,7.75,7.75,7.75,7.74-3.47,7.74-7.75Z"/>
        <path class="cls-1" d="m43.94,33.48c-.41,2.06-.81,4.11-1.22,6.17-3.94,1.27-9.98,2.67-17.33,2.25-4.31-.25-7.99-1.06-10.9-1.93-.91-2.19-1.25-5.78-1.25-5.78,0,0,14.46,7.88,30.7-.71Z"/>
        <path class="cls-1" d="m16.52,9.95c-.01,1.16-.18,2.48-.18,2.48,0,0-.82.64-1.99,1.4-1.77,1.16-4.34,2.61-6.05,2.54-.91-.04-1.8-.52-2.6-1.15h0s5.09-.54,10.82-5.27Z"/>
      </g>
      <g>
        <path class="cls-2" d="m13.24,34.19s14.46,7.88,30.7-.71"/>
        <path class="cls-2" d="m14.49,14.06s-2.01,9.34-1.58,17.02c.05,1.08.16,2.13.33,3.11,0,0,.34,3.59,1.25,5.78,2.91.87,6.59,1.68,10.9,1.93,7.35.42,13.39-.98,17.33-2.25.41-2.06.81-4.11,1.22-6.17,0,0,1.35-14.89-1.43-20.2l-4.91-1.46-.32-6.11s-8.72,5.52-17.98.51l-.25,6.67-4.56,1.17Z"/>
        <path class="cls-2" d="m37.28,5.71l3.27.91s-.22,1.71.16,3.33c.12.55.32,1.09.62,1.54,0,0,3.27,3.97,9.72,2.63.29-.31.63-.73.97-1.26.28-.43.55-.93.78-1.51.31-.78,1.63-4.12-.14-6.16-.28-.32-1.1-1.15-2.82-1.37-1.03-.37-2.47-.86-4.22-1.35,0,0-4.73-1.31-9.86-1.79C25.9-.24,13.93,2.68,12.84,2.95c0,0-3.49,1.1-6.65,1.2,0,0-3.85,1.12-3.42,7.68,0,0,1.25,2.04,2.93,3.39.8.63,1.69,1.11,2.6,1.15,1.71.07,4.28-1.38,6.05-2.54,1.17-.76,1.99-1.4,1.99-1.4,0,0,.17-1.32.18-2.48,0-.74-.06-1.41-.28-1.65,0,0,1.13-.16,3.06-2.08,0,0,7.46.82,17.98-.51Z"/>
        <path class="cls-2" d="m12.84,31.08c-22.48,5.99-7.42-15.48-7.14-15.86h0s5.09-.54,10.82-5.27"/>
        <path class="cls-2" d="m36.3,20.6c0,4.28-3.47,7.75-7.74,7.75s-7.75-3.47-7.75-7.75,3.47-7.74,7.75-7.74,7.74,3.46,7.74,7.74Z"/>
        <line class="cls-2" x1="30.9" y1="21.97" x2="33.39" y2="26.64"/>
        <path class="cls-2" d="m40.71,9.95s7.19,3.1,11.31,2.91"/>
      </g>
    </g>
  </g>
</svg>