<?xml version="1.0" encoding="UTF-8"?>
<svg id="_レイヤー_2" data-name="レイヤー 2" xmlns="http://www.w3.org/2000/svg" viewBox="0 0 39.39 52.36">
  <defs>
    <style>
      .cls-1, .cls-2 {
        fill: none;
      }

      .cls-1, .cls-2, .cls-3 {
        stroke: #f9f4e6;
        stroke-miterlimit: 10;
      }

      .cls-2 {
        stroke-width: 2px;
      }

      .cls-3, .cls-4 {
        fill: #e0b09d;
      }
    </style>
  </defs>
  <g id="_レイヤー_1-2" data-name="レイヤー 1">
    <g>
      <g>
        <g>
          <path class="cls-4" d="m17.17,1c8.93,0,16.17,7.24,16.17,16.17,0,7.91-5.69,14.5-13.2,15.89-.96.19-1.95.28-2.97.28-.55,0-1.1-.03-1.63-.08-8.17-.82-14.54-7.71-14.54-16.09C1,8.24,8.24,1,17.17,1Z"/>
          <path class="cls-4" d="m20.19,33.34l5.38,18.02H8.78l6.75-18.02v-.08c.54.05,1.09.08,1.64.08,1.02,0,2.01-.09,2.97-.28l.05.28Z"/>
        </g>
        <g>
          <path class="cls-2" d="m15.54,33.26c-8.17-.82-14.54-7.71-14.54-16.09C1,8.24,8.24,1,17.17,1s16.17,7.24,16.17,16.17c0,7.91-5.69,14.5-13.2,15.89-.96.19-1.95.28-2.97.28-.55,0-1.1-.03-1.63-.08Z"/>
          <polyline class="cls-2" points="15.53 33.34 8.78 51.36 25.57 51.36 20.19 33.34"/>
        </g>
      </g>
      <rect class="cls-3" x="3.55" y="12.77" width="10.46" height="6.51"/>
      <rect class="cls-3" x="20.33" y="12.77" width="10.46" height="6.51"/>
      <line class="cls-1" x1="13.75" y1="16.03" x2="20.6" y2="16.03"/>
      <path class="cls-3" d="m36.68,10.38c-.27.73-.67,1.6-1.29,2.49-.25.37-.51.69-.77.98.35.36.73.79,1.11,1.3.5.67.86,1.32,1.14,1.88.32-.67.67-1.37,1.05-2.08.28-.52.56-1.02.84-1.49-.27-.26-.55-.56-.82-.91-.61-.78-1-1.55-1.25-2.17Z"/>
    </g>
  </g>
</svg>