<?xml version="1.0" encoding="UTF-8"?>
<svg id="_レイヤー_2" data-name="レイヤー 2" xmlns="http://www.w3.org/2000/svg" viewBox="0 0 1722.77 55.95">
  <defs>
    <style>
      .cls-1 {
        stroke: #f9f4e6;
      }

      .cls-1, .cls-2 {
        fill: none;
        stroke-miterlimit: 10;
        stroke-width: 2px;
      }

      .cls-2 {
        stroke: #eab6a3;
      }

      .cls-3 {
        fill: #e5b3a0;
      }
    </style>
  </defs>
  <g id="_レイヤー_1-2" data-name="レイヤー 1">
    <g>
      <g>
        <path class="cls-3" d="m19.57,1c8.93,0,16.17,7.24,16.17,16.17,0,7.92-5.69,14.51-13.21,15.89-.96.19-1.95.28-2.96.28-.56,0-1.11-.03-1.65-.08-8.17-.83-14.52-7.72-14.52-16.09C3.4,8.24,10.63,1,19.57,1Z"/>
        <path class="cls-3" d="m24.52,39.85l3.44,11.51H11.17l4.86-12.99h.01l1.88-5.03v-.08c.54.05,1.09.08,1.65.08,1.01,0,2-.09,2.96-.28l.05.28,1.94,6.51Z"/>
      </g>
      <g>
        <path class="cls-1" d="m17.92,33.26c-8.17-.83-14.52-7.72-14.52-16.09C3.4,8.24,10.63,1,19.57,1s16.17,7.24,16.17,16.17c0,7.92-5.69,14.51-13.21,15.89-.96.19-1.95.28-2.96.28-.56,0-1.11-.03-1.65-.08Z"/>
        <polyline class="cls-1" points="16.03 38.37 11.17 51.36 27.96 51.36 24.52 39.85 22.58 33.34"/>
        <line class="cls-1" x1="17.92" y1="33.34" x2="16.04" y2="38.37"/>
        <polyline class="cls-1" points="16.04 38.37 16.03 38.37 7.25 42.35 .87 31.09"/>
        <polyline class="cls-1" points="24.52 39.85 37.84 46 31.18 55.37"/>
      </g>
    </g>
    <g>
      <path class="cls-2" d="m183.46,14.63c.05-.35.32-1.73,1.66-2.77,1.57-1.22,3.41-1.02,3.71-.99.47.08,1.14.27,1.81.7,1.59,1.02,1.97,2.64,2.05,3.06.33-.06,2.48-.43,4.09.87.55.44.87.95,1.06,1.33.24.44.56,1.19.53,2.14-.07,2.25-2.05,3.6-2.33,3.78,0,0,.96,3.08-1.22,5.31,0,0-2.84,2.77-6.58,0-.34.3-.93.75-1.8,1.03-1.39.46-2.61.21-3.09.08-.47-.15-1.64-.59-2.46-1.71-1.44-1.95-.52-4.2-.43-4.42-.38-.17-.99-.51-1.52-1.13-.82-.95-.95-1.98-.98-2.38-.04-.27-.24-2.06,1.17-3.51,1.68-1.73,4.14-1.41,4.32-1.39Z"/>
      <path class="cls-2" d="m345.43,14.63c.05-.35.32-1.73,1.66-2.77,1.57-1.22,3.41-1.02,3.71-.99.47.08,1.14.27,1.81.7,1.59,1.02,1.97,2.64,2.05,3.06.33-.06,2.48-.43,4.09.87.55.44.87.95,1.06,1.33.24.44.56,1.19.53,2.14-.07,2.25-2.05,3.6-2.33,3.78,0,0,.96,3.08-1.22,5.31,0,0-2.84,2.77-6.58,0-.34.3-.93.75-1.8,1.03-1.39.46-2.61.21-3.09.08-.47-.15-1.64-.59-2.46-1.71-1.44-1.95-.52-4.2-.43-4.42-.38-.17-.99-.51-1.52-1.13-.82-.95-.95-1.98-.98-2.38-.04-.27-.24-2.06,1.17-3.51,1.68-1.73,4.14-1.41,4.32-1.39Z"/>
      <line class="cls-2" x1="59.59" y1="20.09" x2="153.96" y2="20.09"/>
      <line class="cls-2" x1="223.88" y1="20.43" x2="318.25" y2="20.43"/>
      <path class="cls-2" d="m502.46,14.63c.05-.35.32-1.73,1.66-2.77,1.57-1.22,3.41-1.02,3.71-.99.47.08,1.14.27,1.81.7,1.59,1.02,1.97,2.64,2.05,3.06.33-.06,2.48-.43,4.09.87.55.44.87.95,1.06,1.33.24.44.56,1.19.53,2.14-.07,2.25-2.05,3.6-2.33,3.78,0,0,.96,3.08-1.22,5.31,0,0-2.84,2.77-6.58,0-.34.3-.93.75-1.8,1.03-1.39.46-2.61.21-3.09.08-.47-.15-1.64-.59-2.46-1.71-1.44-1.95-.52-4.2-.43-4.42-.38-.17-.99-.51-1.52-1.13-.82-.95-.95-1.98-.98-2.38-.04-.27-.24-2.06,1.17-3.51,1.68-1.73,4.14-1.41,4.32-1.39Z"/>
      <path class="cls-2" d="m664.43,14.63c.05-.35.32-1.73,1.66-2.77,1.57-1.22,3.41-1.02,3.71-.99.47.08,1.14.27,1.81.7,1.59,1.02,1.97,2.64,2.05,3.06.33-.06,2.48-.43,4.09.87.55.44.87.95,1.06,1.33.24.44.56,1.19.53,2.14-.07,2.25-2.05,3.6-2.33,3.78,0,0,.96,3.08-1.22,5.31,0,0-2.84,2.77-6.58,0-.34.3-.93.75-1.8,1.03-1.39.46-2.61.21-3.09.08-.47-.15-1.64-.59-2.46-1.71-1.44-1.95-.52-4.2-.43-4.42-.38-.17-.99-.51-1.52-1.13-.82-.95-.95-1.98-.98-2.38-.04-.27-.24-2.06,1.17-3.51,1.68-1.73,4.14-1.41,4.32-1.39Z"/>
      <line class="cls-2" x1="378.59" y1="20.09" x2="472.96" y2="20.09"/>
      <line class="cls-2" x1="542.88" y1="20.43" x2="637.25" y2="20.43"/>
      <line class="cls-2" x1="697.65" y1="20.43" x2="766.04" y2="20.43"/>
      <path class="cls-2" d="m821.16,15.04c.05-.35.32-1.73,1.66-2.77,1.57-1.22,3.41-1.02,3.71-.99.47.08,1.14.27,1.81.7,1.59,1.02,1.97,2.64,2.05,3.06.33-.06,2.48-.43,4.09.87.55.44.87.95,1.06,1.33.24.44.56,1.19.53,2.14-.07,2.25-2.05,3.6-2.33,3.78,0,0,.96,3.08-1.22,5.31,0,0-2.84,2.77-6.58,0-.34.3-.93.75-1.8,1.03-1.39.46-2.61.21-3.09.08-.47-.15-1.64-.59-2.46-1.71-1.44-1.95-.52-4.2-.43-4.42-.38-.17-.99-.51-1.52-1.13-.82-.95-.95-1.98-.98-2.38-.04-.27-.24-2.06,1.17-3.51,1.68-1.73,4.14-1.41,4.32-1.39Z"/>
      <path class="cls-2" d="m983.13,15.04c.05-.35.32-1.73,1.66-2.77,1.57-1.22,3.41-1.02,3.71-.99.47.08,1.14.27,1.81.7,1.59,1.02,1.97,2.64,2.05,3.06.33-.06,2.48-.43,4.09.87.55.44.87.95,1.06,1.33.24.44.56,1.19.53,2.14-.07,2.25-2.05,3.6-2.33,3.78,0,0,.96,3.08-1.22,5.31,0,0-2.84,2.77-6.58,0-.34.3-.93.75-1.8,1.03-1.39.46-2.61.21-3.09.08-.47-.15-1.64-.59-2.46-1.71-1.44-1.95-.52-4.2-.43-4.42-.38-.17-.99-.51-1.52-1.13-.82-.95-.95-1.98-.98-2.38-.04-.27-.24-2.06,1.17-3.51,1.68-1.73,4.14-1.41,4.32-1.39Z"/>
      <line class="cls-2" x1="697.29" y1="20.5" x2="791.66" y2="20.5"/>
      <line class="cls-2" x1="861.58" y1="20.84" x2="955.95" y2="20.84"/>
      <line class="cls-2" x1="1016.35" y1="20.84" x2="1084.74" y2="20.84"/>
      <path class="cls-2" d="m1140.16,15.04c.05-.35.32-1.73,1.66-2.77,1.57-1.22,3.41-1.02,3.71-.99.47.08,1.14.27,1.81.7,1.59,1.02,1.97,2.64,2.05,3.06.33-.06,2.48-.43,4.09.87.55.44.87.95,1.06,1.33.24.44.56,1.19.53,2.14-.07,2.25-2.05,3.6-2.33,3.78,0,0,.96,3.08-1.22,5.31,0,0-2.84,2.77-6.58,0-.34.3-.93.75-1.8,1.03-1.39.46-2.61.21-3.09.08-.47-.15-1.64-.59-2.46-1.71-1.44-1.95-.52-4.2-.43-4.42-.38-.17-.99-.51-1.52-1.13-.82-.95-.95-1.98-.98-2.38-.04-.27-.24-2.06,1.17-3.51,1.68-1.73,4.14-1.41,4.32-1.39Z"/>
      <path class="cls-2" d="m1302.13,15.04c.05-.35.32-1.73,1.66-2.77,1.57-1.22,3.41-1.02,3.71-.99.47.08,1.14.27,1.81.7,1.59,1.02,1.97,2.64,2.05,3.06.33-.06,2.48-.43,4.09.87.55.44.87.95,1.06,1.33.24.44.56,1.19.53,2.14-.07,2.25-2.05,3.6-2.33,3.78,0,0,.96,3.08-1.22,5.31,0,0-2.84,2.77-6.58,0-.34.3-.93.75-1.8,1.03-1.39.46-2.61.21-3.09.08-.47-.15-1.64-.59-2.46-1.71-1.44-1.95-.52-4.2-.43-4.42-.38-.17-.99-.51-1.52-1.13-.82-.95-.95-1.98-.98-2.38-.04-.27-.24-2.06,1.17-3.51,1.68-1.73,4.14-1.41,4.32-1.39Z"/>
      <line class="cls-2" x1="1016.29" y1="20.5" x2="1110.66" y2="20.5"/>
      <line class="cls-2" x1="1180.58" y1="20.84" x2="1274.95" y2="20.84"/>
      <line class="cls-2" x1="1335.35" y1="20.84" x2="1403.74" y2="20.84"/>
      <path class="cls-2" d="m1459.18,14.99c.05-.35.32-1.73,1.66-2.77,1.57-1.22,3.41-1.02,3.71-.99.47.08,1.14.27,1.81.7,1.59,1.02,1.97,2.64,2.05,3.06.33-.06,2.48-.43,4.09.87.55.44.87.95,1.06,1.33.24.44.56,1.19.53,2.14-.07,2.25-2.05,3.6-2.33,3.78,0,0,.96,3.08-1.22,5.31,0,0-2.84,2.77-6.58,0-.34.3-.93.75-1.8,1.03-1.39.46-2.61.21-3.09.08-.47-.15-1.64-.59-2.46-1.71-1.44-1.95-.52-4.2-.43-4.42-.38-.17-.99-.51-1.52-1.13-.82-.95-.95-1.98-.98-2.38-.04-.27-.24-2.06,1.17-3.51,1.68-1.73,4.14-1.41,4.32-1.39Z"/>
      <path class="cls-2" d="m1621.15,14.99c.05-.35.32-1.73,1.66-2.77,1.57-1.22,3.41-1.02,3.71-.99.47.08,1.14.27,1.81.7,1.59,1.02,1.97,2.64,2.05,3.06.33-.06,2.48-.43,4.09.87.55.44.87.95,1.06,1.33.24.44.56,1.19.53,2.14-.07,2.25-2.05,3.6-2.33,3.78,0,0,.96,3.08-1.22,5.31,0,0-2.84,2.77-6.58,0-.34.3-.93.75-1.8,1.03-1.39.46-2.61.21-3.09.08-.47-.15-1.64-.59-2.46-1.71-1.44-1.95-.52-4.2-.43-4.42-.38-.17-.99-.51-1.52-1.13-.82-.95-.95-1.98-.98-2.38-.04-.27-.24-2.06,1.17-3.51,1.68-1.73,4.14-1.41,4.32-1.39Z"/>
      <line class="cls-2" x1="1335.32" y1="20.45" x2="1429.69" y2="20.45"/>
      <line class="cls-2" x1="1499.6" y1="20.79" x2="1593.97" y2="20.79"/>
      <line class="cls-2" x1="1654.38" y1="20.79" x2="1722.77" y2="20.79"/>
    </g>
  </g>
</svg>