<?xml version="1.0" encoding="UTF-8"?>
<svg id="_レイヤー_2" data-name="レイヤー 2" xmlns="http://www.w3.org/2000/svg" viewBox="0 0 39.36 55.95">
  <defs>
    <style>
      .cls-1 {
        fill: none;
        stroke: #f9f4e6;
        stroke-miterlimit: 10;
        stroke-width: 2px;
      }

      .cls-2 {
        fill: #e5b3a0;
      }
    </style>
  </defs>
  <g id="_レイヤー_1-2" data-name="レイヤー 1">
    <g>
      <g>
        <path class="cls-2" d="m19.57,1c8.94,0,16.18,7.24,16.18,16.17,0,7.92-5.69,14.5-13.21,15.89-.96.19-1.96.28-2.97.28-.55,0-1.1-.03-1.63-.08-8.17-.82-14.54-7.71-14.54-16.09C3.4,8.24,10.64,1,19.57,1Z"/>
        <path class="cls-2" d="m24.53,39.85l3.44,11.51H11.18l4.86-12.99h.01l1.88-5.03v-.08c.54.05,1.09.08,1.64.08,1.01,0,2.01-.09,2.97-.28l.05.28,1.94,6.51Z"/>
      </g>
      <g>
        <path class="cls-1" d="m17.94,33.26c-8.17-.82-14.54-7.71-14.54-16.09C3.4,8.24,10.64,1,19.57,1s16.18,7.24,16.18,16.17c0,7.92-5.69,14.5-13.21,15.89-.96.19-1.96.28-2.97.28-.55,0-1.1-.03-1.63-.08Z"/>
        <polyline class="cls-1" points="16.04 38.37 11.18 51.36 27.97 51.36 24.53 39.85 22.59 33.34"/>
        <line class="cls-1" x1="17.93" y1="33.34" x2="16.05" y2="38.37"/>
        <polyline class="cls-1" points="16.05 38.37 16.04 38.37 7.26 42.35 .87 31.09"/>
        <polyline class="cls-1" points="24.53 39.85 37.85 46 31.19 55.37"/>
      </g>
    </g>
  </g>
</svg>