<?xml version="1.0" encoding="UTF-8"?>
<svg id="_レイヤー_2" data-name="レイヤー 2" xmlns="http://www.w3.org/2000/svg" viewBox="0 0 139.78 20.52">
  <defs>
    <style>
      .cls-1 {
        fill: none;
        stroke: #eab6a3;
        stroke-miterlimit: 10;
        stroke-width: 2px;
      }
    </style>
  </defs>
  <g id="_レイヤー_1-2" data-name="レイヤー 1">
    <path class="cls-1" d="m123.87,4.79c.05-.35.32-1.73,1.66-2.77,1.57-1.22,3.41-1.02,3.71-.99.47.08,1.14.27,1.81.7,1.59,1.02,1.97,2.64,2.05,3.06.33-.06,2.48-.43,4.09.87.55.44.87.95,1.06,1.33.24.44.56,1.19.53,2.14-.07,2.25-2.05,3.6-2.33,3.78,0,0,.96,3.08-1.22,5.31,0,0-2.84,2.77-6.58,0-.34.3-.93.75-1.8,1.03-1.39.46-2.61.21-3.09.08-.47-.15-1.64-.59-2.46-1.71-1.44-1.95-.52-4.2-.43-4.42-.38-.17-.99-.51-1.52-1.13-.82-.95-.95-1.98-.98-2.38-.04-.27-.24-2.06,1.17-3.51,1.68-1.73,4.14-1.41,4.32-1.39Z"/>
    <line class="cls-1" y1="10.26" x2="94.37" y2="10.26"/>
  </g>
</svg>