<?xml version="1.0" encoding="UTF-8"?>
<svg id="_レイヤー_2" data-name="レイヤー 2" xmlns="http://www.w3.org/2000/svg" viewBox="0 0 128.89 26.17">
  <defs>
    <style>
      .cls-1 {
        fill: none;
      }

      .cls-1, .cls-2 {
        stroke: #f9f4e6;
        stroke-miterlimit: 10;
      }

      .cls-2 {
        fill: #e0b09d;
      }
    </style>
  </defs>
  <g id="_レイヤー_1-2" data-name="レイヤー 1">
    <g>
      <path class="cls-2" d="m118.64,8.62s9.57,3.16,9.74,7.4-2.6,6.22-2.6,6.22H49.41V.5h62.44s4.23,1.11,6.79,8.12Z"/>
      <polyline class="cls-2" points="95.64 .88 95.23 8.62 118.64 8.51"/>
      <polyline class="cls-2" points="48.66 17.64 97.65 17.64 97.65 13.02 48.66 13.8"/>
      <rect class="cls-2" x=".5" y=".88" width="44.24" height="21.74"/>
      <line class="cls-2" x1="44.74" y1="13.68" x2=".5" y2="13.68"/>
      <line class="cls-2" x1="44.74" y1="17.64" x2=".5" y2="17.64"/>
      <line class="cls-2" x1="44.74" y1="15.33" x2="48.66" y2="15.33"/>
      <rect class="cls-2" x="85.06" y="3.62" width="4.93" height="7.29"/>
      <rect class="cls-2" x="76.49" y="3.62" width="4.93" height="7.29"/>
      <rect class="cls-2" x="67.52" y="3.62" width="4.93" height="7.29"/>
      <rect class="cls-2" x="35.64" y="3.62" width="4.93" height="7.29"/>
      <rect class="cls-2" x="28.65" y="3.62" width="4.93" height="7.29"/>
      <rect class="cls-2" x="3.32" y="3.62" width="4.93" height="7.29"/>
      <path class="cls-2" d="m2.75,22.62s.25,2.75,3.03,3.05c0,0,2.64,0,3.37-3.05"/>
      <path class="cls-2" d="m35.64,22.62s.25,2.75,3.03,3.05c0,0,2.64,0,3.37-3.05"/>
      <path class="cls-2" d="m51.23,22.62s.25,2.75,3.03,3.05c0,0,2.64,0,3.37-3.05"/>
      <path class="cls-2" d="m61.12,22.62s.25,2.75,3.03,3.05c0,0,2.64,0,3.37-3.05"/>
      <path class="cls-2" d="m111.1,22.62s.25,2.75,3.03,3.05c0,0,2.64,0,3.37-3.05"/>
      <path class="cls-2" d="m102.36,22.62s.25,2.75,3.03,3.05c0,0,2.64,0,3.37-3.05"/>
      <path class="cls-1" d="m111.1.5s-5.53,1.45-4.54,8.18"/>
    </g>
  </g>
</svg>