<?xml version="1.0" encoding="UTF-8"?>
<svg id="_レイヤー_2" data-name="レイヤー 2" xmlns="http://www.w3.org/2000/svg" viewBox="0 0 46.38 35.05">
  <defs>
    <style>
      .cls-1 {
        fill: none;
        stroke: #f9f4e6;
        stroke-miterlimit: 10;
        stroke-width: .75px;
      }

      .cls-2 {
        fill: #eab6a3;
      }
    </style>
  </defs>
  <g id="_レイヤー_1-2" data-name="レイヤー 1">
    <g>
      <g>
        <path class="cls-2" d="m35.75,31.12s0,0,.01,0c.37-.07,3.99-.83,1-3.06.18-.05,4.09-1.19,1.22-3.43l.03-.04s3.62-1.58.69-3.88l.05-.07s3.64-1.59.67-3.89l.04-.06s3.51-1.94.35-4.29l-.03-.05c.46-.23,2.92-1.66-.02-3.73h0c.38-.01.85-.04,1.4-.09,3.09-.29,3.88-.98,4.45-.66,1.29.77-.97,5.77-2.58,11.56-2.34,8.43-2.39,15.19-4.01,15.24-.65.02-1.54-1.04-2.51-2.16-.47-.54-.8-1.04-1.03-1.41.14,0,.22,0,.26.01Z"/>
        <path class="cls-2" d="m39.79,12.36l.03.05c3.16,2.35-.35,4.29-.35,4.29l-.04.06c2.97,2.3-.67,3.89-.67,3.89l-.05.07s-.08-.07-.13-.1l-.09-.02c1.16-6.54,1.33-11.9,1.33-11.9-.06-.02-.13-.04-.2-.06.05,0,.1,0,.16,0h0c2.94,2.07.47,3.5.02,3.73Z"/>
        <path class="cls-2" d="m37.98,24.62c2.87,2.24-1.04,3.38-1.22,3.43.74-2.51,1.29-5.07,1.72-7.46l.09.02s.09.06.13.1c2.93,2.3-.69,3.88-.69,3.88l-.03.04Z"/>
        <path class="cls-2" d="m36.76,28.06c-.3,1.03-.63,2.06-1,3.06,0,0,0,0-.01,0-.03,0-.12,0-.26-.01-1.75-.04-12.07-.54-30.22-5.5,0,0,.01-1.21.16-3.22.15-1.92.42-4.57.94-7.61.22-1.26.47-2.57.77-3.93.3-1.35.65-2.75,1.06-4.16.33-1.16.7-2.34,1.12-3.51,0,0,15.85.94,30.3,5.45.07.02.13.04.2.06,0,0-.17,5.36-1.33,11.9-.43,2.4-.99,4.96-1.72,7.46Z"/>
        <path class="cls-2" d="m36.76,28.06c2.99,2.23-.63,2.99-1,3.06.37-1,.69-2.03,1-3.06Z"/>
        <path class="cls-2" d="m9.25,3.15s.05.02.07.03c-.42,1.17-.79,2.35-1.12,3.51l-.08-.02s-.02-.02-.05-.05c-.31-.36-2-2.5,1.18-3.46Z"/>
        <path class="cls-2" d="m5.43,22.39c-.15,2.02-.16,3.22-.16,3.22,0,0-3.46-2.1.15-3.23h.01Z"/>
        <path class="cls-2" d="m5.49,18.74v-.05s-2.68-2.72.7-3.87c.04-.02.09-.04.14-.05h.03c-.52,3.04-.79,5.69-.94,7.61h-.01s-3.3-2.49.08-3.64Z"/>
        <path class="cls-2" d="m8.12,6.67l.08.02c-.41,1.41-.77,2.81-1.06,4.16l-.11-.03s-.08.03-.12.04l-.02-.07s-2.45-3.02,1.15-4.14l.04-.04s.05.05.05.05Z"/>
        <path class="cls-2" d="m8.07,6.62l-.04.04c-3.6,1.13-1.15,4.14-1.15,4.14l.02.07c-3.42,1.15-.73,3.88-.73,3.88l.03.08c-3.39,1.16-.72,3.87-.72,3.87v.05c-3.36,1.15-.06,3.64-.06,3.64-3.6,1.13-.15,3.23-.15,3.23-.32.27-.82.64-1.46,1.01-1.24.73-2.4,1.41-2.97,1.17-1.44-.59.84-6.96,1.63-15.68C3.01,6.13,2.71.67,4.12.38c.61-.11,1.08.82,3.75,2.14.55.28,1.03.49,1.38.63-3.18.96-1.49,3.1-1.18,3.46Z"/>
        <path class="cls-2" d="m7.02,10.83l.11.03c-.3,1.36-.56,2.67-.77,3.93h-.03s-.1.02-.14.04l-.03-.08s-2.68-2.73.73-3.88c.04-.02.08-.03.12-.04Z"/>
      </g>
      <g>
        <path class="cls-1" d="m35.75,31.12s-.12,0-.26-.01c-1.75-.04-12.07-.54-30.22-5.5,0,0,.01-1.21.16-3.22.15-1.92.42-4.57.94-7.61.22-1.26.47-2.57.77-3.93.3-1.35.65-2.75,1.06-4.16.33-1.16.7-2.34,1.12-3.51,0,0,15.85.94,30.3,5.45.07.02.13.04.2.06,0,0-.17,5.36-1.33,11.9-.43,2.4-.99,4.96-1.72,7.46-.3,1.03-.63,2.06-1,3.06"/>
        <path class="cls-1" d="m5.27,25.61c-.32.27-.82.64-1.46,1.01-1.24.73-2.4,1.41-2.97,1.17-1.44-.59.84-6.96,1.63-15.68C3.01,6.13,2.71.67,4.12.38c.61-.11,1.08.82,3.75,2.14.55.28,1.03.49,1.38.63.03.01.05.02.07.03"/>
        <path class="cls-1" d="m39.5,8.63s.08,0,.12,0c.05,0,.1,0,.16,0,.38,0,.85-.04,1.4-.09,3.09-.29,3.88-.98,4.45-.66,1.29.77-.97,5.77-2.58,11.56-2.34,8.43-2.39,15.19-4.01,15.24-.65.02-1.54-1.04-2.51-2.16-.47-.54-.8-1.04-1.03-1.41-.01-.02-.03-.05-.04-.06"/>
        <path class="cls-1" d="m8.12,6.67s-.02-.02-.05-.05c-.31-.36-2-2.5,1.18-3.46.04-.01.07-.02.1-.03"/>
        <path class="cls-1" d="m6.88,10.8s-2.45-3.02,1.15-4.14"/>
        <path class="cls-1" d="m6.17,14.74s-2.68-2.73.73-3.88c.04-.02.08-.03.12-.04"/>
        <path class="cls-1" d="m5.48,18.7s-2.67-2.72.72-3.87c.04-.02.09-.04.14-.05"/>
        <path class="cls-1" d="m5.42,22.38s-3.3-2.49.08-3.64c.04-.02.09-.03.13-.04"/>
        <path class="cls-1" d="m5.27,25.61s-3.46-2.1.15-3.23"/>
        <path class="cls-1" d="m39.72,12.39s.03-.01.07-.03c.46-.23,2.92-1.66-.02-3.73"/>
        <path class="cls-1" d="m39.47,16.69s3.51-1.94.35-4.29"/>
        <path class="cls-1" d="m38.75,20.64s3.64-1.59.67-3.89c-.03-.03-.07-.05-.11-.08"/>
        <path class="cls-1" d="m38.01,24.58s3.62-1.58.69-3.88c-.04-.04-.08-.07-.13-.1"/>
        <path class="cls-1" d="m36.76,28.06c.18-.05,4.09-1.19,1.22-3.43-.03-.03-.08-.06-.12-.09"/>
        <path class="cls-1" d="m35.73,31.12s0,0,.02,0c0,0,0,0,.01,0,.37-.07,3.99-.83,1-3.06h0"/>
      </g>
    </g>
  </g>
</svg>