<?xml version="1.0" encoding="utf-8"?>
<!-- Generator: Adobe Illustrator 15.1.0, SVG Export Plug-In . SVG Version: 6.00 Build 0)  -->
<!DOCTYPE svg PUBLIC "-//W3C//DTD SVG 1.1//EN" "http://www.w3.org/Graphics/SVG/1.1/DTD/svg11.dtd">
<svg version="1.1" id="レイヤー_1" xmlns="http://www.w3.org/2000/svg" xmlns:xlink="http://www.w3.org/1999/xlink" x="0px"
	 y="0px" width="1500px" height="500px" viewBox="0 0 1500 500" enable-background="new 0 0 1500 500" xml:space="preserve">
<g>
	<rect x="0" fill="#393E46" width="1500" height="500"/>
</g>
<g>
	<path fill="#FFFFFF" d="M314.698,365.466h-48.583v-232.55h106.235c45.02,0,72.227,28.825,72.227,74.493
		c0,21.052-11.66,74.169-74.171,74.169h-55.708V365.466z M359.719,241.417c36.275,0,36.275-25.911,36.275-36.275
		c0-22.672-12.632-32.064-42.754-32.064h-38.542v68.34H359.719z"/>
	<path fill="#FFFFFF" d="M478.26,193.158h43.4v29.799h0.646c9.395-17.49,19.758-34.333,47.288-34.333
		c2.915,0,5.83,0.323,8.745,0.647v45.992c-3.887-0.648-8.745-0.648-12.956-0.648c-35.303,0-41.78,22.024-41.78,41.133v89.718H478.26
		V193.158z"/>
	<path fill="#FFFFFF" d="M676.155,370c-46.315,0-88.097-28.501-88.097-90.688c0-62.186,41.781-90.688,88.097-90.688
		c46.316,0,88.097,28.503,88.097,90.688C764.252,341.499,722.472,370,676.155,370z M676.155,226.843
		c-34.979,0-41.457,30.445-41.457,52.47c0,22.023,6.478,52.469,41.457,52.469s41.458-30.445,41.458-52.469
		C717.613,257.288,711.135,226.843,676.155,226.843z"/>
	<path fill="#FFFFFF" d="M848.461,365.466h-45.344V225.547h-24.939v-32.389h24.939v-13.927c0-35.628,19.434-49.231,50.527-49.231
		c13.278,0,19.432,0.323,23.318,0.648v36.599h-12.631c-15.547,0-15.871,4.858-15.871,19.109v6.802h29.474v32.389h-29.474V365.466z"
		/>
	<path fill="#FFFFFF" d="M950.484,172.754H905.14v-42.105h45.345V172.754z M950.484,193.158v172.308H905.14V193.158H950.484z"/>
	<path fill="#FFFFFF" d="M1040.524,365.466h-45.344v-232.55h45.344V365.466z"/>
	<path fill="#FFFFFF" d="M1231.94,314.939c-11.982,41.457-46.314,55.061-75.788,55.061c-48.584,0-85.83-23.319-85.83-94.252
		c0-20.728,7.125-87.124,82.592-87.124c34.008,0,80.971,16.194,80.971,94.898v8.097h-118.219
		c1.296,12.956,3.887,42.105,40.486,42.105c12.631,0,25.586-6.479,29.148-18.785H1231.94z M1187.245,262.146
		c-2.591-27.855-20.404-36.275-34.979-36.275c-21.377,0-32.713,13.604-35.304,36.275H1187.245z"/>
</g>
</svg>
